<?xml version="1.0" encoding="utf-8"?>
<!-- Generator: Adobe Illustrator 19.0.0, SVG Export Plug-In . SVG Version: 6.00 Build 0)  -->
<svg version="1.1" id="Layer_1" xmlns="http://www.w3.org/2000/svg" xmlns:xlink="http://www.w3.org/1999/xlink" x="0px" y="0px"
	 viewBox="-148.1 302 186.2 200" style="enable-background:new -148.1 302 186.2 200;" xml:space="preserve">
<style type="text/css">
	.st0{fill:#DD0031;}
	.st1{fill:#C3002F;}
	.st2{fill:#FFFFFF;}
</style>
<g>
	<polygon class="st0" points="-55,302 -55,302 -55,302 -148.1,335.2 -133.9,458.3 -55,502 -55,502 -55,502 23.9,458.3 38.1,335.2 	
		"/>
	<polygon class="st1" points="-55,302 -55,324.2 -55,324.1 -55,425.4 -55,425.4 -55,502 -55,502 23.9,458.3 38.1,335.2 	"/>
	<path class="st2" d="M-55,324.1l-58.2,130.5l0,0h21.7l0,0l11.7-29.2h49.4l11.7,29.2l0,0H3l0,0L-55,324.1L-55,324.1L-55,324.1
		L-55,324.1L-55,324.1z M-38,407.4h-34l17-40.9L-38,407.4z"/>
</g>
</svg>
