<?xml version="1.0" encoding="utf-8"?>
<!-- Generator: Adobe Illustrator 19.0.0, SVG Export Plug-In . SVG Version: 6.00 Build 0)  -->
<svg version="1.1" id="Layer_1" xmlns="http://www.w3.org/2000/svg" xmlns:xlink="http://www.w3.org/1999/xlink" x="0px" y="0px"
	 viewBox="135.2 327 128.2 176" style="enable-background:new 135.2 327 128.2 176;" xml:space="preserve">
<style type="text/css">
	.st0{fill:none;}
	.st1{fill:#FFA000;}
	.st2{fill:#F57C00;}
	.st3{fill:#FFCA28;}
	.st4{fill:#FFFFFF;fill-opacity:0.2;}
	.st5{opacity:0.2;fill:#A52714;enable-background:new    ;}
	.st6{fill:url(#SVGID_1_);}
	.st7{display:none;}
	.st8{display:inline;fill:#00FFFF;fill-opacity:0.2;}
</style>
<path class="st0" d="M246.8,366.4c-0.4-2.2-2.4-3.6-4.6-3.3c-0.8,0.1-1.6,0.5-2.2,1.1L219.2,385l-16.3-31.1c-1-2-3.4-2.7-5.4-1.7
	c-0.7,0.4-1.3,1-1.7,1.7l-8.9,17l-22.4-41.8c-1-1.9-3.5-2.7-5.4-1.6c-1.1,0.6-1.9,1.7-2.1,2.9L135.3,469l57.9,32.5
	c3.6,2,8.1,2,11.7,0l58.4-32.5L246.8,366.4z"/>
<path class="st1" d="M135.3,469L157,330.4c0.3-2.2,2.4-3.7,4.6-3.3c1.2,0.2,2.3,1,2.9,2.1l22.4,41.8l8.9-17c1-2,3.4-2.7,5.4-1.7
	c0.7,0.4,1.3,1,1.7,1.7l60.4,115H135.3z"/>
<path class="st2" d="M210.2,415l-23.3-44.1L135.3,469L210.2,415z"/>
<path class="st3" d="M263.3,469l-16.6-102.7c-0.4-2.2-2.4-3.6-4.6-3.3c-0.8,0.1-1.6,0.5-2.2,1.1L135.3,469l57.9,32.5
	c3.6,2,8.1,2,11.7,0L263.3,469z"/>
<path class="st4" d="M246.8,366.4c-0.4-2.2-2.4-3.6-4.6-3.3c-0.8,0.1-1.6,0.5-2.2,1.1L219.2,385l-16.3-31.1c-1-2-3.4-2.7-5.4-1.7
	c-0.7,0.4-1.3,1-1.7,1.7l-8.9,17l-22.4-41.8c-1-1.9-3.5-2.7-5.4-1.6c-1.1,0.6-1.9,1.7-2.1,2.9L135.3,469h-0.1l0.1,0.1l0.6,0.3
	l83.3-83.4l20.8-20.8c1.6-1.6,4.1-1.6,5.7,0c0.6,0.6,1,1.3,1.1,2.2l16.4,101.7l0.2-0.1L246.8,366.4z M135.5,468.8L157,331.4
	c0.3-2.2,2.4-3.7,4.6-3.3c1.2,0.2,2.3,1,2.9,2.1l22.4,41.8l8.9-17c1-2,3.4-2.7,5.4-1.7c0.7,0.4,1.3,1,1.7,1.7l16,30.4L135.5,468.8z"
	/>
<path class="st5" d="M204.9,500.5c-3.6,2-8.1,2-11.7,0l-57.8-32.4l-0.1,0.9l57.9,32.5c3.6,2,8.1,2,11.7,0l58.4-32.5l-0.1-0.9
	L204.9,500.5z"/>
<linearGradient id="SVGID_1_" gradientUnits="userSpaceOnUse" x1="-483.2709" y1="-669.4916" x2="-433.2009" y2="-719.5617" gradientTransform="matrix(2.67 0 0 -2.67 1422.1818 -1429.5647)">
	<stop  offset="0" style="stop-color:#FFFFFF;stop-opacity:0.1"/>
	<stop  offset="1" style="stop-color:#FFFFFF;stop-opacity:0"/>
</linearGradient>
<path class="st6" d="M246.8,366.4c-0.4-2.2-2.4-3.6-4.6-3.3c-0.8,0.1-1.6,0.5-2.2,1.1L219.2,385l-16.3-31.1c-1-2-3.4-2.7-5.4-1.7
	c-0.7,0.4-1.3,1-1.7,1.7l-8.9,17l-22.4-41.8c-1-1.9-3.5-2.7-5.4-1.6c-1.1,0.6-1.9,1.7-2.1,2.9L135.3,469l57.9,32.5
	c3.6,2,8.1,2,11.7,0l58.4-32.5L246.8,366.4z"/>
<g id="guides" class="st7">
	<rect id="XMLID_13_" x="69.4" y="501" class="st8" width="753.2" height="64"/>
	<rect id="XMLID_10_" x="69.4" y="229" class="st8" width="753.2" height="64"/>
	<rect x="758.5" y="229" class="st8" width="64" height="336"/>
	<rect x="266.3" y="229" class="st8" width="48" height="336"/>
	<rect x="69.5" y="229" class="st8" width="64" height="336"/>
</g>
</svg>
