<?xml version="1.0" encoding="utf-8"?>
<!-- Generator: Adobe Illustrator 19.0.0, SVG Export Plug-In . SVG Version: 6.00 Build 0)  -->
<svg version="1.1" id="Layer_1" xmlns="http://www.w3.org/2000/svg" xmlns:xlink="http://www.w3.org/1999/xlink" x="0px" y="0px"
	 viewBox="185 223.4 1006 347.6" style="enable-background:new 185 223.4 1006 347.6;" xml:space="preserve">
<style type="text/css">
	.st0{fill:#FFC400;}
	.st1{fill:#262626;}
	.st2{fill:#0091EA;}
	.st3{fill:#FFFFFF;}
</style>
<g id="XMLID_62_">
	<path id="XMLID_63_" class="st0" d="M685.9,386.8h-79.5v-152h47.1v104.9h32.4V386.8z"/>
</g>
<g id="XMLID_58_">
	<path id="XMLID_59_" class="st0" d="M799.3,352.3c-14,14-30.7,20.9-50.4,20.9c-19.8,0-36.4-6.9-50.4-20.9
		c-14-14-20.9-30.7-20.9-50.4c0-19.8,6.9-36.4,20.9-50.4c14-14,30.7-20.9,50.4-20.9c19.8,0,36.4,6.9,50.4,20.9
		c14,14,21.1,30.7,21.1,50.4C820.4,321.7,813.3,338.3,799.3,352.3z M748.9,277.7c-13.3,0-24,10.9-24,24.2c0,13.3,10.7,24.2,24,24.2
		c13.3,0,24.2-10.9,24.2-24.2C773.1,288.6,762.2,277.7,748.9,277.7z"/>
</g>
<g id="XMLID_44_">
	<path id="XMLID_45_" class="st0" d="M997.3,379c-12.4,7.1-25.8,11.3-39.1,12.9c-3.8,0.7-7.8,0.7-11.6,0.7c-8.9,0-17.8-1.1-26.4-3.6
		l-0.2,0.2c-16-4.2-31.1-12.4-43.5-24.2H876v21.8h-47.1V234.6h74.9c18,0,33.3,6.4,46,19.1c12.7,12.7,19.1,28.2,19.1,46.2
		c0,17.8-7.1,33.8-18.7,45.5c8-0.7,16-2.9,23.3-7.1L997.3,379z M903.8,281.9H876v36h27.8c9.8,0,18-8.2,18-18
		C921.8,289.9,913.5,281.9,903.8,281.9z"/>
</g>
<g id="XMLID_40_">
	<path id="XMLID_41_" class="st0" d="M1121.3,366.4c-16.1,16.1-35.2,24-58,24c-22.7,0-41.9-7.9-58-24c-16.1-16.1-24-35.2-24-58
		s7.9-41.9,24-58c16.1-16.1,35.2-24,58-24c22.7,0,41.9,7.9,58,24c16.1,16.1,24.3,35.2,24.3,58S1137.4,350.3,1121.3,366.4z
		 M1063.3,280.6c-15.3,0-27.6,12.5-27.6,27.8c0,15.3,12.3,27.8,27.6,27.8c15.3,0,27.8-12.5,27.8-27.8
		C1091.1,293.1,1078.6,280.6,1063.3,280.6z"/>
</g>
<g id="XMLID_36_">
	<path id="XMLID_37_" class="st1" d="M721.2,521.4c-12,12-26.8,18.1-43.9,18.1h-26.1v20.7h-44.9V415.8h71.1
		c17.1,0,31.8,6.1,43.9,18.1c12,12,18.1,26.8,18.1,43.9S733.3,509.4,721.2,521.4z M677.4,460.7h-26.1v34.2h26.1
		c9.5,0,17.1-7.8,17.1-17.1C694.5,468.3,686.9,460.7,677.4,460.7z"/>
</g>
<g id="XMLID_33_">
	<path id="XMLID_34_" class="st1" d="M788.3,560.2h-44.7V415.8h44.7V560.2z"/>
</g>
<g id="XMLID_30_">
	<path id="XMLID_31_" class="st1" d="M923.2,416l-57.4,99.5h29.9l-21.5,44.7h-86l57.4-99.3H794V416H923.2z"/>
</g>
<g id="XMLID_16_">
	<path id="XMLID_17_" class="st1" d="M1057.6,416l-65.2,99.5h29.9l-23.7,44.7h-83.8l57.4-99.3h-51.7V416H1057.6z"/>
</g>
<g id="XMLID_5_">
	<path id="XMLID_6_" class="st1" d="M1007.6,560.2l91.7-155.6l91.7,155.6H1007.6z M1113.2,515.3l-13.9-24.3l-14.1,24.3H1113.2z"/>
</g>
<g id="XMLID_15_">
	<g id="XMLID_292_">
		<path id="XMLID_14_" class="st1" d="M514.2,397.4c0-73.4-59.5-133-133-133c-73.4,0-133,59.5-133,133c0,28.5,9,54.9,24.3,76.5
			c3.7-16.8,5.5-37.6,3.9-45.8c-1.5-4.6-0.6-36.7-0.6-42.5l-7.5,2.6c-0.4-10.5,10.1-22.8,15-28.2c1.8-7,6.6-13.8,10-20.3
			c-2.8,0.5-7.6,2.4-11.8,3.6c-8.4,2.4,16.1-24.6,28.2-30c2.8-3.1,7.9-4,10.9-7.4c-2-0.7-11.1-0.3-13.6-1.1
			c32.1-28,127-36.6,162.8,10.1c-24.5,3.1-32.3,8-53.6,22.9c-1.1,0.8-2.6,0.6-4,0.1c-2.5-1-4.4-3-5.6-5.4
			c-3.9-8.5-10-14.7-20.1-15.1c-11-0.5-18.4,6.2-23.1,15.5c-3.2,6.2-4.7,12.9-4.8,19.3c-0.1,6.6,1.5,12.9,4.6,18
			c1.7,2.8,3.8,5.3,6.4,7.2c0,0,0.1,0.1,0.1,0.1c8,6.2,13.4,15.3,15,25.3c0.7,4.4,0.5,8.9-2.6,14c-6,9.7-5,29.2-4.5,30.8
			c7.1,25.5,32.5,58.2,47.2,75.6C476.8,505,514.2,455.6,514.2,397.4z"/>
	</g>
	<g id="XMLID_291_">
		<path id="XMLID_21_" class="st2" d="M342.3,524.6c-6.6-19.2-8.3-48.7-11.5-52.8c-4.7-5.8-5.8-46.5,0-83.3
			c5.8-36.8,27.9-36.4,27.9-36.4c0-6.4,1.6-13,4.8-19.3c4.7-9.3,12.1-16,23.1-15.5c10.1,0.5,16.2,6.6,20.1,15.1
			c1.1,2.4,3.1,4.5,5.6,5.4c1.4,0.5,2.9,0.7,4-0.1c21.3-14.9,29-19.8,53.6-22.9c-35.7-46.8-130.7-38.1-162.8-10.1
			c2.4,0.8,11.6,0.5,13.6,1.1c-3,3.4-8.1,4.3-10.9,7.4c-12.1,5.4-36.6,32.4-28.2,30c4.2-1.2,9-3.2,11.8-3.6
			c-10.3,10-25.4,38.1-25,48.6l7.5-2.6c-0.1,5.8-1,37.9,0.6,42.5c1.5,8.2-0.2,29-3.9,45.8C289.3,497.8,313.7,515.9,342.3,524.6z"/>
	</g>
	<g id="XMLID_290_">
		<path id="XMLID_23_" class="st0" d="M382.1,416.7c3.1-5,3.3-9.6,2.6-14c-1.6-10-7-19-15-25.3c0,0-0.1-0.1-0.1-0.1
			c-2.6-2-4.7-4.5-6.4-7.2c-3.1-5.1-4.7-11.4-4.6-18c0,0-22.1-0.4-27.9,36.4c-5.8,36.8-4.7,77.5,0,83.3c3.2,4.1,4.9,33.6,11.5,52.8
			c12.3,3.8,25.4,5.8,38.9,5.8c15.3,0,29.9-2.6,43.6-7.3c-14.7-17.4-40.1-50.1-47.2-75.6C377.2,445.9,376.1,426.3,382.1,416.7z"/>
	</g>
	<g id="XMLID_289_">
		<path id="XMLID_27_" class="st1" d="M381.2,571.4c-95.9,0-174-78-174-174c0-95.9,78-174,174-174s174,78,174,174
			C555.2,493.3,477.1,571.4,381.2,571.4z M381.2,244.3c-84.4,0-153.1,68.7-153.1,153.1c0,84.4,68.7,153.1,153.1,153.1
			s153.1-68.7,153.1-153.1C534.2,313,465.6,244.3,381.2,244.3z"/>
	</g>
	<g id="XMLID_286_">
		<path id="XMLID_13_" class="st3" d="M366.1,339.5c3.3-4.4,6.1-9.4,10.1-13c3.5-3.2,7.3-1,8.3,3.8c1.2,5.9-3.3,14.8-8.7,17.2
			C371,349.6,367.4,346.6,366.1,339.5z"/>
	</g>
	<g id="XMLID_285_">
		<path id="XMLID_12_" class="st3" d="M409,378.8c-1.2-0.2-2.3,0.6-2.6,1.8c-2.1,9.4-11,47.9-15.6,61c-5.2,15,50.3,2.8,53.6-6.1
			C447.7,426.9,442.9,384.2,409,378.8z"/>
	</g>
	<g id="XMLID_282_">
		<path id="XMLID_11_" class="st3" d="M473.2,375.9c5.7-4.9,16.6-8.6,20.2-9.7c-1-4.3-2.3-8.5-4-12.5c-1.3-3.2-3.2-4.4-6.3-3.3
			c-8.2,2.8-16.7,5.1-24.5,8.7c-3.7,1.7-7.3,3.8-10.9,5.9c-2.2,1.3-4.4-1.5-2.8-3.4c3.1-3.5,6.4-6.7,9.9-9.7
			c6.8-5.8,14.5-10.7,21.8-16c-16.2-9.1-53.7,7.4-66,24.2c-1.7,2.4-1,5.8,1.7,7c4.6,2.2,9.3,4.2,13.4,7.1
			c18.1,12.6,25.3,31.5,28,52.3c1.3,10.3,1.4,20.8,1.8,32c0.1,2.3,2.7,3.6,4.6,2.2l0,0c24.8-18.6,38.2-53.8,34.8-85.2
			c-6.1,0.5-14.5,2.5-19.9,3.9C473,380,471.6,377.3,473.2,375.9z"/>
	</g>
	<g id="XMLID_281_">
		<circle id="XMLID_10_" class="st3" cx="392.7" cy="337.5" r="3.7"/>
	</g>
</g>
</svg>
