<?xml version="1.0" encoding="utf-8"?>
<!-- Generator: Adobe Illustrator 19.0.0, SVG Export Plug-In . SVG Version: 6.00 Build 0)  -->
<svg version="1.1" id="Layer_1" xmlns="http://www.w3.org/2000/svg" xmlns:xlink="http://www.w3.org/1999/xlink" x="0px" y="0px"
	 viewBox="0 0 640.5 950.6" style="enable-background:new 0 0 640.5 950.6;" xml:space="preserve">
<style type="text/css">
	.st0{fill:#0091EA;}
	.st1{fill:#FFC400;}
	.st2{fill:#262626;}
	.st3{fill:none;}
</style>
<g id="XMLID_291_">
	<path id="XMLID_21_" class="st0" d="M249.9,552.9c-12.1-35.2-15.2-89.5-21.1-96.9c-8.5-10.7-10.7-85.4,0-152.9
		c10.7-67.5,51.2-66.8,51.2-66.8c0.1-11.7,2.9-23.9,8.8-35.4c8.7-17.1,22.2-29.4,42.4-28.5c18.5,0.8,29.8,12.2,36.9,27.8
		c2,4.5,5.6,8.2,10.2,10c2.6,1,5.2,1.3,7.3-0.1c39.1-27.3,53.3-36.4,98.4-42C418.3,82.2,244,98.2,185.1,149.5
		c4.5,1.5,21.2,0.9,25,2.1c-5.5,6.2-14.9,7.9-20,13.6c-22.2,9.9-67.2,59.6-51.8,55.1c7.8-2.3,16.5-5.8,21.7-6.7
		c-18.9,18.3-46.7,69.9-45.9,89.1l13.7-4.8c-0.2,10.6-1.8,69.6,1,78c2.8,15.1-0.3,53.3-7.2,84C152.6,503.7,197.4,536.9,249.9,552.9z
		"/>
</g>
<g id="XMLID_290_">
	<path id="XMLID_23_" class="st1" d="M323,354.9c5.8-9.2,6.1-17.5,4.8-25.6c-2.9-18.3-12.8-35-27.4-46.4c-0.1-0.1-0.2-0.1-0.2-0.2
		c-4.7-3.6-8.6-8.2-11.7-13.3c-5.7-9.5-8.6-21-8.5-33.1c0,0-40.5-0.7-51.2,66.8c-10.7,67.5-8.5,142.3,0,152.9
		c6,7.5,9.1,61.8,21.1,96.9c22.6,6.9,46.5,10.6,71.4,10.6c28,0,55-4.8,80-13.5c-27-32-73.6-91.9-86.6-138.7
		C313.9,408.5,311.9,372.6,323,354.9z"/>
</g>
<g id="XMLID_289_">
	<path id="XMLID_27_" class="st2" d="M321.3,638.8C145.1,638.8,1.8,495.6,1.8,319.4C1.8,143.3,145.1,0,321.3,0
		s319.4,143.3,319.4,319.4C640.7,495.6,497.4,638.8,321.3,638.8z M321.3,38.4c-154.9,0-281,126.1-281,281c0,154.9,126.1,281,281,281
		s281-126.1,281-281C602.3,164.5,476.2,38.4,321.3,38.4z"/>
</g>
<path id="XMLID_3_" class="st3" d="M372.3,285.4c-2.2-0.3-4.3,1.1-4.7,3.3c-3.9,17.2-20.2,88-28.6,112.1
	c-9.5,27.5,92.3,5.1,98.4-11.2C443.4,373.5,434.5,295.2,372.3,285.4z"/>
<path id="XMLID_9_" class="st3" d="M530.3,279.4c-11.2,1-26.6,4.6-36.5,7.1c-3.9,1-6.6-4-3.6-6.7c10.5-9.1,30.5-15.7,37.2-17.7
	c-1.8-7.9-4.2-15.6-7.3-22.9c-2.5-5.9-5.9-8-11.6-6.1c-15.1,5.1-30.6,9.4-45,16c-6.9,3.2-13.5,7-20,10.9c-4,2.4-8.2-2.7-5.1-6.2
	c5.7-6.4,11.7-12.3,18.1-17.8c12.6-10.7,26.6-19.6,40.1-29.4c-29.8-16.8-98.6,13.5-121.2,44.4c-3.2,4.4-1.8,10.6,3.2,12.9
	c8.5,4,17.1,7.8,24.7,13.1c33.2,23.1,46.5,57.8,51.4,96.1c2.4,18.9,2.5,38.2,3.3,58.7c0.2,4.2,5,6.6,8.4,4l0.1,0
	C512.1,401.7,536.6,337.1,530.3,279.4z"/>
<path id="XMLID_12_" class="st2" d="M321.3,75.3c-134.8,0-244.1,109.3-244.1,244.1c0,52.3,16.5,100.8,44.5,140.5
	c6.9-30.8,10-69,7.2-84c-2.8-8.4-1.2-67.3-1-78l-13.7,4.8c-0.8-19.3,18.5-41.9,27.6-51.8c3.2-12.9,12.2-25.4,18.3-37.3
	c-5.2,0.9-14,4.4-21.7,6.7c-15.4,4.5,29.6-45.1,51.8-55.1c5.2-5.7,14.5-7.3,20-13.6c-3.7-1.2-20.5-0.6-25-2.1
	c58.9-51.3,233.2-67.3,298.8,18.6c-45.1,5.6-59.3,14.7-98.4,42c-2.1,1.4-4.7,1.1-7.3,0.1c-4.6-1.8-8.2-5.5-10.2-10
	c-7.1-15.6-18.4-27-36.9-27.8c-20.2-0.9-33.7,11.4-42.4,28.5c-5.8,11.4-8.7,23.7-8.8,35.4c-0.1,12.1,2.8,23.7,8.5,33.1
	c3.1,5.1,7,9.7,11.7,13.3c0.1,0.1,0.2,0.1,0.2,0.2c14.6,11.4,24.5,28,27.4,46.4c1.3,8.1,1,16.4-4.8,25.6
	c-11.1,17.7-9.1,53.6-8.3,56.5c13,46.8,59.6,106.8,86.6,138.7c95.5-33.1,164.1-123.9,164.1-230.6C565.4,184.6,456.1,75.3,321.3,75.3
	z M311.3,227.8c-8.8,3.9-15.3-1.6-17.8-14.7c6.1-8.1,11.2-17.3,18.5-23.9c6.5-5.8,13.4-1.8,15.2,7
	C329.5,207,321.3,223.3,311.3,227.8z M335.7,209.4c0-3.7,3-6.7,6.7-6.7c3.7,0,6.7,3,6.7,6.7c0,3.7-3,6.7-6.7,6.7
	C338.7,216.1,335.7,213.1,335.7,209.4z M437.4,389.5c-6.1,16.3-108,38.7-98.4,11.2c8.3-24,24.7-94.9,28.6-112.1
	c0.5-2.2,2.6-3.6,4.7-3.3C434.5,295.2,443.4,373.5,437.4,389.5z M466.5,435.8L466.5,435.8c-3.5,2.6-8.3,0.2-8.5-4
	c-0.8-20.5-0.9-39.8-3.3-58.7c-4.9-38.2-18.2-72.9-51.4-96.1c-7.6-5.3-16.2-9.1-24.7-13.1c-4.9-2.3-6.4-8.5-3.2-12.9
	c22.6-30.9,91.5-61.2,121.2-44.4c-13.5,9.8-27.6,18.7-40.1,29.4c-6.4,5.5-12.5,11.4-18.1,17.8c-3.1,3.5,1.1,8.6,5.1,6.2
	c6.5-4,13.1-7.8,20-10.9c14.4-6.6,29.9-10.9,45-16c5.7-1.9,9.1,0.2,11.6,6.1c3.1,7.4,5.5,15,7.3,22.9c-6.7,2-26.7,8.7-37.2,17.7
	c-3.1,2.7-0.4,7.7,3.6,6.7c9.9-2.5,25.3-6.1,36.5-7.1C536.6,337.1,512.1,401.7,466.5,435.8z"/>
<g id="XMLID_252_">
	<path id="XMLID_48_" class="st1" d="M162.3,822.3H96.6V696.7h38.9v86.7h26.8V822.3z"/>
</g>
<g id="XMLID_249_">
	<path id="XMLID_49_" class="st1" d="M256.1,793.8c-11.6,11.6-25.3,17.3-41.7,17.3c-16.3,0-30.1-5.7-41.7-17.3
		c-11.6-11.6-17.3-25.3-17.3-41.7c0-16.3,5.7-30.1,17.3-41.7c11.6-11.6,25.3-17.3,41.7-17.3c16.3,0,30.1,5.7,41.7,17.3
		c11.6,11.6,17.4,25.3,17.4,41.7C273.5,768.5,267.6,782.2,256.1,793.8z M214.4,732.1c-11,0-19.8,9-19.8,20c0,11,8.8,20,19.8,20
		c11,0,20-9,20-20C234.4,741.1,225.4,732.1,214.4,732.1z"/>
</g>
<g id="XMLID_244_">
	<path id="XMLID_50_" class="st1" d="M419.7,815.8c-10.3,5.9-21.3,9.4-32.3,10.7c-3.1,0.5-6.4,0.5-9.5,0.5c-7.3,0-14.7-0.9-21.8-2.9
		l-0.2,0.2c-13.2-3.5-25.7-10.3-36-20h-0.4v18h-38.9V696.5h61.9c14.9,0,27.5,5.3,38,15.8c10.5,10.5,15.8,23.3,15.8,38.2
		c0,14.7-5.9,27.9-15.4,37.6c6.6-0.5,13.2-2.4,19.3-5.9L419.7,815.8z M342.4,735.6h-23v29.7h23c8.1,0,14.9-6.8,14.9-14.9
		C357.3,742.2,350.5,735.6,342.4,735.6z"/>
</g>
<g id="XMLID_239_">
	<path id="XMLID_51_" class="st1" d="M522.1,805.4c-13.3,13.3-29.1,19.8-47.9,19.8c-18.8,0-34.6-6.5-47.9-19.8
		c-13.3-13.3-19.8-29.1-19.8-47.9s6.5-34.6,19.8-47.9c13.3-13.3,29.1-19.8,47.9-19.8c18.8,0,34.6,6.5,47.9,19.8
		c13.3,13.3,20,29.1,20,47.9S535.4,792.1,522.1,805.4z M474.2,734.5c-12.7,0-22.8,10.3-22.8,23c0,12.7,10.1,23,22.8,23
		c12.7,0,23-10.3,23-23C497.2,744.8,486.9,734.5,474.2,734.5z"/>
</g>
<g id="XMLID_160_">
	<path id="XMLID_52_" class="st2" d="M191.5,918.5c-9.9,9.9-22.1,15-36.2,15h-21.6v17.1H96.6V831.2h58.7c14.1,0,26.3,5.1,36.2,15
		c9.9,9.9,15,22.1,15,36.2C206.5,896.6,201.5,908.6,191.5,918.5z M155.3,868.3h-21.6v28.2h21.6c7.8,0,14.1-6.4,14.1-14.1
		C169.4,874.6,163.1,868.3,155.3,868.3z"/>
</g>
<g id="XMLID_158_">
	<path id="XMLID_53_" class="st2" d="M246.9,950.6H210V831.2h36.9V950.6z"/>
</g>
<g id="XMLID_153_">
	<path id="XMLID_54_" class="st2" d="M358.5,831.4l-47.4,82.2h24.7L318,950.6h-71.1l47.4-82.1h-42.7v-37.1H358.5z"/>
</g>
<g id="XMLID_106_">
	<path id="XMLID_55_" class="st2" d="M469.5,831.4l-53.9,82.2h24.7l-19.6,36.9h-69.3l47.4-82.1h-42.7v-37.1H469.5z"/>
</g>
<g id="XMLID_47_">
	<path id="XMLID_56_" class="st2" d="M428.2,950.6L504,822l75.8,128.6H428.2z M515.5,913.5l-11.5-20l-11.7,20H515.5z"/>
</g>
</svg>
