<?xml version="1.0" encoding="utf-8"?>
<!-- Generator: Adobe Illustrator 19.0.0, SVG Export Plug-In . SVG Version: 6.00 Build 0)  -->
<svg version="1.1" id="Layer_1" xmlns="http://www.w3.org/2000/svg" xmlns:xlink="http://www.w3.org/1999/xlink" x="0px" y="0px"
	 viewBox="0 0 413.8 112.8" style="enable-background:new 0 0 413.8 112.8;" xml:space="preserve">
<style type="text/css">
	.st0{fill:#0091EA;}
</style>
<path id="XMLID_64_" class="st0" d="M105,56.5c0-11.3-0.1-22.7,0-34c0.1-15.1,7.4-22.4,22.5-22.4c21-0.1,42,0,63,0
	c2.3,0,4.5-0.5,4.6,3.3c0.1,4-2,3.7-4.7,3.7c-20.2,0-40.3,0-60.5,0C117.4,7,113,11.4,113,23.9c0,21.5-0.1,43,0,64.5
	c0,11.9,4.5,16.3,16.3,16.4c17,0.1,34,0,51,0c5.8,0,6.6-0.9,6.6-6.7c0-12.8,0-25.7,0-38.5c0-5.8-0.8-6.6-6.7-6.6
	c-8.8,0-17.7-0.1-26.5,0c-2.7,0-3.8-0.6-3.8-3.6c0-3,1.2-3.6,3.9-3.5c11.2,0.1,22.3,0,33.5,0.1c5.4,0.1,7.7,2.2,7.7,7.6
	c0.1,17.2,0.1,34.3,0,51.5c0,5.3-2.3,7.6-7.7,7.7c-20.7,0.1-41.3,0.3-62-0.1c-12.8-0.2-19.9-7.7-20.2-20.6
	C104.8,80.1,105,68.3,105,56.5C105,56.5,105,56.5,105,56.5z"/>
<path id="XMLID_63_" class="st0" d="M377.2,0C388,0,398.9,0.1,409.7,0c2.9,0,4.1,0.6,4.1,3.8c0,3.2-0.7,4.3-4.2,4.3
	C389.5,7.9,369.3,8,349.2,8c-13.3,0-17.4,4.1-17.4,17.3c0,6.8-0.1,13.7,0.1,20.5c0.2,9.3,4.7,13.8,14,13.9c14.5,0.2,29,0,43.5,0.1
	c7.4,0,9.3,2,9.4,9.6c0,6.7,0.1,13.3,0,20c-0.1,6-2.2,8.3-8.1,8.3c-21,0.1-42,0-63,0.1c-2.6,0-3.9-0.3-4-3.4
	c-0.1-3.5,1.6-3.6,4.2-3.6c18.5,0.1,37,0,55.5,0c6.5,0,7.3-0.8,7.3-7.1c0-3.2-0.1-6.3,0-9.5c0.3-4.8-1.9-6.5-6.6-6.4
	c-13.2,0.2-26.3,0.1-39.5,0c-13.3-0.1-20.4-6.9-20.8-20.2c-0.3-8.8-0.2-17.7,0-26.5c0.3-13.3,7.5-20.7,20.9-21
	C355.6-0.2,366.4,0,377.2,0C377.2,0,377.2,0,377.2,0z"/>
<path id="XMLID_62_" class="st0" d="M360.6,112.7c-10.3,0-20.7,0.1-31,0c-2.6,0-6,1.5-6-3.9c0-5.1,3-4.1,5.8-4.1c19.3,0,38.6,0,58,0
	c1.8,0,3.7,0,5.5-0.1c7.9-0.8,12.3-4.8,12.7-12.8c0.4-8.6,0.4-17.3,0-26c-0.4-8.6-5.1-12.8-14-12.9c-14.5-0.2-29,0-43.5-0.1
	c-7.3,0-9.2-1.9-9.2-9.1c0-6.7-0.1-13.3,0-20c0.1-5.4,2.2-7.7,7.6-7.7c21.3-0.1,42.6,0,64-0.1c2.6,0,3.4,0.8,3.5,3.4
	c0.1,2.9-0.9,3.7-3.7,3.7c-18.7-0.1-37.3-0.1-56,0c-6.7,0-7.3,0.6-7.3,7.5c0,2.8,0.1,5.7,0,8.5c-0.2,4.3,1.6,6,5.9,6
	c12.5-0.1,25-0.1,37.5,0c15.5,0.1,23.3,7.7,23.6,23.3c0.1,7.7,0.2,15.3,0,23c-0.3,13.9-7.6,21.2-21.6,21.4
	C381.6,112.8,371.1,112.7,360.6,112.7C360.6,112.7,360.6,112.7,360.6,112.7z"/>
<path id="XMLID_61_" class="st0" d="M90,64.1c0,14.3,0,28.6,0,43c0,2.5,1.5,5.8-3.6,5.7c-4.8-0.1-3.3-3.2-3.3-5.5
	c-0.1-26.8,0-53.6,0-80.4c0-1.8,0-3.7-0.1-5.5c-0.5-8.2-4.6-12.9-12.8-13.1c-16.3-0.4-32.6-0.4-49,0c-8.8,0.2-13,5.4-13.1,15
	C8,38,8.1,52.8,8.1,67.7c0,13.7-0.1,27.3,0.1,41c0,3.4-1.1,4.2-4.3,4.2c-3.1,0-3.9-1.1-3.9-4.1c0.1-29.1-0.1-58.3,0.1-87.4
	C0.2,7.7,7.7,0.3,21.3,0.1c16-0.2,32-0.2,48,0c13.4,0.2,20.5,7.6,20.7,21.1C90.1,35.5,90,49.8,90,64.1C90,64.1,90,64.1,90,64.1z"/>
<path id="XMLID_60_" class="st0" d="M120,55.9c0-10.8-0.1-21.7,0-32.5c0-6.3,2.2-8.5,8.4-8.5c20.8-0.1,41.7,0.1,62.5-0.1
	c3.4,0,4.1,1.1,4.1,4.3c0,3.2-1.2,3.8-4.1,3.8c-18.8-0.1-37.7-0.1-56.5-0.1c-6.8,0-7.5,0.7-7.5,7.4c0,17.7,0,35.3,0,53
	c0,6.6,0.8,7.4,7.6,7.4c10.3,0,20.7-0.1,31,0.1c4.8,0.1,6.7-1.9,6.4-6.6c-0.2-3.8-0.1-7.7,0-11.5c0-3.3-1.6-4.9-4.9-4.9
	c-4.7,0-9.3-0.2-14,0c-3.5,0.2-3.1-2.1-3.1-4.2c0-2.1-0.2-3.9,3-3.9c6.7,0.2,13.3,0,20,0.1c4.4,0.1,6.9,2.4,7,6.8c0.1,8,0.1,16,0,24
	c-0.1,4.7-2.7,7-7.3,7c-15,0.1-30,0.1-45,0c-5.3,0-7.5-2.3-7.6-7.7C119.9,78.6,120,67.3,120,55.9z"/>
<path id="XMLID_59_" class="st0" d="M75,66.4c0,13.5,0.1,27-0.1,40.5c0,2.3,1.9,5.9-3.3,6c-5.1,0.1-3.6-3.3-3.6-5.8
	c-0.1-25.5,0-51,0-76.5c0-7.1-0.6-7.6-7.8-7.6c-10.2,0-20.3,0-30.5,0c-5.7,0-6.7,1-6.7,6.7c0,26.2,0,52.3,0,78.5
	c0,2.6,0.2,4.8-3.7,4.7c-3.6-0.1-4.4-1.2-4.4-4.6c0.1-20.3,0.1-40.6,0.1-61c0-7.7-0.1-15.3,0-23c0.1-6,2.2-8.2,8.1-8.3
	c14.7-0.1,29.3-0.1,44,0C73,16,75,18,75,23.9C75,38,75,52.2,75,66.4z"/>
<path id="XMLID_58_" class="st0" d="M247.8,78.2c0-4,0.1-8,0-12c-0.1-4.4,2-6.3,6.3-6.4c17.6-0.4,15.6-0.2,15.7,14.6
	c0,5.2-0.1,10.3,0,15.5c0.2,10,4.8,14.6,14.9,14.8c6.7,0.1,13.3,0.2,20,0c3.2-0.1,3.8,1.2,3.9,4.1c0,3-0.9,4.1-4,4
	c-7.2-0.2-14.3,0.1-21.5-0.1c-13.9-0.4-21.1-7.8-21.3-21.7c-0.1-5.7,0-11.3,0-17c0-2,0-4.5-2.7-4.4c-2.1,0.1-3.3,2.1-3.3,4.4
	c0,5.3,0,10.7,0,16c-0.1,15.4-7.3,22.7-22.7,22.8c-6.7,0.1-13.3-0.1-20,0.1c-3.3,0.1-3.4-1.6-3.3-4c0-2.3-0.1-4.2,3.3-4.1
	c6,0.2,12,0.1,18,0.1c12.4-0.1,16.7-4.4,16.8-17C247.8,84.5,247.8,81.4,247.8,78.2z"/>
<path id="XMLID_57_" class="st0" d="M269.8,34.7c0,4-0.2,8,0.1,12c0.3,3.9-1.8,5.4-5.1,6c-0.5,0.1-1,0.1-1.5,0.2
	c-14.5,1.2-15.5,0.3-15.5-14.1c0-5.3,0.1-10.7,0-16c-0.2-9.9-4.9-14.6-14.9-14.8c-6.5-0.1-13-0.2-19.5,0c-3.5,0.1-3.7-1.6-3.6-4.2
	c0-2.6,0.4-4,3.5-3.9c7.3,0.2,14.7-0.1,22,0.2c13.1,0.5,20.2,7.7,20.5,20.8c0.2,6.2,0,12.3,0.1,18.5c0,1.9-0.4,4.7,2.4,4.5
	c2.3-0.1,3.5-2.2,3.5-4.7c0-5.3,0-10.7,0-16c0.1-15.9,7.3-23.1,23.3-23.2c6.5,0,13,0.1,19.5-0.1c3.1-0.1,4,1,4,4
	c0,2.9-0.6,4.2-3.8,4.1C298.6,7.8,292.5,8,286.3,8c-11.9,0.1-16.3,4.5-16.4,16.3C269.8,27.8,269.8,31.3,269.8,34.7z"/>
<path id="XMLID_56_" class="st0" d="M284.8,57.2c0,8.7,0,17.3,0,26c0,6.8,0.7,7.5,7.3,7.6c4.3,0,8.7,0.1,13,0
	c2.5-0.1,3.5,0.7,3.5,3.4c0,2.8-0.9,3.8-3.7,3.7c-6.8-0.2-13.6,0.1-20.5-0.1c-5.3-0.1-7.6-2.4-7.6-7.7c-0.1-22-0.1-43.9,0-65.9
	c0-5.6,2.3-7.9,7.9-8c6.7-0.2,13.3,0,20-0.1c2.5,0,4,0.3,4,3.5c0,2.9-1.1,3.7-3.8,3.6c-4.2-0.2-8.3-0.1-12.5,0c-7,0-7.6,0.6-7.6,7.8
	C284.8,39.6,284.8,48.4,284.8,57.2z"/>
<path id="XMLID_55_" class="st0" d="M240.9,56.9c0,10.7,0,21.3,0,32c0,6.6-2.1,8.8-8.6,8.8c-6.3,0.1-12.7-0.1-19,0.1
	c-3.1,0.1-3.5-1.3-3.5-3.9c-0.1-2.8,1.2-3.3,3.6-3.2c4.7,0.1,9.3,0,14,0c3.7,0,5.5-1.7,5.5-5.4c0-19,0-38,0-56.9
	c0-3.8-1.8-5.5-5.5-5.4c-4.8,0.1-9.7-0.1-14.5,0c-2.5,0.1-3.1-1-3-3.3c0.1-2.1-0.1-3.9,3-3.8c6.7,0.2,13.3,0,20,0.1
	c5.7,0.1,8,2.5,8,8.5C240.9,35.3,240.9,46.1,240.9,56.9z"/>
</svg>
