<?xml version="1.0" encoding="utf-8"?>
<!-- Generator: Adobe Illustrator 19.0.0, SVG Export Plug-In . SVG Version: 6.00 Build 0)  -->
<svg version="1.1" id="Layer_1" xmlns="http://www.w3.org/2000/svg" xmlns:xlink="http://www.w3.org/1999/xlink" x="0px" y="0px"
	 viewBox="0 0 361.4 364.7" style="enable-background:new 0 0 361.4 364.7;" xml:space="preserve">
<style type="text/css">
	.st0{fill:#FFFFFF;}
</style>
<path id="XMLID_28_" class="st0" d="M360,328.7c-1.5-3.8-12.6-2.7-14.5-3.4c-1.9-0.8-13.3-14.9-17.2-18.3
	c-3.8-3.4-25.2-32.4-30.5-37.4c-5.3-5-8.4-30.5-9.1-37.7c-0.8-7.2,22.5-14.1,27.1-15.8s9.5,2.9,19.8,1.7c2-0.2,3.6-0.5,5-0.8
	c3.3-0.7,5.9-6.3,3.5-8.5c-1.1-1-6.1-7.4-8.1-9.9c-0.3-0.8-0.7-1.5-1-2.2c-0.3-1.9-1-5.6-1.3-8.7c-0.6-5.7-5.7-9.7-8.2-11.4
	c-0.7-0.8-1.3-1.6-2-2.5l-0.9-2.3c-1.3-3.3-1.7-6.5-8.2-3.2c-0.6,0.3-1.2,0.4-1.7,0.2c-2.3-0.7-7.1,1.3-8.2,1.8
	c-0.1,0.1-0.3,0-0.3-0.1l-1.1-3.1c-0.5-1.5-2.4-2-3.6-0.9c-2.8,2.5-7.1,6.1-8.6,6.1c-2.3,0-12.7,5-19.8,7.6
	c-12.2,4.6-29.7-3.4-68.2-21.3c-34.5-16.1-65.4-8.2-91.1,3.7h0c-2.6,1.2-8.9,0.1-10.2-2.5c-4.6-9-8.6-24.1-11.6-43.4
	c-5.6-36.2,6.4-65.3,35.7-83.4c17.5-10.9,37.7-8.9,55.6-5c33.2,7.3,68.4,58.6,68.8,59c4.6,4.4,13,10.7,20.2,7.2
	c7-3.5,7.3-13.2,4.1-18.7C273,73.2,237.5,16,185.4,3c-23.8-5.9-50.5-3.3-73.2,10.8C74.8,36.8,61.9,74.6,69,120.1
	c1.7,10.9,4.4,21.5,7.2,30.9c-0.2,0.1,1.5,5.6,2.5,8c0.1,0.1,0.1,0.2,0.1,0.4c2.6,7.8,5.2,14.4,7,18.8c0.7,1.6,0.4,3.5-0.6,4.9
	c-15.3,21.2-22.9,53.3-23.7,65.1c-1.3,21.3-24,40.8-27.4,41.2s-12.6,19-19.4,19s-8.4,5-9.9,13.7c-1.5,8.8-3.4,9.5-4.6,14.9
	s2.3,11.4,2.7,13.7s9.9,12.2,13.3,13.7c3.4,1.5-1.1-8.4,0-7.6c1.1,0.8,2.7,5.3,2.3,5.5c-0.4,0.1,5.4,0.6,6.5-0.9
	c1.1-1.5,4.6,2.7,5.7,0c1.1-2.7-5-7.2-7.2-10.3c-2.3-3-7.2-17.5-3.8-22.1s24.4-10.1,31.3-11.4c11.6-2.3,41.7-25,50.3-35.2
	c8.7-10.3,14.6-29.3,17.2-38.9c0.8-3.1,4.3-4.6,7.1-3.1c27.1,14.2,28.4,27.4,29.1,28.5c0.8,1.1,2.3,9.9,2.3,14.9
	c0,5-0.4,25.2-12.6,35.8c-12.2,10.7-2.3,12.2-1.5,14.1c0.8,1.9,12.6,12.2,14.5,14.1c1.9,1.9,8.8-1.1,12.6,1.1c3.8,2.3,6.1-3.4,8-2.5
	c1.9,0.9,6.9,0.6,6.9-3.2c0-3.8-4.6-5-7.6-5c-3,0-12.6-4.6-14.9-5c-2.3-0.4-5.3-4.6,8.8-13.3c14.1-8.8,21.5-28.8,25.2-41.9
	c6.7-24.4,1.5-32.4,2.7-30.9c1.1,1.5,19.4,0.8,16.4,9.1c-3,8.4-7.6,24.4-9.9,40.4c-1.4,9.6-2.1,17.6-2.4,22.4
	c-0.2,3.2-1.3,6.4-3.1,9.1c-10,14.8-4.4,13.8-4.1,16.6c0.4,3,7.6-1.9,9.5,0.8c1.9,2.7,6.5-1.5,11.1-1.7c4.6-0.1,3,0.1,5.7,1.3
	c2.7,1.1,0.2-9.2-3.4-8.6c-6.1,0.9-5-1.7-6.5-1.5c-1.5,0.1,7.1-27.6,13.7-33.3c3.1-2.6,8-18.9,14.5-24.4c7.7-6.6,7.8-17.5,17.2-14.1
	c4,1.5,19.8,24.4,23.6,30.1c3.8,5.7,25.9,16,30.9,19.4s15.7,11.8,20.2,16c16.2,15.2,16.2,4.6,20.6,8.4c3,2.7,8,1.9,8.4-2.3
	C361.6,330.6,361.6,332.5,360,328.7z"/>
</svg>
