<?xml version="1.0" encoding="utf-8"?>
<!-- Generator: Adobe Illustrator 19.0.0, SVG Export Plug-In . SVG Version: 6.00 Build 0)  -->
<svg version="1.1" id="Layer_1" xmlns="http://www.w3.org/2000/svg" xmlns:xlink="http://www.w3.org/1999/xlink" x="0px" y="0px"
	 viewBox="0 0 1000 990.3" style="enable-background:new 0 0 1000 990.3;" xml:space="preserve">
<style type="text/css">
	.st0{fill:#982A0F;}
	.st1{fill:url(#XMLID_45_);}
	.st2{fill:url(#XMLID_46_);}
	.st3{fill:url(#XMLID_47_);}
	.st4{fill:url(#XMLID_48_);}
	.st5{fill:url(#XMLID_49_);}
	.st6{fill:url(#XMLID_50_);}
	.st7{fill:url(#XMLID_51_);}
	.st8{fill:url(#XMLID_52_);}
	.st9{fill:url(#XMLID_53_);}
	.st10{fill:url(#XMLID_54_);}
	.st11{fill:url(#XMLID_55_);}
	.st12{fill:url(#XMLID_56_);}
	.st13{fill:#EBC68D;}
</style>
<path id="XMLID_10374_" class="st0" d="M269.5,104c86.7-51.8,265.5-78.2,424.8,8.8c159.3,87,308.3,281.7,222,531.7
	c-86.3,250-446.9,329.7-590.7,254.4C181.7,823.8,58.2,701.7,58.2,491.7C58.2,281.7,178,158.6,269.5,104z"/>
<radialGradient id="XMLID_45_" cx="499.8782" cy="491.1668" r="438.3465" gradientUnits="userSpaceOnUse">
	<stop  offset="0" style="stop-color:#EFC291"/>
	<stop  offset="0.3037" style="stop-color:#EBB478"/>
	<stop  offset="0.7527" style="stop-color:#E59C4C"/>
	<stop  offset="0.9892" style="stop-color:#D87F18"/>
</radialGradient>
<path id="XMLID_10371_" class="st1" d="M269.5,104c86.7-51.8,265.5-78.2,424.8,8.8c159.3,87,308.3,281.7,222,531.7
	c-86.3,250-446.9,329.7-590.7,254.4C181.7,823.8,58.2,701.7,58.2,491.7C58.2,281.7,178,158.6,269.5,104z"/>
<g id="XMLID_10266_">
	<radialGradient id="XMLID_46_" cx="501.7017" cy="496.3853" r="496.4984" gradientUnits="userSpaceOnUse">
		<stop  offset="0" style="stop-color:#EBCC97"/>
		<stop  offset="0.1871" style="stop-color:#ECCA92"/>
		<stop  offset="0.4115" style="stop-color:#EDC483"/>
		<stop  offset="0.6551" style="stop-color:#F0BA6B"/>
		<stop  offset="0.9107" style="stop-color:#F4AD4A"/>
		<stop  offset="1" style="stop-color:#F5A73C"/>
	</radialGradient>
	<path id="XMLID_4_" class="st2" d="M902.9,639.6c-83.5,242-432.6,319.1-571.8,246.3c-139.2-72.8-258.8-191-258.8-394.2
		c0-203.3,116-322.5,204.5-375.3c84-50.1,257-75.7,411.2,8.6C842.2,209.2,986.4,397.6,902.9,639.6z M737.9,58.8
		C639.9,5.3,515.7-3,425.1,3.7C350.3,9.1,273,28.3,228.9,54.6C160.6,95.4,111.8,183,42.6,286.3C3.9,344.2,3.4,411.2,3.4,490.5
		c0,161.7,27,234.9,119.2,348.3c15.3,18.8,57.4,47.4,78.5,59.4c52.9,29.9,206.7,101.4,290.3,92.2c76-8.4,212.5-29.8,280.7-78
		c91.5-64.6,158-139.5,195.7-248.7c34.8-100.8,36.3-201.7,27.9-265.7C985.9,323,940.3,242.1,894,188
		C847.2,133.3,795.6,90.3,737.9,58.8z"/>
	<radialGradient id="XMLID_47_" cx="499.0175" cy="493.2707" r="491.1366" gradientUnits="userSpaceOnUse">
		<stop  offset="0" style="stop-color:#EBCB96"/>
		<stop  offset="0.1973" style="stop-color:#ECC991"/>
		<stop  offset="0.4341" style="stop-color:#EDC382"/>
		<stop  offset="0.691" style="stop-color:#F0BA6A"/>
		<stop  offset="0.9607" style="stop-color:#F3AC49"/>
		<stop  offset="1" style="stop-color:#F4AA43"/>
	</radialGradient>
	<path id="XMLID_16_" class="st3" d="M904.2,640.1c-85.3,244.4-436.9,317.1-573.7,247.1C190.1,815.9,70.9,695.6,70.9,491.7
		c0-203.9,116.4-323.6,205.2-376.6c84.2-50.3,261-75.4,415.8,9.2C846.6,208.8,988.8,397.6,904.2,640.1z M231.3,56.9
		C163.4,97.4,112,183.5,45,287.1C7.5,344.8,5.7,411.8,5.7,490.8c0,167.3,35.8,242.4,133.5,352.7c16.3,18.4,57.5,45.3,80,56.8
		c56.4,28.7,206.6,92.8,291.9,80.3c77-11.2,207.6-37.4,274-89.8C871.2,822.8,933.5,747,967,640c30.9-99,29.2-197.4,17.7-261.1
		c-13.1-72.7-59.5-149.7-107.3-201.6C830.6,126.4,780.2,86,724,56.7C628,6.9,508.7-0.4,420.9,6.6C348.4,12.5,274.3,31.3,231.3,56.9z
		"/>
	<radialGradient id="XMLID_48_" cx="496.7633" cy="490.312" r="486.0888" gradientUnits="userSpaceOnUse">
		<stop  offset="0" style="stop-color:#EBCB95"/>
		<stop  offset="0.2109" style="stop-color:#ECC990"/>
		<stop  offset="0.4639" style="stop-color:#EDC381"/>
		<stop  offset="0.7373" style="stop-color:#F0B969"/>
		<stop  offset="1" style="stop-color:#F3AD4B"/>
	</radialGradient>
	<path id="XMLID_15_" class="st4" d="M905.6,640.6c-87.1,246.8-441,314.8-575.6,247.9C188.5,818.3,69.5,696.3,69.5,491.7
		c0-204.6,116.8-324.6,205.9-377.8c84.5-50.4,265.1-75.1,420.4,9.8C850.9,208.4,991.2,397.6,905.6,640.6z M233.7,59.3
		C166.3,99.5,112.2,184.1,47.3,288C11.2,345.5,8,412.4,8,491.2C8,664,52.6,741.1,155.8,848.4c17.4,17.9,57.7,43.3,81.6,54.2
		c59.9,27.5,206.6,84.2,293.4,68.4c78-14.1,202.8-44.8,267.2-101.5c80.8-71.1,138.9-148.1,168.2-253c27-97.2,22.2-193.1,7.6-256.4
		c-16.3-70.6-63.4-143.7-112.9-193.4c-46.8-47.1-96.1-84.9-150.7-112c-94-46.1-208.4-52.5-293.4-45
		C346.5,15.8,275.6,34.3,233.7,59.3z"/>
	<radialGradient id="XMLID_49_" cx="494.918" cy="487.531" r="481.3713" gradientUnits="userSpaceOnUse">
		<stop  offset="0" style="stop-color:#EBCA94"/>
		<stop  offset="0.2254" style="stop-color:#ECC88F"/>
		<stop  offset="0.4957" style="stop-color:#EDC280"/>
		<stop  offset="0.788" style="stop-color:#F0B868"/>
		<stop  offset="1" style="stop-color:#F2AF52"/>
	</radialGradient>
	<path id="XMLID_14_" class="st5" d="M906.9,641.1c-88.8,249.2-445.3,312.7-577.5,248.8C186.8,820.9,68,697,68,491.7
		C68,286.4,185.2,166,274.6,112.6C359.4,62,543.8,37.9,699.5,123C855.3,208,993.6,397.6,906.9,641.1z M236.1,61.6
		c-67,40-123.7,122.9-186.5,227.2C14.8,346.2,10.3,413,10.3,491.6c0,178.4,53.2,257.6,162.1,361.6c18.4,17.5,57.9,41.2,83.1,51.6
		c63.4,26.2,206.6,75.7,294.9,56.5c79-16.9,197.9-52.1,260.4-113.3c75.6-74.1,129.4-152.4,154.4-255.2c23-95.4,15.4-188.7-2.5-251.8
		c-19.4-68.4-67.3-137.8-118.4-185.2c-46.7-43.3-94.8-78.7-148.1-103.4C604.4,9.9,494.8,4.6,412.5,12.6
		C344.6,19.1,276.9,37.3,236.1,61.6z"/>
	<radialGradient id="XMLID_50_" cx="493.4648" cy="484.9928" r="476.9908" gradientUnits="userSpaceOnUse">
		<stop  offset="0" style="stop-color:#EBCA93"/>
		<stop  offset="0.2429" style="stop-color:#ECC88E"/>
		<stop  offset="0.5342" style="stop-color:#EDC27F"/>
		<stop  offset="0.8492" style="stop-color:#F0B867"/>
		<stop  offset="1" style="stop-color:#F1B259"/>
	</radialGradient>
	<path id="XMLID_13_" class="st6" d="M908.3,641.6c-90.6,251.6-449.6,310.6-579.5,249.6C185,823.6,66.6,697.7,66.6,491.7
		c0-206,117.5-326.8,207.2-380.3c85.1-50.8,273.2-74.4,429.5,10.9C859.6,207.7,996,397.5,908.3,641.6z M238.5,64
		c-66.6,39.7-125.9,121.1-186.6,225.6c-33.5,57.2-39.4,124-39.4,202.3c0,183.9,62,265.2,176.4,366.1c19.4,17.1,58,39.1,84.6,49.1
		c66.9,25,206.5,67.1,296.4,44.6c80.1-19.7,193.2-59.2,253.7-125c70.6-76.8,119.8-156.7,140.6-257.3c19.1-93.6,8.5-184.3-12.6-247.2
		c-22.3-66.3-71.2-131.9-124-177c-46.5-39.6-93.7-72.3-145.4-94.8C592.6,11.4,487.8,7.2,408.3,15.5C342.7,22.4,278.2,40.3,238.5,64z
		"/>
	<radialGradient id="XMLID_51_" cx="492.3928" cy="482.7442" r="472.9768" gradientUnits="userSpaceOnUse">
		<stop  offset="0" style="stop-color:#EBC992"/>
		<stop  offset="0.2678" style="stop-color:#ECC78D"/>
		<stop  offset="0.5891" style="stop-color:#EDC17E"/>
		<stop  offset="0.9364" style="stop-color:#EFB766"/>
		<stop  offset="1" style="stop-color:#F0B561"/>
	</radialGradient>
	<path id="XMLID_12_" class="st7" d="M909.6,642.1c-92.4,254-453.9,308.6-581.4,250.4c-145-66.2-263.1-194.2-263.1-400.8
		c0-206.7,117.9-327.9,207.9-381.6c85.4-50.9,277.3-74.1,434.1,11.5C864,207.3,998.4,397.5,909.6,642.1z M240.9,66.3
		c-66.2,39.5-128.1,119.3-186.7,224.1c-32.1,57.1-39.4,123.7-39.4,201.8c0,189.5,70.8,272.7,190.8,370.5
		c20.4,16.7,58.2,37,86.2,46.5c70.4,23.8,206.5,58.5,297.9,32.6c81.1-22.6,188.5-66.2,246.9-136.8c65.6-79.4,110.3-161,126.9-259.5
		c15.2-91.8,1.8-180-22.7-242.5c-25.2-64.2-74.9-126-129.5-168.7c-46.1-36-92.5-66-142.7-86.2C580.8,13,480.8,9.7,404.1,18.5
		C340.9,25.7,279.5,43.3,240.9,66.3z"/>
	<radialGradient id="XMLID_52_" cx="491.6978" cy="480.8513" r="469.3647" gradientUnits="userSpaceOnUse">
		<stop  offset="0" style="stop-color:#EBC992"/>
		<stop  offset="0.2929" style="stop-color:#ECC78D"/>
		<stop  offset="0.6441" style="stop-color:#EDC17E"/>
		<stop  offset="1" style="stop-color:#F0B868"/>
	</radialGradient>
	<path id="XMLID_11_" class="st8" d="M911,642.6C816.8,899,452.8,949.3,327.7,893.9c-146.2-64.8-264-194.8-264-402.2
		c0-207.3,118.3-329,208.6-382.8C358,57.7,553.7,35.1,711,121C868.3,206.9,1000.9,397.5,911,642.6z M243.3,68.7
		c-65.7,39.2-130.3,117.5-186.8,222.6c-30.8,56.9-39.4,123.5-39.4,201.4c0,195,79.7,280.2,205.1,375c21.5,16.2,58.4,34.9,87.7,43.9
		c74,22.6,206.4,49.9,299.4,20.7c82.1-25.4,184-73.1,240.1-148.6c60.8-81.8,100.8-165.3,113.1-261.7c11.3-90-4.8-175.7-32.8-237.9
		c-28-62.1-78.5-120.3-135.1-160.5c-45.7-32.5-91.3-59.6-140-77.6c-85.7-31.6-180.8-33.9-254.8-24.7C339,29,280.8,46.3,243.3,68.7z"
		/>
	<radialGradient id="XMLID_53_" cx="491.3857" cy="479.3877" r="466.1994" gradientUnits="userSpaceOnUse">
		<stop  offset="0" style="stop-color:#EBC891"/>
		<stop  offset="0.3368" style="stop-color:#ECC68C"/>
		<stop  offset="0.7401" style="stop-color:#EDC07D"/>
		<stop  offset="1" style="stop-color:#EFBB70"/>
	</radialGradient>
	<path id="XMLID_10_" class="st9" d="M912.3,643.1c-95.9,258.8-462.5,304.7-585.2,252.1C179.6,831.9,62.3,699.7,62.3,491.7
		c0-208,118.7-330,209.3-384.1c85.9-51.3,285.4-73.5,443.3,12.7C872.7,206.5,1003.3,397.4,912.3,643.1z M245.8,71
		c-65.3,39-132.5,115.6-186.9,221.1C29.4,348.9,19.4,415.3,19.4,493c0,200.6,88.5,287.7,219.4,379.5c22.5,15.8,58.5,32.8,89.2,41.3
		c77.5,21.4,206.4,41.4,300.9,8.8c83.1-28.3,179.6-79.9,233.4-160.3c56.2-84.2,91.2-169.6,99.3-263.8c7.4-88.2-11.4-171.4-43-233.2
		c-30.7-60-82.1-114.7-140.6-152.3C732.8,83.9,687.9,59.7,640.8,44c-83.7-27.8-173.9-29.3-245.1-19.6
		C337.1,32.4,282.1,49.3,245.8,71z"/>
	<radialGradient id="XMLID_54_" cx="491.4748" cy="478.4224" r="463.5319" gradientUnits="userSpaceOnUse">
		<stop  offset="0" style="stop-color:#EBC890"/>
		<stop  offset="0.3956" style="stop-color:#ECC68B"/>
		<stop  offset="0.8694" style="stop-color:#EDC07C"/>
		<stop  offset="1" style="stop-color:#EEBE77"/>
	</radialGradient>
	<path id="XMLID_9_" class="st10" d="M913.7,643.6C816,904.8,446.9,946.4,326.6,896.5C177.8,834.8,60.9,700.4,60.9,491.7
		c0-208.7,119.1-331.1,210-385.4c86.2-51.4,289.5-73.2,447.8,13.3C877,206.2,1005.7,397.4,913.7,643.6z M248.2,73.3
		c-64.9,38.7-134.7,113.8-186.9,219.6c-28.1,56.6-39.5,123-39.5,200.5c0,206.1,97.6,294.9,233.7,383.9
		c23.6,15.3,58.7,30.8,90.8,38.8c81,20.1,206.3,32.8,302.5-3.1c84.1-31.1,175.4-86.6,226.6-172.1c51.7-86.4,81.7-173.9,85.6-266
		c3.5-86.4-17.8-167.2-53.1-228.6c-33.3-58-85.6-109.2-146.2-144.1c-44.7-25.7-89-46.9-134.6-60.3c-81.7-24.1-167-24.6-235.4-14.5
		C335.2,35.7,283.4,52.3,248.2,73.3z"/>
	<radialGradient id="XMLID_55_" cx="492.0002" cy="477.9954" r="461.4099" gradientUnits="userSpaceOnUse">
		<stop  offset="0" style="stop-color:#EBC78F"/>
		<stop  offset="0.4948" style="stop-color:#ECC58A"/>
		<stop  offset="1" style="stop-color:#EDC07E"/>
	</radialGradient>
	<path id="XMLID_8_" class="st11" d="M915,644.1c-99.5,263.6-471.2,300.9-589,253.7C176,837.7,59.4,701.1,59.4,491.7
		c0-209.4,119.5-332.2,210.7-386.6c86.5-51.6,293.6-72.9,452.4,13.9C881.4,205.8,1008.1,397.4,915,644.1z M250.6,75.7
		c-64.4,38.5-136.8,112-187,218.1C36.7,350.2,24,416.5,24,493.8c0,211.7,106.4,302.4,248,388.4c24.6,14.8,58.9,28.7,92.3,36.2
		c84.5,18.9,206.3,24.2,304-15c85.1-33.9,171.4-93.2,219.8-183.8c47.4-88.7,72.1-178.2,71.8-268.2c-0.5-84.6-24.2-163-63.2-223.9
		c-35.9-56.1-89-103.9-151.8-135.9C700.8,69,657.1,51.1,613,39.8c-79.7-20.3-160.1-20-225.8-9.5C333.3,39,284.7,55.3,250.6,75.7z"/>
	<radialGradient id="XMLID_56_" cx="493.0297" cy="478.1068" r="459.8628" gradientUnits="userSpaceOnUse">
		<stop  offset="0" style="stop-color:#EBC78E"/>
		<stop  offset="0.7657" style="stop-color:#ECC489"/>
		<stop  offset="1" style="stop-color:#ECC386"/>
	</radialGradient>
	<path id="XMLID_7_" class="st12" d="M916.4,644.6c-101.3,266-475.6,299.3-591,254.5C174,840.9,58,701.8,58,491.7
		c0-210.1,119.9-333.3,211.4-387.9c86.8-51.8,297.6-72.5,457,14.5C885.7,205.4,1010.5,397.3,916.4,644.6z M253,78
		c-64,38.2-139,110.2-187.1,216.6c-25.5,56.3-39.5,122.5-39.5,199.5c0,217.2,115.2,310,262.3,392.8c25.6,14.4,59.1,26.6,93.9,33.6
		c88,17.7,206.3,15.6,305.5-26.9c86.1-36.8,167.6-99.9,213.1-195.6c43.2-90.9,62.6-182.5,58.1-270.4c-4.4-82.8-30.6-159-73.3-219.3
		c-38.4-54.2-92.4-98.7-157.3-127.6c-43.6-19.4-86.7-34-129.3-43.1c-77.7-16.4-153.2-15.3-216.1-4.4C331.4,42.3,286,58.3,253,78z"/>
	<path id="XMLID_1_" class="st13" d="M917.7,645.1c-103,268.4-479.9,297.4-592.9,255.4c-152.7-56.8-268.3-198-268.3-408.8
		c0-210.7,120.3-334.4,212.1-389.1c87-51.9,301.7-72.2,461.6,15.1C890.1,205,1012.9,397.3,917.7,645.1z M711.9,70.1
		C524.4-1.3,347.4,25.5,255.4,80.4c-97,57.9-226.8,191.3-226.8,414.1c0,222.8,124,317.5,276.6,397.3
		c152.6,79.8,497.9,48.5,608.7-215.1C1022.7,418,936.5,155.6,711.9,70.1z"/>
</g>
</svg>
