<?xml version="1.0" encoding="utf-8"?>
<!-- Generator: Adobe Illustrator 19.0.0, SVG Export Plug-In . SVG Version: 6.00 Build 0)  -->
<svg version="1.1" id="Layer_1" xmlns="http://www.w3.org/2000/svg" xmlns:xlink="http://www.w3.org/1999/xlink" x="0px" y="0px"
	 viewBox="0 0 1000 990.3" style="enable-background:new 0 0 1000 990.3;" xml:space="preserve">
<style type="text/css">
	.st0{fill:#A14A22;}
	.st1{fill:#DFC1B0;}
	.st2{fill:#C06748;}
	.st3{fill:#E7C9B9;}
	.st4{opacity:0.4;fill:#FFEBC6;}
</style>
<g id="XMLID_10263_">
	<g id="XMLID_11286_">
		<path id="XMLID_11297_" class="st0" d="M652.1,624.8c-11,11.6-25.1,21.5-30,36.8c-3.3,10.3-1.7,21.4-2.2,32.3
			c-1.2,26.7-20,53.4-42.8,67.5c-2.7-1.8-5.5-3.6-8.3-5.4c-9.8-6.3-20.3-12.5-30.3-17.8c18-11.7,29.3-33.2,28.7-54.7
			c-0.4-13.5-5.1-27.1-1.9-40.2c3.8-15.6,17.7-26.2,28.7-37.9c11-11.7,20-29.3,12-43.2c16.5,3.6,35.7,7.4,51.8,14
			c2.2,0.9,4.3,1.9,6.3,2.9C665.2,577.5,663.1,613.2,652.1,624.8z"/>
		<path id="XMLID_11296_" class="st1" d="M657.8,576.1c-1.1,11.2-4.7,31.4-12.6,39.7c-11.5,12.1-26.3,22.4-31.4,38.2
			c-3.5,10.7-1.8,22.2-2.4,33.4c-1.3,26.8-19.8,53.6-42.5,68.5c-1.1-0.7-2.2-1.4-3.3-2.1c-8.9-5.6-18.1-11-27-15.7
			c18-11.7,29.3-33.2,28.7-54.7c-0.4-13.5-5.1-27.1-1.9-40.2c3.8-15.6,17.7-26.2,28.7-37.9c11-11.7,20-29.3,12-43.2
			c14.8,3.2,31.7,6.6,46.6,12C654.4,574.7,656.1,575.4,657.8,576.1z"/>
		<path id="XMLID_11293_" class="st2" d="M646.8,574c-1.6,12-6.7,28.4-13.7,35.8c-11.9,12.6-19.9,23.3-25.1,39.9
			c-3.5,11.2-10.6,23.3-11.1,35c-1.1,26.6-9.5,53.1-31.3,69.1c-2.3-1.5-4.7-2.9-7-4.3c-1.4-0.9-2.9-1.7-4.3-2.6
			c-5.2-3.1-10.5-6.1-15.7-8.8c18-11.7,24.9-33.2,24.3-54.7c-0.4-13.5-5.1-27.1-1.9-40.2c3.8-15.6,17.7-26.2,28.7-37.9
			c11-11.7,20-29.3,12-43.2c6.1,1.3,17,2.7,23.5,4.2c1.7,0.4,3.5,0.8,5.3,1.2c4.4,1.1,8.7,2.2,13,3.5c1.6,0.5,3.2,1,4.8,1.5
			C649.7,573,645.3,573.5,646.8,574z"/>
		<path id="XMLID_11292_" class="st1" d="M588.5,702.7c-4.9,17.8-15.1,35.2-30,46.7c-1.4-0.9-10.2-6.2-11.7-7
			c12.8-13.1,21.6-23.5,28.8-41.2C577,697.9,592,690,588.5,702.7z"/>
		<path id="XMLID_11291_" class="st1" d="M594.3,609.5c-11.4,8.4-22.2,23.9-25.1,37.7c-3.2,15.6,5,31.4,3.5,47.2
			c-0.1,0.6,3.8,0.8,4.1,0.3c6.3-11.4,1-25.9,1.9-38.1c1.2-16.2,9.5-29.7,21.8-39.9C602.8,614.7,596.7,607.7,594.3,609.5z"/>
		<path id="XMLID_11290_" class="st1" d="M606.5,630.3c-6.1,3.9-9.7,11.1-12.1,17.8c-2.4,6.9-4.8,14.5-2.8,21.7
			c0.3,1.2,2.4,1.1,2.3-0.3c-1.3-13.3,6.7-26.5,14.8-36.3C609.9,631.7,608.3,629.1,606.5,630.3z"/>
		<path id="XMLID_11289_" class="st1" d="M648.2,572.5c-2,5.7-4.8,11.2-7.5,15.9c-5.7,9.9-14.4,23.4-24.9,28.6
			c-0.5,0.3-1-0.3-0.8-0.8c4.9-10,2.7-18.1,8.5-27.8c3.3-5.5,6.1-14.2,8.1-20.2c0.4-1.5,12.2,1.4,11.8,2.8
			C645,571.4,646.6,572,648.2,572.5z"/>
		<path id="XMLID_11288_" class="st3" d="M630.4,567.4c-0.6,2.1-1.3,4.1-1.9,6c-2.3,6.9-5.2,14.6-10.7,19.5c-0.6,0.5-1.5,0-1.3-0.8
			c1.5-6.9,5.2-13.3,7.3-20c0.6-1.9,1-3.9,1.4-5.9C626.9,566.6,628.7,567,630.4,567.4z"/>
		<path id="XMLID_11287_" class="st4" d="M607.5,601.6c-5.8,6.5-13.1,11.7-19.4,17.7c-3.5,3.3-6.8,7.2-8.1,11.8
			c-0.4,1.6-0.6,3.4,0.4,4.7c0.8,1.1,2.2,1.5,3.5,1.7c9.4,1.6,18.7-3.5,25.9-9.8c11.4-9.9,20-23,24.5-37.5
			c1.5-4.9,2.3-10.9-1.2-14.7c-4.8-5-13.2-2.8-15.4,3.2C614.4,587.4,614,594.3,607.5,601.6z"/>
	</g>
	<g id="XMLID_11272_">
		<path id="XMLID_11283_" class="st0" d="M790.6,266.7c-4.1,19.8-12.8,39.8-8,59.4c3.3,13.3,12.4,24.2,19,36.2
			c16.4,29.6,13.8,70.8-1.4,101c-4.1-0.2-8.3-0.3-12.6-0.3c-14.8-0.3-30.1-0.1-44.4,0.9c11.7-24.6,9.6-55.1-5.3-77.9
			c-9.4-14.3-23.4-25.9-28.6-42.1c-6.2-19.3,1.7-39.9,5.8-59.8c4.1-19.9,2.1-44.8-15.7-54.5c20.2-7.1,43.3-15.7,65.1-19.1
			c2.9-0.4,5.8-0.8,8.7-1.1C773.4,207.1,794.7,246.9,790.6,266.7z"/>
		<path id="XMLID_11282_" class="st1" d="M764.5,210.4c6.2,12.8,15.7,36.9,12.7,51.1c-4.4,20.6-13.5,41.5-8.6,61.9
			c3.4,13.8,12.7,25.1,19.5,37.5c16.3,29.7,14.1,70.8-0.5,102c-1.6,0-3.3-0.1-4.9-0.1c-13.2-0.1-26.8,0.1-39.5,0.9
			c11.7-24.6,9.6-55.1-5.3-77.9c-9.4-14.3-23.4-25.9-28.6-42.1c-6.2-19.3,1.7-39.9,5.8-59.8c4.1-19.9,2.1-44.8-15.7-54.5
			c18-6.4,38.5-13.9,58.1-17.9C759.9,211.2,762.2,210.8,764.5,210.4z"/>
		<path id="XMLID_11279_" class="st2" d="M751.3,215.6c6.2,13.9,11.6,35,8.9,47.6c-4.4,21.4-6,38.3-0.6,59.5
			c3.6,14.4,4,32.1,11.2,45.1c16.4,29.4,24.9,63.5,12,95.1c-3.5,0-7-0.1-10.4,0c-2.1,0-4.2,0-6.4,0.1c-7.7,0.1-15.3,0.4-22.7,0.9
			c11.7-24.6,4.9-52.2-10-75c-9.4-14.3-23.4-25.9-28.6-42.1c-6.2-19.3,1.7-39.9,5.8-59.8c4.1-19.9,2.1-44.8-15.7-54.5
			c7.4-2.6,20-8.4,28.1-11.1c2.1-0.7,4.3-1.4,6.5-2.1c5.4-1.7,10.8-3.4,16.3-4.8c2-0.5,4.1-1.1,6.2-1.5
			C753.8,212.5,749.4,215.9,751.3,215.6z"/>
		<path id="XMLID_11278_" class="st1" d="M773.7,392.7c6.5,22.5,7,47.9-1.3,70.2c-2.1,0-15.1,0.1-17.2,0.2
			c5.1-22.6,7.7-39.6,3.7-63.4C758.1,395.1,769.1,376.7,773.7,392.7z"/>
		<path id="XMLID_11277_" class="st1" d="M718.2,288.4c-6.7,16.5-8.1,40.4-2.1,57.2c6.8,19,26.2,30.5,34.9,48.5
			c0.3,0.7,4.6-1.6,4.6-2.4c-0.7-16.4-16.1-28.5-23.2-42.4c-9.4-18.3-9.4-38.2-2.9-57.4C730.8,288.4,719.6,284.9,718.2,288.4z"/>
		<path id="XMLID_11276_" class="st1" d="M745.1,302.8c-4,8.2-3.1,18.4-1.2,27.1c1.9,9,4.3,18.8,11.3,25.2c1.2,1.1,3.3-0.4,2.3-1.8
			c-10.2-13.5-10.3-33-8.1-48.9C749.7,302,746.3,300.3,745.1,302.8z"/>
		<path id="XMLID_11275_" class="st1" d="M751.8,212.9c1.6,7.5,2.2,15.2,2.4,22.1c0.4,14.5,0,34.7-7.9,47.2
			c-0.4,0.6-1.3,0.4-1.3-0.3c-1.4-14.1-9-21.2-9.2-35.6c-0.1-8.1-2.8-19.3-4.7-27.1c-0.5-1.8,14.1-6.5,14.6-4.8
			C747.7,213.9,749.7,213.4,751.8,212.9z"/>
		<path id="XMLID_11274_" class="st3" d="M729.3,219.3c0.7,2.7,1.3,5.3,1.9,7.7c2,8.9,4,19.1,1.4,28.1c-0.3,1-1.6,1-1.9,0.1
			c-2.9-8.5-3.2-17.7-5.4-26.4c-0.6-2.5-1.5-4.9-2.4-7.3C724.9,220.7,727.1,220,729.3,219.3z"/>
		<path id="XMLID_11273_" class="st4" d="M727.2,271.3c-2,10.9-6.4,21.2-9.2,32c-1.6,5.9-2.6,12.2-0.9,18.1c0.6,2,1.6,4,3.5,4.8
			c1.6,0.6,3.3,0.1,4.9-0.5c11.2-4.5,17.8-16.2,21.5-27.7c5.8-18.2,6.3-38.1,1.5-56.5c-1.6-6.3-4.7-13.3-11.1-15
			c-8.5-2.2-16,5.7-14.4,13.7C725.3,251.3,729.4,259.1,727.2,271.3z"/>
	</g>
	<g id="XMLID_11258_">
		<path id="XMLID_11269_" class="st0" d="M442.9,272.5c-17.5,10.2-38.2,17.1-49.6,33.8c-7.7,11.3-9.7,25.4-14.2,38.3
			c-11,32-43.4,57.6-76.1,66.4c-2.6-3.2-5.3-6.4-8.1-9.6c-9.7-11.2-20.1-22.4-30.3-32.5c26.1-7.7,47.5-29.7,54.4-56
			c4.4-16.5,3.6-34.7,12.2-49.4c10.3-17.5,30.9-25.4,48.4-35.6c17.5-10.2,34.7-28.3,30-48.1c18.8,10.3,40.6,21.7,57.7,35.6
			c2.3,1.9,4.5,3.8,6.6,5.8C475.7,219.9,460.4,262.3,442.9,272.5z"/>
		<path id="XMLID_11268_" class="st1" d="M467.4,215.5c-5.4,13.2-17,36.3-29.6,43.6c-18.3,10.5-39.9,17.7-51.8,35
			c-8,11.7-10.2,26.2-14.9,39.6c-11.2,31.9-43.3,57.8-76.2,67.8c-1.1-1.2-2.1-2.5-3.2-3.7c-8.7-9.9-18-19.9-27.1-28.8
			c26.1-7.7,47.5-29.7,54.4-56c4.4-16.5,3.6-34.7,12.2-49.4c10.3-17.5,30.9-25.4,48.4-35.6c17.5-10.2,34.7-28.3,30-48.1
			c16.8,9.2,36,19.3,52.1,31.3C463.7,212.6,465.6,214,467.4,215.5z"/>
		<path id="XMLID_11265_" class="st2" d="M454.7,209.1c-6.2,13.9-18.3,32-29.4,38.4c-18.9,11-32.5,21.1-44.7,39.3
			c-8.3,12.3-21.2,24.4-26.1,38.4c-10.9,31.8-30.6,61-62.8,72.4c-2.3-2.6-4.6-5.2-7-7.8c-1.4-1.6-2.9-3.1-4.3-4.7
			c-5.2-5.6-10.5-11.1-15.8-16.3c26.1-7.7,42.1-31.3,49.1-57.6c4.4-16.5,3.6-34.7,12.2-49.4c10.3-17.5,30.9-25.4,48.4-35.6
			c17.5-10.2,34.7-28.3,30-48.1c6.9,3.8,19.6,9.3,27,13.5c2,1.1,3.9,2.2,5.9,3.4c4.9,2.9,9.7,5.8,14.5,8.9c1.8,1.2,3.5,2.4,5.3,3.6
			C458.6,208.8,453.1,207.9,454.7,209.1z"/>
		<path id="XMLID_11264_" class="st1" d="M337.8,344c-12.4,19.8-31,37.2-53.1,45.9c-1.4-1.6-10.2-11.1-11.6-12.7
			c20.3-11.3,34.6-20.8,49.7-39.6C325.6,334,346.7,329.9,337.8,344z"/>
		<path id="XMLID_11263_" class="st1" d="M378.4,233.1c-16.8,6.1-35.5,21-43.9,36.7c-9.5,17.8-5.2,39.9-12.8,58.4
			c-0.3,0.7,4.3,2.4,4.8,1.8c11.8-11.5,10.5-31,16-45.5c7.3-19.2,22.2-32.6,40.7-40.5C386.7,242.5,382,231.8,378.4,233.1z"/>
		<path id="XMLID_11262_" class="st1" d="M385.6,262.7c-8.8,2.5-15.8,10-21,17.2c-5.4,7.4-11.1,15.8-11.2,25.3
			c0,1.6,2.6,2.2,2.9,0.5c3.2-16.6,17.6-29.7,31-38.7C389.3,265.6,388.3,262,385.6,262.7z"/>
		<path id="XMLID_11261_" class="st1" d="M457,207.7c-4.5,6.2-9.9,11.8-14.9,16.6c-10.5,10-25.8,23.2-40.4,25.7
			c-0.7,0.1-1.2-0.7-0.7-1.2c9.6-10.4,9.8-20.9,20.3-30.6c5.9-5.5,12.5-15,17.1-21.6c1-1.6,14.2,6.1,13.3,7.7
			C453.5,205.3,455.2,206.5,457,207.7z"/>
		<path id="XMLID_11260_" class="st3" d="M437.2,195.2c-1.5,2.3-3.1,4.5-4.5,6.5c-5.3,7.5-11.5,15.8-20,19.8
			c-0.9,0.4-1.8-0.5-1.3-1.4c4.4-7.8,11.1-14.2,16.1-21.7c1.4-2.1,2.7-4.4,3.8-6.7C433.3,192.9,435.3,194,437.2,195.2z"/>
		<path id="XMLID_11259_" class="st4" d="M397.1,228.4c-9.4,5.8-20.1,9.4-29.9,14.5c-5.4,2.8-10.8,6.2-14.1,11.4
			c-1.1,1.7-1.9,3.9-1.2,5.8c0.6,1.6,2.1,2.6,3.7,3.3c10.8,5.4,23.9,2.5,34.9-2.5c17.4-7.9,32.5-20.7,43.1-36.6
			c3.6-5.4,6.7-12.4,3.8-18.2c-4-7.8-15-8.1-19.8-1.6C410.7,213.6,407.6,221.9,397.1,228.4z"/>
	</g>
	<g id="XMLID_11242_">
		<path id="XMLID_11255_" class="st0" d="M230,633c12.3-1.5,25.6-0.4,36-7c7-4.5,11.6-11.9,17.2-18.1c13.9-15.3,38.3-21.9,58.8-18.9
			c0.7,2.4,1.5,4.9,2.3,7.3c2.7,8.6,5.9,17.5,9.2,25.6c-16.5-2-33.8,5.2-44.1,18.3c-6.4,8.2-10.4,18.7-18.8,24.8
			c-10,7.4-23.5,6.8-35.8,8.3c-12.3,1.5-26.4,7.5-28.5,19.8c-8.1-10.3-17.6-22-23.8-34c-0.8-1.6-1.6-3.2-2.3-4.8
			C198.8,654.6,217.7,634.4,230,633z"/>
		<path id="XMLID_11254_" class="st1" d="M202.4,659.1c6.2-6.1,18.3-20.7,27.1-21.8c12.8-1.5,28.5-1.8,39.3-8.6
			c7.3-4.6,12.1-10.8,17.9-17.2c14-15.2,36.5-22,57.4-19.7c0.3,0.9,0.6,6.3,0.9,7.3c2.5,7.7,5.3,15.5,8.3,22.7
			c-16.5-2-33.8,5.2-44.1,18.3c-6.4,8.2-10.4,18.7-18.8,24.8c-10,7.4-23.5,6.8-35.8,8.3c-12.3,1.5-26.4,7.5-28.5,19.8
			c-7.2-9.2-15.6-19.6-21.7-30.2C203.8,661.6,203.1,660.3,202.4,659.1z"/>
		<path id="XMLID_11251_" class="st2" d="M208,665.8c6.9-6.3,18-13.5,25.8-14.5c13.3-1.6,25.1-2.6,36.4-9.8
			c7.6-4.9,14.9-5.1,21-11.8c13.8-15.3,33.1-31.8,53.9-30.5c0.7,2,1.3,4,2,6.1c0.4,1.2,0.8,2.5,1.3,3.7c1.6,4.4,6,12.6,7.7,16.8
			c-16.5-2-29.6,7.3-39.9,20.3c-6.4,8.2-11.3,17.9-19.7,24.1c-10,7.4-21.7,8.3-34,9.8c-12.3,1.5-28.1,6.1-30.2,18.3
			c-3-3.8-12.3-12.9-15.4-17c-0.8-1.1-1.7-2.2-2.5-3.3c-2.1-2.8-4.1-5.6-6-8.5c-0.7-1.1-1.4-2.2-2.1-3.3
			C205.7,664.9,208.6,666.8,208,665.8z"/>
		<path id="XMLID_11250_" class="st1" d="M261.1,674.3c10.9,0.6,25-3.2,33.6-10c9.7-7.7,12.5-21.2,21.3-29.7
			c0.3-0.3-1.9-2.4-2.3-2.2c-9.4,3.6-13.4,14.9-20,21.7c-8.7,9-20.3,12.9-32.7,12.9C258.6,667,258.8,674.2,261.1,674.3z"/>
		<path id="XMLID_11249_" class="st1" d="M342.6,603.4c-6.6-1.5-13.8,0.9-19.8,3.7c-6.2,2.9-12.8,6.3-16.3,12.4
			c-0.6,1,0.9,2.3,1.7,1.3c8-9.7,22.1-13,33.9-14.1C344,606.6,344.6,603.9,342.6,603.4z"/>
		<path id="XMLID_11248_" class="st1" d="M260.4,662.6c8.7,0.9,17.6-3.2,24.8-7.7c7.5-4.7,15.5-10.1,19-18.4
			c0.6-1.4-1.5-2.9-2.4-1.5c-8.8,13.6-26.4,20.1-41.4,23.3C258.2,658.7,257.8,662.3,260.4,662.6z"/>
		<path id="XMLID_11247_" class="st1" d="M250.7,673.6c-6.1-0.8-12.3,2-17.4,5.1c-5.3,3.2-6.3,4.8-8.8,10.6c-0.4,1,1,2,1.6,1
			c6.3-9.4,13.9-11.7,24.5-13.7C252.2,676.3,252.5,673.8,250.7,673.6z"/>
		<path id="XMLID_11246_" class="st1" d="M206.4,666c4-2.4,8.4-4.3,12.3-5.7c8.3-3.1,20.1-6.8,28.9-4.7c0.4,0.1,0.5,0.7,0.1,0.8
			c-7.9,3.5-10.5,9.4-18.8,12.3c-4.7,1.6-10.6,5.4-14.8,8c-1,0.7-6.5-6.9-5.6-7.5C207.8,668.2,207.1,667.1,206.4,666z"/>
		<path id="XMLID_11245_" class="st3" d="M214.5,677.8c1.4-0.9,2.8-1.8,4.1-2.6c4.8-2.9,10.3-6.1,16-6.3c0.6,0,0.9,0.7,0.4,1.1
			c-4.3,3.3-9.6,5.3-14.3,8.3c-1.3,0.9-2.5,1.8-3.8,2.8C216.1,680,215.3,678.9,214.5,677.8z"/>
		<path id="XMLID_11244_" class="st4" d="M241.6,669.4c6.7-1,13.6-0.4,20.3-0.9c3.7-0.3,7.6-0.9,10.7-3c1-0.7,2-1.7,2.1-3
			c0-1-0.6-2-1.3-2.7c-4.8-5.6-12.9-7.2-20.2-7c-11.7,0.2-23.3,3.8-33.1,10.2c-3.3,2.2-6.8,5.4-6.5,9.3c0.4,5.4,6.5,8.2,10.7,5.7
			C230.4,674.4,234.1,670.5,241.6,669.4z"/>
		<path id="XMLID_11243_" class="st4" d="M318.7,627c5.5-4,11.8-6.8,17.5-10.4c3.2-2,6.3-4.3,8-7.7c0.6-1.1,1-2.5,0.4-3.6
			c-0.5-0.9-1.4-1.5-2.4-1.8c-6.9-2.7-14.7-0.3-21.2,3.3c-10.2,5.7-18.8,14.3-24.4,24.5c-1.9,3.5-3.5,7.9-1.4,11.3
			c2.8,4.6,9.5,4.2,12.2,0C311.2,636.7,312.7,631.5,318.7,627z"/>
	</g>
	<g id="XMLID_11226_">
		<path id="XMLID_11239_" class="st0" d="M489.3,496.2c0.6-12.4,3.9-25.3-1-36.7c-3.3-7.7-9.8-13.4-15-20
			c-12.8-16.3-15.3-41.4-9-61.1c2.5-0.3,5-0.6,7.6-1c8.9-1.3,18.2-2.9,26.7-4.8c-4.7,16-0.4,34.2,10.8,46.5
			c7,7.7,16.7,13.3,21.4,22.6c5.6,11.1,2.8,24.3,2.3,36.7c-0.6,12.4,3.1,27.3,14.8,31.4c-11.5,6.3-24.6,13.7-37.4,17.9
			c-1.7,0.6-3.4,1.1-5.2,1.5C505.5,530.5,488.8,508.5,489.3,496.2z"/>
		<path id="XMLID_11238_" class="st1" d="M510.6,527.7c-5-7.1-17.4-21.5-17-30.4c0.6-12.9,2.9-28.4-2-40.2c-3.4-8-8.7-13.7-14-20.5
			c-12.7-16.4-15.7-39.7-9.9-59.9c1-0.1,6.3,0.4,7.3,0.3c8-1.2,16.2-2.7,23.8-4.4c-4.7,16-0.4,34.2,10.8,46.5
			c7,7.7,16.7,13.3,21.4,22.6c5.6,11.1,2.8,24.3,2.3,36.7c-0.6,12.4,3.1,27.3,14.8,31.4c-10.3,5.6-21.9,12.1-33.4,16.5
			C513.2,526.7,511.9,527.2,510.6,527.7z"/>
		<path id="XMLID_11235_" class="st2" d="M518,523.3c-5.1-7.8-10.4-20-10-27.9c0.6-13.4,1.6-25.2-3.7-37.5
			c-3.6-8.3-2.6-15.6-8.2-22.7c-12.8-16.2-25.9-37.9-21.2-58.2c2.1-0.3,4.2-0.6,6.3-1c1.3-0.2,2.6-0.4,3.8-0.7
			c4.6-0.8,13.4-3.8,17.8-4.8c-4.7,16,2.3,30.4,13.5,42.7c7,7.7,15.8,14.1,20.5,23.4c5.6,11.1,4.6,22.8,4,35.2
			c-0.6,12.4,1.4,28.7,13.1,32.8c-4.2,2.3-14.7,10-19.3,12.4c-1.2,0.6-2.5,1.3-3.7,1.9c-3.1,1.6-6.2,3.1-9.4,4.5
			c-1.2,0.5-2.4,1-3.6,1.5C516.9,525.4,519.2,522.8,518,523.3z"/>
		<path id="XMLID_11234_" class="st1" d="M535.2,472.3c2.4-10.6,1-25.2-4.3-34.7c-6-10.8-18.8-15.9-25.8-25.9
			c-0.3-0.4-2.6,1.4-2.5,1.9c2,9.8,12.5,15.7,18.1,23.3c7.5,10.1,9.4,22.2,7.4,34.4C527.6,473.5,534.7,474.6,535.2,472.3z"/>
		<path id="XMLID_11233_" class="st1" d="M478.8,380.2c-2.6,6.3-1.4,13.8,0.4,20.1c1.8,6.6,4.1,13.7,9.6,18.1
			c0.9,0.7,2.4-0.5,1.6-1.5c-8.2-9.5-9.2-23.9-8.3-35.8C482.2,379.4,479.6,378.3,478.8,380.2z"/>
		<path id="XMLID_11232_" class="st1" d="M523.6,471c2.4-8.4-0.3-17.9-3.5-25.8c-3.4-8.1-7.4-17-15.1-21.8c-1.3-0.8-3.1,1-1.8,2.1
			c12,10.9,15.5,29.3,16.1,44.7C519.4,472.6,522.9,473.6,523.6,471z"/>
		<path id="XMLID_11231_" class="st1" d="M532.8,482.5c-1.7,5.8,0,12.5,2.2,18c2.3,5.7,3.7,7,9,10.4c0.9,0.6,2.1-0.7,1.3-1.5
			c-8.2-7.7-9.2-15.7-9.5-26.4C535.8,481.4,533.4,480.7,532.8,482.5z"/>
		<path id="XMLID_11230_" class="st1" d="M518,524.9c-1.7-4.4-2.8-9-3.6-13.1c-1.7-8.7-3.4-20.9,0.2-29.3c0.2-0.4,0.7-0.4,0.8,0.1
			c2.2,8.4,7.5,11.9,9,20.6c0.8,4.9,3.6,11.4,5.5,15.9c0.5,1.1-7.9,5.3-8.3,4.3C520.4,523.9,519.2,524.4,518,524.9z"/>
		<path id="XMLID_11229_" class="st3" d="M531,518.9c-0.7-1.5-1.3-3.1-1.9-4.5c-2.1-5.2-4.3-11.2-3.6-16.8c0.1-0.6,0.9-0.8,1.2-0.2
			c2.6,4.8,3.6,10.4,5.8,15.4c0.6,1.4,1.4,2.8,2.2,4.2C533.5,517.6,532.2,518.2,531,518.9z"/>
		<path id="XMLID_11228_" class="st4" d="M527.2,490.8c0.1-6.8,1.8-13.4,2.4-20.2c0.4-3.7,0.4-7.6-1.2-11c-0.5-1.1-1.4-2.3-2.6-2.5
			c-1-0.2-2,0.3-2.9,0.8c-6.3,3.8-9.2,11.5-10.3,18.8c-1.7,11.6-0.1,23.6,4.6,34.3c1.6,3.7,4.2,7.6,8.1,8c5.4,0.5,9.1-5,7.4-9.7
			C530.3,502.6,527.1,498.3,527.2,490.8z"/>
		<path id="XMLID_11227_" class="st4" d="M498.1,407.7c-3.1-6-4.7-12.7-7.3-19c-1.4-3.5-3.2-6.9-6.2-9.2c-1-0.8-2.3-1.4-3.5-1
			c-1,0.3-1.7,1.2-2.2,2.1c-3.8,6.3-2.7,14.5-0.2,21.4c3.9,11,11,20.9,20.2,28.1c3.1,2.5,7.2,4.7,10.9,3.2c5-2,5.7-8.7,2-12
			C506.4,416.7,501.5,414.4,498.1,407.7z"/>
	</g>
</g>
</svg>
