<?xml version="1.0" encoding="utf-8"?>
<!-- Generator: Adobe Illustrator 19.0.0, SVG Export Plug-In . SVG Version: 6.00 Build 0)  -->
<svg version="1.1" id="Layer_1" xmlns="http://www.w3.org/2000/svg" xmlns:xlink="http://www.w3.org/1999/xlink" x="0px" y="0px"
	 viewBox="0 0 1000 990.3" style="enable-background:new 0 0 1000 990.3;" xml:space="preserve">
<style type="text/css">
	.st0{fill:#4EA204;}
	.st1{fill:#3A7F04;}
	.st2{opacity:0.8;fill:#8ADA72;}
	.st3{fill:#7CC010;}
	.st4{opacity:0.77;fill:#7AC658;}
	.st5{fill:#8ADA72;}
</style>
<g id="XMLID_10432_">
	<g id="XMLID_10804_">
		<g id="XMLID_10806_">
			<g id="XMLID_10810_">
				<g id="XMLID_234_">
					<g id="XMLID_235_">
						<path id="XMLID_236_" class="st0" d="M716.9,527.1c0,0,4.3,2.5,8.4,6.9c1.2,1.3,2.4,2.8,3.5,4.4c1.1,1.6,3.5,3,4.3,4.9
							c0.6,1.5-0.4,3.6-0.2,5.2c0.3,1.9,1.5,5.8,1.2,7.9c-0.2,1.6-1.8,1.5-2.5,3.2c-0.9,2.4-2.3,5-4.3,7.6c0,0-1.4-0.5-3.4-1.7
							c-0.9-0.5-2.5-0.3-3.5-1.1c-1.3-0.9-2.1-2.9-3.4-4.2c-1.2-1.2-2.4-2.7-3.3-4.3c-0.5-0.8-1.5-0.2-1.8-1
							c-0.6-1.5-0.6-4.5-0.9-6.2c-0.2-1.1-0.3-2.4-0.3-3.6c0-1.8,0.2-3.8,0.8-5.9C712.4,535.6,714.1,531.5,716.9,527.1z"/>
					</g>
				</g>
			</g>
			<path id="XMLID_10807_" class="st1" d="M727.4,567.3c1.6-2.1,2.8-4.2,3.7-6.3c0.4-0.9,1.9-0.5,2.2-1.4c0.6-1.8-0.3-5-0.2-6.7
				c0.1-0.9,2.3-2.1,2.2-3c-0.1-1.3-2.5-2.2-2.8-3.4c-0.5-2-1.2-3.8-2.1-5.5c-0.2-0.3-0.2-2.7-0.4-3.1c-1.3-2.3-3.1-2.3-4.8-4
				c-4.2-4.4-8.4-6.9-8.4-6.9c-0.1,0.1-0.2,0.3-0.2,0.4c2.9,10.7,8.5,32.1,10.5,39.8C727.3,567.3,727.4,567.3,727.4,567.3z"/>
		</g>
		<path id="XMLID_10805_" class="st2" d="M722.2,561.7c0,0,2.4,0.1,2-0.7c-0.4-0.8-4.2-10-5.8-8.9
			C716,553.8,719.1,559.8,722.2,561.7z"/>
	</g>
	<g id="XMLID_10790_">
		<g id="XMLID_10792_">
			<g id="XMLID_10796_">
				<g id="XMLID_226_">
					<g id="XMLID_227_">
						<path id="XMLID_228_" class="st0" d="M742.8,233.8c0,0,4.3,2.5,8.4,6.9c1.2,1.3,2.4,2.8,3.5,4.4c1.1,1.6,3.5,3,4.3,4.9
							c0.6,1.5-0.4,3.6-0.2,5.2c0.3,1.9,1.5,5.8,1.2,7.9c-0.2,1.6-1.8,1.5-2.5,3.2c-0.9,2.4-2.3,5-4.3,7.6c0,0-1.4-0.5-3.4-1.7
							c-0.9-0.5-2.5-0.3-3.5-1.1c-1.3-0.9-2.1-2.9-3.4-4.2c-1.2-1.2-2.4-2.7-3.3-4.3c-0.5-0.8-1.5-0.2-1.8-1
							c-0.6-1.5-0.6-4.5-0.9-6.2c-0.2-1.1-0.3-2.4-0.3-3.6c0-1.8,0.2-3.8,0.8-5.9C738.3,242.3,740,238.2,742.8,233.8z"/>
					</g>
				</g>
			</g>
			<path id="XMLID_10793_" class="st1" d="M753.3,274c1.6-2.1,2.8-4.2,3.7-6.3c0.4-0.9,1.9-0.5,2.2-1.4c0.6-1.8-0.3-5-0.2-6.7
				c0.1-0.9,2.3-2.1,2.2-3c-0.1-1.3-2.5-2.2-2.8-3.4c-0.5-2-1.2-3.8-2.1-5.5c-0.2-0.4-0.2-2.7-0.4-3.1c-1.3-2.3-3.1-2.3-4.8-4
				c-4.2-4.4-8.4-6.9-8.4-6.9c-0.1,0.1-0.2,0.3-0.2,0.4c2.9,10.7,8.5,32.1,10.5,39.8C753.2,274,753.3,274,753.3,274z"/>
		</g>
		<path id="XMLID_10791_" class="st2" d="M748.1,268.4c0,0,2.4,0.1,2-0.7c-0.4-0.8-4.2-10-5.8-8.9
			C741.9,260.5,745,266.5,748.1,268.4z"/>
	</g>
	<g id="XMLID_10776_">
		<g id="XMLID_10778_">
			<g id="XMLID_10782_">
				<g id="XMLID_218_">
					<g id="XMLID_219_">
						<path id="XMLID_220_" class="st0" d="M408.4,466c0,0,4.3,2.5,8.4,6.9c1.2,1.3,2.4,2.8,3.5,4.4c1.1,1.6,3.5,3,4.3,4.9
							c0.6,1.5-0.4,3.6-0.2,5.2c0.3,1.9,1.5,5.8,1.2,7.9c-0.2,1.6-1.8,1.5-2.5,3.2c-0.9,2.4-2.3,5-4.3,7.6c0,0-1.4-0.5-3.4-1.7
							c-0.9-0.5-2.5-0.3-3.5-1.1c-1.3-0.9-2.1-2.9-3.4-4.2c-1.2-1.2-2.4-2.7-3.3-4.3c-0.5-0.8-1.5-0.2-1.8-1
							c-0.6-1.5-0.6-4.5-0.9-6.2c-0.2-1.1-0.3-2.4-0.3-3.6c0-1.8,0.2-3.8,0.8-5.9C403.8,474.6,405.6,470.5,408.4,466z"/>
					</g>
				</g>
			</g>
			<path id="XMLID_10779_" class="st1" d="M418.8,506.2c1.6-2.1,2.8-4.2,3.7-6.3c0.4-0.9,1.9-0.5,2.2-1.4c0.6-1.8-0.3-5-0.2-6.7
				c0.1-0.9,2.3-2.1,2.2-3c-0.1-1.3-2.5-2.2-2.8-3.4c-0.5-2-1.2-3.8-2.1-5.5c-0.2-0.4-0.2-2.7-0.4-3.1c-1.3-2.3-3.1-2.3-4.8-4
				c-4.2-4.4-8.4-6.9-8.4-6.9c-0.1,0.1-0.2,0.3-0.2,0.4c2.9,10.7,8.5,32.1,10.5,39.8C418.8,506.2,418.8,506.2,418.8,506.2z"/>
		</g>
		<path id="XMLID_10777_" class="st2" d="M413.7,500.7c0,0,2.4,0.1,2-0.7c-0.4-0.8-4.2-10-5.8-8.9
			C407.5,492.8,410.5,498.8,413.7,500.7z"/>
	</g>
	<g id="XMLID_10762_">
		<g id="XMLID_10764_">
			<g id="XMLID_10768_">
				<g id="XMLID_210_">
					<g id="XMLID_211_">
						<path id="XMLID_212_" class="st0" d="M497.9,574.4c0,0,1,4.8,0.5,10.9c-0.2,1.8-0.4,3.7-0.9,5.6c-0.5,1.9,0.2,4.6-0.8,6.5
							c-0.7,1.4-3,2-4,3.3c-1.2,1.5-3.3,5-5.1,6.2c-1.4,0.9-2.3-0.4-4.1,0.3c-2.4,0.9-5.3,1.6-8.5,1.9c0,0-0.6-1.4-1-3.7
							c-0.2-1-1.4-2.1-1.6-3.4c-0.2-1.6,0.7-3.5,0.9-5.3c0.1-1.7,0.4-3.5,1-5.3c0.3-0.9-0.9-1.2-0.5-2.1c0.7-1.5,3-3.4,4.1-4.8
							c0.7-0.9,1.6-1.8,2.5-2.6c1.4-1.2,3-2.4,4.9-3.4C488.5,576.7,492.7,575.3,497.9,574.4z"/>
					</g>
				</g>
			</g>
			<path id="XMLID_10765_" class="st1" d="M475,609.1c2.7-0.3,5-0.8,7.1-1.4c1-0.3,1.6,1.1,2.5,0.7c1.7-0.8,3.5-3.5,4.8-4.6
				c0.7-0.6,3.1,0.2,3.7-0.4c0.9-0.9,0-3.3,0.7-4.3c1.1-1.7,2-3.4,2.7-5.2c0.1-0.4,1.9-2,2-2.3c0.8-2.5-0.4-3.9-0.2-6.2
				c0.5-6.1-0.5-10.9-0.5-10.9c-0.2,0-0.3,0.1-0.5,0.1c-6,9.3-18.2,27.8-22.6,34.4C475,609,475,609.1,475,609.1z"/>
		</g>
		<path id="XMLID_10763_" class="st2" d="M475.6,601.5c0,0,1.5,1.9,1.9,1s4.7-9.8,2.7-10.3C477.4,591.6,475,597.9,475.6,601.5z"/>
	</g>
	<g id="XMLID_10748_">
		<g id="XMLID_10750_">
			<g id="XMLID_10754_">
				<g id="XMLID_202_">
					<g id="XMLID_203_">
						<path id="XMLID_204_" class="st0" d="M421.3,735.1c0,0,1,4.8,0.5,10.9c-0.2,1.8-0.4,3.7-0.9,5.6c-0.5,1.9,0.2,4.6-0.8,6.5
							c-0.7,1.4-3,2-4,3.3c-1.2,1.5-3.3,5-5.1,6.2c-1.4,0.9-2.3-0.4-4.1,0.3c-2.4,0.9-5.3,1.6-8.5,1.9c0,0-0.6-1.4-1-3.7
							c-0.2-1-1.4-2.1-1.6-3.4c-0.2-1.6,0.7-3.5,0.9-5.3c0.1-1.7,0.4-3.5,1-5.3c0.3-0.9-0.9-1.2-0.5-2.1c0.7-1.5,3-3.4,4.1-4.8
							c0.7-0.9,1.6-1.8,2.5-2.6c1.4-1.2,3-2.4,4.9-3.4C411.9,737.4,416.1,736,421.3,735.1z"/>
					</g>
				</g>
			</g>
			<path id="XMLID_10751_" class="st1" d="M398.4,769.8c2.7-0.3,5-0.8,7.1-1.4c1-0.3,1.6,1.1,2.5,0.7c1.7-0.8,3.5-3.5,4.8-4.6
				c0.7-0.6,3.1,0.2,3.7-0.4c0.9-0.9,0-3.3,0.7-4.3c1.1-1.7,2-3.4,2.7-5.2c0.1-0.4,1.9-2,2-2.3c0.8-2.5-0.4-3.9-0.2-6.2
				c0.5-6.1-0.5-10.9-0.5-10.9c-0.2,0-0.3,0.1-0.5,0.1c-6,9.3-18.2,27.8-22.6,34.4C398.3,769.7,398.4,769.8,398.4,769.8z"/>
		</g>
		<path id="XMLID_10749_" class="st2" d="M399,762.2c0,0,1.5,1.9,1.9,1c0.4-0.8,4.7-9.8,2.7-10.3C400.8,752.3,398.4,758.6,399,762.2
			z"/>
	</g>
	<g id="XMLID_10734_">
		<g id="XMLID_10736_">
			<g id="XMLID_10740_">
				<g id="XMLID_194_">
					<g id="XMLID_195_">
						<path id="XMLID_196_" class="st0" d="M251.9,518.8c0,0,3.6,3.4,6.6,8.7c0.9,1.5,1.7,3.3,2.4,5.1c0.7,1.9,2.8,3.7,3,5.8
							c0.2,1.6-1.3,3.4-1.4,5c-0.2,1.9,0.1,6-0.7,8c-0.6,1.5-2.1,1-3.2,2.6c-1.5,2.2-3.4,4.3-5.9,6.4c0,0-1.3-0.8-2.9-2.4
							c-0.7-0.7-2.4-0.9-3.2-1.9c-1.1-1.2-1.4-3.3-2.3-4.9c-0.9-1.5-1.7-3.1-2.2-4.9c-0.3-0.9-1.4-0.5-1.6-1.4
							c-0.3-1.6,0.5-4.5,0.6-6.3c0.1-1.2,0.3-2.4,0.6-3.6c0.4-1.8,1.1-3.7,2.1-5.6C245.5,526,248.1,522.5,251.9,518.8z"/>
					</g>
				</g>
			</g>
			<path id="XMLID_10737_" class="st1" d="M252.8,560.3c2-1.7,3.7-3.5,5-5.2c0.6-0.8,2,0,2.5-0.8c1-1.6,0.9-4.9,1.4-6.5
				c0.3-0.9,2.7-1.6,2.8-2.4c0.2-1.3-1.9-2.7-1.9-4c0-2-0.3-4-0.8-5.8c-0.1-0.4,0.5-2.7,0.3-3.1c-0.8-2.6-2.5-3-3.7-5
				c-3-5.3-6.6-8.7-6.6-8.7c-0.1,0.1-0.2,0.2-0.3,0.3c0.4,11,0.9,33.2,1,41.1C252.7,560.3,252.8,560.3,252.8,560.3z"/>
		</g>
		<path id="XMLID_10735_" class="st2" d="M249,553.7c0,0,2.3,0.7,2.1-0.2s-1.7-10.7-3.6-10C244.8,544.6,246.4,551.1,249,553.7z"/>
	</g>
	<g id="XMLID_10720_">
		<g id="XMLID_10722_">
			<g id="XMLID_10726_">
				<g id="XMLID_186_">
					<g id="XMLID_187_">
						<path id="XMLID_188_" class="st0" d="M623.1,165.5c0,0,4.3,2.5,8.4,6.9c1.2,1.3,2.4,2.8,3.5,4.4c1.1,1.6,3.5,3,4.3,4.9
							c0.6,1.5-0.4,3.6-0.2,5.2c0.3,1.9,1.5,5.8,1.2,7.9c-0.2,1.6-1.8,1.5-2.5,3.2c-0.9,2.4-2.3,5-4.3,7.6c0,0-1.4-0.5-3.4-1.7
							c-0.9-0.5-2.5-0.3-3.5-1.1c-1.3-0.9-2.1-2.9-3.4-4.2c-1.2-1.2-2.4-2.7-3.3-4.3c-0.5-0.8-1.5-0.2-1.8-1
							c-0.6-1.5-0.6-4.5-0.9-6.2c-0.2-1.1-0.3-2.4-0.3-3.6c0-1.8,0.2-3.8,0.8-5.9C618.6,174.1,620.3,170,623.1,165.5z"/>
					</g>
				</g>
			</g>
			<path id="XMLID_10723_" class="st1" d="M633.6,205.7c1.6-2.1,2.8-4.2,3.7-6.3c0.4-0.9,1.9-0.5,2.2-1.4c0.6-1.8-0.3-5-0.2-6.7
				c0.1-0.9,2.3-2.1,2.2-3c-0.1-1.3-2.5-2.2-2.8-3.4c-0.5-2-1.2-3.8-2.1-5.5c-0.2-0.4-0.2-2.7-0.4-3.1c-1.3-2.3-3.1-2.3-4.8-4
				c-4.2-4.4-8.4-6.9-8.4-6.9c-0.1,0.1-0.2,0.3-0.2,0.4c2.9,10.7,8.5,32.1,10.5,39.8C633.5,205.7,633.6,205.7,633.6,205.7z"/>
		</g>
		<path id="XMLID_10721_" class="st2" d="M628.4,200.2c0,0,2.4,0.1,2-0.7s-4.2-10-5.8-8.9C622.2,192.3,625.3,198.3,628.4,200.2z"/>
	</g>
	<g id="XMLID_10667_">
		<g id="XMLID_10706_">
			<g id="XMLID_10708_">
				<g id="XMLID_10712_">
					<g id="XMLID_178_">
						<g id="XMLID_179_">
							<path id="XMLID_180_" class="st0" d="M608.8,354.4c0,0-2-5.5-2.5-12.8c-0.1-2.1-0.1-4.4,0.1-6.7c0.2-2.4-1-5.4-0.2-7.8
								c0.6-1.8,3.1-2.9,4.2-4.7c1.2-2,3.1-6.5,5-8.2c1.5-1.3,2.8,0,4.8-1.1c2.7-1.5,5.9-2.8,9.7-3.8c0,0,0.9,1.6,1.9,4.1
								c0.4,1.1,2,2.2,2.4,3.7c0.5,1.9-0.3,4.2-0.1,6.5c0.2,2.1,0.1,4.2-0.2,6.5c-0.2,1.1,1.2,1.3,0.9,2.3c-0.5,1.9-2.9,4.6-4,6.4
								c-0.7,1.2-1.5,2.4-2.5,3.6c-1.4,1.7-3.1,3.3-5.2,4.9C619.5,350,614.9,352.4,608.8,354.4z"/>
						</g>
					</g>
				</g>
				<path id="XMLID_10709_" class="st1" d="M629.9,309.4c-3.1,0.8-5.8,1.8-8.2,2.9c-1.1,0.5-2.1-1.1-3.1-0.4
					c-1.9,1.2-3.5,4.8-4.9,6.2c-0.7,0.8-3.7,0.3-4.3,1.1c-0.9,1.3,0.6,3.9-0.1,5.2c-1.1,2.2-1.8,4.4-2.3,6.7c-0.1,0.5-1.9,2.6-2,3.1
					c-0.5,3.1,1.1,4.5,1.3,7.4c0.4,7.3,2.5,12.8,2.5,12.8c0.2-0.1,0.3-0.1,0.5-0.2c5.5-12,16.7-36.1,20.7-44.6
					C630,309.4,629.9,309.4,629.9,309.4z"/>
			</g>
			<path id="XMLID_10707_" class="st2" d="M630.5,318.4c0,0-2.1-2-2.4-0.9c-0.3,1.1-3.8,12.4-1.4,12.6
				C630.1,330.5,631.9,322.6,630.5,318.4z"/>
		</g>
		<g id="XMLID_10687_">
			<path id="XMLID_10703_" class="st0" d="M599.4,391.2c0,0,20.5-56.9,70.4-32.4c0,0,0,1.2-1.4,5.3c-0.5,1.4,1.1,2.9,0.4,4.5
				c-0.5,1.1-3.8,3.9-4.4,5c-1,1.9,1.9,2.9,0.6,4.8c-1,1.4-6.1,3.7-7.3,5.1c-1.2,1.4-2.5,2.7-3.9,4c-1,0.8,0.7,2-0.3,2.7
				c-1.5,1.1-5.9,1.9-7.7,2.8c-1.4,0.7-2.9,1.4-4.5,2c-1.6,0.6-0.3,2-2.1,2.4c-1.7,0.3-6.5-0.3-8.3-0.2c-3.3,0.3-5,1.9-8.8,1.4
				C615.9,397.9,607.1,394.4,599.4,391.2z"/>
			<g id="XMLID_10691_">
				<path id="XMLID_10700_" class="st1" d="M669.8,358.8c-6.5-3.2-8.2-6.1-15-5.7c-2.3,0.1-5.2-2.9-7.4-2.9
					c-2.4,0.1-7.2,2.8-9.4,3.3c-2.5,0.5-5.8-0.5-8,0.5c-1.9,0.8-2.9,3.4-4.6,4.5c-1.8,1.1-3.6,2.3-5.2,3.6c-1.2,1-4.5,1.1-5.6,2.1
					c-1.5,1.4-0.8,3.8-2.1,5.3c-1.6,1.8-3,3.7-4.3,5.5c-6,8.5-8.8,16.2-8.8,16.2c0.3,0.1,0.5,0.2,0.8,0.3
					c18.6-8.8,56.2-26.2,69.5-32.4C669.8,358.9,669.8,358.8,669.8,358.8z"/>
				<g id="XMLID_10692_">
					<path id="XMLID_10699_" class="st3" d="M603.6,390l63.5-29C667.1,361.1,636.2,370.4,603.6,390z"/>
					<polygon id="XMLID_10698_" class="st3" points="653.5,356.5 643.9,371.1 642,371.8 					"/>
					<polygon id="XMLID_10697_" class="st3" points="660.5,375 643.9,371.1 642,371.8 					"/>
					<polygon id="XMLID_10696_" class="st3" points="630.9,375.5 640.2,358.7 632.6,374.7 					"/>
					<polygon id="XMLID_10695_" class="st3" points="634.4,376 650.8,383.4 631.8,377.2 					"/>
					<polygon id="XMLID_10694_" class="st3" points="621.5,380.9 625.4,365.7 618.6,381.6 					"/>
					<polygon id="XMLID_10693_" class="st3" points="621.2,380.2 636.1,384.8 619,382.3 					"/>
				</g>
			</g>
			<path id="XMLID_10690_" class="st4" d="M664.9,370.6c0,0-14.8,26.1-36,23.9c-20.4-2.1-5.4-7.8,5.3-8.6c10.6-0.8,13.3-1,17.1-9.4
				C655.1,368.1,666.3,360.9,664.9,370.6z"/>
			<path id="XMLID_10689_" class="st5" d="M652.1,379.2c0,0,1.1,3.2,2,2.2c0.9-1,10.8-10.9,8.4-12.4
				C659.1,366.9,652.9,374.1,652.1,379.2z"/>
			<path id="XMLID_10688_" class="st5" d="M627.5,390.6c0,0,8-3.6,10.8-3.1c2.8,0.6,7.5,2.7,1.8,3.7
				C634.4,392.3,624.3,394.9,627.5,390.6z"/>
		</g>
		<g id="XMLID_10668_">
			<path id="XMLID_10684_" class="st0" d="M597.2,388.8c0,0-10-0.5-22.8-4.2c-2.7-0.8-5.6-1.7-8.4-2.8c-2.9-1.1-5.9-2.4-8.9-3.9
				c-2.2-1.1-4.4-2.3-6.6-3.7c-3.1-1.9-6.1-4.1-9-6.6c-4.3-3.7-8.3-8.1-11.5-13.2c-1.9-3-3.6-6.3-5-9.9c-1.1-2.9-2.1-6.1-2.8-9.4
				c-0.6-2.9-1.1-6-1.3-9.2c-0.2-2.7-0.3-5.6-0.2-8.6c0.1-4,0.5-8.2,1.2-12.7c0,0,5-0.6,12.5-0.1c3.5,0.2,9.8-1.5,9.8-1.5
				s6.2,4,8.3,4.6c3.1,0.9,8.5-0.2,8.5-0.2s7.3,6.8,10.3,8.8c1.4,1,3.7-1.1,5,0c3.5,2.9,6,9.6,8.9,13.7c1.7,2.4,3.3,5,4.7,7.9
				c1.2,2.4,3.2-0.1,4.1,2.6c1.5,4.3,1.7,14.2,2.5,19.5C597.9,368.2,598.2,377.8,597.2,388.8z"/>
			<g id="XMLID_10672_">
				<path id="XMLID_10681_" class="st1" d="M522,304.7c-1,6.1-1.4,9.5-1.3,14.8c0.1,3.1-2.5,7.1-2.1,9.9c0.5,3.4,4.1,7.9,5,10.9
					c1,3.4-0.2,5.6,1.3,8.6c0.6,1.1,3.6,3,4.2,4c1.5,2.5,3.2,4.9,4.9,7.1c1.8,2.2-0.8,5,1.3,6.9c2.6,2.4,10,3.9,12.8,5.8
					c2.6,1.8,5.3,3.3,8,4.7c2.7,1.4,1.2,4,3.9,5c1.4,0.5,7-0.2,8.3,0.2c4.8,1.7,9.3,2.9,13.4,3.8c9.1,2,15.5,2.3,15.5,2.3
					c0-0.4,0.1-0.8,0.1-1.2c-20.3-22.1-60.5-66.9-74.9-82.9C522.2,304.7,522,304.7,522,304.7z"/>
				<g id="XMLID_10673_">
					<path id="XMLID_10680_" class="st3" d="M593.8,383.5l-67.5-76C526.3,307.5,552.5,346.6,593.8,383.5z"/>
					<polygon id="XMLID_10679_" class="st3" points="525.7,328.3 550.1,335.4 551.9,337.9 					"/>
					<polygon id="XMLID_10678_" class="st3" points="548.5,310.8 550.1,335.4 551.9,337.9 					"/>
					<polygon id="XMLID_10677_" class="st3" points="561.9,351.7 534.4,346 560,349.6 					"/>
					<polygon id="XMLID_10676_" class="st3" points="561,346.6 564.3,320.6 563.8,349.7 					"/>
					<polygon id="XMLID_10675_" class="st3" points="573.3,362.4 550.6,363.5 575.6,366.2 					"/>
					<polygon id="XMLID_10674_" class="st3" points="572.6,363.2 572.6,340.5 576.4,365.3 					"/>
				</g>
			</g>
			<path id="XMLID_10671_" class="st2" d="M587.2,376.1c-4.2-0.1-9.8,2-17.3-1.4s-0.8,12.3,23.9,8.8
				C593.8,383.5,596.5,376.3,587.2,376.1z"/>
			<path id="XMLID_10670_" class="st4" d="M530.7,308c0,0,31.4-4.7,41.6,18.8c10.3,23.5,16.8,13.8,13.5,18.6s-15.3-2.4-24.3-12.9
				c-8.4-9.8-13.2-12.9-18.4-13.4C538,318.7,530.7,308,530.7,308z"/>
			<path id="XMLID_10669_" class="st5" d="M540.6,311.3c0,0-0.5,4.1,1.2,4.9c1.7,0.8,16.2,8.1,17.3,4.2
				C560.7,314.6,548,310.3,540.6,311.3z"/>
		</g>
	</g>
	<g id="XMLID_10648_">
		<path id="XMLID_10664_" class="st0" d="M310.1,738.5c0,0-1.8-9.8-1.1-23.1c0.1-2.8,0.4-5.8,0.8-8.9c0.4-3.1,1-6.3,1.8-9.5
			c0.6-2.4,1.3-4.8,2.1-7.2c1.2-3.5,2.6-6.9,4.4-10.3c2.6-5,6-9.9,10.3-14.2c2.5-2.6,5.3-5,8.5-7.1c2.6-1.8,5.4-3.4,8.5-4.9
			c2.7-1.3,5.6-2.4,8.6-3.4c2.6-0.8,5.4-1.5,8.3-2.1c3.9-0.8,8.1-1.4,12.6-1.7c0,0,1.7,4.7,3,12.1c0.6,3.4,3.7,9.2,3.7,9.2
			s-2.5,6.9-2.6,9.1c-0.2,3.3,2.1,8.2,2.1,8.2s-4.9,8.7-6.3,12.1c-0.6,1.6,1.9,3.3,1.1,4.9c-2,4.1-7.9,8-11.3,11.8
			c-1.9,2.2-4.1,4.3-6.6,6.4c-2.1,1.7,0.9,3.1-1.6,4.6c-3.9,2.4-13.4,4.9-18.4,6.9C330.3,734.5,321,737,310.1,738.5z"/>
		<g id="XMLID_10652_">
			<path id="XMLID_10661_" class="st1" d="M374.9,646.1c-6.2,0.4-9.6,0.8-14.7,2.1c-3,0.8-7.4-0.9-10.1,0.2
				c-3.2,1.3-6.8,5.8-9.5,7.4c-3,1.8-5.5,1.1-8,3.2c-0.9,0.8-2.1,4.2-2.9,5c-2.1,2-4,4.2-5.8,6.4c-1.8,2.3-5.1,0.4-6.5,2.8
				c-1.8,3.1-1.5,10.6-2.7,13.8c-1.1,2.9-2,5.9-2.8,8.9c-0.8,3-3.6,2.1-4,4.9c-0.2,1.4,1.8,6.8,1.7,8.2c-0.6,5-0.7,9.7-0.7,13.9
				c0.1,9.3,1.3,15.6,1.3,15.6c0.4-0.1,0.8-0.1,1.2-0.2c16.9-24.8,51.4-74.2,63.7-91.8C375,646.3,374.9,646.1,374.9,646.1z"/>
			<g id="XMLID_10653_">
				<path id="XMLID_10660_" class="st3" d="M314.5,734l58.6-83C373.2,651,341,685.3,314.5,734z"/>
				<polygon id="XMLID_10659_" class="st3" points="352.7,655.2 351.4,680.5 349.4,682.8 				"/>
				<polygon id="XMLID_10658_" class="st3" points="375,673.3 351.4,680.5 349.4,682.8 				"/>
				<polygon id="XMLID_10657_" class="st3" points="338.2,695.6 337.5,667.6 339.8,693.3 				"/>
				<polygon id="XMLID_10656_" class="st3" points="343,693.7 369.1,691 340.6,697.1 				"/>
				<polygon id="XMLID_10655_" class="st3" points="330.3,709.3 324.2,687.4 327.2,712.3 				"/>
				<polygon id="XMLID_10654_" class="st3" points="329.4,708.7 351.6,703.6 328.3,712.9 				"/>
			</g>
		</g>
		<path id="XMLID_10651_" class="st2" d="M320.2,725.9c-0.9-4.1-4.1-9.1-2.6-17.2c1.6-8.1-12.2,2-3.1,25.3
			C314.5,734,322.2,735,320.2,725.9z"/>
		<path id="XMLID_10650_" class="st4" d="M373.6,655.4c0,0,11.7,29.5-8.8,44.8c-20.5,15.4-9.6,19.5-15.1,17.4s-1.1-15.4,7.1-26.6
			c7.7-10.4,9.6-15.8,8.9-20.9S373.6,655.4,373.6,655.4z"/>
		<path id="XMLID_10649_" class="st5" d="M372.7,665.7c0,0-4.1,0.4-4.5,2.3c-0.4,1.8-4.2,17.6-0.1,17.8
			C374,686,375.4,672.7,372.7,665.7z"/>
	</g>
	<g id="XMLID_10629_">
		<path id="XMLID_10645_" class="st0" d="M633.4,543.9c0,0-6.1,3.7-15.1,6.6c-1.9,0.6-4,1.2-6.1,1.7c-2.2,0.5-4.4,0.9-6.8,1.2
			c-1.7,0.2-3.5,0.4-5.3,0.4c-2.6,0.1-5.3,0-7.9-0.3c-4-0.5-8.1-1.5-12.1-3.3c-2.3-1-4.7-2.3-6.9-3.9c-1.8-1.3-3.6-2.8-5.4-4.4
			c-1.5-1.5-3-3.1-4.4-4.9c-1.2-1.5-2.4-3.2-3.5-5c-1.5-2.4-3-5.1-4.3-8c0,0,2.7-2.3,7.3-5c2.2-1.3,5.2-4.8,5.2-4.8s5.2-0.1,6.8-0.5
			c2.2-0.7,5-3.5,5-3.5s7,1.1,9.6,1.1c1.2,0,1.7-2.1,3-2c3.2,0.3,7.3,3.3,10.7,4.6c2,0.7,3.9,1.7,5.9,2.8c1.7,0.9,1.8-1.4,3.5-0.1
			c2.6,2,6.7,7.7,9.2,10.5C625.7,531.5,629.6,537.1,633.4,543.9z"/>
		<g id="XMLID_10633_">
			<path id="XMLID_10642_" class="st1" d="M555.5,524c1.9,4,3,6.2,5.1,9.3c1.3,1.8,1.3,5.2,2.6,6.7c1.6,1.8,5.6,3.1,7.3,4.5
				c1.9,1.6,2.1,3.4,4.2,4.6c0.8,0.4,3.3,0.3,4.1,0.7c1.9,0.9,3.8,1.6,5.7,2.2c2,0.6,1.5,3.3,3.5,3.6c2.5,0.4,7.4-1.7,9.9-1.6
				c2.2,0,4.5-0.1,6.6-0.4c2.2-0.2,2.3,1.9,4.3,1.4c1-0.2,4.1-2.9,5-3.2c3.5-0.9,6.7-2,9.4-3c6.2-2.4,10.1-4.8,10.1-4.8
				c-0.1-0.3-0.3-0.5-0.4-0.8c-20.8-5.1-62.4-15.6-77.2-19.4C555.5,523.9,555.5,524,555.5,524z"/>
			<g id="XMLID_10634_">
				<path id="XMLID_10641_" class="st3" d="M629.2,542.2l-70.1-18.2C559.1,523.9,590.1,536.7,629.2,542.2z"/>
				<polygon id="XMLID_10640_" class="st3" points="567.1,536.5 584.3,531 586.4,531.8 				"/>
				<polygon id="XMLID_10639_" class="st3" points="573.6,517.1 584.3,531 586.4,531.8 				"/>
				<polygon id="XMLID_10638_" class="st3" points="597.7,536 579.2,543.5 595.8,535.5 				"/>
				<polygon id="XMLID_10637_" class="st3" points="595.2,533.3 586.8,516.6 598.1,534.1 				"/>
				<polygon id="XMLID_10636_" class="st3" points="608.8,537.8 595.7,547.4 611.6,539.1 				"/>
				<polygon id="XMLID_10635_" class="st3" points="608.6,538.6 599.6,525.1 611.7,538.3 				"/>
			</g>
		</g>
		<path id="XMLID_10632_" class="st2" d="M622.4,540.4c-2.5,1.6-5,5-10.8,6c-5.8,1,4.4,7.6,17.6-4.3
			C629.2,542.2,628,536.8,622.4,540.4z"/>
		<path id="XMLID_10631_" class="st4" d="M561.9,522.5c0,0,16.7-15.2,32.1-5.4c15.4,9.8,15.4,1.5,15.4,5.7s-10,4.6-19.5,2
			c-8.9-2.5-12.9-2.4-16.2-0.6C570.5,525.9,561.9,522.5,561.9,522.5z"/>
		<path id="XMLID_10630_" class="st5" d="M569.1,520.5c0,0,1.3,2.6,2.7,2.4s12.8-1.6,11.9-4.4C582.3,514.5,573.1,517,569.1,520.5z"
			/>
	</g>
	<g id="XMLID_10610_">
		<path id="XMLID_10626_" class="st0" d="M437.3,291.1c0,0-5.5,3.3-13.6,5.9c-1.7,0.6-3.6,1.1-5.5,1.5c-2,0.5-4,0.8-6.1,1.1
			c-1.6,0.2-3.2,0.3-4.8,0.4c-2.4,0.1-4.7,0-7.2-0.3c-3.6-0.4-7.3-1.4-10.9-2.9c-2.1-0.9-4.2-2.1-6.2-3.5c-1.7-1.2-3.3-2.5-4.8-4
			c-1.4-1.3-2.7-2.8-4-4.4c-1.1-1.4-2.2-2.9-3.2-4.5c-1.4-2.2-2.7-4.6-3.9-7.2c0,0,2.5-2.1,6.6-4.5c1.9-1.1,4.7-4.3,4.7-4.3
			s4.7-0.1,6.1-0.5c2-0.6,4.5-3.1,4.5-3.1s6.3,1,8.7,1c1.1,0,1.5-1.9,2.7-1.8c2.9,0.3,6.6,3,9.7,4.1c1.8,0.7,3.5,1.5,5.3,2.5
			c1.5,0.9,1.7-1.2,3.1-0.1c2.3,1.8,6,7,8.3,9.5C430.3,279.9,433.9,284.9,437.3,291.1z"/>
		<g id="XMLID_10614_">
			<path id="XMLID_10623_" class="st1" d="M367,273.1c1.7,3.6,2.7,5.6,4.6,8.4c1.1,1.6,1.2,4.7,2.4,6c1.5,1.6,5,2.8,6.6,4.1
				c1.8,1.4,1.9,3.1,3.8,4.1c0.7,0.4,3,0.3,3.7,0.6c1.7,0.8,3.4,1.5,5.2,2c1.8,0.5,1.4,3,3.2,3.2c2.3,0.4,6.7-1.5,8.9-1.5
				c2,0,4-0.1,6-0.3c2-0.2,2,1.7,3.9,1.3c0.9-0.2,3.7-2.6,4.5-2.9c3.1-0.8,6-1.8,8.5-2.7c5.6-2.2,9.1-4.3,9.1-4.3
				c-0.1-0.2-0.3-0.5-0.4-0.7c-18.7-4.6-56.3-14.1-69.6-17.5C367.1,273.1,367,273.1,367,273.1z"/>
			<g id="XMLID_10615_">
				<path id="XMLID_10622_" class="st3" d="M433.6,289.5l-63.2-16.4C370.3,273.1,398.3,284.6,433.6,289.5z"/>
				<polygon id="XMLID_10621_" class="st3" points="377.5,284.4 393.1,279.5 394.9,280.1 				"/>
				<polygon id="XMLID_10620_" class="st3" points="383.4,266.9 393.1,279.5 394.9,280.1 				"/>
				<polygon id="XMLID_10619_" class="st3" points="405.1,284 388.5,290.7 403.4,283.6 				"/>
				<polygon id="XMLID_10618_" class="st3" points="402.9,281.6 395.3,266.5 405.5,282.2 				"/>
				<polygon id="XMLID_10617_" class="st3" points="415.1,285.6 403.3,294.3 417.6,286.8 				"/>
				<polygon id="XMLID_10616_" class="st3" points="415,286.3 406.9,274.1 417.8,286 				"/>
			</g>
		</g>
		<path id="XMLID_10613_" class="st2" d="M427.4,287.9c-2.3,1.5-4.5,4.5-9.8,5.4c-5.2,0.9,4,6.9,15.9-3.8
			C433.6,289.5,432.4,284.7,427.4,287.9z"/>
		<path id="XMLID_10612_" class="st4" d="M372.9,271.8c0,0,15.1-13.7,29-4.8c13.9,8.9,13.9,1.4,13.9,5.1c0,3.8-9,4.2-17.6,1.8
			c-8-2.2-11.7-2.2-14.6-0.6C380.6,274.9,372.9,271.8,372.9,271.8z"/>
		<path id="XMLID_10611_" class="st5" d="M379.3,270c0,0,1.2,2.4,2.4,2.2c1.2-0.2,11.6-1.5,10.7-4
			C391.2,264.6,382.9,266.8,379.3,270z"/>
	</g>
	<g id="XMLID_10591_">
		<path id="XMLID_10607_" class="st0" d="M523.5,412.8c0,0,1.2,4.8,1.2,11.3c0,1.4,0,2.8-0.2,4.4c-0.1,1.5-0.3,3.1-0.6,4.7
			c-0.2,1.2-0.5,2.4-0.8,3.6c-0.5,1.7-1.1,3.5-1.8,5.1c-1.2,2.5-2.7,5-4.6,7.3c-1.2,1.3-2.5,2.6-4,3.7c-1.2,0.9-2.6,1.8-4,2.6
			c-1.3,0.7-2.7,1.3-4.1,1.9c-1.3,0.5-2.6,0.9-4,1.3c-1.9,0.5-3.9,0.9-6.1,1.2c0,0-1-2.3-1.8-5.8c-0.4-1.7-2.1-4.4-2.1-4.4
			s1-3.5,1-4.5c0-1.6-1.3-4-1.3-4s2.2-4.4,2.7-6.1c0.3-0.8-1-1.6-0.7-2.4c0.9-2.1,3.7-4.1,5.2-6.1c0.9-1.1,1.9-2.2,3-3.3
			c1-0.9-0.5-1.5,0.6-2.3c1.8-1.3,6.4-2.8,8.8-3.9C513.7,415.3,518.2,413.8,523.5,412.8z"/>
		<g id="XMLID_10595_">
			<path id="XMLID_10604_" class="st1" d="M494.4,459.8c3-0.4,4.7-0.7,7.1-1.5c1.4-0.5,3.7,0.2,4.9-0.4c1.5-0.7,3.2-3,4.5-3.9
				c1.4-1,2.7-0.7,3.9-1.8c0.4-0.4,0.9-2.1,1.3-2.6c1-1.1,1.9-2.2,2.6-3.3c0.8-1.2,2.5-0.3,3.1-1.6c0.8-1.6,0.4-5.2,0.9-6.8
				c0.5-1.5,0.8-3,1.1-4.4c0.3-1.5,1.7-1.1,1.8-2.5c0.1-0.7-1.1-3.3-1-4c0.1-2.5,0.1-4.8-0.1-6.8c-0.3-4.6-1.1-7.6-1.1-7.6
				c-0.2,0-0.4,0.1-0.6,0.1c-7.6,12.6-23.1,37.8-28.6,46.7C494.3,459.8,494.4,459.8,494.4,459.8z"/>
			<g id="XMLID_10596_">
				<path id="XMLID_10603_" class="st3" d="M521.5,415.1l-26.4,42.3C495.1,457.4,509.8,439.7,521.5,415.1z"/>
				<polygon id="XMLID_10602_" class="st3" points="505,454.8 504.9,442.3 505.8,441.2 				"/>
				<polygon id="XMLID_10601_" class="st3" points="493.5,446.5 504.9,442.3 505.8,441.2 				"/>
				<polygon id="XMLID_10600_" class="st3" points="511,434.6 512.1,448.3 510.3,435.7 				"/>
				<polygon id="XMLID_10599_" class="st3" points="508.7,435.7 496,437.7 509.7,433.9 				"/>
				<polygon id="XMLID_10598_" class="st3" points="514.4,427.7 518.1,438.2 515.9,426.1 				"/>
				<polygon id="XMLID_10597_" class="st3" points="514.9,427.9 504.2,431.1 515.3,425.8 				"/>
			</g>
		</g>
		<path id="XMLID_10594_" class="st2" d="M518.9,419.2c0.5,2,2.3,4.3,1.7,8.3c-0.5,4,5.9-1.3,0.8-12.5
			C521.5,415.1,517.7,414.8,518.9,419.2z"/>
		<path id="XMLID_10593_" class="st4" d="M494.7,455.3c0,0-6.6-14.1,3.1-22.2c9.6-8.1,4.2-9.8,6.9-8.9c2.7,0.9,1,7.5-2.7,13.2
			c-3.5,5.3-4.3,8-3.8,10.5S494.7,455.3,494.7,455.3z"/>
		<path id="XMLID_10592_" class="st5" d="M494.9,450.2c0,0,2-0.3,2.1-1.2s1.6-8.8-0.4-8.7C493.7,440.3,493.4,446.8,494.9,450.2z"/>
	</g>
	<g id="XMLID_10538_">
		<g id="XMLID_10577_">
			<g id="XMLID_10579_">
				<g id="XMLID_10583_">
					<g id="XMLID_146_">
						<g id="XMLID_147_">
							<path id="XMLID_148_" class="st0" d="M577.9,802.6c0,0-1.7-4.6-2.1-10.7c-0.1-1.8-0.1-3.7,0.1-5.6c0.2-2-0.8-4.6-0.2-6.5
								c0.5-1.5,2.6-2.5,3.5-3.9c1-1.7,2.6-5.4,4.2-6.8c1.2-1.1,2.4,0,4-0.9c2.3-1.3,5-2.4,8.1-3.1c0,0,0.8,1.3,1.6,3.5
								c0.4,1,1.7,1.9,2,3.1c0.4,1.6-0.2,3.5-0.1,5.4c0.1,1.7,0.1,3.6-0.2,5.4c-0.1,0.9,1,1.1,0.8,2c-0.4,1.5-2.4,3.8-3.3,5.3
								c-0.6,1-1.3,2-2.1,3c-1.2,1.4-2.6,2.8-4.4,4.1C586.9,799,583,801,577.9,802.6z"/>
						</g>
					</g>
				</g>
				<path id="XMLID_10580_" class="st1" d="M595.6,765c-2.6,0.6-4.9,1.5-6.8,2.5c-0.9,0.5-1.8-0.9-2.6-0.4c-1.6,1-3,4-4.1,5.2
					c-0.6,0.7-3.1,0.2-3.6,0.9c-0.8,1,0.5,3.3-0.1,4.4c-0.9,1.8-1.5,3.7-1.9,5.6c-0.1,0.4-1.6,2.2-1.7,2.6c-0.4,2.6,0.9,3.8,1.1,6.2
					c0.4,6.1,2.1,10.7,2.1,10.7c0.1,0,0.3-0.1,0.4-0.1c4.6-10.1,13.9-30.2,17.3-37.3C595.6,765.1,595.6,765,595.6,765z"/>
			</g>
			<path id="XMLID_10578_" class="st2" d="M596,772.6c0,0-1.8-1.6-2-0.7s-3.2,10.4-1.2,10.6C595.7,782.6,597.2,776.1,596,772.6z"/>
		</g>
		<g id="XMLID_10558_">
			<path id="XMLID_10574_" class="st0" d="M635.3,715.7c0,0,62.4-39,91.6,21.9c0,0-0.9,1.2-5.4,4c-1.5,1-1.1,3.6-3,4.6
				c-1.3,0.7-6.5,0.9-7.9,1.5c-2.3,1-0.3,4.2-3,5c-2,0.6-8.6-1-10.8-0.6c-2.2,0.4-4.4,0.7-6.7,0.9c-1.5,0.1-0.8,2.4-2.4,2.4
				c-2.3-0.1-7.1-2.7-9.5-3.1c-1.9-0.4-3.8-0.9-5.8-1.5c-2-0.7-1.8,1.7-3.8,0.7c-1.8-0.9-6-5.2-7.8-6.4c-3.3-2.2-6.2-2-9.5-5.3
				C646,734.4,640.3,724.5,635.3,715.7z"/>
			<g id="XMLID_10562_">
				<path id="XMLID_10571_" class="st1" d="M726.9,737.6c-3.8-8-3.3-12-10-16.7c-2.3-1.6-2.8-6.7-4.9-8.3c-2.4-1.8-9-2.7-11.4-3.9
					c-2.8-1.4-5.2-4.8-8-5.6c-2.4-0.7-5.3,1.1-7.8,0.8c-2.6-0.3-5.1-0.5-7.7-0.5c-1.9,0-5.1-2.4-7-2.2c-2.5,0.2-3.6,3.1-6,3.5
					c-2.9,0.6-5.7,1.3-8.3,2c-12.1,3.6-20.6,8.9-20.6,8.9c0.2,0.3,0.4,0.6,0.5,0.9c24.4,5.5,73.3,17.1,90.8,21.3
					C726.7,737.7,726.9,737.6,726.9,737.6z"/>
				<g id="XMLID_10563_">
					<path id="XMLID_10570_" class="st3" d="M640.1,717.7l82.4,20C722.6,737.7,686,723.4,640.1,717.7z"/>
					<polygon id="XMLID_10569_" class="st3" points="713,723.2 692.9,729.9 690.5,729.1 					"/>
					<polygon id="XMLID_10568_" class="st3" points="705.8,746.1 692.9,729.9 690.5,729.1 					"/>
					<polygon id="XMLID_10567_" class="st3" points="677.1,724.3 698.7,715.2 679.4,724.8 					"/>
					<polygon id="XMLID_10566_" class="st3" points="680.1,727.4 690.2,746.9 676.8,726.6 					"/>
					<polygon id="XMLID_10565_" class="st3" points="664.2,722.4 679.3,710.9 660.9,720.9 					"/>
					<polygon id="XMLID_10564_" class="st3" points="664.3,721.5 675.1,737.2 660.7,721.9 					"/>
				</g>
			</g>
			<path id="XMLID_10561_" class="st4" d="M713.4,745.2c0,0-33.7,13.8-52.3-4.2c-17.9-17.3,0.7-11.5,11.5-4.3
				c10.8,7.2,13.5,9,23.4,3.9C705.9,735.5,722,737,713.4,745.2z"/>
			<path id="XMLID_10560_" class="st5" d="M694.7,743.8c0,0-1.3,3.9,0.2,3.6s18.5-2.3,17.3-5.5C710.5,737.2,699.3,739.5,694.7,743.8
				z"/>
			<path id="XMLID_10559_" class="st5" d="M662.6,736.2c0,0,10.4,2.5,12.6,5.2c2.2,2.6,5.2,8.2-1.1,4.9
				C667.9,743,656.3,737.9,662.6,736.2z"/>
		</g>
		<g id="XMLID_10539_">
			<path id="XMLID_10555_" class="st0" d="M634.9,713.6c0,0-10-0.5-22.8-4.2c-2.7-0.8-5.6-1.7-8.4-2.8c-2.9-1.1-5.9-2.4-8.9-3.9
				c-2.2-1.1-4.4-2.3-6.6-3.7c-3.1-1.9-6.1-4.1-9-6.6c-4.3-3.7-8.3-8.1-11.5-13.2c-1.9-3-3.6-6.3-5-9.9c-1.1-2.9-2.1-6.1-2.8-9.4
				c-0.6-2.9-1.1-6-1.3-9.2c-0.2-2.7-0.3-5.6-0.2-8.6c0.1-4,0.5-8.2,1.2-12.7c0,0,5-0.6,12.5-0.1c3.5,0.2,9.8-1.5,9.8-1.5
				s6.2,4,8.3,4.6c3.1,0.9,8.5-0.2,8.5-0.2s7.3,6.8,10.3,8.8c1.4,1,3.7-1.1,5,0c3.5,2.9,6,9.6,8.9,13.7c1.7,2.4,3.3,5,4.7,7.9
				c1.2,2.4,3.2-0.1,4.1,2.6c1.5,4.3,1.7,14.2,2.5,19.5C635.6,693.1,635.9,702.6,634.9,713.6z"/>
			<g id="XMLID_10543_">
				<path id="XMLID_10552_" class="st1" d="M559.7,629.5c-1,6.1-1.4,9.5-1.3,14.8c0.1,3.1-2.5,7.1-2.1,9.9c0.5,3.4,4.1,7.9,5,10.9
					c1,3.4-0.2,5.6,1.3,8.6c0.6,1.1,3.6,3,4.2,4c1.5,2.5,3.2,4.9,4.9,7.1c1.8,2.2-0.8,5,1.3,6.9c2.6,2.4,10,3.9,12.8,5.8
					c2.6,1.8,5.3,3.3,8,4.7c2.7,1.4,1.2,4,3.9,5c1.4,0.5,7-0.2,8.3,0.2c4.8,1.7,9.3,2.9,13.4,3.8c9.1,2,15.5,2.3,15.5,2.3
					c0-0.4,0.1-0.8,0.1-1.2c-20.3-22.1-60.5-66.9-74.9-82.9C559.9,629.5,559.7,629.5,559.7,629.5z"/>
				<g id="XMLID_10544_">
					<path id="XMLID_10551_" class="st3" d="M631.5,708.3l-67.5-76C564,632.3,590.2,671.4,631.5,708.3z"/>
					<polygon id="XMLID_10550_" class="st3" points="563.5,653.1 587.8,660.2 589.6,662.7 					"/>
					<polygon id="XMLID_10549_" class="st3" points="586.2,635.6 587.8,660.2 589.6,662.7 					"/>
					<polygon id="XMLID_10548_" class="st3" points="599.6,676.5 572.2,670.8 597.7,674.5 					"/>
					<polygon id="XMLID_10547_" class="st3" points="598.8,671.4 602.1,645.4 601.5,674.5 					"/>
					<polygon id="XMLID_10546_" class="st3" points="611,687.2 588.3,688.3 613.3,691 					"/>
					<polygon id="XMLID_10545_" class="st3" points="610.3,688 610.3,665.3 614.1,690.1 					"/>
				</g>
			</g>
			<path id="XMLID_10542_" class="st2" d="M624.9,700.9c-4.2-0.1-9.8,2-17.3-1.4c-7.6-3.4-0.8,12.3,23.9,8.8
				C631.5,708.3,634.2,701.1,624.9,700.9z"/>
			<path id="XMLID_10541_" class="st4" d="M568.4,632.8c0,0,31.4-4.7,41.6,18.8c10.3,23.5,16.8,13.8,13.5,18.6
				c-3.2,4.9-15.3-2.4-24.3-12.9c-8.4-9.8-13.2-12.9-18.4-13.4S568.4,632.8,568.4,632.8z"/>
			<path id="XMLID_10540_" class="st5" d="M578.3,636.1c0,0-0.5,4.1,1.2,4.9c1.7,0.8,16.2,8.1,17.3,4.2
				C598.4,639.4,585.7,635.1,578.3,636.1z"/>
		</g>
	</g>
	<g id="XMLID_10485_">
		<g id="XMLID_10524_">
			<g id="XMLID_10526_">
				<g id="XMLID_10530_">
					<g id="XMLID_130_">
						<g id="XMLID_131_">
							<path id="XMLID_132_" class="st0" d="M179.6,365.8c0,0,2.9-4,7.7-7.7c1.4-1.1,3-2.1,4.7-3.1c1.7-0.9,3.3-3.2,5.3-3.8
								c1.5-0.4,3.5,0.8,5.2,0.7c1.9-0.1,5.9-0.9,8-0.4c1.6,0.4,1.3,2,3,2.8c2.3,1.2,4.7,2.8,7.2,5c0,0-0.7,1.4-2,3.2
								c-0.6,0.8-0.6,2.5-1.4,3.4c-1.1,1.2-3.1,1.8-4.5,3c-1.4,1.1-2.9,2.1-4.6,2.9c-0.8,0.4-0.3,1.4-1.2,1.7
								c-1.5,0.5-4.5,0.1-6.3,0.2c-1.2,0.1-2.4,0.1-3.6-0.1c-1.8-0.2-3.8-0.6-5.8-1.3C187.6,371.2,183.7,369.1,179.6,365.8z"/>
						</g>
					</g>
				</g>
				<path id="XMLID_10527_" class="st1" d="M220.6,359.4c-2-1.8-3.9-3.2-5.9-4.3c-0.9-0.5-0.3-2-1.2-2.4c-1.7-0.7-5-0.2-6.6-0.5
					c-0.9-0.2-1.9-2.5-2.8-2.5c-1.3-0.1-2.4,2.2-3.7,2.4c-2,0.3-3.9,0.8-5.7,1.5c-0.4,0.1-2.7-0.1-3.1,0.1c-2.4,1.1-2.6,2.9-4.5,4.3
					c-4.8,3.7-7.7,7.7-7.7,7.7c0.1,0.1,0.2,0.2,0.4,0.3c10.9-1.8,32.8-5.3,40.6-6.5C220.6,359.5,220.6,359.4,220.6,359.4z"/>
			</g>
			<path id="XMLID_10525_" class="st2" d="M214.6,364c0,0,0.4-2.4-0.5-2.1c-0.9,0.3-10.4,3.2-9.4,4.9
				C206.1,369.4,212.4,366.9,214.6,364z"/>
		</g>
		<g id="XMLID_10505_">
			<path id="XMLID_10521_" class="st0" d="M283.7,364.7c0,0,67.2,29.9,33.1,88.2c0,0-1.5-0.1-6.3-2.2c-1.7-0.7-3.6,1.1-5.5,0.1
				c-1.2-0.7-4.4-4.9-5.7-5.7c-2.2-1.3-3.6,2.1-5.8,0.3c-1.6-1.3-4-7.7-5.5-9.3c-1.6-1.6-3.1-3.2-4.5-5.1c-0.9-1.2-2.5,0.7-3.3-0.6
				c-1.2-2-1.7-7.3-2.7-9.6c-0.8-1.8-1.4-3.7-2-5.6c-0.6-2.1-2.4-0.5-2.7-2.8c-0.3-2,1-7.9,0.9-10.1c0-4-1.8-6.2-0.9-10.8
				C274.2,384.1,279.2,373.8,283.7,364.7z"/>
			<g id="XMLID_10509_">
				<path id="XMLID_10518_" class="st1" d="M316.8,452.9c4.5-7.6,8.2-9.4,8.3-17.6c0-2.8,4-6.1,4.1-8.7c0.1-2.9-2.8-8.9-3.1-11.7
					c-0.4-3.1,1.1-7,0.2-9.8c-0.8-2.4-3.9-3.8-5-6c-1.2-2.3-2.5-4.5-3.9-6.6c-1.1-1.6-0.9-5.6-2.1-7c-1.6-2-4.6-1.3-6.3-3
					c-2.1-2.1-4.2-4-6.3-5.7c-9.8-8-18.9-12.1-18.9-12.1c-0.2,0.3-0.3,0.6-0.4,0.9c9.1,23.3,26.8,70.4,33.1,87.1
					C316.6,452.9,316.8,452.9,316.8,452.9z"/>
				<g id="XMLID_10510_">
					<path id="XMLID_10517_" class="st3" d="M284.8,369.9l29.5,79.5C314.3,449.4,305.7,411.1,284.8,369.9z"/>
					<polygon id="XMLID_10516_" class="st3" points="321,433.4 304.2,420.5 303.5,418 					"/>
					<polygon id="XMLID_10515_" class="st3" points="298,440.2 304.2,420.5 303.5,418 					"/>
					<polygon id="XMLID_10514_" class="st3" points="300,404.3 319.6,417 300.8,406.5 					"/>
					<polygon id="XMLID_10513_" class="st3" points="299.1,408.5 288.6,427.7 297.9,405.2 					"/>
					<polygon id="XMLID_10512_" class="st3" points="294.3,392.5 312.3,398.5 293.7,388.9 					"/>
					<polygon id="XMLID_10511_" class="st3" points="295.1,392.1 288.2,409.8 292.8,389.3 					"/>
				</g>
			</g>
			<path id="XMLID_10508_" class="st4" d="M303,445.9c0,0-30.3-20.2-25.8-45.7c4.3-24.5,9.9-5.8,10,7.2c0,13,0.1,16.3,9.9,21.6
				C306.8,434.3,314.6,448.5,303,445.9z"/>
			<path id="XMLID_10507_" class="st5" d="M293.6,429.7c0,0-4,1.1-2.9,2.2c1.1,1.1,12.2,14,14.2,11.3
				C308,439.2,299.7,431.1,293.6,429.7z"/>
			<path id="XMLID_10506_" class="st5" d="M282,398.9c0,0,3.7,10,2.8,13.3c-1,3.3-3.9,8.9-4.7,1.9S277.1,394.6,282,398.9z"/>
		</g>
		<g id="XMLID_10486_">
			<path id="XMLID_10502_" class="st0" d="M285.3,363.3c0,0-5.2-8.6-9.3-21.2c-0.9-2.7-1.7-5.6-2.4-8.6c-0.7-3-1.3-6.2-1.7-9.5
				c-0.3-2.4-0.5-4.9-0.6-7.5c-0.1-3.7,0-7.4,0.4-11.1c0.7-5.7,2.1-11.4,4.5-16.9c1.4-3.3,3.2-6.5,5.4-9.7c1.8-2.6,3.8-5.1,6.2-7.6
				c2.1-2.1,4.3-4.2,6.9-6.2c2.2-1.7,4.5-3.4,7-5c3.4-2.1,7.1-4.2,11.2-6.1c0,0,3.3,3.8,7.1,10.3c1.8,3,6.8,7.3,6.8,7.3
				s0.1,7.3,0.8,9.5c1,3.1,4.9,6.9,4.9,6.9s-1.5,9.9-1.6,13.5c0,1.7,3,2.4,2.8,4.2c-0.4,4.6-4.6,10.3-6.3,15.1
				c-1,2.7-2.3,5.5-3.9,8.3c-1.3,2.3,1.9,2.6,0.2,4.9c-2.7,3.7-10.8,9.4-14.7,13C302.7,352.4,294.9,358,285.3,363.3z"/>
			<g id="XMLID_10490_">
				<path id="XMLID_10499_" class="st1" d="M312.9,253.9c-5.6,2.6-8.7,4.2-13,7.2c-2.5,1.8-7.3,1.8-9.4,3.7
					c-2.6,2.3-4.3,7.8-6.3,10.3c-2.2,2.7-4.8,3-6.4,5.9c-0.6,1.1-0.4,4.7-1,5.8c-1.3,2.7-2.3,5.3-3.1,8c-0.8,2.8-4.6,2.2-5,4.9
					c-0.5,3.5,2.4,10.4,2.4,13.9c0,3.1,0.2,6.3,0.5,9.3c0.4,3.1-2.6,3.2-2,6c0.3,1.4,4.1,5.7,4.5,7c1.3,4.9,2.8,9.4,4.3,13.2
					c3.4,8.7,6.7,14.1,6.7,14.1c0.4-0.2,0.7-0.4,1.1-0.6c7-29.2,21.6-87.6,26.8-108.4C313,254,312.9,253.9,312.9,253.9z"/>
				<g id="XMLID_10491_">
					<path id="XMLID_10498_" class="st3" d="M287.8,357.5L313,259C313,259,295.2,302.6,287.8,357.5z"/>
					<polygon id="XMLID_10497_" class="st3" points="295.4,270.2 303.1,294.4 302.1,297.3 					"/>
					<polygon id="XMLID_10496_" class="st3" points="322.7,279.3 303.1,294.4 302.1,297.3 					"/>
					<polygon id="XMLID_10495_" class="st3" points="296.2,313.2 285.6,287.3 296.9,310.5 					"/>
					<polygon id="XMLID_10494_" class="st3" points="300,309.7 323.4,297.9 299,313.7 					"/>
					<polygon id="XMLID_10493_" class="st3" points="293.7,328.7 280.2,310.5 291.9,332.7 					"/>
					<polygon id="XMLID_10492_" class="st3" points="292.7,328.6 311.6,315.9 293.1,332.9 					"/>
				</g>
			</g>
			<path id="XMLID_10489_" class="st2" d="M290.2,347.9c-2.3-3.5-7.1-7-8.5-15.2c-1.4-8.2-10.7,6.2,6.1,24.7
				C287.8,357.5,295.2,355.7,290.2,347.9z"/>
			<path id="XMLID_10488_" class="st4" d="M315,263c0,0,21.4,23.4,7.7,45c-13.7,21.7-2.1,21.6-7.9,21.6c-5.8,0-6.5-14-2.9-27.3
				c3.4-12.5,3.3-18.2,0.8-22.7C310.2,275,315,263,315,263z"/>
			<path id="XMLID_10487_" class="st5" d="M317.8,273c0,0-3.7,1.9-3.4,3.7c0.3,1.9,2.3,18,6.2,16.7
				C326.3,291.5,322.8,278.6,317.8,273z"/>
		</g>
	</g>
	<g id="XMLID_10471_">
		<g id="XMLID_10473_">
			<g id="XMLID_10477_">
				<g id="XMLID_114_">
					<g id="XMLID_115_">
						<path id="XMLID_116_" class="st0" d="M865.3,676.2c0,0-1.7-4.6-2.1-10.7c-0.1-1.8-0.1-3.7,0.1-5.6c0.2-2-0.8-4.6-0.2-6.5
							c0.5-1.5,2.6-2.5,3.5-3.9c1-1.7,2.6-5.4,4.2-6.8c1.2-1.1,2.4,0,4-0.9c2.3-1.3,5-2.4,8.1-3.1c0,0,0.8,1.3,1.6,3.5
							c0.4,1,1.7,1.9,2,3.1c0.4,1.6-0.2,3.5-0.1,5.4c0.1,1.7,0.1,3.6-0.2,5.4c-0.1,0.9,1,1.1,0.8,2c-0.4,1.5-2.4,3.8-3.3,5.3
							c-0.6,1-1.3,2-2.1,3c-1.2,1.4-2.6,2.8-4.4,4.1C874.3,672.5,870.3,674.6,865.3,676.2z"/>
					</g>
				</g>
			</g>
			<path id="XMLID_10474_" class="st1" d="M882.9,638.6c-2.6,0.6-4.9,1.5-6.8,2.5c-0.9,0.5-1.8-0.9-2.6-0.4c-1.6,1-3,4-4.1,5.2
				c-0.6,0.7-3.1,0.2-3.6,0.9c-0.8,1,0.5,3.3-0.1,4.4c-0.9,1.8-1.5,3.7-1.9,5.6c-0.1,0.4-1.6,2.2-1.7,2.6c-0.4,2.6,0.9,3.8,1.1,6.2
				c0.4,6.1,2.1,10.7,2.1,10.7c0.1,0,0.3-0.1,0.4-0.1c4.6-10.1,13.9-30.2,17.3-37.3C883,638.6,882.9,638.6,882.9,638.6z"/>
		</g>
		<path id="XMLID_10472_" class="st2" d="M883.4,646.1c0,0-1.8-1.6-2-0.7c-0.2,0.9-3.2,10.4-1.2,10.6
			C883.1,656.2,884.6,649.6,883.4,646.1z"/>
	</g>
	<g id="XMLID_10452_">
		<path id="XMLID_10468_" class="st0" d="M813.4,525.2c0,0,62.4-39,91.6,21.9c0,0-0.9,1.2-5.4,4c-1.5,1-1.1,3.6-3,4.6
			c-1.3,0.7-6.5,0.9-7.9,1.5c-2.3,1-0.3,4.2-3,5c-2,0.6-8.6-1-10.8-0.6c-2.2,0.4-4.4,0.7-6.7,0.9c-1.5,0.1-0.8,2.4-2.4,2.4
			c-2.3-0.1-7.1-2.7-9.5-3.1c-1.9-0.4-3.8-0.9-5.8-1.5c-2-0.7-1.8,1.7-3.8,0.7c-1.8-0.9-6-5.2-7.8-6.4c-3.3-2.2-6.2-2-9.5-5.3
			C824.2,543.9,818.5,534.1,813.4,525.2z"/>
		<g id="XMLID_10456_">
			<path id="XMLID_10465_" class="st1" d="M905,547.1c-3.8-8-3.3-12-10-16.7c-2.3-1.6-2.8-6.7-4.9-8.3c-2.4-1.8-9-2.7-11.4-3.9
				c-2.8-1.4-5.2-4.8-8-5.6c-2.4-0.7-5.3,1.1-7.8,0.8c-2.6-0.3-5.1-0.5-7.7-0.5c-1.9,0-5.1-2.4-7-2.2c-2.5,0.2-3.6,3.1-6,3.5
				c-2.9,0.6-5.7,1.3-8.3,2c-12.1,3.6-20.6,8.9-20.6,8.9c0.2,0.3,0.4,0.6,0.5,0.9c24.4,5.5,73.3,17.1,90.8,21.3
				C904.9,547.2,905,547.1,905,547.1z"/>
			<g id="XMLID_10457_">
				<path id="XMLID_10464_" class="st3" d="M818.3,527.2l82.4,20C900.7,547.3,864.2,532.9,818.3,527.2z"/>
				<polygon id="XMLID_10463_" class="st3" points="891.2,532.7 871.1,539.4 868.7,538.6 				"/>
				<polygon id="XMLID_10462_" class="st3" points="883.9,555.6 871.1,539.4 868.7,538.6 				"/>
				<polygon id="XMLID_10461_" class="st3" points="855.3,533.8 876.8,524.7 857.6,534.4 				"/>
				<polygon id="XMLID_10460_" class="st3" points="858.3,536.9 868.4,556.4 854.9,536.1 				"/>
				<polygon id="XMLID_10459_" class="st3" points="842.4,531.9 857.4,520.4 839.1,530.4 				"/>
				<polygon id="XMLID_10458_" class="st3" points="842.5,531 853.3,546.7 838.9,531.4 				"/>
			</g>
		</g>
		<path id="XMLID_10455_" class="st4" d="M891.5,554.7c0,0-33.7,13.8-52.3-4.2c-17.9-17.3,0.7-11.5,11.5-4.3s13.5,9,23.4,3.9
			S900.2,546.5,891.5,554.7z"/>
		<path id="XMLID_10454_" class="st5" d="M872.8,553.3c0,0-1.3,3.9,0.2,3.6c1.6-0.3,18.5-2.3,17.3-5.5
			C888.7,546.7,877.4,549.1,872.8,553.3z"/>
		<path id="XMLID_10453_" class="st5" d="M840.8,545.7c0,0,10.4,2.5,12.6,5.2c2.2,2.6,5.2,8.2-1.1,4.9
			C846,552.5,834.5,547.4,840.8,545.7z"/>
	</g>
	<g id="XMLID_10433_">
		<path id="XMLID_10449_" class="st0" d="M787.1,442c0,0-6.7-0.3-15.3-2.8c-1.8-0.5-3.7-1.2-5.7-1.9c-2-0.7-4-1.6-6-2.6
			c-1.5-0.7-3-1.6-4.4-2.5c-2.1-1.3-4.1-2.8-6.1-4.4c-2.9-2.5-5.5-5.4-7.7-8.9c-1.3-2-2.4-4.3-3.4-6.7c-0.8-2-1.4-4.1-1.9-6.3
			c-0.4-1.9-0.7-4-0.9-6.2c-0.1-1.8-0.2-3.8-0.1-5.8c0.1-2.7,0.3-5.5,0.8-8.5c0,0,3.4-0.4,8.4-0.1c2.3,0.1,6.6-1,6.6-1
			s4.1,2.7,5.6,3.1c2.1,0.6,5.7-0.1,5.7-0.1s4.9,4.6,6.9,5.9c1,0.7,2.5-0.8,3.4,0c2.4,2,4,6.4,6,9.2c1.1,1.6,2.2,3.4,3.2,5.3
			c0.8,1.6,2.2-0.1,2.8,1.7c1,2.9,1.2,9.5,1.7,13.1C787.6,428.2,787.8,434.6,787.1,442z"/>
		<g id="XMLID_10437_">
			<path id="XMLID_10446_" class="st1" d="M736.5,385.5c-0.7,4.1-0.9,6.4-0.8,10c0,2.1-1.7,4.7-1.4,6.6c0.3,2.3,2.8,5.3,3.4,7.4
				c0.7,2.3-0.1,3.8,0.9,5.8c0.4,0.7,2.4,2,2.8,2.7c1,1.7,2.1,3.3,3.3,4.7c1.2,1.5-0.5,3.4,0.9,4.7c1.8,1.6,6.7,2.6,8.6,3.9
				c1.8,1.2,3.6,2.2,5.4,3.2c1.8,1,0.8,2.7,2.6,3.4c0.9,0.4,4.7-0.2,5.6,0.2c3.2,1.1,6.3,2,9,2.6c6.1,1.4,10.4,1.6,10.4,1.6
				c0-0.3,0-0.6,0.1-0.8c-13.6-14.9-40.7-45-50.3-55.7C736.6,385.4,736.5,385.5,736.5,385.5z"/>
			<g id="XMLID_10438_">
				<path id="XMLID_10445_" class="st3" d="M784.8,438.4l-45.4-51.1C739.4,387.3,757,413.6,784.8,438.4z"/>
				<polygon id="XMLID_10444_" class="st3" points="739,401.3 755.4,406.1 756.6,407.8 				"/>
				<polygon id="XMLID_10443_" class="st3" points="754.4,389.5 755.4,406.1 756.6,407.8 				"/>
				<polygon id="XMLID_10442_" class="st3" points="763.3,417.1 744.9,413.2 762,415.7 				"/>
				<polygon id="XMLID_10441_" class="st3" points="762.8,413.6 765,396.1 764.6,415.7 				"/>
				<polygon id="XMLID_10440_" class="st3" points="771,424.3 755.7,425 772.5,426.8 				"/>
				<polygon id="XMLID_10439_" class="st3" points="770.5,424.8 770.6,409.5 773.1,426.2 				"/>
			</g>
		</g>
		<path id="XMLID_10436_" class="st2" d="M780.4,433.5c-2.8-0.1-6.6,1.3-11.6-1c-5.1-2.3-0.6,8.3,16.1,5.9
			C784.8,438.4,786.6,433.6,780.4,433.5z"/>
		<path id="XMLID_10435_" class="st4" d="M742.4,387.7c0,0,21.1-3.2,28,12.6c6.9,15.8,11.3,9.3,9.1,12.5c-2.2,3.3-10.3-1.6-16.3-8.7
			c-5.7-6.6-8.9-8.7-12.4-9C747.3,394.9,742.4,387.7,742.4,387.7z"/>
		<path id="XMLID_10434_" class="st5" d="M749,389.9c0,0-0.3,2.7,0.8,3.3c1.1,0.5,10.9,5.5,11.6,2.8
			C762.5,392.1,754,389.2,749,389.9z"/>
	</g>
</g>
</svg>
