<?xml version="1.0" encoding="utf-8"?>
<!-- Generator: Adobe Illustrator 19.0.0, SVG Export Plug-In . SVG Version: 6.00 Build 0)  -->
<svg version="1.1" id="Layer_1" xmlns="http://www.w3.org/2000/svg" xmlns:xlink="http://www.w3.org/1999/xlink" x="0px" y="0px"
	 viewBox="0 0 1000 990.3" style="enable-background:new 0 0 1000 990.3;" xml:space="preserve">
<style type="text/css">
	.st0{fill:#EB1716;}
	.st1{fill:#C60A0A;}
	.st2{fill:#F46B47;}
	.st3{fill:#F7845C;}
	.st4{fill:#F2A579;}
	.st5{fill:#C80200;}
	.st6{fill:#E30200;}
	.st7{fill:#EDBF91;}
	.st8{fill:#EFB173;}
	.st9{fill:#FFFFFF;}
</style>
<g id="XMLID_10_">
	<g id="XMLID_10313_">
		<g id="XMLID_14757_">
			<path id="XMLID_14761_" class="st0" d="M696.8,230.3c11.3-2.5,20.1-10.9,25.1-17.6c5-6.6,9.4-18,5.7-34.7
				c-3.7-16.6-15.3-24.3-30.9-28.3c-15.7-3.9-27.8,3.5-38.7,14.1c-10.9,10.7-13.4,32.5,0.1,51.2
				C671.5,233.8,696.8,230.3,696.8,230.3z"/>
			<path id="XMLID_14758_" class="st1" d="M653.7,218.2c6.3,8.8,15.9,14.5,27.8,16.7c8.7,1.6,15.7,0.7,16,0.6l0.2,0l0.2,0
				c13.9-3.1,23.6-13.5,28.2-19.5c2.8-3.6,4.9-7.8,6.2-12.4c2.4-8,2.5-16.9,0.4-26.6c-2-9-6.3-16.3-12.7-21.7
				c-5.6-4.7-12.8-8.1-22.1-10.5c-8.4-2.1-16.6-1.5-24.5,1.9c-6.4,2.7-12.5,7-19.2,13.6c-4,4-7.1,9.2-8.9,15.2l5,1.5l-5-1.5
				c-2,6.5-2.3,13.8-1.1,21C645.7,204.1,648.9,211.4,653.7,218.2z M650.4,176.8c1.5-5.1,4.1-9.6,7.5-12.9
				c10.9-10.7,23.1-18,38.7-14.1c15.6,3.9,27.2,11.6,30.9,28.3c2.2,9.7,1.6,17.7-0.3,23.9c-1.3,4.4-3.3,8-5.4,10.7
				c-5.1,6.6-13.9,15.1-25.1,17.6c0,0-25.3,3.5-38.8-15.2C648.8,202.3,647,188,650.4,176.8z"/>
		</g>
		<path id="XMLID_14756_" class="st2" d="M656.7,208.8c2.3,5,11.6,15.7,23.7,19.2c12,3.4,27.1-4.4,27.1-4.4
			c9.1-6.4,13.5-13.4,12.6-15.2c-0.9-1.8-2.5-3.4-0.7-3.6c1.8-0.2,6.4-1,6.7-12.1c0.3-11.1-6.9-24.5-9.6-28.9
			c-2.7-4.4-7.4-5.3-9-4.2c-1.5,1.1-2.7,1.2-3-0.3c-0.3-1.5-1-5.2-5.8-7.5c-4.8-2.3-24.6-1.4-38.1,11.3
			c-13.5,12.7-8.4,31.4-7.7,33.4c0.7,2,5.3,2,6,3.2C659.6,200.9,654.3,203.8,656.7,208.8z"/>
		<path id="XMLID_14755_" class="st3" d="M660.3,199.4c0.3,1.1-0.4,2-1.1,2.9c-1,1.3-2.2,3-1.6,5.1c0.1,0.2,0.2,0.5,0.3,0.7
			c1,2.1,3.6,5.9,7.9,9.7c3.3,3,8.5,6.9,14.9,8.7c5.9,1.7,12.6,0.4,17.3-0.9c4.7-1.4,8.2-3.1,8.8-3.4c3.7-2.6,7-5.6,9.3-8.5
			c2.1-2.7,2.7-4.4,2.7-4.9c-0.2-0.4-0.4-0.8-0.7-1.2c-0.4-0.6-0.7-1.1-0.9-1.7c-0.2-0.8,0-1.4,0.2-1.7c0.4-0.5,0.9-0.8,1.8-0.9
			c1.3-0.1,5.2-0.6,5.4-10.8c0.1-3.2-0.5-6.9-1.7-11c-2.5-8.4-6.8-15.7-7.7-17.1c-1.8-3-4.4-3.7-5.2-3.9c-0.9-0.2-1.6-0.1-1.7,0.1
			c-1.3,1-2.5,1.3-3.5,1c-0.8-0.3-1.3-0.9-1.6-1.7c0-0.1-0.1-0.3-0.1-0.4c-0.1-0.4-0.1-0.7-0.3-1.2c-0.7-2.3-2.3-4.1-4.7-5.2
			c-2.1-1-8-1.3-14.9,0.1c-3.9,0.8-7.6,2.1-11,3.7c-4,1.9-7.6,4.3-10.6,7.2c-12.8,11.9-8,29.5-7.4,31.5c0.1,0.2,0.1,0.3,0.1,0.4
			c0,0.1,0.2,0.3,0.7,0.5c0.6,0.3,1.3,0.5,2,0.7c1.4,0.4,2.6,0.8,3.2,1.7C660.2,199.1,660.3,199.3,660.3,199.4z"/>
		<path id="XMLID_14754_" class="st4" d="M674.4,193.3c1.9,3.6-4.5,6.4-7.6,7.7c-3.1,1.3-6,4.8-4.8,7.6c1.1,2.4,4.2,5.4,6.9,8.2
			c4.8,4.9,14.8,6.7,18.4,7c9.9,0.8,16.8-3.4,22.2-6.6c5.5-3.2,6.5-8.5,5.9-10.5c-0.6-2-4.1-4.4-6.8-4.7c-2.7-0.4-5.1-0.9-5.9-2.5
			c-0.9-1.6,0.8-3.5,3.6-2.5c2.7,1.1,13.9,3.8,15.1,1.4c1.3-2.4,1.2-6.7,1.3-9.3c0.2-4-1.2-6.7-2.9-10.8c-2.3-5.5-1.9-3.3-4-7.5
			c-2-4.1-4.3-7.4-7.9-6.6c-1.5,0.4-5.3,2.2-8.1,6.5c-2.7,4.3-3.8,4.6-4.5,2.8c-0.7-1.8,3.4-7.5,3.6-10.4c0.2-2.9-1-4.9-5.4-7.4
			c-3-1.7-13-0.2-17.8,1.8c-4.8,1.9-14.4,10.4-16.5,13.5c-2.1,3.1-2.9,8.9-2.8,12.5c0.1,3.6-0.8,7.7,2.4,10.3
			c3.2,2.6,9.7-0.7,12.5-1.3C674.1,192,674.4,193.3,674.4,193.3z"/>
		<g id="XMLID_14752_">
			<path id="XMLID_14753_" class="st5" d="M673,205c3.5-1.9,10.7-4.2,8.6-7.5c-1-1.5-3.1-0.8-8,1.5c-4.8,2.3-12.7,6.3-9.7,10.4
				c2.9,4.1,4.5,6,8.6,8.8c4.1,2.7,20.8,5.3,24.8,3.8c4-1.5,17.7-7.3,16.7-13.5c-1-6.2-7.8-4.2-9.5-5.9c-1.7-1.7-8.9-6.4-10-4.4
				c-1.1,2,6.7,4.8,7.6,7.2c0.9,2.3-2,7.8-5.6,8.2c-3.6,0.4-16.9-0.3-19.5-1.6C674.3,210.6,669.4,206.9,673,205z"/>
		</g>
		<g id="XMLID_14750_">
			<path id="XMLID_14751_" class="st6" d="M671,207.5c-0.2-0.8-0.3-2.2,1.6-3.2c0.7-0.4,1.6-0.8,2.4-1.2c2.8-1.3,6.5-3,6-4.7
				c0-0.1-0.1-0.3-0.2-0.4c-0.2-0.3-0.5-0.6-1.7-0.3c-1.2,0.3-2.9,1-5.2,2.1c-2.3,1.1-5,2.5-7.1,4c-2.2,1.7-3.2,3.2-2.8,4.4
				c0.1,0.3,0.2,0.5,0.4,0.8c2.8,4,4.4,5.9,8.4,8.6c1.8,1.2,6.5,2.5,12.1,3.4c5.5,0.8,10.3,1,11.9,0.3c7.9-3,16.9-8.1,16.2-12.6
				c0-0.3-0.1-0.6-0.2-0.8c-0.8-2.8-3.3-3.1-5.6-3.5c-1.4-0.2-2.7-0.4-3.4-1.2c-0.6-0.6-2.3-1.9-4.2-3c-2-1.2-3.6-1.8-4.4-1.7
				c0,0-0.2,0-0.2,0.1c0,0,0,0,0,0.1c0.2,0.7,2.1,1.9,3.4,2.7c1.9,1.2,3.8,2.4,4.2,3.7c0,0.1,0,0.1,0.1,0.2v0
				c0.4,1.5-0.1,3.7-1.4,5.7c-1.3,2-3.1,3.3-4.9,3.5c-3.7,0.4-17.1-0.3-19.9-1.7C674.9,211.8,671.7,209.7,671,207.5z"/>
		</g>
		<path id="XMLID_14749_" class="st5" d="M690.8,165.8c0.2,4.1-4.8,7.1-4,10.1c0.7,3,3,3.3,6.2-3.2c3.2-6.5,5.7-13.7-1.3-15
			c-7.1-1.3-13.1-1.4-20.4,4.1c-7.3,5.6-13,9.3-13.6,17.7c-0.6,8.4-1.9,11,1.7,13.2c3.6,2.2,9.3-1.6,12.4-2.1
			c3.1-0.6,5.5-0.9,5.9-3.3c0.4-2.6-5.9-1.9-9.3-1.4c-3.4,0.5-3.4-2.4-1.9-6.5c1.5-4.1,7.5-8.9,13.9-11.8
			C686.9,164.7,690.6,161.7,690.8,165.8z"/>
		<path id="XMLID_14748_" class="st6" d="M691.5,164.6L691.5,164.6c0.1,0.3,0.2,0.7,0.2,1.1c0.1,2.3-1.2,4.3-2.4,6
			c-1,1.5-1.9,2.8-1.6,3.9c0,0.1,0,0.2,0.1,0.3c0.2,0.7,0.5,1.1,0.8,1.1c0.1,0,1.4,0,3.8-4.8c1.7-3.3,3.8-8.1,2.9-11.1
			c-0.4-1.5-1.6-2.4-3.7-2.8c-2.9-0.5-6.4-1-9.8-0.5c-3.4,0.5-6.6,2-9.9,4.5c-0.5,0.4-1,0.8-1.6,1.2c-6.5,5-11.2,8.5-11.7,16
			c-0.1,1.8-0.3,3.3-0.4,4.6c-0.3,2.7-0.5,4.5-0.1,5.7c0.2,0.9,0.8,1.5,1.8,2.1c2.2,1.3,5.6,0,8.3-1.1c1.3-0.5,2.5-1,3.5-1.2l0.3,0
			c3.1-0.6,4.7-0.9,5-2.5c0-0.1,0-0.2,0-0.2c0-0.1-0.3-0.7-2.9-0.7c-1.8,0-3.9,0.3-5.5,0.5c-2.6,0.4-3.4-1-3.7-1.9
			c-0.4-1.3-0.1-3.2,0.9-5.7c0.8-2.1,2.6-4.4,5.4-6.7c2.6-2.1,5.8-4.1,9-5.6c1.4-0.6,2.6-1.2,3.7-1.8c3.1-1.5,5.1-2.5,6.5-1.9
			C690.9,163.4,691.3,163.9,691.5,164.6z"/>
		<path id="XMLID_14747_" class="st5" d="M698.5,191c0.1,3.2,5.4,3.3,7.8,4.8c2.4,1.5,6.3,1.2,8.4,1.8c2,0.6,6.5-0.7,6.2-3.7
			c-0.2-3,1.4-6.8-0.2-9.4c-1.7-2.7-1.3-1.1-3.8-7.7c-2.5-6.6-4.9-11.2-8.4-10.5c-3.6,0.7-9.5,8.5-11.5,12c-2,3.5-2,6.4,0.2,5.2
			c2.2-1.2,5.9-8.6,8.4-8.6c2.5-0.1,6.1,2.8,5.5,5.9c-0.6,3.1,4.9,12.5-3.8,11.4C706.7,192,698.4,187.8,698.5,191z"/>
		<path id="XMLID_14746_" class="st6" d="M702.1,191c-2.1-0.6-2.7-0.4-2.8-0.3c0,0-0.1,0,0,0.2c0,0.2,0,0.3,0.1,0.4
			c0.4,1.2,2.3,1.8,4.1,2.4c1.2,0.4,2.4,0.7,3.2,1.3c1.4,0.9,3.5,1.1,5.3,1.3c1.1,0.1,2.1,0.2,2.9,0.4c1.1,0.3,3.1,0,4.3-1
			c0.7-0.5,1-1.2,0.9-1.9c-0.1-1.2,0.1-2.4,0.3-3.6c0.2-1.6,0.4-3.2,0-4.5c-0.1-0.3-0.2-0.7-0.4-0.9c-0.4-0.7-0.7-1.1-1-1.4
			c-0.7-1-1.1-1.5-2.9-6.4c-1-2.6-2.3-5.8-3.7-7.8c-1.7-2.3-3-2.3-3.8-2.2c-3.1,0.6-8.9,8-11,11.6c-1.3,2.2-1.5,3.7-1.4,4.2
			c0,0,0,0,0,0c0.1,0,0.2-0.1,0.4-0.2c0.8-0.4,2-2.1,3.1-3.6c1.9-2.6,3.8-5.1,5.6-5.1c2.6-0.1,5.5,2.1,6.2,4.7
			c0.2,0.7,0.3,1.5,0.1,2.2c-0.1,0.7,0.2,2.1,0.5,3.4c0.6,2.7,1.3,5.7-0.3,7.5c-1,1.1-2.6,1.5-4.9,1.2c-0.2,0-0.4-0.1-1.2-0.4
			C705,192.1,703.5,191.4,702.1,191z"/>
		<path id="XMLID_14745_" class="st7" d="M683.4,197c0.3,0.8-0.5,2.2-2.9,6.7c-2.3,4.4,6.9,3.5,12.2,3.2c5.3-0.3,6-3.2,2.8-4.8
			c0,0-4.2-3.6-2.4-5.7c1.4-1.6,12,3.4,16.6,5.9c4.6,2.4,5.1,0,5.1-2c0.1-2.1-12.4-3.8-15.4-5.8c-1.9-1.2-4.5-3.1-3.4-4.4
			c1.7-2.2,5.6-1.3,8.1-1.6c2.5-0.4,2.3-2.7,1.4-5.7c-1.3-4.5-5.8,0.1-7.5,2.2c-1.7,2.1-4.1,0.1-5.1-2c-1-2.1,8.7-13.2,10.2-16
			c1.5-2.8-2-4.2-3.5-3.8c-2.2,0.6-5.2,11.6-9.2,16.1c-2,2.3-6.7,2.4-7-0.7c-0.3-3.1,1.6-5.8-1.5-6.1c-3.4-0.4-10.2,6.9-9.6,8.8
			c0.7,1.9,5.2,2.4,7.4,3.7c2.6,1.5,1.8,3.4,0.4,5.4c-0.9,1.3-14.6,4.6-16.3,5.5c-1.7,0.9-1.9,1.7-0.2,3.9
			c1.7,2.3,13.4-3.3,16.2-4.8C682.7,193.5,683.4,197,683.4,197z"/>
		<path id="XMLID_14744_" class="st3" d="M684.2,160.7c-0.2-1.9-1.4-1.6-2.3-1.4c-0.8,0.2-1.3,0.8-0.8,2.6c0.3,0.9,0.9,1.5,1.4,2
			c0.5,0.4,1.1,0.2,1.3-0.5C684.1,162.7,684.3,161.7,684.2,160.7z"/>
		<path id="XMLID_14743_" class="st3" d="M690.9,160.8c0.6-1.4-0.3-1.6-1-1.9c-0.7-0.2-1.3,0-1.6,1.4c-0.1,0.7,0,1.4,0.2,1.9
			c0.2,0.5,0.7,0.6,1.1,0.2C690,162.1,690.6,161.5,690.9,160.8z"/>
		<path id="XMLID_14742_" class="st3" d="M694.3,163.1c0.9-0.7,0.4-1.2,0-1.6c-0.4-0.4-0.9-0.4-1.6,0.4c-0.4,0.4-0.5,0.9-0.6,1.3
			c-0.1,0.4,0.3,0.6,0.6,0.6C693.2,163.7,693.8,163.5,694.3,163.1z"/>
		<path id="XMLID_14741_" class="st8" d="M694.1,163c0.7-0.5,0.3-1,0-1.3c-0.3-0.3-0.7-0.3-1.2,0.3c-0.3,0.3-0.4,0.7-0.5,1.1
			c0,0.3,0.2,0.5,0.5,0.4C693.2,163.4,693.7,163.3,694.1,163z"/>
		<path id="XMLID_14740_" class="st3" d="M677.6,166.4c0-0.8-0.2-1.8-0.6-2.7c-0.9-1.7-1.9-1-2.6-0.5c-0.7,0.5-1,1.3,0.2,2.7
			c0.6,0.7,1.4,1.2,2,1.4C677.1,167.5,677.6,167.1,677.6,166.4z"/>
		<path id="XMLID_14739_" class="st8" d="M677.2,165.7c0-0.6-0.1-1.4-0.5-2c-0.7-1.3-1.4-0.8-2-0.4c-0.6,0.4-0.7,1,0.1,2.1
			c0.5,0.5,1,0.9,1.5,1C676.8,166.6,677.2,166.2,677.2,165.7z"/>
		<path id="XMLID_14738_" class="st3" d="M671.1,170.7c-0.2-0.7-0.5-1.7-1.1-2.5c-1.2-1.5-2-0.7-2.7,0c-0.6,0.6-0.7,1.4,0.7,2.6
			c0.7,0.6,1.6,0.9,2.2,1C670.8,171.8,671.3,171.3,671.1,170.7z"/>
		<path id="XMLID_14737_" class="st8" d="M670.7,170.5c-0.1-0.6-0.4-1.3-0.9-1.9c-0.9-1.1-1.6-0.5-2,0c-0.5,0.5-0.5,1.1,0.5,2
			c0.5,0.5,1.2,0.7,1.7,0.7C670.4,171.3,670.8,170.9,670.7,170.5z"/>
		<path id="XMLID_14736_" class="st3" d="M666.1,175.6c-0.3-0.7-0.8-1.6-1.5-2.3c-1.4-1.3-2.1-0.3-2.6,0.4c-0.5,0.7-0.5,1.5,1.1,2.5
			c0.8,0.5,1.7,0.6,2.3,0.6C666.1,176.8,666.4,176.3,666.1,175.6z"/>
		<path id="XMLID_14735_" class="st8" d="M665.7,175.5c-0.2-0.6-0.6-1.3-1.2-1.8c-1.1-1-1.7-0.2-2.1,0.3c-0.4,0.6-0.4,1.2,0.9,2
			c0.6,0.4,1.3,0.5,1.9,0.5C665.7,176.5,665.9,176,665.7,175.5z"/>
		<path id="XMLID_14734_" class="st3" d="M663.2,181.7c-0.5-0.4-1.2-0.8-2-1c-1.5-0.3-1.6,0.7-1.7,1.4c-0.1,0.7,0.3,1.3,1.8,1.3
			c0.8,0,1.4-0.2,1.9-0.5C663.6,182.6,663.6,182,663.2,181.7z"/>
		<path id="XMLID_14733_" class="st3" d="M663.1,187.8c-0.6-0.1-1.3-0.1-2,0.1c-1.3,0.4-1,1.2-0.7,1.8c0.2,0.6,0.8,0.9,2,0.2
			c0.6-0.3,1-0.8,1.3-1.2C663.8,188.3,663.6,187.9,663.1,187.8z"/>
		<path id="XMLID_14732_" class="st3" d="M672.8,214.4c-0.8,1.7,0.3,2.1,1.1,2.4c0.8,0.3,1.6,0,2.1-1.7c0.2-0.9,0.1-1.7,0-2.4
			c-0.2-0.6-0.8-0.8-1.3-0.4C673.9,212.9,673.2,213.6,672.8,214.4z"/>
		<path id="XMLID_14731_" class="st3" d="M667.2,210.8c0.3,0.6,0.9,0.9,2.1,0.1c0.6-0.4,1-1,1.2-1.4c0.2-0.4-0.1-0.9-0.6-0.9
			c-0.6,0-1.4,0-2.1,0.3C666.5,209.3,666.9,210.2,667.2,210.8z"/>
		<path id="XMLID_14730_" class="st8" d="M667.5,210.6c0.3,0.5,0.7,0.6,1.6,0.1c0.4-0.3,0.7-0.7,0.9-1.1c0.1-0.3-0.1-0.7-0.5-0.7
			c-0.4,0-1,0-1.5,0.2C666.9,209.5,667.3,210.1,667.5,210.6z"/>
		<path id="XMLID_14727_" class="st9" d="M667.6,210.1c0.1,0.2,0.3,0.3,0.7,0c0.2-0.1,0.3-0.3,0.4-0.5c0.1-0.1,0-0.3-0.2-0.3
			c-0.2,0-0.5,0-0.7,0.1C667.3,209.6,667.5,209.9,667.6,210.1z"/>
		<path id="XMLID_14726_" class="st3" d="M668.9,205.4c0.4,0.2,0.8,0.2,1.2,0.2c0.3,0,0.5-0.3,0.3-0.6c-0.2-0.3-0.4-0.8-0.8-1.1
			c-0.7-0.6-1.1-0.1-1.3,0.3C668.1,204.6,668.1,205,668.9,205.4z"/>
		<path id="XMLID_14725_" class="st8" d="M669.1,205.2c0.3,0.2,0.6,0.2,0.9,0.1c0.2,0,0.3-0.2,0.2-0.5c-0.1-0.2-0.3-0.6-0.6-0.8
			c-0.5-0.4-0.8,0-0.9,0.2C668.4,204.6,668.5,204.9,669.1,205.2z"/>
		<path id="XMLID_14722_" class="st9" d="M669.1,204.7c0.2,0.1,0.3,0.1,0.5,0.1c0.1,0,0.2-0.1,0.1-0.2c-0.1-0.1-0.2-0.3-0.3-0.4
			c-0.3-0.2-0.4,0-0.5,0.1C668.8,204.4,668.8,204.6,669.1,204.7z"/>
		<path id="XMLID_14721_" class="st3" d="M680,216.8c-0.9,1.7,0.3,2.1,1.1,2.4c0.8,0.3,1.6,0,2-1.7c0.3-0.9,0.1-1.8,0-2.4
			c-0.2-0.6-0.8-0.8-1.3-0.4C681.1,215.2,680.4,215.9,680,216.8z"/>
		<path id="XMLID_14720_" class="st8" d="M680.4,216.8c-0.7,1.3,0.2,1.6,0.8,1.9c0.6,0.2,1.2,0,1.6-1.3c0.2-0.7,0.1-1.4,0-1.9
			c-0.1-0.5-0.6-0.6-1-0.3C681.3,215.5,680.7,216.1,680.4,216.8z"/>
		<path id="XMLID_14717_" class="st9" d="M680.9,218c0.2,0.1,0.4,0,0.6-0.5c0.1-0.2,0-0.5,0-0.7c0-0.2-0.2-0.2-0.4-0.1
			c-0.2,0.1-0.4,0.3-0.5,0.6C680.3,217.8,680.6,217.9,680.9,218z"/>
		<path id="XMLID_14716_" class="st3" d="M687.9,218.8c-0.2,1.9,1,1.9,1.8,1.9c0.9,0,1.5-0.5,1.4-2.3c-0.1-0.9-0.5-1.7-0.9-2.2
			c-0.4-0.5-1-0.4-1.4,0.1C688.5,216.9,688,217.8,687.9,218.8z"/>
		<path id="XMLID_14715_" class="st8" d="M688.3,218.8c-0.2,1.4,0.7,1.4,1.4,1.4c0.6,0,1.1-0.4,1-1.7c0-0.7-0.3-1.3-0.6-1.6
			c-0.3-0.4-0.8-0.3-1,0.1C688.7,217.4,688.4,218,688.3,218.8z"/>
		<path id="XMLID_14689_" class="st9" d="M688.4,219.3c-0.1,0.5,0.2,0.5,0.5,0.5c0.2,0,0.4-0.1,0.4-0.6c0-0.2-0.1-0.4-0.2-0.6
			c-0.1-0.1-0.3-0.1-0.4,0C688.5,218.8,688.4,219.1,688.4,219.3z"/>
		<path id="XMLID_14688_" class="st3" d="M695.3,219c0.1,1.9,1.3,1.6,2.2,1.5c0.8-0.2,1.3-0.8,0.9-2.5c-0.3-0.9-0.8-1.6-1.3-2
			c-0.4-0.4-1.1-0.2-1.3,0.4C695.5,217,695.2,218,695.3,219z"/>
		<path id="XMLID_14687_" class="st8" d="M695.5,219c0.1,1.5,1.1,1.3,1.7,1.2c0.7-0.1,1.1-0.6,0.7-2c-0.2-0.7-0.6-1.2-1-1.6
			c-0.4-0.3-0.9-0.2-1,0.3C695.7,217.4,695.5,218.2,695.5,219z"/>
		<path id="XMLID_14684_" class="st9" d="M695.9,219.3c0,0.6,0.4,0.5,0.6,0.4c0.2,0,0.4-0.2,0.2-0.7c-0.1-0.3-0.2-0.5-0.4-0.6
			c-0.1-0.1-0.3-0.1-0.4,0.1C696,218.7,695.9,219,695.9,219.3z"/>
		<path id="XMLID_14683_" class="st3" d="M718.8,190.7c0-0.7-0.4-1.3-1.9-1.2c-0.8,0-1.4,0.3-1.9,0.7c-0.4,0.3-0.4,0.9,0,1.2
			c0.5,0.3,1.3,0.7,2.1,0.9C718.8,192.5,718.8,191.5,718.8,190.7z"/>
		<path id="XMLID_14682_" class="st3" d="M718.8,184.5c-0.2-0.8-0.9-1.3-2.6-0.7c-0.9,0.3-1.5,0.9-1.9,1.4c-0.4,0.5-0.1,1.1,0.5,1.3
			c0.7,0.2,1.7,0.4,2.7,0.2C719.4,186.5,719.1,185.4,718.8,184.5z"/>
		<path id="XMLID_14681_" class="st3" d="M716.3,179.2c-0.3-0.7-0.8-1.1-2.2-0.5c-0.7,0.3-1.1,0.9-1.4,1.4c-0.3,0.5,0,1,0.5,1.1
			c0.6,0.2,1.4,0.3,2.2,0.1C716.9,181,716.5,180,716.3,179.2z"/>
		<path id="XMLID_14680_" class="st8" d="M715.9,179.4c-0.2-0.6-0.6-0.9-1.7-0.4c-0.5,0.3-0.9,0.7-1.1,1.1c-0.2,0.4,0,0.8,0.4,0.9
			c0.5,0.1,1.1,0.2,1.7,0C716.4,180.8,716.1,180,715.9,179.4z"/>
		<path id="XMLID_14676_" class="st9" d="M715.8,180.3c-0.1-0.2-0.2-0.3-0.6-0.1c-0.2,0.1-0.3,0.3-0.4,0.4c-0.1,0.1,0,0.3,0.1,0.3
			c0.2,0,0.4,0.1,0.6,0C715.9,180.8,715.8,180.5,715.8,180.3z"/>
		<path id="XMLID_14675_" class="st3" d="M713,174.5c1.3-1,0.6-1.7,0.1-2.3c-0.5-0.6-1.2-0.6-2.3,0.5c-0.6,0.6-0.8,1.3-0.9,1.9
			c-0.1,0.5,0.3,0.9,0.9,0.8C711.5,175.2,712.3,175,713,174.5z"/>
		<path id="XMLID_14674_" class="st8" d="M712.8,174.3c1.1-0.8,0.5-1.4,0.1-1.8c-0.4-0.4-1-0.5-1.8,0.4c-0.4,0.5-0.6,1.1-0.7,1.5
			c-0.1,0.4,0.3,0.7,0.7,0.6C711.5,174.9,712.2,174.7,712.8,174.3z"/>
		<path id="XMLID_14673_" class="st3" d="M709.1,170.9c0.8-1.3-0.1-1.7-0.8-2c-0.7-0.3-1.3-0.1-1.7,1.3c-0.2,0.7-0.2,1.4-0.1,2
			c0.1,0.5,0.6,0.7,1.1,0.3C708.1,172.2,708.7,171.7,709.1,170.9z"/>
		<path id="XMLID_14672_" class="st3" d="M716.2,194.9c0.2-0.6-0.1-1.2-1.4-1.4c-0.7-0.1-1.3,0-1.8,0.2c-0.4,0.2-0.5,0.7-0.2,1
			c0.4,0.4,1,0.9,1.7,1.2C715.8,196.4,716.1,195.6,716.2,194.9z"/>
		<path id="XMLID_14671_" class="st3" d="M702.6,216.3c1,1.6,1.9,0.8,2.6,0.3c0.7-0.5,0.8-1.3-0.4-2.6c-0.6-0.7-1.4-1-2.1-1.2
			c-0.6-0.2-1.1,0.3-1,1C701.8,214.5,702,215.4,702.6,216.3z"/>
		<path id="XMLID_14670_" class="st8" d="M702.3,214.4c0.1,0.5,0.2,1.2,0.6,1.8c0.7,1.1,1.3,0.6,1.8,0.2c0.5-0.4,0.6-0.9-0.3-1.8
			c-0.4-0.5-1-0.7-1.4-0.8C702.6,213.6,702.3,213.9,702.3,214.4z"/>
		<path id="XMLID_14667_" class="st9" d="M703.1,215.7c0,0.2,0.1,0.5,0.3,0.7c0.3,0.5,0.6,0.2,0.8,0.1c0.2-0.2,0.2-0.4-0.1-0.8
			c-0.2-0.2-0.4-0.3-0.6-0.3C703.3,215.4,703.1,215.5,703.1,215.7z"/>
		<path id="XMLID_14665_" class="st3" d="M708.6,207.6c-0.9-0.3-1.8-0.2-2.4,0c-0.6,0.1-0.8,0.8-0.4,1.3c0.5,0.6,1.1,1.4,2,1.8
			c1.7,0.9,2.1-0.2,2.4-1C710.6,208.9,710.4,208.1,708.6,207.6z"/>
		<path id="XMLID_11732_" class="st8" d="M709.8,209.5L709.8,209.5L709.8,209.5c0.1-0.2,0-0.5-0.1-0.6c-0.2-0.2-0.7-0.4-1.6-0.7
			c-0.5-0.2-1.1-0.2-1.6-0.2c-0.4,0-0.7,0.5-0.3,0.8c0.5,0.6,1.2,1.1,2,1.5c0.3,0.2,0.5,0.3,0.7,0.3c0.2,0.1,0.5,0,0.6-0.2
			C709.6,210.1,709.7,209.7,709.8,209.5z"/>
		<path id="XMLID_11729_" class="st9" d="M709.3,209.9L709.3,209.9L709.3,209.9c0-0.1,0-0.2-0.1-0.2c-0.1-0.1-0.3-0.2-0.6-0.3
			c-0.2-0.1-0.4-0.1-0.6-0.1c-0.2,0-0.2,0.2-0.1,0.3c0.2,0.2,0.4,0.4,0.7,0.6c0.1,0.1,0.2,0.1,0.3,0.1c0.1,0,0.2,0,0.2-0.1
			C709.2,210.1,709.3,210,709.3,209.9z"/>
		<path id="XMLID_11728_" class="st8" d="M672.9,214.5c-0.7,1.4,0.2,1.7,0.9,1.9c0.7,0.3,1.3,0,1.7-1.4c0.2-0.7,0.1-1.4,0-1.9
			c-0.1-0.5-0.7-0.6-1.1-0.3C673.9,213.2,673.3,213.8,672.9,214.5z"/>
		<path id="XMLID_11725_" class="st9" d="M673.5,215.7c0.2,0.1,0.5,0,0.6-0.5c0.1-0.3,0-0.5,0-0.7c-0.1-0.2-0.2-0.2-0.4-0.1
			c-0.2,0.1-0.4,0.3-0.5,0.6C673,215.5,673.3,215.6,673.5,215.7z"/>
		<path id="XMLID_11724_" class="st8" d="M662.6,188.1c-0.4-0.1-0.9-0.1-1.4,0.1c-1,0.3-0.7,0.9-0.5,1.3c0.2,0.4,0.5,0.6,1.4,0.2
			c0.4-0.2,0.7-0.6,0.9-0.9C663.1,188.5,663,188.1,662.6,188.1z"/>
		<path id="XMLID_11721_" class="st9" d="M661.7,188.3c-0.2,0-0.4,0-0.7,0c-0.5,0.1-0.3,0.4-0.3,0.6c0.1,0.2,0.3,0.3,0.7,0.1
			c0.2-0.1,0.4-0.3,0.4-0.4C661.9,188.5,661.8,188.3,661.7,188.3z"/>
		<path id="XMLID_11720_" class="st8" d="M662.7,181.8c-0.4-0.3-0.9-0.6-1.5-0.7c-1.2-0.3-1.2,0.5-1.3,1c-0.1,0.5,0.2,1,1.4,1
			c0.6,0,1.1-0.2,1.4-0.4C663.1,182.5,663.1,182,662.7,181.8z"/>
		<path id="XMLID_11719_" class="st8" d="M684.1,160.6c-0.2-1.5-1.1-1.2-1.7-1.1c-0.7,0.2-1,0.7-0.6,2c0.2,0.7,0.7,1.2,1.1,1.5
			c0.4,0.3,0.9,0.1,1-0.4C684,162.1,684.2,161.4,684.1,160.6z"/>
		<path id="XMLID_11718_" class="st8" d="M690.5,160.7c0.4-1-0.3-1.2-0.8-1.4c-0.5-0.2-0.9,0-1.1,1.1c-0.1,0.5,0,1,0.1,1.4
			c0.1,0.3,0.5,0.4,0.8,0.2C689.9,161.7,690.3,161.2,690.5,160.7z"/>
		<path id="XMLID_11717_" class="st8" d="M718.3,190.7c0-0.5-0.3-0.9-1.4-0.9c-0.6,0-1,0.2-1.4,0.5c-0.3,0.2-0.3,0.6,0,0.8
			c0.4,0.2,0.9,0.5,1.5,0.6C718.2,192,718.2,191.3,718.3,190.7z"/>
		<path id="XMLID_11716_" class="st8" d="M718.4,184.7c-0.2-0.7-0.7-1-2.1-0.5c-0.7,0.3-1.2,0.7-1.5,1.2c-0.3,0.4-0.1,0.9,0.4,1
			c0.6,0.2,1.4,0.3,2.2,0.2C718.8,186.3,718.6,185.4,718.4,184.7z"/>
		<path id="XMLID_11713_" class="st9" d="M718.2,185.4c-0.1-0.3-0.3-0.4-0.8-0.2c-0.3,0.1-0.5,0.3-0.6,0.5c-0.1,0.2,0,0.4,0.2,0.4
			c0.2,0.1,0.5,0.1,0.9,0.1C718.3,186,718.2,185.6,718.2,185.4z"/>
		<path id="XMLID_11712_" class="st8" d="M715.8,194.9c0.1-0.5-0.1-0.9-1-1.1c-0.5-0.1-1,0-1.3,0.2c-0.3,0.1-0.4,0.5-0.1,0.7
			c0.3,0.3,0.7,0.7,1.2,0.9C715.5,195.9,715.6,195.3,715.8,194.9z"/>
		<path id="XMLID_11711_" class="st8" d="M709,170.8c0.6-1-0.1-1.3-0.6-1.5c-0.5-0.2-0.9-0.1-1.3,1c-0.2,0.5-0.1,1-0.1,1.4
			c0.1,0.4,0.5,0.5,0.8,0.2C708.2,171.8,708.7,171.4,709,170.8z"/>
		<path id="XMLID_11708_" class="st9" d="M708.6,169.9c-0.2-0.1-0.4,0-0.6,0.4c-0.1,0.2-0.1,0.5,0,0.7c0,0.2,0.2,0.2,0.4,0.1
			c0.2-0.1,0.4-0.3,0.5-0.5C709.1,170.1,708.8,170,708.6,169.9z"/>
		<path id="XMLID_11705_" class="st9" d="M713,172.9c-0.2-0.2-0.4-0.2-0.7,0.1c-0.2,0.2-0.3,0.4-0.3,0.6c0,0.2,0.1,0.3,0.3,0.3
			c0.2,0,0.5-0.1,0.7-0.3C713.3,173.3,713.1,173.1,713,172.9z"/>
		<path id="XMLID_10343_" class="st9" d="M715.2,195.1c0.1-0.2,0-0.4-0.4-0.4c-0.2,0-0.4,0-0.5,0.1c-0.1,0.1-0.1,0.2,0,0.3
			c0.1,0.1,0.3,0.3,0.5,0.3C715.1,195.5,715.2,195.3,715.2,195.1z"/>
		<path id="XMLID_10340_" class="st9" d="M717.8,191.4c0-0.2-0.1-0.4-0.6-0.4c-0.2,0-0.4,0.1-0.6,0.2c-0.1,0.1-0.1,0.3,0,0.3
			c0.2,0.1,0.4,0.2,0.6,0.3C717.8,191.9,717.8,191.6,717.8,191.4z"/>
		<path id="XMLID_10332_" class="st9" d="M661.3,181.5c-0.1-0.1-0.3-0.2-0.5-0.2c-0.4-0.1-0.4,0.1-0.4,0.3c0,0.2,0.1,0.3,0.4,0.3
			c0.2,0,0.3-0.1,0.5-0.1C661.4,181.7,661.4,181.6,661.3,181.5z"/>
		<path id="XMLID_10329_" class="st9" d="M664,173.9c-0.1-0.1-0.2-0.3-0.4-0.4c-0.3-0.2-0.4,0-0.5,0.2c-0.1,0.2,0,0.3,0.3,0.4
			c0.2,0.1,0.3,0,0.5,0C664,174.1,664,174,664,173.9z"/>
		<path id="XMLID_10326_" class="st9" d="M669.3,168.7c0-0.1-0.1-0.3-0.3-0.5c-0.3-0.3-0.4-0.1-0.5,0c-0.1,0.1-0.1,0.3,0.2,0.5
			c0.2,0.1,0.3,0.1,0.4,0.1C669.3,169,669.4,168.8,669.3,168.7z"/>
		<path id="XMLID_10323_" class="st9" d="M676.4,164.4c0-0.2,0-0.4-0.2-0.7c-0.2-0.4-0.5-0.3-0.6-0.1c-0.2,0.1-0.3,0.3,0,0.7
			c0.1,0.2,0.3,0.3,0.5,0.3C676.3,164.6,676.4,164.5,676.4,164.4z"/>
		<path id="XMLID_10320_" class="st9" d="M683.6,160.4c-0.1-0.5-0.4-0.4-0.6-0.3c-0.2,0.1-0.3,0.2-0.2,0.7c0.1,0.2,0.2,0.4,0.4,0.5
			c0.1,0.1,0.3,0,0.3-0.1C683.6,160.9,683.6,160.7,683.6,160.4z"/>
		<path id="XMLID_10317_" class="st9" d="M690.4,160.3c0.2-0.5-0.1-0.5-0.4-0.6c-0.2,0-0.4,0.1-0.5,0.5c0,0.2,0,0.5,0.1,0.6
			c0.1,0.2,0.2,0.2,0.4,0C690.1,160.7,690.3,160.5,690.4,160.3z"/>
		<path id="XMLID_10314_" class="st9" d="M694.1,162.7c0.2-0.3,0-0.4-0.1-0.5c-0.1-0.1-0.3-0.1-0.4,0.2c-0.1,0.2-0.1,0.3-0.1,0.4
			c0,0.1,0.1,0.2,0.2,0.1C693.9,162.9,694,162.8,694.1,162.7z"/>
	</g>
	<g id="XMLID_11_">
		<g id="XMLID_533_">
			<path id="XMLID_537_" class="st0" d="M147.1,534.7c11.3-2.5,20.1-10.9,25.1-17.6c5-6.6,9.4-18,5.7-34.7
				c-3.7-16.6-15.3-24.3-30.9-28.3c-15.7-3.9-27.8,3.5-38.7,14.1c-10.9,10.7-13.4,32.5,0.1,51.2
				C121.8,538.2,147.1,534.7,147.1,534.7z"/>
			<path id="XMLID_534_" class="st1" d="M104,522.6c6.3,8.8,15.9,14.5,27.8,16.7c8.7,1.6,15.7,0.7,16,0.6l0.2,0l0.2,0
				c13.9-3.1,23.6-13.5,28.2-19.5c2.8-3.6,4.9-7.8,6.2-12.4c2.4-8,2.5-16.9,0.4-26.6c-2-9-6.3-16.3-12.7-21.7
				c-5.6-4.7-12.8-8.1-22.1-10.5c-8.4-2.1-16.6-1.5-24.5,1.9c-6.4,2.7-12.5,7-19.2,13.6c-4,4-7.1,9.2-8.9,15.2l5,1.5l-5-1.5
				c-2,6.5-2.3,13.8-1.1,21C96,508.5,99.2,515.8,104,522.6z M100.7,481.2c1.5-5.1,4.1-9.6,7.5-12.9c10.9-10.7,23.1-18,38.7-14.1
				c15.6,3.9,27.2,11.6,30.9,28.3c2.2,9.7,1.6,17.7-0.3,23.9c-1.3,4.4-3.3,8-5.4,10.7c-5.1,6.6-13.9,15.1-25.1,17.6
				c0,0-25.3,3.5-38.8-15.2C99.1,506.7,97.3,492.4,100.7,481.2z"/>
		</g>
		<path id="XMLID_532_" class="st2" d="M107,513.2c2.3,5,11.6,15.7,23.7,19.2c12,3.4,27.1-4.4,27.1-4.4c9.1-6.4,13.5-13.4,12.6-15.2
			c-0.9-1.8-2.5-3.4-0.7-3.6c1.8-0.2,6.4-1,6.7-12.1c0.3-11.1-6.9-24.5-9.6-28.9c-2.7-4.4-7.4-5.3-9-4.2c-1.5,1.1-2.7,1.2-3-0.3
			c-0.3-1.5-1-5.2-5.8-7.5c-4.8-2.3-24.6-1.4-38.1,11.3c-13.5,12.7-8.4,31.4-7.7,33.4c0.7,2,5.3,2,6,3.2
			C109.9,505.3,104.6,508.2,107,513.2z"/>
		<path id="XMLID_531_" class="st3" d="M110.6,503.8c0.3,1.1-0.4,2-1.1,2.9c-1,1.3-2.2,3-1.6,5.1c0.1,0.2,0.2,0.5,0.3,0.7
			c1,2.1,3.6,5.9,7.9,9.7c3.3,3,8.5,6.9,14.9,8.7c5.9,1.7,12.6,0.4,17.3-0.9c4.7-1.4,8.2-3.1,8.8-3.4c3.7-2.6,7-5.6,9.3-8.5
			c2.1-2.7,2.7-4.4,2.7-4.9c-0.2-0.4-0.4-0.8-0.7-1.2c-0.4-0.6-0.7-1.1-0.9-1.7c-0.2-0.8,0-1.4,0.2-1.7c0.4-0.5,0.9-0.8,1.8-0.9
			c1.3-0.1,5.2-0.6,5.4-10.8c0.1-3.2-0.5-6.9-1.7-11c-2.5-8.4-6.8-15.7-7.7-17.1c-1.8-3-4.4-3.7-5.2-3.9c-0.9-0.2-1.6-0.1-1.7,0.1
			c-1.3,1-2.5,1.3-3.5,1c-0.8-0.3-1.3-0.9-1.6-1.7c0-0.1-0.1-0.3-0.1-0.4c-0.1-0.4-0.1-0.7-0.3-1.2c-0.7-2.3-2.3-4.1-4.7-5.2
			c-2.1-1-8-1.3-14.9,0.1c-3.9,0.8-7.6,2.1-11,3.7c-4,1.9-7.6,4.3-10.6,7.2c-12.8,11.9-8,29.5-7.4,31.5c0.1,0.2,0.1,0.3,0.1,0.4
			c0,0.1,0.2,0.3,0.7,0.5c0.6,0.3,1.3,0.5,2,0.7c1.4,0.4,2.6,0.8,3.2,1.7C110.5,503.5,110.6,503.7,110.6,503.8z"/>
		<path id="XMLID_530_" class="st4" d="M124.7,497.7c1.9,3.6-4.5,6.4-7.6,7.7c-3.1,1.3-6,4.8-4.8,7.6c1.1,2.4,4.2,5.4,6.9,8.2
			c4.8,4.9,14.8,6.7,18.4,7c9.9,0.8,16.8-3.4,22.2-6.6c5.5-3.2,6.5-8.5,5.9-10.5c-0.6-2-4.1-4.4-6.8-4.7c-2.7-0.4-5.1-0.9-5.9-2.5
			c-0.9-1.6,0.8-3.5,3.6-2.5c2.7,1.1,13.9,3.8,15.1,1.4c1.3-2.4,1.2-6.7,1.3-9.3c0.2-4-1.2-6.7-2.9-10.8c-2.3-5.5-1.9-3.3-4-7.5
			c-2-4.1-4.3-7.4-7.9-6.6c-1.5,0.4-5.3,2.2-8.1,6.5c-2.7,4.3-3.8,4.6-4.5,2.8c-0.7-1.8,3.4-7.5,3.6-10.4c0.2-2.9-1-4.9-5.4-7.4
			c-3-1.7-13-0.2-17.8,1.8c-4.8,1.9-14.4,10.4-16.5,13.5c-2.1,3.1-2.9,8.9-2.8,12.5c0.1,3.6-0.8,7.7,2.4,10.3
			c3.2,2.6,9.7-0.7,12.5-1.3C124.4,496.4,124.7,497.7,124.7,497.7z"/>
		<g id="XMLID_528_">
			<path id="XMLID_529_" class="st5" d="M123.3,509.4c3.5-1.9,10.7-4.2,8.6-7.5c-1-1.5-3.1-0.8-8,1.5c-4.8,2.3-12.7,6.3-9.7,10.4
				c2.9,4.1,4.5,6,8.6,8.8c4.1,2.7,20.8,5.3,24.8,3.8c4-1.5,17.7-7.3,16.7-13.5c-1-6.2-7.8-4.2-9.5-5.9c-1.7-1.7-8.9-6.4-10-4.4
				c-1.1,2,6.7,4.8,7.6,7.2c0.9,2.3-2,7.8-5.6,8.2c-3.6,0.4-16.9-0.3-19.5-1.6C124.6,515,119.7,511.3,123.3,509.4z"/>
		</g>
		<g id="XMLID_526_">
			<path id="XMLID_527_" class="st6" d="M121.3,511.9c-0.2-0.8-0.3-2.2,1.6-3.2c0.7-0.4,1.6-0.8,2.4-1.2c2.8-1.3,6.5-3,6-4.7
				c0-0.1-0.1-0.3-0.2-0.4c-0.2-0.3-0.5-0.6-1.7-0.3c-1.2,0.3-2.9,1-5.2,2.1c-2.3,1.1-5,2.5-7.1,4c-2.2,1.7-3.2,3.2-2.8,4.4
				c0.1,0.3,0.2,0.5,0.4,0.8c2.8,4,4.4,5.9,8.4,8.6c1.8,1.2,6.5,2.5,12.1,3.4c5.5,0.8,10.3,1,11.9,0.3c7.9-3,16.9-8.1,16.2-12.6
				c0-0.3-0.1-0.6-0.2-0.8c-0.8-2.8-3.3-3.1-5.6-3.5c-1.4-0.2-2.7-0.4-3.4-1.2c-0.6-0.6-2.3-1.9-4.2-3c-2-1.2-3.6-1.8-4.4-1.7
				c0,0-0.2,0-0.2,0.1c0,0,0,0,0,0.1c0.2,0.7,2.1,1.9,3.4,2.7c1.9,1.2,3.8,2.4,4.2,3.7c0,0.1,0,0.1,0.1,0.2v0
				c0.4,1.5-0.1,3.7-1.4,5.7c-1.3,2-3.1,3.3-4.9,3.5c-3.7,0.4-17.1-0.3-19.9-1.7C125.2,516.2,122,514.1,121.3,511.9z"/>
		</g>
		<path id="XMLID_525_" class="st5" d="M141.1,470.2c0.2,4.1-4.8,7.1-4,10.1c0.7,3,3,3.3,6.2-3.2c3.2-6.5,5.7-13.7-1.3-15
			c-7.1-1.3-13.1-1.4-20.4,4.1c-7.3,5.6-13,9.3-13.6,17.7c-0.6,8.4-1.9,11,1.7,13.2c3.6,2.2,9.3-1.6,12.4-2.1
			c3.1-0.6,5.5-0.9,5.9-3.3c0.4-2.6-5.9-1.9-9.3-1.4c-3.4,0.5-3.4-2.4-1.9-6.5c1.5-4.1,7.5-8.9,13.9-11.8
			C137.2,469.1,140.9,466.1,141.1,470.2z"/>
		<path id="XMLID_524_" class="st6" d="M141.8,469L141.8,469c0.1,0.3,0.2,0.7,0.2,1.1c0.1,2.3-1.2,4.3-2.4,6c-1,1.5-1.9,2.8-1.6,3.9
			c0,0.1,0,0.2,0.1,0.3c0.2,0.7,0.5,1.1,0.8,1.1c0.1,0,1.4,0,3.8-4.8c1.7-3.3,3.8-8.1,2.9-11.1c-0.4-1.5-1.6-2.4-3.7-2.8
			c-2.9-0.5-6.4-1-9.8-0.5c-3.4,0.5-6.6,2-9.9,4.5c-0.5,0.4-1,0.8-1.6,1.2c-6.5,5-11.2,8.5-11.7,16c-0.1,1.8-0.3,3.3-0.4,4.6
			c-0.3,2.7-0.5,4.5-0.1,5.7c0.2,0.9,0.8,1.5,1.8,2.1c2.2,1.3,5.6,0,8.3-1.1c1.3-0.5,2.5-1,3.5-1.2l0.3,0c3.1-0.6,4.7-0.9,5-2.5
			c0-0.1,0-0.2,0-0.2c0-0.1-0.3-0.7-2.9-0.7c-1.8,0-3.9,0.3-5.5,0.5c-2.6,0.4-3.4-1-3.7-1.9c-0.4-1.3-0.1-3.2,0.9-5.7
			c0.8-2.1,2.6-4.4,5.4-6.7c2.6-2.1,5.8-4.1,9-5.6c1.4-0.6,2.6-1.2,3.7-1.8c3.1-1.5,5.1-2.5,6.5-1.9
			C141.2,467.8,141.6,468.3,141.8,469z"/>
		<path id="XMLID_523_" class="st5" d="M148.8,495.4c0.1,3.2,5.4,3.3,7.8,4.8c2.4,1.5,6.3,1.2,8.4,1.8c2,0.6,6.5-0.7,6.2-3.7
			c-0.2-3,1.4-6.8-0.2-9.4c-1.7-2.7-1.3-1.1-3.8-7.7c-2.5-6.6-4.9-11.2-8.4-10.5c-3.6,0.7-9.5,8.5-11.5,12c-2,3.5-2,6.4,0.2,5.2
			c2.2-1.2,5.9-8.6,8.4-8.6c2.5-0.1,6.1,2.8,5.5,5.9c-0.6,3.1,4.9,12.5-3.8,11.4C157,496.4,148.7,492.2,148.8,495.4z"/>
		<path id="XMLID_522_" class="st6" d="M152.4,495.4c-2.1-0.6-2.7-0.4-2.8-0.3c0,0-0.1,0,0,0.2c0,0.2,0,0.3,0.1,0.4
			c0.4,1.2,2.3,1.8,4.1,2.4c1.2,0.4,2.4,0.7,3.2,1.3c1.4,0.9,3.5,1.1,5.3,1.3c1.1,0.1,2.1,0.2,2.9,0.4c1.1,0.3,3.1,0,4.3-1
			c0.7-0.5,1-1.2,0.9-1.9c-0.1-1.2,0.1-2.4,0.3-3.6c0.2-1.6,0.4-3.2,0-4.5c-0.1-0.3-0.2-0.7-0.4-0.9c-0.4-0.7-0.7-1.1-1-1.4
			c-0.7-1-1.1-1.5-2.9-6.4c-1-2.6-2.3-5.8-3.7-7.8c-1.7-2.3-3-2.3-3.8-2.2c-3.1,0.6-8.9,8-11,11.6c-1.3,2.2-1.5,3.7-1.4,4.2
			c0,0,0,0,0,0c0.1,0,0.2-0.1,0.4-0.2c0.8-0.4,2-2.1,3.1-3.6c1.9-2.6,3.8-5.1,5.6-5.1c2.6-0.1,5.5,2.1,6.2,4.7
			c0.2,0.7,0.3,1.5,0.1,2.2c-0.1,0.7,0.2,2.1,0.5,3.4c0.6,2.7,1.3,5.7-0.3,7.5c-1,1.1-2.6,1.5-4.9,1.2c-0.2,0-0.4-0.1-1.2-0.4
			C155.3,496.5,153.8,495.8,152.4,495.4z"/>
		<path id="XMLID_521_" class="st7" d="M133.7,501.4c0.3,0.8-0.5,2.2-2.9,6.7c-2.3,4.4,6.9,3.5,12.2,3.2c5.3-0.3,6-3.2,2.8-4.8
			c0,0-4.2-3.6-2.4-5.7c1.4-1.6,12,3.4,16.6,5.9c4.6,2.4,5.1,0,5.1-2c0.1-2.1-12.4-3.8-15.4-5.8c-1.9-1.2-4.5-3.1-3.4-4.4
			c1.7-2.2,5.6-1.3,8.1-1.6c2.5-0.4,2.3-2.7,1.4-5.7c-1.3-4.5-5.8,0.1-7.5,2.2c-1.7,2.1-4.1,0.1-5.1-2c-1-2.1,8.7-13.2,10.2-16
			c1.5-2.8-2-4.2-3.5-3.8c-2.2,0.6-5.2,11.6-9.2,16.1c-2,2.3-6.7,2.4-7-0.7c-0.3-3.1,1.6-5.8-1.5-6.1c-3.4-0.4-10.2,6.9-9.6,8.8
			c0.7,1.9,5.2,2.4,7.4,3.7c2.6,1.5,1.8,3.4,0.4,5.4c-0.9,1.3-14.6,4.6-16.3,5.5c-1.7,0.9-1.9,1.7-0.2,3.9
			c1.7,2.3,13.4-3.3,16.2-4.8C133,497.9,133.7,501.4,133.7,501.4z"/>
		<path id="XMLID_520_" class="st3" d="M134.5,465.1c-0.2-1.9-1.4-1.6-2.3-1.4c-0.8,0.2-1.3,0.8-0.8,2.6c0.3,0.9,0.9,1.5,1.4,2
			c0.5,0.4,1.1,0.2,1.3-0.5C134.4,467.1,134.6,466.1,134.5,465.1z"/>
		<path id="XMLID_519_" class="st3" d="M141.2,465.2c0.6-1.4-0.3-1.6-1-1.9c-0.7-0.2-1.3,0-1.6,1.4c-0.1,0.7,0,1.4,0.2,1.9
			c0.2,0.5,0.7,0.6,1.1,0.2C140.3,466.5,140.9,465.9,141.2,465.2z"/>
		<path id="XMLID_518_" class="st3" d="M144.6,467.5c0.9-0.7,0.4-1.2,0-1.6c-0.4-0.4-0.9-0.4-1.6,0.4c-0.4,0.4-0.5,0.9-0.6,1.3
			c-0.1,0.4,0.3,0.6,0.6,0.6C143.5,468.1,144.1,467.9,144.6,467.5z"/>
		<path id="XMLID_517_" class="st8" d="M144.4,467.4c0.7-0.5,0.3-1,0-1.3c-0.3-0.3-0.7-0.3-1.2,0.3c-0.3,0.3-0.4,0.7-0.5,1.1
			c0,0.3,0.2,0.5,0.5,0.4C143.5,467.8,144,467.7,144.4,467.4z"/>
		<path id="XMLID_516_" class="st3" d="M127.9,470.8c0-0.8-0.2-1.8-0.6-2.7c-0.9-1.7-1.9-1-2.6-0.5c-0.7,0.5-1,1.3,0.2,2.7
			c0.6,0.7,1.4,1.2,2,1.4C127.4,471.9,127.9,471.5,127.9,470.8z"/>
		<path id="XMLID_515_" class="st8" d="M127.5,470.1c0-0.6-0.1-1.4-0.5-2c-0.7-1.3-1.4-0.8-2-0.4c-0.6,0.4-0.7,1,0.1,2.1
			c0.5,0.5,1,0.9,1.5,1C127.1,471,127.5,470.6,127.5,470.1z"/>
		<path id="XMLID_514_" class="st3" d="M121.4,475.1c-0.2-0.7-0.5-1.7-1.1-2.5c-1.2-1.5-2-0.7-2.7,0c-0.6,0.6-0.7,1.4,0.7,2.6
			c0.7,0.6,1.6,0.9,2.2,1C121.1,476.2,121.6,475.7,121.4,475.1z"/>
		<path id="XMLID_513_" class="st8" d="M121,474.9c-0.1-0.6-0.4-1.3-0.9-1.9c-0.9-1.1-1.6-0.5-2,0c-0.5,0.5-0.5,1.1,0.5,2
			c0.5,0.5,1.2,0.7,1.7,0.7C120.7,475.7,121.1,475.3,121,474.9z"/>
		<path id="XMLID_512_" class="st3" d="M116.4,480c-0.3-0.7-0.8-1.6-1.5-2.3c-1.4-1.3-2.1-0.3-2.6,0.4c-0.5,0.7-0.5,1.5,1.1,2.5
			c0.8,0.5,1.7,0.6,2.3,0.6C116.4,481.2,116.7,480.7,116.4,480z"/>
		<path id="XMLID_511_" class="st8" d="M116,479.9c-0.2-0.6-0.6-1.3-1.2-1.8c-1.1-1-1.7-0.2-2.1,0.3c-0.4,0.6-0.4,1.2,0.9,2
			c0.6,0.4,1.3,0.5,1.9,0.5C116,480.9,116.2,480.4,116,479.9z"/>
		<path id="XMLID_510_" class="st3" d="M113.5,486.1c-0.5-0.4-1.2-0.8-2-1c-1.5-0.3-1.6,0.7-1.7,1.4c-0.1,0.7,0.3,1.3,1.8,1.3
			c0.8,0,1.4-0.2,1.9-0.5C113.9,487,113.9,486.4,113.5,486.1z"/>
		<path id="XMLID_509_" class="st3" d="M113.4,492.2c-0.6-0.1-1.3-0.1-2,0.1c-1.3,0.4-1,1.2-0.7,1.8c0.2,0.6,0.8,0.9,2,0.2
			c0.6-0.3,1-0.8,1.3-1.2C114.1,492.7,113.9,492.3,113.4,492.2z"/>
		<path id="XMLID_508_" class="st3" d="M123,518.8c-0.8,1.7,0.3,2.1,1.1,2.4c0.8,0.3,1.6,0,2.1-1.7c0.2-0.9,0.1-1.7,0-2.4
			c-0.2-0.6-0.8-0.8-1.3-0.4C124.2,517.3,123.5,518,123,518.8z"/>
		<path id="XMLID_507_" class="st3" d="M117.5,515.2c0.3,0.6,0.9,0.9,2.1,0.1c0.6-0.4,1-1,1.2-1.4c0.2-0.4-0.1-0.9-0.6-0.9
			c-0.6,0-1.4,0-2.1,0.3C116.8,513.7,117.2,514.6,117.5,515.2z"/>
		<path id="XMLID_506_" class="st8" d="M117.8,515c0.3,0.5,0.7,0.6,1.6,0.1c0.4-0.3,0.7-0.7,0.9-1.1c0.1-0.3-0.1-0.7-0.5-0.7
			c-0.4,0-1,0-1.5,0.2C117.2,513.9,117.6,514.5,117.8,515z"/>
		<path id="XMLID_503_" class="st9" d="M117.9,514.5c0.1,0.2,0.3,0.3,0.7,0c0.2-0.1,0.3-0.3,0.4-0.5c0.1-0.1,0-0.3-0.2-0.3
			c-0.2,0-0.5,0-0.7,0.1C117.6,514,117.8,514.3,117.9,514.5z"/>
		<path id="XMLID_502_" class="st3" d="M119.2,509.8c0.4,0.2,0.8,0.2,1.2,0.2c0.3,0,0.5-0.3,0.3-0.6c-0.2-0.3-0.4-0.8-0.8-1.1
			c-0.7-0.6-1.1-0.1-1.3,0.3C118.4,509,118.4,509.4,119.2,509.8z"/>
		<path id="XMLID_501_" class="st8" d="M119.4,509.6c0.3,0.2,0.6,0.2,0.9,0.1c0.2,0,0.3-0.2,0.2-0.5c-0.1-0.2-0.3-0.6-0.6-0.8
			c-0.5-0.4-0.8,0-0.9,0.2C118.7,509,118.8,509.3,119.4,509.6z"/>
		<path id="XMLID_498_" class="st9" d="M119.4,509.1c0.2,0.1,0.3,0.1,0.5,0.1c0.1,0,0.2-0.1,0.1-0.2c-0.1-0.1-0.2-0.3-0.3-0.4
			c-0.3-0.2-0.4,0-0.5,0.1C119.1,508.8,119.1,509,119.4,509.1z"/>
		<path id="XMLID_497_" class="st3" d="M130.3,521.2c-0.9,1.7,0.3,2.1,1.1,2.4c0.8,0.3,1.6,0,2-1.7c0.3-0.9,0.1-1.8,0-2.4
			c-0.2-0.6-0.8-0.8-1.3-0.4C131.4,519.6,130.7,520.3,130.3,521.2z"/>
		<path id="XMLID_496_" class="st8" d="M130.7,521.2c-0.7,1.3,0.2,1.6,0.8,1.9c0.6,0.2,1.2,0,1.6-1.3c0.2-0.7,0.1-1.4,0-1.9
			c-0.1-0.5-0.6-0.6-1-0.3C131.6,519.9,131,520.5,130.7,521.2z"/>
		<path id="XMLID_493_" class="st9" d="M131.2,522.4c0.2,0.1,0.4,0,0.6-0.5c0.1-0.2,0-0.5,0-0.7c0-0.2-0.2-0.2-0.4-0.1
			c-0.2,0.1-0.4,0.3-0.5,0.6C130.6,522.2,130.9,522.3,131.2,522.4z"/>
		<path id="XMLID_492_" class="st3" d="M138.2,523.2c-0.2,1.9,1,1.9,1.8,1.9c0.9,0,1.5-0.5,1.4-2.3c-0.1-0.9-0.5-1.7-0.9-2.2
			c-0.4-0.5-1-0.4-1.4,0.1C138.8,521.3,138.3,522.2,138.2,523.2z"/>
		<path id="XMLID_491_" class="st8" d="M138.6,523.2c-0.2,1.4,0.7,1.4,1.4,1.4c0.6,0,1.1-0.4,1-1.7c0-0.7-0.3-1.3-0.6-1.6
			c-0.3-0.4-0.8-0.3-1,0.1C139,521.8,138.7,522.4,138.6,523.2z"/>
		<path id="XMLID_488_" class="st9" d="M138.7,523.7c-0.1,0.5,0.2,0.5,0.5,0.5s0.4-0.1,0.4-0.6c0-0.2-0.1-0.4-0.2-0.6
			c-0.1-0.1-0.3-0.1-0.4,0C138.8,523.2,138.7,523.5,138.7,523.7z"/>
		<path id="XMLID_487_" class="st3" d="M145.6,523.4c0.1,1.9,1.3,1.6,2.2,1.5c0.8-0.2,1.3-0.8,0.9-2.5c-0.3-0.9-0.8-1.6-1.3-2
			c-0.4-0.4-1.1-0.2-1.3,0.4C145.8,521.4,145.5,522.4,145.6,523.4z"/>
		<path id="XMLID_486_" class="st8" d="M145.8,523.4c0.1,1.5,1.1,1.3,1.7,1.2c0.7-0.1,1.1-0.6,0.7-2c-0.2-0.7-0.6-1.2-1-1.6
			c-0.4-0.3-0.9-0.2-1,0.3C146,521.8,145.8,522.6,145.8,523.4z"/>
		<path id="XMLID_483_" class="st9" d="M146.2,523.7c0,0.6,0.4,0.5,0.6,0.4c0.2,0,0.4-0.2,0.2-0.7c-0.1-0.3-0.2-0.5-0.4-0.6
			c-0.1-0.1-0.3-0.1-0.4,0.1C146.3,523.1,146.2,523.4,146.2,523.7z"/>
		<path id="XMLID_482_" class="st3" d="M169.1,495.1c0-0.7-0.4-1.3-1.9-1.2c-0.8,0-1.4,0.3-1.9,0.7c-0.4,0.3-0.4,0.9,0,1.2
			c0.5,0.3,1.3,0.7,2.1,0.9C169.1,496.9,169.1,495.9,169.1,495.1z"/>
		<path id="XMLID_481_" class="st3" d="M169.1,488.9c-0.2-0.8-0.9-1.3-2.6-0.7c-0.9,0.3-1.5,0.9-1.9,1.4c-0.4,0.5-0.1,1.1,0.5,1.3
			c0.7,0.2,1.7,0.4,2.7,0.2C169.7,490.9,169.4,489.8,169.1,488.9z"/>
		<path id="XMLID_480_" class="st3" d="M166.6,483.6c-0.3-0.7-0.8-1.1-2.2-0.5c-0.7,0.3-1.1,0.9-1.4,1.4c-0.3,0.5,0,1,0.5,1.1
			c0.6,0.2,1.4,0.3,2.2,0.1C167.2,485.4,166.8,484.4,166.6,483.6z"/>
		<path id="XMLID_479_" class="st8" d="M166.2,483.8c-0.2-0.6-0.6-0.9-1.7-0.4c-0.5,0.3-0.9,0.7-1.1,1.1c-0.2,0.4,0,0.8,0.4,0.9
			c0.5,0.1,1.1,0.2,1.7,0C166.7,485.2,166.4,484.4,166.2,483.8z"/>
		<path id="XMLID_476_" class="st9" d="M166.1,484.7c-0.1-0.2-0.2-0.3-0.6-0.1c-0.2,0.1-0.3,0.3-0.4,0.4c-0.1,0.1,0,0.3,0.1,0.3
			c0.2,0,0.4,0.1,0.6,0C166.2,485.2,166.1,484.9,166.1,484.7z"/>
		<path id="XMLID_475_" class="st3" d="M163.3,478.9c1.3-1,0.6-1.7,0.1-2.3c-0.5-0.6-1.2-0.6-2.3,0.5c-0.6,0.6-0.8,1.3-0.9,1.9
			c-0.1,0.5,0.3,0.9,0.9,0.8C161.8,479.6,162.6,479.4,163.3,478.9z"/>
		<path id="XMLID_474_" class="st8" d="M163.1,478.7c1.1-0.8,0.5-1.4,0.1-1.8c-0.4-0.4-1-0.5-1.8,0.4c-0.4,0.5-0.6,1.1-0.7,1.5
			c-0.1,0.4,0.3,0.7,0.7,0.6C161.8,479.3,162.5,479.1,163.1,478.7z"/>
		<path id="XMLID_473_" class="st3" d="M159.4,475.3c0.8-1.3-0.1-1.7-0.8-2c-0.7-0.3-1.3-0.1-1.7,1.3c-0.2,0.7-0.2,1.4-0.1,2
			c0.1,0.5,0.6,0.7,1.1,0.3C158.4,476.6,159,476.1,159.4,475.3z"/>
		<path id="XMLID_472_" class="st3" d="M166.5,499.3c0.2-0.6-0.1-1.2-1.4-1.4c-0.7-0.1-1.3,0-1.8,0.2c-0.4,0.2-0.5,0.7-0.2,1
			c0.4,0.4,1,0.9,1.7,1.2C166.1,500.8,166.4,500,166.5,499.3z"/>
		<path id="XMLID_471_" class="st3" d="M152.9,520.7c1,1.6,1.9,0.8,2.6,0.3c0.7-0.5,0.8-1.3-0.4-2.6c-0.6-0.7-1.4-1-2.1-1.2
			c-0.6-0.2-1.1,0.3-1,1C152.1,518.9,152.3,519.8,152.9,520.7z"/>
		<path id="XMLID_470_" class="st8" d="M152.6,518.8c0.1,0.5,0.2,1.2,0.6,1.8c0.7,1.1,1.3,0.6,1.8,0.2c0.5-0.4,0.6-0.9-0.3-1.8
			c-0.4-0.5-1-0.7-1.4-0.8C152.9,518,152.6,518.3,152.6,518.8z"/>
		<path id="XMLID_467_" class="st9" d="M153.4,520.1c0,0.2,0.1,0.5,0.3,0.7c0.3,0.5,0.6,0.2,0.8,0.1c0.2-0.2,0.2-0.4-0.1-0.8
			c-0.2-0.2-0.4-0.3-0.6-0.3C153.5,519.8,153.4,519.9,153.4,520.1z"/>
		<path id="XMLID_466_" class="st3" d="M158.9,512c-0.9-0.3-1.8-0.2-2.4,0c-0.6,0.1-0.8,0.8-0.4,1.3c0.5,0.6,1.1,1.4,2,1.8
			c1.7,0.9,2.1-0.2,2.4-1C160.9,513.3,160.7,512.5,158.9,512z"/>
		<path id="XMLID_465_" class="st8" d="M160.1,513.9L160.1,513.9L160.1,513.9c0.1-0.2,0-0.5-0.1-0.6c-0.2-0.2-0.7-0.4-1.6-0.7
			c-0.5-0.2-1.1-0.2-1.6-0.2c-0.4,0-0.7,0.5-0.3,0.8c0.5,0.6,1.2,1.1,2,1.5c0.3,0.2,0.5,0.3,0.7,0.3c0.2,0.1,0.5,0,0.6-0.2
			C159.9,514.5,160,514.1,160.1,513.9z"/>
		<path id="XMLID_462_" class="st9" d="M159.6,514.3L159.6,514.3L159.6,514.3c0-0.1,0-0.2-0.1-0.2c-0.1-0.1-0.3-0.2-0.6-0.3
			c-0.2-0.1-0.4-0.1-0.6-0.1c-0.2,0-0.2,0.2-0.1,0.3c0.2,0.2,0.4,0.4,0.7,0.6c0.1,0.1,0.2,0.1,0.3,0.1c0.1,0,0.2,0,0.2-0.1
			C159.5,514.5,159.6,514.4,159.6,514.3z"/>
		<path id="XMLID_461_" class="st8" d="M123.2,518.9c-0.7,1.4,0.2,1.7,0.9,1.9c0.7,0.3,1.3,0,1.7-1.4c0.2-0.7,0.1-1.4,0-1.9
			c-0.1-0.5-0.7-0.6-1.1-0.3C124.2,517.6,123.6,518.2,123.2,518.9z"/>
		<path id="XMLID_458_" class="st9" d="M123.8,520.1c0.2,0.1,0.5,0,0.6-0.5c0.1-0.3,0-0.5,0-0.7c-0.1-0.2-0.2-0.2-0.4-0.1
			c-0.2,0.1-0.4,0.3-0.5,0.6C123.3,519.9,123.6,520,123.8,520.1z"/>
		<path id="XMLID_457_" class="st8" d="M112.9,492.5c-0.4-0.1-0.9-0.1-1.4,0.1c-1,0.3-0.7,0.9-0.5,1.3c0.2,0.4,0.5,0.6,1.4,0.2
			c0.4-0.2,0.7-0.6,0.9-0.9C113.4,492.9,113.3,492.5,112.9,492.5z"/>
		<path id="XMLID_454_" class="st9" d="M112,492.7c-0.2,0-0.4,0-0.7,0c-0.5,0.1-0.3,0.4-0.3,0.6c0.1,0.2,0.3,0.3,0.7,0.1
			c0.2-0.1,0.4-0.3,0.4-0.4C112.2,492.9,112.1,492.7,112,492.7z"/>
		<path id="XMLID_453_" class="st8" d="M113,486.2c-0.4-0.3-0.9-0.6-1.5-0.7c-1.2-0.3-1.2,0.5-1.3,1c-0.1,0.5,0.2,1,1.4,1
			c0.6,0,1.1-0.2,1.4-0.4C113.4,486.9,113.4,486.4,113,486.2z"/>
		<path id="XMLID_452_" class="st8" d="M134.4,465c-0.2-1.5-1.1-1.2-1.7-1.1c-0.7,0.2-1,0.7-0.6,2c0.2,0.7,0.7,1.2,1.1,1.5
			c0.4,0.3,0.9,0.1,1-0.4C134.3,466.5,134.5,465.8,134.4,465z"/>
		<path id="XMLID_451_" class="st8" d="M140.8,465.1c0.4-1-0.3-1.2-0.8-1.4c-0.5-0.2-0.9,0-1.1,1.1c-0.1,0.5,0,1,0.1,1.4
			c0.1,0.3,0.5,0.4,0.8,0.2C140.2,466.1,140.6,465.6,140.8,465.1z"/>
		<path id="XMLID_450_" class="st8" d="M168.6,495.1c0-0.5-0.3-0.9-1.4-0.9c-0.6,0-1,0.2-1.4,0.5c-0.3,0.2-0.3,0.6,0,0.8
			c0.4,0.2,0.9,0.5,1.5,0.6C168.5,496.4,168.5,495.7,168.6,495.1z"/>
		<path id="XMLID_449_" class="st8" d="M168.7,489.1c-0.2-0.7-0.7-1-2.1-0.5c-0.7,0.3-1.2,0.7-1.5,1.2c-0.3,0.4-0.1,0.9,0.4,1
			c0.6,0.2,1.4,0.3,2.2,0.2C169.1,490.7,168.9,489.8,168.7,489.1z"/>
		<path id="XMLID_446_" class="st9" d="M168.5,489.8c-0.1-0.3-0.3-0.4-0.8-0.2c-0.3,0.1-0.5,0.3-0.6,0.5c-0.1,0.2,0,0.4,0.2,0.4
			c0.2,0.1,0.5,0.1,0.9,0.1C168.6,490.4,168.5,490,168.5,489.8z"/>
		<path id="XMLID_445_" class="st8" d="M166.1,499.3c0.1-0.5-0.1-0.9-1-1.1c-0.5-0.1-1,0-1.3,0.2c-0.3,0.1-0.4,0.5-0.1,0.7
			c0.3,0.3,0.7,0.7,1.2,0.9C165.8,500.3,165.9,499.7,166.1,499.3z"/>
		<path id="XMLID_444_" class="st8" d="M159.3,475.2c0.6-1-0.1-1.3-0.6-1.5c-0.5-0.2-0.9-0.1-1.3,1c-0.2,0.5-0.1,1-0.1,1.4
			c0.1,0.4,0.5,0.5,0.8,0.2C158.5,476.2,159,475.8,159.3,475.2z"/>
		<path id="XMLID_441_" class="st9" d="M158.9,474.3c-0.2-0.1-0.4,0-0.6,0.4c-0.1,0.2-0.1,0.5,0,0.7c0,0.2,0.2,0.2,0.4,0.1
			c0.2-0.1,0.4-0.3,0.5-0.5C159.4,474.5,159.1,474.4,158.9,474.3z"/>
		<path id="XMLID_438_" class="st9" d="M163.3,477.3c-0.2-0.2-0.4-0.2-0.7,0.1c-0.2,0.2-0.3,0.4-0.3,0.6c0,0.2,0.1,0.3,0.3,0.3
			c0.2,0,0.5-0.1,0.7-0.3C163.6,477.7,163.4,477.5,163.3,477.3z"/>
		<path id="XMLID_435_" class="st9" d="M165.5,499.5c0.1-0.2,0-0.4-0.4-0.4c-0.2,0-0.4,0-0.5,0.1c-0.1,0.1-0.1,0.2,0,0.3
			c0.1,0.1,0.3,0.3,0.5,0.3C165.4,499.9,165.5,499.7,165.5,499.5z"/>
		<path id="XMLID_432_" class="st9" d="M168.1,495.8c0-0.2-0.1-0.4-0.6-0.4c-0.2,0-0.4,0.1-0.6,0.2c-0.1,0.1-0.1,0.3,0,0.3
			c0.2,0.1,0.4,0.2,0.6,0.3C168.1,496.3,168.1,496,168.1,495.8z"/>
		<path id="XMLID_429_" class="st9" d="M111.6,485.9c-0.1-0.1-0.3-0.2-0.5-0.2c-0.4-0.1-0.4,0.1-0.4,0.3c0,0.2,0.1,0.3,0.4,0.3
			c0.2,0,0.3-0.1,0.5-0.1C111.7,486.1,111.7,486,111.6,485.9z"/>
		<path id="XMLID_426_" class="st9" d="M114.3,478.3c-0.1-0.1-0.2-0.3-0.4-0.4c-0.3-0.2-0.4,0-0.5,0.2c-0.1,0.2,0,0.3,0.3,0.4
			c0.2,0.1,0.3,0,0.5,0C114.3,478.5,114.3,478.4,114.3,478.3z"/>
		<path id="XMLID_423_" class="st9" d="M119.6,473.1c0-0.1-0.1-0.3-0.3-0.5c-0.3-0.3-0.4-0.1-0.5,0c-0.1,0.1-0.1,0.3,0.2,0.5
			c0.2,0.1,0.3,0.1,0.4,0.1C119.6,473.4,119.7,473.2,119.6,473.1z"/>
		<path id="XMLID_420_" class="st9" d="M126.7,468.8c0-0.2,0-0.4-0.2-0.7c-0.2-0.4-0.5-0.3-0.6-0.1c-0.2,0.1-0.3,0.3,0,0.7
			c0.1,0.2,0.3,0.3,0.5,0.3C126.6,469,126.7,468.9,126.7,468.8z"/>
		<path id="XMLID_416_" class="st9" d="M133.9,464.8c-0.1-0.5-0.4-0.4-0.6-0.3c-0.2,0.1-0.3,0.2-0.2,0.7c0.1,0.2,0.2,0.4,0.4,0.5
			c0.1,0.1,0.3,0,0.3-0.1C133.9,465.3,133.9,465.1,133.9,464.8z"/>
		<path id="XMLID_15_" class="st9" d="M140.7,464.7c0.2-0.5-0.1-0.5-0.4-0.6c-0.2,0-0.4,0.1-0.5,0.5c0,0.2,0,0.5,0.1,0.6
			c0.1,0.2,0.2,0.2,0.4,0C140.4,465.1,140.6,464.9,140.7,464.7z"/>
		<path id="XMLID_12_" class="st9" d="M144.4,467.1c0.2-0.3,0-0.4-0.1-0.5c-0.1-0.1-0.3-0.1-0.4,0.2c-0.1,0.2-0.1,0.3-0.1,0.4
			c0,0.1,0.1,0.2,0.2,0.1C144.1,467.3,144.3,467.2,144.4,467.1z"/>
	</g>
	<g id="XMLID_538_">
		<g id="XMLID_661_">
			<path id="XMLID_665_" class="st0" d="M386.2,647c11.3-2.5,20.1-10.9,25.1-17.6c5-6.6,9.4-18,5.7-34.7
				c-3.7-16.6-15.3-24.3-30.9-28.3c-15.7-3.9-27.8,3.5-38.7,14.1c-10.9,10.7-13.4,32.5,0.1,51.2C360.9,650.5,386.2,647,386.2,647z"
				/>
			<path id="XMLID_662_" class="st1" d="M343.1,634.9c6.3,8.8,15.9,14.5,27.8,16.7c8.7,1.6,15.7,0.7,16,0.6l0.2,0l0.2,0
				c13.9-3.1,23.6-13.5,28.2-19.5c2.8-3.6,4.9-7.8,6.2-12.4c2.4-8,2.5-16.9,0.4-26.6c-2-9-6.3-16.3-12.7-21.7
				c-5.6-4.7-12.8-8.1-22.1-10.5c-8.4-2.1-16.6-1.5-24.5,1.9c-6.4,2.7-12.5,7-19.2,13.6c-4,4-7.1,9.2-8.9,15.2l5,1.5l-5-1.5
				c-2,6.5-2.3,13.8-1.1,21C335.1,620.7,338.3,628.1,343.1,634.9z M339.8,593.5c1.5-5.1,4.1-9.6,7.5-12.9
				c10.9-10.7,23.1-18,38.7-14.1c15.6,3.9,27.2,11.6,30.9,28.3c2.2,9.7,1.6,17.7-0.3,23.9c-1.3,4.4-3.3,8-5.4,10.7
				c-5.1,6.6-13.9,15.1-25.1,17.6c0,0-25.3,3.5-38.8-15.2C338.2,619,336.4,604.7,339.8,593.5z"/>
		</g>
		<path id="XMLID_660_" class="st2" d="M346.1,625.5c2.3,5,11.6,15.7,23.7,19.2c12,3.4,27.1-4.4,27.1-4.4
			c9.1-6.4,13.5-13.4,12.6-15.2c-0.9-1.8-2.5-3.4-0.7-3.6c1.8-0.2,6.4-1,6.7-12.1c0.3-11.1-6.9-24.5-9.6-28.9
			c-2.7-4.4-7.4-5.3-9-4.2c-1.5,1.1-2.7,1.2-3-0.3c-0.3-1.5-1-5.2-5.8-7.5c-4.8-2.3-24.6-1.4-38.1,11.3
			c-13.5,12.7-8.4,31.4-7.7,33.4c0.7,2,5.3,2,6,3.2C349,617.6,343.7,620.5,346.1,625.5z"/>
		<path id="XMLID_659_" class="st3" d="M349.7,616.1c0.3,1.1-0.4,2-1.1,2.9c-1,1.3-2.2,3-1.6,5.1c0.1,0.2,0.2,0.5,0.3,0.7
			c1,2.1,3.6,5.9,7.9,9.7c3.3,3,8.5,6.9,14.9,8.7c5.9,1.7,12.6,0.4,17.3-0.9c4.7-1.4,8.2-3.1,8.8-3.4c3.7-2.6,7-5.6,9.3-8.5
			c2.1-2.7,2.7-4.4,2.7-4.9c-0.2-0.4-0.4-0.8-0.7-1.2c-0.4-0.6-0.7-1.1-0.9-1.7c-0.2-0.8,0-1.4,0.2-1.7c0.4-0.5,0.9-0.8,1.8-0.9
			c1.3-0.1,5.2-0.6,5.4-10.8c0.1-3.2-0.5-6.9-1.7-11c-2.5-8.4-6.8-15.7-7.7-17.1c-1.8-3-4.4-3.7-5.2-3.9c-0.9-0.2-1.6-0.1-1.7,0.1
			c-1.3,1-2.5,1.3-3.5,1c-0.8-0.3-1.3-0.9-1.6-1.7c0-0.1-0.1-0.3-0.1-0.4c-0.1-0.4-0.1-0.7-0.3-1.2c-0.7-2.3-2.3-4.1-4.7-5.2
			c-2.1-1-8-1.3-14.9,0.1c-3.9,0.8-7.6,2.1-11,3.7c-4,1.9-7.6,4.3-10.6,7.2c-12.8,11.9-8,29.5-7.4,31.5c0.1,0.2,0.1,0.3,0.1,0.4
			c0,0.1,0.2,0.3,0.7,0.5c0.6,0.3,1.3,0.5,2,0.7c1.4,0.4,2.6,0.8,3.2,1.7C349.6,615.8,349.7,616,349.7,616.1z"/>
		<path id="XMLID_658_" class="st4" d="M363.8,610c1.9,3.6-4.5,6.4-7.6,7.7c-3.1,1.3-6,4.8-4.8,7.6c1.1,2.4,4.2,5.4,6.9,8.2
			c4.8,4.9,14.8,6.7,18.4,7c9.9,0.8,16.8-3.4,22.2-6.6c5.5-3.2,6.5-8.5,5.9-10.5c-0.6-2-4.1-4.4-6.8-4.7c-2.7-0.4-5.1-0.9-5.9-2.5
			c-0.9-1.6,0.8-3.5,3.6-2.5c2.7,1.1,13.9,3.8,15.1,1.4c1.3-2.4,1.2-6.7,1.3-9.3c0.2-4-1.2-6.7-2.9-10.8c-2.3-5.5-1.9-3.3-4-7.5
			c-2-4.1-4.3-7.4-7.9-6.6c-1.5,0.4-5.3,2.2-8.1,6.5c-2.7,4.3-3.8,4.6-4.5,2.8c-0.7-1.8,3.4-7.5,3.6-10.4c0.2-2.9-1-4.9-5.4-7.4
			c-3-1.7-13-0.2-17.8,1.8c-4.8,1.9-14.4,10.4-16.5,13.5c-2.1,3.1-2.9,8.9-2.8,12.5c0.1,3.6-0.8,7.7,2.4,10.3
			c3.2,2.6,9.7-0.7,12.5-1.3C363.5,608.7,363.8,610,363.8,610z"/>
		<g id="XMLID_656_">
			<path id="XMLID_657_" class="st5" d="M362.4,621.6c3.5-1.9,10.7-4.2,8.6-7.5c-1-1.5-3.1-0.8-8,1.5c-4.8,2.3-12.7,6.3-9.7,10.4
				c2.9,4.1,4.5,6,8.6,8.8c4.1,2.7,20.8,5.3,24.8,3.8c4-1.5,17.7-7.3,16.7-13.5c-1-6.2-7.8-4.2-9.5-5.9c-1.7-1.7-8.9-6.4-10-4.4
				c-1.1,2,6.7,4.8,7.6,7.2c0.9,2.3-2,7.8-5.6,8.2c-3.6,0.4-16.9-0.3-19.5-1.6C363.7,627.2,358.8,623.6,362.4,621.6z"/>
		</g>
		<g id="XMLID_654_">
			<path id="XMLID_655_" class="st6" d="M360.4,624.1c-0.2-0.8-0.3-2.2,1.6-3.2c0.7-0.4,1.6-0.8,2.4-1.2c2.8-1.3,6.5-3,6-4.7
				c0-0.1-0.1-0.3-0.2-0.4c-0.2-0.3-0.5-0.6-1.7-0.3c-1.2,0.3-2.9,1-5.2,2.1c-2.3,1.1-5,2.5-7.1,4c-2.2,1.7-3.2,3.2-2.8,4.4
				c0.1,0.3,0.2,0.5,0.4,0.8c2.8,4,4.4,5.9,8.4,8.6c1.8,1.2,6.5,2.5,12.1,3.4c5.5,0.8,10.3,1,11.9,0.3c7.9-3,16.9-8.1,16.2-12.6
				c0-0.3-0.1-0.6-0.2-0.8c-0.8-2.8-3.3-3.1-5.6-3.5c-1.4-0.2-2.7-0.4-3.4-1.2c-0.6-0.6-2.3-1.9-4.2-3c-2-1.2-3.6-1.8-4.4-1.7
				c0,0-0.2,0-0.2,0.1c0,0,0,0,0,0.1c0.2,0.7,2.1,1.9,3.4,2.7c1.9,1.2,3.8,2.4,4.2,3.7c0,0.1,0,0.1,0.1,0.2v0
				c0.4,1.5-0.1,3.7-1.4,5.7c-1.3,2-3.1,3.3-4.9,3.5c-3.7,0.4-17.1-0.3-19.9-1.7C364.3,628.5,361.1,626.4,360.4,624.1z"/>
		</g>
		<path id="XMLID_653_" class="st5" d="M380.2,582.4c0.2,4.1-4.8,7.1-4,10.1c0.7,3,3,3.3,6.2-3.2c3.2-6.5,5.7-13.7-1.3-15
			c-7.1-1.3-13.1-1.4-20.4,4.1c-7.3,5.6-13,9.3-13.6,17.7c-0.6,8.4-1.9,11,1.7,13.2c3.6,2.2,9.3-1.6,12.4-2.1
			c3.1-0.6,5.5-0.9,5.9-3.3c0.4-2.6-5.9-1.9-9.3-1.4c-3.4,0.5-3.4-2.4-1.9-6.5c1.5-4.1,7.5-8.9,13.9-11.8
			C376.3,581.4,380,578.4,380.2,582.4z"/>
		<path id="XMLID_652_" class="st6" d="M380.9,581.2L380.9,581.2c0.1,0.3,0.2,0.7,0.2,1.1c0.1,2.3-1.2,4.3-2.4,6
			c-1,1.5-1.9,2.8-1.6,3.9c0,0.1,0,0.2,0.1,0.3c0.2,0.7,0.5,1.1,0.8,1.1c0.1,0,1.4,0,3.8-4.8c1.7-3.3,3.8-8.1,2.9-11.1
			c-0.4-1.5-1.6-2.4-3.7-2.8c-2.9-0.5-6.4-1-9.8-0.5c-3.4,0.5-6.6,2-9.9,4.5c-0.5,0.4-1,0.8-1.6,1.2c-6.5,5-11.2,8.5-11.7,16
			c-0.1,1.8-0.3,3.3-0.4,4.6c-0.3,2.7-0.5,4.5-0.1,5.7c0.2,0.9,0.8,1.5,1.8,2.1c2.2,1.3,5.6,0,8.3-1.1c1.3-0.5,2.5-1,3.5-1.2l0.3,0
			c3.1-0.6,4.7-0.9,5-2.5c0-0.1,0-0.2,0-0.2c0-0.1-0.3-0.7-2.9-0.7c-1.8,0-3.9,0.3-5.5,0.5c-2.6,0.4-3.4-1-3.7-1.9
			c-0.4-1.3-0.1-3.2,0.9-5.7c0.8-2.1,2.6-4.4,5.4-6.7c2.6-2.1,5.8-4.1,9-5.6c1.4-0.6,2.6-1.2,3.7-1.8c3.1-1.5,5.1-2.5,6.5-1.9
			C380.3,580.1,380.7,580.5,380.9,581.2z"/>
		<path id="XMLID_651_" class="st5" d="M387.9,607.7c0.1,3.2,5.4,3.3,7.8,4.8c2.4,1.5,6.3,1.2,8.4,1.8c2,0.6,6.5-0.7,6.2-3.7
			c-0.2-3,1.4-6.8-0.2-9.4c-1.7-2.7-1.3-1.1-3.8-7.7c-2.5-6.6-4.9-11.2-8.4-10.5c-3.6,0.7-9.5,8.5-11.5,12c-2,3.5-2,6.4,0.2,5.2
			c2.2-1.2,5.9-8.6,8.4-8.6c2.5-0.1,6.1,2.8,5.5,5.9c-0.6,3.1,4.9,12.5-3.8,11.4C396.1,608.7,387.8,604.5,387.9,607.7z"/>
		<path id="XMLID_650_" class="st6" d="M391.5,607.7c-2.1-0.6-2.7-0.4-2.8-0.3c0,0-0.1,0,0,0.2c0,0.2,0,0.3,0.1,0.4
			c0.4,1.2,2.3,1.8,4.1,2.4c1.2,0.4,2.4,0.7,3.2,1.3c1.4,0.9,3.5,1.1,5.3,1.3c1.1,0.1,2.1,0.2,2.9,0.4c1.1,0.3,3.1,0,4.3-1
			c0.7-0.5,1-1.2,0.9-1.9c-0.1-1.2,0.1-2.4,0.3-3.6c0.2-1.6,0.4-3.2,0-4.5c-0.1-0.3-0.2-0.7-0.4-0.9c-0.4-0.7-0.7-1.1-1-1.4
			c-0.7-1-1.1-1.5-2.9-6.4c-1-2.6-2.3-5.8-3.7-7.8c-1.7-2.3-3-2.3-3.8-2.2c-3.1,0.6-8.9,8-11,11.6c-1.3,2.2-1.5,3.7-1.4,4.2
			c0,0,0,0,0,0c0.1,0,0.2-0.1,0.4-0.2c0.8-0.4,2-2.1,3.1-3.6c1.9-2.6,3.8-5.1,5.6-5.1c2.6-0.1,5.5,2.1,6.2,4.7
			c0.2,0.7,0.3,1.5,0.1,2.2c-0.1,0.7,0.2,2.1,0.5,3.4c0.6,2.7,1.3,5.7-0.3,7.5c-1,1.1-2.6,1.5-4.9,1.2c-0.2,0-0.4-0.1-1.2-0.4
			C394.4,608.7,392.9,608.1,391.5,607.7z"/>
		<path id="XMLID_649_" class="st7" d="M372.8,613.6c0.3,0.8-0.5,2.2-2.9,6.7c-2.3,4.4,6.9,3.5,12.2,3.2c5.3-0.3,6-3.2,2.8-4.8
			c0,0-4.2-3.6-2.4-5.7c1.4-1.6,12,3.4,16.6,5.9c4.6,2.4,5.1,0,5.1-2c0.1-2.1-12.4-3.8-15.4-5.8c-1.9-1.2-4.5-3.1-3.4-4.4
			c1.7-2.2,5.6-1.3,8.1-1.6c2.5-0.4,2.3-2.7,1.4-5.7c-1.3-4.5-5.8,0.1-7.5,2.2c-1.7,2.1-4.1,0.1-5.1-2c-1-2.1,8.7-13.2,10.2-16
			c1.5-2.8-2-4.2-3.5-3.8c-2.2,0.6-5.2,11.6-9.2,16.1c-2,2.3-6.7,2.4-7-0.7c-0.3-3.1,1.6-5.8-1.5-6.1c-3.4-0.4-10.2,6.9-9.6,8.8
			c0.7,1.9,5.2,2.4,7.4,3.7c2.6,1.5,1.8,3.4,0.4,5.4c-0.9,1.3-14.6,4.6-16.3,5.5c-1.7,0.9-1.9,1.7-0.2,3.9
			c1.7,2.3,13.4-3.3,16.2-4.8C372.1,610.1,372.8,613.6,372.8,613.6z"/>
		<path id="XMLID_648_" class="st3" d="M373.6,577.4c-0.2-1.9-1.4-1.6-2.3-1.4c-0.8,0.2-1.3,0.8-0.8,2.6c0.3,0.9,0.9,1.5,1.4,2
			c0.5,0.4,1.1,0.2,1.3-0.5C373.5,579.4,373.7,578.4,373.6,577.4z"/>
		<path id="XMLID_647_" class="st3" d="M380.3,577.5c0.6-1.4-0.3-1.6-1-1.9c-0.7-0.2-1.3,0-1.6,1.4c-0.1,0.7,0,1.4,0.2,1.9
			c0.2,0.5,0.7,0.6,1.1,0.2C379.4,578.8,380,578.2,380.3,577.5z"/>
		<path id="XMLID_646_" class="st3" d="M383.7,579.8c0.9-0.7,0.4-1.2,0-1.6c-0.4-0.4-0.9-0.4-1.6,0.4c-0.4,0.4-0.5,0.9-0.6,1.3
			c-0.1,0.4,0.3,0.6,0.6,0.6C382.6,580.3,383.2,580.2,383.7,579.8z"/>
		<path id="XMLID_645_" class="st8" d="M383.5,579.7c0.7-0.5,0.3-1,0-1.3c-0.3-0.3-0.7-0.3-1.2,0.3c-0.3,0.3-0.4,0.7-0.5,1.1
			c0,0.3,0.2,0.5,0.5,0.4C382.6,580.1,383.1,580,383.5,579.7z"/>
		<path id="XMLID_644_" class="st3" d="M367,583.1c0-0.8-0.2-1.8-0.6-2.7c-0.9-1.7-1.9-1-2.6-0.5c-0.7,0.5-1,1.3,0.2,2.7
			c0.6,0.7,1.4,1.2,2,1.4C366.5,584.2,367,583.8,367,583.1z"/>
		<path id="XMLID_643_" class="st8" d="M366.6,582.4c0-0.6-0.1-1.4-0.5-2c-0.7-1.3-1.4-0.8-2-0.4c-0.6,0.4-0.7,1,0.1,2.1
			c0.5,0.5,1,0.9,1.5,1C366.2,583.2,366.6,582.9,366.6,582.4z"/>
		<path id="XMLID_642_" class="st3" d="M360.5,587.3c-0.2-0.7-0.5-1.7-1.1-2.5c-1.2-1.5-2-0.7-2.7,0c-0.6,0.6-0.7,1.4,0.7,2.6
			c0.7,0.6,1.6,0.9,2.2,1C360.2,588.5,360.7,588,360.5,587.3z"/>
		<path id="XMLID_641_" class="st8" d="M360.1,587.1c-0.1-0.6-0.4-1.3-0.9-1.9c-0.9-1.1-1.6-0.5-2,0c-0.5,0.5-0.5,1.1,0.5,2
			c0.5,0.5,1.2,0.7,1.7,0.7C359.8,588,360.2,587.6,360.1,587.1z"/>
		<path id="XMLID_640_" class="st3" d="M355.5,592.3c-0.3-0.7-0.8-1.6-1.5-2.3c-1.4-1.3-2.1-0.3-2.6,0.4c-0.5,0.7-0.5,1.5,1.1,2.5
			c0.8,0.5,1.7,0.6,2.3,0.6C355.5,593.5,355.8,592.9,355.5,592.3z"/>
		<path id="XMLID_639_" class="st8" d="M355.1,592.2c-0.2-0.6-0.6-1.3-1.2-1.8c-1.1-1-1.7-0.2-2.1,0.3c-0.4,0.6-0.4,1.2,0.9,2
			c0.6,0.4,1.3,0.5,1.9,0.5C355.1,593.2,355.3,592.7,355.1,592.2z"/>
		<path id="XMLID_638_" class="st3" d="M352.6,598.3c-0.5-0.4-1.2-0.8-2-1c-1.5-0.3-1.6,0.7-1.7,1.4c-0.1,0.7,0.3,1.3,1.8,1.3
			c0.8,0,1.4-0.2,1.9-0.5C353,599.2,353,598.7,352.6,598.3z"/>
		<path id="XMLID_637_" class="st3" d="M352.5,604.5c-0.6-0.1-1.3-0.1-2,0.1c-1.3,0.4-1,1.2-0.7,1.8c0.2,0.6,0.8,0.9,2,0.2
			c0.6-0.3,1-0.8,1.3-1.2C353.2,605,353,604.6,352.5,604.5z"/>
		<path id="XMLID_636_" class="st3" d="M362.2,631.1c-0.8,1.7,0.3,2.1,1.1,2.4c0.8,0.3,1.6,0,2.1-1.7c0.2-0.9,0.1-1.7,0-2.4
			c-0.2-0.6-0.8-0.8-1.3-0.4C363.3,629.5,362.6,630.2,362.2,631.1z"/>
		<path id="XMLID_635_" class="st3" d="M356.6,627.4c0.3,0.6,0.9,0.9,2.1,0.1c0.6-0.4,1-1,1.2-1.4c0.2-0.4-0.1-0.9-0.6-0.9
			c-0.6,0-1.4,0-2.1,0.3C355.9,626,356.3,626.8,356.6,627.4z"/>
		<path id="XMLID_634_" class="st8" d="M356.9,627.2c0.3,0.5,0.7,0.6,1.6,0.1c0.4-0.3,0.7-0.7,0.9-1.1c0.1-0.3-0.1-0.7-0.5-0.7
			c-0.4,0-1,0-1.5,0.2C356.3,626.2,356.7,626.8,356.9,627.2z"/>
		<path id="XMLID_631_" class="st9" d="M357,626.8c0.1,0.2,0.3,0.3,0.7,0c0.2-0.1,0.3-0.3,0.4-0.5c0.1-0.1,0-0.3-0.2-0.3
			c-0.2,0-0.5,0-0.7,0.1C356.7,626.3,356.9,626.6,357,626.8z"/>
		<path id="XMLID_630_" class="st3" d="M358.3,622c0.4,0.2,0.8,0.2,1.2,0.2c0.3,0,0.5-0.3,0.3-0.6c-0.2-0.3-0.4-0.8-0.8-1.1
			c-0.7-0.6-1.1-0.1-1.3,0.3C357.5,621.2,357.5,621.6,358.3,622z"/>
		<path id="XMLID_629_" class="st8" d="M358.5,621.9c0.3,0.2,0.6,0.2,0.9,0.1c0.2,0,0.3-0.2,0.2-0.5c-0.1-0.2-0.3-0.6-0.6-0.8
			c-0.5-0.4-0.8,0-0.9,0.2C357.8,621.3,357.9,621.6,358.5,621.9z"/>
		<path id="XMLID_626_" class="st9" d="M358.5,621.4c0.2,0.1,0.3,0.1,0.5,0.1c0.1,0,0.2-0.1,0.1-0.2c-0.1-0.1-0.2-0.3-0.3-0.4
			c-0.3-0.2-0.4,0-0.5,0.1C358.2,621.1,358.2,621.2,358.5,621.4z"/>
		<path id="XMLID_625_" class="st3" d="M369.4,633.4c-0.9,1.7,0.3,2.1,1.1,2.4c0.8,0.3,1.6,0,2-1.7c0.3-0.9,0.1-1.8,0-2.4
			c-0.2-0.6-0.8-0.8-1.3-0.4C370.5,631.8,369.8,632.5,369.4,633.4z"/>
		<path id="XMLID_624_" class="st8" d="M369.8,633.4c-0.7,1.3,0.2,1.6,0.8,1.9c0.6,0.2,1.2,0,1.6-1.3c0.2-0.7,0.1-1.4,0-1.9
			c-0.1-0.5-0.6-0.6-1-0.3C370.7,632.2,370.1,632.8,369.8,633.4z"/>
		<path id="XMLID_621_" class="st9" d="M370.3,634.6c0.2,0.1,0.4,0,0.6-0.5c0.1-0.2,0-0.5,0-0.7c0-0.2-0.2-0.2-0.4-0.1
			c-0.2,0.1-0.4,0.3-0.5,0.6C369.7,634.4,370,634.6,370.3,634.6z"/>
		<path id="XMLID_620_" class="st3" d="M377.3,635.5c-0.2,1.9,1,1.9,1.8,1.9c0.9,0,1.5-0.5,1.4-2.3c-0.1-0.9-0.5-1.7-0.9-2.2
			c-0.4-0.5-1-0.4-1.4,0.1C377.9,633.6,377.5,634.5,377.3,635.5z"/>
		<path id="XMLID_619_" class="st8" d="M377.7,635.4c-0.2,1.4,0.7,1.4,1.4,1.4c0.6,0,1.1-0.4,1-1.7c0-0.7-0.3-1.3-0.6-1.6
			c-0.3-0.4-0.8-0.3-1,0.1C378.1,634.1,377.8,634.7,377.7,635.4z"/>
		<path id="XMLID_616_" class="st9" d="M377.8,636c-0.1,0.5,0.2,0.5,0.5,0.5c0.2,0,0.4-0.1,0.4-0.6c0-0.2-0.1-0.4-0.2-0.6
			c-0.1-0.1-0.3-0.1-0.4,0C377.9,635.5,377.8,635.8,377.8,636z"/>
		<path id="XMLID_615_" class="st3" d="M384.7,635.7c0.1,1.9,1.3,1.6,2.2,1.5c0.8-0.2,1.3-0.8,0.9-2.5c-0.3-0.9-0.8-1.6-1.3-2
			c-0.4-0.4-1.1-0.2-1.3,0.4C384.9,633.7,384.6,634.7,384.7,635.7z"/>
		<path id="XMLID_614_" class="st8" d="M384.9,635.7c0.1,1.5,1.1,1.3,1.7,1.2c0.7-0.1,1.1-0.6,0.7-2c-0.2-0.7-0.6-1.2-1-1.6
			c-0.4-0.3-0.9-0.2-1,0.3C385.1,634.1,384.9,634.9,384.9,635.7z"/>
		<path id="XMLID_611_" class="st9" d="M385.3,636c0,0.6,0.4,0.5,0.6,0.4c0.2,0,0.4-0.2,0.2-0.7c-0.1-0.3-0.2-0.5-0.4-0.6
			c-0.1-0.1-0.3-0.1-0.4,0.1C385.4,635.4,385.3,635.7,385.3,636z"/>
		<path id="XMLID_610_" class="st3" d="M408.2,607.4c0-0.7-0.4-1.3-1.9-1.2c-0.8,0-1.4,0.3-1.9,0.7c-0.4,0.3-0.4,0.9,0,1.2
			c0.5,0.3,1.3,0.7,2.1,0.9C408.2,609.1,408.2,608.1,408.2,607.4z"/>
		<path id="XMLID_609_" class="st3" d="M408.2,601.2c-0.2-0.8-0.9-1.3-2.6-0.7c-0.9,0.3-1.5,0.9-1.9,1.4c-0.4,0.5-0.1,1.1,0.5,1.3
			c0.7,0.2,1.7,0.4,2.7,0.2C408.8,603.2,408.5,602,408.2,601.2z"/>
		<path id="XMLID_608_" class="st3" d="M405.7,595.9c-0.3-0.7-0.8-1.1-2.2-0.5c-0.7,0.3-1.1,0.9-1.4,1.4c-0.3,0.5,0,1,0.5,1.1
			c0.6,0.2,1.4,0.3,2.2,0.1C406.3,597.7,405.9,596.6,405.7,595.9z"/>
		<path id="XMLID_607_" class="st8" d="M405.3,596.1c-0.2-0.6-0.6-0.9-1.7-0.4c-0.5,0.3-0.9,0.7-1.1,1.1c-0.2,0.4,0,0.8,0.4,0.9
			c0.5,0.1,1.1,0.2,1.7,0C405.8,597.5,405.5,596.7,405.3,596.1z"/>
		<path id="XMLID_604_" class="st9" d="M405.2,597c-0.1-0.2-0.2-0.3-0.6-0.1c-0.2,0.1-0.3,0.3-0.4,0.4c-0.1,0.1,0,0.3,0.1,0.3
			c0.2,0,0.4,0.1,0.6,0C405.3,597.5,405.2,597.2,405.2,597z"/>
		<path id="XMLID_603_" class="st3" d="M402.4,591.1c1.3-1,0.6-1.7,0.1-2.3c-0.5-0.6-1.2-0.6-2.3,0.5c-0.6,0.6-0.8,1.3-0.9,1.9
			c-0.1,0.5,0.3,0.9,0.9,0.8C400.9,591.9,401.7,591.7,402.4,591.1z"/>
		<path id="XMLID_602_" class="st8" d="M402.2,591c1.1-0.8,0.5-1.4,0.1-1.8c-0.4-0.4-1-0.5-1.8,0.4c-0.4,0.5-0.6,1.1-0.7,1.5
			c-0.1,0.4,0.3,0.7,0.7,0.6C400.9,591.6,401.6,591.4,402.2,591z"/>
		<path id="XMLID_601_" class="st3" d="M398.5,587.6c0.8-1.3-0.1-1.7-0.8-2c-0.7-0.3-1.3-0.1-1.7,1.3c-0.2,0.7-0.2,1.4-0.1,2
			c0.1,0.5,0.6,0.7,1.1,0.3C397.5,588.9,398.1,588.3,398.5,587.6z"/>
		<path id="XMLID_600_" class="st3" d="M405.6,611.6c0.2-0.6-0.1-1.2-1.4-1.4c-0.7-0.1-1.3,0-1.8,0.2c-0.4,0.2-0.5,0.7-0.2,1
			c0.4,0.4,1,0.9,1.7,1.2C405.2,613.1,405.5,612.3,405.6,611.6z"/>
		<path id="XMLID_599_" class="st3" d="M392,632.9c1,1.6,1.9,0.8,2.6,0.3c0.7-0.5,0.8-1.3-0.4-2.6c-0.6-0.7-1.4-1-2.1-1.2
			c-0.6-0.2-1.1,0.3-1,1C391.2,631.1,391.4,632.1,392,632.9z"/>
		<path id="XMLID_598_" class="st8" d="M391.7,631c0.1,0.5,0.2,1.2,0.6,1.8c0.7,1.1,1.3,0.6,1.8,0.2c0.5-0.4,0.6-0.9-0.3-1.8
			c-0.4-0.5-1-0.7-1.4-0.8C392,630.3,391.7,630.6,391.7,631z"/>
		<path id="XMLID_595_" class="st9" d="M392.5,632.4c0,0.2,0.1,0.5,0.3,0.7c0.3,0.5,0.6,0.2,0.8,0.1c0.2-0.2,0.2-0.4-0.1-0.8
			c-0.2-0.2-0.4-0.3-0.6-0.3C392.7,632,392.5,632.2,392.5,632.4z"/>
		<path id="XMLID_594_" class="st3" d="M398,624.3c-0.9-0.3-1.8-0.2-2.4,0c-0.6,0.1-0.8,0.8-0.4,1.3c0.5,0.6,1.1,1.4,2,1.8
			c1.7,0.9,2.1-0.2,2.4-1C400,625.6,399.8,624.8,398,624.3z"/>
		<path id="XMLID_593_" class="st8" d="M399.2,626.1L399.2,626.1L399.2,626.1c0.1-0.2,0-0.5-0.1-0.6c-0.2-0.2-0.7-0.4-1.6-0.7
			c-0.5-0.2-1.1-0.2-1.6-0.2c-0.4,0-0.7,0.5-0.3,0.8c0.5,0.6,1.2,1.1,2,1.5c0.3,0.2,0.5,0.3,0.7,0.3c0.2,0.1,0.5,0,0.6-0.2
			C399,626.7,399.1,626.4,399.2,626.1z"/>
		<path id="XMLID_590_" class="st9" d="M398.7,626.6L398.7,626.6L398.7,626.6c0-0.1,0-0.2-0.1-0.2c-0.1-0.1-0.3-0.2-0.6-0.3
			c-0.2-0.1-0.4-0.1-0.6-0.1c-0.2,0-0.2,0.2-0.1,0.3c0.2,0.2,0.4,0.4,0.7,0.6c0.1,0.1,0.2,0.1,0.3,0.1c0.1,0,0.2,0,0.2-0.1
			C398.6,626.8,398.7,626.6,398.7,626.6z"/>
		<path id="XMLID_589_" class="st8" d="M362.3,631.2c-0.7,1.4,0.2,1.7,0.9,1.9c0.7,0.3,1.3,0,1.7-1.4c0.2-0.7,0.1-1.4,0-1.9
			c-0.1-0.5-0.7-0.6-1.1-0.3C363.3,629.9,362.7,630.5,362.3,631.2z"/>
		<path id="XMLID_586_" class="st9" d="M362.9,632.4c0.2,0.1,0.5,0,0.6-0.5c0.1-0.3,0-0.5,0-0.7c-0.1-0.2-0.2-0.2-0.4-0.1
			c-0.2,0.1-0.4,0.3-0.5,0.6C362.4,632.2,362.7,632.3,362.9,632.4z"/>
		<path id="XMLID_585_" class="st8" d="M352,604.8c-0.4-0.1-0.9-0.1-1.4,0.1c-1,0.3-0.7,0.9-0.5,1.3c0.2,0.4,0.5,0.6,1.4,0.2
			c0.4-0.2,0.7-0.6,0.9-0.9C352.5,605.1,352.4,604.8,352,604.8z"/>
		<path id="XMLID_582_" class="st9" d="M351.1,605c-0.2,0-0.4,0-0.7,0c-0.5,0.1-0.3,0.4-0.3,0.6c0.1,0.2,0.3,0.3,0.7,0.1
			c0.2-0.1,0.4-0.3,0.4-0.4C351.3,605.2,351.2,605,351.1,605z"/>
		<path id="XMLID_581_" class="st8" d="M352.1,598.5c-0.4-0.3-0.9-0.6-1.5-0.7c-1.2-0.3-1.2,0.5-1.3,1c-0.1,0.5,0.2,1,1.4,1
			c0.6,0,1.1-0.2,1.4-0.4C352.5,599.1,352.5,598.7,352.1,598.5z"/>
		<path id="XMLID_580_" class="st8" d="M373.5,577.3c-0.2-1.5-1.1-1.2-1.7-1.1c-0.7,0.2-1,0.7-0.6,2c0.2,0.7,0.7,1.2,1.1,1.5
			c0.4,0.3,0.9,0.1,1-0.4C373.4,578.8,373.6,578.1,373.5,577.3z"/>
		<path id="XMLID_579_" class="st8" d="M379.9,577.4c0.4-1-0.3-1.2-0.8-1.4c-0.5-0.2-0.9,0-1.1,1.1c-0.1,0.5,0,1,0.1,1.4
			c0.1,0.3,0.5,0.4,0.8,0.2C379.3,578.3,379.7,577.9,379.9,577.4z"/>
		<path id="XMLID_578_" class="st8" d="M407.7,607.4c0-0.5-0.3-0.9-1.4-0.9c-0.6,0-1,0.2-1.4,0.5c-0.3,0.2-0.3,0.6,0,0.8
			c0.4,0.2,0.9,0.5,1.5,0.6C407.6,608.7,407.6,608,407.7,607.4z"/>
		<path id="XMLID_577_" class="st8" d="M407.8,601.4c-0.2-0.7-0.7-1-2.1-0.5c-0.7,0.3-1.2,0.7-1.5,1.2c-0.3,0.4-0.1,0.9,0.4,1
			c0.6,0.2,1.4,0.3,2.2,0.2C408.2,603,408,602,407.8,601.4z"/>
		<path id="XMLID_574_" class="st9" d="M407.6,602c-0.1-0.3-0.3-0.4-0.8-0.2c-0.3,0.1-0.5,0.3-0.6,0.5c-0.1,0.2,0,0.4,0.2,0.4
			c0.2,0.1,0.5,0.1,0.9,0.1C407.7,602.7,407.6,602.3,407.6,602z"/>
		<path id="XMLID_573_" class="st8" d="M405.2,611.5c0.1-0.5-0.1-0.9-1-1.1c-0.5-0.1-1,0-1.3,0.2c-0.3,0.1-0.4,0.5-0.1,0.7
			c0.3,0.3,0.7,0.7,1.2,0.9C404.9,612.6,405,612,405.2,611.5z"/>
		<path id="XMLID_572_" class="st8" d="M398.4,587.5c0.6-1-0.1-1.3-0.6-1.5c-0.5-0.2-0.9-0.1-1.3,1c-0.2,0.5-0.1,1-0.1,1.4
			c0.1,0.4,0.5,0.5,0.8,0.2C397.6,588.4,398.1,588,398.4,587.5z"/>
		<path id="XMLID_569_" class="st9" d="M398,586.6c-0.2-0.1-0.4,0-0.6,0.4c-0.1,0.2-0.1,0.5,0,0.7c0,0.2,0.2,0.2,0.4,0.1
			c0.2-0.1,0.4-0.3,0.5-0.5C398.5,586.8,398.2,586.7,398,586.6z"/>
		<path id="XMLID_566_" class="st9" d="M402.4,589.6c-0.2-0.2-0.4-0.2-0.7,0.1c-0.2,0.2-0.3,0.4-0.3,0.6c0,0.2,0.1,0.3,0.3,0.3
			c0.2,0,0.5-0.1,0.7-0.3C402.7,590,402.5,589.8,402.4,589.6z"/>
		<path id="XMLID_563_" class="st9" d="M404.6,611.8c0.1-0.2,0-0.4-0.4-0.4c-0.2,0-0.4,0-0.5,0.1c-0.1,0.1-0.1,0.2,0,0.3
			c0.1,0.1,0.3,0.3,0.5,0.3C404.5,612.2,404.6,611.9,404.6,611.8z"/>
		<path id="XMLID_560_" class="st9" d="M407.2,608.1c0-0.2-0.1-0.4-0.6-0.4c-0.2,0-0.4,0.1-0.6,0.2c-0.1,0.1-0.1,0.3,0,0.3
			c0.2,0.1,0.4,0.2,0.6,0.3C407.2,608.6,407.2,608.3,407.2,608.1z"/>
		<path id="XMLID_557_" class="st9" d="M350.7,598.2c-0.1-0.1-0.3-0.2-0.5-0.2c-0.4-0.1-0.4,0.1-0.4,0.3c0,0.2,0.1,0.3,0.4,0.3
			c0.2,0,0.3-0.1,0.5-0.1C350.8,598.4,350.8,598.3,350.7,598.2z"/>
		<path id="XMLID_554_" class="st9" d="M353.4,590.6c-0.1-0.1-0.2-0.3-0.4-0.4c-0.3-0.2-0.4,0-0.5,0.2c-0.1,0.2,0,0.3,0.3,0.4
			c0.2,0.1,0.3,0,0.5,0C353.4,590.8,353.4,590.7,353.4,590.6z"/>
		<path id="XMLID_551_" class="st9" d="M358.7,585.4c0-0.1-0.1-0.3-0.3-0.5c-0.3-0.3-0.4-0.1-0.5,0c-0.1,0.1-0.1,0.3,0.2,0.5
			c0.2,0.1,0.3,0.1,0.4,0.1C358.7,585.6,358.8,585.5,358.7,585.4z"/>
		<path id="XMLID_548_" class="st9" d="M365.8,581c0-0.2,0-0.4-0.2-0.7c-0.2-0.4-0.5-0.3-0.6-0.1c-0.2,0.1-0.3,0.3,0,0.7
			c0.1,0.2,0.3,0.3,0.5,0.3C365.7,581.3,365.8,581.2,365.8,581z"/>
		<path id="XMLID_545_" class="st9" d="M373,577.1c-0.1-0.5-0.4-0.4-0.6-0.3c-0.2,0.1-0.3,0.2-0.2,0.7c0.1,0.2,0.2,0.4,0.4,0.5
			c0.1,0.1,0.3,0,0.3-0.1C373,577.6,373,577.3,373,577.1z"/>
		<path id="XMLID_542_" class="st9" d="M379.8,576.9c0.2-0.5-0.1-0.5-0.4-0.6c-0.2,0-0.4,0.1-0.5,0.5c0,0.2,0,0.5,0.1,0.6
			c0.1,0.2,0.2,0.2,0.4,0C379.5,577.4,379.7,577.2,379.8,576.9z"/>
		<path id="XMLID_539_" class="st9" d="M383.5,579.3c0.2-0.3,0-0.4-0.1-0.5c-0.1-0.1-0.3-0.1-0.4,0.2c-0.1,0.2-0.1,0.3-0.1,0.4
			c0,0.1,0.1,0.2,0.2,0.1C383.3,579.5,383.4,579.5,383.5,579.3z"/>
	</g>
	<g id="XMLID_666_">
		<g id="XMLID_789_">
			<path id="XMLID_793_" class="st0" d="M389.5,870.6c11.3-2.5,20.1-10.9,25.1-17.6c5-6.6,9.4-18,5.7-34.7
				c-3.7-16.6-15.3-24.3-30.9-28.3c-15.7-3.9-27.8,3.5-38.7,14.1c-10.9,10.7-13.4,32.5,0.1,51.2
				C364.2,874.1,389.5,870.6,389.5,870.6z"/>
			<path id="XMLID_790_" class="st1" d="M346.5,858.5c6.3,8.8,15.9,14.5,27.8,16.7c8.7,1.6,15.7,0.7,16,0.6l0.2,0l0.2,0
				c13.9-3.1,23.6-13.5,28.2-19.5c2.8-3.6,4.9-7.8,6.2-12.4c2.4-8,2.5-16.9,0.4-26.6c-2-9-6.3-16.3-12.7-21.7
				c-5.6-4.7-12.8-8.1-22.1-10.5c-8.4-2.1-16.6-1.5-24.5,1.9c-6.4,2.7-12.5,7-19.2,13.6c-4,4-7.1,9.2-8.9,15.2l5,1.5l-5-1.5
				c-2,6.5-2.3,13.8-1.1,21C338.4,844.3,341.6,851.7,346.5,858.5z M343.1,817.1c1.5-5.1,4.1-9.6,7.5-12.9
				c10.9-10.7,23.1-18,38.7-14.1c15.6,3.9,27.2,11.6,30.9,28.3c2.2,9.7,1.6,17.7-0.3,23.9c-1.3,4.4-3.3,8-5.4,10.7
				c-5.1,6.6-13.9,15.1-25.1,17.6c0,0-25.3,3.5-38.8-15.2C341.5,842.6,339.8,828.3,343.1,817.1z"/>
		</g>
		<path id="XMLID_788_" class="st2" d="M349.4,849.1c2.3,5,11.6,15.7,23.7,19.2c12,3.4,27.1-4.4,27.1-4.4
			c9.1-6.4,13.5-13.4,12.6-15.2c-0.9-1.8-2.5-3.4-0.7-3.6c1.8-0.2,6.4-1,6.7-12.1c0.3-11.1-6.9-24.5-9.6-28.9
			c-2.7-4.4-7.4-5.3-9-4.2c-1.5,1.1-2.7,1.2-3-0.3c-0.3-1.5-1-5.2-5.8-7.5c-4.8-2.3-24.6-1.4-38.1,11.3
			c-13.5,12.7-8.4,31.4-7.7,33.4c0.7,2,5.3,2,6,3.2C352.3,841.2,347,844.1,349.4,849.1z"/>
		<path id="XMLID_787_" class="st3" d="M353,839.7c0.3,1.1-0.4,2-1.1,2.9c-1,1.3-2.2,3-1.6,5.1c0.1,0.2,0.2,0.5,0.3,0.7
			c1,2.1,3.6,5.9,7.9,9.7c3.3,3,8.5,6.9,14.9,8.7c5.9,1.7,12.6,0.4,17.3-0.9c4.7-1.4,8.2-3.1,8.8-3.4c3.7-2.6,7-5.6,9.3-8.5
			c2.1-2.7,2.7-4.4,2.7-4.9c-0.2-0.4-0.4-0.8-0.7-1.2c-0.4-0.6-0.7-1.1-0.9-1.7c-0.2-0.8,0-1.4,0.2-1.7c0.4-0.5,0.9-0.8,1.8-0.9
			c1.3-0.1,5.2-0.6,5.4-10.8c0.1-3.2-0.5-6.9-1.7-11c-2.5-8.4-6.8-15.7-7.7-17.1c-1.8-3-4.4-3.7-5.2-3.9c-0.9-0.2-1.6-0.1-1.7,0.1
			c-1.3,1-2.5,1.3-3.5,1c-0.8-0.3-1.3-0.9-1.6-1.7c0-0.1-0.1-0.3-0.1-0.4c-0.1-0.4-0.1-0.7-0.3-1.2c-0.7-2.3-2.3-4.1-4.7-5.2
			c-2.1-1-8-1.3-14.9,0.1c-3.9,0.8-7.6,2.1-11,3.7c-4,1.9-7.6,4.3-10.6,7.2c-12.8,11.9-8,29.5-7.4,31.5c0.1,0.2,0.1,0.3,0.1,0.4
			c0,0.1,0.2,0.3,0.7,0.5c0.6,0.3,1.3,0.5,2,0.7c1.4,0.4,2.6,0.8,3.2,1.7C352.9,839.4,353,839.6,353,839.7z"/>
		<path id="XMLID_786_" class="st4" d="M367.1,833.6c1.9,3.6-4.5,6.4-7.6,7.7c-3.1,1.3-6,4.8-4.8,7.6c1.1,2.4,4.2,5.4,6.9,8.2
			c4.8,4.9,14.8,6.7,18.4,7c9.9,0.8,16.8-3.4,22.2-6.6c5.5-3.2,6.5-8.5,5.9-10.5c-0.6-2-4.1-4.4-6.8-4.7c-2.7-0.4-5.1-0.9-5.9-2.5
			c-0.9-1.6,0.8-3.5,3.6-2.5c2.7,1.1,13.9,3.8,15.1,1.4c1.3-2.4,1.2-6.7,1.3-9.3c0.2-4-1.2-6.7-2.9-10.8c-2.3-5.5-1.9-3.3-4-7.5
			c-2-4.1-4.3-7.4-7.9-6.6c-1.5,0.4-5.3,2.2-8.1,6.5c-2.7,4.3-3.8,4.6-4.5,2.8c-0.7-1.8,3.4-7.5,3.6-10.4c0.2-2.9-1-4.9-5.4-7.4
			c-3-1.7-13-0.2-17.8,1.8c-4.8,1.9-14.4,10.4-16.5,13.5c-2.1,3.1-2.9,8.9-2.8,12.5c0.1,3.6-0.8,7.7,2.4,10.3
			c3.2,2.6,9.7-0.7,12.5-1.3C366.8,832.3,367.1,833.6,367.1,833.6z"/>
		<g id="XMLID_784_">
			<path id="XMLID_785_" class="st5" d="M365.7,845.2c3.5-1.9,10.7-4.2,8.6-7.5c-1-1.5-3.1-0.8-8,1.5c-4.8,2.3-12.7,6.3-9.7,10.4
				c2.9,4.1,4.5,6,8.6,8.8c4.1,2.7,20.8,5.3,24.8,3.8c4-1.5,17.7-7.3,16.7-13.5c-1-6.2-7.8-4.2-9.5-5.9c-1.7-1.7-8.9-6.4-10-4.4
				c-1.1,2,6.7,4.8,7.6,7.2c0.9,2.3-2,7.8-5.6,8.2c-3.6,0.4-16.9-0.3-19.5-1.6C367,850.8,362.2,847.2,365.7,845.2z"/>
		</g>
		<g id="XMLID_782_">
			<path id="XMLID_783_" class="st6" d="M363.8,847.7c-0.2-0.8-0.3-2.2,1.6-3.2c0.7-0.4,1.6-0.8,2.4-1.2c2.8-1.3,6.5-3,6-4.7
				c0-0.1-0.1-0.3-0.2-0.4c-0.2-0.3-0.5-0.6-1.7-0.3c-1.2,0.3-2.9,1-5.2,2.1c-2.3,1.1-5,2.5-7.1,4c-2.2,1.7-3.2,3.2-2.8,4.4
				c0.1,0.3,0.2,0.5,0.4,0.8c2.8,4,4.4,5.9,8.4,8.6c1.8,1.2,6.5,2.5,12.1,3.4c5.5,0.8,10.3,1,11.9,0.3c7.9-3,16.9-8.1,16.2-12.6
				c0-0.3-0.1-0.6-0.2-0.8c-0.8-2.8-3.3-3.1-5.6-3.5c-1.4-0.2-2.7-0.4-3.4-1.2c-0.6-0.6-2.3-1.9-4.2-3c-2-1.2-3.6-1.8-4.4-1.7
				c0,0-0.2,0-0.2,0.1c0,0,0,0,0,0.1c0.2,0.7,2.1,1.9,3.4,2.7c1.9,1.2,3.8,2.4,4.2,3.7c0,0.1,0,0.1,0.1,0.2v0
				c0.4,1.5-0.1,3.7-1.4,5.7c-1.3,2-3.1,3.3-4.9,3.5c-3.7,0.4-17.1-0.3-19.9-1.7C367.7,852.1,364.4,850,363.8,847.7z"/>
		</g>
		<path id="XMLID_781_" class="st5" d="M383.5,806c0.2,4.1-4.8,7.1-4,10.1c0.7,3,3,3.3,6.2-3.2c3.2-6.5,5.7-13.7-1.3-15
			c-7.1-1.3-13.1-1.4-20.4,4.1c-7.3,5.6-13,9.3-13.6,17.7c-0.6,8.4-1.9,11,1.7,13.2c3.6,2.2,9.3-1.6,12.4-2.1
			c3.1-0.6,5.5-0.9,5.9-3.3c0.4-2.6-5.9-1.9-9.3-1.4c-3.4,0.5-3.4-2.4-1.9-6.5c1.5-4.1,7.5-8.9,13.9-11.8
			C379.6,805,383.4,802,383.5,806z"/>
		<path id="XMLID_780_" class="st6" d="M384.2,804.8L384.2,804.8c0.1,0.3,0.2,0.7,0.2,1.1c0.1,2.3-1.2,4.3-2.4,6
			c-1,1.5-1.9,2.8-1.6,3.9c0,0.1,0,0.2,0.1,0.3c0.2,0.7,0.5,1.1,0.8,1.1c0.1,0,1.4,0,3.8-4.8c1.7-3.3,3.8-8.1,2.9-11.1
			c-0.4-1.5-1.6-2.4-3.7-2.8c-2.9-0.5-6.4-1-9.8-0.5c-3.4,0.5-6.6,2-9.9,4.5c-0.5,0.4-1,0.8-1.6,1.2c-6.5,5-11.2,8.5-11.7,16
			c-0.1,1.8-0.3,3.3-0.4,4.6c-0.3,2.7-0.5,4.5-0.1,5.7c0.2,0.9,0.8,1.5,1.8,2.1c2.2,1.3,5.6,0,8.3-1.1c1.3-0.5,2.5-1,3.5-1.2l0.3,0
			c3.1-0.6,4.7-0.9,5-2.5c0-0.1,0-0.2,0-0.2c0-0.1-0.3-0.7-2.9-0.7c-1.8,0-3.9,0.3-5.5,0.5c-2.6,0.4-3.4-1-3.7-1.9
			c-0.4-1.3-0.1-3.2,0.9-5.7c0.8-2.1,2.6-4.4,5.4-6.7c2.6-2.1,5.8-4.1,9-5.6c1.4-0.6,2.6-1.2,3.7-1.8c3.1-1.5,5.1-2.5,6.5-1.9
			C383.6,803.7,384,804.1,384.2,804.8z"/>
		<path id="XMLID_779_" class="st5" d="M391.2,831.3c0.1,3.2,5.4,3.3,7.8,4.8c2.4,1.5,6.3,1.2,8.4,1.8c2,0.6,6.5-0.7,6.2-3.7
			c-0.2-3,1.4-6.8-0.2-9.4c-1.7-2.7-1.3-1.1-3.8-7.7c-2.5-6.6-4.9-11.2-8.4-10.5c-3.6,0.7-9.5,8.5-11.5,12c-2,3.5-2,6.4,0.2,5.2
			c2.2-1.2,5.9-8.6,8.4-8.6c2.5-0.1,6.1,2.8,5.5,5.9c-0.6,3.1,4.9,12.5-3.8,11.4C399.4,832.3,391.1,828.1,391.2,831.3z"/>
		<path id="XMLID_778_" class="st6" d="M394.8,831.3c-2.1-0.6-2.7-0.4-2.8-0.3c0,0-0.1,0,0,0.2c0,0.2,0,0.3,0.1,0.4
			c0.4,1.2,2.3,1.8,4.1,2.4c1.2,0.4,2.4,0.7,3.2,1.3c1.4,0.9,3.5,1.1,5.3,1.3c1.1,0.1,2.1,0.2,2.9,0.4c1.1,0.3,3.1,0,4.3-1
			c0.7-0.5,1-1.2,0.9-1.9c-0.1-1.2,0.1-2.4,0.3-3.6c0.2-1.6,0.4-3.2,0-4.5c-0.1-0.3-0.2-0.7-0.4-0.9c-0.4-0.7-0.7-1.1-1-1.4
			c-0.7-1-1.1-1.5-2.9-6.4c-1-2.6-2.3-5.8-3.7-7.8c-1.7-2.3-3-2.3-3.8-2.2c-3.1,0.6-8.9,8-11,11.6c-1.3,2.2-1.5,3.7-1.4,4.2
			c0,0,0,0,0,0c0.1,0,0.2-0.1,0.4-0.2c0.8-0.4,2-2.1,3.1-3.6c1.9-2.6,3.8-5.1,5.6-5.1c2.6-0.1,5.5,2.1,6.2,4.7
			c0.2,0.7,0.3,1.5,0.1,2.2c-0.1,0.7,0.2,2.1,0.5,3.4c0.6,2.7,1.3,5.7-0.3,7.5c-1,1.1-2.6,1.5-4.9,1.2c-0.2,0-0.4-0.1-1.2-0.4
			C397.7,832.3,396.2,831.7,394.8,831.3z"/>
		<path id="XMLID_777_" class="st7" d="M376.1,837.2c0.3,0.8-0.5,2.2-2.9,6.7c-2.3,4.4,6.9,3.5,12.2,3.2c5.3-0.3,6-3.2,2.8-4.8
			c0,0-4.2-3.6-2.4-5.7c1.4-1.6,12,3.4,16.6,5.9c4.6,2.4,5.1,0,5.1-2c0.1-2.1-12.4-3.8-15.4-5.8c-1.9-1.2-4.5-3.1-3.4-4.4
			c1.7-2.2,5.6-1.3,8.1-1.6c2.5-0.4,2.3-2.7,1.4-5.7c-1.3-4.5-5.8,0.1-7.5,2.2c-1.7,2.1-4.1,0.1-5.1-2c-1-2.1,8.7-13.2,10.2-16
			c1.5-2.8-2-4.2-3.5-3.8c-2.2,0.6-5.2,11.6-9.2,16.1c-2,2.3-6.7,2.4-7-0.7c-0.3-3.1,1.6-5.8-1.5-6.1c-3.4-0.4-10.2,6.9-9.6,8.8
			c0.7,1.9,5.2,2.4,7.4,3.7c2.6,1.5,1.8,3.4,0.4,5.4c-0.9,1.3-14.6,4.6-16.3,5.5c-1.7,0.9-1.9,1.7-0.2,3.9
			c1.7,2.3,13.4-3.3,16.2-4.8C375.4,833.7,376.1,837.2,376.1,837.2z"/>
		<path id="XMLID_776_" class="st3" d="M376.9,801c-0.2-1.9-1.4-1.6-2.3-1.4c-0.8,0.2-1.3,0.8-0.8,2.6c0.3,0.9,0.9,1.5,1.4,2
			c0.5,0.4,1.1,0.2,1.3-0.5C376.9,803,377.1,802,376.9,801z"/>
		<path id="XMLID_775_" class="st3" d="M383.6,801.1c0.6-1.4-0.3-1.6-1-1.9c-0.7-0.2-1.3,0-1.6,1.4c-0.1,0.7,0,1.4,0.2,1.9
			c0.2,0.5,0.7,0.6,1.1,0.2C382.8,802.4,383.3,801.8,383.6,801.1z"/>
		<path id="XMLID_774_" class="st3" d="M387,803.4c0.9-0.7,0.4-1.2,0-1.6c-0.4-0.4-0.9-0.4-1.6,0.4c-0.4,0.4-0.5,0.9-0.6,1.3
			c-0.1,0.4,0.3,0.6,0.6,0.6C385.9,803.9,386.5,803.8,387,803.4z"/>
		<path id="XMLID_773_" class="st8" d="M386.8,803.3c0.7-0.5,0.3-1,0-1.3c-0.3-0.3-0.7-0.3-1.2,0.3c-0.3,0.3-0.4,0.7-0.5,1.1
			c0,0.3,0.2,0.5,0.5,0.4C385.9,803.7,386.4,803.6,386.8,803.3z"/>
		<path id="XMLID_772_" class="st3" d="M370.3,806.7c0-0.8-0.2-1.8-0.6-2.7c-0.9-1.7-1.9-1-2.6-0.5c-0.7,0.5-1,1.3,0.2,2.7
			c0.6,0.7,1.4,1.2,2,1.4C369.8,807.8,370.4,807.4,370.3,806.7z"/>
		<path id="XMLID_771_" class="st8" d="M369.9,806c0-0.6-0.1-1.4-0.5-2c-0.7-1.3-1.4-0.8-2-0.4c-0.6,0.4-0.7,1,0.1,2.1
			c0.5,0.5,1,0.9,1.5,1C369.6,806.8,370,806.5,369.9,806z"/>
		<path id="XMLID_770_" class="st3" d="M363.8,810.9c-0.2-0.7-0.5-1.7-1.1-2.5c-1.2-1.5-2-0.7-2.7,0c-0.6,0.6-0.7,1.4,0.7,2.6
			c0.7,0.6,1.6,0.9,2.2,1C363.6,812.1,364,811.6,363.8,810.9z"/>
		<path id="XMLID_769_" class="st8" d="M363.4,810.7c-0.1-0.6-0.4-1.3-0.9-1.9c-0.9-1.1-1.6-0.5-2,0c-0.5,0.5-0.5,1.1,0.5,2
			c0.5,0.5,1.2,0.7,1.7,0.7C363.2,811.6,363.5,811.2,363.4,810.7z"/>
		<path id="XMLID_768_" class="st3" d="M358.9,815.9c-0.3-0.7-0.8-1.6-1.5-2.3c-1.4-1.3-2.1-0.3-2.6,0.4c-0.5,0.7-0.5,1.5,1.1,2.5
			c0.8,0.5,1.7,0.6,2.3,0.6C358.8,817.1,359.1,816.5,358.9,815.9z"/>
		<path id="XMLID_767_" class="st8" d="M358.4,815.8c-0.2-0.6-0.6-1.3-1.2-1.8c-1.1-1-1.7-0.2-2.1,0.3c-0.4,0.6-0.4,1.2,0.9,2
			c0.6,0.4,1.3,0.5,1.9,0.5C358.4,816.8,358.7,816.3,358.4,815.8z"/>
		<path id="XMLID_766_" class="st3" d="M355.9,821.9c-0.5-0.4-1.2-0.8-2-1c-1.5-0.3-1.6,0.7-1.7,1.4c-0.1,0.7,0.3,1.3,1.8,1.3
			c0.8,0,1.4-0.2,1.9-0.5C356.3,822.8,356.3,822.3,355.9,821.9z"/>
		<path id="XMLID_765_" class="st3" d="M355.8,828.1c-0.6-0.1-1.3-0.1-2,0.1c-1.3,0.4-1,1.2-0.7,1.8c0.2,0.6,0.8,0.9,2,0.2
			c0.6-0.3,1-0.8,1.3-1.2C356.5,828.6,356.3,828.2,355.8,828.1z"/>
		<path id="XMLID_764_" class="st3" d="M365.5,854.7c-0.8,1.7,0.3,2.1,1.1,2.4c0.8,0.3,1.6,0,2.1-1.7c0.2-0.9,0.1-1.7,0-2.4
			c-0.2-0.6-0.8-0.8-1.3-0.4C366.6,853.1,365.9,853.8,365.5,854.7z"/>
		<path id="XMLID_763_" class="st3" d="M359.9,851c0.3,0.6,0.9,0.9,2.1,0.1c0.6-0.4,1-1,1.2-1.4c0.2-0.4-0.1-0.9-0.6-0.9
			c-0.6,0-1.4,0-2.1,0.3C359.2,849.6,359.6,850.4,359.9,851z"/>
		<path id="XMLID_762_" class="st8" d="M360.2,850.8c0.3,0.5,0.7,0.6,1.6,0.1c0.4-0.3,0.7-0.7,0.9-1.1c0.1-0.3-0.1-0.7-0.5-0.7
			c-0.4,0-1,0-1.5,0.2C359.6,849.8,360,850.4,360.2,850.8z"/>
		<path id="XMLID_759_" class="st9" d="M360.3,850.4c0.1,0.2,0.3,0.3,0.7,0c0.2-0.1,0.3-0.3,0.4-0.5c0.1-0.1,0-0.3-0.2-0.3
			c-0.2,0-0.5,0-0.7,0.1C360,849.9,360.2,850.2,360.3,850.4z"/>
		<path id="XMLID_758_" class="st3" d="M361.7,845.6c0.4,0.2,0.8,0.2,1.2,0.2c0.3,0,0.5-0.3,0.3-0.6c-0.2-0.3-0.4-0.8-0.8-1.1
			c-0.7-0.6-1.1-0.1-1.3,0.3C360.8,844.8,360.9,845.2,361.7,845.6z"/>
		<path id="XMLID_757_" class="st8" d="M361.8,845.5c0.3,0.2,0.6,0.2,0.9,0.1c0.2,0,0.3-0.2,0.2-0.5c-0.1-0.2-0.3-0.6-0.6-0.8
			c-0.5-0.4-0.8,0-0.9,0.2C361.2,844.9,361.2,845.2,361.8,845.5z"/>
		<path id="XMLID_754_" class="st9" d="M361.8,845c0.2,0.1,0.3,0.1,0.5,0.1c0.1,0,0.2-0.1,0.1-0.2c-0.1-0.1-0.2-0.3-0.3-0.4
			c-0.3-0.2-0.4,0-0.5,0.1C361.5,844.7,361.5,844.8,361.8,845z"/>
		<path id="XMLID_753_" class="st3" d="M372.7,857c-0.9,1.7,0.3,2.1,1.1,2.4c0.8,0.3,1.6,0,2-1.7c0.3-0.9,0.1-1.8,0-2.4
			c-0.2-0.6-0.8-0.8-1.3-0.4C373.9,855.4,373.1,856.1,372.7,857z"/>
		<path id="XMLID_752_" class="st8" d="M373.1,857c-0.7,1.3,0.2,1.6,0.8,1.9c0.6,0.2,1.2,0,1.6-1.3c0.2-0.7,0.1-1.4,0-1.9
			c-0.1-0.5-0.6-0.6-1-0.3C374,855.8,373.4,856.4,373.1,857z"/>
		<path id="XMLID_749_" class="st9" d="M373.6,858.2c0.2,0.1,0.4,0,0.6-0.5c0.1-0.2,0-0.5,0-0.7c0-0.2-0.2-0.2-0.4-0.1
			c-0.2,0.1-0.4,0.3-0.5,0.6C373,858,373.4,858.2,373.6,858.2z"/>
		<path id="XMLID_748_" class="st3" d="M380.6,859.1c-0.2,1.9,1,1.9,1.8,1.9c0.9,0,1.5-0.5,1.4-2.3c-0.1-0.9-0.5-1.7-0.9-2.2
			c-0.4-0.5-1-0.4-1.4,0.1C381.2,857.2,380.8,858.1,380.6,859.1z"/>
		<path id="XMLID_747_" class="st8" d="M381,859c-0.2,1.4,0.7,1.4,1.4,1.4c0.6,0,1.1-0.4,1-1.7c0-0.7-0.3-1.3-0.6-1.6
			c-0.3-0.4-0.8-0.3-1,0.1C381.4,857.7,381.1,858.3,381,859z"/>
		<path id="XMLID_744_" class="st9" d="M381.1,859.6c-0.1,0.5,0.2,0.5,0.5,0.5c0.2,0,0.4-0.1,0.4-0.6c0-0.2-0.1-0.4-0.2-0.6
			c-0.1-0.1-0.3-0.1-0.4,0C381.3,859.1,381.2,859.4,381.1,859.6z"/>
		<path id="XMLID_743_" class="st3" d="M388,859.3c0.1,1.9,1.3,1.6,2.2,1.5c0.8-0.2,1.3-0.8,0.9-2.5c-0.3-0.9-0.8-1.6-1.3-2
			c-0.4-0.4-1.1-0.2-1.3,0.4C388.2,857.3,388,858.3,388,859.3z"/>
		<path id="XMLID_742_" class="st8" d="M388.2,859.3c0.1,1.5,1.1,1.3,1.7,1.2c0.7-0.1,1.1-0.6,0.7-2c-0.2-0.7-0.6-1.2-1-1.6
			c-0.4-0.3-0.9-0.2-1,0.3C388.4,857.7,388.2,858.5,388.2,859.3z"/>
		<path id="XMLID_739_" class="st9" d="M388.7,859.6c0,0.6,0.4,0.5,0.6,0.4c0.2,0,0.4-0.2,0.2-0.7c-0.1-0.3-0.2-0.5-0.4-0.6
			c-0.1-0.1-0.3-0.1-0.4,0.1C388.7,859,388.6,859.3,388.7,859.6z"/>
		<path id="XMLID_738_" class="st3" d="M411.6,831c0-0.7-0.4-1.3-1.9-1.2c-0.8,0-1.4,0.3-1.9,0.7c-0.4,0.3-0.4,0.9,0,1.2
			c0.5,0.3,1.3,0.7,2.1,0.9C411.5,832.7,411.5,831.7,411.6,831z"/>
		<path id="XMLID_737_" class="st3" d="M411.5,824.8c-0.2-0.8-0.9-1.3-2.6-0.7c-0.9,0.3-1.5,0.9-1.9,1.4c-0.4,0.5-0.1,1.1,0.5,1.3
			c0.7,0.2,1.7,0.4,2.7,0.2C412.1,826.8,411.8,825.6,411.5,824.8z"/>
		<path id="XMLID_736_" class="st3" d="M409,819.5c-0.3-0.7-0.8-1.1-2.2-0.5c-0.7,0.3-1.1,0.9-1.4,1.4c-0.3,0.5,0,1,0.5,1.1
			c0.6,0.2,1.4,0.3,2.2,0.1C409.6,821.3,409.3,820.2,409,819.5z"/>
		<path id="XMLID_735_" class="st8" d="M408.6,819.7c-0.2-0.6-0.6-0.9-1.7-0.4c-0.5,0.3-0.9,0.7-1.1,1.1c-0.2,0.4,0,0.8,0.4,0.9
			c0.5,0.1,1.1,0.2,1.7,0C409.1,821.1,408.8,820.3,408.6,819.7z"/>
		<path id="XMLID_732_" class="st9" d="M408.5,820.6c-0.1-0.2-0.2-0.3-0.6-0.1c-0.2,0.1-0.3,0.3-0.4,0.4c-0.1,0.1,0,0.3,0.1,0.3
			c0.2,0,0.4,0.1,0.6,0C408.6,821.1,408.5,820.8,408.5,820.6z"/>
		<path id="XMLID_731_" class="st3" d="M405.8,814.7c1.3-1,0.6-1.7,0.1-2.3c-0.5-0.6-1.2-0.6-2.3,0.5c-0.6,0.6-0.8,1.3-0.9,1.9
			c-0.1,0.5,0.3,0.9,0.9,0.8C404.2,815.5,405,815.3,405.8,814.7z"/>
		<path id="XMLID_730_" class="st8" d="M405.5,814.6c1.1-0.8,0.5-1.4,0.1-1.8c-0.4-0.4-1-0.5-1.8,0.4c-0.4,0.5-0.6,1.1-0.7,1.5
			c-0.1,0.4,0.3,0.7,0.7,0.6C404.2,815.2,404.9,815,405.5,814.6z"/>
		<path id="XMLID_729_" class="st3" d="M401.8,811.2c0.8-1.3-0.1-1.7-0.8-2c-0.7-0.3-1.3-0.1-1.7,1.3c-0.2,0.7-0.2,1.4-0.1,2
			c0.1,0.5,0.6,0.7,1.1,0.3C400.8,812.5,401.4,811.9,401.8,811.2z"/>
		<path id="XMLID_728_" class="st3" d="M408.9,835.2c0.2-0.6-0.1-1.2-1.4-1.4c-0.7-0.1-1.3,0-1.8,0.2c-0.4,0.2-0.5,0.7-0.2,1
			c0.4,0.4,1,0.9,1.7,1.2C408.6,836.7,408.8,835.9,408.9,835.2z"/>
		<path id="XMLID_727_" class="st3" d="M395.3,856.5c1,1.6,1.9,0.8,2.6,0.3c0.7-0.5,0.8-1.3-0.4-2.6c-0.6-0.7-1.4-1-2.1-1.2
			c-0.6-0.2-1.1,0.3-1,1C394.5,854.7,394.8,855.7,395.3,856.5z"/>
		<path id="XMLID_726_" class="st8" d="M395.1,854.6c0.1,0.5,0.2,1.2,0.6,1.8c0.7,1.1,1.3,0.6,1.8,0.2c0.5-0.4,0.6-0.9-0.3-1.8
			c-0.4-0.5-1-0.7-1.4-0.8C395.3,853.9,395,854.2,395.1,854.6z"/>
		<path id="XMLID_723_" class="st9" d="M395.8,856c0,0.2,0.1,0.5,0.3,0.7c0.3,0.5,0.6,0.2,0.8,0.1c0.2-0.2,0.2-0.4-0.1-0.8
			c-0.2-0.2-0.4-0.3-0.6-0.3C396,855.6,395.8,855.8,395.8,856z"/>
		<path id="XMLID_722_" class="st3" d="M401.3,847.9c-0.9-0.3-1.8-0.2-2.4,0c-0.6,0.1-0.8,0.8-0.4,1.3c0.5,0.6,1.1,1.4,2,1.8
			c1.7,0.9,2.1-0.2,2.4-1C403.3,849.2,403.1,848.4,401.3,847.9z"/>
		<path id="XMLID_721_" class="st8" d="M402.5,849.7L402.5,849.7L402.5,849.7c0.1-0.2,0-0.5-0.1-0.6c-0.2-0.2-0.7-0.4-1.6-0.7
			c-0.5-0.2-1.1-0.2-1.6-0.2c-0.4,0-0.7,0.5-0.3,0.8c0.5,0.6,1.2,1.1,2,1.5c0.3,0.2,0.5,0.3,0.7,0.3c0.2,0.1,0.5,0,0.6-0.2
			C402.3,850.3,402.4,850,402.5,849.7z"/>
		<path id="XMLID_718_" class="st9" d="M402,850.2L402,850.2L402,850.2c0-0.1,0-0.2-0.1-0.2c-0.1-0.1-0.3-0.2-0.6-0.3
			c-0.2-0.1-0.4-0.1-0.6-0.1c-0.2,0-0.2,0.2-0.1,0.3c0.2,0.2,0.4,0.4,0.7,0.6c0.1,0.1,0.2,0.1,0.3,0.1c0.1,0,0.2,0,0.2-0.1
			C402,850.4,402,850.2,402,850.2z"/>
		<path id="XMLID_717_" class="st8" d="M365.7,854.8c-0.7,1.4,0.2,1.7,0.9,1.9c0.7,0.3,1.3,0,1.7-1.4c0.2-0.7,0.1-1.4,0-1.9
			c-0.1-0.5-0.7-0.6-1.1-0.3C366.6,853.5,366,854.1,365.7,854.8z"/>
		<path id="XMLID_714_" class="st9" d="M366.2,856c0.2,0.1,0.5,0,0.6-0.5c0.1-0.3,0-0.5,0-0.7c-0.1-0.2-0.2-0.2-0.4-0.1
			c-0.2,0.1-0.4,0.3-0.5,0.6C365.7,855.8,366,855.9,366.2,856z"/>
		<path id="XMLID_713_" class="st8" d="M355.3,828.4c-0.4-0.1-0.9-0.1-1.4,0.1c-1,0.3-0.7,0.9-0.5,1.3c0.2,0.4,0.5,0.6,1.4,0.2
			c0.4-0.2,0.7-0.6,0.9-0.9C355.9,828.7,355.7,828.4,355.3,828.4z"/>
		<path id="XMLID_710_" class="st9" d="M354.4,828.6c-0.2,0-0.4,0-0.7,0c-0.5,0.1-0.3,0.4-0.3,0.6c0.1,0.2,0.3,0.3,0.7,0.1
			c0.2-0.1,0.4-0.3,0.4-0.4C354.6,828.8,354.6,828.6,354.4,828.6z"/>
		<path id="XMLID_709_" class="st8" d="M355.5,822.1c-0.4-0.3-0.9-0.6-1.5-0.7c-1.2-0.3-1.2,0.5-1.3,1c-0.1,0.5,0.2,1,1.4,1
			c0.6,0,1.1-0.2,1.4-0.4C355.8,822.7,355.8,822.3,355.5,822.1z"/>
		<path id="XMLID_708_" class="st8" d="M376.8,800.9c-0.2-1.5-1.1-1.2-1.7-1.1c-0.7,0.2-1,0.7-0.6,2c0.2,0.7,0.7,1.2,1.1,1.5
			c0.4,0.3,0.9,0.1,1-0.4C376.7,802.4,376.9,801.7,376.8,800.9z"/>
		<path id="XMLID_707_" class="st8" d="M383.2,801c0.4-1-0.3-1.2-0.8-1.4c-0.5-0.2-0.9,0-1.1,1.1c-0.1,0.5,0,1,0.1,1.4
			c0.1,0.3,0.5,0.4,0.8,0.2C382.6,801.9,383,801.5,383.2,801z"/>
		<path id="XMLID_706_" class="st8" d="M411,831c0-0.5-0.3-0.9-1.4-0.9c-0.6,0-1,0.2-1.4,0.5c-0.3,0.2-0.3,0.6,0,0.8
			c0.4,0.2,0.9,0.5,1.5,0.6C410.9,832.3,411,831.6,411,831z"/>
		<path id="XMLID_705_" class="st8" d="M411.1,825c-0.2-0.7-0.7-1-2.1-0.5c-0.7,0.3-1.2,0.7-1.5,1.2c-0.3,0.4-0.1,0.9,0.4,1
			c0.6,0.2,1.4,0.3,2.2,0.2C411.6,826.6,411.3,825.6,411.1,825z"/>
		<path id="XMLID_702_" class="st9" d="M410.9,825.6c-0.1-0.3-0.3-0.4-0.8-0.2c-0.3,0.1-0.5,0.3-0.6,0.5c-0.1,0.2,0,0.4,0.2,0.4
			c0.2,0.1,0.5,0.1,0.9,0.1C411.1,826.3,410.9,825.9,410.9,825.6z"/>
		<path id="XMLID_701_" class="st8" d="M408.5,835.1c0.1-0.5-0.1-0.9-1-1.1c-0.5-0.1-1,0-1.3,0.2c-0.3,0.1-0.4,0.5-0.1,0.7
			c0.3,0.3,0.7,0.7,1.2,0.9C408.2,836.2,408.4,835.6,408.5,835.1z"/>
		<path id="XMLID_700_" class="st8" d="M401.7,811.1c0.6-1-0.1-1.3-0.6-1.5c-0.5-0.2-0.9-0.1-1.3,1c-0.2,0.5-0.1,1-0.1,1.4
			c0.1,0.4,0.5,0.5,0.8,0.2C400.9,812,401.4,811.6,401.7,811.1z"/>
		<path id="XMLID_697_" class="st9" d="M401.3,810.2c-0.2-0.1-0.4,0-0.6,0.4c-0.1,0.2-0.1,0.5,0,0.7c0,0.2,0.2,0.2,0.4,0.1
			c0.2-0.1,0.4-0.3,0.5-0.5C401.8,810.4,401.5,810.3,401.3,810.2z"/>
		<path id="XMLID_694_" class="st9" d="M405.7,813.2c-0.2-0.2-0.4-0.2-0.7,0.1c-0.2,0.2-0.3,0.4-0.3,0.6c0,0.2,0.1,0.3,0.3,0.3
			c0.2,0,0.5-0.1,0.7-0.3C406,813.6,405.8,813.4,405.7,813.2z"/>
		<path id="XMLID_691_" class="st9" d="M407.9,835.4c0.1-0.2,0-0.4-0.4-0.4c-0.2,0-0.4,0-0.5,0.1c-0.1,0.1-0.1,0.2,0,0.3
			c0.1,0.1,0.3,0.3,0.5,0.3C407.8,835.8,407.9,835.5,407.9,835.4z"/>
		<path id="XMLID_688_" class="st9" d="M410.5,831.7c0-0.2-0.1-0.4-0.6-0.4c-0.2,0-0.4,0.1-0.6,0.2c-0.1,0.1-0.1,0.3,0,0.3
			c0.2,0.1,0.4,0.2,0.6,0.3C410.5,832.2,410.5,831.9,410.5,831.7z"/>
		<path id="XMLID_685_" class="st9" d="M354,821.8c-0.1-0.1-0.3-0.2-0.5-0.2c-0.4-0.1-0.4,0.1-0.4,0.3c0,0.2,0.1,0.3,0.4,0.3
			c0.2,0,0.3-0.1,0.5-0.1C354.1,822,354.1,821.9,354,821.8z"/>
		<path id="XMLID_682_" class="st9" d="M356.7,814.2c-0.1-0.1-0.2-0.3-0.4-0.4c-0.3-0.2-0.4,0-0.5,0.2c-0.1,0.2,0,0.3,0.3,0.4
			c0.2,0.1,0.3,0,0.5,0C356.7,814.4,356.8,814.3,356.7,814.2z"/>
		<path id="XMLID_679_" class="st9" d="M362,809c0-0.1-0.1-0.3-0.3-0.5c-0.3-0.3-0.4-0.1-0.5,0c-0.1,0.1-0.1,0.3,0.2,0.5
			c0.2,0.1,0.3,0.1,0.4,0.1C362,809.2,362.1,809.1,362,809z"/>
		<path id="XMLID_676_" class="st9" d="M369.1,804.6c0-0.2,0-0.4-0.2-0.7c-0.2-0.4-0.5-0.3-0.6-0.1c-0.2,0.1-0.3,0.3,0,0.7
			c0.1,0.2,0.3,0.3,0.5,0.3C369,804.9,369.1,804.8,369.1,804.6z"/>
		<path id="XMLID_673_" class="st9" d="M376.3,800.7c-0.1-0.5-0.4-0.4-0.6-0.3c-0.2,0.1-0.3,0.2-0.2,0.7c0.1,0.2,0.2,0.4,0.4,0.5
			c0.1,0.1,0.3,0,0.3-0.1C376.3,801.2,376.4,800.9,376.3,800.7z"/>
		<path id="XMLID_670_" class="st9" d="M383.1,800.5c0.2-0.5-0.1-0.5-0.4-0.6c-0.2,0-0.4,0.1-0.5,0.5c0,0.2,0,0.5,0.1,0.6
			c0.1,0.2,0.2,0.2,0.4,0C382.8,801,383,800.8,383.1,800.5z"/>
		<path id="XMLID_667_" class="st9" d="M386.8,802.9c0.2-0.3,0-0.4-0.1-0.5c-0.1-0.1-0.3-0.1-0.4,0.2c-0.1,0.2-0.1,0.3-0.1,0.4
			c0,0.1,0.1,0.2,0.2,0.1C386.6,803.1,386.7,803.1,386.8,802.9z"/>
	</g>
	<g id="XMLID_794_">
		<g id="XMLID_917_">
			<path id="XMLID_921_" class="st0" d="M857.6,649.6c11.3-2.5,20.1-10.9,25.1-17.6c5-6.6,9.4-18,5.7-34.7
				c-3.7-16.6-15.3-24.3-30.9-28.3c-15.7-3.9-27.8,3.5-38.7,14.1c-10.9,10.7-13.4,32.5,0.1,51.2
				C832.3,653.1,857.6,649.6,857.6,649.6z"/>
			<path id="XMLID_918_" class="st1" d="M814.5,637.5c6.3,8.8,15.9,14.5,27.8,16.7c8.7,1.6,15.7,0.7,16,0.6l0.2,0l0.2,0
				c13.9-3.1,23.6-13.5,28.2-19.5c2.8-3.6,4.9-7.8,6.2-12.4c2.4-8,2.5-16.9,0.4-26.6c-2-9-6.3-16.3-12.7-21.7
				c-5.6-4.7-12.8-8.1-22.1-10.5c-8.4-2.1-16.6-1.5-24.5,1.9c-6.4,2.7-12.5,7-19.2,13.6c-4,4-7.1,9.2-8.9,15.2l5,1.5l-5-1.5
				c-2,6.5-2.3,13.8-1.1,21C806.5,623.3,809.7,630.7,814.5,637.5z M811.2,596.1c1.5-5.1,4.1-9.6,7.5-12.9
				c10.9-10.7,23.1-18,38.7-14.1c15.6,3.9,27.2,11.6,30.9,28.3c2.2,9.7,1.6,17.7-0.3,23.9c-1.3,4.4-3.3,8-5.4,10.7
				c-5.1,6.6-13.9,15.1-25.1,17.6c0,0-25.3,3.5-38.8-15.2C809.6,621.6,807.8,607.3,811.2,596.1z"/>
		</g>
		<path id="XMLID_916_" class="st2" d="M817.4,628c2.3,5,11.6,15.7,23.7,19.2c12,3.4,27.1-4.4,27.1-4.4c9.1-6.4,13.5-13.4,12.6-15.2
			c-0.9-1.8-2.5-3.4-0.7-3.6c1.8-0.2,6.4-1,6.7-12.1c0.3-11.1-6.9-24.5-9.6-28.9c-2.7-4.4-7.4-5.3-9-4.2c-1.5,1.1-2.7,1.2-3-0.3
			c-0.3-1.5-1-5.2-5.8-7.5c-4.8-2.3-24.6-1.4-38.1,11.3c-13.5,12.7-8.4,31.4-7.7,33.4c0.7,2,5.3,2,6,3.2
			C820.4,620.1,815.1,623.1,817.4,628z"/>
		<path id="XMLID_915_" class="st3" d="M821.1,618.7c0.3,1.1-0.4,2-1.1,2.9c-1,1.3-2.2,3-1.6,5.1c0.1,0.2,0.2,0.5,0.3,0.7
			c1,2.1,3.6,5.9,7.9,9.7c3.3,3,8.5,6.9,14.9,8.7c5.9,1.7,12.6,0.4,17.3-0.9c4.7-1.4,8.2-3.1,8.8-3.4c3.7-2.6,7-5.6,9.3-8.5
			c2.1-2.7,2.7-4.4,2.7-4.9c-0.2-0.4-0.4-0.8-0.7-1.2c-0.4-0.6-0.7-1.1-0.9-1.7c-0.2-0.8,0-1.4,0.2-1.7c0.4-0.5,0.9-0.8,1.8-0.9
			c1.3-0.1,5.2-0.6,5.4-10.8c0.1-3.2-0.5-6.9-1.7-11c-2.5-8.4-6.8-15.7-7.7-17.1c-1.8-3-4.4-3.7-5.2-3.9c-0.9-0.2-1.6-0.1-1.7,0.1
			c-1.3,1-2.5,1.3-3.5,1c-0.8-0.3-1.3-0.9-1.6-1.7c0-0.1-0.1-0.3-0.1-0.4c-0.1-0.4-0.1-0.7-0.3-1.2c-0.7-2.3-2.3-4.1-4.7-5.2
			c-2.1-1-8-1.3-14.9,0.1c-3.9,0.8-7.6,2.1-11,3.7c-4,1.9-7.6,4.3-10.6,7.2c-12.8,11.9-8,29.5-7.4,31.5c0.1,0.2,0.1,0.3,0.1,0.4
			c0,0.1,0.2,0.3,0.7,0.5c0.6,0.3,1.3,0.5,2,0.7c1.4,0.4,2.6,0.8,3.2,1.7C821,618.4,821.1,618.5,821.1,618.7z"/>
		<path id="XMLID_914_" class="st4" d="M835.2,612.6c1.9,3.6-4.5,6.4-7.6,7.7c-3.1,1.3-6,4.8-4.8,7.6c1.1,2.4,4.2,5.4,6.9,8.2
			c4.8,4.9,14.8,6.7,18.4,7c9.9,0.8,16.8-3.4,22.2-6.6c5.5-3.2,6.5-8.5,5.9-10.5c-0.6-2-4.1-4.4-6.8-4.7c-2.7-0.4-5.1-0.9-5.9-2.5
			c-0.9-1.6,0.8-3.5,3.6-2.5c2.7,1.1,13.9,3.8,15.1,1.4c1.3-2.4,1.2-6.7,1.3-9.3c0.2-4-1.2-6.7-2.9-10.8c-2.3-5.5-1.9-3.3-4-7.5
			c-2-4.1-4.3-7.4-7.9-6.6c-1.5,0.4-5.3,2.2-8.1,6.5c-2.7,4.3-3.8,4.6-4.5,2.8c-0.7-1.8,3.4-7.5,3.6-10.4c0.2-2.9-1-4.9-5.4-7.4
			c-3-1.7-13-0.2-17.8,1.8c-4.8,1.9-14.4,10.4-16.5,13.5c-2.1,3.1-2.9,8.9-2.8,12.5c0.1,3.6-0.8,7.7,2.4,10.3
			c3.2,2.6,9.7-0.7,12.5-1.3C834.9,611.2,835.2,612.6,835.2,612.6z"/>
		<g id="XMLID_912_">
			<path id="XMLID_913_" class="st5" d="M833.8,624.2c3.5-1.9,10.7-4.2,8.6-7.5c-1-1.5-3.1-0.8-8,1.5c-4.8,2.3-12.7,6.3-9.7,10.4
				c2.9,4.1,4.5,6,8.6,8.8c4.1,2.7,20.8,5.3,24.8,3.8c4-1.5,17.7-7.3,16.7-13.5c-1-6.2-7.8-4.2-9.5-5.9c-1.7-1.7-8.9-6.4-10-4.4
				c-1.1,2,6.7,4.8,7.6,7.2c0.9,2.3-2,7.8-5.6,8.2c-3.6,0.4-16.9-0.3-19.5-1.6C835.1,629.8,830.2,626.1,833.8,624.2z"/>
		</g>
		<g id="XMLID_910_">
			<path id="XMLID_911_" class="st6" d="M831.8,626.7c-0.2-0.8-0.3-2.2,1.6-3.2c0.7-0.4,1.6-0.8,2.4-1.2c2.8-1.3,6.5-3,6-4.7
				c0-0.1-0.1-0.3-0.2-0.4c-0.2-0.3-0.5-0.6-1.7-0.3c-1.2,0.3-2.9,1-5.2,2.1c-2.3,1.1-5,2.5-7.1,4c-2.2,1.7-3.2,3.2-2.8,4.4
				c0.1,0.3,0.2,0.5,0.4,0.8c2.8,4,4.4,5.9,8.4,8.6c1.8,1.2,6.5,2.5,12.1,3.4c5.5,0.8,10.3,1,11.9,0.3c7.9-3,16.9-8.1,16.2-12.6
				c0-0.3-0.1-0.6-0.2-0.8c-0.8-2.8-3.3-3.1-5.6-3.5c-1.4-0.2-2.7-0.4-3.4-1.2c-0.6-0.6-2.3-1.9-4.2-3c-2-1.2-3.6-1.8-4.4-1.7
				c0,0-0.2,0-0.2,0.1c0,0,0,0,0,0.1c0.2,0.7,2.1,1.9,3.4,2.7c1.9,1.2,3.8,2.4,4.2,3.7c0,0.1,0,0.1,0.1,0.2v0
				c0.4,1.5-0.1,3.7-1.4,5.7c-1.3,2-3.1,3.3-4.9,3.5c-3.7,0.4-17.1-0.3-19.9-1.7C835.7,631.1,832.5,629,831.8,626.7z"/>
		</g>
		<path id="XMLID_909_" class="st5" d="M851.6,585c0.2,4.1-4.8,7.1-4,10.1c0.7,3,3,3.3,6.2-3.2c3.2-6.5,5.7-13.7-1.3-15
			c-7.1-1.3-13.1-1.4-20.4,4.1c-7.3,5.6-13,9.3-13.6,17.7c-0.6,8.4-1.9,11,1.7,13.2c3.6,2.2,9.3-1.6,12.4-2.1
			c3.1-0.6,5.5-0.9,5.9-3.3c0.4-2.6-5.9-1.9-9.3-1.4c-3.4,0.5-3.4-2.4-1.9-6.5c1.5-4.1,7.5-8.9,13.9-11.8
			C847.7,584,851.4,581,851.6,585z"/>
		<path id="XMLID_908_" class="st6" d="M852.3,583.8L852.3,583.8c0.1,0.3,0.2,0.7,0.2,1.1c0.1,2.3-1.2,4.3-2.4,6
			c-1,1.5-1.9,2.8-1.6,3.9c0,0.1,0,0.2,0.1,0.3c0.2,0.7,0.5,1.1,0.8,1.1c0.1,0,1.4,0,3.8-4.8c1.7-3.3,3.8-8.1,2.9-11.1
			c-0.4-1.5-1.6-2.4-3.7-2.8c-2.9-0.5-6.4-1-9.8-0.5c-3.4,0.5-6.6,2-9.9,4.5c-0.5,0.4-1,0.8-1.6,1.2c-6.5,5-11.2,8.5-11.7,16
			c-0.1,1.8-0.3,3.3-0.4,4.6c-0.3,2.7-0.5,4.5-0.1,5.7c0.2,0.9,0.8,1.5,1.8,2.1c2.2,1.3,5.6,0,8.3-1.1c1.3-0.5,2.5-1,3.5-1.2l0.3,0
			c3.1-0.6,4.7-0.9,5-2.5c0-0.1,0-0.2,0-0.2c0-0.1-0.3-0.7-2.9-0.7c-1.8,0-3.9,0.3-5.5,0.5c-2.6,0.4-3.4-1-3.7-1.9
			c-0.4-1.3-0.1-3.2,0.9-5.7c0.8-2.1,2.6-4.4,5.4-6.7c2.6-2.1,5.8-4.1,9-5.6c1.4-0.6,2.6-1.2,3.7-1.8c3.1-1.5,5.1-2.5,6.5-1.9
			C851.7,582.7,852.1,583.1,852.3,583.8z"/>
		<path id="XMLID_907_" class="st5" d="M859.3,610.2c0.1,3.2,5.4,3.3,7.8,4.8c2.4,1.5,6.3,1.2,8.4,1.8c2,0.6,6.5-0.7,6.2-3.7
			c-0.2-3,1.4-6.8-0.2-9.4c-1.7-2.7-1.3-1.1-3.8-7.7c-2.5-6.6-4.9-11.2-8.4-10.5c-3.6,0.7-9.5,8.5-11.5,12c-2,3.5-2,6.4,0.2,5.2
			c2.2-1.2,5.9-8.6,8.4-8.6c2.5-0.1,6.1,2.8,5.5,5.9c-0.6,3.1,4.9,12.5-3.8,11.4C867.5,611.3,859.2,607.1,859.3,610.2z"/>
		<path id="XMLID_906_" class="st6" d="M862.9,610.3c-2.1-0.6-2.7-0.4-2.8-0.3c0,0-0.1,0,0,0.2c0,0.2,0,0.3,0.1,0.4
			c0.4,1.2,2.3,1.8,4.1,2.4c1.2,0.4,2.4,0.7,3.2,1.3c1.4,0.9,3.5,1.1,5.3,1.3c1.1,0.1,2.1,0.2,2.9,0.4c1.1,0.3,3.1,0,4.3-1
			c0.7-0.5,1-1.2,0.9-1.9c-0.1-1.2,0.1-2.4,0.3-3.6c0.2-1.6,0.4-3.2,0-4.5c-0.1-0.3-0.2-0.7-0.4-0.9c-0.4-0.7-0.7-1.1-1-1.4
			c-0.7-1-1.1-1.5-2.9-6.4c-1-2.6-2.3-5.8-3.7-7.8c-1.7-2.3-3-2.3-3.8-2.2c-3.1,0.6-8.9,8-11,11.6c-1.3,2.2-1.5,3.7-1.4,4.2
			c0,0,0,0,0,0c0.1,0,0.2-0.1,0.4-0.2c0.8-0.4,2-2.1,3.1-3.6c1.9-2.6,3.8-5.1,5.6-5.1c2.6-0.1,5.5,2.1,6.2,4.7
			c0.2,0.7,0.3,1.5,0.1,2.2c-0.1,0.7,0.2,2.1,0.5,3.4c0.6,2.7,1.3,5.7-0.3,7.5c-1,1.1-2.6,1.5-4.9,1.2c-0.2,0-0.4-0.1-1.2-0.4
			C865.8,611.3,864.3,610.7,862.9,610.3z"/>
		<path id="XMLID_905_" class="st7" d="M844.2,616.2c0.3,0.8-0.5,2.2-2.9,6.7c-2.3,4.4,6.9,3.5,12.2,3.2c5.3-0.3,6-3.2,2.8-4.8
			c0,0-4.2-3.6-2.4-5.7c1.4-1.6,12,3.4,16.6,5.9c4.6,2.4,5.1,0,5.1-2c0.1-2.1-12.4-3.8-15.4-5.8c-1.9-1.2-4.5-3.1-3.4-4.4
			c1.7-2.2,5.6-1.3,8.1-1.6c2.5-0.4,2.3-2.7,1.4-5.7c-1.3-4.5-5.8,0.1-7.5,2.2c-1.7,2.1-4.1,0.1-5.1-2c-1-2.1,8.7-13.2,10.2-16
			c1.5-2.8-2-4.2-3.5-3.8c-2.2,0.6-5.2,11.6-9.2,16.1c-2,2.3-6.7,2.4-7-0.7c-0.3-3.1,1.6-5.8-1.5-6.1c-3.4-0.4-10.2,6.9-9.6,8.8
			c0.7,1.9,5.2,2.4,7.4,3.7c2.6,1.5,1.8,3.4,0.4,5.4c-0.9,1.3-14.6,4.6-16.3,5.5c-1.7,0.9-1.9,1.7-0.2,3.9
			c1.7,2.3,13.4-3.3,16.2-4.8C843.5,612.7,844.2,616.2,844.2,616.2z"/>
		<path id="XMLID_904_" class="st3" d="M845,580c-0.2-1.9-1.4-1.6-2.3-1.4c-0.8,0.2-1.3,0.8-0.8,2.6c0.3,0.9,0.9,1.5,1.4,2
			c0.5,0.4,1.1,0.2,1.3-0.5C844.9,582,845.1,581,845,580z"/>
		<path id="XMLID_903_" class="st3" d="M851.7,580.1c0.6-1.4-0.3-1.6-1-1.9c-0.7-0.2-1.3,0-1.6,1.4c-0.1,0.7,0,1.4,0.2,1.9
			c0.2,0.5,0.7,0.6,1.1,0.2C850.8,581.4,851.4,580.8,851.7,580.1z"/>
		<path id="XMLID_902_" class="st3" d="M855.1,582.4c0.9-0.7,0.4-1.2,0-1.6c-0.4-0.4-0.9-0.4-1.6,0.4c-0.4,0.4-0.5,0.9-0.6,1.3
			c-0.1,0.4,0.3,0.6,0.6,0.6C854,582.9,854.6,582.7,855.1,582.4z"/>
		<path id="XMLID_901_" class="st8" d="M854.8,582.3c0.7-0.5,0.3-1,0-1.3c-0.3-0.3-0.7-0.3-1.2,0.3c-0.3,0.3-0.4,0.7-0.5,1.1
			c0,0.3,0.2,0.5,0.5,0.4C854,582.7,854.5,582.6,854.8,582.3z"/>
		<path id="XMLID_900_" class="st3" d="M838.4,585.7c0-0.8-0.2-1.8-0.6-2.7c-0.9-1.7-1.9-1-2.6-0.5c-0.7,0.5-1,1.3,0.2,2.7
			c0.6,0.7,1.4,1.2,2,1.4C837.9,586.8,838.4,586.4,838.4,585.7z"/>
		<path id="XMLID_899_" class="st8" d="M838,585c0-0.6-0.1-1.4-0.5-2c-0.7-1.3-1.4-0.8-2-0.4c-0.6,0.4-0.7,1,0.1,2.1
			c0.5,0.5,1,0.9,1.5,1C837.6,585.8,838,585.5,838,585z"/>
		<path id="XMLID_898_" class="st3" d="M831.9,589.9c-0.2-0.7-0.5-1.7-1.1-2.5c-1.2-1.5-2-0.7-2.7,0c-0.6,0.6-0.7,1.4,0.7,2.6
			c0.7,0.6,1.6,0.9,2.2,1C831.6,591.1,832.1,590.6,831.9,589.9z"/>
		<path id="XMLID_897_" class="st8" d="M831.5,589.7c-0.1-0.6-0.4-1.3-0.9-1.9c-0.9-1.1-1.6-0.5-2,0c-0.5,0.5-0.5,1.1,0.5,2
			c0.5,0.5,1.2,0.7,1.7,0.7C831.2,590.6,831.6,590.2,831.5,589.7z"/>
		<path id="XMLID_896_" class="st3" d="M826.9,594.9c-0.3-0.7-0.8-1.6-1.5-2.3c-1.4-1.3-2.1-0.3-2.6,0.4c-0.5,0.7-0.5,1.5,1.1,2.5
			c0.8,0.5,1.7,0.6,2.3,0.6C826.9,596.1,827.2,595.5,826.9,594.9z"/>
		<path id="XMLID_895_" class="st8" d="M826.5,594.8c-0.2-0.6-0.6-1.3-1.2-1.8c-1.1-1-1.7-0.2-2.1,0.3c-0.4,0.6-0.4,1.2,0.9,2
			c0.6,0.4,1.3,0.5,1.9,0.5C826.4,595.7,826.7,595.3,826.5,594.8z"/>
		<path id="XMLID_894_" class="st3" d="M823.9,600.9c-0.5-0.4-1.2-0.8-2-1c-1.5-0.3-1.6,0.7-1.7,1.4c-0.1,0.7,0.3,1.3,1.8,1.3
			c0.8,0,1.4-0.2,1.9-0.5C824.4,601.8,824.4,601.3,823.9,600.9z"/>
		<path id="XMLID_893_" class="st3" d="M823.9,607.1c-0.6-0.1-1.3-0.1-2,0.1c-1.3,0.4-1,1.2-0.7,1.8c0.2,0.6,0.8,0.9,2,0.2
			c0.6-0.3,1-0.8,1.3-1.2C824.6,607.6,824.4,607.2,823.9,607.1z"/>
		<path id="XMLID_892_" class="st3" d="M833.5,633.7c-0.8,1.7,0.3,2.1,1.1,2.4c0.8,0.3,1.6,0,2.1-1.7c0.2-0.9,0.1-1.7,0-2.4
			c-0.2-0.6-0.8-0.8-1.3-0.4C834.7,632.1,834,632.8,833.5,633.7z"/>
		<path id="XMLID_891_" class="st3" d="M828,630c0.3,0.6,0.9,0.9,2.1,0.1c0.6-0.4,1-1,1.2-1.4c0.2-0.4-0.1-0.9-0.6-0.9
			c-0.6,0-1.4,0-2.1,0.3C827.2,628.6,827.7,629.4,828,630z"/>
		<path id="XMLID_890_" class="st8" d="M828.3,629.8c0.3,0.5,0.7,0.6,1.6,0.1c0.4-0.3,0.7-0.7,0.9-1.1c0.1-0.3-0.1-0.7-0.5-0.7
			c-0.4,0-1,0-1.5,0.2C827.7,628.8,828.1,629.4,828.3,629.8z"/>
		<path id="XMLID_887_" class="st9" d="M828.4,629.4c0.1,0.2,0.3,0.3,0.7,0c0.2-0.1,0.3-0.3,0.4-0.5c0.1-0.1,0-0.3-0.2-0.3
			c-0.2,0-0.5,0-0.7,0.1C828.1,628.9,828.3,629.2,828.4,629.4z"/>
		<path id="XMLID_886_" class="st3" d="M829.7,624.6c0.4,0.2,0.8,0.2,1.2,0.2c0.3,0,0.5-0.3,0.3-0.6c-0.2-0.3-0.4-0.8-0.8-1.1
			c-0.7-0.6-1.1-0.1-1.3,0.3C828.9,623.8,828.9,624.2,829.7,624.6z"/>
		<path id="XMLID_885_" class="st8" d="M829.9,624.5c0.3,0.2,0.6,0.2,0.9,0.1c0.2,0,0.3-0.2,0.2-0.5c-0.1-0.2-0.3-0.6-0.6-0.8
			c-0.5-0.4-0.8,0-0.9,0.2C829.2,623.9,829.3,624.2,829.9,624.5z"/>
		<path id="XMLID_882_" class="st9" d="M829.9,624c0.2,0.1,0.3,0.1,0.5,0.1c0.1,0,0.2-0.1,0.1-0.2c-0.1-0.1-0.2-0.3-0.3-0.4
			c-0.3-0.2-0.4,0-0.5,0.1C829.6,623.7,829.6,623.8,829.9,624z"/>
		<path id="XMLID_881_" class="st3" d="M840.8,636c-0.9,1.7,0.3,2.1,1.1,2.4c0.8,0.3,1.6,0,2-1.7c0.3-0.9,0.1-1.8,0-2.4
			c-0.2-0.6-0.8-0.8-1.3-0.4C841.9,634.4,841.2,635.1,840.8,636z"/>
		<path id="XMLID_880_" class="st8" d="M841.1,636c-0.7,1.3,0.2,1.6,0.8,1.9c0.6,0.2,1.2,0,1.6-1.3c0.2-0.7,0.1-1.4,0-1.9
			c-0.1-0.5-0.6-0.6-1-0.3C842.1,634.8,841.5,635.4,841.1,636z"/>
		<path id="XMLID_877_" class="st9" d="M841.7,637.2c0.2,0.1,0.4,0,0.6-0.5c0.1-0.2,0-0.5,0-0.7c0-0.2-0.2-0.2-0.4-0.1
			c-0.2,0.1-0.4,0.3-0.5,0.6C841.1,637,841.4,637.1,841.7,637.2z"/>
		<path id="XMLID_876_" class="st3" d="M848.7,638.1c-0.2,1.9,1,1.9,1.8,1.9c0.9,0,1.5-0.5,1.4-2.3c-0.1-0.9-0.5-1.7-0.9-2.2
			c-0.4-0.5-1-0.4-1.4,0.1C849.3,636.2,848.8,637.1,848.7,638.1z"/>
		<path id="XMLID_875_" class="st8" d="M849.1,638c-0.2,1.4,0.7,1.4,1.4,1.4c0.6,0,1.1-0.4,1-1.7c0-0.7-0.3-1.3-0.6-1.6
			c-0.3-0.4-0.8-0.3-1,0.1C849.5,636.6,849.2,637.3,849.1,638z"/>
		<path id="XMLID_872_" class="st9" d="M849.2,638.6c-0.1,0.5,0.2,0.5,0.5,0.5s0.4-0.1,0.4-0.6c0-0.2-0.1-0.4-0.2-0.6
			c-0.1-0.1-0.3-0.1-0.4,0C849.3,638.1,849.2,638.4,849.2,638.6z"/>
		<path id="XMLID_871_" class="st3" d="M856.1,638.3c0.1,1.9,1.3,1.6,2.2,1.5c0.8-0.2,1.3-0.8,0.9-2.5c-0.3-0.9-0.8-1.6-1.3-2
			c-0.4-0.4-1.1-0.2-1.3,0.4C856.3,636.3,856,637.3,856.1,638.3z"/>
		<path id="XMLID_870_" class="st8" d="M856.3,638.3c0.1,1.5,1.1,1.3,1.7,1.2c0.7-0.1,1.1-0.6,0.7-2c-0.2-0.7-0.6-1.2-1-1.6
			c-0.4-0.3-0.9-0.2-1,0.3C856.5,636.7,856.3,637.5,856.3,638.3z"/>
		<path id="XMLID_867_" class="st9" d="M856.7,638.6c0,0.6,0.4,0.5,0.6,0.4c0.2,0,0.4-0.2,0.2-0.7c-0.1-0.3-0.2-0.5-0.4-0.6
			c-0.1-0.1-0.3-0.1-0.4,0.1C856.8,638,856.7,638.3,856.7,638.6z"/>
		<path id="XMLID_866_" class="st3" d="M879.6,610c0-0.7-0.4-1.3-1.9-1.2c-0.8,0-1.4,0.3-1.9,0.7c-0.4,0.3-0.4,0.9,0,1.2
			c0.5,0.3,1.3,0.7,2.1,0.9C879.6,611.7,879.6,610.7,879.6,610z"/>
		<path id="XMLID_865_" class="st3" d="M879.6,603.8c-0.2-0.8-0.9-1.3-2.6-0.7c-0.9,0.3-1.5,0.9-1.9,1.4c-0.4,0.5-0.1,1.1,0.5,1.3
			c0.7,0.2,1.7,0.4,2.7,0.2C880.2,605.8,879.8,604.6,879.6,603.8z"/>
		<path id="XMLID_864_" class="st3" d="M877.1,598.5c-0.3-0.7-0.8-1.1-2.2-0.5c-0.7,0.3-1.1,0.9-1.4,1.4c-0.3,0.5,0,1,0.5,1.1
			c0.6,0.2,1.4,0.3,2.2,0.1C877.7,600.3,877.3,599.2,877.1,598.5z"/>
		<path id="XMLID_863_" class="st8" d="M876.7,598.7c-0.2-0.6-0.6-0.9-1.7-0.4c-0.5,0.3-0.9,0.7-1.1,1.1c-0.2,0.4,0,0.8,0.4,0.9
			c0.5,0.1,1.1,0.2,1.7,0C877.1,600,876.9,599.3,876.7,598.7z"/>
		<path id="XMLID_860_" class="st9" d="M876.6,599.6c-0.1-0.2-0.2-0.3-0.6-0.1c-0.2,0.1-0.3,0.3-0.4,0.4c-0.1,0.1,0,0.3,0.1,0.3
			c0.2,0,0.4,0.1,0.6,0C876.7,600.1,876.6,599.8,876.6,599.6z"/>
		<path id="XMLID_859_" class="st3" d="M873.8,593.7c1.3-1,0.6-1.7,0.1-2.3c-0.5-0.6-1.2-0.6-2.3,0.5c-0.6,0.6-0.8,1.3-0.9,1.9
			c-0.1,0.5,0.3,0.9,0.9,0.8C872.3,594.5,873.1,594.3,873.8,593.7z"/>
		<path id="XMLID_858_" class="st8" d="M873.5,593.6c1.1-0.8,0.5-1.4,0.1-1.8c-0.4-0.4-1-0.5-1.8,0.4c-0.4,0.5-0.6,1.1-0.7,1.5
			c-0.1,0.4,0.3,0.7,0.7,0.6C872.3,594.2,873,594,873.5,593.6z"/>
		<path id="XMLID_857_" class="st3" d="M869.9,590.2c0.8-1.3-0.1-1.7-0.8-2c-0.7-0.3-1.3-0.1-1.7,1.3c-0.2,0.7-0.2,1.4-0.1,2
			c0.1,0.5,0.6,0.7,1.1,0.3C868.9,591.5,869.5,590.9,869.9,590.2z"/>
		<path id="XMLID_856_" class="st3" d="M877,614.2c0.2-0.6-0.1-1.2-1.4-1.4c-0.7-0.1-1.3,0-1.8,0.2c-0.4,0.2-0.5,0.7-0.2,1
			c0.4,0.4,1,0.9,1.7,1.2C876.6,615.7,876.8,614.8,877,614.2z"/>
		<path id="XMLID_855_" class="st3" d="M863.4,635.5c1,1.6,1.9,0.8,2.6,0.3c0.7-0.5,0.8-1.3-0.4-2.6c-0.6-0.7-1.4-1-2.1-1.2
			c-0.6-0.2-1.1,0.3-1,1C862.6,633.7,862.8,634.7,863.4,635.5z"/>
		<path id="XMLID_854_" class="st8" d="M863.1,633.6c0.1,0.5,0.2,1.2,0.6,1.8c0.7,1.1,1.3,0.6,1.8,0.2c0.5-0.4,0.6-0.9-0.3-1.8
			c-0.4-0.5-1-0.7-1.4-0.8C863.4,632.8,863.1,633.2,863.1,633.6z"/>
		<path id="XMLID_851_" class="st9" d="M863.9,635c0,0.2,0.1,0.5,0.3,0.7c0.3,0.5,0.6,0.2,0.8,0.1c0.2-0.2,0.2-0.4-0.1-0.8
			c-0.2-0.2-0.4-0.3-0.6-0.3C864,634.6,863.9,634.8,863.9,635z"/>
		<path id="XMLID_850_" class="st3" d="M869.4,626.8c-0.9-0.3-1.8-0.2-2.4,0c-0.6,0.1-0.8,0.8-0.4,1.3c0.5,0.6,1.1,1.4,2,1.8
			c1.7,0.9,2.1-0.2,2.4-1C871.4,628.2,871.2,627.4,869.4,626.8z"/>
		<path id="XMLID_849_" class="st8" d="M870.6,628.7L870.6,628.7L870.6,628.7c0.1-0.2,0-0.5-0.1-0.6c-0.2-0.2-0.7-0.4-1.6-0.7
			c-0.5-0.2-1.1-0.2-1.6-0.2c-0.4,0-0.7,0.5-0.3,0.8c0.5,0.6,1.2,1.1,2,1.5c0.3,0.2,0.5,0.3,0.7,0.3c0.2,0.1,0.5,0,0.6-0.2
			C870.4,629.3,870.5,629,870.6,628.7z"/>
		<path id="XMLID_846_" class="st9" d="M870.1,629.1L870.1,629.1L870.1,629.1c0-0.1,0-0.2-0.1-0.2c-0.1-0.1-0.3-0.2-0.6-0.3
			c-0.2-0.1-0.4-0.1-0.6-0.1c-0.2,0-0.2,0.2-0.1,0.3c0.2,0.2,0.4,0.4,0.7,0.6c0.1,0.1,0.2,0.1,0.3,0.1c0.1,0,0.2,0,0.2-0.1
			C870,629.4,870.1,629.2,870.1,629.1z"/>
		<path id="XMLID_845_" class="st8" d="M833.7,633.8c-0.7,1.4,0.2,1.7,0.9,1.9c0.7,0.3,1.3,0,1.7-1.4c0.2-0.7,0.1-1.4,0-1.9
			c-0.1-0.5-0.7-0.6-1.1-0.3C834.7,632.5,834.1,633.1,833.7,633.8z"/>
		<path id="XMLID_842_" class="st9" d="M834.3,635c0.2,0.1,0.5,0,0.6-0.5c0.1-0.3,0-0.5,0-0.7c-0.1-0.2-0.2-0.2-0.4-0.1
			c-0.2,0.1-0.4,0.3-0.5,0.6C833.8,634.8,834.1,634.9,834.3,635z"/>
		<path id="XMLID_841_" class="st8" d="M823.4,607.4c-0.4-0.1-0.9-0.1-1.4,0.1c-1,0.3-0.7,0.9-0.5,1.3c0.2,0.4,0.5,0.6,1.4,0.2
			c0.4-0.2,0.7-0.6,0.9-0.9C823.9,607.7,823.8,607.4,823.4,607.4z"/>
		<path id="XMLID_838_" class="st9" d="M822.5,607.6c-0.2,0-0.4,0-0.7,0c-0.5,0.1-0.3,0.4-0.3,0.6c0.1,0.2,0.3,0.3,0.7,0.1
			c0.2-0.1,0.4-0.3,0.4-0.4C822.7,607.7,822.6,607.6,822.5,607.6z"/>
		<path id="XMLID_837_" class="st8" d="M823.5,601.1c-0.4-0.3-0.9-0.6-1.5-0.7c-1.2-0.3-1.2,0.5-1.3,1c-0.1,0.5,0.2,1,1.4,1
			c0.6,0,1.1-0.2,1.4-0.4C823.9,601.7,823.9,601.3,823.5,601.1z"/>
		<path id="XMLID_836_" class="st8" d="M844.9,579.9c-0.2-1.5-1.1-1.2-1.7-1.1c-0.7,0.2-1,0.7-0.6,2c0.2,0.7,0.7,1.2,1.1,1.5
			c0.4,0.3,0.9,0.1,1-0.4C844.8,581.4,845,580.6,844.9,579.9z"/>
		<path id="XMLID_835_" class="st8" d="M851.3,580c0.4-1-0.3-1.2-0.8-1.4c-0.5-0.2-0.9,0-1.1,1.1c-0.1,0.5,0,1,0.1,1.4
			c0.1,0.3,0.5,0.4,0.8,0.2C850.7,580.9,851.1,580.5,851.3,580z"/>
		<path id="XMLID_834_" class="st8" d="M879.1,610c0-0.5-0.3-0.9-1.4-0.9c-0.6,0-1,0.2-1.4,0.5c-0.3,0.2-0.3,0.6,0,0.8
			c0.4,0.2,0.9,0.5,1.5,0.6C879,611.3,879,610.5,879.1,610z"/>
		<path id="XMLID_833_" class="st8" d="M879.2,604c-0.2-0.7-0.7-1-2.1-0.5c-0.7,0.3-1.2,0.7-1.5,1.2c-0.3,0.4-0.1,0.9,0.4,1
			c0.6,0.2,1.4,0.3,2.2,0.2C879.6,605.6,879.4,604.6,879.2,604z"/>
		<path id="XMLID_830_" class="st9" d="M878.9,604.6c-0.1-0.3-0.3-0.4-0.8-0.2c-0.3,0.1-0.5,0.3-0.6,0.5c-0.1,0.2,0,0.4,0.2,0.4
			c0.2,0.1,0.5,0.1,0.9,0.1C879.1,605.3,879,604.9,878.9,604.6z"/>
		<path id="XMLID_829_" class="st8" d="M876.6,614.1c0.1-0.5-0.1-0.9-1-1.1c-0.5-0.1-1,0-1.3,0.2c-0.3,0.1-0.4,0.5-0.1,0.7
			c0.3,0.3,0.7,0.7,1.2,0.9C876.3,615.2,876.4,614.6,876.6,614.1z"/>
		<path id="XMLID_828_" class="st8" d="M869.7,590.1c0.6-1-0.1-1.3-0.6-1.5c-0.5-0.2-0.9-0.1-1.3,1c-0.2,0.5-0.1,1-0.1,1.4
			c0.1,0.4,0.5,0.5,0.8,0.2C869,591,869.5,590.6,869.7,590.1z"/>
		<path id="XMLID_825_" class="st9" d="M869.4,589.2c-0.2-0.1-0.4,0-0.6,0.4c-0.1,0.2-0.1,0.5,0,0.7c0,0.2,0.2,0.2,0.4,0.1
			c0.2-0.1,0.4-0.3,0.5-0.5C869.9,589.4,869.6,589.3,869.4,589.2z"/>
		<path id="XMLID_822_" class="st9" d="M873.8,592.2c-0.2-0.2-0.4-0.2-0.7,0.1c-0.2,0.2-0.3,0.4-0.3,0.6c0,0.2,0.1,0.3,0.3,0.3
			c0.2,0,0.5-0.1,0.7-0.3C874.1,592.6,873.9,592.4,873.8,592.2z"/>
		<path id="XMLID_819_" class="st9" d="M876,614.3c0.1-0.2,0-0.4-0.4-0.4c-0.2,0-0.4,0-0.5,0.1c-0.1,0.1-0.1,0.2,0,0.3
			c0.1,0.1,0.3,0.3,0.5,0.3C875.9,614.8,876,614.5,876,614.3z"/>
		<path id="XMLID_816_" class="st9" d="M878.6,610.7c0-0.2-0.1-0.4-0.6-0.4c-0.2,0-0.4,0.1-0.6,0.2c-0.1,0.1-0.1,0.3,0,0.3
			c0.2,0.1,0.4,0.2,0.6,0.3C878.6,611.2,878.6,610.9,878.6,610.7z"/>
		<path id="XMLID_813_" class="st9" d="M822.1,600.8c-0.1-0.1-0.3-0.2-0.5-0.2c-0.4-0.1-0.4,0.1-0.4,0.3c0,0.2,0.1,0.3,0.4,0.3
			c0.2,0,0.3-0.1,0.5-0.1C822.2,601,822.2,600.9,822.1,600.8z"/>
		<path id="XMLID_810_" class="st9" d="M824.8,593.2c-0.1-0.1-0.2-0.3-0.4-0.4c-0.3-0.2-0.4,0-0.5,0.2c-0.1,0.2,0,0.3,0.3,0.4
			c0.2,0.1,0.3,0,0.5,0C824.8,593.4,824.8,593.3,824.8,593.2z"/>
		<path id="XMLID_807_" class="st9" d="M830.1,588c0-0.1-0.1-0.3-0.3-0.5c-0.3-0.3-0.4-0.1-0.5,0c-0.1,0.1-0.1,0.3,0.2,0.5
			c0.2,0.1,0.3,0.1,0.4,0.1C830.1,588.2,830.2,588.1,830.1,588z"/>
		<path id="XMLID_804_" class="st9" d="M837.2,583.6c0-0.2,0-0.4-0.2-0.7c-0.2-0.4-0.5-0.3-0.6-0.1c-0.2,0.1-0.3,0.3,0,0.7
			c0.1,0.2,0.3,0.3,0.5,0.3C837.1,583.9,837.2,583.8,837.2,583.6z"/>
		<path id="XMLID_801_" class="st9" d="M844.4,579.7c-0.1-0.5-0.4-0.4-0.6-0.3c-0.2,0.1-0.3,0.2-0.2,0.7c0.1,0.2,0.2,0.4,0.4,0.5
			c0.1,0.1,0.3,0,0.3-0.1C844.4,580.2,844.4,579.9,844.4,579.7z"/>
		<path id="XMLID_798_" class="st9" d="M851.1,579.5c0.2-0.5-0.1-0.5-0.4-0.6c-0.2,0-0.4,0.1-0.5,0.5c0,0.2,0,0.5,0.1,0.6
			c0.1,0.2,0.2,0.2,0.4,0C850.9,580,851.1,579.8,851.1,579.5z"/>
		<path id="XMLID_795_" class="st9" d="M854.9,581.9c0.2-0.3,0-0.4-0.1-0.5c-0.1-0.1-0.3-0.1-0.4,0.2c-0.1,0.2-0.1,0.3-0.1,0.4
			c0,0.1,0.1,0.2,0.2,0.1C854.6,582.1,854.8,582.1,854.9,581.9z"/>
	</g>
</g>
</svg>
