<?xml version="1.0" encoding="utf-8"?>
<!-- Generator: Adobe Illustrator 19.0.0, SVG Export Plug-In . SVG Version: 6.00 Build 0)  -->
<svg version="1.1" id="Layer_1" xmlns="http://www.w3.org/2000/svg" xmlns:xlink="http://www.w3.org/1999/xlink" x="0px" y="0px"
	 viewBox="0 0 1000 990.3" style="enable-background:new 0 0 1000 990.3;" xml:space="preserve">
<style type="text/css">
	.st0{fill:#E02130;}
	.st1{opacity:0.46;fill:#A50520;}
	.st2{fill:#D20B1F;}
	.st3{opacity:0.66;fill:#EE8190;}
	.st4{opacity:0.33;fill:#F7E1E4;}
	.st5{fill:#F7E1E4;}
	.st6{fill:#CF2430;}
	.st7{fill:#F8DDE1;}
	.st8{fill:#DB7080;}
	.st9{fill:#ED5265;}
	.st10{fill:#A1C464;}
	.st11{fill:#86AE57;}
	.st12{fill:#6D8F44;}
	.st13{opacity:0.75;fill:#45662F;}
	.st14{fill:#45662F;}
	.st15{fill:#C63647;}
</style>
<g id="XMLID_7780_">
	<g id="XMLID_7832_">
		<path id="XMLID_7860_" class="st0" d="M720.2,458c-36.1-22.8-66.6-24.5-74-25.1c-7.4-0.5-20.9,2.7-21.9,19.4
			c0,0-1.6,13.6-2.1,17.8c-0.5,4.2,4.3,10.6,9.3,12.3c7,2.4,34.3,7.2,40.5,9.2c9.9,3.2,37,15.5,44.9,23.9
			c12.1,12.8,20.6,33.2,23.6,40.2c5.2,12.1,11.8,19.5,18,23.1c3.8,2.3,11.2,2.9,14.1-0.4c2.9-3.2,1.2-3.9-0.7-8.3
			c-1.9-4.3-2.9-24.8-5.3-40.9C764.2,513.1,756.3,480.8,720.2,458z"/>
		<path id="XMLID_7859_" class="st1" d="M763.2,512.8c-5-14-10.7-25.6-22.6-38.5c-15.1-16.4-39.7-28.4-56.6-34
			c-17-5.6-37.7-8.6-41-8.4c-3.3,0.3-6.7,1.7-10.9,5.3c-4.2,3.5-6.3,11.9-6.3,11.9s-1,4.4,1.5,4.2c2.5-0.2,4.4-7,6.2-9.5
			c1.8-2.5,7.9-6.8,26.8-2.1c18.9,4.7,46.5,17.5,61.5,27.9c20.4,14.1,34.4,46.1,36,55.1c1.6,9,7.1,40.5,8.1,44.8
			c1,4.2,3.9,5.8,7.2,3.5c0,0-1.8-3.2-2.8-9.1C769.2,557.3,768.1,526.5,763.2,512.8z"/>
		<path id="XMLID_7858_" class="st2" d="M752.6,513.3c-6.7-14.3-14.4-29-33.1-42.4c-18.6-13.4-66.1-31.3-77.6-28.9
			c-7.8,1.6-10.1,3.2-13,10.4c0,0-0.1,6.4,3.9,12.3c4,6,13,9.6,34.1,14.8c11.5,2.8,27.8,5.5,43.2,14c10.5,5.8,25.3,24.9,30.3,38.4
			c5,13.6,14.9,40.7,19.7,41.8c4.8,1.1,2.5-8.2,1.3-14.3C760.1,553.5,759.3,527.5,752.6,513.3z"/>
		<path id="XMLID_7857_" class="st3" d="M653.3,480.5c-10.3-3.3-15.2-4.9-20.5-11.8c-1.6-2.1-3-6.6-4.8-7.3c-0.9-0.4-2.7,1-3.2,2.6
			c-1.5,4.7,0.4,11.5,4,14.1c7.9,5.7,35.1,9.6,36.1,7.2C665.5,483.9,663.6,483.8,653.3,480.5z"/>
		<path id="XMLID_7856_" class="st3" d="M734.1,520.9c-4-6.7-11.7-15.9-19.9-21.7c-5.1-3.6-8.8-7.1-17.3-9.7
			c-8.6-2.6-13-3.6-13.8-1.5c-0.8,2.1,7.4,4.5,7.4,4.5s18.9,10.3,24.4,16.1c5.9,6.2,16.7,18.8,20.3,26.7
			c3.7,7.9,14.9,35.3,17.9,34.9c3-0.4-3.1-13.2-3.1-13.2S738.7,528.5,734.1,520.9z"/>
		<path id="XMLID_7855_" class="st4" d="M731.6,516.6c-3.2-5.3-9.2-12.5-15.7-17.1c-4-2.9-6.9-5.6-13.7-7.7
			c-6.7-2.1-10.2-2.8-10.9-1.2c-0.7,1.6,5.8,3.6,5.8,3.6s14.9,8.1,19.2,12.7c4.7,4.9,13.2,14.9,16,21.1c2.9,6.2,11.8,27.9,14.1,27.5
			c2.3-0.3-2.5-10.4-2.5-10.4S735.2,522.6,731.6,516.6z"/>
		<path id="XMLID_7854_" class="st5" d="M710.8,498.6c-2.3-1.7-5.9-4.8-6.1-2.2c-0.2,1.9,4.3,2.8,10.9,8.3
			c8.1,6.8,13.8,18.3,14.3,14.7c0.5-3-5.4-9-10.1-13.2C715.1,501.9,710.8,498.6,710.8,498.6z"/>
		<path id="XMLID_7853_" class="st5" d="M700.6,493.2c-2.6-0.6-4.8,0.2-2.1,0.8c2,0.4,4.4,3,5.2,1.9
			C704.6,494.6,700.6,493.2,700.6,493.2z"/>
		<path id="XMLID_7852_" class="st6" d="M714.7,471c-15.9-10.3-65.5-27.3-71.6-26.1c-6.1,1.2-11.1,2.8-9.8,11.7
			c1.3,8.9,15.1,15.2,21.2,16c6.1,0.8,43.7,11.1,54.7,18.2c14.6,9.4,25.9,24.3,35.7,45.8c9.8,21.5,11.5,21.4,12.2,16.5
			c0.8-4.9-2.9-28.8-8.8-41.1C742.4,499.6,730.5,481.3,714.7,471z"/>
		<path id="XMLID_7851_" class="st5" d="M750,562.4c-2.4,1.5,2,8.2,3.1,7.8C755.9,569.2,750.8,561.9,750,562.4z"/>
		<path id="XMLID_7850_" class="st7" d="M627,465c-1.8,2-1.7,6,1.3,7.1c2.8,1,3.3-0.3,2.6-2.6C630.2,467.3,629.7,463.3,627,465z"/>
		<path id="XMLID_7849_" class="st0" d="M660,432.9c-6.5-1.7-23.6-8.5-31.7,9.6c0,0-2.6,6.5-2.3,9.8c0.2,2.1,2.2-5.3,5-9
			c7.7-10.1,12.7-8.2,24.2-7.2c11.6,1,32.9,7.7,46,14.7c13.1,7,27.6,14.3,47.6,33.4c0,0-9.1-12.6-20-20.6
			C717.8,455.6,698.7,443.2,660,432.9z"/>
		<path id="XMLID_7848_" class="st8" d="M670.3,435.5c-2.5-1-16.9-4.9-21.8-5.4c-4.9-0.5-15.3,0.5-19.7,11.6c0,0-4.1,5.5-2.2,5.9
			c1.9,0.5,2.2-5,4.7-9.1c2.5-4.1,11.6-7.3,17.3-6.6C657.5,433.1,672.3,436.3,670.3,435.5z"/>
		<path id="XMLID_7847_" class="st8" d="M701.3,503.8c-14.6-8.6-38.8-15-45.7-16.6c-7-1.6-20.2-3-25.1-5.2
			c-6.9-3.2-8.5-11.4-8.5-11.4c-0.1,5.2,4,11.6,14.7,13.8c7.2,1.5,34.1,8.8,51.1,14.4c17,5.6,23.7,14.7,29.4,20.5
			c5.7,5.9,13.4,19.1,16.4,24.9c4.8,9.1,10.6,18.9,10.6,18.9c-5.7-11.9-5.9-16-13.3-28.4C723.8,522.8,719.8,514.8,701.3,503.8z"/>
		<path id="XMLID_7846_" class="st9" d="M769.7,576.2c-2,2.5-8.1,2.6-8.1,2.6s-1.6,0.8,2.5,2.4c4.1,1.7,9.1-2.8,10.2-5.5
			C775.4,572.9,771.3,574.2,769.7,576.2z"/>
		<path id="XMLID_7845_" class="st8" d="M754.3,575.7c0,0,6.5,6.5,10.6,6.1c4.1-0.4,6.3-1.4,7.7-3.4
			C774,576.4,768,583.5,754.3,575.7z"/>
		<path id="XMLID_7844_" class="st1" d="M622.1,472.7c0,0,1.3-0.3,1.3-1.6c0.1-1.3,1.2-8.7,1.6-11.9c0.4-3.3,3.1-11.2,4.4-14
			c1.3-2.8,2.9-6.8,2.9-7.6c0-0.8-0.1-1.9-0.1-1.9s-7.8,11.2-8.8,19.5C622.3,463.4,621.3,472.2,622.1,472.7z"/>
		<path id="XMLID_7843_" class="st10" d="M628.1,438.4c-2.2,3.5-2.1,8.3-6.9,9.3c-4.8,0.9-30.7,1.8-37.6,3
			c-6.9,1.2-16.6,0-21.6,12.2l6.3,2.1c0,0,1.8-8.1,8.7-8.9c7.8-0.9,29.3-0.3,33,0.4c3.7,0.7,7.2,1.7,10,6c2.6,4,0,6.6,0.9,8.8
			c1.3,3.3,1.6,0.5,2.1-4.3c0.4-4.2,1-9.2,2.6-14.1c2.9-9.4,7.1-16.8,6.5-17.1C631.1,435.2,630.3,434.9,628.1,438.4z"/>
		<path id="XMLID_7842_" class="st11" d="M617,448c-7.5-0.1-31.4,2.1-35.4,2.7c-4,0.6-15.5,0.2-19.6,12.2l2.7,0.7
			c0,0,0.8-4.2,5.3-7.3c7-4.9,18-3.8,27.3-4.9c11.6-1.4,21.6,1,24-0.6c2.4-1.6,3.6-3.5,4.8-8.2C626.2,442.6,624.4,448.2,617,448z"/>
		<path id="XMLID_7841_" class="st12" d="M616,456.6c-2-0.7-10.5-2.8-19.6-2.6c-9.1,0.2-16.9-0.7-23.6,2.4c-3.4,1.6-6,8-6,8l1.5,0.4
			c0,0,0.1-0.3,2.4-4.3c3-5.2,10.5-4.5,10.5-4.5s23.1-0.6,28.8,1.1c5.6,1.6,8.5,3.4,9.5,5.4c1.7,3.1,0,8.1,0.4,9
			c0.7,1.4,1-0.6,1-0.6s0.8,1,0.2-4.5C620.4,458.2,619.2,457.7,616,456.6z"/>
		<path id="XMLID_7840_" class="st13" d="M617,452.6c-3.7-1.2-18.9-0.1-23.3-0.1c-4.3,0-15.1,1.6-16.9,2.3c0,0-0.4,0.2,2.7-0.1
			c3.1-0.3,9-0.3,14.3-0.3c10.2,0,19.5,1.3,22.1,2.1C618.7,457.5,620.7,453.8,617,452.6z"/>
		<path id="XMLID_7839_" class="st14" d="M561.9,462.9c-1.2,2.9,1.9,0.7,3.2,2.5c1.8,2.5,5.2-1,3.2-2.1
			C566.4,462.2,561.9,462.9,561.9,462.9z"/>
		<path id="XMLID_7838_" class="st15" d="M737.7,471.9c0,0-2.4,6.6,8.7,20.3c18.1,22.2,16.8,57.1,19.3,65.9c2.5,8.8,4.3,7.1,4.2-0.1
			c0,0-3-36-9-52.8C755.1,488.5,743.8,479.2,737.7,471.9z"/>
		<path id="XMLID_7837_" class="st8" d="M763.6,519.1c2.5,5.8,2.9,20.8,3.6,33c0.4,6.4,3.1,11.8,3.1,11.8s-1.3-13.3-2.3-25.9
			c-1.4-18.6-7.1-32.8-7.1-32.8S761.2,513.3,763.6,519.1z"/>
		<path id="XMLID_7836_" class="st4" d="M639.4,476.7c-5.8-3.3-6.4-4.7-8.8-9.5c-0.7-1.5-1-4.3-2-5c-0.5-0.3-1.7,0.3-2.2,1.2
			c-1.5,2.7-0.7,7.4,0.8,9.7c4.6,6.6,19.1,9.3,20,8C647.8,480.3,645.1,480,639.4,476.7z"/>
		<path id="XMLID_7835_" class="st5" d="M631.5,473c-1.4,0.5,0.8,3.1,1.9,2.3C634.4,474.6,632.9,472.6,631.5,473z"/>
		<path id="XMLID_7834_" class="st14" d="M630.4,435.6c-0.6,0.8,1.1-0.2,0.9,1.3c-0.2,1.5-2.1,6.7-2.1,6.7l3.6-7.9
			C632.7,435.8,631.3,434.4,630.4,435.6z"/>
		<path id="XMLID_7833_" class="st14" d="M620.6,472.2c0,0,0.7,0.5,1.5,0.5c1-0.1,0.4-1.1,0.6-2c0.2-1,0.4-3.8,0.4-3.8
			s-0.5,4.4-0.9,4.9C621.7,472.3,620.6,472.2,620.6,472.2z"/>
	</g>
	<g id="XMLID_7803_">
		<path id="XMLID_7831_" class="st0" d="M436.3,302.4c1.1,42.7,16.6,69,20.2,75.4c3.7,6.4,13.8,15.9,28.4,7.4c0,0,12.2-6.2,15.9-8.1
			c3.8-1.9,6.4-9.4,5.1-14.6c-1.9-7.2-13.1-32.5-14.9-38.8c-2.9-10-7.6-39.4-5.1-50.6c3.9-17.2,16.2-35.5,20.3-41.9
			c7.1-11,9.6-20.7,9.3-27.8c-0.2-4.4-3.8-11-8.2-11.6c-4.3-0.6-3.9,1.2-6.5,5.2c-2.6,4-19,16.2-31.1,27.1
			C457.7,235.2,435.2,259.8,436.3,302.4z"/>
		<path id="XMLID_7830_" class="st1" d="M458,236.2c-8.9,12-15.3,23.2-19.5,40.1c-5.3,21.6-1.6,48.8,3.2,66
			c4.8,17.2,13.8,36.2,15.8,38.8c2.1,2.6,5.2,4.6,10.4,6.1c5.3,1.5,13.4-1.3,13.4-1.3s4.2-1.7,2.7-3.6c-1.6-2-8.3,0.2-11.4,0.1
			c-3.1-0.1-10.1-2.8-16.6-21.1c-6.6-18.4-11.3-48.4-11-66.6c0.4-24.8,19.2-54.2,25.8-60.6c6.6-6.3,29.7-28.3,32.8-31.7
			c2.9-3.2,2.6-6.4-1.1-7.9c0,0-1.7,3.2-6,7.4C491.7,206.5,466.6,224.6,458,236.2z"/>
		<path id="XMLID_7829_" class="st2" d="M464.3,244.8c-8.1,13.5-16,28.1-16.9,51.1c-0.8,23,10.7,72.3,19.1,80.6
			c5.7,5.6,8.2,6.6,15.9,5c0,0,5.4-3.5,8.1-10.1c2.8-6.7,0.7-16.1-6.6-36.6c-4-11.1-10.8-26.2-12.3-43.7c-1-11.9,6.6-34.8,15.2-46.5
			c8.5-11.7,25.6-35.1,23.8-39.6c-1.7-4.6-8.2,2.5-12.6,6.9C493.5,216.2,472.4,231.3,464.3,244.8z"/>
		<path id="XMLID_7828_" class="st3" d="M492.2,345.6c3,10.4,4.4,15.4,1.6,23.6c-0.8,2.5-3.8,6.1-3.4,8c0.2,1,2.3,1.6,3.9,1.2
			c4.7-1.4,9.3-6.7,9.5-11.1c0.4-9.8-11.5-34.6-14.1-34C488.2,333.5,489.2,335.2,492.2,345.6z"/>
		<path id="XMLID_7827_" class="st3" d="M480.9,255.9c-3.4,7.1-6.7,18.5-7,28.6c-0.2,6.2-1,11.2,1.6,19.8c2.6,8.6,4.2,12.8,6.4,12.3
			c2.2-0.5-0.3-8.7-0.3-8.7s-1.9-21.4-0.1-29.2c1.9-8.4,6.4-24.3,10.9-31.8c4.5-7.4,21.1-32,19.1-34.3c-2-2.2-9.3,9.9-9.3,9.9
			S484.7,247.9,480.9,255.9z"/>
		<path id="XMLID_7826_" class="st4" d="M478.7,260.4c-2.6,5.6-5.3,14.6-5.5,22.6c-0.2,4.9-0.8,8.9,1.2,15.6c2,6.8,3.3,10.1,5.1,9.7
			c1.7-0.4-0.3-6.8-0.3-6.8s-1.5-16.9-0.1-23c1.5-6.6,5-19.2,8.6-25c3.6-5.8,16.6-25.3,15.1-27c-1.6-1.8-7.3,7.8-7.3,7.8
			S481.7,254.1,478.7,260.4z"/>
		<path id="XMLID_7825_" class="st5" d="M475.3,287.7c-0.1,2.9-0.7,7.6,1.5,6.3c1.7-0.9-0.1-5.1,0.9-13.7
			c1.2-10.5,7.6-21.6,4.3-20.1c-2.8,1.3-4.4,9.5-5.4,15.8C475.7,282.3,475.3,287.7,475.3,287.7z"/>
		<path id="XMLID_7824_" class="st5" d="M476.5,299.2c0.9,2.5,2.8,3.9,1.8,1.3c-0.8-1.9,0.1-5.4-1.3-5.4
			C475.4,295.1,476.5,299.2,476.5,299.2z"/>
		<path id="XMLID_7823_" class="st6" d="M450.2,299.9c0.2,18.9,13.7,69.6,18,74c4.4,4.4,8.5,7.7,15.2,1.7c6.7-6,4.3-21,1.6-26.5
			c-2.7-5.5-15-42.5-15.3-55.6c-0.3-17.4,5.8-35,18.3-55.2c12.4-20.1,11.4-21.4,6.9-19.3c-4.5,2.1-22.3,18.4-29.3,30.2
			C458.6,260.9,450,280.9,450.2,299.9z"/>
		<path id="XMLID_7822_" class="st5" d="M506.6,219.7c2.6,1.1,5.7-6.2,4.8-6.9C509,211,505.8,219.3,506.6,219.7z"/>
		<path id="XMLID_7821_" class="st7" d="M494,376.1c2.7,0.4,5.9-1.9,5.2-5c-0.7-2.9-2.1-2.6-3.6-0.8
			C494.1,372.2,491,374.8,494,376.1z"/>
		<path id="XMLID_7820_" class="st0" d="M448.9,366.5c2.2,6.3,6,24.3,25.6,21c0,0,6.8-1.4,9.4-3.5c1.6-1.3-5.6,1.1-10.3,0.9
			c-12.7-0.7-13.8-6-19.4-16.1c-5.6-10.2-11.9-31.6-13.3-46.4c-1.4-14.8-3.4-30.9,1.3-58.1c0,0-5.5,14.5-6,28.1
			C435.7,305.8,436,328.5,448.9,366.5z"/>
		<path id="XMLID_7819_" class="st8" d="M445.3,356.4c0.6,2.6,5.3,16.8,7.6,21.2c2.4,4.3,8.9,12.4,20.6,9.9c0,0,6.8,0.4,6.1-1.5
			c-0.7-1.8-5.4,1-10.2,1.1c-4.8,0.2-12.5-5.5-15.1-10.7C450.5,368.4,444.9,354.3,445.3,356.4z"/>
		<path id="XMLID_7818_" class="st8" d="M484.9,292.7c0.9,16.9,9,40.6,11.6,47.3c2.6,6.7,8.8,18.4,9.6,23.8
			c1.2,7.5-4.8,13.4-4.8,13.4c4.3-2.8,7.4-9.7,3.4-19.9c-2.7-6.9-11.6-33.2-16.4-50.4c-4.8-17.2-1-27.9,0.7-35.9
			c1.7-8,8.4-21.7,11.6-27.5c4.9-9,9.8-19.4,9.8-19.4c-6.7,11.3-10,13.8-16.2,26.8C488.2,263.5,483.8,271.3,484.9,292.7z"/>
		<path id="XMLID_7817_" class="st9" d="M507.2,195.6c3.2,0.3,6.6,5.3,6.6,5.3s1.5,0.9,0.6-3.4c-0.9-4.4-7.4-6-10.3-5.4
			C501.2,192.7,504.6,195.4,507.2,195.6z"/>
		<path id="XMLID_7816_" class="st8" d="M515.3,208.7c0,0,1.8-9-0.8-12.3c-2.6-3.2-4.6-4.4-7.1-4.5C504.9,192,514.1,193,515.3,208.7
			z"/>
		<path id="XMLID_7815_" class="st1" d="M503,375.9c0,0-0.9-0.9-2-0.2c-1.1,0.7-7.9,3.8-10.8,5.3c-3,1.5-11,3.6-14.1,4.1
			c-3,0.5-7.2,1.4-7.9,1.8c-0.6,0.4-1.5,1.2-1.5,1.2s13.6,0.2,21.1-3.5C495.2,380.8,503.1,376.8,503,375.9z"/>
		<path id="XMLID_7814_" class="st10" d="M471.3,389.9c4.2-0.1,8.1-2.9,11.5,0.6c3.4,3.5,18.5,24.5,23.4,29.6
			c4.9,5,9.2,13.8,22.1,11.2l-1.8-6.5c0,0-7.7,3-12.3-2.3c-5.1-5.9-16.5-24.2-18-27.7c-1.5-3.5-2.6-6.9-0.6-11.6
			c1.9-4.4,5.5-3.7,6.8-5.6c2-2.9-0.4-1.6-4.7,0.7c-3.8,2-8.2,4.2-13.2,5.7c-9.4,2.8-17.9,3.4-17.8,4.1
			C466.9,389.2,467.1,390.1,471.3,389.9z"/>
		<path id="XMLID_7813_" class="st11" d="M485.4,393.8c4,6.3,19.2,25,21.9,28c2.7,3,8.8,12.7,21,9.6l-0.9-2.6c0,0-4,1.6-9-0.4
			c-8-3.1-13.1-12.9-19.3-20c-7.6-8.8-11.2-18.5-13.9-19.6c-2.7-1.1-4.9-1-9.5,0.5C475.8,389.2,481.4,387.6,485.4,393.8z"/>
		<path id="XMLID_7812_" class="st12" d="M493.1,389.8c0.6,2,3.5,10.3,8.7,17.7c5.2,7.4,8.8,14.5,15.1,18.2c3.2,1.9,10,0.5,10,0.5
			l-0.5-1.4c0,0-0.3,0.1-4.9,0.4c-6,0.4-9.6-6.2-9.6-6.2s-13.3-18.9-15.1-24.6c-1.7-5.5-1.9-8.9-0.8-10.9c1.7-3.1,6.7-4.5,7.2-5.3
			c0.8-1.3-1.1-0.5-1.1-0.5s0.4-1.3-3.9,2.3C491.9,385.3,492.2,386.6,493.1,389.8z"/>
		<path id="XMLID_7811_" class="st13" d="M489.2,391.2c1.1,3.8,10.5,15.8,12.9,19.4c2.4,3.6,9.7,11.7,11.4,12.8c0,0,0.3,0.2-1.6-2.2
			c-1.9-2.4-5.3-7.3-8.2-11.7c-5.7-8.5-9.8-16.9-10.5-19.6C492.3,387.2,488.1,387.5,489.2,391.2z"/>
		<path id="XMLID_7810_" class="st14" d="M528.3,431.3c3.1-0.7-0.5-1.9,0.3-4c1.1-2.9-3.7-3.8-3.6-1.5
			C525.2,428,528.3,431.3,528.3,431.3z"/>
		<path id="XMLID_7809_" class="st15" d="M438.2,280.2c0,0,6.8-1.7,12-18.5c8.4-27.4,38.1-45.7,44-52.7c5.9-7,3.5-7.6-2.4-3.5
			c0,0-28.2,22.5-38.9,36.8C442.3,256.5,440.8,271.1,438.2,280.2z"/>
		<path id="XMLID_7808_" class="st8" d="M463,232.4c3.4-5.3,15.6-14,25.4-21.4c5.1-3.9,8.1-9.1,8.1-9.1s-10.3,8.5-20.3,16.3
			c-14.7,11.5-23.3,24.1-23.3,24.1S459.6,237.7,463,232.4z"/>
		<path id="XMLID_7807_" class="st4" d="M496.8,359.2c0.5,6.6-0.4,8-3.1,12.6c-0.8,1.4-3.1,3.2-3.1,4.4c0,0.6,1.2,1.3,2.2,1.2
			c3-0.2,6.6-3.5,7.6-6.1c3-7.5-2.9-21.1-4.5-21.1C495.1,350.3,496.3,352.6,496.8,359.2z"/>
		<path id="XMLID_7806_" class="st5" d="M498.1,367.9c1.1,0.9,2.2-2.4,0.9-2.9C497.8,364.5,497,367,498.1,367.9z"/>
		<path id="XMLID_7805_" class="st14" d="M467.6,389.6c1.1,0.1-0.7-0.8,0.6-1.5c1.4-0.7,6.8-2,6.8-2l-8.5,1.4
			C466.5,387.5,466,389.5,467.6,389.6z"/>
		<path id="XMLID_7804_" class="st14" d="M503.5,377.4c0,0,0-0.9-0.5-1.5c-0.7-0.8-1.1,0.3-2,0.6c-0.9,0.3-3.3,1.8-3.3,1.8
			s3.9-2.1,4.6-2C502.9,376.4,503.5,377.4,503.5,377.4z"/>
	</g>
	<g id="XMLID_7781_">
		<path id="XMLID_7802_" class="st0" d="M366.8,566.6c42.4-4.8,67.3-22.5,73.4-26.7c6.1-4.2,14.6-15.1,5-28.9c0,0-7.2-11.6-9.5-15.2
			c-2.3-3.6-9.9-5.6-14.9-3.8c-7,2.5-31.2,15.8-37.4,18.2c-9.7,3.7-38.6,11-49.9,9.4c-17.4-2.4-36.8-13-43.5-16.6
			c-11.6-6.2-21.4-7.8-28.5-6.8c-4.4,0.6-10.6,4.8-10.8,9.1c-0.2,4.3,1.6,3.8,5.7,6c4.2,2.2,17.8,17.5,29.7,28.6
			C298,551.1,324.4,571.3,366.8,566.6z"/>
		<path id="XMLID_7801_" class="st1" d="M298.9,550.7c12.7,7.8,24.4,13.3,41.7,15.9c22,3.4,48.7-2.6,65.4-8.9
			c16.7-6.3,34.9-16.8,37.3-19.1c2.4-2.3,4.1-5.5,5.2-10.9c1.1-5.4-2.5-13.2-2.5-13.2s-2-4.1-3.8-2.3c-1.8,1.7,1,8.3,1.1,11.3
			c0.2,3.1-1.9,10.3-19.6,18.4c-17.7,8.1-47.2,15.4-65.4,16.7c-24.7,1.7-55.7-14.5-62.6-20.5c-6.9-6.1-30.8-27.2-34.4-29.9
			c-3.4-2.6-6.6-2-7.8,1.8c0,0,3.4,1.4,7.9,5.4C266.5,519.7,286.6,543.1,298.9,550.7z"/>
		<path id="XMLID_7800_" class="st2" d="M307,543.6c14.2,6.9,29.4,13.6,52.3,12.4c22.9-1.2,71.2-16.9,78.7-25.9
			c5.1-6.1,5.9-8.8,3.6-16.2c0,0-4-5.1-10.7-7.2c-6.9-2.2-16.1,0.6-35.9,9.8c-10.7,5-25.1,13.1-42.5,16.1
			c-11.8,2-35.3-3.6-47.7-11.1c-12.4-7.5-37.1-22.5-41.5-20.3c-4.4,2.1,3.2,8,7.9,11.9C276,517,292.8,536.7,307,543.6z"/>
		<path id="XMLID_7799_" class="st3" d="M405,507.1c10.1-3.9,14.9-5.7,23.4-3.6c2.6,0.6,6.4,3.3,8.3,2.7c1-0.3,1.4-2.5,0.8-4
			c-1.8-4.6-7.4-8.7-11.9-8.5c-9.8,0.5-33.5,14.5-32.7,17C393.3,512.2,394.9,511,405,507.1z"/>
		<path id="XMLID_7798_" class="st3" d="M316.6,526.1c7.3,2.7,19,5.1,29.1,4.5c6.2-0.4,11.3,0.1,19.6-3.3c8.3-3.3,12.4-5.3,11.7-7.5
			c-0.6-2.1-8.6,1.1-8.6,1.1s-21.2,3.8-29.1,2.7c-8.5-1.2-24.8-4.3-32.6-8.1c-7.8-3.8-33.7-18.2-35.8-16.1
			c-2.1,2.2,10.7,8.4,10.7,8.4S308.3,523.1,316.6,526.1z"/>
		<path id="XMLID_7797_" class="st4" d="M321.3,528c5.8,2.2,15,4,23,3.6c4.9-0.3,8.9,0,15.4-2.6c6.6-2.6,9.7-4.2,9.2-5.9
			c-0.5-1.7-6.8,0.8-6.8,0.8s-16.7,3-22.9,2.1c-6.7-0.9-19.6-3.4-25.7-6.4c-6.1-3-26.6-14.4-28.2-12.7c-1.6,1.7,8.5,6.6,8.5,6.6
			S314.7,525.5,321.3,528z"/>
		<path id="XMLID_7796_" class="st5" d="M348.7,529c2.9-0.1,7.6,0.1,6.2-2.1c-1.1-1.6-5.1,0.5-13.7,0.3c-10.6-0.3-22.2-5.7-20.4-2.5
			c1.5,2.7,9.8,3.6,16.2,4C343.3,529.1,348.7,529,348.7,529z"/>
		<path id="XMLID_7795_" class="st5" d="M360.1,526.8c2.4-1.1,3.6-3.2,1.2-1.9c-1.8,0.9-5.3,0.4-5.3,1.8
			C356.1,528.3,360.1,526.8,360.1,526.8z"/>
		<path id="XMLID_7794_" class="st6" d="M363,552.9c18.8-1.9,68.2-19.6,72.2-24.4c4-4.7,6.9-9.1,0.4-15.3
			c-6.5-6.2-21.3-2.4-26.6,0.7c-5.3,3.2-41,18.6-54.1,20c-17.3,1.8-35.4-2.8-56.5-13.4c-21.1-10.7-22.3-9.5-19.8-5.2
			c2.5,4.3,20.3,20.6,32.6,26.6C323.5,547.9,344.2,554.8,363,552.9z"/>
		<path id="XMLID_7793_" class="st5" d="M278.3,503.7c0.9-2.7-6.7-5.1-7.3-4.2C269.4,502,278,504.5,278.3,503.7z"/>
		<path id="XMLID_7792_" class="st7" d="M435.2,502.8c0.1-2.7-2.5-5.7-5.4-4.7c-2.8,1-2.4,2.3-0.5,3.6
			C431.3,503,434.2,505.8,435.2,502.8z"/>
		<path id="XMLID_7791_" class="st0" d="M429.5,548.5c6.1-2.7,23.7-8.1,18.8-27.3c0,0-2-6.7-4.3-9.1c-1.4-1.5,1.6,5.5,1.7,10.1
			c0.4,12.7-4.8,14.3-14.4,20.7c-9.7,6.5-30.5,14.6-45.1,17.3c-14.6,2.7-30.5,6.1-58,3.7c0,0,15,4.2,28.5,3.5
			C370.2,566.9,392.8,564.6,429.5,548.5z"/>
		<path id="XMLID_7790_" class="st8" d="M419.8,552.9c2.6-0.8,16.3-6.7,20.4-9.4c4.1-2.7,11.6-10,8.1-21.4c0,0-0.2-6.8-2-6
			c-1.8,0.8,1.4,5.3,2,10.1c0.6,4.8-4.4,12.9-9.4,16C431.3,546.8,417.7,553.5,419.8,552.9z"/>
		<path id="XMLID_7789_" class="st8" d="M352.9,519c16.8-2.4,39.7-12.5,46.1-15.6c6.4-3.1,17.6-10.3,22.9-11.6
			c7.4-1.8,13.7,3.6,13.7,3.6c-3.2-4.1-10.3-6.6-20.1-1.6c-6.6,3.3-32.1,14.5-48.8,20.7c-16.7,6.3-27.7,3.4-35.8,2.4
			c-8.1-1-22.4-6.5-28.4-9.2c-9.4-4.1-20.1-8.1-20.1-8.1c11.8,5.7,14.6,8.8,28.1,13.9C323.5,518.2,331.6,522,352.9,519z"/>
		<path id="XMLID_7788_" class="st9" d="M254.3,505.2c0-3.2,4.7-7.1,4.7-7.1s0.8-1.6-3.5-0.3c-4.3,1.3-5.4,7.9-4.5,10.7
			C251.9,511.3,254.3,507.8,254.3,505.2z"/>
		<path id="XMLID_7787_" class="st8" d="M266.6,496c0,0-9.1-1-12.2,1.9c-3,2.9-4,5-3.8,7.5C250.8,507.8,251.1,498.5,266.6,496z"/>
		<path id="XMLID_7786_" class="st1" d="M434.2,493.8c0,0-0.8,1-0.1,2.1c0.8,1.1,4.5,7.5,6.2,10.3c1.7,2.8,4.6,10.7,5.3,13.7
			c0.8,3,2,7.1,2.5,7.7c0.5,0.6,1.3,1.4,1.3,1.4s-0.9-13.6-5.3-20.7C439.8,501.1,435.1,493.6,434.2,493.8z"/>
		<path id="XMLID_7785_" class="st10" d="M451,524.2c-0.5-4.1-3.6-7.8-0.4-11.5c3.2-3.7,22.9-20.6,27.5-25.9c4.6-5.3,13-10.4,9.3-23
			l-6.3,2.3c0,0,3.6,7.4-1.3,12.4c-5.5,5.6-22.7,18.6-26,20.4c-3.3,1.8-6.7,3.2-11.6,1.6c-4.5-1.5-4.1-5.1-6.2-6.3
			c-3.1-1.7-1.6,0.6,1.1,4.7c2.3,3.6,4.9,7.8,6.8,12.6c3.6,9.2,5,17.6,5.6,17.4C450.6,528.6,451.4,528.3,451,524.2z"/>
		<path id="XMLID_7784_" class="st11" d="M453.6,509.8c5.9-4.6,23.2-21.3,26-24.2c2.8-3,11.9-9.9,7.7-21.8l-2.6,1.2c0,0,2,3.8,0.4,9
			c-2.4,8.2-11.7,14.2-18.3,20.9c-8.1,8.3-17.5,12.7-18.4,15.5c-0.9,2.8-0.6,4.9,1.3,9.4C449.8,519.8,447.7,514.3,453.6,509.8z"/>
		<path id="XMLID_7783_" class="st12" d="M449,502.5c2-0.7,9.9-4.4,16.9-10.2c7-5.8,13.6-10,16.9-16.6c1.6-3.3-0.3-10-0.3-10
			l-1.4,0.6c0,0,0.1,0.3,0.8,4.9c0.9,5.9-5.4,10.1-5.4,10.1s-17.7,14.9-23.2,17.2c-5.3,2.2-8.7,2.7-10.8,1.7c-3.3-1.4-5-6.3-5.9-6.7
			c-1.4-0.7-0.4,1.1-0.4,1.1s-1.3-0.3,2.7,3.7C444.6,504,445.8,503.6,449,502.5z"/>
		<path id="XMLID_7782_" class="st13" d="M450.7,506.2c3.6-1.4,14.8-11.8,18.2-14.5c3.4-2.7,10.8-10.7,11.7-12.4
			c0,0,0.2-0.3-2.1,1.8c-2.3,2.2-6.9,5.9-11,9.2c-7.9,6.4-16,11.2-18.6,12.2C446.4,503.4,447.1,507.6,450.7,506.2z"/>
		<path id="XMLID_10269_" class="st14" d="M487.3,463.8c-0.9-3-1.9,0.7-4.1,0.1c-3-0.8-3.4,4.1-1.2,3.7
			C484.2,467.1,487.3,463.8,487.3,463.8z"/>
		<path id="XMLID_10270_" class="st15" d="M344.5,566.6c0,0-2.2-6.7-19.5-10.4c-28-6-48.8-34-56.3-39.3c-7.4-5.3-7.9-2.8-3.2,2.7
			c0,0,24.9,26.2,40,35.6C320.6,564.6,335.2,564.8,344.5,566.6z"/>
		<path id="XMLID_10271_" class="st8" d="M294.7,546c-5.6-3-15.3-14.4-23.5-23.5c-4.3-4.7-9.8-7.3-9.8-7.3s9.4,9.6,18,18.8
			c12.7,13.6,26.1,21.2,26.1,21.2S300.3,549,294.7,546z"/>
		<path id="XMLID_10272_" class="st4" d="M418.2,501.4c6.5-1.1,8-0.3,12.8,2c1.5,0.7,3.5,2.8,4.7,2.7c0.6-0.1,1.2-1.3,1-2.3
			c-0.5-3-4.1-6.2-6.7-7c-7.7-2.3-20.8,4.7-20.6,6.3C409.4,503.9,411.6,502.4,418.2,501.4z"/>
		<path id="XMLID_10273_" class="st5" d="M426.7,499.4c0.8-1.2-2.5-1.9-2.9-0.7C423.4,500,425.9,500.6,426.7,499.4z"/>
		<path id="XMLID_10281_" class="st14" d="M450.9,527.9c0-1.1-0.7,0.8-1.5-0.5c-0.8-1.3-2.5-6.6-2.5-6.6l2.1,8.4
			C449,529.2,451,529.4,450.9,527.9z"/>
		<path id="XMLID_10282_" class="st14" d="M435.7,493.2c0,0-0.9,0-1.5,0.6c-0.7,0.7,0.4,1.1,0.8,1.9c0.4,0.9,2.1,3.1,2.1,3.1
			s-2.4-3.7-2.4-4.4C434.7,493.8,435.7,493.2,435.7,493.2z"/>
	</g>
</g>
</svg>
