<?xml version="1.0" encoding="utf-8"?>
<!-- Generator: Adobe Illustrator 19.0.0, SVG Export Plug-In . SVG Version: 6.00 Build 0)  -->
<svg version="1.1" id="Layer_1" xmlns="http://www.w3.org/2000/svg" xmlns:xlink="http://www.w3.org/1999/xlink" x="0px" y="0px"
	 viewBox="0 0 1000 990.3" style="enable-background:new 0 0 1000 990.3;" xml:space="preserve">
<style type="text/css">
	.st0{fill:#FFCE00;}
	.st1{fill:#FFE164;}
	.st2{opacity:0.59;fill:#FCE895;}
</style>
<g id="XMLID_37_">
	<g id="XMLID_9584_">
		<path id="XMLID_9678_" class="st0" d="M606.8,383.9c1.6-1.6,3.6-2.7,5.7-3.2c7.7-1.8,15.9,1.8,19.6,9.2l7.2,14.4
			c3.8,7.6,1.6,16.6-4.9,21.6c-1.6,1.2-3.4,2-5.4,2.3c-7.9,1.3-32.5,4.9-36.1-2.3l-5.6-11.2C583.8,407.5,601,389.6,606.8,383.9z"/>
		<path id="XMLID_9675_" class="st1" d="M593.2,414.8l15.5-11c2.2-1.1,5.6,1.4,6.7,3.6l0,0c1.1,2.2,1,6.4-1.2,7.5l-18.2,5.5
			C593.9,421.5,591.1,415.9,593.2,414.8z"/>
		<path id="XMLID_9585_" class="st2" d="M631.6,410.6c2.9,0.1,4.9-2.7,4-5.4c-1.6-4.4-4.4-11.4-7.8-15.1c-5.2-5.7-9.6-7.3-11.7-5.8
			c-0.1,0-0.7,0.4-0.8,0.4c-2.7,2.2-2.3,5.4,1.1,5.9c1.1,0.2,2.1,0.5,2.8,1.3c3.7,3.6,8.4,7.5,8.7,14.7
			C628.2,409.6,629.8,410.5,631.6,410.6z"/>
	</g>
	<g id="XMLID_9688_">
		<path id="XMLID_9692_" class="st0" d="M803.3,634.9c0.8-2.1,2.1-3.9,3.9-5.3c6.3-4.8,15.2-5,21.7,0.2l12.6,10.1
			c6.6,5.3,8.3,14.4,4.6,21.7c-0.9,1.8-2.3,3.2-4,4.4c-6.6,4.5-27.5,18-33.8,12.9l-9.8-7.8C792.2,666,800.4,642.6,803.3,634.9z"/>
		<path id="XMLID_9690_" class="st1" d="M803.8,668.7l9.5-16.4c1.5-1.9,5.7-1.1,7.6,0.5v0c1.9,1.5,3.6,5.4,2.1,7.3l-14.3,12.6
			C807.1,674.5,802.2,670.6,803.8,668.7z"/>
		<path id="XMLID_9689_" class="st2" d="M836.9,648.9c2.7-1.1,3.3-4.5,1.3-6.6c-3.3-3.4-8.8-8.5-13.4-10.5c-7.1-3-11.8-2.6-13-0.4
			c0,0.1-0.5,0.6-0.5,0.7c-1.5,3.2,0.1,5.9,3.5,4.8c1.1-0.3,2.1-0.4,3.1,0c4.8,1.7,10.7,3.3,14.1,9.7
			C833.4,649.4,835.2,649.6,836.9,648.9z"/>
	</g>
	<g id="XMLID_9693_">
		<path id="XMLID_9700_" class="st0" d="M464.6,779.4c1.9-0.1,3.8,0.3,5.4,1.2c5.9,3.2,9,10,7.2,16.7l-3.5,13.1
			c-1.8,6.9-8.2,11.3-15.1,10.9c-1.7-0.1-3.3-0.7-4.7-1.5c-5.7-3.5-23.2-15-21.5-21.6l2.7-10.2C436.9,781.5,457.7,779.8,464.6,779.4
			z"/>
		<path id="XMLID_9695_" class="st1" d="M438.8,791.3l15.9,1.7c2,0.5,2.8,4,2.2,6l0,0c-0.5,2-2.9,4.6-4.9,4.1l-14.5-6.7
			C435.5,795.9,436.8,790.8,438.8,791.3z"/>
		<path id="XMLID_9694_" class="st2" d="M465.4,810c1.7,1.7,4.6,1,5.5-1.2c1.5-3.7,3.6-9.7,3.5-13.9c-0.1-6.5-2-10-4.1-10.2
			c-0.1,0-0.6-0.1-0.7-0.1c-2.9-0.1-4.5,2.1-2.5,4.3c0.6,0.7,1,1.5,1.1,2.4c0.3,4.3,1.1,9.4-2.6,14.1
			C463.8,807.5,464.3,809,465.4,810z"/>
	</g>
	<g id="XMLID_9705_">
		<path id="XMLID_9708_" class="st0" d="M328.6,497.4c-1,1.6-2.4,2.9-4.1,3.7c-6,2.9-13.4,1.4-17.8-4l-8.6-10.5
			c-4.5-5.5-4.3-13.3,0-18.6c1.1-1.3,2.5-2.3,4-2.9c6.2-2.6,25.8-10,30.1-4.7l6.7,8.2C343.2,473.8,332.4,491.7,328.6,497.4z"/>
		<path id="XMLID_9707_" class="st1" d="M334.1,469.6l-10.7,11.9c-1.6,1.3-4.9-0.1-6.2-1.7l0,0c-1.3-1.6-2-5.1-0.4-6.4l13.9-7.9
			C332.4,464.2,335.7,468.3,334.1,469.6z"/>
		<path id="XMLID_9706_" class="st2" d="M303.4,480.1c-2.4,0.4-3.5,3.2-2.2,5.2c2.1,3.4,5.7,8.6,9.2,11c5.3,3.7,9.3,4.2,10.7,2.6
			c0,0,0.5-0.4,0.5-0.5c1.8-2.3,0.9-4.8-2-4.6c-0.9,0.1-1.8-0.1-2.6-0.5c-3.7-2.3-8.3-4.6-9.9-10.4
			C306.4,480.3,304.9,479.8,303.4,480.1z"/>
	</g>
	<g id="XMLID_9683_">
		<path id="XMLID_9686_" class="st0" d="M472,529.2c1.6-1.6,3.6-2.7,5.7-3.2c7.7-1.8,15.9,1.8,19.6,9.2l7.2,14.4
			c3.8,7.6,1.6,16.6-4.9,21.6c-1.6,1.2-3.4,2-5.4,2.3c-7.9,1.3-32.5,4.9-36.1-2.3l-5.6-11.2C448.9,552.8,466.2,534.9,472,529.2z"/>
		<path id="XMLID_9685_" class="st1" d="M458.4,560.1l15.5-11c2.2-1.1,5.6,1.4,6.7,3.6l0,0c1.1,2.2,1,6.4-1.2,7.5l-18.2,5.5
			C459,566.7,456.2,561.1,458.4,560.1z"/>
		<path id="XMLID_9684_" class="st2" d="M496.7,555.9c2.9,0.1,4.9-2.7,4-5.4c-1.6-4.4-4.4-11.4-7.8-15.1c-5.2-5.7-9.6-7.3-11.7-5.8
			c-0.1,0-0.7,0.4-0.8,0.4c-2.7,2.2-2.3,5.4,1.1,5.9c1.1,0.2,2.1,0.5,2.8,1.3c3.7,3.6,8.4,7.5,8.7,14.7
			C493.4,554.8,495,555.8,496.7,555.9z"/>
	</g>
	<g id="XMLID_9709_">
		<path id="XMLID_9712_" class="st0" d="M439.3,250.2c1.6-1.6,3.6-2.7,5.7-3.2c7.7-1.8,15.9,1.8,19.6,9.2l7.2,14.4
			c3.8,7.6,1.6,16.6-4.9,21.6c-1.6,1.2-3.4,2-5.4,2.3c-7.9,1.3-32.5,4.9-36.1-2.3l-5.6-11.2C416.3,273.8,433.5,255.9,439.3,250.2z"
			/>
		<path id="XMLID_9711_" class="st1" d="M425.7,281.1l15.5-11c2.2-1.1,5.6,1.4,6.7,3.6l0,0c1.1,2.2,1,6.4-1.2,7.5l-18.2,5.5
			C426.3,287.8,423.5,282.2,425.7,281.1z"/>
		<path id="XMLID_9710_" class="st2" d="M464.1,276.9c2.9,0.1,4.9-2.7,4-5.4c-1.6-4.4-4.4-11.4-7.8-15.1c-5.2-5.7-9.6-7.3-11.7-5.8
			c-0.1,0-0.7,0.4-0.8,0.4c-2.7,2.2-2.3,5.4,1.1,5.9c1.1,0.2,2.1,0.5,2.8,1.3c3.7,3.6,8.4,7.5,8.7,14.7
			C460.7,275.8,462.3,276.8,464.1,276.9z"/>
	</g>
	<g id="XMLID_9713_">
		<path id="XMLID_9716_" class="st0" d="M782.2,433.3c1.6-1.6,3.6-2.7,5.7-3.2c7.7-1.8,15.9,1.8,19.6,9.2l7.2,14.4
			c3.8,7.6,1.6,16.6-4.9,21.6c-1.6,1.2-3.4,2-5.4,2.3c-7.9,1.3-32.5,4.9-36.1-2.3l-5.6-11.2C759.1,457,776.4,439.1,782.2,433.3z"/>
		<path id="XMLID_9715_" class="st1" d="M768.6,464.2l15.5-11c2.2-1.1,5.6,1.4,6.7,3.6v0c1.1,2.2,1,6.4-1.2,7.5l-18.2,5.5
			C769.2,470.9,766.4,465.3,768.6,464.2z"/>
		<path id="XMLID_9714_" class="st2" d="M806.9,460c2.9,0.1,4.9-2.7,4-5.4c-1.6-4.4-4.4-11.4-7.8-15.1c-5.2-5.7-9.6-7.3-11.7-5.8
			c-0.1,0-0.7,0.4-0.8,0.4c-2.7,2.2-2.3,5.4,1.1,5.9c1.1,0.2,2.1,0.5,2.8,1.3c3.7,3.6,8.4,7.5,8.7,14.7
			C803.6,459,805.1,460,806.9,460z"/>
	</g>
	<g id="XMLID_9717_">
		<path id="XMLID_9720_" class="st0" d="M777.6,489.6c2,0.9,3.8,2.3,5.1,4.2c4.5,6.5,4.1,15.5-1.4,21.6l-10.8,12
			c-5.7,6.3-14.9,7.5-21.9,3.4c-1.7-1-3.1-2.5-4.1-4.2c-4.1-6.9-16.4-28.5-11-34.5l8.4-9.3C747.2,476.8,770.1,486.3,777.6,489.6z"/>
		<path id="XMLID_9719_" class="st1" d="M743.8,488.3l15.9,10.4c1.8,1.6,0.7,5.8-0.9,7.6l0,0c-1.6,1.8-5.6,3.3-7.4,1.7l-11.8-15
			C737.8,491.3,742,486.6,743.8,488.3z"/>
		<path id="XMLID_9718_" class="st2" d="M761.8,522.4c0.9,2.7,4.3,3.6,6.5,1.7c3.6-3.1,9-8.3,11.2-12.8c3.4-6.9,3.3-11.6,1.1-13
			c-0.1,0-0.6-0.5-0.7-0.6c-3.1-1.7-5.8-0.2-5,3.2c0.3,1.1,0.3,2.1-0.2,3.1c-2,4.7-3.9,10.5-10.5,13.5
			C761.5,518.9,761.2,520.7,761.8,522.4z"/>
	</g>
	<g id="XMLID_9721_">
		<path id="XMLID_9724_" class="st0" d="M710.2,627.4c-0.5,2.2-1.6,4.2-3.2,5.8c-5.6,5.6-14.5,6.8-21.5,2.5l-13.7-8.4
			c-7.2-4.4-10.1-13.3-7.3-20.9c0.7-1.9,1.9-3.5,3.4-4.8c6-5.3,25-21.3,31.9-17.1l10.7,6.5C717.3,595.2,712.1,619.5,710.2,627.4z"/>
		<path id="XMLID_9723_" class="st1" d="M705.4,594l-7.3,17.5c-1.3,2.1-5.5,1.8-7.6,0.5l0,0c-2.1-1.3-4.3-4.9-3-7l12.6-14.3
			C701.4,588.6,706.7,591.9,705.4,594z"/>
		<path id="XMLID_9722_" class="st2" d="M675.1,617.8c-2.5,1.4-2.7,4.9-0.5,6.7c3.7,2.9,9.8,7.4,14.6,8.7c7.4,2.1,12,1.1,13-1.2
			c0-0.1,0.4-0.7,0.4-0.8c1.1-3.3-0.9-5.8-4.1-4.4c-1,0.4-2.1,0.6-3.1,0.4c-5-1.1-11.1-1.9-15.2-7.9
			C678.5,616.9,676.6,616.9,675.1,617.8z"/>
	</g>
	<g id="XMLID_9725_">
		<path id="XMLID_9728_" class="st0" d="M549.7,823c-0.5,2.2-1.6,4.2-3.2,5.8c-5.6,5.6-14.5,6.8-21.5,2.5l-13.7-8.4
			c-7.2-4.4-10.1-13.3-7.3-20.9c0.7-1.9,1.9-3.5,3.4-4.8c6-5.3,25-21.3,31.9-17.1l10.7,6.5C556.8,790.7,551.6,815,549.7,823z"/>
		<path id="XMLID_9727_" class="st1" d="M544.9,789.5l-7.3,17.5c-1.3,2.1-5.5,1.8-7.6,0.5l0,0c-2.1-1.3-4.3-4.9-3-7l12.6-14.3
			C540.9,784.2,546.2,787.5,544.9,789.5z"/>
		<path id="XMLID_9726_" class="st2" d="M514.6,813.4c-2.5,1.4-2.7,4.9-0.5,6.7c3.7,2.9,9.8,7.4,14.6,8.7c7.4,2.1,12,1.1,13-1.2
			c0-0.1,0.4-0.7,0.4-0.8c1.1-3.3-0.9-5.8-4.1-4.4c-1,0.4-2.1,0.6-3.1,0.4c-5-1.1-11.1-1.9-15.2-7.9
			C518,812.5,516.1,812.5,514.6,813.4z"/>
	</g>
	<g id="XMLID_9729_">
		<path id="XMLID_9732_" class="st0" d="M574.9,620.8c-0.5,2.2-1.6,4.2-3.2,5.8c-5.6,5.6-14.5,6.8-21.5,2.5l-13.7-8.4
			c-7.2-4.4-10.1-13.3-7.3-20.9c0.7-1.9,1.9-3.5,3.4-4.8c6-5.3,25-21.3,31.9-17.1l10.7,6.5C582,588.5,576.8,612.8,574.9,620.8z"/>
		<path id="XMLID_9731_" class="st1" d="M570.2,587.3l-7.3,17.5c-1.3,2.1-5.5,1.8-7.6,0.5l0,0c-2.1-1.3-4.3-4.9-3-7l12.6-14.3
			C566.1,582,571.4,585.3,570.2,587.3z"/>
		<path id="XMLID_9730_" class="st2" d="M539.8,611.2c-2.5,1.4-2.7,4.9-0.5,6.7c3.7,2.9,9.8,7.4,14.6,8.7c7.4,2.1,12,1.1,13-1.2
			c0-0.1,0.4-0.7,0.4-0.8c1.1-3.3-0.9-5.8-4.1-4.4c-1,0.4-2.1,0.6-3.1,0.4c-5-1.1-11.1-1.9-15.2-7.9
			C543.2,610.3,541.3,610.3,539.8,611.2z"/>
	</g>
	<g id="XMLID_9733_">
		<path id="XMLID_9736_" class="st0" d="M658,750.2c-0.5,2.2-1.6,4.2-3.2,5.8c-5.6,5.6-14.5,6.8-21.5,2.5l-13.7-8.4
			c-7.2-4.4-10.1-13.3-7.3-20.9c0.7-1.9,1.9-3.5,3.4-4.8c6-5.3,25-21.3,31.9-17.1l10.7,6.5C665.1,718,659.9,742.2,658,750.2z"/>
		<path id="XMLID_9735_" class="st1" d="M653.2,716.8l-7.3,17.5c-1.3,2.1-5.5,1.8-7.6,0.5l0,0c-2.1-1.3-4.3-4.9-3-7l12.6-14.3
			C649.2,711.4,654.5,714.7,653.2,716.8z"/>
		<path id="XMLID_9734_" class="st2" d="M622.9,740.6c-2.5,1.4-2.7,4.9-0.5,6.7c3.7,2.9,9.8,7.4,14.6,8.7c7.4,2.1,12,1.1,13-1.2
			c0-0.1,0.4-0.7,0.4-0.8c1.1-3.3-0.9-5.8-4.1-4.4c-1,0.4-2.1,0.6-3.1,0.4c-5-1.1-11.1-1.9-15.2-7.9
			C626.3,739.7,624.4,739.7,622.9,740.6z"/>
	</g>
	<g id="XMLID_9737_">
		<path id="XMLID_9740_" class="st0" d="M433.1,625.8c-0.5,2.2-1.6,4.2-3.2,5.8c-5.6,5.6-14.5,6.8-21.5,2.5l-13.7-8.4
			c-7.2-4.4-10.1-13.3-7.3-20.9c0.7-1.9,1.9-3.5,3.4-4.8c6-5.3,25-21.3,31.9-17.1l10.7,6.5C440.2,593.6,435,617.9,433.1,625.8z"/>
		<path id="XMLID_9739_" class="st1" d="M428.3,592.4l-7.3,17.5c-1.3,2.1-5.5,1.8-7.6,0.5l0,0c-2.1-1.3-4.3-4.9-3-7l12.6-14.3
			C424.2,587.1,429.6,590.4,428.3,592.4z"/>
		<path id="XMLID_9738_" class="st2" d="M397.9,616.2c-2.5,1.4-2.7,4.9-0.5,6.7c3.7,2.9,9.8,7.4,14.6,8.7c7.4,2.1,12,1.1,13-1.2
			c0-0.1,0.4-0.7,0.4-0.8c1.1-3.3-0.9-5.8-4.1-4.4c-1,0.4-2.1,0.6-3.1,0.4c-5-1.1-11.1-1.9-15.2-7.9
			C401.4,615.3,399.5,615.4,397.9,616.2z"/>
	</g>
	<g id="XMLID_9741_">
		<path id="XMLID_9744_" class="st0" d="M186,555.8c-0.5,2.2-1.6,4.2-3.2,5.8c-5.6,5.6-14.5,6.8-21.5,2.5l-13.7-8.4
			c-7.2-4.4-10.1-13.3-7.3-20.9c0.7-1.9,1.9-3.5,3.4-4.8c6-5.3,25-21.3,31.9-17.1l10.7,6.5C193,523.6,187.9,547.9,186,555.8z"/>
		<path id="XMLID_9743_" class="st1" d="M181.2,522.4l-7.3,17.5c-1.3,2.1-5.5,1.8-7.6,0.5h0c-2.1-1.3-4.3-4.9-3-7l12.6-14.3
			C177.1,517,182.5,520.3,181.2,522.4z"/>
		<path id="XMLID_9742_" class="st2" d="M150.8,546.2c-2.5,1.4-2.7,4.9-0.5,6.7c3.7,2.9,9.8,7.4,14.6,8.7c7.4,2.1,12,1.1,13-1.2
			c0-0.1,0.4-0.7,0.4-0.8c1.1-3.3-0.9-5.8-4.1-4.4c-1,0.4-2.1,0.6-3.1,0.4c-5-1.1-11.1-1.9-15.2-7.9
			C154.2,545.3,152.4,545.3,150.8,546.2z"/>
	</g>
	<g id="XMLID_9745_">
		<path id="XMLID_9748_" class="st0" d="M607,248.2c-0.5,2.2-1.6,4.2-3.2,5.8c-5.6,5.6-14.5,6.8-21.5,2.5l-13.7-8.4
			c-7.2-4.4-10.1-13.3-7.3-20.9c0.7-1.9,1.9-3.5,3.4-4.8c6-5.3,25-21.3,31.9-17.1l10.7,6.5C614,216,608.9,240.3,607,248.2z"/>
		<path id="XMLID_9747_" class="st1" d="M602.2,214.8l-7.3,17.5c-1.3,2.1-5.5,1.8-7.6,0.5l0,0c-2.1-1.3-4.3-4.9-3-7l12.6-14.3
			C598.1,209.5,603.5,212.7,602.2,214.8z"/>
		<path id="XMLID_9746_" class="st2" d="M571.8,238.6c-2.5,1.4-2.7,4.9-0.5,6.7c3.7,2.9,9.8,7.4,14.6,8.7c7.4,2.1,12,1.1,13-1.2
			c0-0.1,0.4-0.7,0.4-0.8c1.1-3.3-0.9-5.8-4.1-4.4c-1,0.4-2.1,0.6-3.1,0.4c-5-1.1-11.1-1.9-15.2-7.9
			C575.2,237.7,573.4,237.7,571.8,238.6z"/>
	</g>
	<g id="XMLID_9749_">
		<path id="XMLID_9752_" class="st0" d="M219.5,364.6c-0.5,2.2-1.6,4.2-3.2,5.8c-5.6,5.6-14.5,6.8-21.5,2.5l-13.7-8.4
			c-7.2-4.4-10.1-13.3-7.3-20.9c0.7-1.9,1.9-3.5,3.4-4.8c6-5.3,25-21.3,31.9-17.1l10.7,6.5C226.5,332.4,221.4,356.7,219.5,364.6z"/>
		<path id="XMLID_9751_" class="st1" d="M214.7,331.2l-7.3,17.5c-1.3,2.1-5.5,1.8-7.6,0.5l0,0c-2.1-1.3-4.3-4.9-3-7l12.6-14.3
			C210.6,325.9,216,329.2,214.7,331.2z"/>
		<path id="XMLID_9750_" class="st2" d="M184.3,355c-2.5,1.4-2.7,4.9-0.5,6.7c3.7,2.9,9.8,7.4,14.6,8.7c7.4,2.1,12,1.1,13-1.2
			c0-0.1,0.4-0.7,0.4-0.8c1.1-3.3-0.9-5.8-4.1-4.4c-1,0.4-2.1,0.6-3.1,0.4c-5-1.1-11.1-1.9-15.2-7.9
			C187.7,354.1,185.9,354.2,184.3,355z"/>
	</g>
</g>
</svg>
