<?xml version="1.0" encoding="utf-8"?>
<!-- Generator: Adobe Illustrator 19.0.0, SVG Export Plug-In . SVG Version: 6.00 Build 0)  -->
<svg version="1.1" id="Layer_1" xmlns="http://www.w3.org/2000/svg" xmlns:xlink="http://www.w3.org/1999/xlink" x="0px" y="0px"
	 viewBox="0 0 1000 990.3" style="enable-background:new 0 0 1000 990.3;" xml:space="preserve">
<style type="text/css">
	.st0{fill:#E3E3E3;}
	.st1{fill:#FFFFFF;}
	.st2{fill:#FAFAFA;}
	.st3{fill:#D1D1D1;}
</style>
<g id="XMLID_10264_">
	<g id="XMLID_14798_">
		<g id="XMLID_14811_">
			<path id="XMLID_14815_" class="st0" d="M298.6,623.3c-6.7,0-13.3,0.5-19.6,1.4c-47.7,7.1-83.7,55.7-83.7,94.6
				c0,38.9,36,55.2,83.7,62.2c6.3,1,12.9,1.4,19.6,1.4c57,0,108.8-14.1,108.8-58.2C407.4,668.8,355.7,623.3,298.6,623.3z"/>
			<path id="XMLID_14814_" class="st1" d="M400,732.2c0,44.1-51.7,58.2-108.8,58.2c-6.7,0-13.3-0.5-19.6-1.5
				c-24.8-3.7-46.5-9.8-61.5-20.4c-1.8-1.3-3.6-2.6-5.2-4c-5.1-4.4-9.2-9.5-12.1-15.4v0c-1.1-2.2-2-4.4-2.7-6.8
				c-1.5-4.8-2.3-10-2.3-15.7c0-38.9,36-87.5,83.7-94.6c6.3-0.9,12.9-1.4,19.6-1.4C348.2,630.7,400,676.2,400,732.2z"/>
			<path id="XMLID_14813_" class="st2" d="M210.1,768.5c0,0,34.8-23,56.7-29.4c21.9-6.4,31.9-4.2,40.4-13.6
				c8.5-9.5,14.3-19.8,14.3-19.8s-8.8,14.7-22.8,19.8c-14,5.1-16.3,5.3-37.3,11.6c-21,6.3-22.8,9.3-32.5,14.2
				c-9.7,4.9-23.9,13.2-23.9,13.2L210.1,768.5z"/>
			<path id="XMLID_14812_" class="st2" d="M348.2,683.8c-1.4,2-23.4,21.9-51.7,32c-14.5,5.2-20.3,5.5-43.5,9.1
				c-18.8,2.9-49.2,18.4-60.1,24.2c-1.1-2.2-2-4.4-2.7-6.8c5.7-2.7,15-6.9,22.1-9.7c11-4.3,13.7-7.9,36-11.6
				c22.4-3.6,24.8-3.4,39.9-7.1C302.2,710.6,346.4,686.2,348.2,683.8z"/>
		</g>
		<g id="XMLID_14799_">
			<circle id="XMLID_14810_" class="st3" cx="250.5" cy="708.6" r="2.1"/>
			<circle id="XMLID_14809_" class="st3" cx="343.9" cy="696" r="2.1"/>
			<circle id="XMLID_14808_" class="st3" cx="319.3" cy="678.5" r="2.1"/>
			<circle id="XMLID_14807_" class="st3" cx="267" cy="674" r="2.1"/>
			<circle id="XMLID_14806_" class="st3" cx="317.9" cy="657.4" r="0.9"/>
			<circle id="XMLID_14805_" class="st3" cx="275" cy="728.7" r="0.9"/>
			<path id="XMLID_14804_" class="st3" d="M224.4,709.6c-0.8,0.4-1.6,0.9-1.9,1.3c-0.6,0.9,0.4,2.7,0.5,2.9c0,0,0,0,0,0
				s2.3,0.4,2.9-0.6c0.6-1,0.6-4.7,0.6-4.7S225.5,709.1,224.4,709.6z"/>
			<path id="XMLID_14803_" class="st3" d="M300.9,718.3c-0.8,0.4-1.6,0.9-1.9,1.3c-0.6,0.9,0.4,2.7,0.5,2.9c0,0,0,0,0,0
				s2.3,0.4,2.9-0.6c0.6-1,0.6-4.7,0.6-4.7S301.9,717.8,300.9,718.3z"/>
			<path id="XMLID_14802_" class="st3" d="M351.5,747.3c0.5-1.1-1.1-2.8-1.3-3c0,0,0,0,0,0s-2.6,0.1-3.1,1.3
				c-0.5,1.2,0.4,5.3,0.4,5.3s1.1-0.7,2.2-1.6C350.5,748.6,351.3,747.8,351.5,747.3z"/>
			<path id="XMLID_14801_" class="st3" d="M364.5,690.5c0,0,0.2,1.2,0.4,2.3c0.2,0.9,0.5,1.8,0.8,2.2c0.7,0.8,2.7,0.2,2.9,0.2
				c0,0,0,0,0,0s0.9-2.1,0.2-3C368.1,691.3,364.5,690.5,364.5,690.5z"/>
			<path id="XMLID_14800_" class="st3" d="M269.7,755.5L269.7,755.5C269.7,755.4,269.6,755.4,269.7,755.5L269.7,755.5
				c-0.2-0.1-1.3-0.8-1.9-0.4c-0.6,0.4-1.4,2.6-1.4,2.6s0.8,0,1.5-0.1c0.6-0.1,1.2-0.2,1.4-0.3C269.9,756.9,269.7,755.6,269.7,755.5
				z"/>
		</g>
	</g>
	<g id="XMLID_10350_">
		<g id="XMLID_14793_">
			<path id="XMLID_14797_" class="st0" d="M419.2,109.4c-6.5,0-12.9,0.5-19,1.4c-46.3,6.9-81.3,54-81.3,91.8
				c0,37.8,35,53.6,81.3,60.4c6.2,0.9,12.5,1.4,19,1.4c55.4,0,105.6-13.7,105.6-56.5C524.9,153.6,474.6,109.4,419.2,109.4z"/>
			<path id="XMLID_14796_" class="st1" d="M517.7,215.1c0,42.8-50.2,56.5-105.6,56.5c-6.5,0-12.9-0.5-19-1.4
				c-24.1-3.6-45.1-9.5-59.7-19.8c-1.8-1.2-3.5-2.5-5-3.9c-5-4.3-9-9.2-11.8-14.9v0c-1-2.1-1.9-4.3-2.6-6.6
				c-1.5-4.6-2.2-9.7-2.2-15.2c0-37.8,35-85,81.3-91.8c6.2-0.9,12.5-1.4,19-1.4C467.4,116.6,517.7,160.8,517.7,215.1z"/>
			<path id="XMLID_14795_" class="st2" d="M333.3,250.4c0,0,33.8-22.3,55.1-28.5c21.2-6.2,31-4.1,39.2-13.2
				c8.3-9.2,13.9-19.2,13.9-19.2s-8.6,14.2-22.1,19.2c-13.6,5-15.9,5.2-36.3,11.3c-20.4,6.1-22.2,9-31.6,13.8
				c-9.4,4.7-23.2,12.8-23.2,12.8L333.3,250.4z"/>
			<path id="XMLID_14794_" class="st2" d="M467.4,168.2c-1.4,1.9-22.7,21.2-50.2,31.1c-14.1,5.1-19.7,5.3-42.3,8.8
				c-18.3,2.8-47.8,17.8-58.4,23.5c-1-2.1-1.9-4.3-2.6-6.6c5.5-2.6,14.6-6.7,21.4-9.4c10.6-4.2,13.3-7.7,35-11.2
				c21.7-3.5,24-3.3,38.8-6.9C422.7,194.2,465.6,170.5,467.4,168.2z"/>
		</g>
		<g id="XMLID_10351_">
			<circle id="XMLID_14792_" class="st3" cx="372.5" cy="192.3" r="2"/>
			<circle id="XMLID_14791_" class="st3" cx="463.3" cy="180.1" r="2"/>
			<circle id="XMLID_14790_" class="st3" cx="439.3" cy="163" r="2"/>
			<circle id="XMLID_14789_" class="st3" cx="388.6" cy="158.6" r="2"/>
			<circle id="XMLID_14788_" class="st3" cx="437.9" cy="142.5" r="0.9"/>
			<circle id="XMLID_14787_" class="st3" cx="396.3" cy="211.8" r="0.9"/>
			<path id="XMLID_14786_" class="st3" d="M347.2,193.3c-0.8,0.4-1.6,0.9-1.9,1.3c-0.6,0.9,0.4,2.6,0.5,2.8c0,0,0,0,0,0
				s2.2,0.4,2.8-0.6c0.6-0.9,0.6-4.5,0.6-4.5S348.3,192.7,347.2,193.3z"/>
			<path id="XMLID_14781_" class="st3" d="M421.4,201.7c-0.8,0.4-1.6,0.9-1.9,1.3c-0.6,0.9,0.4,2.6,0.5,2.8c0,0,0,0,0,0
				s2.2,0.4,2.8-0.6c0.6-0.9,0.6-4.5,0.6-4.5S422.5,201.2,421.4,201.7z"/>
			<path id="XMLID_14776_" class="st3" d="M470.6,229.8c0.4-1.1-1.1-2.8-1.2-2.9c0,0,0,0,0,0s-2.5,0.1-3,1.3
				c-0.5,1.2,0.4,5.1,0.4,5.1s1.1-0.7,2.1-1.6C469.7,231,470.4,230.3,470.6,229.8z"/>
			<path id="XMLID_14771_" class="st3" d="M483.2,174.7c0,0,0.1,1.1,0.4,2.3c0.2,0.9,0.5,1.8,0.8,2.1c0.7,0.8,2.6,0.2,2.8,0.2
				c0,0,0,0,0,0s0.9-2,0.2-2.9C486.7,175.5,483.2,174.7,483.2,174.7z"/>
			<path id="XMLID_11700_" class="st3" d="M391.1,237.7L391.1,237.7C391.1,237.7,391.1,237.7,391.1,237.7L391.1,237.7
				c-0.2-0.1-1.3-0.7-1.8-0.4c-0.6,0.4-1.4,2.6-1.4,2.6s0.7,0,1.5-0.1c0.6-0.1,1.1-0.2,1.4-0.3C391.4,239.1,391.2,237.9,391.1,237.7
				z"/>
		</g>
	</g>
	<g id="XMLID_10315_">
		<g id="XMLID_10345_">
			<path id="XMLID_10349_" class="st0" d="M796.8,426.5c-6.7,0-13.2,0.5-19.5,1.4c-47.3,7-83.1,55.2-83.1,93.9
				c0,38.6,35.8,54.7,83.1,61.8c6.3,0.9,12.8,1.4,19.5,1.4c56.6,0,108-14,108-57.8C904.8,471.8,853.4,426.5,796.8,426.5z"/>
			<path id="XMLID_10348_" class="st1" d="M897.4,534.6c0,43.8-51.4,57.8-108,57.8c-6.7,0-13.2-0.5-19.5-1.4
				c-24.6-3.6-46.1-9.8-61.1-20.2c-1.8-1.2-3.5-2.6-5.1-4c-5.1-4.4-9.2-9.4-12-15.3v0c-1-2.1-2-4.4-2.6-6.7
				c-1.5-4.7-2.2-9.9-2.2-15.5c0-38.6,35.8-86.9,83.1-93.9c6.3-0.9,12.8-1.4,19.5-1.4C846.1,433.9,897.4,479.1,897.4,534.6z"/>
			<path id="XMLID_10347_" class="st2" d="M708.9,570.7c0,0,34.6-22.8,56.3-29.2c21.7-6.3,31.7-4.1,40.1-13.5
				c8.4-9.4,14.2-19.6,14.2-19.6s-8.7,14.6-22.6,19.6c-13.9,5.1-16.2,5.3-37.1,11.5c-20.8,6.2-22.7,9.2-32.3,14.1
				c-9.7,4.8-23.7,13.1-23.7,13.1L708.9,570.7z"/>
			<path id="XMLID_10346_" class="st2" d="M846,486.7c-1.4,2-23.2,21.7-51.3,31.8c-14.4,5.2-20.1,5.5-43.2,9
				c-18.7,2.9-48.8,18.2-59.7,24c-1-2.1-2-4.4-2.6-6.7c5.7-2.7,14.9-6.9,21.9-9.6c10.9-4.3,13.6-7.9,35.8-11.5
				c22.2-3.6,24.6-3.4,39.7-7C800.3,513.2,844.2,489,846,486.7z"/>
		</g>
		<g id="XMLID_10316_">
			<circle id="XMLID_10344_" class="st3" cx="749" cy="511.3" r="2.1"/>
			<circle id="XMLID_10339_" class="st3" cx="841.8" cy="498.8" r="2.1"/>
			<circle id="XMLID_10338_" class="st3" cx="817.3" cy="481.3" r="2.1"/>
			<circle id="XMLID_10337_" class="st3" cx="765.4" cy="476.9" r="2.1"/>
			<circle id="XMLID_10336_" class="st3" cx="815.9" cy="460.4" r="0.9"/>
			<circle id="XMLID_10335_" class="st3" cx="773.3" cy="531.2" r="0.9"/>
			<path id="XMLID_10324_" class="st3" d="M723.2,512.3c-0.8,0.4-1.6,0.9-1.9,1.3c-0.6,0.9,0.4,2.6,0.5,2.9c0,0,0,0,0,0
				s2.3,0.4,2.9-0.6c0.6-1,0.6-4.6,0.6-4.6S724.2,511.7,723.2,512.3z"/>
			<path id="XMLID_10322_" class="st3" d="M799,520.9c-0.8,0.4-1.6,0.9-1.9,1.3c-0.6,0.9,0.4,2.6,0.5,2.9c0,0,0,0,0,0
				s2.3,0.4,2.9-0.6c0.6-1,0.6-4.6,0.6-4.6S800.1,520.3,799,520.9z"/>
			<path id="XMLID_10321_" class="st3" d="M849.3,549.6c0.5-1.1-1.1-2.8-1.3-3c0,0,0,0,0,0s-2.6,0.1-3.1,1.3
				c-0.5,1.2,0.4,5.2,0.4,5.2s1.1-0.7,2.1-1.6C848.3,550.9,849.1,550.2,849.3,549.6z"/>
			<path id="XMLID_10319_" class="st3" d="M862.2,493.2c0,0,0.2,1.2,0.4,2.3c0.2,0.9,0.5,1.8,0.8,2.2c0.7,0.8,2.7,0.2,2.9,0.2
				c0,0,0,0,0,0s0.9-2.1,0.2-2.9C865.8,494.1,862.2,493.2,862.2,493.2z"/>
			<path id="XMLID_10318_" class="st3" d="M768.1,557.7L768.1,557.7C768.1,557.7,768,557.7,768.1,557.7
				C768,557.7,768,557.7,768.1,557.7c-0.2-0.1-1.3-0.8-1.9-0.4c-0.6,0.4-1.4,2.6-1.4,2.6s0.7,0,1.5-0.1c0.6-0.1,1.2-0.2,1.4-0.3
				C768.3,559.2,768.1,557.9,768.1,557.7z"/>
		</g>
	</g>
	<g id="XMLID_10290_">
		<g id="XMLID_14828_">
			<path id="XMLID_14832_" class="st0" d="M487.4,555.7c6.1,0.7,12.1,1,17.9,0.9c44-1.1,82-41.1,86.3-76.4
				c4.3-35.3-26.5-54-68.9-65.7c-5.6-1.6-11.5-2.7-17.6-3.5c-51.7-6.3-100.1,0.7-105,40.6C393.9,502.3,435.7,549.4,487.4,555.7z"/>
			<path id="XMLID_14831_" class="st1" d="M407.6,445.8c4.9-40,53.3-47,105-40.7c6.1,0.7,12,1.9,17.6,3.5
				c22.1,6.1,41,14.1,53.5,25.3c1.5,1.3,2.9,2.8,4.2,4.2c4.2,4.6,7.3,9.6,9.3,15.3l0,0c0.7,2.1,1.3,4.2,1.7,6.4
				c0.8,4.5,0.9,9.3,0.3,14.4c-4.3,35.3-42.3,75.3-86.3,76.4c-5.9,0.2-11.8-0.1-17.9-0.9C443.2,543.5,401.4,496.5,407.6,445.8z"/>
			<path id="XMLID_14830_" class="st2" d="M583.7,433.9c0,0-34.1,17-54.6,20.3c-20.5,3.4-29.4,0.2-38.1,7.9
				c-8.8,7.6-15.1,16.3-15.1,16.3s9.6-12.3,22.8-15.4c13.2-3.1,15.4-3,35.1-6.4s21.7-5.9,31.1-9.2c9.3-3.3,23.1-9.3,23.1-9.3
				L583.7,433.9z"/>
			<path id="XMLID_14829_" class="st2" d="M449.1,495.3c1.5-1.7,23.6-17.2,50.4-23.3c13.8-3.1,19-2.7,40.5-3.4
				c17.4-0.5,46.6-11.2,57.2-15.2c0.7,2.1,1.3,4.2,1.7,6.4c-5.5,1.8-14.4,4.6-21.1,6.4c-10.4,2.7-13.3,5.7-33.9,6.5
				c-20.7,0.8-22.8,0.3-37,2C493.8,476.2,451.1,493.4,449.1,495.3z"/>
		</g>
		<g id="XMLID_14816_">
			<circle id="XMLID_14827_" class="st3" cx="540.4" cy="483.7" r="1.9"/>
			<circle id="XMLID_14826_" class="st3" cx="454.4" cy="484.7" r="1.9"/>
			<circle id="XMLID_14825_" class="st3" cx="474.8" cy="503.4" r="1.9"/>
			<circle id="XMLID_14824_" class="st3" cx="521.6" cy="513.2" r="1.9"/>
			<circle id="XMLID_14823_" class="st3" cx="473.7" cy="522.7" r="0.8"/>
			<circle id="XMLID_14822_" class="st3" cx="520.5" cy="462.8" r="0.8"/>
			<path id="XMLID_14821_" class="st3" d="M564.1,485.7c0.8-0.3,1.6-0.6,1.9-1c0.7-0.8-0.1-2.5-0.2-2.7c0,0,0,0,0,0s-2-0.6-2.7,0.2
				c-0.7,0.8-1.1,4.2-1.1,4.2S563.1,486,564.1,485.7z"/>
			<path id="XMLID_14820_" class="st3" d="M495.9,469.3c0.8-0.3,1.6-0.6,1.9-1c0.7-0.8-0.1-2.5-0.2-2.7c0,0,0,0,0,0s-2-0.6-2.7,0.2
				c-0.7,0.8-1.1,4.2-1.1,4.2S494.8,469.7,495.9,469.3z"/>
			<path id="XMLID_14819_" class="st3" d="M453.2,437.5c-0.5,1,0.7,2.7,0.8,2.9c0,0,0,0,0,0s2.4,0.2,2.9-0.9c0.6-1,0.2-4.8,0.2-4.8
				s-1.1,0.5-2.1,1.2C454.2,436.4,453.4,437,453.2,437.5z"/>
			<path id="XMLID_14818_" class="st3" d="M435.1,487.5c0,0,0-1.1-0.1-2.2c-0.1-0.8-0.2-1.7-0.5-2.1c-0.6-0.8-2.4-0.5-2.6-0.5
				c0,0,0,0,0,0s-1.1,1.8-0.5,2.7C432,486.3,435.1,487.5,435.1,487.5z"/>
			<path id="XMLID_14817_" class="st3" d="M528.2,439.1L528.2,439.1C528.2,439.2,528.3,439.2,528.2,439.1
				C528.3,439.2,528.3,439.2,528.2,439.1c0.2,0.1,1.1,0.8,1.7,0.5c0.6-0.3,1.6-2.2,1.6-2.2s-0.7-0.1-1.4-0.1c-0.5,0-1.1,0-1.3,0.2
				C528.2,437.8,528.2,439,528.2,439.1z"/>
		</g>
	</g>
</g>
</svg>
