<?xml version="1.0" encoding="utf-8"?>
<!-- Generator: Adobe Illustrator 19.0.0, SVG Export Plug-In . SVG Version: 6.00 Build 0)  -->
<svg version="1.1" id="Layer_1" xmlns="http://www.w3.org/2000/svg" xmlns:xlink="http://www.w3.org/1999/xlink" x="0px" y="0px"
	 viewBox="0 0 1000 990.3" style="enable-background:new 0 0 1000 990.3;" xml:space="preserve">
<style type="text/css">
	.st0{fill:#DFC19B;}
	.st1{fill:#C9A681;}
	.st2{fill:#F7E8D7;}
	.st3{fill:#020100;}
	.st4{fill:#623619;}
	.st5{fill:#F2E1CE;}
	.st6{fill:#090401;}
	.st7{fill:#5F472B;}
	.st8{fill:none;}
	.st9{fill:#947349;}
	.st10{fill:#BC7F48;}
</style>
<g id="XMLID_10818_">
	<g id="XMLID_11017_">
		<path id="XMLID_11049_" class="st0" d="M207,508.5c-7.3,7.2-18.6,19.6-17.4,38.6c1.2,19,15,26.6,19.8,30.5
			c4.9,3.9,12.6,3,20.5-3.3c7.9-6.3,17.1-19.2,18.4-18.1c0.9,0.8,6.9,3.8,10.3,7.7c1.4,1.6,3.3,3.2,4.9,1.9c2.1-1.7,2.6,0.5,4.1-1.5
			c2.7-3.6,6.5-6.4,11.1-9.6c4.7-3.3,2.7-2.9,1.2-5.4c-0.8-1.3-20-9.8-3.9-19.5c5.7-3.4,16-2.8,14.5-18.7
			c-0.9-10.1-13.7-26.9-35.7-29.1C232.7,479.8,214.3,501.2,207,508.5z"/>
		<path id="XMLID_11048_" class="st1" d="M209.2,509c-7.1,7-18.6,18.1-17.4,36.8c1.2,18.6,11.9,24.9,16.7,28.6
			c9.8,7.4,20.1,5.5,27.6-5.2c6.8-9.6,11.2-9.6,12.8-9.9c1.1-0.2,5.1,6.2,8.5,10c1.4,1.6,3.8,1.9,5.3,0.7c2-1.6,4.7-3.9,6.1-5.9
			c2.6-3.5,4.3-4.3,8.8-7.5c4.5-3.2,4.8-5.9,3.8-7.1c-2.4-2.8-7.6-7.7-11.4-11.5c0,0,0-0.1,0-0.2c0-0.4-0.6-5,4.5-6.7
			c11.7-3.8,16.7-8.3,15.9-18.2c-1-11.6-14.6-28.2-37.5-29.2C231.1,482.8,216.3,502,209.2,509z"/>
		<path id="XMLID_11047_" class="st2" d="M234.9,489.3c-4.8,2.3-9.6,5.6-14.6,10.1c-3,2.7-5.6,5.4-7.6,7.5c-1,1.1-1.9,2-2.7,2.8
			c-3.5,3.5-7.6,7.7-10.6,13.4c-3.5,6.5-5,13.7-4.4,21.8c0.5,7.9,2.5,14.6,5.8,19.8c2.6,4.1,5.6,6.7,8.5,8.8
			c7.6,5.7,15.4,5.6,22-0.3c1.4-1.3,2.8-2.8,4.1-4.6c1.8-2.6,3.7-4.8,5.5-6.4c3.7-3.3,6.4-3.7,7.7-3.9c0.1,0,0.2,0,0.3,0
			c1.2-0.2,2.4,1.2,5.5,5.3c1.3,1.7,2.7,3.6,4,5c1.1,1.2,4,1.8,5.1,0.9c1-0.8,1.9-1.6,2.7-2.3c1.5-1.3,2.4-2.5,3.1-3.5
			c1-1.3,1.6-1.9,2.6-2.8c1.2-1.1,2.6-2.2,4.3-3.3c8.5-5.5,5.1-6.8,4.6-7.4c-1.9-2.2-5.5-5.7-8.7-8.8c-0.9-0.9-1.8-1.8-2.6-2.6
			c-0.3-0.3-0.4-0.6-0.3-1c0,0,0-0.1,0-0.1c-0.1-2.5,0.7-4.4,2.2-5.9c0.8-0.7,1.8-1.3,3-1.7c5.7-1.8,9.4-3.7,11.8-5.9
			c3.1-2.8,4.2-6.3,3.3-11.1c-0.9-5.1-4.9-11.3-10.6-16.3c-4.9-4.3-13.2-9.7-25.2-11C247.4,485.2,241.1,486.4,234.9,489.3z"/>
		<path id="XMLID_11046_" class="st2" d="M234.9,489.3c-4.8,2.3-9.6,5.6-14.6,10.1c-3,2.7-5.6,5.4-7.6,7.5c-1,1.1-1.9,2-2.7,2.8
			c-3.5,3.5-7.6,7.7-10.6,13.4c-3.5,6.5-5,13.7-4.4,21.8c0.5,7.9,2.5,14.6,5.8,19.8c2.6,4.1,5.6,6.7,8.5,8.8
			c7.6,5.7,15.4,5.6,22-0.3c1.4-1.3,2.8-2.8,4.1-4.6c1.8-2.6,3.7-4.8,5.5-6.4c3.7-3.3,6.4-3.7,7.7-3.9c0.1,0,0.2,0,0.3,0
			c1.2-0.2,2.4,1.2,5.5,5.3c1.3,1.7,2.7,3.6,4,5c1.1,1.2,4,1.8,5.1,0.9c1-0.8,1.9-1.6,2.7-2.3c1.5-1.3,2.4-2.5,3.1-3.5
			c1-1.3,1.6-1.9,2.6-2.8c1.2-1.1,2.6-2.2,4.3-3.3c8.5-5.5,5.1-6.8,4.6-7.4c-1.9-2.2-5.5-5.7-8.7-8.8c-0.9-0.9-1.8-1.8-2.6-2.6
			c-0.3-0.3-0.4-0.6-0.3-1c0,0,0-0.1,0-0.1c-0.1-2.5,0.7-4.4,2.2-5.9c0.8-0.7,1.8-1.3,3-1.7c5.7-1.8,9.4-3.7,11.8-5.9
			c3.1-2.8,4.2-6.3,3.3-11.1c-0.9-5.1-4.9-11.3-10.6-16.3c-4.9-4.3-13.2-9.7-25.2-11C247.4,485.2,241.1,486.4,234.9,489.3z"/>
		<path id="XMLID_11045_" class="st0" d="M224.7,542.3c4.3-1.8,8.1,1.2,10.5,3.6c2.4,2.4,18.2,20.2,22.3,23.4c4.1,3.2,7.1-1,7.1-1
			c-2.2,2-4.1,0.6-5.4-0.6c-1.3-1.2-10.6-12.3-17.8-19.4c-5-5-8-7.6-10.5-8.5C226.7,538.5,224.7,542.3,224.7,542.3z"/>
		<path id="XMLID_11044_" class="st0" d="M213.9,557.2c-0.6,7.3,4.4,12,8,13.2c3.4,1.2,6.7,1.1,7.9-2.4c0,0-6.9,1.6-7.1-5.6
			c-0.2-7.2,6.1-21.6,6.1-21.6l-1-0.9C227.8,539.8,214.8,545.8,213.9,557.2z"/>
		<path id="XMLID_11043_" class="st3" d="M226.3,541.8c-3.3,2.2-9,8.2-9.8,12c-0.7,3.9-1.5,8.9,2.4,12.3c3.9,3.4,8.5,4.8,10.7,1.9
			c0.4-0.5,0.7-1.1,0.9-1.8c0.1-0.4,0.2-0.8,0.3-1.2c0.5-2.5,0.2-5.2,1.6-6.5c2-1.8,6.2,2.2,8.4,1.4c2.2-0.8,4.1-2.8,1.5-6
			c-2.6-3.2-7.8-8.6-7.8-8.6S229.7,539.6,226.3,541.8z"/>
		<path id="XMLID_11042_" class="st4" d="M220.4,546.8c-3,3.7-5.1,7.4-4.6,13.8c0.5,6.4,9.4,10,11.4,8.9c2-1.1,1.5-2.6,0.6-3.9
			c-0.9-1.3-4.1-1.3-4.7-5.2c-0.7-3.9,1.1-6.9,3.2-9.4c2-2.4,3.3-6,3.3-6c0.1-3.4-0.7-3.7-2.2-3.7
			C225.9,541.3,223.4,543.1,220.4,546.8z"/>
		<path id="XMLID_11041_" class="st4" d="M261.6,512.1c-4.2,2.8-6.4,5.2-6.6,6.8c-0.2,1.5-0.1,2.2,3.4,2.3c0,0,3.8-1.1,6.5-3
			c2.8-1.9,6-3.6,9.9-2.7c3.9,0.8,3.4,4,4.5,5c1.1,0.9,2.5,1.5,4-0.5c1.4-1.9-0.8-11-7.1-11.8C269.9,507.4,265.8,509.3,261.6,512.1z
			"/>
		<path id="XMLID_11040_" class="st0" d="M255.8,512.2c-2.4,1.8-5,5.9-3,9.3c2,3.5,3.6,6.9,7.8,11.5c2.3,2.5,6.9,8.5,12,13.2
			c7.7,7.2,7.4,8.2,8.4,7.2c1.8-1.6,1.5-3,1.3-3.4c-2.4-4.5-14.8-14.1-16.3-15.9c-6.1-7.2-3.5-4.4-4.5-6.9c-1.7-4.4-5-6.8-5-9
			c-0.1-2.1,13.6-10.2,13.6-10.2S263,506.9,255.8,512.2z"/>
		<path id="XMLID_11039_" class="st5" d="M281.7,514c0.8,2.8,3.2,3.7-1.8,9.6c0,0,3.7-0.3,5.2-4.1c1.2-2.9,0.6-5.8-1.8-8.4
			c-2.3-2.6-6.3-4-10.2-3.2C273.1,507.9,280.9,511.2,281.7,514z"/>
		<path id="XMLID_11038_" class="st6" d="M257.4,514.5c-0.6,0.6-1.4,1.9-1.5,2.6c-0.5,2.7,2.2,6.8,2.2,6.8
			c1.4,2.9,7.9,11.3,9.1,10.6c1.1-0.7,0.7-2.9,0.4-5.2c-0.3-2.3,2.7-6.8,5.1-6.4c2.4,0.4,5.2,2.9,9.5-1c4.3-3.9,0.7-9.8-1.8-11.8
			c-2.6-2-8.9-2.6-12.3-1.1C264.6,510.7,260.2,511.6,257.4,514.5z"/>
		<path id="XMLID_11037_" class="st7" d="M265,527.7c-1.6,1.9-3.4,1.7-3.4,1.7c3.2,4.1,4.6,5.6,5.7,5.1c1.1-0.5,0.1-1.7-0.3-5
			c-0.4-3.4,2.9-6,2.9-6C267.5,523.6,266.6,525.8,265,527.7z"/>
		<path id="XMLID_11036_" class="st1" d="M269,524.1c-2.3,2.4-2.4,5.5-2.6,6.8c-0.3,1.8-1.5,2.2-1.5,2.2c1.1,1.5,2,2,2.8,1.1
			c0.8-0.9,0.3-3.5,0.4-5c0.2-2.2,0.8-3.3,1.5-4.4c0.6-0.9,1.4-1.3,2-1.5c0.5-0.2,1.7-0.2,1.7-0.2S270.8,522.2,269,524.1z"/>
		<path id="XMLID_11033_" class="st8" d="M276.7,513c-1.4,0.8-1.8,2.4-1.8,2.4c3.1-0.1,3.3,3.3,4.7,5.5c1.3,2.1,2.9,1,2.9,1
			c4.4-4.6-1.7-11.4-1.7-11.4C280.3,512,278.1,512.2,276.7,513z"/>
		<path id="XMLID_11032_" class="st8" d="M274.7,512.4c-1.4,1.4-0.9,3-0.9,3l1.1,0c0,0,0.4-1.1,1.1-1.8c0.7-0.8,3.1-1.6,4-2.1
			c0.9-0.5,0.7-1,0.7-1l-1.6-0.9C277.3,509.6,276.1,511,274.7,512.4z"/>
		<path id="XMLID_11031_" class="st8" d="M259.1,520.5c0,0,0.7-1.5,0.2-2.4c-0.4-0.9-1-2.7-0.2-3.4c0,0-2.1,1.6-2.4,2.6
			C256.5,518.2,257.6,520.3,259.1,520.5z"/>
		<path id="XMLID_11030_" class="st7" d="M233.8,556.1c-2.8,1.3-3,6.8-3,6.8c0.1,1.2-0.1,3.3-0.1,3.3c0.9-1.8,0.9-5.9,1.5-7.2
			c0.5-1.3,2.4-1,4.5,0.1c2.1,1.1,5.6,0.8,7.1-1.2c1.8-2.4-5.4-8.7-5.4-8.7C238.9,551,238.4,554.1,233.8,556.1z"/>
		<path id="XMLID_11029_" class="st1" d="M238,556.4c-2.7-1.1-4.8-0.1-6.1,1.2c-2.3,2.3-1.3,8.7-1.3,8.7c0.6-1.4,0.8-2,0.9-2.9
			c0.7-4.7,2.5-5.4,5.1-4.2c2.7,1.3,5,1.5,6.6,0c2.6-2.5-0.2-4.7-0.2-4.7C242.7,556.7,240.2,557.3,238,556.4z"/>
		<path id="XMLID_11028_" class="st9" d="M225.1,542.6c1.6-0.4,1.8,0.7,2.3,1.3c1.3,1.9-5.9,8.3-8.1,13.6c-1.8,4.2,0.6,9.6,0.6,9.6
			c4.5,3.4,8.4,3.5,9,1.1c0.6-2.4-2.7-3.7-4.5-5c-1.7-1.3-2.1-3.2-2-5.5c0.1-2.4,3-5.3,4.3-7c1.3-1.7,2.9-3.7,3.2-5.1
			c0.3-1.5,0.1-3.8-1.3-4.2C227.1,540.9,225.1,542.6,225.1,542.6z"/>
		<path id="XMLID_11027_" class="st10" d="M225,542.3c0,0,3.6-1,3.8,1.2c0.2,2.2-5.9,9.5-7.3,12.1c-2.2,4.1-0.1,7.9,1.9,9.6
			c2,1.6,1.8,4.6,1.8,4.6s4.8,0.9,4.4-2.3c-0.3-2.2-3.8-2.7-5.7-5.9c-1.4-2.3-0.7-5.5,1.1-8.5c1.8-3,6.5-7.5,5.4-10.3
			C228.8,539.3,225,542.3,225,542.3z"/>
		<path id="XMLID_11026_" class="st9" d="M260.3,515.9c-0.7-0.1-2.4,0.7-1.8-0.9c0,0-2.6,2-2,4c0.4,1.3,2.4,1.7,3.9,1.5
			c1.4-0.2,3.6-1.5,5.3-2.7c1.8-1.2,5-3.7,7.3-3.7c2.3,0,4,0.5,5.1,2.3c1,1.8,1.9,5.1,4.3,4.6c2.4-0.4,3-4.3-0.4-9.5
			c0,0-6.4-3.2-10.6-1.7C266,511.6,262.7,516.4,260.3,515.9z"/>
		<path id="XMLID_11025_" class="st10" d="M258.2,519.6c-2.4-0.6-1.8-3.7-1.8-3.7s-2.1,3.5,1.3,4.8c3.3,1.3,7.5-3,10.6-4.5
			c3.1-1.5,6.3-2,8.3-0.5c2.8,2.1,2.5,4.7,4.5,5.4c2.8,0.9,3.2-2.5,3.2-2.5s-3.1-0.2-4.4-2.3c-1.3-2.1-4.6-4.7-8.8-2.8
			C268.4,514.7,260.5,520.1,258.2,519.6z"/>
		<path id="XMLID_11024_" class="st4" d="M281.9,512.5C282,512.6,282,512.6,281.9,512.5C282,512.6,281.9,512.5,281.9,512.5z"/>
		<path id="XMLID_11023_" class="st4" d="M282,512.6c0.1,0,0.2,0.1,0.3,0.2C282.2,512.8,282.1,512.7,282,512.6z"/>
		<path id="XMLID_11022_" class="st4" d="M282.3,512.8C282.6,513,282.5,512.9,282.3,512.8L282.3,512.8z"/>
		<path id="XMLID_11021_" class="st4" d="M256.3,516.3c-0.3,2.6,3.4,1,7.1-1.7c4.4-3.3,6.2-3.9,9.9-4.6c4.5-0.8,7.5,1.6,8.7,2.4
			c0,0-1.6-4.5-9.9-4.6C265.2,507.9,256.6,513.7,256.3,516.3z"/>
		<path id="XMLID_11020_" class="st0" d="M232.5,537.7c0,0,4.8-0.9,12.2,8.3c7.4,9.2,17.6,21.9,18.7,19.8c1.1-2.1,3.6-1.3-2-7.5
			c-5.6-6.1-14.9-17-19.5-20.6C237.5,534.1,234.9,535.6,232.5,537.7z"/>
		<path id="XMLID_11019_" class="st0" d="M258.1,539.9c5.8,6.4,13.1,16.9,15.9,15.2c2.8-1.7-8-10.8-12.1-15.3
			c-4.1-4.5-9.9-12.9-12.3-11.7C249.7,528.2,252.4,533.5,258.1,539.9z"/>
		<path id="XMLID_11018_" class="st0" d="M247,537.5c0,0,20,24,21.2,21.1c1.3-2.9-18.7-22.1-20-23.1
			C246.9,534.6,247,537.5,247,537.5z"/>
	</g>
	<g id="XMLID_10984_">
		<path id="XMLID_11016_" class="st0" d="M383.5,768.4c6.8,3.9,18.2,9.6,31.9,4.8c13.7-4.8,16.4-16.4,18.2-20.8
			c1.8-4.3-0.4-9.8-6.6-14.3c-6.2-4.5-17.6-8.6-17-9.8c0.4-0.8,1.4-5.8,3.5-9.2c0.9-1.4,1.6-3.1,0.4-4c-1.7-1.2-0.1-2-1.9-2.7
			c-3.2-1.2-6-3.4-9.3-6.2c-3.3-2.7-2.7-1.4-4.2,0.2c-0.8,0.9-3.1,16.6-13.5,6.8c-3.7-3.4-5.3-11.1-16.7-6.8
			c-7.2,2.7-16.9,15.5-14,32.1C357.3,755.5,376.7,764.5,383.5,768.4z"/>
		<path id="XMLID_11015_" class="st1" d="M383.5,766.7c6.6,3.8,17.1,9.9,30.5,5.2c13.4-4.7,15.8-13.8,17.5-18.1
			c3.4-8.7-0.1-15.8-9.5-19.2c-8.4-3-9.3-6.2-9.9-7.3c-0.4-0.8,3.5-5,5.6-8.3c0.9-1.4,0.6-3.1-0.6-4c-1.6-1.2-3.8-2.6-5.6-3.3
			c-3.1-1.2-4-2.3-7.3-4.9c-3.3-2.7-5.3-2.3-6-1.3c-1.6,2.4-4.1,7.1-6.1,10.7c0,0-0.1,0.1-0.1,0.1c-0.3,0.1-3.5,1.5-5.8-1.9
			c-5.2-7.8-9.5-10.5-16.6-7.9c-8.3,3.1-17.7,16.5-13.7,33.5C359.7,756,376.8,762.9,383.5,766.7z"/>
		<path id="XMLID_11014_" class="st2" d="M363.7,751.9c2.7,3,6.1,5.9,10.4,8.6c2.6,1.6,5.1,3,7.1,4.1c1,0.5,1.8,1,2.6,1.4
			c3.3,1.9,7.2,4,12,5c5.5,1.2,11,0.8,16.8-1.2c5.7-2,10.2-4.8,13.3-8.3c2.5-2.8,3.7-5.5,4.7-8c2.6-6.8,1-12.5-4.8-16.1
			c-1.2-0.8-2.7-1.5-4.2-2c-2.3-0.8-4.2-1.7-5.8-2.7c-3.2-2-4-3.9-4.4-4.8c0-0.1-0.1-0.2-0.1-0.2c-0.4-0.9,0.4-2,2.8-5.1
			c1-1.3,2.1-2.7,2.9-3.9c0.7-1,0.5-3.3-0.4-3.9c-0.8-0.5-1.5-1.1-2.2-1.5c-1.3-0.8-2.4-1.2-3.2-1.6c-1.1-0.4-1.7-0.8-2.6-1.3
			c-1-0.6-2.1-1.4-3.3-2.5c-5.8-5.1-6.1-2.3-6.4-1.8c-1.2,1.8-3.1,5.2-4.7,8.2c-0.5,0.9-0.9,1.7-1.3,2.4c-0.1,0.2-0.4,0.4-0.7,0.5
			c0,0,0,0-0.1,0c-1.8,0.6-3.4,0.4-4.8-0.4c-0.7-0.4-1.3-1.1-1.8-1.9c-2.5-3.8-4.7-6.1-6.8-7.4c-2.7-1.7-5.5-1.7-8.8-0.2
			c-3.5,1.7-7.3,5.9-9.8,11.1c-2.2,4.5-4.4,11.7-2.9,20.7C358.2,743.6,360.3,747.9,363.7,751.9z"/>
		<path id="XMLID_11013_" class="st2" d="M363.7,751.9c2.7,3,6.1,5.9,10.4,8.6c2.6,1.6,5.1,3,7.1,4.1c1,0.5,1.8,1,2.6,1.4
			c3.3,1.9,7.2,4,12,5c5.5,1.2,11,0.8,16.8-1.2c5.7-2,10.2-4.8,13.3-8.3c2.5-2.8,3.7-5.5,4.7-8c2.6-6.8,1-12.5-4.8-16.1
			c-1.2-0.8-2.7-1.5-4.2-2c-2.3-0.8-4.2-1.7-5.8-2.7c-3.2-2-4-3.9-4.4-4.8c0-0.1-0.1-0.2-0.1-0.2c-0.4-0.9,0.4-2,2.8-5.1
			c1-1.3,2.1-2.7,2.9-3.9c0.7-1,0.5-3.3-0.4-3.9c-0.8-0.5-1.5-1.1-2.2-1.5c-1.3-0.8-2.4-1.2-3.2-1.6c-1.1-0.4-1.7-0.8-2.6-1.3
			c-1-0.6-2.1-1.4-3.3-2.5c-5.8-5.1-6.1-2.3-6.4-1.8c-1.2,1.8-3.1,5.2-4.7,8.2c-0.5,0.9-0.9,1.7-1.3,2.4c-0.1,0.2-0.4,0.4-0.7,0.5
			c0,0,0,0-0.1,0c-1.8,0.6-3.4,0.4-4.8-0.4c-0.7-0.4-1.3-1.1-1.8-1.9c-2.5-3.8-4.7-6.1-6.8-7.4c-2.7-1.7-5.5-1.7-8.8-0.2
			c-3.5,1.7-7.3,5.9-9.8,11.1c-2.2,4.5-4.4,11.7-2.9,20.7C358.2,743.6,360.3,747.9,363.7,751.9z"/>
		<path id="XMLID_11012_" class="st0" d="M404.7,748.5c-2.2-2.8-0.7-6.2,0.5-8.4c1.3-2.3,11.1-17.5,12.6-21.1c1.5-3.6-2.2-5-2.2-5
			c1.9,1.2,1.3,2.9,0.7,4.1c-0.6,1.2-6.8,10.3-10.5,17c-2.6,4.7-3.9,7.5-4.1,9.5C401.4,747.8,404.7,748.5,404.7,748.5z"/>
		<path id="XMLID_11011_" class="st0" d="M417.8,753.4c5.4-1.1,7.9-5.7,8.1-8.6c0.2-2.7-0.6-5.1-3.4-5.3c0,0,2.6,4.8-2.7,6.4
			c-5.2,1.6-17.1,0-17.1,0l-0.5,0.9C402.2,746.7,409.2,755,417.8,753.4z"/>
		<path id="XMLID_11010_" class="st3" d="M403.9,747.4c2.3,2,7.8,4.9,10.8,4.7c3-0.3,6.8-0.7,8.5-4.3c1.7-3.6,1.7-7.2-0.8-8.3
			c-0.5-0.2-1-0.3-1.5-0.3c-0.3,0-0.6,0-0.9,0c-1.9,0.2-3.9,0.9-5.1,0.2c-1.8-1.1,0.3-5-0.7-6.5c-1-1.4-2.9-2.4-4.7,0.2
			c-1.8,2.6-4.7,7.5-4.7,7.5S401.7,745.4,403.9,747.4z"/>
		<path id="XMLID_11009_" class="st4" d="M408.8,750.7c3.3,1.4,6.5,2.2,11.1,0.5c4.6-1.7,5.4-8.9,4.2-10.2c-1.2-1.2-2.2-0.6-3,0.3
			c-0.7,0.9-0.1,3.2-2.9,4.5c-2.8,1.3-5.3,0.6-7.5-0.4c-2.2-1-5.1-1.2-5.1-1.2c-2.5,0.7-2.5,1.2-2.3,2.3
			C403.7,747.8,405.5,749.3,408.8,750.7z"/>
		<path id="XMLID_11008_" class="st4" d="M375,727.6c2.9,2.5,5.2,3.6,6.3,3.4c1.1-0.2,1.7-0.4,1-3c0,0-1.6-2.6-3.5-4.2
			c-2-1.6-3.8-3.7-4-6.7c-0.2-3,2.3-3.3,2.7-4.3c0.4-1,0.6-2.2-1.1-2.8c-1.7-0.7-7.9,2.9-7.2,7.6C369.8,722.5,372.1,725.1,375,727.6
			z"/>
		<path id="XMLID_11007_" class="st0" d="M376.2,731.8c1.8,1.4,5.3,2.4,7.4,0.3c2.1-2.1,4.3-4.1,6.8-8.1c1.4-2.2,4.8-6.8,7.2-11.5
			c3.7-7.1,4.5-7.1,3.6-7.7c-1.6-1-2.5-0.5-2.8-0.2c-2.8,2.7-7.3,13.7-8.3,15.2c-4,5.9-2.5,3.5-4.2,4.7c-2.9,2.2-4,5-5.5,5.5
			c-1.5,0.5-10.2-7.9-10.2-7.9S370.8,727.7,376.2,731.8z"/>
		<path id="XMLID_11006_" class="st5" d="M372.2,712.6c1.9-1.1,2.1-3.1,7.4-0.7c0,0-0.9-2.6-4.1-3c-2.4-0.3-4.4,0.8-5.8,3
			c-1.4,2.2-1.7,5.4-0.3,8.1C369.5,720.1,370.3,713.7,372.2,712.6z"/>
		<path id="XMLID_11005_" class="st6" d="M377.6,730.2c0.6,0.3,1.7,0.6,2.3,0.6c2.1-0.2,4.5-3,4.5-3c1.9-1.6,6.6-8.1,5.9-8.8
			c-0.7-0.7-2.3,0.1-3.9,0.8c-1.6,0.7-5.5-0.6-5.7-2.4c-0.2-1.9,1.1-4.4-2.7-6.8c-3.7-2.4-7.3,1.5-8.3,3.8c-1,2.3-0.1,7.1,1.8,9.3
			C373.3,725.7,374.9,728.8,377.6,730.2z"/>
		<path id="XMLID_11004_" class="st7" d="M385.7,721.9c1.7,0.8,1.9,2.1,1.9,2.1c2.3-3.2,3.2-4.5,2.6-5.2c-0.6-0.7-1.2,0.3-3.6,1.3
			c-2.4,1-5-0.9-5-0.9C382.2,720.9,384,721.1,385.7,721.9z"/>
		<path id="XMLID_11003_" class="st1" d="M382.2,719.8c2.3,1.2,4.5,0.7,5.5,0.5c1.3-0.2,2,0.7,2,0.7c0.9-1.1,1-1.9,0.2-2.3
			c-0.8-0.4-2.6,0.5-3.7,0.7c-1.7,0.3-2.6,0.1-3.5-0.2c-0.8-0.3-1.2-0.7-1.5-1.1c-0.2-0.3-0.5-1.2-0.5-1.2S380.5,718.8,382.2,719.8z
			"/>
		<path id="XMLID_11000_" class="st8" d="M372.5,716.4c0.9,0.9,2.1,0.8,2.1,0.8c-0.7-2.2,1.7-3.1,3.1-4.5c1.3-1.4,0.1-2.3,0.1-2.3
			c-4.3-2.3-8,3.6-8,3.6C371,714,371.6,715.5,372.5,716.4z"/>
		<path id="XMLID_10999_" class="st8" d="M372.5,717.9c1.3,0.7,2.4,0,2.4,0l-0.3-0.8c0,0-0.9-0.1-1.6-0.5c-0.7-0.4-1.8-2-2.3-2.5
			c-0.6-0.5-0.9-0.3-0.9-0.3l-0.3,1.4C369.9,716.6,371.1,717.2,372.5,717.9z"/>
		<path id="XMLID_10998_" class="st8" d="M381.6,727.7c0,0-1.3-0.2-1.8,0.3c-0.5,0.5-1.8,1.3-2.5,0.8c0,0,1.6,1.2,2.4,1.2
			C380.5,730.1,381.8,728.9,381.6,727.7z"/>
		<path id="XMLID_10997_" class="st7" d="M412.9,739c1.5,1.8,5.6,0.8,5.6,0.8c0.9-0.3,2.5-0.6,2.5-0.6c-1.5-0.3-4.5,0.5-5.6,0.4
			c-1.1-0.1-1.2-1.6-0.8-3.3c0.4-1.8-0.6-4.2-2.3-4.9c-2.1-0.8-5.3,5.7-5.3,5.7C408.1,736.3,410.5,736.1,412.9,739z"/>
		<path id="XMLID_10996_" class="st1" d="M412.3,735.8c-0.2,2.2,0.9,3.6,2.1,4.2c2.2,1.2,6.7-0.8,6.7-0.8c-1.1-0.2-1.6-0.2-2.3-0.1
			c-3.6,0.5-4.5-0.7-4.1-2.9c0.4-2.3,0.1-4-1.4-4.8c-2.4-1.4-3.4,1.1-3.4,1.1C411.5,732.4,412.4,734,412.3,735.8z"/>
		<path id="XMLID_10995_" class="st9" d="M404.8,748.1c-0.6-1.1,0.1-1.5,0.5-1.9c1.1-1.4,7.3,2.6,11.6,3.2c3.5,0.5,6.9-2.4,6.9-2.4
			c1.6-4,0.8-6.8-1.1-6.8c-1.9,0-2.2,2.8-2.8,4.3c-0.6,1.5-1.9,2.2-3.6,2.6c-1.8,0.4-4.5-1.1-6-1.7c-1.5-0.6-3.3-1.4-4.4-1.3
			c-1.1,0.1-2.8,0.7-2.8,1.8C403.1,747,404.8,748.1,404.8,748.1z"/>
		<path id="XMLID_10994_" class="st10" d="M404.6,748.3c0,0-1.5-2.4,0.1-3c1.6-0.6,8.1,2.4,10.3,2.9c3.4,0.8,5.8-1.5,6.6-3.4
			c0.8-1.8,3-2.3,3-2.3s-0.3-3.7-2.6-2.7c-1.6,0.7-1.2,3.3-3.1,5.4c-1.4,1.5-3.9,1.6-6.5,0.9c-2.5-0.7-6.8-3.2-8.6-1.8
			C401.6,746.1,404.6,748.3,404.6,748.3z"/>
		<path id="XMLID_10993_" class="st9" d="M378,727.8c0,0.5,1,1.6-0.3,1.5c0,0,2,1.5,3.3,0.7c0.9-0.5,0.7-2.1,0.3-3.1
			c-0.4-1-1.9-2.3-3.1-3.4c-1.2-1.1-3.8-2.9-4.2-4.6c-0.4-1.7-0.4-3.1,0.6-4.2c1.1-1.1,3.3-2.4,2.5-4.1c-0.8-1.6-3.7-1.3-6.9,2.2
			c0,0-1,5.3,0.9,8.2C373.7,724.5,377.9,726,378,727.8z"/>
		<path id="XMLID_10992_" class="st10" d="M381.1,728.6c0.1,1.9-2.3,2-2.3,2s3,0.8,3.3-1.9c0.2-2.7-3.7-4.9-5.5-6.8
			c-1.7-2-2.8-4.2-2.1-6c1-2.5,3-2.8,3-4.4c0.1-2.3-2.5-1.9-2.5-1.9s0.5,2.3-0.8,3.7c-1.2,1.4-2.5,4.3-0.3,7
			C375.5,722.1,381,726.8,381.1,728.6z"/>
		<path id="XMLID_10991_" class="st4" d="M371.1,712.7C371.1,712.6,371.1,712.6,371.1,712.7C371.1,712.6,371.1,712.7,371.1,712.7z"
			/>
		<path id="XMLID_10990_" class="st4" d="M371.1,712.6c0-0.1,0.1-0.2,0.1-0.3C371.2,712.4,371.2,712.5,371.1,712.6z"/>
		<path id="XMLID_10989_" class="st4" d="M371.2,712.3C371.3,712.1,371.3,712.2,371.2,712.3L371.2,712.3z"/>
		<path id="XMLID_10988_" class="st4" d="M379.1,730.7c2-0.3,0.1-2.7-2.7-4.9c-3.3-2.6-4.1-3.7-5.4-6.3c-1.5-3.1-0.4-5.8,0-6.9
			c0,0-3,2.1-1.3,8.2C371.2,725.9,377.2,731,379.1,730.7z"/>
		<path id="XMLID_10987_" class="st0" d="M399.7,743.7c0,0-1.6-3.3,3.6-10.6c5.2-7.3,12.5-17.4,10.7-17.8c-1.8-0.4-1.7-2.4-5.1,3
			c-3.4,5.3-9.4,14.4-11.1,18.5C396,740.8,397.6,742.4,399.7,743.7z"/>
		<path id="XMLID_10986_" class="st0" d="M396,724.5c3.5-5.5,9.7-13.1,7.9-14.8c-1.8-1.7-6.2,8.1-8.7,12c-2.5,3.9-7.4,9.9-6,11.4
			C389.2,733.1,392.5,730,396,724.5z"/>
		<path id="XMLID_10985_" class="st0" d="M396.6,733.1c0,0,13.5-19.6,11.1-19.9c-2.4-0.3-12.4,18.3-12.8,19.4
			C394.4,733.8,396.6,733.1,396.6,733.1z"/>
	</g>
	<g id="XMLID_10951_">
		<path id="XMLID_10983_" class="st0" d="M555.6,513.2c6.2,8.2,17,21.1,35.9,22.5c19,1.4,28.4-11.3,32.8-15.6
			c4.5-4.3,4.7-12.1-0.5-20.7c-5.2-8.6-16.8-19.5-15.4-20.7c0.9-0.8,4.7-6.3,9-9.2c1.8-1.2,3.6-2.9,2.6-4.6
			c-1.4-2.3,0.9-2.5-0.9-4.2c-3.2-3.1-5.4-7.3-8.1-12.3c-2.6-5.1-2.5-3.1-5.2-1.9c-1.4,0.6-12.4,18.5-19.8,1.2
			c-2.6-6.1-0.6-16.2-16.6-16.9c-10.1-0.4-28.5,9.9-33.6,31.5C530.7,483.9,549.5,505,555.6,513.2z"/>
		<path id="XMLID_10982_" class="st1" d="M556.5,511.1c6,8,15.5,20.9,34.1,22.2c18.6,1.3,26.3-8.4,30.6-12.7
			c8.7-8.8,8.1-19.2-1.4-28c-8.6-8-8-12.4-8.1-14c0-1.1,6.8-4.2,11.1-7.1c1.8-1.2,2.4-3.5,1.4-5.1c-1.3-2.2-3.3-5.1-5-6.9
			c-3.1-3-3.7-4.8-6.2-9.7c-2.5-4.9-5.2-5.6-6.5-4.7c-3.1,2-8.6,6.5-12.9,9.7c-0.1,0-0.1,0-0.2,0c-0.4-0.1-5.1,0-6-5.4
			c-2.2-12.2-6-17.7-15.9-18.2c-11.6-0.6-29.9,10.6-34,33.3C533.4,485.8,550.5,503.1,556.5,511.1z"/>
		<path id="XMLID_10981_" class="st2" d="M540.4,482.9c1.6,5.1,4.3,10.2,8.1,15.8c2.3,3.3,4.6,6.2,6.5,8.6c0.9,1.2,1.7,2.2,2.4,3.1
			c3,4,6.6,8.5,11.8,12.3c6,4.4,12.9,6.7,21,7.3c7.9,0.5,14.8-0.5,20.4-3.1c4.5-2.1,7.4-4.7,9.9-7.2c6.7-6.8,7.7-14.6,2.6-21.9
			c-1.1-1.6-2.4-3.2-4.1-4.6c-2.3-2.2-4.2-4.3-5.6-6.3c-2.8-4.1-2.8-6.8-2.8-8.1c0-0.1,0-0.2,0-0.3c0-1.3,1.5-2.2,6-4.7
			c1.8-1,3.9-2.2,5.5-3.3c1.3-0.9,2.3-3.8,1.6-5c-0.6-1-1.3-2.1-1.9-2.9c-1.1-1.6-2.2-2.7-3.1-3.6c-1.2-1.1-1.7-1.9-2.4-3
			c-0.9-1.3-1.8-2.8-2.7-4.7c-4.3-9.1-6.1-5.9-6.7-5.5c-2.4,1.6-6.4,4.7-9.9,7.4c-1,0.8-2,1.5-2.9,2.2c-0.3,0.2-0.6,0.3-1,0.2
			c0,0-0.1,0-0.1,0c-2.5-0.2-4.3-1.2-5.5-3c-0.6-0.9-1-2-1.3-3.2c-1.1-5.8-2.4-9.8-4.3-12.5c-2.4-3.5-5.7-5-10.6-4.8
			c-5.1,0.2-11.9,3.4-17.5,8.3c-4.9,4.3-11.4,11.8-14.3,23.5C538,470,538.4,476.4,540.4,482.9z"/>
		<path id="XMLID_10980_" class="st2" d="M540.4,482.9c1.6,5.1,4.3,10.2,8.1,15.8c2.3,3.3,4.6,6.2,6.5,8.6c0.9,1.2,1.7,2.2,2.4,3.1
			c3,4,6.6,8.5,11.8,12.3c6,4.4,12.9,6.7,21,7.3c7.9,0.5,14.8-0.5,20.4-3.1c4.5-2.1,7.4-4.7,9.9-7.2c6.7-6.8,7.7-14.6,2.6-21.9
			c-1.1-1.6-2.4-3.2-4.1-4.6c-2.3-2.2-4.2-4.3-5.6-6.3c-2.8-4.1-2.8-6.8-2.8-8.1c0-0.1,0-0.2,0-0.3c0-1.3,1.5-2.2,6-4.7
			c1.8-1,3.9-2.2,5.5-3.3c1.3-0.9,2.3-3.8,1.6-5c-0.6-1-1.3-2.1-1.9-2.9c-1.1-1.6-2.2-2.7-3.1-3.6c-1.2-1.1-1.7-1.9-2.4-3
			c-0.9-1.3-1.8-2.8-2.7-4.7c-4.3-9.1-6.1-5.9-6.7-5.5c-2.4,1.6-6.4,4.7-9.9,7.4c-1,0.8-2,1.5-2.9,2.2c-0.3,0.2-0.6,0.3-1,0.2
			c0,0-0.1,0-0.1,0c-2.5-0.2-4.3-1.2-5.5-3c-0.6-0.9-1-2-1.3-3.2c-1.1-5.8-2.4-9.8-4.3-12.5c-2.4-3.5-5.7-5-10.6-4.8
			c-5.1,0.2-11.9,3.4-17.5,8.3c-4.9,4.3-11.4,11.8-14.3,23.5C538,470,538.4,476.4,540.4,482.9z"/>
		<path id="XMLID_10979_" class="st0" d="M591.6,500.1c-1.2-4.5,2.3-7.8,5-9.9c2.7-2.1,22.5-15.3,26.2-18.9c3.7-3.6,0-7.2,0-7.2
			c1.7,2.4,0.1,4.2-1.3,5.2c-1.4,1.1-13.6,8.9-21.6,15c-5.6,4.3-8.6,7-9.8,9.3C588,497.6,591.6,500.1,591.6,500.1z"/>
		<path id="XMLID_10978_" class="st0" d="M604.9,512.9c7.1,1.6,12.5-2.8,14.2-6.1c1.7-3.2,2-6.5-1.3-8.2c0,0,0.6,7.1-6.5,6.3
			c-7.2-0.8-20.6-8.9-20.6-8.9l-1.1,0.8C589.5,496.8,593.7,510.4,604.9,512.9z"/>
		<path id="XMLID_10977_" class="st3" d="M591.2,498.4c1.7,3.6,6.9,10,10.6,11.3s8.6,2.7,12.5-0.7c3.9-3.4,5.9-7.8,3.3-10.4
			c-0.5-0.5-1-0.8-1.6-1.1c-0.4-0.2-0.8-0.3-1.2-0.5c-2.4-0.8-5.2-0.9-6.3-2.5c-1.5-2.3,3-5.9,2.5-8.1c-0.5-2.3-2.2-4.4-5.7-2.3
			c-3.5,2.2-9.6,6.6-9.6,6.6S589.6,494.8,591.2,498.4z"/>
		<path id="XMLID_10976_" class="st4" d="M595.4,505c3.3,3.4,6.7,6,13.1,6.4c6.4,0.4,11.2-8,10.3-10.1c-0.9-2.1-2.4-1.8-3.7-1.1
			c-1.4,0.7-1.8,3.9-5.8,4c-4,0.1-6.7-2-8.9-4.4c-2.1-2.3-5.5-4-5.5-4c-3.4-0.5-3.7,0.2-4,1.6C590.7,498.8,592.2,501.6,595.4,505z"
			/>
		<path id="XMLID_10975_" class="st4" d="M566.6,459.5c2.2,4.5,4.3,7,5.8,7.4c1.5,0.4,2.2,0.4,2.8-3c0,0-0.5-3.9-2.1-6.9
			c-1.5-3-2.7-6.5-1.4-10.1c1.4-3.7,4.5-2.8,5.5-3.8c1.1-1,1.8-2.3,0.1-4c-1.7-1.7-11-0.7-12.7,5.5C563,450.7,564.4,455,566.6,459.5
			z"/>
		<path id="XMLID_10974_" class="st0" d="M565.9,465.2c1.5,2.6,5.1,5.7,8.8,4.2c3.7-1.5,7.4-2.7,12.5-6.2c2.8-2,9.4-5.7,14.7-10.1
			c8.1-6.7,9.1-6.2,8.3-7.4c-1.4-2-2.7-1.9-3.2-1.7c-4.8,1.8-16,12.7-18,14c-7.9,5.1-4.8,2.9-7.5,3.5c-4.6,1.1-7.4,4-9.6,3.8
			c-2.1-0.2-8.2-14.8-8.2-14.8S561.6,457.4,565.9,465.2z"/>
		<path id="XMLID_10973_" class="st5" d="M571.2,439.9c2.9-0.4,4.1-2.7,9.3,3.1c0,0,0.2-3.7-3.4-5.7c-2.8-1.6-5.7-1.3-8.6,0.6
			c-2.9,2-4.8,5.7-4.5,9.7C564,447.6,568.3,440.3,571.2,439.9z"/>
		<path id="XMLID_10972_" class="st6" d="M568.4,464c0.5,0.6,1.7,1.7,2.4,1.9c2.6,0.8,7-1.3,7-1.3c3.1-1,12.3-6.3,11.7-7.6
			c-0.5-1.2-2.8-1.1-5.1-1.1c-2.3,0-6.4-3.6-5.6-5.9c0.8-2.3,3.6-4.7,0.3-9.5c-3.3-4.8-9.6-2.1-12,0.2c-2.4,2.3-3.8,8.5-2.7,12.1
			C565.6,456.4,565.9,460.9,568.4,464z"/>
		<path id="XMLID_10971_" class="st7" d="M582.5,458.2c1.6,1.8,1.2,3.6,1.2,3.6c4.5-2.6,6.2-3.8,5.8-4.9c-0.4-1.1-1.6-0.3-5-0.4
			c-3.4-0.1-5.6-3.7-5.6-3.7C578.8,455.2,580.9,456.4,582.5,458.2z"/>
		<path id="XMLID_10970_" class="st1" d="M579.5,453.8c2.1,2.6,5.1,3.1,6.4,3.5c1.7,0.5,2,1.8,2,1.8c1.6-0.9,2.2-1.7,1.5-2.6
			c-0.7-0.9-3.4-0.7-4.9-1.1c-2.2-0.5-3.2-1.2-4.2-2.1c-0.8-0.7-1.1-1.5-1.2-2.2c-0.1-0.5,0-1.7,0-1.7S577.8,451.8,579.5,453.8z"/>
		<path id="XMLID_10967_" class="st8" d="M569.5,444.7c0.6,1.5,2.1,2.1,2.1,2.1c0.3-3.1,3.7-2.8,6.1-3.9c2.3-1,1.4-2.7,1.4-2.7
			c-3.9-5-11.5,0.2-11.5,0.2C569,441,568.9,443.2,569.5,444.7z"/>
		<path id="XMLID_10966_" class="st8" d="M568.7,446.5c1.2,1.6,2.8,1.3,2.8,1.3l0.1-1.1c0,0-1-0.6-1.6-1.4c-0.7-0.8-1.1-3.3-1.5-4.2
			c-0.4-0.9-0.9-0.9-0.9-0.9l-1.1,1.5C566.2,443.6,567.4,445,568.7,446.5z"/>
		<path id="XMLID_10965_" class="st8" d="M574.6,463.1c0,0-1.4-0.9-2.3-0.5c-0.9,0.3-2.8,0.6-3.4-0.3c0,0,1.3,2.3,2.2,2.7
			C572,465.4,574.2,464.6,574.6,463.1z"/>
		<path id="XMLID_10964_" class="st7" d="M606.5,493c0.9,3,6.4,3.9,6.4,3.9c1.2,0.1,3.3,0.5,3.3,0.5c-1.6-1.1-5.7-1.7-6.9-2.4
			c-1.2-0.7-0.6-2.5,0.7-4.5c1.4-1.9,1.5-5.4-0.2-7.2c-2.1-2.1-9.4,4.2-9.4,4.2C602.1,487.2,605.1,488.2,606.5,493z"/>
		<path id="XMLID_10963_" class="st1" d="M607.3,488.9c-1.4,2.5-0.7,4.8,0.3,6.2c2,2.6,8.5,2.5,8.5,2.5c-1.3-0.8-1.8-1-2.8-1.3
			c-4.6-1.3-5-3.2-3.4-5.6c1.7-2.5,2.2-4.8,0.9-6.5c-2.2-2.9-4.6-0.4-4.6-0.4C608.2,484.3,608.5,486.8,607.3,488.9z"/>
		<path id="XMLID_10962_" class="st9" d="M591.9,499.8c-0.1-1.7,0.9-1.7,1.6-2.1c2.1-1.1,7.5,6.9,12.4,9.9c3.9,2.3,9.6,0.7,9.6,0.7
			c4-4,4.5-7.8,2.3-8.8c-2.3-0.9-4.1,2.2-5.6,3.8c-1.5,1.5-3.4,1.7-5.7,1.2c-2.3-0.4-4.9-3.7-6.4-5.2c-1.5-1.5-3.2-3.4-4.7-3.8
			c-1.4-0.5-3.7-0.6-4.3,0.7C590.5,497.5,591.9,499.8,591.9,499.8z"/>
		<path id="XMLID_10961_" class="st10" d="M591.6,499.9c0,0-0.5-3.7,1.7-3.6c2.2,0.1,8.6,7.1,11,8.9c3.8,2.7,7.8,1.2,9.7-0.6
			c1.9-1.8,4.8-1.2,4.8-1.2s1.5-4.6-1.7-4.6c-2.2,0-3.2,3.4-6.6,4.9c-2.5,1.1-5.5-0.1-8.3-2.2c-2.7-2.1-6.6-7.4-9.4-6.7
			C589.2,495.7,591.6,499.9,591.6,499.9z"/>
		<path id="XMLID_10960_" class="st9" d="M570.2,461.4c-0.2,0.7,0.4,2.4-1.1,1.7c0,0,1.7,2.8,3.6,2.5c1.4-0.2,2-2.2,2-3.6
			c0-1.5-1.1-3.7-2-5.7c-0.9-1.9-3-5.5-2.7-7.7c0.3-2.3,1.1-3.9,2.9-4.7c1.9-0.8,5.3-1.2,5.2-3.6c-0.1-2.4-3.8-3.5-9.5-0.9
			c0,0-4,5.9-3.1,10.3C566.7,455.2,571,459,570.2,461.4z"/>
		<path id="XMLID_10959_" class="st10" d="M573.5,463.9c-0.9,2.3-3.9,1.2-3.9,1.2s3.2,2.6,4.9-0.6c1.7-3.1-2-7.8-3-11.1
			c-1.1-3.3-1.2-6.5,0.6-8.3c2.5-2.5,5-1.8,5.9-3.7c1.3-2.7-2-3.5-2-3.5s-0.6,3-2.8,4.1c-2.2,1-5.2,3.9-4,8.3
			C570.1,453.1,574.4,461.7,573.5,463.9z"/>
		<path id="XMLID_10958_" class="st4" d="M569.8,439.4C569.8,439.4,569.8,439.4,569.8,439.4C569.8,439.4,569.8,439.4,569.8,439.4z"
			/>
		<path id="XMLID_10957_" class="st4" d="M569.8,439.4c0.1-0.1,0.2-0.2,0.3-0.3C570,439.2,569.9,439.3,569.8,439.4z"/>
		<path id="XMLID_10956_" class="st4" d="M570.1,439.1C570.3,438.9,570.2,439,570.1,439.1L570.1,439.1z"/>
		<path id="XMLID_10955_" class="st4" d="M570.1,465.4c2.6,0.7,1.5-3.3-0.7-7.3c-2.7-4.8-3-6.6-3.2-10.4c-0.2-4.5,2.6-7.2,3.6-8.3
			c0,0-4.7,1-5.9,9.2C562.9,455.4,567.5,464.7,570.1,465.4z"/>
		<path id="XMLID_10954_" class="st0" d="M588.1,491.8c0,0-0.2-4.9,9.8-11c10.1-6.1,24.1-14.5,22.1-15.9c-2-1.4-0.8-3.7-7.7,0.9
			c-6.8,4.7-18.8,12.5-23,16.5C585.2,486.4,586.3,489.1,588.1,491.8z"/>
		<path id="XMLID_10953_" class="st0" d="M593.7,466.7c7.1-4.9,18.5-10.7,17.2-13.7c-1.3-3-11.7,6.5-16.7,9.9
			c-5,3.4-14.1,8.1-13.2,10.6C580.9,473.5,586.6,471.6,593.7,466.7z"/>
		<path id="XMLID_10952_" class="st0" d="M589.8,477.4c0,0,26.4-16.6,23.8-18.2c-2.7-1.6-24.4,15.6-25.6,16.7
			C586.9,477.1,589.8,477.4,589.8,477.4z"/>
	</g>
	<g id="XMLID_10918_">
		<path id="XMLID_10950_" class="st0" d="M365.8,295.6c-0.5-10.3-2.3-26.9-17.3-38.7c-15-11.8-29.8-6.5-35.9-5.4
			c-6.1,1.1-10.6,7.4-11.1,17.5c-0.5,10.1,3,25.5,1.3,25.8c-1.2,0.2-7.4,2.6-12.6,2.6c-2.2,0-4.6,0.4-4.7,2.4
			c-0.1,2.7-2.1,1.6-1.6,4c0.9,4.4,0.5,9.1-0.2,14.7c-0.7,5.6,0.4,3.9,3.2,4.5c1.6,0.3,20.6-8.4,17.2,10.1
			c-1.2,6.5-8.5,13.8,4.3,23.3c8.1,6,29.2,7.7,45.5-7.4C370.1,333.8,366.4,305.9,365.8,295.6z"/>
		<path id="XMLID_10949_" class="st1" d="M363.9,296.9c-0.5-10-1.2-26-15.9-37.4c-14.8-11.5-26.5-7.7-32.5-6.5
			c-12.1,2.4-17.4,11.4-14.5,24.1c2.7,11.4-0.2,14.7-1.1,16.1c-0.6,1-8-0.3-13.1-0.3c-2.1,0-3.9,1.5-4,3.5c-0.1,2.6-0.2,6.1,0.4,8.5
			c0.9,4.3,0.4,6-0.3,11.5c-0.6,5.5,1.2,7.5,2.8,7.6c3.7,0,10.8-0.5,16.1-0.9c0.1,0,0.1,0.1,0.2,0.1c0.3,0.3,4.2,2.9,2,7.8
			c-4.9,11.3-4.9,18,3.1,24c9.3,6.9,30.7,7.9,46.8-8.6C369,330.8,364.4,306.9,363.9,296.9z"/>
		<path id="XMLID_10948_" class="st2" d="M361.6,329.2c1.5-5.1,2.2-10.9,2.1-17.6c0-4-0.3-7.7-0.6-10.7c-0.1-1.5-0.2-2.7-0.3-3.9
			c-0.3-5-0.7-10.8-2.9-16.8c-2.6-7-6.9-12.8-13.3-17.8c-6.3-4.9-12.5-7.8-18.7-8.8c-4.9-0.8-8.7-0.2-12.2,0.5
			c-9.4,1.9-14.5,7.8-14.4,16.7c0,1.9,0.3,4,0.8,6.1c0.7,3.1,1.1,5.9,1.1,8.3c0,5-1.5,7.2-2.2,8.3c-0.1,0.1-0.1,0.2-0.2,0.3
			c-0.7,1.1-2.5,1-7.6,0.6c-2.1-0.2-4.4-0.4-6.4-0.4c-1.6,0-4,1.8-4.1,3.2c-0.1,1.2-0.1,2.4-0.1,3.5c0,2,0.3,3.5,0.6,4.7
			c0.3,1.6,0.3,2.5,0.4,3.8c0,1.6-0.1,3.4-0.4,5.4c-1.5,10,1.8,8.3,2.5,8.3c2.9,0,7.9-0.3,12.4-0.6c1.3-0.1,2.5-0.2,3.7-0.2
			c0.4,0,0.7,0.1,1,0.4c0,0,0,0,0.1,0.1c1.9,1.6,2.9,3.4,2.9,5.6c0,1.1-0.2,2.2-0.7,3.4c-2.4,5.5-3.5,9.5-3.4,12.8
			c0,4.2,2,7.3,6.1,9.9c4.4,2.7,11.7,3.8,19.2,2.9c6.5-0.8,16.1-3.4,25-11.6C356.3,341.3,359.6,335.8,361.6,329.2z"/>
		<path id="XMLID_10947_" class="st2" d="M361.6,329.2c1.5-5.1,2.2-10.9,2.1-17.6c0-4-0.3-7.7-0.6-10.7c-0.1-1.5-0.2-2.7-0.3-3.9
			c-0.3-5-0.7-10.8-2.9-16.8c-2.6-7-6.9-12.8-13.3-17.8c-6.3-4.9-12.5-7.8-18.7-8.8c-4.9-0.8-8.7-0.2-12.2,0.5
			c-9.4,1.9-14.5,7.8-14.4,16.7c0,1.9,0.3,4,0.8,6.1c0.7,3.1,1.1,5.9,1.1,8.3c0,5-1.5,7.2-2.2,8.3c-0.1,0.1-0.1,0.2-0.2,0.3
			c-0.7,1.1-2.5,1-7.6,0.6c-2.1-0.2-4.4-0.4-6.4-0.4c-1.6,0-4,1.8-4.1,3.2c-0.1,1.2-0.1,2.4-0.1,3.5c0,2,0.3,3.5,0.6,4.7
			c0.3,1.6,0.3,2.5,0.4,3.8c0,1.6-0.1,3.4-0.4,5.4c-1.5,10,1.8,8.3,2.5,8.3c2.9,0,7.9-0.3,12.4-0.6c1.3-0.1,2.5-0.2,3.7-0.2
			c0.4,0,0.7,0.1,1,0.4c0,0,0,0,0.1,0.1c1.9,1.6,2.9,3.4,2.9,5.6c0,1.1-0.2,2.2-0.7,3.4c-2.4,5.5-3.5,9.5-3.4,12.8
			c0,4.2,2,7.3,6.1,9.9c4.4,2.7,11.7,3.8,19.2,2.9c6.5-0.8,16.1-3.4,25-11.6C356.3,341.3,359.6,335.8,361.6,329.2z"/>
		<path id="XMLID_10946_" class="st0" d="M328.7,286.4c-1.5,4.4-6.3,5.2-9.7,5.4c-3.4,0.2-27.2,0.2-32.3,1.1c-5.1,0.9-4,6-4,6
			c-0.1-2.9,2.3-3.5,4-3.6c1.7-0.1,16.2,0.2,26.3-0.4c7.1-0.5,11-1,13.3-2.2C330.3,290.5,328.7,286.4,328.7,286.4z"/>
		<path id="XMLID_10945_" class="st0" d="M324.8,268.4c-5-5.3-11.9-4.7-15.2-2.9c-3.2,1.7-5.3,4.3-3.5,7.5c0,0,3.4-6.2,8.9-1.6
			c5.5,4.7,12.1,18.9,12.1,18.9l1.3-0.1C328.6,290.3,332.7,276.7,324.8,268.4z"/>
		<path id="XMLID_10944_" class="st3" d="M328.1,288c0.6-3.9-0.1-12.2-2.5-15.3s-5.7-7-10.8-6.4c-5.2,0.6-9.2,3.2-8.6,6.7
			c0.1,0.7,0.4,1.3,0.7,1.8c0.2,0.4,0.4,0.7,0.7,1c1.6,2,3.8,3.6,3.8,5.5c0,2.7-5.8,3.2-6.6,5.4c-0.8,2.2-0.6,4.9,3.5,5.1
			c4.1,0.2,11.6-0.1,11.6-0.1S327.5,291.9,328.1,288z"/>
		<path id="XMLID_10943_" class="st4" d="M328.2,280.2c-0.8-4.7-2.2-8.7-7.3-12.6c-5.1-3.9-13.7,0.4-14.2,2.6c-0.5,2.2,1,2.9,2.5,3
			c1.5,0.2,3.7-2.2,7-0.1c3.4,2.1,4.4,5.5,4.9,8.6c0.5,3.1,2.3,6.4,2.3,6.4c2.5,2.3,3.2,1.9,4.2,0.8
			C328.7,288,329,284.9,328.2,280.2z"/>
		<path id="XMLID_10942_" class="st4" d="M326.8,334c0.7-5,0.3-8.3-0.7-9.4c-1-1.1-1.6-1.5-4,1c0,0-1.7,3.5-2.1,6.9
			c-0.4,3.3-1.3,6.9-4.5,9.2c-3.2,2.3-5.3-0.2-6.7,0.1c-1.4,0.2-2.8,0.9-2.3,3.3c0.5,2.4,8.8,6.7,13.6,2.5
			C324.8,343.4,326.1,339,326.8,334z"/>
		<path id="XMLID_10941_" class="st0" d="M330.5,329.6c0.3-3-1.1-7.6-4.9-8.4c-3.9-0.8-7.6-1.9-13.8-1.8c-3.4,0-11-0.5-17.8,0.1
			c-10.5,1-11,0.1-11,1.5c0,2.4,1.2,3.1,1.7,3.2c5,1.2,20.4-1.7,22.8-1.6c9.4,0.2,5.6,0.3,8.2,1.3c4.4,1.6,8.4,0.8,10,2.2
			c1.6,1.4-1.4,16.9-1.4,16.9S329.7,338.6,330.5,329.6z"/>
		<path id="XMLID_10940_" class="st5" d="M312.1,347.8c-2.6-1.3-4.9-0.1-6-7.7c0,0-2.2,2.9-0.4,6.6c1.4,2.9,4,4.3,7.5,4.3
			c3.5,0,7.2-2,9.2-5.5C322.3,345.4,314.7,349,312.1,347.8z"/>
		<path id="XMLID_10939_" class="st6" d="M327.8,329.3c-0.1-0.8-0.5-2.3-1-2.9c-1.7-2.1-6.5-2.9-6.5-2.9c-3.1-0.9-13.7-1.6-14-0.3
			c-0.2,1.3,1.7,2.4,3.6,3.7c2,1.3,3.3,6.5,1.4,8.1c-1.9,1.5-5.6,1.9-5.6,7.7c0,5.8,6.8,7.1,10.1,6.5c3.2-0.6,7.9-4.9,9-8.5
			C325.9,337.2,328.1,333.3,327.8,329.3z"/>
		<path id="XMLID_10938_" class="st7" d="M312.9,326.2c-0.3-2.4,1-3.6,1-3.6c-5.2-0.3-7.3-0.3-7.6,0.8c-0.3,1.1,1.2,1.2,4,3.1
			c2.8,1.9,2.6,6.2,2.6,6.2C314.2,330.8,313.2,328.7,312.9,326.2z"/>
		<path id="XMLID_10937_" class="st1" d="M312.9,331.6c-0.3-3.3-2.5-5.4-3.4-6.5c-1.1-1.4-0.7-2.6-0.7-2.6c-1.8-0.2-2.8,0.2-2.7,1.3
			c0.1,1.2,2.4,2.5,3.4,3.6c1.5,1.7,2,2.8,2.3,4c0.2,1,0.1,1.9-0.2,2.5c-0.2,0.5-0.9,1.4-0.9,1.4S313.1,334.2,312.9,331.6z"/>
		<path id="XMLID_10934_" class="st8" d="M316.1,344.7c0.4-1.6-0.6-2.9-0.6-2.9c-2,2.4-4.6,0.3-7.2-0.2c-2.4-0.4-2.7,1.5-2.7,1.5
			c0.5,6.3,9.6,6.3,9.6,6.3C314.5,348.1,315.8,346.3,316.1,344.7z"/>
		<path id="XMLID_10933_" class="st8" d="M317.8,343.6c-0.2-2-1.6-2.6-1.6-2.6l-0.7,0.8c0,0,0.5,1,0.6,2.1c0.1,1-0.9,3.4-1.1,4.3
			c-0.2,1,0.3,1.2,0.3,1.2l1.7-0.6C318.2,347.4,318,345.6,317.8,343.6z"/>
		<path id="XMLID_10932_" class="st8" d="M322.1,326.6c0,0,0.7,1.5,1.7,1.7c0.9,0.2,2.7,1.1,2.7,2.2c0,0,0.2-2.6-0.3-3.5
			C325.6,326.1,323.3,325.6,322.1,326.6z"/>
		<path id="XMLID_10931_" class="st7" d="M312.4,284c0.9-3-3.1-6.8-3.1-6.8c-0.9-0.7-2.4-2.3-2.4-2.3c0.7,1.8,3.8,4.6,4.4,5.9
			c0.6,1.3-0.9,2.4-3.1,3.3c-2.2,0.8-4.3,3.6-3.8,6.1c0.6,2.9,10.1,1.8,10.1,1.8C312.8,291.2,310.9,288.8,312.4,284z"/>
		<path id="XMLID_10930_" class="st1" d="M309.4,287c2.6-1.3,3.3-3.5,3.2-5.3c-0.2-3.3-5.6-6.8-5.6-6.8c0.6,1.4,1,1.9,1.6,2.6
			c3,3.6,2.3,5.5-0.3,6.6c-2.8,1.2-4.5,2.8-4.4,4.9c0.2,3.6,3.6,3,3.6,3C306.1,290.3,307.2,288,309.4,287z"/>
		<path id="XMLID_10929_" class="st9" d="M328.2,286.5c-0.8,1.5-1.7,0.9-2.5,0.8c-2.3-0.2-2.3-9.9-4.7-15.1c-2-4.1-7.6-6-7.6-6
			c-5.5,1.1-8.1,3.9-6.8,6c1.4,2,4.6,0.4,6.7,0c2.1-0.4,3.8,0.5,5.4,2.2c1.7,1.7,2,5.8,2.4,7.9c0.4,2.1,0.8,4.6,1.7,5.8
			c0.9,1.2,2.8,2.6,4,1.8C328.2,289.1,328.2,286.5,328.2,286.5z"/>
		<path id="XMLID_10928_" class="st10" d="M328.6,286.6c0,0-1.6,3.3-3.4,2c-1.8-1.3-3.1-10.7-4.1-13.5c-1.6-4.4-5.8-5.3-8.4-4.9
			c-2.6,0.4-4.7-1.8-4.7-1.8s-3.9,3-1.2,4.8c1.9,1.3,4.5-1,8.2-0.4c2.7,0.5,4.6,3.2,5.6,6.5c1,3.3,1.3,9.8,4.1,10.8
			C328.2,291.4,328.6,286.6,328.6,286.6z"/>
		<path id="XMLID_10927_" class="st9" d="M324.9,330.5c0.6-0.4,1.1-2.2,1.8-0.8c0,0,0.2-3.3-1.6-4.1c-1.2-0.6-2.9,0.7-3.7,1.9
			c-0.8,1.2-1.2,3.7-1.5,5.8c-0.3,2.1-0.6,6.2-2.1,7.9c-1.6,1.7-3.1,2.7-5.1,2.3c-2-0.4-5.1-1.9-6.3,0.1c-1.2,2.1,1.2,5.1,7.4,6.1
			c0,0,6.6-2.7,8.4-6.8C324.2,337.6,322.9,332,324.9,330.5z"/>
		<path id="XMLID_10926_" class="st10" d="M323.5,326.5c2-1.4,3.9,1.1,3.9,1.1s-1.2-3.9-4.4-2.3c-3.2,1.6-2.7,7.6-3.7,10.9
			c-0.9,3.3-2.6,6-5.2,6.6c-3.4,0.7-5.2-1.3-7-0.2c-2.6,1.5-0.3,4.1-0.3,4.1s2.2-2.2,4.6-1.8c2.4,0.4,6.5-0.3,7.9-4.7
			C320.3,337.4,321.6,327.9,323.5,326.5z"/>
		<path id="XMLID_10925_" class="st4" d="M313,348.9C312.9,348.9,312.9,348.9,313,348.9C312.9,348.9,313,348.9,313,348.9z"/>
		<path id="XMLID_10924_" class="st4" d="M312.9,348.9c-0.1,0-0.2,0.1-0.4,0.1C312.6,349,312.7,349,312.9,348.9z"/>
		<path id="XMLID_10923_" class="st4" d="M312.5,349C312.2,349.1,312.3,349.1,312.5,349L312.5,349z"/>
		<path id="XMLID_10922_" class="st4" d="M327.2,327.2c-1.7-2-3.1,1.9-3.5,6.4c-0.5,5.5-1.2,7.2-3.1,10.4c-2.4,3.9-6.1,4.5-7.6,4.9
			c0,0,4.5,1.8,10-4.4C327.6,339.5,328.9,329.2,327.2,327.2z"/>
		<path id="XMLID_10921_" class="st0" d="M327,295.3c0,0-2.5,4.2-14.3,3.6c-11.8-0.5-28.1-1.5-27.2,0.8c0.8,2.3-1.4,3.6,6.9,3.5
			c8.3-0.1,22.6,0.1,28.3-0.9C326.4,301.4,327,298.5,327,295.3z"/>
		<path id="XMLID_10920_" class="st0" d="M308.3,313c-8.6,0.1-21.3-1.4-21.9,1.8c-0.6,3.2,13.4,1.2,19.4,1.1c6,0,16.2,1.1,16.9-1.4
			C322.7,314.4,316.9,312.9,308.3,313z"/>
		<path id="XMLID_10919_" class="st0" d="M317.5,306.2c0,0-31.2-1-29.9,1.8c1.3,2.9,29,0.7,30.6,0.4
			C319.8,308.1,317.5,306.2,317.5,306.2z"/>
	</g>
	<g id="XMLID_10885_">
		<path id="XMLID_10917_" class="st0" d="M562.7,223.8c-7.9,1.9-20.5,5.7-27.4,19c-6.9,13.3-0.6,24,1.1,28.6
			c1.7,4.6,7.3,7.1,15.1,6.1c7.9-1.1,19.3-6.1,19.7-4.8c0.3,0.9,3.1,5.3,3.9,9.3c0.3,1.7,1,3.5,2.5,3.3c2.1-0.3,1.5,1.4,3.3,0.6
			c3.3-1.3,6.9-1.7,11.4-2c4.5-0.3,3-0.9,3-3.2c0-1.2-9.5-14.7,5.3-14.7c5.2,0,11.9,4.6,17.4-6.7c3.4-7.2,1.6-23.7-12.4-34
			C591.6,214.9,570.5,221.9,562.7,223.8z"/>
		<path id="XMLID_10916_" class="st1" d="M563.9,225.1c-7.7,1.9-19.9,4.7-26.6,17.8c-6.7,13.1-2.1,21.6-0.3,26.1
			c3.6,9,11.3,11.8,20.7,7.6c8.4-3.7,11.4-2,12.6-1.5c0.8,0.3,1,6.2,1.7,10.2c0.3,1.7,1.8,2.8,3.3,2.6c2-0.3,4.7-0.8,6.5-1.5
			c3.2-1.3,4.6-1.2,9-1.5c4.3-0.3,5.6-2.1,5.4-3.3c-0.5-2.9-2-8.3-3-12.3c0-0.1,0-0.1,0.1-0.1c0.2-0.3,1.6-3.6,5.7-2.7
			c9.5,2.2,14.7,1.1,18.1-5.9c4-8.2,1.6-24.9-13.5-34.9C589.3,216.2,571.6,223.2,563.9,225.1z"/>
		<path id="XMLID_10915_" class="st2" d="M589.2,222.2c-4.2-0.4-8.7-0.1-13.9,0.9c-3.1,0.6-5.9,1.4-8.2,2c-1.1,0.3-2.1,0.6-3,0.8
			c-3.8,0.9-8.2,2.1-12.6,4.7c-5,3-8.9,7.2-11.8,12.9c-2.8,5.6-4.2,10.8-4.1,15.7c0.1,3.9,1.1,6.8,2.1,9.4c2.8,7,8.1,10,15,8.7
			c1.5-0.3,3-0.8,4.6-1.5c2.3-1,4.4-1.7,6.3-2.1c3.8-0.8,5.8,0.1,6.7,0.5c0.1,0,0.2,0.1,0.2,0.1c0.9,0.4,1.1,1.8,1.6,5.8
			c0.2,1.6,0.4,3.5,0.7,5c0.2,1.2,2,2.8,3.1,2.7c1-0.1,1.9-0.3,2.7-0.5c1.5-0.3,2.6-0.8,3.5-1.1c1.2-0.5,1.9-0.6,2.9-0.8
			c1.2-0.2,2.6-0.4,4.2-0.5c7.9-0.3,6.2-2.6,6.1-3.1c-0.4-2.2-1.4-6.1-2.3-9.5c-0.3-1-0.5-1.9-0.7-2.8c-0.1-0.3,0-0.5,0.2-0.8
			c0,0,0,0,0-0.1c0.9-1.7,2.2-2.7,3.9-3.1c0.8-0.2,1.7-0.1,2.7,0.1c4.6,1,7.9,1.3,10.4,0.8c3.2-0.6,5.4-2.6,6.7-6.2
			c1.5-3.8,1.2-9.6-0.5-15.2c-1.6-4.9-5-11.9-12.6-17.6C599.3,224.5,594.6,222.7,589.2,222.2z"/>
		<path id="XMLID_10914_" class="st2" d="M589.2,222.2c-4.2-0.4-8.7-0.1-13.9,0.9c-3.1,0.6-5.9,1.4-8.2,2c-1.1,0.3-2.1,0.6-3,0.8
			c-3.8,0.9-8.2,2.1-12.6,4.7c-5,3-8.9,7.2-11.8,12.9c-2.8,5.6-4.2,10.8-4.1,15.7c0.1,3.9,1.1,6.8,2.1,9.4c2.8,7,8.1,10,15,8.7
			c1.5-0.3,3-0.8,4.6-1.5c2.3-1,4.4-1.7,6.3-2.1c3.8-0.8,5.8,0.1,6.7,0.5c0.1,0,0.2,0.1,0.2,0.1c0.9,0.4,1.1,1.8,1.6,5.8
			c0.2,1.6,0.4,3.5,0.7,5c0.2,1.2,2,2.8,3.1,2.7c1-0.1,1.9-0.3,2.7-0.5c1.5-0.3,2.6-0.8,3.5-1.1c1.2-0.5,1.9-0.6,2.9-0.8
			c1.2-0.2,2.6-0.4,4.2-0.5c7.9-0.3,6.2-2.6,6.1-3.1c-0.4-2.2-1.4-6.1-2.3-9.5c-0.3-1-0.5-1.9-0.7-2.8c-0.1-0.3,0-0.5,0.2-0.8
			c0,0,0,0,0-0.1c0.9-1.7,2.2-2.7,3.9-3.1c0.8-0.2,1.7-0.1,2.7,0.1c4.6,1,7.9,1.3,10.4,0.8c3.2-0.6,5.4-2.6,6.7-6.2
			c1.5-3.8,1.2-9.6-0.5-15.2c-1.6-4.9-5-11.9-12.6-17.6C599.3,224.5,594.6,222.7,589.2,222.2z"/>
		<path id="XMLID_10913_" class="st0" d="M561,253.8c3.6,0.5,4.9,4.1,5.6,6.7c0.6,2.6,4.1,21,5.6,24.8c1.5,3.8,5.2,2.2,5.2,2.2
			c-2.3,0.5-3-1.3-3.4-2.6c-0.4-1.3-2.2-12.6-4.2-20.3c-1.4-5.4-2.4-8.4-3.7-10C563.9,252,561,253.8,561,253.8z"/>
		<path id="XMLID_10912_" class="st0" d="M547.6,259.5c-3.3,4.7-1.9,9.9,0,12.2c1.8,2.2,4.1,3.4,6.3,1.6c0,0-5.3-1.8-2.5-6.7
			c2.8-4.9,12.8-12.1,12.8-12.1l-0.3-1C564,253.4,552.9,252.2,547.6,259.5z"/>
		<path id="XMLID_10911_" class="st3" d="M562.3,254.1c-3.1,0.1-9.4,1.9-11.4,4.2c-2.1,2.3-4.6,5.4-3.3,9.3c1.2,3.9,3.8,6.7,6.5,5.6
			c0.5-0.2,0.9-0.5,1.3-0.8c0.2-0.2,0.5-0.4,0.7-0.7c1.3-1.5,2.2-3.5,3.7-3.8c2.1-0.4,3.3,4,5.1,4.3c1.8,0.3,3.9-0.3,3.4-3.4
			c-0.5-3.2-1.8-9-1.8-9S565.4,254,562.3,254.1z"/>
		<path id="XMLID_10910_" class="st4" d="M556.2,255.1c-3.5,1.3-6.4,3-8.7,7.5c-2.2,4.5,2.3,10.5,4.1,10.6c1.8,0,2.1-1.2,2-2.3
			c-0.1-1.2-2.2-2.5-1.1-5.4c1.1-2.9,3.6-4.2,5.9-5c2.4-0.8,4.6-2.8,4.6-2.8c1.4-2.3,1-2.7,0-3.4
			C562.2,253.6,559.7,253.8,556.2,255.1z"/>
		<path id="XMLID_10909_" class="st4" d="M598.1,248.4c-3.9,0.2-6.4,1-7.2,1.9c-0.7,0.9-1,1.5,1.3,2.9c0,0,3,0.8,5.6,0.6
			c2.6-0.2,5.5,0,7.8,2.2c2.3,2.1,0.6,4.1,1,5.2c0.4,1.1,1.1,2,2.9,1.3c1.8-0.7,3.9-7.8,0-10.9C605.5,248.5,602,248.2,598.1,248.4z"
			/>
		<path id="XMLID_10908_" class="st0" d="M594.1,246.1c-2.4,0.2-5.7,1.9-5.8,5.1c-0.1,3.1-0.3,6.2,0.6,10.9
			c0.5,2.6,1.2,8.6,2.7,13.7c2.3,7.9,1.7,8.5,2.8,8.3c1.9-0.4,2.2-1.4,2.3-1.8c0.2-4-4.3-15.5-4.6-17.4c-1.2-7.3-0.6-4.4-0.2-6.5
			c0.6-3.7-0.6-6.6,0.2-8.1c0.8-1.5,13.3-1.4,13.3-1.4S601.1,245.4,594.1,246.1z"/>
		<path id="XMLID_10907_" class="st5" d="M610.8,257.7c-0.6,2.2,0.6,3.8-5.1,5.8c0,0,2.6,1.3,5.2-0.7c2-1.5,2.7-3.7,2.2-6.4
			c-0.5-2.7-2.6-5.2-5.6-6.3C607.5,250.1,611.4,255.5,610.8,257.7z"/>
		<path id="XMLID_10906_" class="st6" d="M594.3,248.3c-0.6,0.2-1.7,0.7-2.1,1.2c-1.4,1.6-1.2,5.5-1.2,5.5
			c-0.3,2.5,0.8,10.8,1.8,10.8c1.1,0,1.6-1.7,2.3-3.4c0.7-1.7,4.6-3.5,6-2.2c1.5,1.3,2.3,4.1,6.8,3.2c4.5-0.9,4.5-6.3,3.5-8.7
			c-0.9-2.4-5-5.4-7.9-5.7C600.6,248.6,597.3,247.4,594.3,248.3z"/>
		<path id="XMLID_10905_" class="st7" d="M594.1,260.3c-1.8,0.6-3-0.2-3-0.2c0.5,4.1,0.8,5.7,1.7,5.7c0.9,0.1,0.7-1.1,1.8-3.5
			c1.1-2.4,4.4-2.9,4.4-2.9C597.4,258.5,595.9,259.6,594.1,260.3z"/>
		<path id="XMLID_10904_" class="st1" d="M598.2,259.4c-2.5,0.7-3.8,2.7-4.5,3.5c-0.9,1.1-1.9,0.9-1.9,0.9c0.1,1.4,0.5,2.1,1.4,1.9
			c0.9-0.3,1.6-2.3,2.3-3.2c1.1-1.4,1.9-2,2.8-2.4c0.8-0.3,1.5-0.3,2-0.2c0.4,0.1,1.2,0.5,1.2,0.5S600.2,258.9,598.2,259.4z"/>
		<path id="XMLID_10901_" class="st8" d="M607.9,255c-1.3-0.1-2.1,0.9-2.1,0.9c2.1,1.2,0.9,3.5,0.9,5.6c0,1.9,1.6,1.8,1.6,1.8
			c4.8-1.3,3.4-8.4,3.4-8.4C610.7,255.8,609.2,255.1,607.9,255z"/>
		<path id="XMLID_10900_" class="st8" d="M606.8,253.9c-1.5,0.4-1.8,1.6-1.8,1.6l0.7,0.4c0,0,0.7-0.5,1.5-0.8
			c0.8-0.2,2.7,0.2,3.5,0.2c0.8,0,0.9-0.4,0.9-0.4l-0.7-1.2C609.6,253,608.3,253.5,606.8,253.9z"/>
		<path id="XMLID_10899_" class="st8" d="M593,253c0,0,1.1-0.8,1.1-1.5c0.1-0.8,0.4-2.2,1.3-2.4c0,0-2,0.2-2.6,0.8
			C592.1,250.4,592,252.3,593,253z"/>
		<path id="XMLID_10898_" class="st7" d="M561.5,266.8c-2.4-0.3-4.8,3.4-4.8,3.4c-0.4,0.8-1.4,2.2-1.4,2.2c1.3-0.8,3-3.6,3.9-4.3
			c0.9-0.7,2,0.3,3,1.9c1,1.6,3.4,2.8,5.2,2.1c2.2-0.9-0.1-8.1-0.1-8.1C567,265.4,565.4,267.3,561.5,266.8z"/>
		<path id="XMLID_10897_" class="st1" d="M564.2,268.7c-1.4-1.8-3.2-2-4.6-1.7c-2.5,0.7-4.4,5.3-4.4,5.3c1-0.7,1.3-1,1.8-1.6
			c2.4-2.9,3.9-2.6,5.1-0.8c1.3,2,2.8,3.1,4.4,2.7c2.8-0.6,1.8-3.2,1.8-3.2C567.3,270.8,565.4,270.2,564.2,268.7z"/>
		<path id="XMLID_10896_" class="st9" d="M561.1,254.2c1.2,0.4,1,1.2,1,1.8c0.1,1.8-7.3,3.2-11,5.9c-2.9,2.1-3.5,6.7-3.5,6.7
			c1.6,4.1,4.2,5.7,5.6,4.4c1.4-1.3-0.3-3.6-1-5.2c-0.6-1.6-0.1-3,0.9-4.5c1-1.5,4.2-2.4,5.8-3c1.6-0.6,3.4-1.3,4.2-2.2
			c0.8-0.9,1.6-2.5,0.8-3.3C563.2,253.8,561.1,254.2,561.1,254.2z"/>
		<path id="XMLID_10895_" class="st10" d="M561.1,253.9c0,0,2.8,0.8,2,2.3c-0.8,1.6-7.8,4-9.8,5.2c-3.1,1.9-3.3,5.3-2.6,7.2
			c0.7,1.9-0.7,3.9-0.7,3.9s2.9,2.5,3.9,0.2c0.7-1.6-1.4-3.3-1.5-6.3c0-2.1,1.8-4,4.2-5.3c2.4-1.3,7.4-2.4,7.8-4.7
			C564.9,253.5,561.1,253.9,561.1,253.9z"/>
		<path id="XMLID_10894_" class="st9" d="M595.6,250.4c-0.4-0.4-1.9-0.5-0.9-1.3c0,0-2.5,0.3-3,1.8c-0.3,1,0.9,2.1,2,2.6
			c1,0.5,3,0.4,4.7,0.3c1.7-0.1,4.9-0.5,6.4,0.5c1.5,1,2.5,2,2.5,3.6c0,1.6-0.8,4.2,1,4.9c1.8,0.7,3.7-1.7,3.6-6.6
			c0,0-3-4.7-6.5-5.5C601.2,249.8,597,251.7,595.6,250.4z"/>
		<path id="XMLID_10893_" class="st10" d="M592.7,252c-1.4-1.4,0.3-3.2,0.3-3.2s-2.8,1.5-1.1,3.8c1.7,2.2,6.2,1,8.9,1.2
			c2.7,0.2,5.1,1.2,5.8,3c1,2.6-0.3,4.2,0.8,5.4c1.6,1.8,3.2-0.4,3.2-0.4s-2-1.4-2.1-3.3c-0.1-1.9-1.2-5-4.8-5.4
			C601.6,252.8,594.1,253.3,592.7,252z"/>
		<path id="XMLID_10892_" class="st4" d="M611.6,256.9C611.6,256.9,611.6,256.9,611.6,256.9C611.6,256.9,611.6,256.9,611.6,256.9z"
			/>
		<path id="XMLID_10891_" class="st4" d="M611.6,256.9c0,0.1,0.1,0.2,0.1,0.3C611.7,257.1,611.7,257,611.6,256.9z"/>
		<path id="XMLID_10890_" class="st4" d="M611.7,257.2C611.8,257.4,611.8,257.3,611.7,257.2L611.7,257.2z"/>
		<path id="XMLID_10889_" class="st4" d="M592.7,249.1c-1.3,1.6,1.9,2.1,5.5,1.7c4.3-0.4,5.7-0.1,8.5,0.9c3.3,1.3,4.4,4.1,4.9,5.2
			c0,0,0.7-3.7-4.9-7.1C602.1,247,594,247.4,592.7,249.1z"/>
		<path id="XMLID_10888_" class="st0" d="M568.1,253.9c0,0,3.6,1.3,4.9,10.5c1.3,9.2,3,21.9,4.6,20.9c1.6-1,3,0.6,1.7-5.8
			c-1.3-6.4-3.2-17.5-4.8-21.8C572.9,253.4,570.6,253.4,568.1,253.9z"/>
		<path id="XMLID_10887_" class="st0" d="M584.5,265.7c1.3,6.6,2,16.7,4.6,16.7c2.6,0-1.1-10.5-2-15.2c-0.9-4.7-1.5-12.7-3.6-12.8
			C583.5,254.4,583.2,259.1,584.5,265.7z"/>
		<path id="XMLID_10886_" class="st0" d="M577.9,259.6c0,0,3.8,24.3,5.8,22.8c2-1.4-3.7-22.5-4.2-23.7
			C579,257.6,577.9,259.6,577.9,259.6z"/>
	</g>
	<g id="XMLID_10852_">
		<path id="XMLID_10884_" class="st0" d="M781.6,312.6c-1.8,7.9-3.9,20.9,4.9,33c8.9,12.1,21.2,11.2,26.1,11.7
			c4.9,0.5,9.6-3.4,12.1-10.9c2.5-7.5,3.1-20,4.5-19.8c1,0.1,6.2-0.4,10.1,0.7c1.7,0.5,3.6,0.7,4.1-0.8c0.7-2,1.9-0.7,2.1-2.7
			c0.2-3.5,1.6-7,3.2-11.1c1.7-4.1,0.6-3.1-1.5-4.1c-1.1-0.5-17.4,2-10.9-11.2c2.3-4.7,9.4-8.7,1.7-18.5c-4.9-6.3-20.5-12-36-4
			C786.4,282.8,783.3,304.7,781.6,312.6z"/>
		<path id="XMLID_10883_" class="st1" d="M783.3,312.1c-1.7,7.7-4.6,19.9,4.2,31.7c8.8,11.8,18.5,11.4,23.3,11.8
			c9.7,0.7,15.6-4.9,16-15.2c0.4-9.2,3.3-11.1,4.2-12c0.7-0.6,6,1.9,9.9,3c1.6,0.5,3.3-0.3,3.8-1.8c0.6-1.9,1.4-4.6,1.5-6.5
			c0.2-3.4,1-4.7,2.7-8.7c1.7-4,0.7-6-0.5-6.3c-2.8-0.8-8.3-1.9-12.4-2.7c-0.1,0-0.1-0.1-0.1-0.1c-0.2-0.3-2.6-3,0.1-6.3
			c6.1-7.5,7.5-12.6,2.7-18.8c-5.6-7.2-21.6-12.4-37.3-3.3C786.6,285.3,785,304.4,783.3,312.1z"/>
		<path id="XMLID_10882_" class="st2" d="M791.9,288.1c-2.2,3.6-4,7.8-5.3,12.9c-0.8,3-1.4,5.9-1.8,8.2c-0.2,1.1-0.4,2.1-0.6,3
			c-0.9,3.8-1.7,8.3-1.3,13.4c0.5,5.8,2.5,11.1,6.4,16.3c3.7,5,7.9,8.6,12.3,10.6c3.5,1.6,6.6,2,9.4,2.2c7.5,0.6,12.6-2.9,14.4-9.6
			c0.4-1.5,0.6-3.1,0.7-4.8c0.1-2.5,0.4-4.7,0.9-6.5c1-3.8,2.6-5.2,3.4-5.8c0.1-0.1,0.1-0.1,0.2-0.2c0.7-0.7,2.1-0.2,5.9,1.2
			c1.5,0.6,3.3,1.2,4.8,1.6c1.2,0.3,3.4-0.5,3.8-1.6c0.3-0.9,0.6-1.8,0.8-2.6c0.4-1.5,0.5-2.7,0.6-3.7c0.1-1.3,0.3-2,0.5-3
			c0.3-1.2,0.8-2.5,1.4-4c3.2-7.2,0.4-6.7-0.1-6.8c-2.2-0.6-6.1-1.4-9.5-2.1c-1-0.2-1.9-0.4-2.8-0.6c-0.3-0.1-0.5-0.2-0.6-0.5
			c0,0,0,0-0.1-0.1c-1.1-1.6-1.5-3.2-1-4.8c0.2-0.8,0.6-1.6,1.3-2.4c2.9-3.6,4.6-6.5,5.3-8.9c0.9-3.2,0.1-6-2.5-8.8
			c-2.7-3-8.1-5.4-13.9-6.3c-5.1-0.8-12.9-0.8-21.4,3.5C798.4,280.1,794.7,283.5,791.9,288.1z"/>
		<path id="XMLID_10881_" class="st2" d="M791.9,288.1c-2.2,3.6-4,7.8-5.3,12.9c-0.8,3-1.4,5.9-1.8,8.2c-0.2,1.1-0.4,2.1-0.6,3
			c-0.9,3.8-1.7,8.3-1.3,13.4c0.5,5.8,2.5,11.1,6.4,16.3c3.7,5,7.9,8.6,12.3,10.6c3.5,1.6,6.6,2,9.4,2.2c7.5,0.6,12.6-2.9,14.4-9.6
			c0.4-1.5,0.6-3.1,0.7-4.8c0.1-2.5,0.4-4.7,0.9-6.5c1-3.8,2.6-5.2,3.4-5.8c0.1-0.1,0.1-0.1,0.2-0.2c0.7-0.7,2.1-0.2,5.9,1.2
			c1.5,0.6,3.3,1.2,4.8,1.6c1.2,0.3,3.4-0.5,3.8-1.6c0.3-0.9,0.6-1.8,0.8-2.6c0.4-1.5,0.5-2.7,0.6-3.7c0.1-1.3,0.3-2,0.5-3
			c0.3-1.2,0.8-2.5,1.4-4c3.2-7.2,0.4-6.7-0.1-6.8c-2.2-0.6-6.1-1.4-9.5-2.1c-1-0.2-1.9-0.4-2.8-0.6c-0.3-0.1-0.5-0.2-0.6-0.5
			c0,0,0,0-0.1-0.1c-1.1-1.6-1.5-3.2-1-4.8c0.2-0.8,0.6-1.6,1.3-2.4c2.9-3.6,4.6-6.5,5.3-8.9c0.9-3.2,0.1-6-2.5-8.8
			c-2.7-3-8.1-5.4-13.9-6.3c-5.1-0.8-12.9-0.8-21.4,3.5C798.4,280.1,794.7,283.5,791.9,288.1z"/>
		<path id="XMLID_10880_" class="st0" d="M807.7,327.5c2.1-3,5.9-2.6,8.5-2c2.6,0.6,20.7,5.6,24.7,6c4.1,0.4,4.3-3.7,4.3-3.7
			c-0.6,2.2-2.5,2.2-3.8,1.9c-1.3-0.3-12.2-3.6-20-5.2c-5.5-1.2-8.5-1.6-10.6-1.1C807.4,324,807.7,327.5,807.7,327.5z"/>
		<path id="XMLID_10879_" class="st0" d="M806.9,341.9c2.7,5.1,8,6,10.9,5.4c2.8-0.6,4.9-2.1,4.2-5c0,0-3.9,4-7.1-0.7
			c-3.2-4.7-5.2-16.9-5.2-16.9l-1-0.2C808.7,324.5,802.6,334,806.9,341.9z"/>
		<path id="XMLID_10878_" class="st3" d="M808.6,326.4c-1.3,2.8-2.5,9.2-1.3,12.1c1.2,2.9,2.8,6.5,6.9,7.1c4,0.6,7.7-0.5,7.9-3.3
			c0-0.5,0-1-0.2-1.5c-0.1-0.3-0.2-0.6-0.3-0.9c-0.8-1.9-2.1-3.5-1.7-5c0.6-2.1,5.1-1.2,6.2-2.7c1.1-1.5,1.5-3.6-1.6-4.6
			c-3.1-1-8.8-2.4-8.8-2.4S809.8,323.5,808.6,326.4z"/>
		<path id="XMLID_10877_" class="st4" d="M806.8,332.2c-0.4,3.7-0.2,7.1,2.9,11.1c3,4,10.5,2.6,11.3,1c0.8-1.6-0.1-2.4-1.2-2.8
			c-1.1-0.5-3.2,0.9-5.3-1.4c-2.1-2.3-2.2-5.1-1.9-7.5c0.3-2.5-0.4-5.4-0.4-5.4c-1.4-2.3-2-2.1-3-1.5
			C808.1,326.3,807.2,328.5,806.8,332.2z"/>
		<path id="XMLID_10876_" class="st4" d="M819.3,291.8c-1.6,3.6-2,6.2-1.5,7.3c0.5,1.1,0.9,1.5,3.2,0.1c0,0,2.1-2.3,3.1-4.8
			c1-2.4,2.5-4.9,5.4-6c2.9-1.1,4,1.2,5.1,1.4c1.1,0.1,2.3-0.1,2.4-2c0.1-1.9-5.2-6.9-9.7-4.8C822.7,285.1,820.8,288.1,819.3,291.8z
			"/>
		<path id="XMLID_10875_" class="st0" d="M815.5,294.3c-0.8,2.2-0.8,6,2,7.4c2.8,1.5,5.4,3,10.1,4.3c2.6,0.7,8.2,2.7,13.5,3.6
			c8.1,1.5,8.4,2.3,8.7,1.2c0.5-1.8-0.2-2.6-0.6-2.8c-3.5-1.9-15.8-3-17.6-3.6c-7.1-2.1-4.2-1.4-5.9-2.7c-3-2.2-6.2-2.4-7.1-3.8
			c-1-1.4,4.6-12.5,4.6-12.5S818,287.7,815.5,294.3z"/>
		<path id="XMLID_10874_" class="st5" d="M833.3,284.5c1.7,1.5,3.7,1.1,2.9,7.1c0,0,2.3-1.7,1.7-4.9c-0.5-2.5-2.1-4.1-4.7-4.8
			c-2.6-0.7-5.9,0-8.1,2.2C825.1,284.1,831.6,283,833.3,284.5z"/>
		<path id="XMLID_10873_" class="st6" d="M817.5,295.1c-0.1,0.6-0.1,1.9,0.1,2.4c0.8,2,4.3,3.5,4.3,3.5c2.2,1.3,10,4.1,10.5,3.2
			c0.5-0.9-0.8-2.2-2-3.6c-1.2-1.4-1.1-5.7,0.7-6.4c1.8-0.7,4.7-0.3,5.9-4.7c1.2-4.4-3.7-6.8-6.3-7c-2.6-0.2-7,2.1-8.6,4.6
			C820.6,289.6,818.1,292.1,817.5,295.1z"/>
		<path id="XMLID_10872_" class="st7" d="M828.2,300.6c-0.3,1.9-1.5,2.5-1.5,2.5c3.9,1.3,5.4,1.8,5.9,1c0.5-0.8-0.7-1.1-2.3-3.2
			c-1.7-2-0.7-5.2-0.7-5.2C828.1,296.9,828.4,298.7,828.2,300.6z"/>
		<path id="XMLID_10871_" class="st1" d="M829.2,296.6c-0.5,2.6,0.7,4.6,1.2,5.6c0.6,1.3,0,2.1,0,2.1c1.4,0.5,2.2,0.5,2.3-0.4
			c0.2-0.9-1.3-2.4-1.8-3.4c-0.8-1.6-0.9-2.5-0.9-3.6c0-0.8,0.3-1.5,0.7-1.9c0.3-0.3,1-0.9,1-0.9S829.6,294.5,829.2,296.6z"/>
		<path id="XMLID_10868_" class="st8" d="M829.6,285.9c-0.6,1.1-0.1,2.3-0.1,2.3c2-1.4,3.6,0.8,5.4,1.7c1.7,0.8,2.3-0.6,2.3-0.6
			c1-4.9-6-6.8-6-6.8C831.5,283.7,830.2,284.8,829.6,285.9z"/>
		<path id="XMLID_10867_" class="st8" d="M828.1,286.4c-0.3,1.5,0.7,2.3,0.7,2.3l0.7-0.5c0,0-0.2-0.9,0-1.7c0.1-0.8,1.4-2.4,1.7-3.1
			c0.4-0.7,0.1-1,0.1-1l-1.4,0.1C828.6,283.4,828.4,284.8,828.1,286.4z"/>
		<path id="XMLID_10866_" class="st8" d="M821.2,298.4c0,0-0.2-1.3-0.9-1.7c-0.7-0.4-1.8-1.4-1.6-2.2c0,0-0.7,1.9-0.5,2.7
			C818.5,298,820.1,298.9,821.2,298.4z"/>
		<path id="XMLID_10865_" class="st7" d="M819.6,332.7c-1.3,2,0.9,5.8,0.9,5.8c0.5,0.8,1.3,2.2,1.3,2.2c-0.2-1.5-1.9-4.3-2.1-5.4
			c-0.2-1.1,1.2-1.7,3-1.8c1.9-0.2,4-1.8,4.2-3.8c0.2-2.3-7.3-3.5-7.3-3.5C820.8,327.2,821.8,329.4,819.6,332.7z"/>
		<path id="XMLID_10864_" class="st1" d="M822.5,331.1c-2.3,0.4-3.2,2-3.5,3.3c-0.5,2.5,2.8,6.3,2.8,6.3c-0.2-1.2-0.3-1.6-0.6-2.3
			c-1.5-3.4-0.6-4.6,1.6-4.9c2.4-0.3,4-1.1,4.4-2.8c0.6-2.8-2.1-3-2.1-3C825.7,329.3,824.3,330.7,822.5,331.1z"/>
		<path id="XMLID_10863_" class="st9" d="M808.1,327.5c0.9-0.9,1.5-0.3,2-0.1c1.7,0.7-0.3,8,0.4,12.4c0.6,3.5,4.5,6.1,4.5,6.1
			c4.4,0.4,7-1.3,6.4-3.1c-0.6-1.8-3.4-1.3-5.1-1.4c-1.7-0.1-2.7-1.2-3.7-2.8c-0.9-1.6-0.3-4.8-0.1-6.5c0.2-1.7,0.4-3.7-0.1-4.7
			c-0.5-1.1-1.5-2.5-2.6-2.2C808.7,325.5,808.1,327.5,808.1,327.5z"/>
		<path id="XMLID_10862_" class="st10" d="M807.9,327.3c0,0,1.9-2.2,3-0.8c1.1,1.4,0.1,8.8,0.3,11.1c0.3,3.6,3.3,5.3,5.3,5.5
			c2,0.2,3.2,2.3,3.2,2.3s3.6-1.4,1.9-3.4c-1.1-1.3-3.6-0.2-6.3-1.4c-1.9-0.9-2.8-3.4-2.9-6.1c-0.1-2.7,1.1-7.7-0.8-9.1
			C809.1,323.7,807.9,327.3,807.9,327.3z"/>
		<path id="XMLID_10861_" class="st9" d="M820,294.8c-0.5,0.2-1.3,1.4-1.5,0.2c0,0-0.8,2.4,0.3,3.5c0.8,0.7,2.3,0.1,3.2-0.6
			c0.9-0.7,1.7-2.5,2.4-4.1c0.7-1.5,1.7-4.6,3.3-5.5c1.5-1,2.9-1.4,4.3-0.6c1.4,0.7,3.4,2.5,4.8,1.2c1.4-1.3,0.1-4.1-4.3-6.1
			c0,0-5.6,0.6-7.8,3.4C821.9,289.6,821.8,294.1,820,294.8z"/>
		<path id="XMLID_10860_" class="st10" d="M820.2,298.2c-1.8,0.7-2.7-1.7-2.7-1.7s0.1,3.2,2.9,2.6c2.7-0.6,3.7-5.2,5.1-7.5
			c1.4-2.3,3.3-4,5.3-3.9c2.8,0.2,3.6,2.1,5.2,1.6c2.3-0.6,1.1-3,1.1-3s-2.1,1.2-3.9,0.4c-1.8-0.8-5-1.1-7,1.9
			C824.8,290.6,821.9,297.5,820.2,298.2z"/>
		<path id="XMLID_10859_" class="st4" d="M832.9,283.4C832.9,283.4,832.9,283.4,832.9,283.4C832.9,283.4,832.9,283.4,832.9,283.4z"
			/>
		<path id="XMLID_10858_" class="st4" d="M832.9,283.4c0.1,0,0.2,0,0.3,0C833.2,283.4,833.1,283.4,832.9,283.4z"/>
		<path id="XMLID_10857_" class="st4" d="M833.2,283.4C833.5,283.4,833.4,283.4,833.2,283.4L833.2,283.4z"/>
		<path id="XMLID_10856_" class="st4" d="M817.5,296.8c0.9,1.9,2.7-0.8,4-4.1c1.5-4.1,2.4-5.2,4.6-7.2c2.6-2.4,5.6-2.1,6.8-2.1
			c0,0-3-2.3-8.5,1.2C819.8,287.5,816.6,295,817.5,296.8z"/>
		<path id="XMLID_10855_" class="st0" d="M810.9,321.1c0,0,2.8-2.6,11.6,0.3c8.8,2.9,20.9,7,20.8,5.1c-0.1-1.9,1.8-2.4-4.5-4.1
			c-6.3-1.7-17.1-4.9-21.6-5.3C812.6,316.6,811.6,318.6,810.9,321.1z"/>
		<path id="XMLID_10854_" class="st0" d="M828.8,311.6c6.5,1.8,15.9,5.6,17,3.3c1.1-2.3-9.9-3.7-14.5-4.9
			c-4.6-1.2-12.1-4.3-13.1-2.5C818.2,307.5,822.2,309.9,828.8,311.6z"/>
		<path id="XMLID_10853_" class="st0" d="M820.4,314.8c0,0,23.4,7.4,23,4.9c-0.4-2.4-21.8-6.7-23.1-6.7
			C819.1,312.9,820.4,314.8,820.4,314.8z"/>
	</g>
	<g id="XMLID_10819_">
		<path id="XMLID_10851_" class="st0" d="M740.7,616.6c-7.9,1.9-20.5,5.7-27.4,19c-6.9,13.3-0.6,24,1.1,28.6
			c1.7,4.6,7.3,7.1,15.1,6.1c7.9-1.1,19.3-6.1,19.7-4.8c0.3,0.9,3.1,5.3,3.9,9.3c0.3,1.7,1,3.5,2.5,3.3c2.1-0.3,1.5,1.4,3.3,0.6
			c3.3-1.3,6.9-1.7,11.4-2c4.5-0.3,3-0.9,3-3.2c0-1.2-9.5-14.7,5.3-14.7c5.2,0,11.9,4.6,17.4-6.7c3.4-7.2,1.6-23.7-12.4-34
			C769.6,607.7,748.6,614.7,740.7,616.6z"/>
		<path id="XMLID_10850_" class="st1" d="M742,617.9c-7.7,1.9-19.9,4.7-26.6,17.8c-6.7,13.1-2.1,21.6-0.3,26.1
			c3.6,9,11.3,11.8,20.7,7.6c8.4-3.7,11.4-2,12.6-1.5c0.8,0.3,1,6.2,1.7,10.2c0.3,1.7,1.8,2.8,3.3,2.6c2-0.3,4.7-0.8,6.5-1.5
			c3.2-1.3,4.6-1.2,9-1.5c4.3-0.3,5.6-2.1,5.4-3.3c-0.5-2.9-2-8.3-3-12.3c0-0.1,0-0.1,0.1-0.1c0.2-0.3,1.6-3.6,5.7-2.7
			c9.5,2.2,14.7,1.1,18.1-5.9c4-8.2,1.6-24.9-13.5-34.9C767.4,609,749.6,616,742,617.9z"/>
		<path id="XMLID_10849_" class="st2" d="M767.3,615c-4.2-0.4-8.7-0.1-13.9,0.9c-3.1,0.6-5.9,1.4-8.2,2c-1.1,0.3-2.1,0.6-3,0.8
			c-3.8,0.9-8.2,2.1-12.6,4.7c-5,3-8.9,7.2-11.8,12.9c-2.8,5.6-4.2,10.8-4.1,15.7c0.1,3.9,1.1,6.8,2.1,9.4c2.8,7,8.1,10,15,8.7
			c1.5-0.3,3-0.8,4.6-1.5c2.3-1,4.4-1.7,6.3-2.1c3.8-0.8,5.8,0.1,6.7,0.5c0.1,0,0.2,0.1,0.2,0.1c0.9,0.4,1.1,1.8,1.6,5.8
			c0.2,1.6,0.4,3.5,0.7,5c0.2,1.2,2,2.8,3.1,2.7c1-0.1,1.9-0.3,2.7-0.5c1.5-0.3,2.6-0.8,3.5-1.1c1.2-0.5,1.9-0.6,2.9-0.8
			c1.2-0.2,2.6-0.4,4.2-0.5c7.9-0.3,6.2-2.6,6.1-3.1c-0.4-2.2-1.4-6.1-2.3-9.5c-0.3-1-0.5-1.9-0.7-2.8c-0.1-0.3,0-0.5,0.2-0.8
			c0,0,0,0,0-0.1c0.9-1.7,2.2-2.7,3.9-3.1c0.8-0.2,1.7-0.1,2.7,0.1c4.6,1,7.9,1.3,10.4,0.8c3.2-0.6,5.4-2.6,6.7-6.2
			c1.5-3.8,1.2-9.6-0.5-15.2c-1.6-4.9-5-11.9-12.6-17.6C777.4,617.2,772.7,615.5,767.3,615z"/>
		<path id="XMLID_10848_" class="st2" d="M767.3,615c-4.2-0.4-8.7-0.1-13.9,0.9c-3.1,0.6-5.9,1.4-8.2,2c-1.1,0.3-2.1,0.6-3,0.8
			c-3.8,0.9-8.2,2.1-12.6,4.7c-5,3-8.9,7.2-11.8,12.9c-2.8,5.6-4.2,10.8-4.1,15.7c0.1,3.9,1.1,6.8,2.1,9.4c2.8,7,8.1,10,15,8.7
			c1.5-0.3,3-0.8,4.6-1.5c2.3-1,4.4-1.7,6.3-2.1c3.8-0.8,5.8,0.1,6.7,0.5c0.1,0,0.2,0.1,0.2,0.1c0.9,0.4,1.1,1.8,1.6,5.8
			c0.2,1.6,0.4,3.5,0.7,5c0.2,1.2,2,2.8,3.1,2.7c1-0.1,1.9-0.3,2.7-0.5c1.5-0.3,2.6-0.8,3.5-1.1c1.2-0.5,1.9-0.6,2.9-0.8
			c1.2-0.2,2.6-0.4,4.2-0.5c7.9-0.3,6.2-2.6,6.1-3.1c-0.4-2.2-1.4-6.1-2.3-9.5c-0.3-1-0.5-1.9-0.7-2.8c-0.1-0.3,0-0.5,0.2-0.8
			c0,0,0,0,0-0.1c0.9-1.7,2.2-2.7,3.9-3.1c0.8-0.2,1.7-0.1,2.7,0.1c4.6,1,7.9,1.3,10.4,0.8c3.2-0.6,5.4-2.6,6.7-6.2
			c1.5-3.8,1.2-9.6-0.5-15.2c-1.6-4.9-5-11.9-12.6-17.6C777.4,617.2,772.7,615.5,767.3,615z"/>
		<path id="XMLID_10847_" class="st0" d="M739,646.6c3.6,0.5,4.9,4.1,5.6,6.7c0.6,2.6,4.1,21,5.6,24.8c1.5,3.8,5.2,2.2,5.2,2.2
			c-2.3,0.5-3-1.3-3.4-2.6c-0.4-1.3-2.2-12.6-4.2-20.3c-1.4-5.4-2.4-8.4-3.7-10C741.9,644.8,739,646.6,739,646.6z"/>
		<path id="XMLID_10846_" class="st0" d="M725.7,652.3c-3.3,4.7-1.9,9.9,0,12.2c1.8,2.2,4.1,3.4,6.3,1.6c0,0-5.3-1.8-2.5-6.7
			c2.8-4.9,12.8-12.1,12.8-12.1l-0.3-1C742.1,646.1,730.9,644.9,725.7,652.3z"/>
		<path id="XMLID_10845_" class="st3" d="M740.3,646.9c-3.1,0.1-9.4,1.9-11.4,4.2c-2.1,2.3-4.6,5.4-3.3,9.3c1.2,3.9,3.8,6.7,6.5,5.6
			c0.5-0.2,0.9-0.5,1.3-0.8c0.2-0.2,0.5-0.4,0.7-0.7c1.3-1.5,2.2-3.5,3.7-3.8c2.1-0.4,3.3,4,5.1,4.3c1.8,0.3,3.9-0.3,3.4-3.4
			c-0.5-3.2-1.8-9-1.8-9S743.5,646.8,740.3,646.9z"/>
		<path id="XMLID_10844_" class="st4" d="M734.3,647.9c-3.5,1.3-6.4,3-8.7,7.5c-2.2,4.5,2.3,10.5,4.1,10.6c1.8,0,2.1-1.2,2-2.3
			c-0.1-1.2-2.2-2.5-1.1-5.4c1.1-2.9,3.6-4.2,5.9-5c2.4-0.8,4.6-2.8,4.6-2.8c1.4-2.3,1-2.7,0-3.4
			C740.2,646.4,737.8,646.6,734.3,647.9z"/>
		<path id="XMLID_10843_" class="st4" d="M776.1,641.1c-3.9,0.2-6.4,1-7.2,1.9c-0.7,0.9-1,1.5,1.3,2.9c0,0,3,0.8,5.6,0.6
			c2.6-0.2,5.5,0,7.8,2.2c2.3,2.1,0.6,4.1,1,5.2c0.4,1.1,1.1,2,2.9,1.3c1.8-0.7,3.9-7.8,0-10.9C783.6,641.3,780.1,641,776.1,641.1z"
			/>
		<path id="XMLID_10842_" class="st0" d="M772.2,638.9c-2.4,0.2-5.7,1.9-5.8,5.1c-0.1,3.1-0.3,6.2,0.6,10.9
			c0.5,2.6,1.2,8.6,2.7,13.7c2.3,7.9,1.7,8.5,2.8,8.3c1.9-0.4,2.2-1.4,2.3-1.8c0.2-4-4.3-15.5-4.6-17.4c-1.2-7.3-0.6-4.4-0.2-6.5
			c0.6-3.7-0.6-6.6,0.2-8.1c0.8-1.5,13.3-1.4,13.3-1.4S779.2,638.2,772.2,638.9z"/>
		<path id="XMLID_10841_" class="st5" d="M788.9,650.5c-0.6,2.2,0.6,3.8-5.1,5.8c0,0,2.6,1.3,5.2-0.7c2-1.5,2.7-3.7,2.2-6.4
			c-0.5-2.7-2.6-5.2-5.6-6.3C785.6,642.9,789.5,648.3,788.9,650.5z"/>
		<path id="XMLID_10840_" class="st6" d="M772.3,641.1c-0.6,0.2-1.7,0.7-2.1,1.2c-1.4,1.6-1.2,5.5-1.2,5.5
			c-0.3,2.5,0.8,10.8,1.8,10.8c1.1,0,1.6-1.7,2.3-3.4c0.7-1.7,4.6-3.5,6-2.2c1.5,1.3,2.3,4.1,6.8,3.2c4.5-0.9,4.5-6.3,3.5-8.7
			c-0.9-2.4-5-5.4-7.9-5.7C778.7,641.4,775.3,640.2,772.3,641.1z"/>
		<path id="XMLID_10839_" class="st7" d="M772.1,653c-1.8,0.6-3-0.2-3-0.2c0.5,4.1,0.8,5.7,1.7,5.7c0.9,0.1,0.7-1.1,1.8-3.5
			c1.1-2.4,4.4-2.9,4.4-2.9C775.4,651.3,774,652.4,772.1,653z"/>
		<path id="XMLID_10838_" class="st1" d="M776.2,652.2c-2.5,0.7-3.8,2.7-4.5,3.5c-0.9,1.1-1.9,0.9-1.9,0.9c0.1,1.4,0.5,2.1,1.4,1.9
			c0.9-0.3,1.6-2.3,2.3-3.2c1.1-1.4,1.9-2,2.8-2.4c0.8-0.3,1.5-0.3,2-0.2c0.4,0.1,1.2,0.5,1.2,0.5S778.2,651.6,776.2,652.2z"/>
		<path id="XMLID_10835_" class="st8" d="M786,647.8c-1.3-0.1-2.1,0.9-2.1,0.9c2.1,1.2,0.9,3.5,0.9,5.6c0,1.9,1.6,1.8,1.6,1.8
			c4.8-1.3,3.4-8.4,3.4-8.4C788.8,648.6,787.2,647.9,786,647.8z"/>
		<path id="XMLID_10834_" class="st8" d="M784.9,646.7c-1.5,0.4-1.8,1.6-1.8,1.6l0.7,0.4c0,0,0.7-0.5,1.5-0.8
			c0.8-0.2,2.7,0.2,3.5,0.2c0.8,0,0.9-0.4,0.9-0.4l-0.7-1.2C787.7,645.8,786.4,646.2,784.9,646.7z"/>
		<path id="XMLID_10833_" class="st8" d="M771,645.8c0,0,1.1-0.8,1.1-1.5c0.1-0.8,0.4-2.2,1.3-2.4c0,0-2,0.2-2.6,0.8
			C770.2,643.2,770.1,645,771,645.8z"/>
		<path id="XMLID_10832_" class="st7" d="M739.5,659.6c-2.4-0.3-4.8,3.4-4.8,3.4c-0.4,0.8-1.4,2.2-1.4,2.2c1.3-0.8,3-3.6,3.9-4.3
			c0.9-0.7,2,0.3,3,1.9c1,1.6,3.4,2.8,5.2,2.1c2.2-0.9-0.1-8.1-0.1-8.1C745.1,658.2,743.5,660.1,739.5,659.6z"/>
		<path id="XMLID_10831_" class="st1" d="M742.3,661.5c-1.4-1.8-3.2-2-4.6-1.7c-2.5,0.7-4.4,5.3-4.4,5.3c1-0.7,1.3-1,1.8-1.6
			c2.4-2.9,3.9-2.6,5.1-0.8c1.3,2,2.8,3.1,4.4,2.7c2.8-0.6,1.8-3.2,1.8-3.2C745.3,663.5,743.4,663,742.3,661.5z"/>
		<path id="XMLID_10830_" class="st9" d="M739.2,647c1.2,0.4,1,1.2,1,1.8c0.1,1.8-7.3,3.2-11,5.9c-2.9,2.1-3.5,6.7-3.5,6.7
			c1.6,4.1,4.2,5.7,5.6,4.4c1.4-1.3-0.3-3.6-1-5.2c-0.6-1.6-0.1-3,0.9-4.5c1-1.5,4.2-2.4,5.8-3c1.6-0.6,3.4-1.3,4.2-2.2
			c0.8-0.9,1.6-2.5,0.8-3.3C741.2,646.6,739.2,647,739.2,647z"/>
		<path id="XMLID_10829_" class="st10" d="M739.2,646.7c0,0,2.8,0.8,2,2.3c-0.8,1.6-7.8,4-9.8,5.2c-3.1,1.9-3.3,5.3-2.6,7.2
			c0.7,1.9-0.7,3.9-0.7,3.9s2.9,2.5,3.9,0.2c0.7-1.6-1.4-3.3-1.5-6.3c0-2.1,1.8-4,4.2-5.3c2.4-1.3,7.4-2.4,7.8-4.7
			C743,646.2,739.2,646.7,739.2,646.7z"/>
		<path id="XMLID_10828_" class="st9" d="M773.7,643.1c-0.4-0.4-1.9-0.5-0.9-1.3c0,0-2.5,0.3-3,1.8c-0.3,1,0.9,2.1,2,2.6
			c1,0.5,3,0.4,4.7,0.3c1.7-0.1,4.9-0.5,6.4,0.5c1.5,1,2.5,2,2.5,3.6c0,1.6-0.8,4.2,1,4.9c1.8,0.7,3.7-1.7,3.6-6.6
			c0,0-3-4.7-6.5-5.5C779.2,642.6,775.1,644.5,773.7,643.1z"/>
		<path id="XMLID_10827_" class="st10" d="M770.8,644.8c-1.4-1.4,0.3-3.2,0.3-3.2s-2.8,1.5-1.1,3.8c1.7,2.2,6.2,1,8.9,1.2
			c2.7,0.2,5.1,1.2,5.8,3c1,2.6-0.3,4.2,0.8,5.4c1.6,1.8,3.2-0.4,3.2-0.4s-2-1.4-2.1-3.3c-0.1-1.9-1.2-5-4.8-5.4
			C779.7,645.6,772.1,646.1,770.8,644.8z"/>
		<path id="XMLID_10826_" class="st4" d="M789.7,649.6C789.7,649.7,789.7,649.7,789.7,649.6C789.7,649.7,789.7,649.6,789.7,649.6z"
			/>
		<path id="XMLID_10825_" class="st4" d="M789.7,649.7c0,0.1,0.1,0.2,0.1,0.3C789.8,649.9,789.7,649.8,789.7,649.7z"/>
		<path id="XMLID_10824_" class="st4" d="M789.8,650C789.9,650.2,789.9,650.1,789.8,650L789.8,650z"/>
		<path id="XMLID_10823_" class="st4" d="M770.8,641.8c-1.3,1.6,1.9,2.1,5.5,1.7c4.3-0.4,5.7-0.1,8.5,0.9c3.3,1.3,4.4,4.1,4.9,5.2
			c0,0,0.7-3.7-4.9-7.1C780.2,639.7,772.1,640.2,770.8,641.8z"/>
		<path id="XMLID_10822_" class="st0" d="M746.2,646.7c0,0,3.6,1.3,4.9,10.5c1.3,9.2,3,21.9,4.6,20.9c1.6-1,3,0.6,1.7-5.8
			c-1.3-6.4-3.2-17.5-4.8-21.8C750.9,646.2,748.6,646.2,746.2,646.7z"/>
		<path id="XMLID_10821_" class="st0" d="M762.5,658.5c1.3,6.6,2,16.7,4.6,16.7c2.6,0-1.1-10.5-2-15.2c-0.9-4.7-1.5-12.7-3.6-12.8
			C761.6,647.2,761.2,651.8,762.5,658.5z"/>
		<path id="XMLID_10820_" class="st0" d="M756,652.4c0,0,3.8,24.3,5.8,22.8c2-1.4-3.7-22.5-4.2-23.7
			C757.1,650.4,756,652.4,756,652.4z"/>
	</g>
</g>
</svg>
