<?xml version="1.0" encoding="utf-8"?>
<!-- Generator: Adobe Illustrator 19.0.0, SVG Export Plug-In . SVG Version: 6.00 Build 0)  -->
<svg version="1.1" id="Layer_1" xmlns="http://www.w3.org/2000/svg" xmlns:xlink="http://www.w3.org/1999/xlink" x="0px" y="0px"
	 viewBox="0 0 1000 990.3" style="enable-background:new 0 0 1000 990.3;" xml:space="preserve">
<style type="text/css">
	.st0{fill:#0C0D11;}
	.st1{fill:#272A31;}
	.st2{fill:#45464B;}
	.st3{fill:#72757A;}
	.st4{fill:#B8B8BA;}
	.st5{fill:#FFFFFF;}
	.st6{fill:#191A1C;}
	.st7{fill:#313234;}
	.st8{fill:#57585A;}
	.st9{fill:#C5C5C5;}
</style>
<g id="XMLID_7591_">
	<g id="XMLID_7753_">
		<path id="XMLID_7772_" class="st0" d="M155.9,438.9c5.2,17.6,20.4,28.6,33.9,24.6c13.5-4,20.2-21.5,15-39.2
			c-5.2-17.6-20.4-28.7-33.9-24.7C157.4,403.8,150.7,421.3,155.9,438.9z"/>
		<path id="XMLID_7769_" d="M167.7,411.2c1.1,5,6.6,8.2,12.3,7.2c5.7-1,9.6-5.9,8.5-10.9c-1-5-6.6-8.2-12.3-7.2
			C170.4,401.3,166.6,406.2,167.7,411.2z"/>
		<path id="XMLID_7768_" class="st1" d="M159,433.1c0.7,4.8,3.2,11,4.1,11.9c1.7,1.6,5.9-2.1,4.4-9.3c-0.9-4.1-3.3-7.8-5.3-9.5
			C160.3,424.5,158.4,428.7,159,433.1z"/>
		<path id="XMLID_7767_" class="st2" d="M160.5,429.6c7.8,7.3,20.2,0.7,20.2,0.7c1.8-1.4,3.1-2.7,2.7-5.8c-0.4-3.1-9.2-7.8-11.2-8.7
			c-2-0.9-3-5.2-4.4-8.9c-1.3-3.7-5.4,0.7-8.3,5.1C157.1,415.8,155.8,425.2,160.5,429.6z"/>
		<path id="XMLID_7766_" class="st3" d="M158.8,426.3c2.6,6.2,10.2,3.5,12.9,2.6c1.4-0.5,5.1-2.5,4.2-4.9c-1.5-3.9-7.2-4.1-9.2-8.5
			c-2.2-5.1-3.9-5.4-5.8-3.4C159,414.2,156.2,420.1,158.8,426.3z"/>
		<path id="XMLID_7765_" class="st4" d="M160.1,424.8c1.8,4.4,10.9,4,11.6,0.6c0.4-1.9-3.6-3.3-5.2-6.3c-1.6-3-3.7-6.7-5.4-4.2
			C159.4,417.4,158.3,420.4,160.1,424.8z"/>
		<path id="XMLID_7762_" class="st5" d="M161.1,423.1c1.2,2.5,4.8,2.9,4.7,0.9c0,0-0.4-3.1-2.9-4.9
			C160.3,417.2,159.8,420.5,161.1,423.1z"/>
		<path id="XMLID_7761_" class="st6" d="M183.9,414.3c0,0,1.4,0.3,6.8,8.5c5.4,8.1,6.5,27.6-6.9,34.3c-7.7,3.8-8.6,5.2-8.6,5.2
			s12.6,3.7,20.7-1.1c8.2-4.7,12.5-18.9,10.7-29.2c-1.8-10.3-9.1-28.5-23.6-31.5C183,400.5,188.7,411.7,183.9,414.3z"/>
		<path id="XMLID_7760_" class="st7" d="M197.4,433.1c-0.5,2.7,0.8,7.4-3.5,17.6c-1.4,3.4-0.5,5.8,0.3,6c1.9,0.6,4-1.5,6.6-6
			c2.6-4.6,3.9-15.2,3.2-19.3C203.2,427.2,198.4,427.1,197.4,433.1z"/>
		<path id="XMLID_7759_" class="st7" d="M188.2,406.6c0.4,4.6-2.1,12-8.2,11.8c-6.1-0.2-2.9,5.1,1.6,5.5c4.6,0.4,13.8-1.9,15.2-7.3
			c1.4-5.3-2.3-7.7-4.4-9.8c-2.1-2-8.4-6.8-9.4-6.2C181.9,401.1,187.8,402,188.2,406.6z"/>
		<path id="XMLID_7758_" class="st8" d="M188.5,407.5c0.2,3.3-1.5,6.7-5.5,8.2c-4,1.5-5,4-1.4,4.2c0,0,6.7-0.2,9.4-5.4
			c2.3-4.5-0.6-11.5-5.8-12.3C185.3,402.2,188.3,404.2,188.5,407.5z"/>
		<path id="XMLID_7757_" class="st9" d="M167.4,412.2c1.1,5,6.8,8.2,12.9,7.2c6.1-1.1,10.2-6,9.1-11c-1.1-5-6.8-8.2-12.9-7.2
			C170.4,402.2,166.4,407.1,167.4,412.2z"/>
		<path id="XMLID_7754_" d="M167.7,411.2c1.1,5,6.6,8.2,12.3,7.2c5.7-1,9.6-5.9,8.5-10.8c-1.1-5-6.6-8.2-12.3-7.2
			C170.5,401.3,166.6,406.2,167.7,411.2z"/>
	</g>
	<g id="XMLID_7733_">
		<path id="XMLID_7752_" class="st0" d="M563,431.8c13.9-12,17.8-30.3,8.6-41c-9.2-10.7-27.9-9.6-41.9,2.4
			c-13.9,12-17.8,30.3-8.6,41C530.3,444.8,549.1,443.8,563,431.8z"/>
		<path id="XMLID_7749_" d="M532.9,432.4c4.1-3,4.8-9.4,1.5-14.2c-3.3-4.8-9.3-6.3-13.4-3.3c-4.1,3-4.8,9.3-1.5,14.1
			C522.7,433.9,528.7,435.4,532.9,432.4z"/>
		<path id="XMLID_7748_" class="st1" d="M556.4,431.3c4.1-2.6,8.7-7.4,9.1-8.6c0.7-2.2-4.4-4.5-10.2-0.2c-3.4,2.5-5.7,6.2-6.5,8.7
			C548,433.7,552.7,433.7,556.4,431.3z"/>
		<path id="XMLID_7747_" class="st2" d="M552.6,431.3c3.5-10.1-7.6-18.7-7.6-18.7c-2-1.1-3.7-1.8-6.4-0.1
			c-2.6,1.7-3.3,11.6-3.3,13.8c0,2.1-3.5,4.9-6.4,7.7c-2.8,2.7,2.9,4.7,8.1,5.5C541.5,440.1,550.5,437.5,552.6,431.3z"/>
		<path id="XMLID_7746_" class="st3" d="M550.3,434.2c4.6-4.9-1-10.7-2.9-12.8c-1-1.1-4.4-3.6-6.2-1.8c-3,3-0.8,8.3-4,11.8
			c-3.7,4.1-3.3,5.8-0.7,6.7C539.1,439.1,545.7,439.2,550.3,434.2z"/>
		<path id="XMLID_7745_" class="st4" d="M548.4,433.7c3.3-3.4-0.8-11.6-4.2-10.9c-1.9,0.4-1.6,4.6-3.6,7.4c-2.1,2.7-4.6,6.1-1.6,6.7
			C542,437.4,545.1,437.2,548.4,433.7z"/>
		<path id="XMLID_7742_" class="st5" d="M546.4,433.5c1.8-2.2,0.7-5.6-1.1-4.7c0,0-2.6,1.6-3.3,4.7
			C541.4,436.7,544.6,435.7,546.4,433.5z"/>
		<path id="XMLID_7741_" class="st6" d="M529.1,416.3c0,0-0.3-1.4,5-9.6c5.2-8.2,22.5-17.3,34.1-7.8c6.6,5.4,8.3,5.7,8.3,5.7
			s-1.8-13-9.5-18.4c-7.6-5.5-22.3-3.7-31.1,2.2c-8.7,5.8-22.3,20-19.1,34.5C516.9,422.8,524.8,412.9,529.1,416.3z"/>
		<path id="XMLID_7740_" class="st7" d="M540.7,396.3c2.6-0.7,6.4-3.7,17.5-4c3.7-0.1,5.5-1.9,5.4-2.8c-0.2-2-3-3-8.2-3.5
			c-5.2-0.5-15.4,2.7-18.9,5C533,393.4,534.8,397.8,540.7,396.3z"/>
		<path id="XMLID_7739_" class="st7" d="M520.3,415.6c4-2.2,11.8-3,14.1,2.7c2.3,5.7,5.8,0.6,4.3-3.7c-1.5-4.3-7.4-11.8-12.9-10.9
			c-5.4,0.9-6.1,5.2-7.1,8c-1,2.7-2.8,10.5-1.8,11.2C517.9,423.5,516.3,417.8,520.3,415.6z"/>
		<path id="XMLID_7738_" class="st8" d="M521,414.9c2.9-1.6,6.7-1.4,9.7,1.7c3,3.1,5.7,2.9,4.4-0.5c0,0-3-6-8.8-6.4
			c-5-0.3-10.2,5.3-8.9,10.3C517.4,420,518.1,416.4,521,414.9z"/>
		<path id="XMLID_7737_" class="st9" d="M533.9,432.2c4.2-3,4.7-9.6,1.2-14.7c-3.5-5.1-9.7-6.8-13.8-3.8c-4.1,3-4.7,9.6-1.2,14.7
			C523.6,433.6,529.7,435.3,533.9,432.2z"/>
		<path id="XMLID_7734_" d="M532.9,432.4c4.1-3,4.8-9.4,1.5-14.2c-3.3-4.8-9.3-6.3-13.4-3.3c-4.1,3-4.8,9.3-1.5,14.2
			C522.8,433.9,528.7,435.4,532.9,432.4z"/>
	</g>
	<g id="XMLID_7713_">
		<path id="XMLID_7732_" class="st0" d="M346.1,759.2c9.5-15.7,7.6-34.3-4.4-41.7c-12-7.3-29.5-0.6-39.1,15.1
			c-9.6,15.7-7.6,34.3,4.4,41.7C319,781.6,336.5,774.9,346.1,759.2z"/>
		<path id="XMLID_7729_" d="M317.6,769c3-4.1,1.7-10.4-2.9-13.9c-4.6-3.6-10.8-3.2-13.8,1c-3,4.1-1.7,10.4,2.9,13.9
			C308.5,773.6,314.6,773.1,317.6,769z"/>
		<path id="XMLID_7728_" class="st1" d="M339.7,760.8c3.1-3.7,6-9.7,6-11c0-2.3-5.6-3-9.8,3c-2.5,3.4-3.6,7.6-3.5,10.3
			C332.5,765.6,336.9,764.2,339.7,760.8z"/>
		<path id="XMLID_7727_" class="st2" d="M336.1,761.9c0.2-10.7-13-15.5-13-15.5c-2.3-0.4-4.1-0.5-6.1,1.8c-2,2.4,0.4,12,1.1,14.1
			c0.7,2-1.9,5.8-3.7,9.2c-1.8,3.5,4.2,3.5,9.4,2.7C328.2,773.7,336,768.4,336.1,761.9z"/>
		<path id="XMLID_7726_" class="st3" d="M334.8,765.4c2.9-6.1-4.3-9.9-6.7-11.3c-1.3-0.8-5.3-2.1-6.5,0.2c-1.9,3.8,1.8,8.1-0.2,12.5
			c-2.3,5.1-1.4,6.6,1.4,6.6C325.7,773.4,331.9,771.5,334.8,765.4z"/>
		<path id="XMLID_7725_" class="st4" d="M332.8,765.5c2.1-4.3-4.3-10.8-7.3-9c-1.6,1-0.1,4.9-1.2,8.1c-1.2,3.2-2.5,7.3,0.5,6.8
			C327.8,771,330.8,769.8,332.8,765.5z"/>
		<path id="XMLID_7722_" class="st5" d="M330.9,765.9c1.1-2.6-1.1-5.5-2.5-4.1c0,0-2,2.3-1.7,5.5
			C327.1,770.5,329.9,768.6,330.9,765.9z"/>
		<path id="XMLID_7721_" class="st6" d="M309.1,754.8c0,0-0.7-1.3,1.8-10.7c2.4-9.4,16.1-23.3,30.1-17.9c8,3.1,9.7,2.9,9.7,2.9
			s-5.7-11.8-14.7-14.6c-9-2.9-22.4,3.4-28.9,11.6c-6.5,8.2-15.1,25.9-7.6,38.7C299.5,764.8,303.9,753,309.1,754.8z"/>
		<path id="XMLID_7720_" class="st7" d="M314,732.3c2.3-1.5,4.9-5.5,15.4-9.2c3.5-1.2,4.6-3.5,4.3-4.3c-0.8-1.8-3.8-2-8.9-0.8
			c-5.1,1.1-13.9,7.3-16.4,10.6C305.8,731.9,308.8,735.5,314,732.3z"/>
		<path id="XMLID_7719_" class="st7" d="M300.5,756.9c3.1-3.3,10.3-6.5,14.2-1.8c3.9,4.7,5.7-1.2,3-4.8c-2.8-3.7-10.7-9-15.6-6.4
			c-4.9,2.6-4.2,6.9-4.3,9.8c-0.1,2.9,0.6,10.8,1.7,11.2C300.7,765.2,297.4,760.2,300.5,756.9z"/>
		<path id="XMLID_7718_" class="st8" d="M301,756.1c2.3-2.4,6-3.4,9.7-1.4c3.8,2,6.3,1,4-1.8c0,0-4.7-4.8-10.3-3.4
			c-4.9,1.3-8.1,8.2-5.3,12.5C299.2,762,298.6,758.4,301,756.1z"/>
		<path id="XMLID_7717_" class="st9" d="M318.6,768.6c3-4.2,1.5-10.6-3.3-14.4c-4.9-3.8-11.3-3.5-14.3,0.6c-3,4.2-1.5,10.6,3.3,14.4
			C309.1,773,315.5,772.7,318.6,768.6z"/>
		<path id="XMLID_7714_" d="M317.6,769c3-4.1,1.7-10.4-2.9-13.9c-4.6-3.6-10.8-3.2-13.8,0.9c-3,4.1-1.7,10.4,2.9,13.9
			C308.5,773.6,314.6,773.1,317.6,769z"/>
	</g>
	<g id="XMLID_7693_">
		<path id="XMLID_7712_" class="st0" d="M392,182c9.5,15.7,27,22.6,39,15.3c12.1-7.3,14.1-25.9,4.6-41.7
			c-9.5-15.7-26.9-22.6-39-15.3C384.6,147.6,382.5,166.2,392,182z"/>
		<path id="XMLID_7709_" d="M396.4,152.2c2.3,4.5,8.4,6.3,13.7,3.8c5.3-2.4,7.8-8.1,5.5-12.7c-2.3-4.6-8.4-6.3-13.7-3.8
			C396.6,141.9,394.1,147.6,396.4,152.2z"/>
		<path id="XMLID_7708_" class="st1" d="M393.5,175.6c1.9,4.4,5.8,9.8,7,10.4c2,1.1,5.2-3.6,1.9-10.1c-1.9-3.8-5.1-6.7-7.5-7.9
			C392.6,166.9,391.8,171.5,393.5,175.6z"/>
		<path id="XMLID_7707_" class="st2" d="M394.1,171.8c9.4,5.1,19.7-4.4,19.7-4.4c1.4-1.8,2.4-3.4,1.2-6.3c-1.2-2.9-10.9-5.2-13-5.6
			c-2.1-0.3-4.3-4.3-6.5-7.5c-2.2-3.2-5.1,2.1-6.8,7.1C387.3,159.3,388.4,168.7,394.1,171.8z"/>
		<path id="XMLID_7706_" class="st3" d="M391.7,169.1c4.1,5.4,10.7,0.8,13.1-0.7c1.3-0.8,4.3-3.8,2.8-5.8c-2.5-3.4-8-2.2-11-5.9
			c-3.4-4.3-5.2-4.2-6.5-1.9C388.8,157.2,387.6,163.7,391.7,169.1z"/>
		<path id="XMLID_7705_" class="st4" d="M392.5,167.3c2.9,3.8,11.6,1.1,11.4-2.3c-0.1-1.9-4.3-2.3-6.6-4.8c-2.3-2.5-5.3-5.6-6.3-2.7
			C390,160.3,389.6,163.4,392.5,167.3z"/>
		<path id="XMLID_7702_" class="st5" d="M393,165.4c1.8,2.1,5.4,1.6,4.8-0.3c0,0-1.2-2.9-4.1-4C390.7,159.8,391.1,163.2,393,165.4z"
			/>
		<path id="XMLID_7701_" class="st6" d="M412.9,151.1c0,0,1.5,0,8.7,6.5c7.2,6.5,13.3,25.1,2,35c-6.5,5.6-7,7.2-7,7.2
			s13.1,0.4,19.8-6.3c6.7-6.6,7.3-21.4,3-31c-4.3-9.6-16-25.3-30.8-24.6C408.5,138,416.9,147.4,412.9,151.1z"/>
		<path id="XMLID_7700_" class="st7" d="M430.7,165.9c0.2,2.7,2.6,6.9,1,17.9c-0.5,3.6,0.9,5.7,1.8,5.8c2,0.1,3.5-2.4,4.9-7.5
			c1.4-5.1-0.1-15.6-1.8-19.5C434.8,158.7,430.2,159.8,430.7,165.9z"/>
		<path id="XMLID_7699_" class="st7" d="M415.1,142.5c1.5,4.3,1,12.2-5,13.5c-6,1.3-1.6,5.6,2.9,4.9c4.5-0.8,12.9-5.3,12.9-10.9
			c0-5.5-4.2-6.9-6.7-8.3c-2.5-1.4-9.8-4.5-10.7-3.6C407.6,138.9,413.6,138.2,415.1,142.5z"/>
		<path id="XMLID_7698_" class="st8" d="M415.6,143.3c1.1,3.1,0.2,6.9-3.3,9.3c-3.5,2.4-3.8,5.1-0.3,4.4c0,0,6.4-1.9,7.7-7.6
			c1.1-4.9-3.5-11-8.7-10.5C411.1,139,414.6,140.2,415.6,143.3z"/>
		<path id="XMLID_7697_" class="st9" d="M396.4,153.2c2.3,4.6,8.7,6.2,14.3,3.7c5.6-2.6,8.3-8.4,6-13c-2.3-4.6-8.7-6.2-14.3-3.7
			C396.8,142.8,394.1,148.6,396.4,153.2z"/>
		<path id="XMLID_7694_" d="M396.4,152.2c2.3,4.5,8.4,6.3,13.7,3.8c5.3-2.4,7.8-8.1,5.5-12.6c-2.3-4.5-8.4-6.3-13.7-3.8
			C396.6,141.9,394.1,147.6,396.4,152.2z"/>
	</g>
	<g id="XMLID_7673_">
		<path id="XMLID_7692_" class="st0" d="M325.4,250.7c-3.3,16.5,4.2,32.1,16.9,34.6c12.7,2.6,25.7-8.8,29.1-25.3
			c3.3-16.6-4.2-32.1-16.9-34.6C341.8,222.9,328.7,234.2,325.4,250.7z"/>
		<path id="XMLID_7689_" d="M346.9,233.3c-1.3,4.5,1.8,9.5,6.9,11.1c5.1,1.7,10.3-0.7,11.6-5.1c1.3-4.5-1.8-9.5-6.9-11.1
			C353.4,226.5,348.2,228.8,346.9,233.3z"/>
		<path id="XMLID_7688_" class="st1" d="M330.4,247.4c-1.5,4.2-2.2,10.3-1.8,11.4c0.7,2,5.7,0.8,7.6-5.6c1.1-3.7,0.7-7.7-0.2-10
			C335.1,240.9,331.8,243.5,330.4,247.4z"/>
		<path id="XMLID_7687_" class="st2" d="M333.2,245.2c3.2,9.3,16.1,9.3,16.1,9.3c2.1-0.4,3.7-0.8,4.7-3.5c1-2.7-4.1-10.3-5.4-11.9
			c-1.2-1.5-0.2-5.6,0.3-9.1c0.5-3.6-4.7-1.7-9,0.6C336.3,232.5,331.2,239.6,333.2,245.2z"/>
		<path id="XMLID_7686_" class="st3" d="M333.2,241.8c-0.6,6.2,6.8,7.2,9.3,7.7c1.4,0.2,5.3,0.1,5.5-2.2c0.4-3.8-4.1-6.5-3.8-10.8
			c0.4-5.1-0.9-6.1-3.2-5.3C338.6,232,333.8,235.6,333.2,241.8z"/>
		<path id="XMLID_7685_" class="st4" d="M334.9,241.1c-0.4,4.4,7.1,8,9.2,5.5c1.1-1.4-1.5-4.2-1.5-7.4c0-3.2-0.1-7.1-2.6-5.7
			C337.5,234.8,335.3,236.7,334.9,241.1z"/>
		<path id="XMLID_7682_" class="st5" d="M336.4,240.1c-0.1,2.6,2.6,4.4,3.4,2.8c0,0,1-2.7-0.2-5.3
			C338.3,235,336.5,237.5,336.4,240.1z"/>
		<path id="XMLID_7681_" class="st6" d="M358.7,242.9c0,0,1,0.9,1.8,9.8c0.9,8.9-6.6,25.2-20.4,24.9c-7.9-0.2-9.3,0.5-9.3,0.5
			s8.6,8.4,17.3,8c8.7-0.3,18.3-9.9,21.3-19.1c3-9.2,4.9-27.1-5.6-35.8C363.9,231.3,363.8,242.8,358.7,242.9z"/>
		<path id="XMLID_7680_" class="st7" d="M361.6,263.9c-1.5,2-2.5,6.3-10.5,12.7c-2.6,2.1-2.9,4.4-2.3,5c1.3,1.3,3.9,0.5,8-2.1
			c4.1-2.6,9.7-10.6,10.9-14.3C368.8,261.6,365,259.5,361.6,263.9z"/>
		<path id="XMLID_7679_" class="st7" d="M365.6,238.4c-1.7,3.9-6.9,8.8-11.7,6c-4.9-2.8-4.6,2.8-1,5.1c3.5,2.3,12.1,4.4,15.5,0.6
			c3.4-3.7,1.5-7.3,0.7-9.8c-0.8-2.5-3.9-9.1-5-9.1C362.8,231.3,367.2,234.6,365.6,238.4z"/>
		<path id="XMLID_7678_" class="st8" d="M365.4,239.3c-1.2,2.8-4.1,4.8-8,4.3c-3.9-0.5-5.8,1.1-2.9,2.8c0,0,5.5,2.7,9.9-0.3
			c3.8-2.6,4.5-9.6,0.6-12.5C365.1,233.6,366.7,236.5,365.4,239.3z"/>
		<path id="XMLID_7677_" class="st9" d="M346.3,234c-1.3,4.6,2,9.6,7.4,11.4c5.4,1.8,10.8-0.5,12.2-5c1.3-4.5-2-9.6-7.4-11.4
			C353,227.2,347.6,229.4,346.3,234z"/>
		<path id="XMLID_7674_" d="M346.9,233.3c-1.3,4.5,1.8,9.5,6.9,11.1c5.1,1.7,10.3-0.6,11.6-5.1c1.3-4.5-1.8-9.5-6.9-11.1
			C353.4,226.5,348.2,228.8,346.9,233.3z"/>
	</g>
	<g id="XMLID_7653_">
		<path id="XMLID_7672_" class="st0" d="M660.2,702.4c-3.3,16.5,4.2,32.1,16.9,34.6c12.7,2.6,25.7-8.8,29.1-25.3
			c3.3-16.6-4.2-32.1-16.9-34.6C676.6,674.5,663.6,685.8,660.2,702.4z"/>
		<path id="XMLID_7669_" d="M681.7,684.9c-1.3,4.5,1.8,9.5,6.9,11.1c5.1,1.7,10.3-0.7,11.6-5.1c1.3-4.5-1.8-9.5-6.9-11.1
			C688.2,678.1,683,680.4,681.7,684.9z"/>
		<path id="XMLID_7668_" class="st1" d="M665.2,699c-1.5,4.2-2.2,10.3-1.8,11.4c0.7,2,5.7,0.8,7.6-5.6c1.1-3.7,0.7-7.7-0.2-10
			C670,692.6,666.6,695.2,665.2,699z"/>
		<path id="XMLID_7667_" class="st2" d="M668,696.9c3.2,9.3,16.1,9.3,16.1,9.3c2.1-0.4,3.7-0.8,4.7-3.5c1-2.7-4.1-10.3-5.4-11.9
			c-1.2-1.5-0.2-5.6,0.3-9.1c0.5-3.6-4.7-1.7-9,0.6C671.2,684.2,666,691.2,668,696.9z"/>
		<path id="XMLID_7666_" class="st3" d="M668,693.5c-0.6,6.2,6.8,7.2,9.3,7.7c1.4,0.2,5.3,0.1,5.5-2.2c0.4-3.8-4.1-6.5-3.8-10.8
			c0.4-5.1-0.9-6.1-3.2-5.3C673.4,683.6,668.6,687.3,668,693.5z"/>
		<path id="XMLID_7665_" class="st4" d="M669.7,692.8c-0.4,4.4,7.1,8,9.2,5.5c1.1-1.4-1.5-4.2-1.5-7.4c0-3.2-0.1-7.1-2.6-5.7
			C672.3,686.5,670.2,688.4,669.7,692.8z"/>
		<path id="XMLID_7662_" class="st5" d="M671.2,691.8c-0.1,2.6,2.6,4.4,3.4,2.8c0,0,1-2.7-0.2-5.3
			C673.2,686.6,671.3,689.1,671.2,691.8z"/>
		<path id="XMLID_7661_" class="st6" d="M693.6,694.5c0,0,1,0.9,1.8,9.8c0.9,8.9-6.6,25.2-20.4,24.9c-7.9-0.2-9.3,0.5-9.3,0.5
			s8.6,8.4,17.3,8c8.7-0.3,18.3-9.9,21.3-19.1c3-9.2,4.9-27.1-5.6-35.8C698.7,682.9,698.6,694.5,693.6,694.5z"/>
		<path id="XMLID_7660_" class="st7" d="M696.4,715.6c-1.5,2-2.5,6.3-10.5,12.7c-2.6,2.1-2.9,4.4-2.3,5c1.3,1.3,3.9,0.5,8-2.1
			c4.1-2.6,9.7-10.6,10.9-14.3C703.7,713.3,699.9,711.1,696.4,715.6z"/>
		<path id="XMLID_7659_" class="st7" d="M700.4,690.1c-1.7,3.9-6.9,8.8-11.7,6c-4.9-2.8-4.6,2.8-1,5.1c3.5,2.3,12.1,4.4,15.5,0.6
			c3.4-3.7,1.5-7.3,0.7-9.8c-0.8-2.5-3.9-9.1-5-9.1C697.6,682.9,702,686.2,700.4,690.1z"/>
		<path id="XMLID_7658_" class="st8" d="M700.2,690.9c-1.2,2.8-4.1,4.8-8,4.3c-3.9-0.5-5.8,1.1-2.9,2.8c0,0,5.5,2.7,9.9-0.3
			c3.8-2.6,4.5-9.6,0.6-12.5C699.9,685.2,701.5,688.2,700.2,690.9z"/>
		<path id="XMLID_7657_" class="st9" d="M681.1,685.6c-1.3,4.6,2,9.6,7.4,11.4c5.4,1.8,10.8-0.5,12.2-5c1.3-4.5-2-9.6-7.4-11.4
			C687.8,678.8,682.4,681.1,681.1,685.6z"/>
		<path id="XMLID_7654_" d="M681.7,684.9c-1.3,4.5,1.8,9.5,6.9,11.1c5.1,1.7,10.3-0.6,11.6-5.1c1.3-4.5-1.8-9.5-6.9-11.1
			C688.2,678.2,683.1,680.5,681.7,684.9z"/>
	</g>
	<g id="XMLID_7633_">
		<path id="XMLID_7652_" class="st0" d="M427.2,550.1c12.4,11.4,29.6,12.9,38.4,3.4c8.8-9.5,5.7-26.5-6.7-38
			c-12.4-11.4-29.6-13-38.4-3.4C411.7,521.6,414.7,538.6,427.2,550.1z"/>
		<path id="XMLID_7649_" d="M423.3,522.6c3.2,3.4,9.1,3.3,13.1-0.2c4-3.5,4.8-9.2,1.6-12.6c-3.2-3.4-9-3.4-13.1,0.2
			C420.9,513.5,420.2,519.2,423.3,522.6z"/>
		<path id="XMLID_7648_" class="st1" d="M426.9,544c2.8,3.4,7.7,7.2,8.9,7.4c2.1,0.4,3.7-4.5-0.9-9.4c-2.7-2.8-6.3-4.6-8.6-5
			C423.8,536.6,424.3,540.9,426.9,544z"/>
		<path id="XMLID_7647_" class="st2" d="M426.5,540.6c9.6,2.1,16.2-9,16.2-9c0.8-2,1.2-3.6-0.6-5.8c-1.8-2.2-10.9-1.8-12.9-1.5
			c-2,0.3-4.9-2.7-7.7-5c-2.8-2.3-3.9,3.2-4.1,8C417.2,531.3,420.6,539.3,426.5,540.6z"/>
		<path id="XMLID_7646_" class="st3" d="M423.5,538.8c5,3.7,9.7-2.1,11.4-4c0.9-1.1,2.8-4.4,1-5.9c-3.1-2.4-7.7,0.2-11.2-2.4
			c-4.2-2.9-5.7-2.4-6.2,0C417.9,529.1,418.6,535.1,423.5,538.8z"/>
		<path id="XMLID_7645_" class="st4" d="M423.8,537c3.5,2.6,10.5-2,9.5-5c-0.6-1.7-4.4-0.9-7.1-2.5c-2.7-1.6-6.1-3.6-6.3-0.7
			C419.8,531.5,420.3,534.3,423.8,537z"/>
		<path id="XMLID_7642_" class="st5" d="M423.8,535.1c2.2,1.4,5.2,0,4.1-1.5c0,0-1.8-2.2-4.7-2.5
			C420.4,530.9,421.6,533.7,423.8,535.1z"/>
		<path id="XMLID_7641_" class="st6" d="M437.7,517.4c0,0,1.3-0.4,9.3,3.5c8.1,3.8,18.2,18.7,10.8,30.3c-4.2,6.6-4.3,8.2-4.3,8.2
			s11.7-3.1,15.8-10.6c4.2-7.6,0.9-20.8-5.4-28.1c-6.3-7.3-20.7-18.2-33.6-13.7C430.4,507,440.2,513.1,437.7,517.4z"/>
		<path id="XMLID_7640_" class="st7" d="M457.2,525.9c0.9,2.3,4.1,5.4,5.5,15.5c0.5,3.3,2.3,4.8,3.1,4.6c1.8-0.4,2.4-3.1,2.3-7.9
			c-0.1-4.8-4.1-13.8-6.7-16.7C458.9,518.5,455.1,520.6,457.2,525.9z"/>
		<path id="XMLID_7639_" class="st7" d="M437.3,509.3c2.5,3.4,4,10.5-0.9,13.2c-4.9,2.7,0.1,5.4,3.8,3.5c3.8-1.8,10-8,8.5-12.9
			c-1.4-4.9-5.5-5-8.1-5.6c-2.6-0.6-9.8-1.4-10.4-0.4C429.8,508,434.9,505.9,437.3,509.3z"/>
		<path id="XMLID_7638_" class="st8" d="M438,509.9c1.7,2.5,2,6-0.5,9c-2.5,3.1-2.1,5.5,0.9,3.9c0,0,5.2-3.4,4.9-8.7
			c-0.3-4.6-5.9-8.8-10.4-7C432.9,507.2,436.3,507.4,438,509.9z"/>
		<path id="XMLID_7637_" class="st9" d="M423.6,523.5c3.2,3.5,9.3,3.3,13.6-0.5c4.3-3.7,5.2-9.6,2-13c-3.2-3.5-9.3-3.3-13.6,0.5
			C421.3,514.2,420.4,520.1,423.6,523.5z"/>
		<path id="XMLID_7634_" d="M423.3,522.6c3.2,3.4,9.1,3.3,13.1-0.2c4-3.5,4.8-9.1,1.6-12.6c-3.2-3.4-9.1-3.4-13.1,0.2
			C420.9,513.6,420.2,519.2,423.3,522.6z"/>
	</g>
	<g id="XMLID_7613_">
		<path id="XMLID_7632_" class="st0" d="M173.4,645.5c12.4,11.4,29.6,12.9,38.4,3.4c8.8-9.5,5.7-26.5-6.7-38
			c-12.4-11.4-29.6-13-38.4-3.4C158,617.1,161,634.1,173.4,645.5z"/>
		<path id="XMLID_7629_" d="M169.6,618.1c3.2,3.4,9.1,3.3,13.1-0.2c4-3.5,4.8-9.2,1.6-12.6c-3.2-3.4-9-3.4-13.1,0.2
			C167.1,609,166.4,614.6,169.6,618.1z"/>
		<path id="XMLID_7628_" class="st1" d="M173.1,639.5c2.8,3.4,7.7,7.2,8.9,7.4c2.1,0.4,3.7-4.5-0.9-9.4c-2.7-2.8-6.3-4.6-8.6-5
			C170,632.1,170.6,636.3,173.1,639.5z"/>
		<path id="XMLID_7627_" class="st2" d="M172.7,636c9.6,2.1,16.2-9,16.2-9c0.8-2,1.2-3.6-0.6-5.8c-1.8-2.2-10.9-1.8-12.9-1.5
			c-2,0.3-4.9-2.7-7.7-5c-2.8-2.3-3.9,3.2-4.1,8C163.5,626.8,166.9,634.8,172.7,636z"/>
		<path id="XMLID_7626_" class="st3" d="M169.8,634.2c5,3.7,9.7-2.1,11.4-4c0.9-1.1,2.8-4.4,1-5.9c-3.1-2.4-7.7,0.2-11.2-2.4
			c-4.2-2.9-5.7-2.4-6.2,0C164.2,624.5,164.8,630.5,169.8,634.2z"/>
		<path id="XMLID_7625_" class="st4" d="M170.1,632.4c3.5,2.6,10.5-2,9.5-5c-0.6-1.7-4.4-0.9-7.1-2.5c-2.7-1.6-6.1-3.6-6.3-0.7
			C166,626.9,166.6,629.8,170.1,632.4z"/>
		<path id="XMLID_7622_" class="st5" d="M170,630.6c2.2,1.4,5.2,0,4.1-1.5c0,0-1.8-2.2-4.7-2.5C166.6,626.3,167.8,629.2,170,630.6z"
			/>
		<path id="XMLID_7621_" class="st6" d="M183.9,612.9c0,0,1.3-0.4,9.3,3.5c8.1,3.8,18.2,18.7,10.8,30.3c-4.2,6.6-4.3,8.2-4.3,8.2
			s11.7-3.1,15.8-10.6c4.2-7.6,0.9-20.8-5.4-28.1c-6.3-7.3-20.7-18.2-33.6-13.7C176.6,602.5,186.5,608.6,183.9,612.9z"/>
		<path id="XMLID_7620_" class="st7" d="M203.4,621.3c0.9,2.3,4.1,5.4,5.5,15.5c0.5,3.3,2.3,4.8,3.1,4.6c1.8-0.4,2.4-3.1,2.3-7.9
			c-0.1-4.8-4.1-13.8-6.7-16.7C205.2,613.9,201.4,616.1,203.4,621.3z"/>
		<path id="XMLID_7619_" class="st7" d="M183.6,604.7c2.5,3.4,4,10.5-0.9,13.2c-4.9,2.7,0.1,5.4,3.8,3.5c3.8-1.8,10-8,8.5-12.9
			c-1.4-4.9-5.5-5-8.1-5.6c-2.6-0.6-9.8-1.4-10.4-0.4C176.1,603.4,181.1,601.3,183.6,604.7z"/>
		<path id="XMLID_7618_" class="st8" d="M184.3,605.3c1.7,2.5,2,6-0.5,9c-2.5,3.1-2.1,5.5,0.9,3.9c0,0,5.2-3.4,4.9-8.7
			c-0.3-4.6-5.9-8.8-10.4-7C179.2,602.6,182.6,602.8,184.3,605.3z"/>
		<path id="XMLID_7617_" class="st9" d="M169.9,619c3.2,3.5,9.3,3.3,13.6-0.5c4.3-3.7,5.2-9.6,2-13c-3.2-3.5-9.3-3.3-13.6,0.5
			C167.5,609.7,166.6,615.5,169.9,619z"/>
		<path id="XMLID_7614_" d="M169.6,618.1c3.2,3.4,9.1,3.3,13.1-0.2c4-3.5,4.8-9.1,1.6-12.6c-3.2-3.4-9.1-3.4-13.1,0.2
			C167.1,609,166.4,614.6,169.6,618.1z"/>
	</g>
	<g id="XMLID_7592_">
		<path id="XMLID_7612_" class="st0" d="M778.8,376.4c12.4,11.4,29.6,12.9,38.4,3.4c8.8-9.5,5.7-26.5-6.7-38
			c-12.4-11.4-29.6-13-38.4-3.4C763.3,348,766.3,365,778.8,376.4z"/>
		<path id="XMLID_7609_" d="M774.9,349c3.2,3.4,9.1,3.3,13.1-0.2c4-3.5,4.8-9.2,1.6-12.6c-3.2-3.4-9-3.4-13.1,0.2
			C772.5,339.9,771.8,345.6,774.9,349z"/>
		<path id="XMLID_7608_" class="st1" d="M778.5,370.4c2.8,3.4,7.7,7.2,8.9,7.4c2.1,0.4,3.7-4.5-0.9-9.4c-2.7-2.8-6.3-4.6-8.6-5
			C775.4,363,775.9,367.2,778.5,370.4z"/>
		<path id="XMLID_7607_" class="st2" d="M778.1,366.9c9.6,2.1,16.2-9,16.2-9c0.8-2,1.2-3.6-0.6-5.8c-1.8-2.2-10.9-1.8-12.9-1.5
			c-2,0.3-4.9-2.7-7.7-5c-2.8-2.3-3.9,3.2-4.1,8C768.8,357.7,772.2,365.7,778.1,366.9z"/>
		<path id="XMLID_7606_" class="st3" d="M775.1,365.1c5,3.7,9.7-2.1,11.4-4c0.9-1.1,2.8-4.4,1-5.9c-3.1-2.4-7.7,0.2-11.2-2.4
			c-4.2-2.9-5.7-2.4-6.2,0C769.5,355.4,770.2,361.4,775.1,365.1z"/>
		<path id="XMLID_7605_" class="st4" d="M775.4,363.3c3.5,2.6,10.5-2,9.5-5c-0.6-1.7-4.4-0.9-7.1-2.5c-2.7-1.6-6.1-3.6-6.3-0.7
			C771.4,357.9,771.9,360.7,775.4,363.3z"/>
		<path id="XMLID_7602_" class="st5" d="M775.4,361.5c2.2,1.4,5.2,0,4.1-1.5c0,0-1.8-2.2-4.7-2.5C772,357.2,773.2,360.1,775.4,361.5
			z"/>
		<path id="XMLID_7601_" class="st6" d="M789.3,343.8c0,0,1.3-0.4,9.3,3.5c8.1,3.8,18.2,18.7,10.8,30.3c-4.2,6.6-4.3,8.2-4.3,8.2
			s11.7-3.1,15.8-10.6c4.2-7.6,0.9-20.8-5.4-28.1c-6.3-7.3-20.7-18.2-33.6-13.7C782,333.4,791.8,339.5,789.3,343.8z"/>
		<path id="XMLID_7600_" class="st7" d="M808.8,352.2c0.9,2.3,4.1,5.4,5.5,15.5c0.5,3.3,2.3,4.8,3.1,4.6c1.8-0.4,2.4-3.1,2.3-7.9
			c-0.1-4.8-4.1-13.8-6.7-16.7C810.5,344.9,806.7,347,808.8,352.2z"/>
		<path id="XMLID_7599_" class="st7" d="M788.9,335.7c2.5,3.4,4,10.5-0.9,13.2c-4.9,2.7,0.1,5.4,3.8,3.5c3.8-1.8,10-8,8.5-12.9
			c-1.4-4.9-5.5-5-8.1-5.6c-2.6-0.6-9.8-1.4-10.4-0.4C781.4,334.4,786.5,332.3,788.9,335.7z"/>
		<path id="XMLID_7598_" class="st8" d="M789.6,336.2c1.7,2.5,2,6-0.5,9c-2.5,3.1-2.1,5.5,0.9,3.9c0,0,5.2-3.4,4.9-8.7
			c-0.3-4.6-5.9-8.8-10.4-7C784.5,333.6,787.9,333.7,789.6,336.2z"/>
		<path id="XMLID_7594_" class="st9" d="M775.2,349.9c3.2,3.5,9.3,3.3,13.6-0.5c4.3-3.7,5.2-9.6,2-13c-3.2-3.5-9.3-3.3-13.6,0.5
			C772.9,340.6,772,346.4,775.2,349.9z"/>
		<path id="XMLID_7775_" d="M774.9,349c3.2,3.4,9.1,3.3,13.1-0.2c4-3.5,4.8-9.1,1.6-12.6c-3.2-3.4-9.1-3.4-13.1,0.2
			C772.5,339.9,771.8,345.6,774.9,349z"/>
	</g>
</g>
</svg>
