<?xml version="1.0" encoding="utf-8"?>
<!-- Generator: Adobe Illustrator 19.0.0, SVG Export Plug-In . SVG Version: 6.00 Build 0)  -->
<svg version="1.1" id="Layer_1" xmlns="http://www.w3.org/2000/svg" xmlns:xlink="http://www.w3.org/1999/xlink" x="0px" y="0px"
	 viewBox="0 0 1000 990.3" style="enable-background:new 0 0 1000 990.3;" xml:space="preserve">
<style type="text/css">
	.st0{fill:#CF88B4;}
	.st1{fill:#9E648B;}
	.st2{fill:#EBE9EC;}
	.st3{fill:#C689B5;}
	.st4{fill:#D872A4;}
	.st5{fill:#87517A;}
	.st6{fill:#ECE2EB;}
	.st7{fill:#DDD7DD;}
	.st8{fill:#DAC8D4;}
	.st9{fill:#BA568B;}
</style>
<g id="XMLID_7861_">
	<g id="XMLID_8011_">
		<g id="XMLID_8025_">
			<path id="XMLID_8032_" class="st0" d="M441.6,542.6c18.1,14.6,48.3,16.8,48.3,16.8s25.7,0.3,49.3-17c32.5-23.7,32-49.2,31.8-63.1
				c-0.2-13.9-8.3-29.4-18.5-40.1c-10.2-10.7-24.4-20.5-58.6-22.4c-34.2-1.9-74.1,24.9-79.1,54.9C409.9,501.6,423.5,528,441.6,542.6
				z M493.6,427.4c28.9,1.6,41,9.9,49.6,19c8.6,9.1,15.4,22.2,15.6,34c0.2,11.8,0.7,33.4-26.9,53.5c-20,14.6-41.8,14.4-41.8,14.4
				s-25.5-1.9-40.9-14.2c-15.3-12.3-26.9-34.7-22.6-60.1C430.9,448.4,464.7,425.7,493.6,427.4z"/>
			<path id="XMLID_8029_" class="st1" d="M413,471.3c-2.4,14.3-0.7,29,4.8,42.3c5,12,12.8,22.6,22.6,30.4c0.3,0.3,0.7,0.6,1,0.8
				c18.4,14.1,47.1,16.3,48.3,16.4l0,0l0.1,0c1.1,0,26.5,0.1,50.4-17.3c33.1-24.2,32.7-50.4,32.5-64.5l0-0.2
				c-0.2-13.4-7.5-29.3-18.9-41.4c-2.8-2.9-5.5-5.4-8.3-7.5c-12.1-9.3-28.5-14.2-51.5-15.5c-16.8-0.9-35.6,4.8-51.6,15.7
				C426.2,441.8,415.5,456.6,413,471.3z M493.9,416.7c26.1,1.5,40.6,7.6,50.5,15.1c3.1,2.3,5.7,4.8,8.1,7.3
				c10.2,10.8,18.2,26.2,18.5,40.1c0.2,13.9,0.8,39.5-31.8,63.1c-23.7,17.3-49.3,17-49.3,17s-29.1-2.1-47.3-16
				c-0.3-0.3-0.6-0.5-1-0.7c-18.1-14.6-31.7-41-26.7-71C419.8,441.6,459.8,414.8,493.9,416.7z"/>
			<path id="XMLID_8026_" class="st1" d="M426.7,473.8c-4.2,25.4,7.3,47.8,22.6,60.1c0.3,0.2,0.5,0.4,0.8,0.6
				c15.4,11.8,40.1,13.6,40.1,13.6s21.8,0.2,41.8-14.4c27.6-20.1,27.1-41.7,26.9-53.5c-0.2-11.8-7-24.9-15.6-34
				c-2.1-2.1-4.3-4.2-6.9-6.2c-8.4-6.4-20.6-11.5-42.8-12.8C464.7,425.7,430.9,448.4,426.7,473.8z M493.5,429.2
				c18.8,1.1,32.1,5,41.8,12.4c2.2,1.7,4.4,3.7,6.6,6c9,9.5,15,22.4,15.1,32.7l0,0.2c0.1,11.3,0.5,32.4-26.2,51.8
				c-18.8,13.7-39.4,14-40.6,14c-1.4-0.1-24.6-2.2-39-13.2c-0.3-0.2-0.5-0.4-0.8-0.6c-13.5-10.9-26.3-31.9-22-58.4
				c1.9-11.5,10.5-23.3,23.4-32.2C464.8,433.1,480,428.4,493.5,429.2z"/>
		</g>
		<path id="XMLID_8022_" class="st2" d="M444.4,546.8c35,21.1,67.9,11.8,84.6,1.4c19-11.9,33.9-27.4,37.5-50.4
			c5.7-36.5-11.7-67.3-61.1-76.2c-49.4-9-82.7,23.2-90.2,47.3C407.7,492.8,422.1,533.3,444.4,546.8z M503.7,432.2
			c40.6,7.1,54.6,32.3,49.7,62.5c-3.1,19-15.4,31.9-31.2,41.8c-13.8,8.7-40.9,16.6-69.5-0.5c-18.2-11-29.8-44.3-23.5-64.1
			C435.6,451.9,463.1,425.2,503.7,432.2z"/>
		<g id="XMLID_8012_">
			<path id="XMLID_8019_" class="st2" d="M444.4,546.8c35,21.1,67.9,11.8,84.6,1.4c19-11.9,33.9-27.4,37.5-50.4
				c5.7-36.5-11.7-67.3-61.1-76.2c-49.4-9-82.7,23.2-90.2,47.3C407.7,492.8,422.1,533.3,444.4,546.8z M503.7,432.2
				c40.6,7.1,54.6,32.3,49.7,62.5c-3.1,19-15.4,31.9-31.2,41.8c-13.8,8.7-40.9,16.6-69.5-0.5c-18.2-11-29.8-44.3-23.5-64.1
				C435.6,451.9,463.1,425.2,503.7,432.2z"/>
			<path id="XMLID_8016_" class="st3" d="M440.7,544.2c1.2,0.9,2.4,1.8,3.7,2.5c35,21.1,67.9,11.8,84.6,1.4
				c19-11.9,33.9-27.4,37.5-50.4c3.8-24.1-2.5-45.7-21.4-60.2c-9.8-7.4-22.9-13-39.7-16.1c-49.4-9-82.7,23.2-90.2,47.3
				C408.1,491.5,420.5,528.8,440.7,544.2z M445.1,433.5c12.2-7.8,32.5-16.1,60.2-11.1c16.1,2.9,29.3,8.3,39.3,15.9
				c17.8,13.6,25,34.1,21.1,59.3c-3.1,20.1-14.9,35.9-37.1,49.8c-5.8,3.6-18,9.9-35,11c-16.8,1.1-33.1-3-48.6-12.4
				c-1.2-0.7-2.4-1.5-3.6-2.4c-19.7-15.1-32.2-52-25.2-74.5C420.2,455.8,431,442.5,445.1,433.5z"/>
			<path id="XMLID_8013_" class="st3" d="M428.4,471.6c-2.9,9.2-2.3,21.5,1.8,34c4.1,12.4,11,23.1,19,29.2l0,0
				c1,0.8,2.1,1.5,3.1,2.1c27,16.2,54.1,10.9,70.5,0.5c18.7-11.9,28.8-25.4,31.6-42.5c3.5-21.5-2.5-38.9-17.5-50.4
				c-8.4-6.4-19.4-10.8-32.9-13.1c-23.2-4-40.4,3.1-50.7,9.9C441.2,448.9,432,460.3,428.4,471.6z M503.7,432.2
				c13.8,2.4,24.5,6.9,32.5,13c15.4,11.8,20.4,29.6,17.2,49.5c-3.1,19-15.4,31.9-31.2,41.8c-13.8,8.7-40.9,16.6-69.5-0.5
				c-1-0.6-2-1.3-3-2.1c-16.5-12.6-26.4-43.3-20.4-62.1C435.6,451.9,463.1,425.2,503.7,432.2z"/>
		</g>
	</g>
	<g id="XMLID_7987_">
		<g id="XMLID_8001_">
			<path id="XMLID_8008_" class="st0" d="M597.1,402.2c9.1,7.3,24.3,8.4,24.3,8.4s12.9,0.2,24.8-8.5c16.4-11.9,16.1-24.7,16-31.7
				c-0.1-7-4.2-14.8-9.3-20.2c-5.1-5.4-12.3-10.3-29.4-11.3c-17.2-1-37.3,12.5-39.8,27.6C581.2,381.6,588,394.9,597.1,402.2z
				 M623.3,344.3c14.5,0.8,20.6,5,24.9,9.6c4.3,4.6,7.8,11.2,7.8,17.1c0.1,5.9,0.3,16.8-13.5,26.9c-10.1,7.3-21,7.2-21,7.2
				s-12.8-1-20.5-7.2c-7.7-6.2-13.5-17.4-11.4-30.2C591.7,354.9,608.7,343.5,623.3,344.3z"/>
			<path id="XMLID_8005_" class="st1" d="M582.8,366.4c-1.2,7.2-0.4,14.6,2.4,21.3c2.5,6.1,6.4,11.3,11.3,15.3
				c0.2,0.1,0.3,0.3,0.5,0.4c9.3,7.1,23.7,8.2,24.3,8.3l0,0l0,0c0.5,0,13.3,0,25.4-8.7c16.7-12.1,16.5-25.3,16.3-32.4l0-0.1
				c-0.1-6.7-3.8-14.7-9.5-20.8c-1.4-1.5-2.7-2.7-4.2-3.8c-6.1-4.7-14.3-7.1-25.9-7.8c-8.5-0.5-17.9,2.4-26,7.9
				C589.4,351.5,584,359,582.8,366.4z M623.4,338.9c13.1,0.7,20.4,3.8,25.4,7.6c1.5,1.2,2.9,2.4,4.1,3.7c5.1,5.4,9.2,13.2,9.3,20.2
				c0.1,7,0.4,19.8-16,31.7c-11.9,8.7-24.8,8.5-24.8,8.5s-14.6-1.1-23.8-8.1c-0.2-0.1-0.3-0.3-0.5-0.4c-9.1-7.3-15.9-20.6-13.4-35.7
				C586.2,351.4,606.3,337.9,623.4,338.9z"/>
			<path id="XMLID_8002_" class="st1" d="M589.6,367.6c-2.1,12.8,3.7,24,11.4,30.2c0.1,0.1,0.3,0.2,0.4,0.3
				c7.7,5.9,20.1,6.8,20.1,6.8s10.9,0.1,21-7.2c13.9-10.1,13.6-20.9,13.5-26.9c-0.1-5.9-3.5-12.5-7.8-17.1c-1-1.1-2.1-2.1-3.4-3.1
				c-4.2-3.2-10.4-5.8-21.5-6.4C608.7,343.5,591.7,354.9,589.6,367.6z M623.2,345.2c9.4,0.5,16.1,2.5,21,6.2c1.1,0.9,2.2,1.8,3.3,3
				c4.5,4.8,7.5,11.3,7.6,16.5l0,0.1c0.1,5.7,0.3,16.3-13.2,26c-9.4,6.9-19.8,7-20.4,7c-0.7-0.1-12.4-1.1-19.6-6.6
				c-0.1-0.1-0.3-0.2-0.4-0.3c-6.8-5.5-13.2-16-11.1-29.4c1-5.8,5.3-11.7,11.8-16.2C608.8,347.2,616.4,344.8,623.2,345.2z"/>
		</g>
		<path id="XMLID_7998_" class="st2" d="M598.5,404.3c17.6,10.6,34.1,5.9,42.6,0.7c9.6-6,17.1-13.8,18.8-25.3
			c2.9-18.4-5.9-33.8-30.7-38.3c-24.9-4.5-41.6,11.7-45.4,23.8C580.1,377.2,587.3,397.5,598.5,404.3z M628.3,346.7
			c20.4,3.5,27.5,16.2,25,31.4c-1.6,9.5-7.8,16-15.7,21c-6.9,4.4-20.5,8.3-34.9-0.3c-9.2-5.5-15-22.3-11.8-32.3
			C594.1,356.6,608,343.2,628.3,346.7z"/>
		<g id="XMLID_7988_">
			<path id="XMLID_7995_" class="st2" d="M598.5,404.3c17.6,10.6,34.1,5.9,42.6,0.7c9.6-6,17.1-13.8,18.8-25.3
				c2.9-18.4-5.9-33.8-30.7-38.3c-24.9-4.5-41.6,11.7-45.4,23.8C580.1,377.2,587.3,397.5,598.5,404.3z M628.3,346.7
				c20.4,3.5,27.5,16.2,25,31.4c-1.6,9.5-7.8,16-15.7,21c-6.9,4.4-20.5,8.3-34.9-0.3c-9.2-5.5-15-22.3-11.8-32.3
				C594.1,356.6,608,343.2,628.3,346.7z"/>
			<path id="XMLID_7992_" class="st3" d="M596.7,403c0.6,0.5,1.2,0.9,1.9,1.3c17.6,10.6,34.1,5.9,42.6,0.7
				c9.6-6,17.1-13.8,18.8-25.3c1.9-12.1-1.3-23-10.8-30.2c-4.9-3.7-11.5-6.5-20-8.1c-24.9-4.5-41.6,11.7-45.4,23.8
				C580.3,376.5,586.5,395.3,596.7,403z M598.9,347.4c6.1-3.9,16.4-8.1,30.3-5.6c8.1,1.5,14.7,4.2,19.8,8
				c8.9,6.8,12.6,17.1,10.6,29.8c-1.6,10.1-7.5,18-18.7,25c-2.9,1.8-9,5-17.6,5.5c-8.4,0.6-16.7-1.5-24.4-6.2
				c-0.6-0.4-1.2-0.8-1.8-1.2c-9.9-7.6-16.2-26.1-12.7-37.4C586.4,358.6,591.8,351.9,598.9,347.4z"/>
			<path id="XMLID_7989_" class="st3" d="M590.5,366.5c-1.5,4.6-1.1,10.8,0.9,17.1c2.1,6.2,5.5,11.6,9.5,14.7l0,0
				c0.5,0.4,1,0.8,1.6,1.1c13.6,8.1,27.2,5.5,35.4,0.3c9.4-6,14.5-12.8,15.9-21.4c1.8-10.8-1.3-19.6-8.8-25.3
				c-4.2-3.2-9.8-5.4-16.5-6.6c-11.7-2-20.3,1.6-25.5,5C596.9,355.1,592.3,360.8,590.5,366.5z M628.3,346.7
				c6.9,1.2,12.3,3.5,16.3,6.5c7.8,5.9,10.3,14.9,8.6,24.9c-1.6,9.5-7.8,16-15.7,21c-6.9,4.4-20.5,8.3-34.9-0.3
				c-0.5-0.3-1-0.7-1.5-1c-8.3-6.3-13.3-21.8-10.3-31.2C594.1,356.6,608,343.2,628.3,346.7z"/>
		</g>
	</g>
	<g id="XMLID_7963_">
		<g id="XMLID_7977_">
			<path id="XMLID_7984_" class="st0" d="M795.2,442.2c9.1,7.3,24.3,8.4,24.3,8.4s12.9,0.2,24.8-8.5c16.4-11.9,16.1-24.7,16-31.7
				c-0.1-7-4.2-14.8-9.3-20.2c-5.1-5.4-12.3-10.3-29.4-11.3c-17.2-1-37.3,12.5-39.8,27.6C779.3,421.6,786.1,434.9,795.2,442.2z
				 M821.4,384.3c14.5,0.8,20.6,5,24.9,9.6c4.3,4.6,7.8,11.2,7.8,17.1c0.1,5.9,0.3,16.8-13.5,26.9c-10.1,7.3-21,7.2-21,7.2
				s-12.8-1-20.5-7.2c-7.7-6.2-13.5-17.4-11.4-30.2C789.8,394.9,806.8,383.5,821.4,384.3z"/>
			<path id="XMLID_7981_" class="st1" d="M780.9,406.4c-1.2,7.2-0.4,14.6,2.4,21.3c2.5,6.1,6.4,11.3,11.3,15.3
				c0.2,0.1,0.3,0.3,0.5,0.4c9.3,7.1,23.7,8.2,24.3,8.3l0,0l0,0c0.5,0,13.3,0,25.4-8.7c16.7-12.1,16.5-25.3,16.3-32.4l0-0.1
				c-0.1-6.7-3.8-14.7-9.5-20.8c-1.4-1.5-2.7-2.7-4.2-3.8c-6.1-4.7-14.3-7.1-25.9-7.8c-8.5-0.5-17.9,2.4-26,7.9
				C787.5,391.5,782.1,399,780.9,406.4z M821.5,378.9c13.1,0.7,20.4,3.8,25.4,7.6c1.5,1.2,2.9,2.4,4.1,3.7
				c5.1,5.4,9.2,13.2,9.3,20.2c0.1,7,0.4,19.8-16,31.7c-11.9,8.7-24.8,8.5-24.8,8.5s-14.6-1.1-23.8-8.1c-0.2-0.1-0.3-0.3-0.5-0.4
				c-9.1-7.3-15.9-20.6-13.4-35.7C784.3,391.4,804.4,378,821.5,378.9z"/>
			<path id="XMLID_7978_" class="st1" d="M787.7,407.6c-2.1,12.8,3.7,24,11.4,30.2c0.1,0.1,0.3,0.2,0.4,0.3
				c7.7,5.9,20.1,6.8,20.1,6.8s10.9,0.1,21-7.2c13.9-10.1,13.6-20.9,13.5-26.9c-0.1-5.9-3.5-12.5-7.8-17.1c-1-1.1-2.1-2.1-3.4-3.1
				c-4.2-3.2-10.4-5.8-21.5-6.4C806.8,383.5,789.8,394.9,787.7,407.6z M821.3,385.2c9.4,0.5,16.1,2.5,21,6.2c1.1,0.9,2.2,1.8,3.3,3
				c4.5,4.8,7.5,11.3,7.6,16.5l0,0.1c0.1,5.7,0.3,16.3-13.2,26c-9.4,6.9-19.8,7-20.4,7c-0.7-0.1-12.4-1.1-19.6-6.6
				c-0.1-0.1-0.3-0.2-0.4-0.3c-6.8-5.5-13.2-16-11.1-29.4c1-5.8,5.3-11.7,11.8-16.2C806.9,387.2,814.5,384.8,821.3,385.2z"/>
		</g>
		<path id="XMLID_7974_" class="st2" d="M796.6,444.3c17.6,10.6,34.1,5.9,42.6,0.7c9.6-6,17.1-13.8,18.8-25.3
			c2.9-18.4-5.9-33.8-30.7-38.3c-24.9-4.5-41.6,11.7-45.4,23.8C778.2,417.2,785.4,437.5,796.6,444.3z M826.4,386.7
			c20.4,3.5,27.5,16.2,25,31.4c-1.6,9.5-7.8,16-15.7,21c-6.9,4.4-20.5,8.3-34.9-0.3c-9.2-5.5-15-22.3-11.8-32.3
			C792.2,396.6,806.1,383.2,826.4,386.7z"/>
		<g id="XMLID_7964_">
			<path id="XMLID_7971_" class="st2" d="M796.6,444.3c17.6,10.6,34.1,5.9,42.6,0.7c9.6-6,17.1-13.8,18.8-25.3
				c2.9-18.4-5.9-33.8-30.7-38.3c-24.9-4.5-41.6,11.7-45.4,23.8C778.2,417.2,785.4,437.5,796.6,444.3z M826.4,386.7
				c20.4,3.5,27.5,16.2,25,31.4c-1.6,9.5-7.8,16-15.7,21c-6.9,4.4-20.5,8.3-34.9-0.3c-9.2-5.5-15-22.3-11.8-32.3
				C792.2,396.6,806.1,383.2,826.4,386.7z"/>
			<path id="XMLID_7968_" class="st3" d="M794.8,443c0.6,0.5,1.2,0.9,1.9,1.3c17.6,10.6,34.1,5.9,42.6,0.7
				c9.6-6,17.1-13.8,18.8-25.3c1.9-12.1-1.3-23-10.8-30.2c-4.9-3.7-11.5-6.5-20-8.1c-24.9-4.5-41.6,11.7-45.4,23.8
				C778.4,416.5,784.6,435.3,794.8,443z M797,387.4c6.1-3.9,16.4-8.1,30.3-5.6c8.1,1.5,14.7,4.2,19.8,8c8.9,6.8,12.6,17.1,10.6,29.8
				c-1.6,10.1-7.5,18-18.7,25c-2.9,1.8-9,5-17.6,5.5c-8.4,0.6-16.7-1.5-24.4-6.2c-0.6-0.4-1.2-0.8-1.8-1.2
				c-9.9-7.6-16.2-26.1-12.7-37.4C784.5,398.6,789.9,391.9,797,387.4z"/>
			<path id="XMLID_7965_" class="st3" d="M788.6,406.5c-1.5,4.6-1.1,10.8,0.9,17.1c2.1,6.2,5.5,11.6,9.5,14.7l0,0
				c0.5,0.4,1,0.8,1.6,1.1c13.6,8.1,27.2,5.5,35.4,0.3c9.4-6,14.5-12.8,15.9-21.4c1.8-10.8-1.3-19.6-8.8-25.3
				c-4.2-3.2-9.8-5.4-16.5-6.6c-11.7-2-20.3,1.6-25.5,5C795,395.1,790.4,400.8,788.6,406.5z M826.4,386.7c6.9,1.2,12.3,3.5,16.3,6.5
				c7.8,5.9,10.3,14.9,8.6,24.9c-1.6,9.5-7.8,16-15.7,21c-6.9,4.4-20.5,8.3-34.9-0.3c-0.5-0.3-1-0.7-1.5-1
				c-8.3-6.3-13.3-21.8-10.3-31.2C792.2,396.6,806.1,383.2,826.4,386.7z"/>
		</g>
	</g>
	<g id="XMLID_7939_">
		<g id="XMLID_7953_">
			<path id="XMLID_7960_" class="st0" d="M688.6,672.2c13.5,10.9,36,12.5,36,12.5s19.2,0.2,36.8-12.7c24.3-17.7,23.9-36.7,23.7-47.2
				c-0.2-10.4-6.2-21.9-13.8-30c-7.6-8-18.2-15.3-43.7-16.8c-25.5-1.4-55.3,18.6-59,41C664.9,641.7,675.1,661.4,688.6,672.2z
				 M727.4,586.2c21.6,1.2,30.6,7.4,37,14.2c6.4,6.8,11.5,16.6,11.6,25.4c0.2,8.8,0.5,24.9-20.1,39.9c-15,10.9-31.2,10.7-31.2,10.7
				s-19.1-1.4-30.5-10.6c-11.5-9.2-20.1-25.9-16.9-44.9C680.6,601.9,705.8,585,727.4,586.2z"/>
			<path id="XMLID_7957_" class="st1" d="M667.3,619c-1.8,10.7-0.5,21.6,3.6,31.6c3.7,9,9.6,16.9,16.9,22.7c0.2,0.2,0.5,0.4,0.7,0.6
				c13.7,10.5,35.1,12.2,36.1,12.3l0,0l0.1,0c0.8,0,19.8,0.1,37.7-12.9c24.7-18,24.4-37.6,24.3-48.1l0-0.1
				c-0.2-10-5.6-21.8-14.1-30.9c-2.1-2.2-4.1-4-6.2-5.6c-9-6.9-21.3-10.6-38.5-11.6c-12.5-0.7-26.6,3.6-38.5,11.8
				C677.1,597,669.1,608,667.3,619z M727.7,578.2c19.5,1.1,30.3,5.7,37.7,11.3c2.3,1.7,4.3,3.6,6,5.4c7.6,8,13.6,19.6,13.8,30
				c0.2,10.4,0.6,29.5-23.7,47.2c-17.7,12.9-36.8,12.7-36.8,12.7s-21.7-1.6-35.3-12c-0.2-0.2-0.5-0.4-0.7-0.5
				c-13.5-10.9-23.7-30.6-20-53C672.3,596.8,702.2,576.8,727.7,578.2z"/>
			<path id="XMLID_7954_" class="st1" d="M677.4,620.9c-3.2,19,5.5,35.7,16.9,44.9c0.2,0.2,0.4,0.3,0.6,0.5
				c11.5,8.8,29.9,10.2,29.9,10.2s16.2,0.2,31.2-10.7c20.6-15,20.2-31.1,20.1-39.9c-0.1-8.8-5.2-18.6-11.6-25.4
				c-1.5-1.6-3.2-3.2-5.1-4.6c-6.3-4.8-15.4-8.6-31.9-9.6C705.8,585,680.6,601.9,677.4,620.9z M727.3,587.6
				c14,0.8,23.9,3.7,31.2,9.3c1.7,1.3,3.3,2.7,4.9,4.5c6.7,7.1,11.2,16.7,11.3,24.4l0,0.1c0.1,8.5,0.4,24.2-19.5,38.7
				c-14,10.2-29.4,10.5-30.3,10.5c-1-0.1-18.4-1.6-29.1-9.9c-0.2-0.1-0.4-0.3-0.6-0.5c-10.1-8.1-19.7-23.8-16.4-43.6
				c1.4-8.6,7.8-17.4,17.5-24C705.9,590.5,717.3,587,727.3,587.6z"/>
		</g>
		<path id="XMLID_7950_" class="st2" d="M690.7,675.4c26.1,15.7,50.7,8.8,63.2,1c14.2-8.9,25.3-20.5,28-37.6
			c4.3-27.3-8.7-50.2-45.6-56.9c-36.9-6.7-61.8,17.3-67.4,35.3C663.3,635.1,674,665.3,690.7,675.4z M735,589.8
			c30.3,5.3,40.8,24.1,37.1,46.7c-2.3,14.2-11.5,23.8-23.3,31.2c-10.3,6.5-30.5,12.4-51.9-0.4c-13.6-8.2-22.3-33.1-17.5-47.9
			C684.1,604.6,704.7,584.6,735,589.8z"/>
		<g id="XMLID_7940_">
			<path id="XMLID_7947_" class="st2" d="M690.7,675.4c26.1,15.7,50.7,8.8,63.2,1c14.2-8.9,25.3-20.5,28-37.6
				c4.3-27.3-8.7-50.2-45.6-56.9c-36.9-6.7-61.8,17.3-67.4,35.3C663.3,635.1,674,665.3,690.7,675.4z M735,589.8
				c30.3,5.3,40.8,24.1,37.1,46.7c-2.3,14.2-11.5,23.8-23.3,31.2c-10.3,6.5-30.5,12.4-51.9-0.4c-13.6-8.2-22.3-33.1-17.5-47.9
				C684.1,604.6,704.7,584.6,735,589.8z"/>
			<path id="XMLID_7944_" class="st3" d="M687.9,673.5c0.9,0.7,1.8,1.3,2.8,1.9c26.1,15.7,50.7,8.8,63.2,1
				c14.2-8.9,25.3-20.5,28-37.6c2.8-18-1.9-34.1-16-44.9c-7.3-5.5-17.1-9.7-29.7-12c-36.9-6.7-61.8,17.3-67.4,35.3
				C663.6,634.1,672.8,661.9,687.9,673.5z M691.2,590.8c9.1-5.9,24.3-12,44.9-8.3c12,2.2,21.9,6.2,29.3,11.9
				c13.3,10.1,18.7,25.4,15.8,44.3c-2.3,15-11.1,26.8-27.7,37.2c-4.3,2.7-13.4,7.4-26.1,8.2c-12.5,0.8-24.7-2.3-36.3-9.3
				c-0.9-0.5-1.8-1.2-2.7-1.8c-14.7-11.3-24.1-38.8-18.8-55.6C672.6,607.4,680.7,597.5,691.2,590.8z"/>
			<path id="XMLID_7941_" class="st3" d="M678.7,619.2c-2.2,6.8-1.7,16.1,1.3,25.4c3.1,9.3,8.2,17.2,14.2,21.8l0,0
				c0.8,0.6,1.5,1.1,2.3,1.6c20.2,12.1,40.4,8.1,52.6,0.4c14-8.9,21.5-19,23.6-31.7c2.6-16-1.9-29.1-13.1-37.6
				c-6.2-4.8-14.5-8.1-24.6-9.8c-17.3-3-30.2,2.3-37.9,7.4C688.3,602.3,681.4,610.8,678.7,619.2z M735,589.8
				c10.3,1.8,18.3,5.2,24.3,9.7c11.5,8.8,15.3,22.1,12.8,37c-2.3,14.2-11.5,23.8-23.3,31.2c-10.3,6.5-30.5,12.4-51.9-0.4
				c-0.8-0.5-1.5-1-2.3-1.5c-12.3-9.4-19.7-32.4-15.3-46.4C684.1,604.6,704.7,584.6,735,589.8z"/>
		</g>
	</g>
	<g id="XMLID_7915_">
		<g id="XMLID_7929_">
			<path id="XMLID_7936_" class="st0" d="M280.3,750.5c10.9,8.8,29,10.1,29,10.1s15.4,0.2,29.6-10.2c19.5-14.2,19.2-29.6,19.1-37.9
				c-0.1-8.4-5-17.6-11.1-24.1c-6.1-6.5-14.7-12.3-35.2-13.5c-20.5-1.1-44.5,14.9-47.5,33C261.3,725.9,269.4,741.7,280.3,750.5z
				 M311.6,681.3c17.4,1,24.6,6,29.8,11.4c5.2,5.5,9.3,13.3,9.4,20.4c0.1,7.1,0.4,20.1-16.2,32.1c-12,8.8-25.1,8.6-25.1,8.6
				s-15.3-1.1-24.5-8.6c-9.2-7.4-16.1-20.8-13.6-36.1C273.9,693.9,294.2,680.3,311.6,681.3z"/>
			<path id="XMLID_7933_" class="st1" d="M263.2,707.6c-1.4,8.6-0.4,17.4,2.9,25.4c3,7.2,7.7,13.6,13.6,18.3
				c0.2,0.2,0.4,0.3,0.6,0.5c11.1,8.5,28.3,9.8,29,9.9l0,0l0,0c0.6,0,16,0,30.3-10.4c19.9-14.5,19.7-30.3,19.5-38.7l0-0.1
				c-0.1-8-4.5-17.6-11.4-24.9c-1.7-1.8-3.3-3.2-5-4.5c-7.3-5.6-17.1-8.5-31-9.3c-10.1-0.6-21.4,2.9-31,9.5
				C271.1,689.9,264.6,698.8,263.2,707.6z M311.8,674.9c15.7,0.9,24.4,4.6,30.3,9.1c1.8,1.4,3.4,2.9,4.8,4.4
				c6.1,6.5,11,15.7,11.1,24.1c0.1,8.4,0.5,23.7-19.1,37.9c-14.2,10.4-29.6,10.2-29.6,10.2s-17.5-1.3-28.4-9.6
				c-0.2-0.2-0.4-0.3-0.6-0.4c-10.9-8.8-19-24.6-16.1-42.7C267.2,689.8,291.2,673.7,311.8,674.9z"/>
			<path id="XMLID_7930_" class="st1" d="M271.4,709.2c-2.5,15.3,4.4,28.7,13.6,36.1c0.2,0.1,0.3,0.3,0.5,0.4
				c9.3,7.1,24.1,8.2,24.1,8.2s13.1,0.1,25.1-8.6c16.6-12.1,16.3-25,16.2-32.1c-0.1-7.1-4.2-15-9.4-20.4c-1.2-1.3-2.6-2.5-4.1-3.7
				c-5-3.9-12.4-6.9-25.7-7.7C294.2,680.3,273.9,693.9,271.4,709.2z M311.5,682.4c11.3,0.6,19.3,3,25.1,7.5c1.3,1,2.6,2.2,4,3.6
				c5.4,5.7,9,13.4,9.1,19.7l0,0.1c0.1,6.8,0.3,19.5-15.7,31.1c-11.3,8.2-23.7,8.4-24.4,8.4c-0.8-0.1-14.8-1.3-23.4-7.9
				c-0.2-0.1-0.3-0.2-0.5-0.4c-8.1-6.5-15.8-19.2-13.2-35.1c1.2-6.9,6.3-14,14.1-19.3C294.3,684.7,303.4,681.9,311.5,682.4z"/>
		</g>
		<path id="XMLID_7926_" class="st2" d="M282,753c21,12.7,40.8,7.1,50.8,0.8c11.4-7.2,20.4-16.5,22.5-30.3c3.5-22-7-40.4-36.7-45.8
			c-29.7-5.4-49.7,13.9-54.2,28.4C259.9,720.6,268.6,744.9,282,753z M317.6,684.2c24.4,4.2,32.8,19.4,29.9,37.5
			c-1.9,11.4-9.3,19.2-18.7,25.1c-8.3,5.3-24.5,10-41.7-0.3c-11-6.6-17.9-26.6-14.1-38.5C276.7,696,293.3,680,317.6,684.2z"/>
		<g id="XMLID_7916_">
			<path id="XMLID_7923_" class="st2" d="M282,753c21,12.7,40.8,7.1,50.8,0.8c11.4-7.2,20.4-16.5,22.5-30.3c3.5-22-7-40.4-36.7-45.8
				c-29.7-5.4-49.7,13.9-54.2,28.4C259.9,720.6,268.6,744.9,282,753z M317.6,684.2c24.4,4.2,32.8,19.4,29.9,37.5
				c-1.9,11.4-9.3,19.2-18.7,25.1c-8.3,5.3-24.5,10-41.7-0.3c-11-6.6-17.9-26.6-14.1-38.5C276.7,696,293.3,680,317.6,684.2z"/>
			<path id="XMLID_7920_" class="st3" d="M279.8,751.5c0.7,0.6,1.5,1.1,2.2,1.5c21,12.7,40.8,7.1,50.8,0.8
				c11.4-7.2,20.4-16.5,22.5-30.3c2.3-14.5-1.5-27.5-12.9-36.1c-5.9-4.5-13.7-7.8-23.9-9.6c-29.7-5.4-49.7,13.9-54.2,28.4
				C260.2,719.8,267.7,742.2,279.8,751.5z M282.4,685c7.3-4.7,19.5-9.7,36.2-6.7c9.7,1.8,17.6,5,23.6,9.5
				c10.7,8.1,15,20.5,12.7,35.6c-1.9,12.1-9,21.6-22.3,29.9c-3.5,2.2-10.8,5.9-21,6.6c-10.1,0.7-19.9-1.8-29.2-7.4
				c-0.7-0.4-1.5-0.9-2.2-1.5c-11.9-9.1-19.4-31.2-15.1-44.7C267.5,698.4,274,690.4,282.4,685z"/>
			<path id="XMLID_7917_" class="st3" d="M272.4,707.8c-1.8,5.5-1.4,12.9,1.1,20.4c2.5,7.5,6.6,13.9,11.4,17.5l0,0
				c0.6,0.5,1.2,0.9,1.9,1.3c16.2,9.7,32.5,6.5,42.3,0.3c11.3-7.1,17.3-15.3,19-25.5c2.1-12.9-1.5-23.4-10.5-30.3
				c-5-3.8-11.7-6.5-19.8-7.9c-13.9-2.4-24.3,1.9-30.5,5.9C280.1,694.2,274.5,701,272.4,707.8z M317.6,684.2
				c8.3,1.4,14.7,4.2,19.5,7.8c9.3,7.1,12.3,17.8,10.3,29.7c-1.9,11.4-9.3,19.2-18.7,25.1c-8.3,5.3-24.5,10-41.7-0.3
				c-0.6-0.4-1.2-0.8-1.8-1.2c-9.9-7.6-15.9-26-12.3-37.3C276.7,696,293.3,680,317.6,684.2z"/>
		</g>
	</g>
	<g id="XMLID_7891_">
		<g id="XMLID_7905_">
			<path id="XMLID_7912_" class="st0" d="M286.3,634.2c17.5-4.4,33-22.1,33-22.1s12.2-15.8,12.5-38.6c0.5-31.3-15.6-42.8-24.3-49.2
				c-8.8-6.4-22.1-8.6-33.5-7.3c-11.4,1.3-24.1,5.6-41.3,25.9c-17.1,20.3-19.2,57.6-2.9,74.7C246,634.7,268.8,638.6,286.3,634.2z
				 M239.1,548c14.5-17.2,25.3-20.8,35-21.9c9.7-1.1,21,0.8,28.4,6.2c7.4,5.4,21,15.2,20.6,41.7c-0.3,19.3-10.6,32.7-10.6,32.7
				s-13.1,15-27.9,18.7c-14.8,3.8-34.1,0.5-47.9-14C222.8,596.8,224.5,565.2,239.1,548z"/>
			<path id="XMLID_7909_" class="st1" d="M228.7,618.6c7.8,8.2,17.7,14,28.5,16.8c9.8,2.5,20,2.6,29.4,0.2c0.3-0.1,0.7-0.2,1-0.2
				c17.3-4.8,32.1-21.6,32.8-22.3l0,0l0,0c0.5-0.7,12.5-16.4,12.8-39.4c0.5-31.9-16-43.8-24.8-50.3l-0.1-0.1
				c-8.4-6.1-21.6-9-34.5-7.6c-3.1,0.4-5.9,0.9-8.5,1.6c-11.4,3.2-22.1,11.1-33.7,24.7c-8.4,10-13.7,24.4-14.3,39.4
				C216.5,596.6,220.7,610.2,228.7,618.6z M232.6,542.9c13.1-15.5,23.7-21.6,33-24.3c2.9-0.8,5.6-1.3,8.3-1.6
				c11.4-1.3,24.8,0.9,33.5,7.3c8.7,6.4,24.9,18,24.3,49.2c-0.3,22.8-12.5,38.6-12.5,38.6s-14.9,17.1-32.1,21.9
				c-0.3,0.1-0.6,0.2-0.9,0.3c-17.5,4.4-40.2,0.5-56.6-16.6C213.4,600.5,215.4,563.2,232.6,542.9z"/>
			<path id="XMLID_7906_" class="st1" d="M236.6,611.3c13.8,14.5,33.1,17.8,47.9,14c0.3-0.1,0.5-0.1,0.8-0.2
				c14.5-4.1,27.2-18.5,27.2-18.5s10.3-13.4,10.6-32.7c0.4-26.5-13.2-36.3-20.6-41.7c-7.4-5.4-18.7-7.3-28.4-6.2
				c-2.3,0.3-4.6,0.7-7.1,1.3c-7.9,2.2-16.8,7.4-27.9,20.6C224.5,565.2,222.8,596.8,236.6,611.3z M240.1,549
				c9.4-11.2,18.1-17.6,27.2-20.1c2.1-0.6,4.3-1,6.8-1.3c10.1-1.2,20.9,1.2,27.4,5.9l0.1,0.1c7.1,5.2,20.3,14.8,19.9,40.4
				c-0.3,18.1-9.7,31-10.3,31.7c-0.7,0.8-12.9,14.3-26.4,18c-0.3,0.1-0.5,0.1-0.7,0.2c-13.1,3.3-32.1,1.4-46.5-13.6
				c-6.3-6.6-9.6-17.4-9-29.6C229.2,568.6,233.4,557,240.1,549z"/>
		</g>
		<path id="XMLID_7902_" class="st2" d="M290.2,634.4c29.4-11.9,39.1-36.6,40.4-51.9c1.5-17.4-1.2-33.9-13.8-46.8
			c-20-20.6-47.2-24.2-75.9,2.3c-28.7,26.5-24.2,62.2-12.8,78.1C239.5,632,271.4,641.9,290.2,634.4z M246.8,544.1
			c23.3-21.9,45.6-18.8,62-1.6c10.3,10.8,12.6,24.5,11.4,38.9c-1,12.6-8.8,33.1-32.8,42.9c-15.3,6.2-41.4-2.2-50.8-15.4
			C227.2,595.6,223.5,566,246.8,544.1z"/>
		<g id="XMLID_7892_">
			<path id="XMLID_7899_" class="st2" d="M290.2,634.4c29.4-11.9,39.1-36.6,40.4-51.9c1.5-17.4-1.2-33.9-13.8-46.8
				c-20-20.6-47.2-24.2-75.9,2.3c-28.7,26.5-24.2,62.2-12.8,78.1C239.5,632,271.4,641.9,290.2,634.4z M246.8,544.1
				c23.3-21.9,45.6-18.8,62-1.6c10.3,10.8,12.6,24.5,11.4,38.9c-1,12.6-8.8,33.1-32.8,42.9c-15.3,6.2-41.4-2.2-50.8-15.4
				C227.2,595.6,223.5,566,246.8,544.1z"/>
			<path id="XMLID_7896_" class="st3" d="M286.9,635.5c1.1-0.3,2.2-0.7,3.3-1.1c29.4-11.9,39.1-36.6,40.4-51.9
				c1.5-17.4-1.2-33.9-13.8-46.8c-13.2-13.6-29.5-19.8-47.3-14.8c-9.2,2.6-18.8,8.1-28.5,17.1c-28.7,26.5-24.2,62.2-12.8,78.1
				C238.9,631.1,267.9,640.8,286.9,635.5z M220.2,581.1c0.8-11.2,5.2-27.7,21.2-42.5c9.3-8.6,18.8-14.3,28.2-17
				c16.7-4.7,32.8,0.4,46.7,14.6c11,11.3,15.3,26,13.5,46.3c-0.4,5.3-2.3,15.8-9.5,26.9c-7.2,10.9-17.4,19.1-30.4,24.4
				c-1,0.4-2.1,0.8-3.2,1.1c-18.6,5.2-47.3-4.3-58-19.2C222.4,606.9,219.2,594,220.2,581.1z"/>
			<path id="XMLID_7893_" class="st3" d="M236,609.2c4.3,6.1,12.3,11.5,21.9,14.8c9.6,3.3,19.5,3.9,27,1.8l0,0
				c1-0.3,1.9-0.6,2.8-0.9c22.7-9.2,32-28.5,33.2-43.5c1.4-17.2-2.3-29.7-11.6-39.4c-11.7-12.2-25.3-16.6-39.5-12.7
				c-7.9,2.2-15.8,7-23.5,14.3c-13.3,12.5-16.9,26.5-17.6,36.1C228,590.6,230.7,601.7,236,609.2z M246.8,544.1
				c7.9-7.4,15.8-12,23.2-14.1c14.5-4.1,27.9,1.1,38.8,12.5c10.3,10.8,12.6,24.5,11.4,38.9c-1,12.6-8.8,33.1-32.8,42.9
				c-0.9,0.3-1.8,0.7-2.7,0.9c-15.5,4.4-39.2-3.8-48.1-16.3C227.2,595.6,223.5,566,246.8,544.1z"/>
		</g>
	</g>
	<g id="XMLID_7862_">
		<g id="XMLID_7886_">
			<path id="XMLID_7890_" class="st4" d="M500.5,191.6c12.2-9.6,34.2-13.2,49.9-9.7c0,0-3.2-2.8-8-4c-4.8-1.3-8.2-4.7-14.2-3.2
				c-6,1.5-9.3,0.8-15.1,1.8c-5.8,1.1-17.2,5.4-21,9.4c-3.7,4-12.5,12.1-18.5,21.4c-6,9.3-12.5,35.3-10.6,48.3
				c1.9,13,9,35.7,16.5,43.1c7.5,7.4,26.2,17.7,36.5,19.1c10.3,1.3,23.5,1.4,33.2-4.4c0,0-29.3,4.6-45.1-7
				c-15.7-11.6-32.2-33.8-30.5-56.3C475.2,227.3,488.3,201.2,500.5,191.6z"/>
			<path id="XMLID_7887_" class="st5" d="M508.3,307.3c-1.2-0.7-2.4-1.4-3.4-2.1c-16.1-11.9-31.6-33.5-30-55.1
				c1.7-23.3,15.1-48.4,26.4-57.4c11.2-8.9,32.6-13,48.7-9.5l5.4,1.2l-4.2-3.6c-0.1,0-1.4-1.2-3.5-2.3c-1.6-0.9-3.3-1.6-5-2
				c-1.4-0.4-2.7-0.9-4-1.5c-3.1-1.4-6.3-2.8-10.9-1.7c-3.2,0.8-5.6,0.9-8.1,1.1c-2.1,0.1-4.2,0.2-6.9,0.7
				c-6.2,1.1-17.8,5.5-21.7,9.8c-0.8,0.8-1.8,1.8-2.9,3c-4.3,4.4-10.9,11.1-15.7,18.5c-6.1,9.4-12.7,36-10.8,49.3
				c1.9,12.9,9,36,16.9,43.9c3.7,3.6,10.1,8.1,17.2,11.9c7.8,4.2,15.1,6.9,20.1,7.6c9.9,1.3,23.9,1.5,34.1-4.6l6.1-3.7l-7.1,1.1
				C548.7,311.9,523.9,315.6,508.3,307.3z M516,317.6c-5.2-0.7-12.6-3.7-19.6-7.4c-6.8-3.6-13.2-8-16.8-11.6
				c-7.5-7.4-14.6-30.1-16.5-43.1c-1.9-13,4.5-39.1,10.6-48.3c6-9.3,14.8-17.4,18.5-21.4c3.7-4,15.2-8.3,21-9.4
				c5.8-1.1,9.1-0.3,15.1-1.8c6-1.5,9.4,1.9,14.2,3.2c1.8,0.5,3.5,1.2,4.7,1.9c2.1,1.1,3.3,2.2,3.3,2.2c-15.6-3.4-37.7,0.1-49.9,9.7
				c-12.2,9.6-25.2,35.8-26.9,58.4c-1.7,22.6,14.8,44.8,30.5,56.3c1.1,0.8,2.3,1.6,3.6,2.2c16.2,8.7,41.5,4.7,41.5,4.7
				C539.5,319,526.2,319,516,317.6z"/>
		</g>
		<path id="XMLID_7885_" class="st6" d="M551.7,187.5c-11.1-3.6-19.2-3-26.3,0.5c0,0,10.9,1.1,18.8,5.9c7.9,4.8,27.7,22.7,28.9,38
			c1.2,15.3,2.8,30.7-4.3,45.4c-7.1,14.7-24.6,26.4-36.4,29.8c0,0,28.5,1.8,41.2-18.8c12.6-20.6,19.6-52.6,9.3-68.3
			C572.5,204.2,562.8,191.1,551.7,187.5z"/>
		<path id="XMLID_7884_" class="st7" d="M544.3,192.4c-5.4-2.3-19-6-19-6l-3.4,0.8c0,0,14.9,3.3,20,5.7c5,2.4,13.9,10.6,19.2,16.4
			c5.4,5.8,10.8,14.2,11.3,18.5c0.9,9.2,1.5,11.4,0.2,31.1c-1.1,16.7-10.9,29.1-20.3,37.3c-9.4,8.2-22.9,11-22.9,11l4.2,0.6
			c6.3-0.9,23.1-9,30.3-17.4c7.1-8.3,10.8-17.2,13.4-32.8c2.5-15.6,0.5-20.6-4.4-35.7C568,206.9,549.7,194.7,544.3,192.4z"/>
		<g id="XMLID_7874_">
			<path id="XMLID_7881_" class="st8" d="M588.1,219.4c-1.6-4.3-1.8-3.9-5.1-7.5c-3.3-3.6-5.6-10.5-7.7-13.3c-2.2-2.7-3.5-2.2-6.4-6
				c-2.9-3.9-2.3-2-7.2-4.6c-4.9-2.6-7.8-5.5-13.6-6.8c-5.8-1.3-8.7-1.8-14-4.1c-5.3-2.3-5.5-0.1-9.3,0.8c-3.8,0.8-5.9-1.1-10.7,0.5
				c-4.8,1.6-4.3,3.7-9.6,4.8c-5.3,1.1-9.3,7.5-9.3,7.5c-3,0.7-9.5,11.3-12.7,16.9c-3.3,5.6-3.1,8.2-5.5,11.7
				c-2.4,3.4-3.9,12-5.5,16.1c-1.7,4.1,0.4,7-1,11.5c-1.4,4.5,0.8,12.2,1,17c0.3,4.8,0.5,7.8,3.6,10.8c3.1,3,1.3,8.3,3.7,11.1
				c2.4,2.8,3.4,5.2,5.2,9.3c1.7,4.1,4.4,3.4,6.8,6.8c2.4,3.4,6,5.8,10.2,7.3c4.2,1.5,6.4,4.2,9.9,5.3c3.6,1.1,6.1,1.2,10,1.2
				c3.9,0,9.3,1.3,13.4,0.9c4.1-0.4,10-2.3,14.7-3.2c4.7-0.9,9.8-5.7,14.3-7.7c4.5-2,7.7-7.1,10.4-10.1c2.7-3,6.8-7.8,9.3-13
				c2.5-5.2,4.5-9.8,5.5-13.7c1-3.9,3.5-11.9,2.8-17.3c-0.8-5.4,0.5-3.4,0.9-8.4c0.4-5,0-7.8-1.6-12.1
				C589.1,226.7,589.7,223.6,588.1,219.4z M581.3,259.8c-3.9,13-9.9,27.6-20.6,36.4c-10.8,8.8-31.9,13.2-42.1,10.3
				c-10.2-2.9-27.9-15.5-32.7-29c-4.8-13.5-12-28.6-2.8-52.1c9.2-23.5,28.2-33.9,28.2-33.9s14.3-3.8,20.2-4c5.9-0.2,7.6,2.8,13,3.6
				c5.3,0.8,12.1,2.8,17.2,7.4c5.1,4.6,16.9,20,18.6,26.7C581.8,231.6,585.1,246.7,581.3,259.8z"/>
			<path id="XMLID_7878_" class="st0" d="M590.1,225.1c-0.3-1.8-0.5-3.7-1.4-6c-1.4-3.5-1.8-4-3.7-6c-0.4-0.5-1-1-1.6-1.7
				c-1.8-2-3.4-5.1-4.7-7.9c-1-2.1-2-4.1-3-5.3c-1-1.3-1.9-1.9-2.8-2.5c-1-0.7-2.1-1.5-3.6-3.5c-1.3-1.7-1.9-2.4-2.7-2.8
				c-0.4-0.2-0.8-0.3-1.2-0.5c-0.8-0.3-1.8-0.6-3.5-1.5c-1.4-0.8-2.7-1.6-4-2.4c-1.2-0.8-2.3-1.5-3.6-2.1c-2.1-1.1-4-1.9-6.2-2.3
				l-1.8-0.4c-4.6-1-7.4-1.6-12.1-3.7c-3.9-1.7-5.4-1-7.1-0.2c-0.8,0.4-1.5,0.7-2.6,1c-1.5,0.3-2.8,0.2-4.1,0
				c-1.8-0.2-3.8-0.4-6.7,0.5c-2.3,0.8-3.5,1.7-4.5,2.4c-1.2,0.9-2.3,1.7-5,2.3c-5,1-8.8,6.5-9.6,7.6c-2.5,0.9-6.8,6.7-12.9,17.1
				c-1.7,2.9-2.5,5-3.2,6.8c-0.6,1.7-1.2,3.2-2.3,4.8c-1.5,2.2-2.7,6.3-3.7,10.2c-0.6,2.3-1.2,4.5-1.9,6c-0.9,2.3-0.8,4.2-0.6,6.1
				c0.1,1.7,0.3,3.4-0.4,5.5c-1,3.2-0.3,7.8,0.4,11.9c0.3,1.9,0.6,3.8,0.7,5.3c0.3,4.7,0.4,8.1,3.8,11.3c1.5,1.4,1.7,3.5,2,5.6
				c0.2,1.9,0.4,4,1.7,5.4c2.3,2.7,3.3,5,5.1,9.1c1,2.5,2.5,3.4,3.8,4.2c1.1,0.7,2.1,1.3,3,2.7c1.7,2.4,4,4.4,6.9,6
				c1.1,0.6,2.3,1.1,3.6,1.6c1.8,0.6,3.5,1.7,5.1,2.8c0.9,0.6,1.7,1.1,2.6,1.6l0,0c0.8,0.4,1.5,0.7,2.2,1c3.6,1.1,6.3,1.2,10.3,1.3
				c1.6,0,3.4,0.2,5.4,0.4c2.8,0.3,5.7,0.7,8.1,0.4c2.5-0.2,5.7-1.1,8.8-1.8c2-0.5,4.1-1,6-1.4c3-0.6,6.1-2.6,9-4.5
				c1.9-1.3,3.7-2.4,5.4-3.2c3.6-1.6,6.5-5.2,8.7-8c0.7-0.8,1.3-1.6,1.9-2.3c2.2-2.5,6.7-7.6,9.4-13.2c2.9-5.9,4.6-10.3,5.6-13.8
				c0.1-0.4,0.2-0.9,0.4-1.4c1.2-4.2,3.1-11.3,2.4-16.2c-0.4-2.9-0.2-3.5,0.1-4.4c0.3-0.7,0.6-1.7,0.8-3.9c0.4-5.2,0-8.1-1.7-12.4
				C590.6,228.6,590.4,226.9,590.1,225.1z M591.7,243c-0.1,2-0.4,2.9-0.7,3.5c-0.4,1.1-0.6,1.9-0.2,5c0.7,4.7-1.2,11.5-2.4,15.6
				c-0.1,0.5-0.3,1-0.4,1.4c-0.9,3.5-2.7,7.8-5.5,13.6c-2.6,5.4-7.1,10.4-9.2,12.8c-0.6,0.7-1.2,1.5-1.9,2.3
				c-2.3,2.9-4.9,6.1-8.2,7.6c-1.8,0.8-3.7,2-5.6,3.3c-2.9,1.9-5.8,3.8-8.5,4.3c-1.9,0.4-4,0.9-6.1,1.4c-3,0.8-6.2,1.6-8.6,1.8
				c-2.3,0.2-5.1-0.1-7.8-0.4c-2-0.2-3.9-0.5-5.5-0.5c-3.8,0-6.3-0.1-9.8-1.2c-0.6-0.2-1.3-0.5-2-0.9l0,0c-0.9-0.5-1.7-1-2.5-1.6
				c-0.9-0.6-1.8-1.2-2.9-1.8c-0.8-0.5-1.7-0.8-2.5-1.1c-1.2-0.4-2.3-0.9-3.4-1.5c-2.7-1.4-4.9-3.3-6.4-5.5c-1.1-1.6-2.3-2.4-3.4-3
				c-1.3-0.8-2.4-1.5-3.3-3.6c-1.8-4.2-2.9-6.6-5.3-9.5c-1-1.2-1.2-2.9-1.4-4.7c-0.3-2.2-0.5-4.7-2.4-6.5c-2.8-2.7-3.1-5.3-3.4-10.3
				c-0.1-1.6-0.4-3.5-0.7-5.4c-0.6-4-1.3-8.4-0.4-11.3c0.7-2.3,0.5-4.2,0.4-6c-0.1-1.8-0.3-3.5,0.5-5.5c0.7-1.6,1.3-3.8,1.9-6.2
				c1-3.6,2.1-7.8,3.5-9.8c1.2-1.8,1.8-3.3,2.5-5.1c0.7-1.8,1.4-3.8,3.1-6.6c8.4-14.3,11.4-16.4,12.3-16.6l0.3-0.1l0.2-0.2
				c0-0.1,3.9-6.2,8.8-7.2c3-0.6,4.3-1.6,5.6-2.5c1-0.8,2-1.5,4.1-2.2c2.6-0.9,4.2-0.7,6-0.4c1.4,0.2,2.8,0.3,4.6,0
				c1.3-0.3,2.2-0.7,2.9-1.1c1.6-0.7,2.6-1.2,5.9,0.3c4.8,2.1,7.6,2.7,12.3,3.8l1.8,0.4c2.1,0.5,3.9,1.2,5.9,2.2
				c1.2,0.6,2.3,1.3,3.5,2.1c1.3,0.8,2.6,1.6,4.1,2.4c1.8,1,2.9,1.4,3.7,1.6c0.4,0.1,0.7,0.2,1,0.4c0.5,0.3,1,0.7,2.3,2.4
				c1.7,2.3,2.9,3.1,3.9,3.8c0.8,0.6,1.6,1.1,2.5,2.2c0.9,1.1,1.8,3,2.8,5.1c1.4,2.9,3,6.1,4.9,8.2c0.7,0.7,1.2,1.3,1.6,1.7
				c1.8,1.9,2.1,2.2,3.4,5.5c0.8,2.1,1,3.8,1.3,5.6c0.3,1.8,0.5,3.7,1.4,5.9C591.7,235.3,592,237.9,591.7,243z"/>
			<path id="XMLID_7875_" class="st0" d="M562,197.8c-1.5-1.4-3.3-2.6-5.3-3.7c-4.5-2.4-9.2-3.5-12.3-3.9c-2.2-0.3-3.8-1.1-5.3-1.8
				c-2.1-1-4.3-2-7.8-1.8c-5.9,0.2-19.7,3.9-20.3,4.1l-0.2,0.1c-0.2,0.1-19.3,10.8-28.5,34.3c-8.5,21.6-3.2,36.1,1.5,48.9
				c0.5,1.2,0.9,2.5,1.3,3.7c3.7,10.7,15.5,20.9,25.4,26.2c2.8,1.5,5.4,2.6,7.7,3.2c10.1,2.9,31.4-1.2,42.7-10.4
				c8.9-7.4,15.6-19,20.8-36.8c2.8-9.3,2.4-21.1-1.1-35.2C579.1,217.9,567,202.2,562,197.8z M580.6,259.6
				c-5.2,17.4-11.7,28.9-20.4,36.1c-10.6,8.7-31.7,12.9-41.4,10.2c-2.2-0.6-4.7-1.7-7.4-3.1c-9.7-5.2-21.2-15.1-24.8-25.5
				c-0.4-1.2-0.9-2.5-1.3-3.7c-4.6-12.6-9.8-26.8-1.5-47.9c8.7-22.2,26.5-32.8,27.8-33.5c1.2-0.3,14.4-3.8,19.9-4
				c3.2-0.1,5.1,0.8,7.1,1.7c1.6,0.7,3.3,1.5,5.7,1.9c3,0.4,7.5,1.4,11.8,3.8c1.9,1,3.5,2.2,5,3.5c5.3,4.7,16.8,20.1,18.3,26.3
				C582.9,239,583.3,250.5,580.6,259.6z"/>
		</g>
		<path id="XMLID_7873_" class="st9" d="M534.5,174.1c0,0-3.9-0.1-9.3,1c-5.4,1.1-10.9-1.1-17.6,2.5c-6.7,3.6-12.3,2.9-17.2,9
			c-4.9,6.1-17.8,18.4-21.7,31.3c-2.7,8.9-7.9,27.1-5,42.8c2.5,13.7,10.5,31.5,14.7,36.9c4.2,5.4,14.5,11.7,20.2,14.4
			c5.7,2.7,7.1,4.2,18.5,6c11.2,1.7,20.2,1.2,27.9-2.7c-1.1,0.5-4.7,2-10.8,2.7c-8.2,0.9-18.9,0-26.2-3.1
			c-7.9-3.4-16.5-7.3-24.4-17.2c-2.7-3.4-7.7-8.5-8.5-14.2c-0.8-5.9-5-11-6.3-17.2c-1.8-8.5-4-14.4-3.1-21.5
			c1.9-15.3,5.6-34.4,27.1-54.1c3.3-3,5.4-5.6,8.8-7.6c2.3-1.3,4,0,8.1-3c2.9-2.1,4.7-2.4,8-3c2-0.3,4.2,0.3,6.1,0.1
			c1.8-0.1,5.5-1.5,7.2-1.4c2.2,0.1,2.6-0.2,4.5,0.8c3.1,1.7,4.9,2.5,6.1,2.7c2.6,0.5,7.3,1.5,6.3,0.3L534.5,174.1z"/>
		<path id="XMLID_7872_" class="st9" d="M545,315.3c0.3-0.1,0.4-0.2,0.4-0.2C545.3,315.2,545.1,315.2,545,315.3z"/>
		<g id="XMLID_7868_">
			<path id="XMLID_7871_" class="st0" d="M505.7,211.4c-3.3-1.9-7-3.3-10.7-4.3c-1.6,2.6-3.2,5.1-4.9,7.6c3.7,0.9,7.5,2.2,10.8,4.1
				c13,7.4,24.3,22.8,24.2,42.4c-0.1,19.6-22.7,40.6-44.6,42.9c-21.9,2.3-31.9-2.5-39.5-8.3c-7.6-5.8-14.3-14.8-15.8-23.6
				c-1.6-8.8-4.5-25,13.7-43.3c13.3-13.4,29.6-15.8,29.6-15.8s0.3,0,0.8,0c0.5-1,1-2,1.4-2.8c0.9-1.9,1.8-3.8,2.7-5.7
				c-3.6,0-6,0.2-6,0.2s-19.3,2.9-34.9,18.7c-21.5,21.7-18,40.8-16.2,51.2c1.9,10.4,9.8,21,18.7,27.9c8.9,6.8,20.8,12.4,46.6,9.8
				c25.8-2.7,52.6-27.6,52.7-50.7C534.4,238.3,521,220.1,505.7,211.4z"/>
			<path id="XMLID_7870_" class="st1" d="M506.3,210.2c-0.3-0.2-0.6-0.3-0.8-0.5c-3.1-1.7-6.4-2.9-9.8-3.9c-0.2,0.4-0.5,0.8-0.7,1.3
				c3.4,0.9,6.8,2.2,9.9,3.8c0.3,0.1,0.5,0.3,0.8,0.4c15.3,8.7,28.7,26.9,28.6,50c-0.1,23.1-26.8,48-52.7,50.7
				c-19.8,2-31.4-0.8-39.7-5.2c-2.6-1.4-4.8-2.9-6.9-4.5c-8.9-6.8-16.8-17.4-18.7-27.9c-1.8-10.4-5.3-29.5,16.2-51.2
				c15.7-15.8,34.9-18.7,34.9-18.7s2.7-0.2,6.9-0.2c0.3-0.5,0.5-0.9,0.8-1.4c-4.4-0.1-7.4,0.2-7.8,0.2l0,0h0
				c-0.8,0.1-19.9,3.1-35.7,19.1c-22,22.1-18.5,41.7-16.6,52.3l0,0.1c1.8,10,9.1,21,19.2,28.7c2.4,1.9,4.8,3.4,7.1,4.6
				c10.2,5.5,23.1,7.2,40.5,5.4c12.7-1.3,26.1-7.9,36.8-18.1c10.8-10.3,17.1-22.7,17.1-34c0-11-3-21.8-8.7-31.1
				C521.8,221.8,514.6,214.9,506.3,210.2z"/>
			<path id="XMLID_7869_" class="st1" d="M500.9,218.8c-0.2-0.1-0.5-0.3-0.7-0.4c-3.2-1.7-7.5-2.9-11-3.7c-0.3,0.4-0.7,1-1,1.5
				c3.6,0.8,8.1,1.7,11.3,3.5c0.2,0.1,0.4,0.2,0.7,0.4c11.4,6.5,23.6,20.8,23.5,41.1c0,8.9-5,18.7-13.7,27
				c-8.6,8.2-19.4,13.5-29.7,14.6c-14.2,1.5-24.6,0.1-32.8-4.3c-1.9-1-3.7-2.2-5.7-3.7c-7.9-6.1-13.9-15-15.3-22.7l0-0.1
				c-1.5-8.5-4.3-24.2,13.4-42c12.2-12.3,27.2-15.1,28.7-15.4c0.2-0.5,0.5-1,0.8-1.5c-0.6,0-0.9,0.1-0.9,0.1s-16.3,2.5-29.6,15.8
				c-18.2,18.4-15.3,34.5-13.7,43.3c1.6,8.8,8.3,17.8,15.8,23.6c1.8,1.4,3.7,2.7,5.9,3.8c7.1,3.8,16.9,6.2,33.6,4.4
				c21.9-2.3,44.5-23.3,44.6-42.9C525.2,241.5,513.9,226.2,500.9,218.8z"/>
		</g>
		<path id="XMLID_7867_" class="st2" d="M503,208.6c-2.6-1.1-5.2-1.9-7.8-2.6c-1.7,3.1-3.5,6.1-5.6,9c2.7,0.6,5.5,1.5,8.4,2.6
			c15,6,27.7,29.6,25.3,45.3c-2.3,15.7-19.8,39.1-51,38.7c-31.3-0.4-44.9-17.6-44.8-40.9c0-14.6,7.7-25.8,18.3-35.1
			c5.1-4.5,12-9.2,22.3-11.1c1.8-3.6,3.7-6.9,5.6-10.5c-15.9,0.8-27.1,7.3-34.4,13.7c-12.8,11.2-22.1,24.7-22.1,42.3
			c0.1,28.1,16.9,49,55,49.8c38.2,0.7,59.2-27.4,62-46.3C537.1,244.6,521.4,216,503,208.6z"/>
		<g id="XMLID_7863_">
			<path id="XMLID_7866_" class="st2" d="M503,208.6c-2.6-1.1-5.2-1.9-7.8-2.6c-2.2,2.9-4.2,6-6.2,9c3,0.6,5.9,1.4,9.1,2.6
				c15,6,27.7,29.6,25.3,45.3c-2.3,15.7-19.8,39.1-51,38.7c-31.3-0.4-44.9-17.6-44.8-40.9c0-14.6,7.7-25.8,18.3-35.1
				c4.8-4.3,12.4-8.8,21.8-10.8c1.5-2.7,2.9-5.4,4.5-8c0.5-1,1-2,1.4-3c-14.9,2-27.1,7.7-34.2,13.9c-12.8,11.2-22.1,24.7-22.1,42.3
				c0.1,28.1,16.9,49,55,49.8c38.2,0.7,59.2-27.4,62-46.3C537.1,244.6,521.4,216,503,208.6z"/>
			<path id="XMLID_7865_" class="st3" d="M506.1,210c-1-0.5-2-1-3.1-1.4c-2.6-1.1-5.2-1.9-7.8-2.6c-0.2,0.2-0.3,0.4-0.4,0.6
				c2.7,0.7,5.3,1.6,8,2.7c1,0.4,2,0.9,3,1.4c16.6,8.9,30.4,35.1,27.9,52.8c-1.5,10.4-8,21.7-17.5,30.1c-8.2,7.3-22.4,16-43.8,15.6
				c-12.4-0.2-23-2.7-31.4-7.2c-14.9-8-22.9-22.5-23-41.9c-0.1-15.4,6.9-28.7,21.8-41.8c3.9-3.4,10.8-8,24.9-12.5
				c2.7-0.9,6.1-1,8.9-1.2c0.1-0.2,0.4-0.7,0.5-0.9c-17.4,1.8-27.8,7.9-34.9,14.1c-12.8,11.2-22.1,24.7-22.1,42.3
				c0.1,18.5,7.4,34,23.3,42.5c8.2,4.4,18.7,7,31.7,7.3c38.2,0.7,59.2-27.4,62-46.3C536.9,245.7,523.1,219.2,506.1,210z"/>
			<path id="XMLID_7864_" class="st3" d="M500.9,218.2L500.9,218.2c-0.9-0.5-1.7-0.9-2.6-1.2c-3.1-1.2-6.1-2.1-9-2.8
				c-0.1,0.2-0.3,0.9-0.5,1.1c3,0.6,6.1,1.1,9.2,2.3c0.8,0.3,1.7,0.7,2.5,1.2c13.9,7.5,25,29.3,22.8,44.1
				c-2.3,15.7-19.8,39.1-51,38.7c-10.6-0.1-19.2-2.2-25.9-5.8c-13-7-18.9-19.7-18.9-35c0-14.6,7.7-25.8,18.3-35.1
				c4.8-4.3,13.4-8.9,22.9-11c0.1-0.3-0.3-0.6-0.1-0.9c-9.3,1.9-17.6,6.4-23.2,11.3c-12.6,11.2-18.5,22.5-18.6,35.7
				c0,16.5,6.6,28.9,19.2,35.7c7,3.8,15.9,5.8,26.3,5.9c17.9,0.2,29.9-7.2,36.8-13.5c8-7.3,13.6-16.9,14.9-25.8
				c1.1-7.2-0.9-16.4-5.4-25.2C514.1,228.9,507.7,221.8,500.9,218.2z"/>
		</g>
	</g>
</g>
</svg>
