<?xml version="1.0" encoding="utf-8"?>
<!-- Generator: Adobe Illustrator 19.0.0, SVG Export Plug-In . SVG Version: 6.00 Build 0)  -->
<svg version="1.1" id="Layer_1" xmlns="http://www.w3.org/2000/svg" xmlns:xlink="http://www.w3.org/1999/xlink" x="0px" y="0px"
	 viewBox="0 0 1000 990.3" style="enable-background:new 0 0 1000 990.3;" xml:space="preserve">
<style type="text/css">
	.st0{fill:#BB3C35;}
	.st1{fill:#91362A;}
	.st2{clip-path:url(#XMLID_2_);}
	.st3{fill:#D3BBB7;}
	.st4{fill:#B89E9B;}
	.st5{fill:#9A3735;}
	.st6{fill:#E0D3D1;}
	.st7{opacity:0.22;fill:#DB8F8D;}
	.st8{opacity:0.65;}
	.st9{opacity:0.37;fill:#DB8F8D;}
	.st10{opacity:0.57;fill:#F7E1E4;}
	.st11{clip-path:url(#XMLID_3_);}
	.st12{clip-path:url(#XMLID_4_);}
	.st13{clip-path:url(#XMLID_5_);}
	.st14{clip-path:url(#XMLID_6_);}
	.st15{clip-path:url(#XMLID_7_);}
</style>
<g id="XMLID_11050_">
	<g id="XMLID_11196_">
		<g id="XMLID_11201_">
			<path id="XMLID_11224_" class="st0" d="M323.5,463.1c-7.6,4.7-15.9,8-24.7,9.8c-5.5,1.2-12.3,4.6-19.2,13.4
				c-15.7,19.8-21,27.2-40,33.6s-16.8,42.1-3.7,56.3c13,14.2,32.5,40.9,50.9,36.4s32.2-11.7,32.2-39.7c0-28,14.7-49.8,28.7-57.8
				c14.1-8,44.4-25.7,32.7-48.4C371,448.3,343.8,450.6,323.5,463.1z"/>
			<g id="XMLID_11218_">
				<path id="XMLID_243_" class="st0" d="M323.5,463.1c-7.6,4.7-15.9,8-24.7,9.8c-5.5,1.2-12.3,4.6-19.2,13.4
					c-15.7,19.8-21,27.2-40,33.6s-16.8,42.1-3.7,56.3c13,14.2,32.5,40.9,50.9,36.4s32.2-11.7,32.2-39.7c0-28,14.7-49.8,28.7-57.8
					c14.1-8,44.4-25.7,32.7-48.4C371,448.3,343.8,450.6,323.5,463.1z"/>
				<path id="XMLID_240_" class="st1" d="M323.5,463.1c0,0-0.4,0.2-1.2,0.7c-0.8,0.5-2,1.2-3.5,2c-3.1,1.6-7.9,3.9-14.3,5.8
					c-1.6,0.5-3.3,0.9-5.1,1.3c-1.8,0.4-3.6,0.9-5.5,1.7c-3.7,1.6-7.2,4.2-10.4,7.5c-1.6,1.6-3.1,3.5-4.6,5.4
					c-1.5,1.9-3.1,3.9-4.7,6c-3.2,4.1-6.6,8.4-10.6,12.5c-2,2-4.1,4-6.6,5.8c-2.4,1.8-5,3.4-7.8,4.8c-2.8,1.3-5.7,2.6-8.7,3.6
					l-0.6,0.2l-0.3,0.1l-0.3,0.1l-1.1,0.4c-0.4,0.1-0.7,0.3-1,0.5c-0.3,0.2-0.7,0.3-1,0.6c-1.3,0.8-2.5,1.9-3.5,3
					c-2.1,2.4-3.6,5.3-4.6,8.4c-1,3.1-1.5,6.4-1.7,9.8c-0.3,6.7,0.8,13.7,3.2,20.2c1.2,3.3,2.8,6.4,4.8,9.3c1,1.4,2.2,2.7,3.4,4
					c1.2,1.4,2.4,2.7,3.7,4.1c4.9,5.5,9.7,11.1,15,16.2c2.6,2.6,5.4,5,8.4,7.2c2.9,2.2,6,4.2,9.4,5.6c3.3,1.4,6.9,2,10.3,1.6
					c1.6-0.3,3.5-0.8,5.3-1.3l2.7-0.8l2.6-0.9c3.5-1.3,6.8-2.9,9.7-5c2.9-2.1,5.4-4.8,7.3-7.8c1.9-3.1,3-6.6,3.8-10.1l0.5-2.7
					c0.2-0.9,0.2-1.8,0.3-2.7c0.1-0.9,0.2-1.8,0.3-2.7l0.1-2.8c0.1-1.9,0.1-3.7,0.2-5.6l0.1-1.4l0.1-1.4l0.3-2.8
					c0.2-1.9,0.6-3.7,0.9-5.6c0.4-1.8,0.8-3.7,1.3-5.4c2-7.2,5-14,8.9-20.1c4-6,8.7-11.5,14.4-15.6c0.4-0.3,0.7-0.5,1.1-0.8l1.1-0.7
					c0.7-0.5,1.5-0.9,2.2-1.3c1.5-0.8,2.9-1.6,4.4-2.5c2.9-1.7,5.7-3.4,8.4-5.2c5.4-3.6,10.3-7.6,14.3-12.2c2-2.3,3.7-4.7,5-7.4
					c1.3-2.6,2.2-5.4,2.4-8.2c0.3-2.8-0.1-5.6-0.9-8.1c-0.2-0.6-0.4-1.3-0.7-1.9c-0.3-0.6-0.5-1.2-0.8-1.8c-0.3-0.6-0.6-1.2-1-1.7
					c-0.4-0.5-0.7-1.1-1.1-1.6c-3.1-4.2-7.4-6.9-11.8-8.3c-4.4-1.4-8.8-1.8-12.8-1.6c-4,0.2-7.6,0.8-10.9,1.6
					c-6.5,1.6-11.2,3.8-14.4,5.4c-1.6,0.8-2.8,1.5-3.6,1.9C323.9,462.8,323.5,463.1,323.5,463.1z M323.5,463.1c0,0,0.4-0.2,1.2-0.7
					c0.8-0.5,2-1.1,3.6-2c3.2-1.6,7.9-3.8,14.4-5.5c3.2-0.8,6.9-1.5,10.9-1.6c4-0.2,8.4,0.1,12.8,1.5c4.4,1.4,8.9,4.1,12,8.3
					c0.4,0.5,0.8,1.1,1.1,1.6c0.3,0.6,0.7,1.1,1,1.7c0.3,0.6,0.6,1.2,0.9,1.8c0.3,0.6,0.5,1.3,0.7,1.9c0.9,2.6,1.3,5.5,1.1,8.3
					c-0.2,2.9-1,5.8-2.3,8.5c-1.3,2.7-3,5.3-5,7.6c-4,4.8-9,8.9-14.3,12.7c-2.7,1.9-5.5,3.7-8.4,5.4c-1.4,0.9-2.9,1.7-4.4,2.6
					c-0.7,0.4-1.4,0.9-2.1,1.3l-1.1,0.7c-0.3,0.2-0.7,0.5-1,0.7c-5.4,4-9.9,9.4-13.6,15.3c-3.6,6-6.4,12.6-8.2,19.6
					c-0.4,1.7-0.8,3.5-1.2,5.3c-0.3,1.8-0.6,3.6-0.8,5.4l-0.2,2.7l-0.1,1.4l0,1.4c0,1.9-0.1,3.7-0.1,5.6l-0.1,2.9
					c0,1-0.2,1.9-0.2,2.9c-0.1,1-0.1,1.9-0.3,2.9l-0.5,2.9c-0.9,3.8-2.1,7.6-4.1,11c-2,3.4-4.8,6.4-8.1,8.7c-3.2,2.3-6.8,4-10.4,5.4
					l-2.8,0.9l-2.8,0.8c-0.9,0.3-1.8,0.5-2.8,0.7c-0.9,0.3-2,0.5-2.9,0.6c-4.1,0.5-8.2-0.3-11.9-1.8c-7.3-3.1-13.2-8.3-18.6-13.5
					c-5.4-5.3-10.2-11-15-16.5c-1.2-1.4-2.4-2.8-3.6-4.1c-1.2-1.3-2.5-2.8-3.5-4.3c-2.1-3.1-3.7-6.4-4.9-9.9c-2.4-6.9-3.3-14-2.9-21
					c0.2-3.5,0.8-6.9,1.9-10.2c1.1-3.2,2.7-6.3,5-8.8c1.2-1.2,2.5-2.3,3.9-3.2c0.3-0.2,0.7-0.4,1.1-0.6c0.4-0.2,0.8-0.4,1.1-0.5
					l1.1-0.4l0.3-0.1l0.3-0.1l0.6-0.2c3-1,5.9-2.1,8.6-3.4c2.7-1.3,5.3-2.8,7.7-4.5c2.4-1.7,4.5-3.6,6.6-5.6c4-4,7.5-8.2,10.7-12.3
					c1.6-2,3.2-4,4.7-5.9c1.5-1.9,3.1-3.8,4.7-5.4c3.3-3.3,6.9-5.8,10.6-7.4c1.8-0.8,3.7-1.4,5.5-1.7c1.8-0.4,3.5-0.8,5.1-1.3
					c6.4-1.9,11.1-4.1,14.3-5.7c1.6-0.8,2.8-1.5,3.6-2C323.1,463.3,323.5,463.1,323.5,463.1z"/>
			</g>
			<g id="XMLID_11202_">
				<defs>
					<path id="XMLID_11203_" d="M323.5,463.1c-7.6,4.7-15.9,8-24.7,9.8c-5.5,1.2-12.3,4.6-19.2,13.4c-15.7,19.8-21,27.2-40,33.6
						s-16.8,42.1-3.7,56.3c13,14.2,32.5,40.9,50.9,36.4s32.2-11.7,32.2-39.7c0-28,14.7-49.8,28.7-57.8c14.1-8,44.4-25.7,32.7-48.4
						C371,448.3,343.8,450.6,323.5,463.1z"/>
				</defs>
				<clipPath id="XMLID_2_">
					<use xlink:href="#XMLID_11203_"  style="overflow:visible;"/>
				</clipPath>
				<g id="XMLID_11204_" class="st2">
					<path id="XMLID_11217_" class="st3" d="M352.6,491c-6.4-0.7-13.5,1.1-20,1.4c-6.6,0.3-12.5,2.5-18.4,5.1
						c-6.8,3.1-12.8,6.7-19,10.8c-4.4,3-9.4,5.2-13.8,8.2c-3.3,2.2-7.2,4.9-10.7,6.3c0.3-0.4,0.5-0.7,0.7-1.1
						c-11,8.6-21.5,16.5-27.9,29c-3.8,7.4-12.6,11.8-10.6,20.4c0.5,2.2,0.5-0.1,1.8,2.7c1.2,2.4,0.5-2.1,0.3,1c0.1,0,2.7-14.8,0,0
						c2-6.3-1.1,2.2,1-4.2c2.4-7.3,6.3-13.3,10.2-19.6c12.2-20,34.7-29.7,53.7-41.3c4.7-2.9,7.4-7.5,12-10.1
						c4.8-2.7,10.8-4.5,16.4-4.5c5.8,0,12.3,1.2,17.9-0.7c1.8-0.6,3.2-1.9,5-2.5c2.2-0.7,4.2-0.3,6.3-1.3c-1.4-1-6-0.5-7.9-0.3"/>
					<path id="XMLID_11216_" class="st3" d="M353.4,455.1c-2.2-0.2-4.4-0.3-6.6-0.1c0.1,0.4,0.1,1.1,0.3,1.6
						c-1.4,1.3-4.9,1.1-6.8,1.7c-3,0.9-6.4,3.1-9.5,3.3c0.2-0.6-0.1-1.8,0-2.2c-8.1-2.6-16.7,0.1-24.1,3.1
						c6.3,0.1,14.1-3.3,20.2-1.6c-0.5,2.8,1.3,2,3,2.2c3.3,0.5,2.9-0.1,5.8-1.7c2.3-1.3,12.9-1.5,11.9-4.4c0.4-0.4,0.6-0.9,1-1.4
						c-0.4-1-1-1.1-2.1-1.1"/>
					<path id="XMLID_11215_" class="st3" d="M315.2,476.8c-2.5,1.1-5.4,2.2-7.8,3.3c0.3,0.1,0.8,0.3,1.1,0.4
						c-4.1,3.8-10.2,5.5-15.1,7.9c-4.9,2.3-8.4,6.9-13,9.3c-0.1-0.1-0.1-0.3-0.1-0.4c-2.3,0.3-4.7,1.1-6.8,2c-1.7-1.2-2.2-3.5-4.4-3
						c-0.3-2.9,4.3-8.9,6.6-11c-4.7,4.4-6.1,10.3-9.1,15.7c2.1,0.2,3.9-2.1,5.7,0.1c3.3-2,7.2-2.1,10.5-4.2
						c4.1-2.6,8.3-5.1,12.3-7.6c6.9-4.3,14.2-7.4,20.7-12.4"/>
					<path id="XMLID_11214_" class="st4" d="M255.5,479c-1.7,3.6-9.1,9.1-1.5,11.2c-1.1,4-3.2,7.6-6.2,10.3c0.4,0.2,0.9,0.8,1.6,1
						c0.1,4-3.6,10.7-5.3,14c3-3.8,5.4-7.9,8.7-11.5c-0.8,0.8-1.7,1.7-2.7,2.4c-0.3-3.6-1.2-5.3,0.6-8.2c1.1-1.8,2.9-3.2,3.8-5.3
						c0.6-1.4,0.7-3.2,1.4-4.6c-8,1.2,1.2-10.5,2-12.3c-0.1,0.7-0.3,1.3-0.5,2"/>
					<g id="XMLID_11209_">
						<path id="XMLID_11213_" class="st5" d="M384.5,448c-1-0.8-10.9,3.4-13.4,3.8c-7.9,1.3-15.7,1.7-23.6,2.7
							c-19.7,2.4-42.7,3.7-59.3,14.9c0.9-0.1,2,0.4,3,0.4c0,7.4-9.6,9.2-13.8,13.7c-4.9,5.3-8.7,12-13.8,17.2
							c-2.8,2.8-3.8,2.6-3.9-1.6c-2.4,4.8-8.3,8.8-11.7,13.1c-4.3,5.3-9.1,10.3-13.6,15.6c-3.5,4.2-6.9,8.3-8.7,13.6
							c-1.8,5-3.1,5.4-4,10.6c2.6-7.7,3.1-10.1,7.1-17.2c6.7-11.9,16.2-22.1,27.4-29.7c-6.3,7.7-14,15.8-18.5,24.9
							c5.3-4.3,8.9-11.9,14-16.8c2.9-2.8,5.9-5.3,9.4-7.2c6-3.4,13.5-6.5,18.4-10.8c-3.6,3.1-8.8,4.5-12.9,7c-2.4,1.5-5,3.6-7.5,4.3
							c5.3-3.8,9.4-10.3,14.1-14.8c4-3.8,7.7-7.3,11.2-11.6c3.2-4,7.9-7.8,12.4-10.1c3.8-2,10.3-5.3,14.5-5.9
							c-2.3-0.2-4.5,1.2-6.8,0.3c3.8-3.8,14.1-4.1,19.3-5.1c7.6-1.4,14.9-3,22.7-3.7c11.8-1,20.9-0.8,32.6-1.8
							c-3.2,1.9,0.2,4.3-4.2,5.1c-11.4,2.1-22.7,5-33.6,8.9c5.8-0.1,11.3-1.9,16.8-3c-8.8,2.2-17.8,4.5-26.5,6.4
							c4.4-4.2,9.1-5.7,14.2-8.5c-7.7,2.1-16,3.9-22.9,8.2c2.5-0.3,5.3-1.8,6.3,1.5c-4.9,5-13.8,6.4-19.8,9.5
							c-9.8,5.1-20.5,9.2-29.1,16.2c0.7-0.5,1.5-0.8,2.3-1.2c0.2,0.2,0.4,0.4,0.6,0.4c-4.8,3.4-10.7,5.8-15.1,9.6
							c-1.5,1.3-4,3.3-4.7,5.1c-0.5,1.2,0.2,2.7-0.3,3.8c-1.7,3.5-7.6,6.5-10.4,9.2c-3,2.9-6.2,6.6-8,10.5c2.8,1,6.8-1.5,7.7-3.5
							c1.2-2.6,0.4-3.7,2.5-6c2.5-2.6,5.8-3.3,8.5-5.4c-2.1,2.1,0.3,3.3-0.1,5.1c-0.6,2.8-5.5,5.1-7.6,6.7c-3.1,2.4-5.1,3.8-6.9,7.1
							c-2.1,3.8-4.1,5.4-7.5,7.9c-6.1,4.4-9.7,5.7-13.2,12.6c-2.1,4.2,1.5,3.1,3.1,7.7c1.8-5.9,1.6-4.6,6.3-8.5
							c-0.1,1.2-0.1,2.4-0.5,3.5c2.8-1.6,3.5-5.9,4.8-8.6c2.1-4.4,4.2-8.7,7.6-12.2c6.8-7,14.6-14.2,22.1-20.5
							c-1.5-0.2-2.9-1-4.3-1.7c1.8-3.8,0.3-7,3.7-10c5.6-5,12.6-7.8,18.4-12.6c8.3-6.9,16.3-12.8,26.7-16.5
							c4.3-1.5,12.8-6.9,17.4-6.2c2.1,0.3,2.4,1.9,3.9,3.9c-2.8,2.6-6.7,3.4-9.7,5.6c2.1,2.8,3.1,3.8,0.7,6
							c-2.2,1.9-6.9,2.5-9.6,3.6c-3.5,1.4-6.5,3.2-9.8,4.9c-3.2,1.7-8.3,2.5-10.7,5.3c-0.9,1-0.8,2.8-2,4c5.8-3.1,12.2-5.9,18.4-8.4
							c5.6-2.3,10-6,16.4-6.3c7-0.2,13.7-1.3,20.6-2.3c3.9-0.5,10.1-0.8,13.5-2.5c-3.8-3.1-11.8-0.3-16,0.1
							c-3.7,0.4-11.2,2.5-14.9,0.6c2.1-4.9,2.2-11,5.1-14.9c2-2.6,6.2-3,9.4-3.5c4.3-0.7,8.2-1.9,12.1-3.8c4.1-2,7.5-3.1,11.9-4.3
							c2.1-0.6,4.5-1.2,6.2-2.4c4.2-3.1,4.8-8.3,6.6-12.3"/>
						<path id="XMLID_11212_" class="st5" d="M366.3,497.1c-3.5-0.7-7.7,1.5-10.4,3.3c-4.8,3.2-10,5.9-14.9,9
							c1.2-0.8,2.2-1.8,3.2-2.8c-5.3,2.1-4.9,3.2-8.8-1.5c-2.2,1-5.1,2-7.5,2.5c-3.2,0.6-5.9-0.1-9.3,0.6c-3,0.7-8.5,1.4-10.8,3.5
							c-2.3,2-4.2,4.8-6.7,7c2.2,0.5,6.5-2.2,8.4-3.6c0.1,0.1,0.1,0.6-0.1,0.5c2.8-1.2,2.8-3.4,6.3-4.4c3.6-1.1,7.4-1.5,11.1-2.3
							c2.1-0.5,5.5-1.9,7.6-1.1c1.7,0.6,2.3,2.1,3.9,2.9c-4.5,3-12.9,5-15.9,9.8c-1,1.6-0.2,2.9-0.6,4.5c-0.6,2.8,1.2,0.8-2,2.7
							c-5.3,3-10.4,4.9-15,8.9c-3.9,3.3-7,7-11.4,9.9c3-5.7,10.2-7.5,13.6-12.4c1.2-1.8,1.1-4.8,1.9-7.1c1-3.2,3.4-5,5.5-7.3
							c-2.6,2-4.6,4.4-7.1,6.4c5.4,5.1-13.3,16.4-16.2,18.7c-4.2,3.2-8.6,2.6-13,5.3c-2.7,1.6-3,2.4-5.4,1.8
							c-0.6-0.2-1.6-1.4-2.5-1.7c-1.3-0.4-3.6,0.5-4.9,0.8c0.2-2.4-1.1-5.5-0.5-7.8c0.8-3.2,4.6-5.7,7-7.6c6-4.7,11-11.1,18.4-5.7
							c-2.3,2.7-5.3,4.4-8.1,6.3c3.7-0.1,8.7-6.2,11.2-8.7c-0.4-1.1-1.1-2.2-1.9-3c-3.4,2.8-4.2,1-7.3,0.3c-4.1-0.9-6.6,1.9-9.6,4.2
							c-5.3,4-12,7.8-16.7,12.7c-3.9,4.1-5.8,9.4-10.3,13.3c-8.4,7.2-7.5,7.8-13.5,17.3c2.3,1.5,3.6,2.2,3.5,5
							c2.1-4.7,4.2,5.4-0.5-1c-2-2.7,0-3.2,1.6-6.3c1.6-3,4.4-5.6,6.6-8.3c5.7-6.9,10.4-16.8,18.4-21.2c-2.3,4.9-2.6,9.9,3.4,11.2
							c0.3,3.2,5.1,3.1,6.1,6.3c0.7,2.2-1.7,4.1-1.8,6.4c-0.2,3.6,4.1,6.9,3.4,10c-0.7,3-7.4,6.5-9.3,8.6c-1.9,2.1-2.4,4.6-3.7,6.9
							c-2.5,4.4-5,2.8-9.2,5.7c-2.3-2.1-3.9-4-5.7-6.9c-2.1-3.3,4.7-6.3,6.9-8.8c3.9-4.4,6.8-9.9,11-14c-6.6,2.6-10.8,10.8-16,15.5
							c-4,3.6-3.5,0.8-2.8,6.6c0.7,5.6,5.6,9.2,9.4,13.4c1.7-2-1.9,5.4,0.5,4.3c0.7-0.3,0.6-1.7,1.5-2.1c1.2-0.6,1.7-1.7,2.6-2.6
							c1.7-1.7,6-4.5,6.2-6.9c0.2-2.7-2.1-4.4-0.6-7.7c2.3-5,7.9-7.2,10-12c1.8-4.3-2.5-9-1.6-13.6c0.4-1.9,1.9-2.8,2.9-4.6
							c1.1-2.1,0.2-2.6,2.2-4.3c3.8-3.3,6.9-1.5,11.2-2.6c1.5-0.4,2.9-1.5,4.3-1.9c0.5-0.1,1.1,0.9,1.6,0.6c0.9-0.3,1-1.3,1.7-1.7
							c4.4-2.8,8.4-6.8,12.7-10c2.7-2.1,5.5-4.3,8.5-5.9c2.5-1.4,5.3-1.4,7.5-3.5c-1.6-3.6-2-3.8,0.8-6.5c3.4-3.3,6.9-5.9,11.3-7.7
							c6.6-2.7,13.4-6.7,19.5-10.5c1.6,8.1-2.4,14.7-3.9,22.4c-0.8,3.9-2.6,5.9-5.4,4c-2.3-1.6-2.5-4.1-5.7-5
							c-2.2-0.6-4.8-0.4-7-0.6c3.9,5.7-0.5,5.1-0.7,10.1c-0.1,2.7,3.2,5.8,2.2,8.4c-1.2,3-7.7,5.3-10,7.7c-1.7,1.7-1.7,3.1-4.1,2
							c-1.6-0.7-2.2-4-4-4.2c-0.5-0.1-2.8,1.9-3.4,2.2c-2.5,1.4-3.8,1.9-6.2-0.4c-1.6-1.5-2.2-5.9-4.9-3.6c2-1.5,7.3-6.3,11.3-5.1
							c2.3,0.7,2.1,2.8,4.9,2c4.1-1.2,4.9-7.5,7.8-10.1c-4.5,1-3.7,9.4-9.1,8.5c-1.7-0.3-3-2.9-5-2.8c-1.9,0.1-5.2,2.9-6.8,3.9
							c-3.9,2.4-6.1,5.9-9.6,8.7c-3.6,2.9-7.7,5.6-11.5,8.3c-2.8,1.9-7,3.8-8.8,6.6c0.9-0.4,2.2-0.5,3.1-0.9
							c0.3,1.3,0.2,2.9,0.4,4.4c0.3,2.6,2,4.6,2.2,6.9c0.4,4.3-6,6.3-8,9.9c-2,3.5-2.9,7.1-6.3,9.7c-5.1,3.8-12.2,6.5-15.8,12
							c0,0.6,0.5,2,0.7,2.5c3.7-3.1,6.5-7.1,10.8-10c3.6-2.5,8.3-4.2,10.8-8c2-3.1,2.5-6.5,5.2-9.5c2.3-2.6,4.8-3.2,5.1-6.6
							c0.4-3.8-2.8-8.8-2-12.6c0.9-4,7.7-7.2,10.8-9.3c6-4.1,10.4-7.9,16-0.7c2.7-2.5,6.1-1.4,9.1-3.1c0.6,5.6,4.3,3.1,6.8,1.6
							c4-2.4,10.6-4.1,12.5-8.9c1.2-3.1,0.3-1.4-0.8-4.5c-0.9-2.5-0.1-3.9,0.8-6.1c0.3-0.7,1.5-4.8,2.1-5.3c1.8-1.6,4.3,1.3,6.1,2.9
							c2.9,2.6,4.5,1.9,8.2,0c3.6-1.9,0.9-2.8,1.8-6.6c1.1-4.6,5.6-8.2,6.9-12.8c1.2-4.3-1.7-8.5,1.9-12c0.4-0.1,0.5,0.1,0.5,0.8"/>
						<path id="XMLID_11211_" class="st3" d="M347.4,537.9c-6.2-1-11.9,8.1-16.5,11.6c-7.9,6-16.3,9.9-25.5,13.4
							c-9.4,3.6-14.6,13.5-22.4,19.3c-3.3,2.4-4.8,4.5-7.2,8c-2.5,3.7-5.9,6.2-9.8,8.5c-6.5,4-8.5,4.2-12.3,11
							c1.6,2.3,0.8,10.7,2.9,12.4c2.2-2.3,4.2-4.5,6.7-6.4c1.2-0.9,2.6-1.7,3.5-2.8c1.6-1.8,0.6-2.4,1.2-4c1-2.9,3.5-5,5.2-7.9
							c1.9-3.3,3.5-5.6,6.1-8.4c6.8-7.2,15.2-11.5,22.4-18c4.5-4,9-1.9,14.2-3.3c3.6-1,6-4.1,9.5-5.2c3.8-1.2,6.9-1,10.4-3.2
							c3.9-2.4,7.8-3.1,11.8-4.9c-0.8-5.4,0.6-8,2.2-13c0.9-2.9,1-5.6-2.9-6.6"/>
						<path id="XMLID_11210_" class="st5" d="M267.1,620.8c2.9-3.4,6.2-9.4,10.2-11.4c1-0.5,1.8,0.9,2.8,0.2c1.3-0.8,1.8-3,2.6-4.2
							c5.8-8.8,13.2-15.2,21.3-21.7c-1.4,1.5-3.1,3.4-3.1,5.6c5.1-3.7,11.1-5.7,16.3-9.2c4.3-3,7.4-5.7,10.7-9.3
							c4.7-5.1,12.8-3.6,19.1-4.2c-3.5,1.7-8.4,2.3-11.8,4c-2.1,1.1-3.2,2.7-5.5,3.6c-4.2,1.7-10.3,3-13.6,6.4
							c3.1,0.5,8.1,1.6,9.1,5.4c1.3,4.7-6.9,3.9-9.5,6.2c1.5-2.6,9.4-7.4,3.2-8.4c-4.9-0.8-12.5,4.3-16.4,6.9
							c-3.6,2.4-1.7,1.9-2.1,5.8c-0.6,4.9-5.9,6.2-6.8,10.8c-1,4.8-0.5,10.1-4.1,13.9c-2.2,2.3-5.2,3.7-7.8,5.4
							c1.5-3.6,4.5-6.7,6.4-10.3c1.5-2.9,2.4-5.9,3.6-8.9c2.3-5.7,6-9.6,6.8-15.8c-5.2,3.1-11.4,9-14.6,14.3c-1.6,2.7-2.4,4.9-5.1,7
							c-2.2,1.7-4.1,2.4-5.8,4.7c-1.7,2.4-2.4,4.8-5.1,6.2c-0.8-0.5-0.8-2.6-1.5-3"/>
					</g>
					<path id="XMLID_11208_" class="st3" d="M356.1,499.3c-2.7,0.7-6.4,3.1-8.5,5c0.7-0.5,1.5-0.5,2.3-0.3c-1.7,1.9-6.1,3.1-8.6,3.4
						c-0.9,0.1-2.2,0.2-2.9-0.2c-1-0.5-1.8-2-3.1-2.3c-2.7-0.6-6.8,1.1-9.4,1.9c-3.4,1-6.9,0.8-10.2,1.6c5,1.4,10.7-2.3,15.6-2.7
						c3.7-0.3,5.9,2.9,9.7,2.9c1.6,0,2.6-1.2,4.1-1.9c1.4-0.7,2.9-1.2,4.3-2c1.8-1.1,5.7-5.2,7.3-5.3"/>
					<path id="XMLID_11207_" class="st3" d="M241.4,581.6c-0.1,0.2-0.1,0.5-0.2,0.7c1.1-0.2,1.3,1.3,2.4,1.5
						c0.8,0.1,2.2-1.2,2.8-1.6c3.2-2.2,5.3-5.8,7.8-8.7c2.3-2.6,5.7-5.3,7-8.6c1.2-3,1.8-5.5,4-8c0.9-1,1.7-2.1,2.6-3.1
						c-4.1,3-5.3,8.8-6.9,13.2c1,0.1,2.1-1.1,3.2-1.5c1.7-0.8,3.7-0.7,5.3-1.9c2-1.5,3-4,4.8-5.7c1.2-1.2,2.6-2.3,3.6-3.7
						c1.2-1.7,1.8-3.8,4.1-4.5c3.2-0.9,6.7,0.5,10-0.6c6.7-2.4,10.3-8.3,16.2-11.9c3.1-1.9,6.2-3.5,9.1-5.8c0.9-0.7,6.7-5.2,8-4.3
						c0.1,0,0.1,0,0.2-0.1c-1.4,2.3-5.7,4.1-8.1,5.3c-2.5,1.3-4.7,3.2-7,4.9c-4.4,3.4-8.8,6.7-13.3,10.1c-4.3,3.3-9,2.9-14.2,3.7
						c-2.9,0.4-3.9,2.1-5.5,4.4c-1.3,1.9-3,3.3-4.5,5c-2.7,3.1-4,5.3-8,6.5c-4,1.2-6.6,3.6-9.2,6.7c-2.5,2.9-4.8,5.5-7.8,8
						c-0.9,0.7-2.9,3.8-4.2,3.5c-0.6-0.2-0.9-1.5-1.2-1.8c-0.7-0.8-1.4-0.7-1.3-1"/>
					<path id="XMLID_11206_" class="st6" d="M347.3,539.4c-0.5-0.1-1.7-0.7-2.9-0.2c-1.3,0.6-1.6,1.9-2.5,2.9
						c-2.8,3.2-6.6,5.7-9.9,8.3c-2.3,1.8-4.4,3.6-6.9,5.1c-2.6,1.6-5.8,2.7-8,4.7c6,0,11.5-5.6,17.4-6.8c2.7-0.6,6.7,2.1,9.2,0.8
						c2.2-1.1,0.9-6.5,1.8-8.9c0.5-1.4,2.8-4.3,1.5-5.4"/>
					<path id="XMLID_11205_" class="st6" d="M340.2,556.9c-1.6,1.2-4.9,0.8-7,1.4c-2.1,0.7-3.8,2.3-6,3c-1.9,0.6-4.1,0.3-6,0.8
						c-1.8,0.4-3.6,1.1-5.4,1.5c-3.7,0.8-6.8,2.5-10.5,3.8c-4.4,1.5-8.3,3-12.2,5.6c-4.8,3.2-9,8.8-12.6,13.3
						c-3.5,4.3-7.2,8.3-11.6,11.9c-3.1,2.6-6.5,4.7-8.9,7.9c-1.7,2.2-3,6.4-1.8,9.3c3.1-5.5,6.1-12,10.9-16.4
						c4.4-4.1,8.8-7.9,12.9-12.2c2.8-2.9,5.3-6.3,8.5-9c3.6-3.1,7.5-4.8,11.6-7.1c7.9-4.3,17.9-2.7,25.6-7.4c2.4-1.5,5.4-2,8-2.9
						c2.6-0.9,2.5-1.7,4.1-3.4"/>
				</g>
			</g>
		</g>
		<path id="XMLID_11200_" class="st7" d="M310.8,550.1c0,0,2.7,33.1-2.1,39.3c-4.8,6.1-17.2,26.2-38,12.4
			c-20.8-13.7-16-26.5-6.1-26.9c9.9-0.4,25.4,20.1,33.9,1C306.8,556.7,301.7,538.9,310.8,550.1z"/>
		<g id="XMLID_11197_" class="st8">
			<path id="XMLID_11199_" class="st9" d="M371.1,464.8c0,0-24.8-5.9-41.6,2.8c-16.8,8.7-24.6,14.1-32.2,13.8s-13.6,14.9-15.8,16.7
				c-2.2,1.7,9.7,28.9,31.3,5.7c21.7-23.1,33-29.3,46.3-27.4C372.4,478.2,380.1,471.9,371.1,464.8z"/>
			<path id="XMLID_11198_" class="st10" d="M366.6,467.4c0,0-21.4-2.2-27.1,0.5s-30.8,17.2-37.2,17.5c-6.3,0.3-12,6.8-12.1,10.3
				c-0.1,3.4,3.2,18.7,13.4,8.6c10.2-10.1,9-17.3,15.8-19.6c6.8-2.3,14.2-13.6,28.8-12.8C362.9,472.7,370.4,470.2,366.6,467.4z"/>
		</g>
	</g>
	<g id="XMLID_11167_">
		<g id="XMLID_11172_">
			<path id="XMLID_11195_" class="st0" d="M534.6,410.6c-4.9-5.7-8.7-12.2-11.4-19.3c-1.7-4.4-5.5-9.6-13.7-14.3
				c-18.5-10.5-25.4-13.9-33.2-29s-37.3-8.5-47.5,4.2c-10.2,12.7-29.9,32.5-23.7,47.2c6.2,14.7,14,25.3,37.3,21.7
				c23.3-3.7,43.5,5.7,51.9,16.4s27.2,33.6,44.6,21C553.1,448.2,547.6,425.9,534.6,410.6z"/>
			<g id="XMLID_11189_">
				<path id="XMLID_238_" class="st0" d="M534.6,410.6c-4.9-5.7-8.7-12.2-11.4-19.3c-1.7-4.4-5.5-9.6-13.7-14.3
					c-18.5-10.5-25.4-13.9-33.2-29s-37.3-8.5-47.5,4.2c-10.2,12.7-29.9,32.5-23.7,47.2c6.2,14.7,14,25.3,37.3,21.7
					c23.3-3.7,43.5,5.7,51.9,16.4s27.2,33.6,44.6,21C553.1,448.2,547.6,425.9,534.6,410.6z"/>
				<path id="XMLID_235_" class="st1" d="M534.6,410.6c0,0-0.3-0.3-0.8-0.9c-0.5-0.6-1.2-1.5-2.1-2.7c-1.8-2.4-4.3-6.1-6.7-11.2
					c-0.6-1.3-1.2-2.6-1.8-4.1c-0.5-1.5-1.2-2.9-2.2-4.3c-1.8-2.8-4.5-5.5-7.6-7.7c-1.6-1.1-3.3-2.2-5.1-3.2c-1.8-1-3.7-2.1-5.6-3.1
					c-3.8-2.2-7.8-4.4-11.8-7.2c-2-1.4-3.9-2.9-5.7-4.7c-1.8-1.8-3.5-3.7-5-5.9c-1.5-2.2-2.9-4.4-4.2-6.8l-0.2-0.4l-0.1-0.2
					l-0.1-0.2l-0.5-0.9c-0.4-0.6-0.7-1-1.2-1.5c-0.9-1-1.9-1.8-3-2.5c-2.2-1.4-4.8-2.3-7.5-2.7c-2.7-0.4-5.5-0.4-8.3-0.1
					c-5.6,0.7-11.3,2.4-16.4,5.3c-2.6,1.4-5,3.1-7.1,5.2c-1,1-1.9,2.1-2.9,3.4c-1,1.2-1.9,2.4-2.9,3.6c-3.9,4.8-7.9,9.5-11.5,14.6
					c-1.8,2.5-3.5,5.2-4.9,7.9c-1.4,2.7-2.7,5.6-3.4,8.5c-0.7,2.9-0.8,5.9,0,8.7c0.4,1.3,1.1,2.8,1.8,4.3l1,2.1l1.1,2.1
					c1.5,2.7,3.3,5.3,5.4,7.4c2.1,2.2,4.6,3.9,7.4,5c2.8,1.1,5.8,1.6,8.8,1.9l2.3,0.1c0.8,0.1,1.5,0,2.3-0.1c0.8,0,1.5,0,2.3-0.1
					l2.3-0.3c1.6-0.2,3.1-0.4,4.7-0.6l1.2-0.1l1.2-0.1l2.4-0.1c1.6-0.1,3.2,0,4.8,0c1.6,0.1,3.2,0.2,4.7,0.4
					c6.3,0.8,12.3,2.4,17.9,4.8c5.6,2.5,10.8,5.8,14.9,10c0.5,0.5,1,1.1,1.5,1.6c0.5,0.6,1,1.1,1.4,1.7c0.9,1.1,1.7,2.2,2.6,3.3
					c1.8,2.2,3.6,4.3,5.4,6.3c3.7,4,7.7,7.6,12,10.4c4.3,2.7,9.1,4.5,13.9,4.2c2.4-0.1,4.6-0.8,6.6-1.8c0.5-0.3,1-0.5,1.5-0.8
					c0.5-0.3,0.9-0.6,1.4-0.9c0.4-0.3,0.9-0.7,1.3-1c0.4-0.4,0.8-0.7,1.2-1.1c3.1-3.1,4.8-7.1,5.4-10.9c0.6-3.8,0.4-7.5-0.3-10.8
					c-0.6-3.3-1.6-6.3-2.7-8.8c-2.2-5.2-4.6-8.9-6.4-11.3c-0.9-1.2-1.6-2.1-2.1-2.7C534.9,410.9,534.6,410.6,534.6,410.6z
					 M534.6,410.6c0,0,0.3,0.3,0.7,0.9c0.5,0.6,1.2,1.5,2.1,2.7c1.8,2.4,4.2,6.1,6.4,11.3c1.1,2.6,2.1,5.5,2.8,8.9
					c0.7,3.3,1,7,0.4,10.9c-0.6,3.9-2.2,7.9-5.3,11.1c-3.1,3.1-7.4,5.6-12.3,6.1c-4.9,0.4-10-1.4-14.4-4c-4.5-2.7-8.6-6.3-12.4-10.3
					c-1.9-2-3.8-4.1-5.6-6.3c-0.9-1.1-1.8-2.2-2.7-3.3c-0.4-0.6-0.9-1.1-1.4-1.6c-0.5-0.5-0.9-1.1-1.4-1.5c-4-4-9.1-7-14.5-9.3
					c-5.5-2.2-11.3-3.7-17.4-4.3c-1.5-0.1-3-0.2-4.5-0.3c-1.5,0-3.1,0-4.6,0l-2.3,0.1l-1.1,0.1l-1.2,0.2c-1.6,0.2-3.1,0.4-4.7,0.6
					l-2.4,0.3c-0.8,0.1-1.6,0.1-2.4,0.2c-1.6,0.1-3.3,0.1-4.9,0c-3.3-0.2-6.6-0.8-9.8-2c-3.1-1.3-6-3.2-8.4-5.6
					c-2.4-2.4-4.3-5.2-5.9-8.1l-1.2-2.2l-1.1-2.2c-0.6-1.5-1.3-2.9-1.9-4.6c-1-3.4-0.9-7,0-10.2c1.6-6.6,5.2-12.1,8.9-17.3
					c3.8-5.2,7.9-9.9,11.9-14.6c1-1.2,2-2.3,3-3.5c1-1.2,2-2.4,3.2-3.5c2.3-2.2,4.9-3.9,7.7-5.4c5.4-2.9,11.3-4.6,17.2-5.1
					c2.9-0.3,5.9-0.2,8.8,0.3c2.9,0.5,5.6,1.5,8,3.1c1.2,0.8,2.3,1.8,3.2,2.8c0.4,0.5,0.9,1.2,1.2,1.7l0.5,0.9l0.1,0.2l0.1,0.2
					l0.2,0.4c1.2,2.4,2.5,4.6,3.9,6.8c1.5,2.1,3,4.1,4.8,5.8c1.7,1.8,3.6,3.3,5.5,4.8c3.9,2.8,7.8,5.2,11.6,7.4
					c1.9,1.1,3.7,2.2,5.5,3.2c1.8,1,3.5,2.1,5.1,3.2c3.2,2.3,5.8,5,7.6,7.8c0.9,1.4,1.6,2.9,2.2,4.4c0.6,1.4,1.1,2.8,1.7,4.1
					c2.4,5.1,4.8,8.8,6.6,11.2c0.9,1.2,1.6,2.1,2.1,2.7C534.4,410.3,534.6,410.6,534.6,410.6z"/>
			</g>
			<g id="XMLID_11173_">
				<defs>
					<path id="XMLID_11174_" d="M534.6,410.6c-4.9-5.7-8.7-12.2-11.4-19.3c-1.7-4.4-5.5-9.6-13.7-14.3c-18.5-10.5-25.4-13.9-33.2-29
						s-37.3-8.5-47.5,4.2c-10.2,12.7-29.9,32.5-23.7,47.2c6.2,14.7,14,25.3,37.3,21.7c23.3-3.7,43.5,5.7,51.9,16.4
						s27.2,33.6,44.6,21C553.1,448.2,547.6,425.9,534.6,410.6z"/>
				</defs>
				<clipPath id="XMLID_3_">
					<use xlink:href="#XMLID_11174_"  style="overflow:visible;"/>
				</clipPath>
				<g id="XMLID_11175_" class="st11">
					<path id="XMLID_11188_" class="st3" d="M515.1,438.5c-0.3-5.4-2.7-11.1-3.8-16.5c-1.1-5.5-3.7-10.1-6.7-14.7
						c-3.4-5.2-7.3-9.8-11.5-14.4c-3-3.3-5.6-7.1-8.6-10.5c-2.3-2.5-5.1-5.4-6.7-8.1c0.4,0.2,0.6,0.3,1,0.4
						c-8.6-8-16.5-15.8-27.8-19.5c-6.6-2.2-11.5-9-18.4-6.2c-1.8,0.7,0.1,0.4-2,1.9c-1.8,1.3,1.8,0.2-0.8,0.4c0,0.1,12.7,0.3,0,0
						c5.5,0.8-2-0.7,3.6,0.3c6.4,1.1,11.9,3.6,17.7,5.9c18.3,7.6,29.3,25.1,41.4,39.4c3,3.6,7.2,5.2,10,8.7
						c2.9,3.6,5.2,8.4,5.9,13.1c0.7,4.9,0.6,10.4,2.9,14.9c0.8,1.4,2,2.4,2.7,3.8c0.9,1.7,0.8,3.5,1.9,5.1c0.7-1.3-0.3-5.1-0.8-6.7"
						/>
					<path id="XMLID_11187_" class="st3" d="M545.1,434.5c-0.2-1.9-0.3-3.7-0.8-5.5c-0.3,0.2-0.9,0.2-1.3,0.5c-1.3-1-1.6-4-2.3-5.4
						c-1.1-2.4-3.4-4.9-4-7.5c0.5,0.1,1.5-0.3,1.8-0.3c1.1-7.1-2.3-13.9-5.8-19.7c0.7,5.2,4.6,11.3,3.9,16.7
						c-2.4-0.1-1.5,1.3-1.5,2.8c0,2.8,0.4,2.4,2.2,4.7c1.3,1.7,2.9,10.5,5.2,9.4c0.4,0.3,0.8,0.4,1.3,0.6c0.8-0.5,0.8-1,0.7-1.9"/>
					<path id="XMLID_11186_" class="st3" d="M522.1,405.4c-1.3-2-2.5-4.2-3.7-6.1c0,0.3-0.1,0.7-0.2,1c-3.7-2.9-5.9-7.8-8.5-11.6
						c-2.6-3.8-6.9-6.1-9.5-9.7c0.1-0.1,0.2-0.1,0.3-0.1c-0.5-1.9-1.5-3.8-2.6-5.4c0.8-1.6,2.6-2.3,1.9-4.1c2.4-0.6,8,2.4,10,4.1
						c-4.3-3.3-9.4-3.7-14.3-5.5c0.1,1.8,2.2,2.9,0.7,4.8c2.1,2.5,2.7,5.7,4.9,8.2c2.7,3.1,5.3,6.2,7.9,9.3c4.5,5.2,8,10.8,13,15.7"
						/>
					<path id="XMLID_11185_" class="st4" d="M512.5,355.9c-3.2-1-8.7-6.4-9.5,0.2c-3.5-0.4-6.8-1.7-9.4-3.9
						c-0.1,0.4-0.6,0.9-0.6,1.4c-3.4,0.6-9.4-1.6-12.4-2.6c3.6,2,7.3,3.5,10.7,5.8c-0.7-0.5-1.7-1.2-2.3-2c3-0.7,4.2-1.7,6.9-0.6
						c1.7,0.7,3.1,2,4.9,2.5c1.3,0.3,2.8,0.2,4,0.5c-2-6.5,8.9-0.4,10.5,0.1c-0.6,0-1.1-0.1-1.7-0.1"/>
					<g id="XMLID_11180_">
						<path id="XMLID_11184_" class="st5" d="M555.1,459.5c0.6-1-4.2-8.6-4.9-10.7c-2.1-6.4-3.5-12.8-5.3-19.3
							c-4.6-16.1-8.6-35.1-20.1-47.5c0.2,0.7-0.1,1.7,0,2.5c-6.1,1-8.9-6.8-13.2-9.7c-5.1-3.4-11.2-5.7-16.2-9.2
							c-2.7-1.9-2.7-2.8,0.8-3.5c-4.3-1.4-8.5-5.8-12.4-8.1c-5-2.9-9.7-6.3-14.8-9.3c-4-2.4-7.8-4.6-12.5-5.5
							c-4.4-0.8-4.9-1.9-9.3-1.9c6.8,1.2,8.8,1.3,15.3,3.7c10.8,4.1,20.5,10.6,28.3,19c-7.3-4.2-15-9.6-23.2-12.2
							c4.3,3.9,11.1,5.9,15.9,9.5c2.7,2,5.2,4.3,7.3,6.9c3.6,4.6,7.2,10.4,11.4,14c-3.1-2.6-4.9-6.8-7.5-9.8
							c-1.5-1.8-3.6-3.7-4.6-5.7c3.9,3.9,9.8,6.5,14.2,9.8c3.7,2.8,7.1,5.5,11.1,7.9c3.7,2.2,7.5,5.6,10.1,9.1
							c2.1,2.9,5.8,7.9,6.8,11.3c-0.1-1.9-1.6-3.6-1.1-5.7c3.7,2.7,5.3,11.2,6.8,15.4c2.2,6.2,4.5,12,6,18.5
							c2.4,9.7,3.4,17.3,5.7,27c-2-2.4-3.5,0.7-4.8-2.9c-3.3-9.2-7.1-18.3-11.8-26.8c0.9,4.8,3,9.2,4.7,13.6
							c-3-7.1-6.1-14.2-8.8-21.3c4.1,3.1,5.9,6.9,9,10.7c-2.7-6.2-5.3-12.9-9.8-18c0.6,2,2.2,4.2-0.4,5.4
							c-4.8-3.4-7.1-10.6-10.5-15.3c-5.5-7.5-10.3-15.9-17.3-22.2c0.5,0.5,0.8,1.2,1.3,1.8c-0.1,0.2-0.3,0.4-0.2,0.6
							c-3.5-3.6-6.2-8.1-10-11.4c-1.3-1.1-3.2-2.9-4.9-3.3c-1-0.3-2.3,0.5-3.2,0.2c-3.1-0.9-6.4-5.5-9-7.5c-2.9-2.1-6.3-4.3-9.8-5.3
							c-0.5,2.5,2.2,5.5,3.9,6c2.4,0.7,3.1-0.2,5.3,1.3c2.5,1.7,3.5,4.4,5.6,6.4c-2-1.5-2.7,0.7-4.2,0.5c-2.4-0.2-5-3.9-6.5-5.5
							c-2.4-2.3-3.8-3.7-6.8-4.8c-3.4-1.2-5-2.7-7.6-5.3c-4.5-4.5-6-7.4-12.2-9.4c-3.8-1.2-2.4,1.6-6,3.6c5.2,0.7,4,0.7,7.9,4.1
							c-1,0.1-2,0.2-2.9,0c1.7,2.1,5.3,2.1,7.8,2.9c3.9,1.2,7.8,2.4,11.2,4.8c6.7,4.8,13.7,10.3,19.9,15.7c0-1.3,0.4-2.5,0.9-3.8
							c3.4,1,5.9-0.6,8.8,1.8c4.9,4,8.1,9.5,12.9,13.7c6.9,6,12.8,11.9,17.2,20.1c1.8,3.4,7.4,9.8,7.4,13.7c0,1.8-1.3,2.2-2.8,3.7
							c-2.6-2-3.7-5.1-6-7.4c-2.1,2.1-2.8,3.1-4.9,1.3c-1.9-1.6-3-5.4-4.3-7.5c-1.6-2.7-3.5-5-5.4-7.5c-1.8-2.5-3.2-6.6-5.8-8.2
							c-1-0.6-2.4-0.3-3.6-1.2c3.3,4.4,6.5,9.4,9.4,14.3c2.6,4.4,6.3,7.6,7.4,12.9c1.1,5.8,2.9,11.3,4.6,16.8c1,3.2,2,8.3,3.9,10.9
							c2.1-3.6-1.2-9.9-2.2-13.3c-0.8-3-3.5-9.1-2.5-12.4c4.3,1.1,9.5,0.4,13.1,2.3c2.5,1.3,3.3,4.8,4.1,7.4
							c1.2,3.5,2.6,6.6,4.7,9.6c2.2,3.2,3.6,5.9,5.2,9.4c0.8,1.7,1.6,3.6,2.8,4.9c3.1,3.1,7.5,2.9,11.1,3.9"/>
						<path id="XMLID_11183_" class="st5" d="M511.8,450.7c0.2-3-2.3-6.3-4.1-8.3c-3.3-3.6-6.3-7.6-9.5-11.3
							c0.8,0.9,1.8,1.6,2.8,2.3c-2.4-4.1-3.3-3.7,0.1-7.5c-1.2-1.7-2.4-4-3.1-5.9c-0.9-2.6-0.7-5-1.7-7.7c-0.9-2.4-2.3-6.9-4.3-8.6
							c-2-1.7-4.5-2.9-6.7-4.7c-0.1,1.9,2.7,5.1,4.1,6.5c-0.1,0.1-0.5,0.2-0.4-0.1c1.4,2.1,3.2,1.9,4.5,4.7c1.4,2.9,2.2,5.9,3.4,8.9
							c0.7,1.7,2.3,4.4,1.9,6.2c-0.3,1.5-1.5,2.2-1.9,3.6c-3.1-3.4-5.8-10.1-10.3-12c-1.4-0.6-2.5,0.2-3.8,0.1
							c-2.4-0.1-0.5,1.1-2.5-1.4c-3.2-4-5.4-8-9.4-11.4c-3.3-2.8-6.8-4.9-9.8-8.2c5.2,1.7,7.5,7.6,12.1,9.7c1.7,0.8,4.2,0.3,6.2,0.6
							c2.8,0.4,4.6,2.1,6.8,3.6c-2-1.9-4.3-3.3-6.2-5.1c-3.5,5.2-15.4-9-17.7-11.1c-3.2-3.1-3.3-6.9-6.1-10.2
							c-1.7-2-2.4-2.2-2.2-4.3c0.1-0.5,1-1.5,1.1-2.3c0.1-1.1-0.9-2.9-1.3-4c2-0.1,4.5-1.6,6.4-1.5c2.8,0.2,5.4,3.1,7.2,4.8
							c4.7,4.4,10.6,7.7,7.2,14.6c-2.5-1.5-4.3-3.8-6.3-5.9c0.6,3.1,6.3,6.4,8.7,8.2c0.9-0.5,1.7-1.2,2.2-2
							c-2.8-2.5-1.4-3.3-1.2-6.1c0.2-3.6-2.4-5.3-4.7-7.5c-4.1-3.9-8.1-9-12.7-12.3c-3.9-2.7-8.6-3.6-12.4-6.8
							c-7.1-6.1-7.5-5.2-16.2-9c-1,2.1-1.4,3.2-3.7,3.6c4.2,1.2-4,4.2,0.8-0.6c2-2,2.7-0.4,5.4,0.6c2.7,1,5.2,2.9,7.8,4.4
							c6.5,3.8,15.3,6.5,20.1,12.6c-4.3-1.2-8.6-0.9-8.9,4.3c-2.7,0.6-2,4.7-4.5,5.9c-1.7,0.9-3.6-0.9-5.6-0.6
							c-3,0.3-5.2,4.3-7.9,4.1c-2.6-0.2-6.3-5.3-8.4-6.6c-2-1.3-4.1-1.4-6.2-2.2c-4-1.5-3-3.8-6-6.9c1.5-2.2,2.9-3.8,5-5.7
							c2.4-2.2,5.8,3.1,8.2,4.7c4.1,2.6,9.2,4.3,13.1,7.4c-3-5.2-10.4-7.6-15-11.4c-3.5-2.9-1.1-2.8-5.9-1.5
							c-4.6,1.3-6.9,5.9-10,9.6c1.9,1.1-4.8-0.9-3.6,1c0.3,0.5,1.5,0.3,1.9,1c0.6,0.9,1.6,1.2,2.5,1.8c1.7,1.2,4.6,4.4,6.6,4.2
							c2.3-0.2,3.4-2.4,6.3-1.5c4.4,1.3,7,5.7,11.3,6.8c3.8,1,7.1-3.2,11.1-3.1c1.6,0.1,2.6,1.3,4.2,1.8c1.9,0.6,2.2-0.2,3.9,1.3
							c3.2,2.8,2.2,5.6,3.6,9c0.5,1.2,1.6,2.2,2.1,3.3c0.2,0.4-0.6,1-0.3,1.4c0.4,0.7,1.2,0.7,1.6,1.2c2.9,3.3,6.8,6.1,10,9.3
							c2.1,2,4.3,4,6,6.3c1.5,1.9,1.9,4.3,3.9,5.8c2.8-1.8,2.9-2.2,5.5-0.2c3.2,2.4,5.9,5,7.9,8.4c3.1,5.2,7.4,10.3,11.3,14.9
							c-6.5,2.3-12.6-0.1-19.2-0.3c-3.4-0.1-5.3-1.4-4-3.9c1-2.1,3.1-2.6,3.4-5.4c0.2-1.9-0.3-4.1-0.4-5.9c-4.2,3.9-4.3,0.2-8.5,0.7
							c-2.3,0.3-4.4,3.4-6.7,2.9c-2.7-0.6-5.4-5.8-7.7-7.4c-1.7-1.2-2.8-1-2.2-3.2c0.4-1.4,3-2.4,2.9-3.9c0-0.5-1.9-2.1-2.3-2.6
							c-1.5-1.9-2.1-2.9-0.5-5.3c1-1.5,4.7-2.6,2.4-4.6c1.5,1.5,6.2,5.3,5.7,8.7c-0.3,2-2.1,2.1-1,4.4c1.5,3.3,6.8,3.1,9.5,5.2
							c-1.4-3.6-8.3-1.9-8.3-6.5c0-1.5,2-2.9,1.7-4.6c-0.3-1.6-3.1-3.9-4.2-5.2c-2.5-3-5.7-4.4-8.5-6.9c-2.9-2.7-5.7-5.7-8.4-8.5
							c-2-2.1-4.1-5.3-6.6-6.5c0.5,0.7,0.7,1.8,1.2,2.5c-1.1,0.4-2.4,0.5-3.6,0.9c-2.1,0.6-3.5,2.2-5.5,2.8c-3.5,0.9-6-4.2-9.3-5.4
							c-3.2-1.2-6.3-1.5-8.9-4c-3.9-3.7-7-9.3-12.1-11.6c-0.5,0.1-1.6,0.6-2,0.9c3.1,2.6,6.8,4.5,9.7,7.7c2.5,2.7,4.6,6.4,8.1,7.9
							c2.9,1.2,5.8,1.2,8.6,3.1c2.4,1.6,3.3,3.6,6.2,3.4c3.2-0.2,7-3.5,10.2-3.3c3.4,0.2,7,5.5,9.2,7.8c4.2,4.5,8,7.6,2.6,13.3
							c2.4,1.9,2,4.9,3.8,7.2c-4.6,1.2-2,4-0.4,5.9c2.5,3,4.8,8.3,9,9.3c2.8,0.6,1.2,0.1,3.7-1.3c2-1,3.3-0.6,5.2-0.1
							c0.7,0.2,4.2,0.6,4.7,1c1.6,1.3-0.5,3.8-1.6,5.4c-1.7,2.8-1,4,1,6.8c2,2.8,2.5,0.4,5.8,0.6c4,0.3,7.5,3.6,11.6,4.1
							c3.7,0.4,6.8-2.5,10.2,0c0.2,0.3,0,0.5-0.6,0.5"/>
						<path id="XMLID_11182_" class="st3" d="M475.3,440.2c0.1-5.3-8.3-8.9-11.8-12.3c-6-5.8-10.4-12.3-14.5-19.5
							c-4.3-7.4-13.1-10.4-19-16.1c-2.5-2.4-4.4-3.4-7.6-4.9c-3.4-1.6-5.9-4.1-8.4-7c-4.2-4.9-4.6-6.5-10.7-8.8
							c-1.7,1.7-8.8,2.1-10,4c2.2,1.6,4.3,2.9,6.2,4.8c0.9,0.8,1.8,2,2.8,2.6c1.7,1.1,2,0.2,3.5,0.5c2.6,0.4,4.6,2.3,7.3,3.3
							c3,1.1,5.2,2.2,7.8,4c6.9,4.8,11.5,11.2,17.9,16.4c3.9,3.2,2.8,7.3,4.6,11.4c1.3,2.9,4.2,4.4,5.5,7.3c1.5,3,1.8,5.6,4,8.2
							c2.5,2.9,3.6,6.1,5.6,9.2c4.4-1.4,6.8-0.5,11.1,0.1c2.5,0.4,4.8,0.1,5.1-3.3"/>
						<path id="XMLID_11181_" class="st5" d="M395.8,384.1c3.2,2,8.7,3.9,10.9,7c0.5,0.8-0.5,1.6,0.2,2.4c0.9,1,2.7,1.1,3.9,1.6
							c8.1,3.7,14.4,9,20.9,14.9c-1.4-1-3.2-2.2-5-1.9c3.8,3.8,6.2,8.5,9.8,12.4c3,3.2,5.7,5.4,9.2,7.7c4.8,3.2,4.6,10.2,6,15.4
							c-1.9-2.7-3-6.7-4.9-9.3c-1.2-1.6-2.7-2.3-3.7-4.1c-2-3.3-3.9-8.2-7.1-10.5c0,2.7-0.3,7-3.3,8.3c-3.8,1.7-4.1-5.2-6.4-7.1
							c2.4,0.9,7.4,6.9,7.4,1.6c0-4.2-5.2-9.8-7.9-12.8c-2.5-2.7-1.8-1.1-5.1-1c-4.2,0.2-5.9-4.1-9.9-4.3c-4.1-0.2-8.5,0.9-12.1-1.6
							c-2.2-1.5-3.8-3.9-5.6-5.8c3.2,0.8,6.2,2.9,9.4,4c2.6,0.9,5.2,1.2,7.9,1.9c5.1,1.2,8.8,3.8,14.1,3.6c-3.3-3.9-9-8.4-13.8-10.3
							c-2.5-1-4.4-1.4-6.5-3.3c-1.7-1.6-2.5-3.1-4.7-4.2c-2.2-1.1-4.3-1.4-5.9-3.5c0.3-0.7,2.1-1,2.3-1.6"/>
					</g>
					<path id="XMLID_11179_" class="st3" d="M508.6,442.5c-0.9-2.2-3.4-4.9-5.3-6.5c0.5,0.5,0.6,1.2,0.6,1.9
						c-1.8-1.2-3.4-4.7-3.9-6.7c-0.2-0.7-0.4-1.8-0.2-2.4c0.3-0.9,1.5-1.8,1.5-2.9c0.2-2.3-1.8-5.5-2.8-7.6
						c-1.3-2.7-1.5-5.7-2.6-8.3c-0.6,4.3,3.3,8.6,4.2,12.6c0.7,3-1.7,5.3-1.2,8.4c0.2,1.4,1.4,2,2.1,3.1c0.7,1.1,1.4,2.3,2.2,3.3
						c1.2,1.4,5.1,4.1,5.3,5.4"/>
					<path id="XMLID_11178_" class="st3" d="M425.1,357.5c-0.2,0-0.4-0.1-0.6-0.1c0.3,0.9-0.9,1.3-0.9,2.2c0,0.7,1.2,1.7,1.7,2.2
						c2.2,2.3,5.5,3.7,8.2,5.4c2.5,1.6,5.2,4.1,8.1,4.8c2.7,0.6,4.8,0.8,7.2,2.3c1,0.6,2,1.2,3,1.8c-3-3-8-3.3-11.9-4.1
						c0.1,0.9,1.1,1.6,1.7,2.4c0.9,1.3,1.1,3,2.3,4.1c1.5,1.4,3.7,2,5.4,3.3c1.1,0.9,2.3,1.9,3.5,2.5c1.6,0.8,3.4,1,4.2,2.8
						c1.2,2.5,0.4,5.6,1.8,8.3c2.8,5.3,8.3,7.5,12,12c2,2.3,3.8,4.7,6,6.8c0.7,0.7,5.2,4.9,4.6,6.1c0,0,0.1,0.1,0.1,0.1
						c-2.1-0.8-4.1-4.2-5.5-6.1c-1.4-1.9-3.3-3.5-5-5.2c-3.4-3.3-6.7-6.5-10.1-9.8c-3.3-3.2-3.6-7.1-4.9-11.3c-0.7-2.3-2.2-3-4.4-4
						c-1.8-0.9-3.1-2.1-4.7-3.1c-3-1.9-4.9-2.6-6.5-5.8c-1.5-3.2-3.8-5-6.8-6.8c-2.8-1.7-5.2-3.3-7.7-5.4c-0.7-0.6-3.6-2-3.4-3.1
						c0.1-0.5,1.1-0.9,1.3-1.2c0.6-0.7,0.4-1.2,0.7-1.2"/>
					<path id="XMLID_11177_" class="st6" d="M474,440.4c0-0.5,0.3-1.5-0.2-2.4c-0.6-1-1.8-1.1-2.7-1.7c-3-1.9-5.6-4.7-8.2-7.2
						c-1.8-1.7-3.6-3.2-5.2-5.1c-1.6-1.9-3-4.5-5-6c0.8,5,6.2,8.9,8,13.6c0.8,2.2-0.8,5.9,0.5,7.8c1.2,1.7,5.6-0.1,7.6,0.3
						c1.2,0.2,4,1.8,4.7,0.5"/>
					<path id="XMLID_11176_" class="st6" d="M458.5,436.7c-1.2-1.2-1.3-4-2.1-5.6c-0.9-1.6-2.5-2.9-3.3-4.6
						c-0.7-1.5-0.8-3.4-1.4-4.9c-0.6-1.5-1.4-2.9-1.9-4.3c-1.2-3-3-5.4-4.5-8.2c-1.8-3.5-3.5-6.6-6.3-9.5c-3.3-3.6-8.5-6.3-12.8-8.7
						c-4.1-2.3-7.9-5-11.4-8.1c-2.6-2.2-4.7-4.8-7.7-6.4c-2.1-1.1-5.7-1.7-8-0.3c5,1.9,10.8,3.6,15.1,6.9c3.9,3.1,7.7,6.3,11.8,9.2
						c2.8,2,6,3.6,8.6,5.9c3,2.6,5,5.6,7.4,8.7c4.6,6.1,4.6,14.6,9.5,20.4c1.5,1.8,2.3,4.2,3.4,6.3c1.1,2,1.7,1.9,3.4,3"/>
				</g>
			</g>
		</g>
		<path id="XMLID_11171_" class="st7" d="M460.4,411.3c0,0-27.3,6.6-33,3.3s-24.1-11-15.3-30.1c8.8-19.1,20-16.8,21.7-8.6
			s-13.4,23.8,3.6,28.4C454.4,408.8,468.6,402.3,460.4,411.3z"/>
		<g id="XMLID_11168_" class="st8">
			<path id="XMLID_11170_" class="st9" d="M539.3,450.5c0,0,1.7-21.5-7.7-34.3c-9.4-12.9-14.9-18.7-15.7-25
				c-0.8-6.4-14.2-9.4-15.9-11c-1.7-1.6-22.8,11.8-0.7,26.9c22.1,15.1,28.7,23.7,28.9,35C528.4,453.3,534.6,458.9,539.3,450.5z"/>
			<path id="XMLID_11169_" class="st10" d="M536.6,447.1c0,0-0.9-18.1-3.9-22.6c-3-4.4-18.4-23.5-19.4-28.7
				c-1.1-5.2-7.3-9.1-10.1-8.7c-2.9,0.4-15.1,5.1-5.4,12.3c9.7,7.2,15.6,5.3,18.4,10.6c2.8,5.4,13.2,10,14.4,22.3
				C531.7,444.7,534.7,450.7,536.6,447.1z"/>
		</g>
	</g>
	<g id="XMLID_11138_">
		<g id="XMLID_11143_">
			<path id="XMLID_11166_" class="st0" d="M352.2,163.3c-9.9,5.1-20.5,8.4-31.5,9.9c-6.9,0.9-15.7,4.6-25.1,14.8
				c-21.3,23.1-28.6,31.8-52.8,37.9s-24.8,50.7-9.9,69.6c14.9,18.9,36.5,53.8,59.7,49.9s41.1-11.5,43.7-46.3s22.9-60.5,41.1-69
				s57.5-27.8,45.1-57.1C412.5,149.5,378.5,149.8,352.2,163.3z"/>
			<g id="XMLID_11160_">
				<path id="XMLID_233_" class="st0" d="M352.2,163.3c-9.9,5.1-20.5,8.4-31.5,9.9c-6.9,0.9-15.7,4.6-25.1,14.8
					c-21.3,23.1-28.6,31.8-52.8,37.9s-24.8,50.7-9.9,69.6c14.9,18.9,36.5,53.8,59.7,49.9s41.1-11.5,43.7-46.3s22.9-60.5,41.1-69
					s57.5-27.8,45.1-57.1C412.5,149.5,378.5,149.8,352.2,163.3z"/>
				<path id="XMLID_230_" class="st1" d="M352.2,163.3c0,0-0.5,0.3-1.5,0.8c-1,0.5-2.6,1.2-4.6,2.1c-4.1,1.8-10.2,4.1-18.3,5.8
					c-2,0.4-4.2,0.8-6.4,1.1c-2.3,0.3-4.6,0.8-6.9,1.6c-4.7,1.7-9.3,4.5-13.7,8.3c-2.2,1.9-4.2,4-6.3,6.3c-2.1,2.3-4.2,4.6-6.4,6.9
					c-4.4,4.7-9,9.7-14.3,14.5c-2.7,2.3-5.5,4.6-8.7,6.6c-3.1,2-6.5,3.7-10.1,5.2c-3.6,1.4-7.3,2.6-11.1,3.6l-0.7,0.2l-0.3,0.1
					l-0.4,0.1l-1.4,0.5c-0.5,0.1-0.9,0.4-1.3,0.5c-0.4,0.2-0.9,0.4-1.3,0.6c-1.7,0.9-3.3,2.1-4.7,3.4c-2.8,2.8-5,6.2-6.5,10
					c-1.5,3.8-2.5,7.9-3,12c-1,8.3-0.3,17.1,2,25.5c1.2,4.2,2.8,8.3,5.1,12c1.1,1.9,2.5,3.6,3.9,5.4c1.4,1.8,2.8,3.6,4.2,5.4
					c5.5,7.3,11,14.7,17.1,21.6c3,3.5,6.3,6.8,9.7,9.8c3.5,3,7.2,5.8,11.2,7.8c4,2.1,8.5,3.2,12.9,2.9c2.1-0.2,4.5-0.7,6.8-1.2
					l3.4-0.8l3.4-0.9c4.4-1.3,8.8-2.9,12.6-5.3c3.9-2.4,7.3-5.5,9.9-9.1c2.6-3.7,4.4-7.9,5.8-12.3l0.9-3.3c0.2-0.5,0.3-1.1,0.4-1.7
					l0.3-1.7c0.2-1.1,0.4-2.2,0.6-3.4l0.4-3.4c0.3-2.3,0.5-4.6,0.8-6.9l0.2-1.7l0.3-1.7l0.6-3.5c0.2-1.2,0.5-2.3,0.8-3.4l0.8-3.4
					c0.7-2.2,1.3-4.4,2.1-6.6c3.1-8.7,7.5-16.8,12.8-24c5.4-7.1,11.8-13.5,19.2-18c0.5-0.3,0.9-0.6,1.4-0.8l1.4-0.7
					c1-0.5,1.9-1,2.9-1.4c1.9-0.9,3.8-1.8,5.7-2.7c3.7-1.8,7.4-3.7,10.9-5.7c7-4,13.5-8.5,18.9-13.8c2.7-2.7,5.1-5.6,6.9-8.7
					c1.9-3.1,3.2-6.5,3.8-10c0.6-3.5,0.4-6.9-0.4-10.2c-0.2-0.8-0.4-1.6-0.7-2.4c-0.3-0.8-0.6-1.6-0.9-2.3c-0.4-0.7-0.7-1.5-1.1-2.2
					c-0.4-0.7-0.8-1.4-1.2-2.1c-3.4-5.5-8.6-9.2-13.9-11.4c-5.3-2.2-10.7-3-15.7-3.2c-5-0.2-9.5,0.2-13.6,0.9
					c-8.2,1.4-14.3,3.6-18.4,5.3c-1,0.4-1.9,0.8-2.7,1.2c-0.8,0.3-1.4,0.6-1.9,0.9C352.8,163.1,352.2,163.3,352.2,163.3z
					 M352.2,163.3c0,0,0.5-0.3,1.6-0.8c0.5-0.3,1.1-0.6,1.9-0.9c0.8-0.4,1.7-0.8,2.7-1.2c4.1-1.7,10.2-4,18.4-5.4
					c4.1-0.7,8.7-1.2,13.7-1c5,0.2,10.4,0.9,15.8,3.1c5.3,2.1,10.6,5.9,14.1,11.4c0.4,0.7,0.8,1.4,1.2,2.1c0.4,0.7,0.7,1.5,1.1,2.2
					c0.3,0.8,0.6,1.6,0.9,2.4c0.3,0.8,0.5,1.6,0.7,2.4c0.8,3.3,1.1,6.9,0.6,10.4c-0.5,3.6-1.8,7-3.7,10.3c-1.9,3.2-4.3,6.2-6.9,9
					c-5.4,5.5-11.9,10.1-18.9,14.3c-3.5,2.1-7.1,4-10.9,5.9c-1.9,0.9-3.8,1.9-5.7,2.8c-1,0.4-1.9,0.9-2.8,1.4l-1.4,0.7
					c-0.5,0.3-0.9,0.6-1.3,0.8c-7.1,4.4-13.2,10.7-18.4,17.7c-5.1,7.1-9.2,15.1-12.1,23.6c-0.7,2.1-1.3,4.3-2,6.5l-0.8,3.3
					c-0.2,1.1-0.6,2.2-0.7,3.3l-0.6,3.3l-0.3,1.7l-0.2,1.7c-0.2,2.3-0.5,4.6-0.7,6.9L337,305c-0.1,1.2-0.4,2.3-0.6,3.5l-0.3,1.8
					c-0.1,0.6-0.2,1.2-0.4,1.7l-0.9,3.5c-1.4,4.6-3.3,9.1-6.1,13.1c-2.8,4-6.5,7.4-10.7,10c-4.2,2.6-8.7,4.4-13.4,5.7l-3.5,0.9
					l-3.5,0.8c-1.2,0.2-2.3,0.4-3.5,0.7c-1.1,0.2-2.4,0.4-3.7,0.5c-5.1,0.3-10-1.1-14.3-3.3c-4.4-2.2-8.2-5.1-11.8-8.3
					c-3.5-3.2-6.8-6.6-9.9-10.1c-6.2-7.1-11.7-14.5-17.1-21.9c-1.4-1.8-2.7-3.6-4.1-5.4c-1.4-1.8-2.8-3.7-4-5.7
					c-2.3-4-4-8.3-5.1-12.6c-2.3-8.7-2.8-17.7-1.7-26.3c0.6-4.3,1.7-8.5,3.3-12.4c1.6-3.9,4-7.5,7-10.4c1.5-1.4,3.2-2.6,5.1-3.6
					c0.4-0.3,0.9-0.4,1.4-0.6c0.5-0.2,1-0.4,1.4-0.6l1.4-0.4l0.4-0.1l0.4-0.1l0.7-0.2c3.8-0.9,7.5-2.1,11.1-3.4
					c3.5-1.4,6.9-3,10-4.9c3.1-1.9,6-4.1,8.7-6.4c5.3-4.6,10-9.5,14.4-14.3c2.2-2.4,4.3-4.7,6.4-6.9c2.1-2.2,4.1-4.4,6.3-6.3
					c4.4-3.8,9.1-6.6,13.8-8.3c2.4-0.8,4.7-1.3,7-1.6c2.3-0.3,4.4-0.7,6.4-1.1c8.1-1.7,14.2-4,18.3-5.7c2-0.9,3.6-1.6,4.6-2.1
					C351.7,163.6,352.2,163.3,352.2,163.3z"/>
			</g>
			<g id="XMLID_11144_">
				<defs>
					<path id="XMLID_11145_" d="M352.2,163.3c-9.9,5.1-20.5,8.4-31.5,9.9c-6.9,0.9-15.7,4.6-25.1,14.8
						c-21.3,23.1-28.6,31.8-52.8,37.9s-24.8,50.7-9.9,69.6c14.9,18.9,36.5,53.8,59.7,49.9s41.1-11.5,43.7-46.3s22.9-60.5,41.1-69
						s57.5-27.8,45.1-57.1C412.5,149.5,378.5,149.8,352.2,163.3z"/>
				</defs>
				<clipPath id="XMLID_4_">
					<use xlink:href="#XMLID_11145_"  style="overflow:visible;"/>
				</clipPath>
				<g id="XMLID_11146_" class="st12">
					<path id="XMLID_11159_" class="st3" d="M385.7,200.7c-7.8-1.4-16.9,0.1-24.9-0.1c-8.2-0.2-15.7,1.9-23.3,4.7
						c-8.7,3.2-16.5,7.2-24.5,11.7c-5.8,3.3-12.1,5.6-17.9,8.9c-4.4,2.4-9.4,5.5-13.9,6.9c0.4-0.5,0.6-0.8,1-1.3
						c-14.4,9.7-28.2,18.5-37.3,33.4c-5.4,8.8-16.8,13.4-15.1,24.4c0.4,2.8,0.6,0,2,3.5c1.3,3.1,0.8-2.6,0.3,1.2c0.1,0,4.7-18.1,0,0
						c3.1-7.6-1.6,2.6,1.6-5.1c3.7-8.8,9.1-15.9,14.4-23.4c17-23.7,45.9-33.6,70.5-46.2c6.1-3.1,9.9-8.6,15.8-11.4
						c6.2-2.9,13.9-4.6,20.8-4c7.2,0.6,15.2,2.6,22.3,0.8c2.3-0.6,4.1-2,6.4-2.6c2.8-0.7,5.3,0,8-1c-1.6-1.4-7.4-1.2-9.8-1.1"/>
					<path id="XMLID_11158_" class="st3" d="M390,156.3c-2.7-0.4-5.5-0.8-8.2-0.8c0.1,0.5,0,1.3,0.3,2c-1.9,1.5-6.2,0.9-8.6,1.4
						c-3.8,0.8-8.2,3.3-12.1,3.2c0.3-0.7,0.1-2.2,0.2-2.7c-9.8-4-20.7-1.4-30.2,1.7c7.8,0.7,17.8-2.7,25.3,0
						c-0.9,3.4,1.4,2.6,3.6,3.1c4.1,0.9,3.6,0.2,7.4-1.5c3-1.3,16.1-0.7,15.2-4.3c0.5-0.4,0.9-1.1,1.3-1.6c-0.4-1.3-1.2-1.5-2.5-1.6
						"/>
					<path id="XMLID_11157_" class="st3" d="M340.6,179.5c-3.3,1.2-6.9,2.2-10,3.3c0.4,0.1,0.9,0.4,1.3,0.6
						c-5.4,4.4-13.1,5.9-19.5,8.4c-6.3,2.4-11,7.8-17,10.4c-0.1-0.2-0.1-0.3-0.1-0.5c-2.9,0.1-6,0.9-8.7,1.9c-2-1.6-2.4-4.6-5.2-4.1
						c0-3.6,6.2-10.7,9.2-13c-6.2,5.1-8.5,12.2-12.7,18.6c2.6,0.5,5-2.2,7.1,0.6c4.3-2.2,9.1-2,13.4-4.2c5.4-2.8,10.8-5.6,16-8.3
						c9-4.7,18.3-7.9,26.9-13.4"/>
					<path id="XMLID_11156_" class="st4" d="M266.3,176.8c-2.5,4.3-12.1,10.4-2.9,13.8c-1.7,4.8-4.7,9.2-8.7,12.2
						c0.5,0.3,1.1,1.1,1.9,1.4c-0.2,5-5.4,12.9-7.9,16.9c4.1-4.5,7.5-9.3,11.9-13.4c-1,0.9-2.3,2-3.6,2.7c0-4.5-1-6.7,1.5-10.1
						c1.6-2.1,3.9-3.7,5.3-6.2c0.9-1.7,1.2-3.9,2.1-5.5c-10,0.7,2.5-12.9,3.6-15.1c-0.2,0.8-0.5,1.6-0.8,2.4"/>
					<g id="XMLID_11151_">
						<path id="XMLID_11155_" class="st5" d="M429.3,150.4c-1.2-1.1-13.8,3.2-17,3.4c-9.9,0.8-19.6,0.7-29.5,1.2
							c-24.7,1.2-53.3,0.5-75,12.9c1.1-0.1,2.5,0.7,3.6,0.8c-0.7,9.1-12.8,10.5-18.4,15.7c-6.6,6.1-11.9,14.1-18.7,20.1
							c-3.7,3.3-4.9,2.9-4.7-2.3c-3.4,5.7-11.1,10.2-15.8,15.1c-5.9,6.2-12.3,11.9-18.3,18.1c-4.7,4.9-9.3,9.7-12.1,16.1
							c-2.6,6-4.4,6.4-5.9,12.8c4-9.4,4.8-12.2,10.5-20.7c9.5-14.1,22.1-25.9,36.7-34.3c-8.5,9-18.9,18.4-25.3,29.2
							c7-4.9,12.2-13.9,18.9-19.6c3.8-3.2,7.9-6,12.3-8.1c7.7-3.6,17.4-6.8,23.9-11.7c-4.8,3.5-11.3,4.7-16.6,7.5
							c-3.1,1.6-6.5,4-9.8,4.7c7-4.2,12.6-11.9,18.8-17c5.3-4.4,10.3-8.3,15-13.4c4.4-4.6,10.5-8.9,16.4-11.4
							c4.9-2.1,13.2-5.7,18.5-5.9c-2.8-0.5-5.7,1-8.5-0.3c5.1-4.4,17.9-3.8,24.4-4.5c9.6-1,18.8-2.4,28.6-2.4
							c14.8-0.1,26,1,40.7,0.8c-4.1,2.1-0.2,5.3-5.7,6c-14.3,1.6-28.7,4.1-42.5,7.9c7.2,0.4,14.2-1.2,21.2-2.2
							c-11.1,1.9-22.5,3.9-33.5,5.5c5.8-4.9,11.9-6.2,18.4-9.2c-9.8,1.8-20.3,3.3-29.1,8c3.1-0.1,6.8-1.7,7.7,2.4
							c-6.5,5.7-17.7,6.6-25.5,10c-12.6,5.4-26.3,9.5-37.7,17.4c0.9-0.6,2-0.8,3-1.3c0.2,0.3,0.4,0.5,0.7,0.5
							c-6.3,3.8-13.8,6.2-19.7,10.5c-2,1.4-5.2,3.7-6.4,5.9c-0.7,1.4,0,3.4-0.8,4.7c-2.4,4.2-10,7.3-13.7,10.5
							c-4,3.4-8.3,7.6-10.9,12.3c3.4,1.5,8.6-1.3,9.9-3.6c1.8-3.2,0.8-4.6,3.7-7.2c3.3-3,7.5-3.6,11-5.9c-2.9,2.4,0,4.1-0.6,6.3
							c-1,3.4-7.3,5.8-10.1,7.6c-4.1,2.6-6.6,4.2-9.2,8.1c-2.9,4.5-5.6,6.3-10.1,9.1c-8,4.9-12.6,6.2-17.6,14.4
							c-3,5,1.5,3.9,3.1,9.8c2.7-7.2,2.4-5.5,8.6-10c-0.2,1.4-0.4,2.9-0.9,4.2c3.7-1.8,4.9-7,6.8-10.3c3.1-5.2,6.1-10.5,10.6-14.5
							c9.1-8,19.4-16.3,29.3-23.3c-1.8-0.4-3.5-1.5-5.1-2.6c2.5-4.5,1.1-8.6,5.5-12c7.4-5.7,16.4-8.5,24-13.9
							c11-7.8,21.4-14.3,34.7-17.9c5.5-1.5,16.5-7.4,22.2-6.1c2.6,0.6,2.8,2.6,4.4,5.3c-3.7,3-8.6,3.7-12.6,6.1
							c2.3,3.7,3.5,5,0.3,7.4c-2.9,2.1-8.8,2.5-12.2,3.6c-4.4,1.4-8.3,3.4-12.6,5.2c-4.1,1.8-10.5,2.4-13.7,5.6
							c-1.2,1.2-1.2,3.4-2.9,4.7c7.4-3.3,15.7-6.1,23.6-8.7c7.2-2.3,13-6.6,21-6.2c8.7,0.3,17.2-0.4,25.7-0.9c4.9-0.3,12.6,0,17-1.9
							c-4.5-4.2-14.6-1.5-19.8-1.4c-4.6,0.2-14.2,2-18.6-0.6c3-5.9,3.7-13.5,7.7-18c2.8-3.1,8-3.1,12-3.5c5.4-0.5,10.3-1.6,15.4-3.5
							c5.3-2,9.7-3.2,15.2-4.3c2.6-0.5,5.7-1.1,7.9-2.5c5.5-3.4,6.7-9.8,9.3-14.6"/>
						<path id="XMLID_11154_" class="st5" d="M402.1,209.5c-4.2-1.2-9.8,1.2-13.2,3.1c-6.3,3.6-12.9,6.4-19.4,9.8
							c1.5-0.9,2.9-2,4.2-3.2c-6.8,2.1-6.4,3.5-10.8-2.7c-2.8,1.1-6.5,2.1-9.5,2.4c-4,0.5-7.4-0.7-11.6-0.1
							c-3.8,0.5-10.6,1-13.8,3.3c-3,2.3-5.7,5.5-8.9,8.1c2.7,0.8,8.3-2.1,10.7-3.7c0.1,0.2,0.1,0.8-0.2,0.6c3.5-1.3,3.8-3.9,8.2-4.9
							c4.6-1,9.3-1.2,13.9-1.9c2.7-0.4,7-1.8,9.6-0.7c2,0.9,2.7,2.8,4.5,4c-5.9,3.3-16.5,5-20.7,10.7c-1.4,1.9-0.6,3.6-1.1,5.5
							c-1,3.5,1.4,1.1-2.8,3.1c-6.8,3.3-13.4,5.1-19.5,9.7c-5.1,3.8-9.3,8-15.1,11.2c4.2-6.8,13.4-8.3,18-14.1
							c1.7-2.2,1.9-5.9,3-8.7c1.5-3.8,4.6-5.9,7.5-8.5c-3.4,2.2-6.1,5.1-9.4,7.2c6.3,6.8-18,19.1-21.9,21.6
							c-5.5,3.6-11,2.4-16.6,5.3c-3.5,1.8-4,2.8-6.9,1.7c-0.8-0.3-1.9-1.9-2.9-2.3c-1.6-0.6-4.5,0.3-6.1,0.5c0.5-3-0.8-7,0.1-9.7
							c1.3-3.9,6.3-6.6,9.4-8.7c8-5.3,14.7-12.7,23.3-5.4c-3,3.1-6.9,4.9-10.6,7.1c4.6,0.2,11.3-6.9,14.8-9.7
							c-0.4-1.5-1.1-2.8-2.1-3.9c-4.5,3.2-5.3,0.9-9.1-0.3c-5-1.5-8.4,1.7-12.3,4.3c-7,4.5-15.7,8.6-21.9,14.2
							c-5.2,4.7-8.1,11.2-14,15.5c-11.1,8.2-10,9-18.4,20.3c2.7,2.1,4.2,3.1,3.9,6.6c3.1-5.7,4.7,7.2-0.6-1.3
							c-2.2-3.6,0.3-4,2.6-7.6c2.3-3.6,6-6.6,9-9.7c7.7-8.1,14.4-19.9,24.8-24.6c-3.2,5.8-4.2,12,3.1,14.2c0,4,6.1,4.4,7,8.4
							c0.7,2.8-2.5,4.9-2.8,7.8c-0.5,4.4,4.5,9,3.3,12.7c-1.2,3.6-9.7,7.3-12.3,9.8c-2.5,2.4-3.4,5.4-5.2,8.2
							c-3.5,5.2-6.5,3-11.9,6.2c-2.7-2.9-4.5-5.4-6.5-9.1c-2.3-4.2,6.4-7.3,9.4-10.2c5.2-5.1,9.3-11.7,15-16.3
							c-8.4,2.6-14.4,12.4-21.3,17.7c-5.3,4.1-4.4,0.7-4.1,7.9c0.3,7.1,6.1,11.9,10.5,17.5c2.3-2.4-2.9,6.6,0.2,5.4
							c0.9-0.3,1-2,2-2.4c1.6-0.6,2.3-1.9,3.5-3c2.3-2,7.8-5.1,8.3-8c0.5-3.3-2.3-5.7,0-9.6c3.3-5.9,10.5-8.1,13.6-14
							c2.7-5.1-2.2-11.4-0.7-17c0.6-2.3,2.7-3.3,4-5.4c1.5-2.5,0.5-3.2,3.1-5.1c5.1-3.7,8.7-1.2,14.1-2.2c2-0.3,3.7-1.6,5.5-2
							c0.6-0.1,1.3,1.2,2,0.9c1.2-0.3,1.4-1.5,2.3-2c5.8-3,11.1-7.7,16.7-11.3c3.6-2.3,7.2-4.8,11.1-6.5c3.2-1.5,6.7-1.3,9.6-3.7
							c-1.7-4.6-2.1-4.9,1.6-8c4.6-3.8,9.2-6.7,14.8-8.5c8.5-2.8,17.3-7.1,25.2-11.2c1.2,10.2-4.3,18-6.9,27.4
							c-1.3,4.8-3.7,7.1-7,4.5c-2.7-2.2-2.7-5.3-6.6-6.7c-2.7-1-5.9-1-8.7-1.4c4.2,7.4-1.1,6.2-1.8,12.4c-0.4,3.4,3.4,7.5,2,10.6
							c-1.7,3.6-10.1,5.9-13.2,8.6c-2.2,2-2.4,3.7-5.3,2.1c-1.9-1-2.4-5.1-4.6-5.5c-0.7-0.1-3.6,2-4.5,2.4c-3.3,1.5-4.9,2-7.7-1
							c-1.8-2-2.2-7.6-5.8-4.9c2.7-1.7,9.7-7.1,14.5-5.3c2.8,1.1,2.3,3.7,5.9,2.9c5.2-1.1,6.7-8.8,10.6-11.8
							c-5.7,0.8-5.5,11.3-12.1,9.7c-2.1-0.5-3.5-3.9-6-4c-2.4-0.1-6.7,3.2-8.8,4.3c-5.1,2.6-8.2,6.8-12.7,9.9
							c-4.8,3.2-10,6.2-15,9.2c-3.6,2.1-9.1,4.1-11.6,7.3c1.2-0.4,2.8-0.5,4-0.8c0.2,1.6-0.1,3.6,0,5.5c0.2,3.2,2,5.8,2.1,8.8
							c0.1,5.3-8,7.2-10.9,11.5c-2.9,4.2-4.3,8.6-8.7,11.4c-6.6,4.3-15.7,6.9-20.7,13.4c0,0.7,0.4,2.5,0.6,3.2
							c4.8-3.5,8.8-8.2,14.3-11.3c4.7-2.7,10.7-4.4,14.1-9c2.8-3.7,3.7-7.9,7.3-11.4c3.1-3,6.3-3.6,7-7.8c0.8-4.7-2.7-11.2-1.3-15.8
							c1.5-4.8,10.3-8.2,14.2-10.5c7.8-4.5,13.6-8.9,19.9,0.7c3.6-2.8,7.7-1.2,11.6-3c0.2,7,5.1,4.2,8.3,2.6
							c5.2-2.6,13.6-4.1,16.4-9.9c1.8-3.8,0.5-1.7-0.6-5.7c-0.8-3.1,0.2-4.9,1.6-7.6c0.5-0.9,2.3-5.8,3.1-6.4c2.4-1.8,5.2,2,7.3,4.1
							c3.4,3.4,5.4,2.8,10.2,0.8c4.7-2,1.3-3.4,2.9-8.1c1.8-5.6,7.7-9.6,9.7-15.3c1.8-5.2-1.3-10.7,3.5-14.7c0.5-0.1,0.6,0.2,0.5,1"
							/>
						<path id="XMLID_11153_" class="st3" d="M374.9,258.5c-7.6-1.9-15.5,8.9-21.6,12.9c-10.4,6.7-21.2,10.7-32.9,14.2
							c-12.1,3.6-19.3,15.3-29.6,21.8c-4.3,2.7-6.4,5.2-9.6,9.3c-3.5,4.4-7.9,7.1-12.9,9.7c-8.5,4.4-10.9,4.4-16.3,12.5
							c1.8,3.1,0,13.3,2.4,15.7c3-2.6,5.7-5.1,8.9-7.3c1.5-1,3.4-1.9,4.7-3.2c2.1-2.1,1-2.9,1.8-4.8c1.5-3.5,4.8-5.9,7.1-9.4
							c2.6-4,4.9-6.7,8.4-9.9c9.1-8.3,20-12.8,29.5-20.2c5.9-4.6,11.4-1.6,18-2.8c4.5-0.9,7.8-4.5,12.3-5.5c4.8-1.1,8.6-0.7,13.2-3
							c5.1-2.6,10-3.1,15.1-4.9c-0.5-6.8,1.5-9.9,3.9-15.9c1.4-3.5,1.7-6.8-3-8.5"/>
						<path id="XMLID_11152_" class="st5" d="M267.5,353.7c3.9-3.9,8.6-11.1,13.7-13.2c1.3-0.5,2.1,1.3,3.4,0.6
							c1.7-0.9,2.5-3.5,3.6-5c8-10.4,17.8-17.7,28.4-25c-1.8,1.7-4.2,3.9-4.4,6.6c6.7-4.1,14.3-6,21.1-9.9
							c5.7-3.3,9.7-6.4,14.2-10.5c6.3-5.8,16.3-3.2,24-3.4c-4.5,1.8-10.7,2-15,3.9c-2.7,1.2-4.3,3-7.2,4c-5.4,1.8-13.1,2.8-17.5,6.6
							c3.8,1,9.9,2.8,10.8,7.5c1.1,6-8.9,4.2-12.3,6.8c2.1-3.1,12.3-8.3,4.8-10.1c-6-1.4-15.9,4.1-21,7c-4.7,2.6-2.2,2.2-3.2,7
							c-1.2,6.1-7.9,7.1-9.4,12.7c-1.6,5.9-1.6,12.5-6.3,16.8c-2.9,2.7-6.8,4.1-10.2,6c2.2-4.3,6.3-7.9,8.9-12.1
							c2.2-3.5,3.5-7,5.3-10.7c3.4-6.9,8.3-11.3,9.9-19c-6.7,3.4-15,10.1-19.4,16.3c-2.3,3.2-3.4,5.9-7,8.2
							c-2.9,1.9-5.4,2.6-7.7,5.3c-2.4,2.8-3.4,5.7-6.9,7.2c-0.9-0.7-0.7-3.3-1.5-3.8"/>
					</g>
					<path id="XMLID_11150_" class="st3" d="M389.3,211.4c-3.5,0.6-8.2,3.3-11.1,5.4c0.9-0.5,1.9-0.5,2.9-0.2
						c-2.3,2.2-7.9,3.3-11,3.4c-1.1,0-2.7,0-3.6-0.5c-1.2-0.7-2-2.7-3.7-3.2c-3.3-1-8.6,0.8-11.9,1.5c-4.3,0.9-8.6,0.3-12.8,1
						c6,2.2,13.5-1.9,19.6-1.8c4.6,0,7.1,4.2,11.7,4.5c2,0.1,3.4-1.3,5.2-2c1.8-0.7,3.7-1.2,5.5-2.1c2.4-1.2,7.6-6,9.5-5.9"/>
					<path id="XMLID_11149_" class="st3" d="M239.3,302.7c-0.1,0.3-0.2,0.6-0.3,0.8c1.4-0.1,1.5,1.7,2.9,2c1,0.2,2.9-1.2,3.7-1.7
						c4.1-2.4,7.1-6.7,10.6-10c3.2-3,7.6-6,9.5-10c1.8-3.7,2.7-6.6,5.7-9.5c1.2-1.2,2.4-2.5,3.5-3.6c-5.3,3.3-7.4,10.5-9.8,15.7
						c1.3,0.2,2.7-1.1,4.1-1.6c2.2-0.8,4.7-0.5,6.7-1.9c2.6-1.7,4.1-4.7,6.5-6.7c1.6-1.3,3.5-2.6,4.8-4.2c1.7-2,2.5-4.5,5.5-5.1
						c4-0.9,8.2,1.3,12.5,0.1c8.5-2.3,13.6-9.4,21.3-13.3c4-2,8-3.8,11.8-6.3c1.2-0.8,8.7-5.8,10.3-4.6c0.1,0,0.2,0,0.2-0.1
						c-1.9,2.7-7.4,4.5-10.6,5.8c-3.3,1.3-6.2,3.6-9.1,5.5c-5.8,3.8-11.6,7.5-17.4,11.2c-5.7,3.7-11.4,2.8-17.9,3.2
						c-3.6,0.3-5,2.2-7.2,4.9c-1.8,2.3-4,3.8-6,5.8c-3.7,3.7-5.4,6.2-10.5,7.3c-5.1,1.1-8.5,3.8-12.1,7.5c-3.3,3.4-6.5,6.4-10.4,9.2
						c-1.1,0.8-4,4.5-5.6,3.9c-0.7-0.3-1-1.9-1.3-2.3c-0.8-1-1.6-1-1.5-1.4"/>
					<path id="XMLID_11148_" class="st6" d="M374.6,260.3c-0.7-0.1-2-1-3.6-0.5c-1.7,0.6-2.2,2.2-3.4,3.3c-3.8,3.7-8.7,6.5-13.1,9.4
						c-3,2-5.8,4.1-9,5.7c-3.3,1.7-7.4,2.8-10.4,5.1c7.5,0.5,14.8-5.9,22.2-6.9c3.4-0.4,8.2,3.2,11.4,1.9c2.9-1.2,1.8-8,3-10.8
						c0.7-1.6,3.9-5.1,2.3-6.6"/>
					<path id="XMLID_11147_" class="st6" d="M364.1,281.4c-2.1,1.3-6.2,0.5-8.8,1.1c-2.7,0.7-5,2.6-7.7,3.2c-2.4,0.6-5.1,0-7.5,0.4
						c-2.3,0.3-4.6,1-6.9,1.3c-4.7,0.7-8.7,2.5-13.3,3.7c-5.6,1.4-10.6,2.9-15.7,5.8c-6.3,3.6-11.9,10.1-16.8,15.4
						c-4.7,5.1-9.8,9.6-15.5,13.7c-4.1,2.9-8.5,5.2-11.8,9c-2.3,2.6-4.3,7.6-3.1,11.4c4.4-6.6,8.8-14.4,15-19.4
						c5.8-4.6,11.7-9,17.2-13.9c3.8-3.4,7.2-7.4,11.3-10.3c4.8-3.5,9.7-5.3,15-7.7c10.3-4.6,22.5-1.7,32.4-6.7
						c3.1-1.6,6.9-1.9,10.2-2.8c3.3-0.9,3.3-1.8,5.4-3.8"/>
				</g>
			</g>
		</g>
		<path id="XMLID_11142_" class="st7" d="M328.3,270.1c0,0,0.3,41.4-6.3,48.5s-23.8,30.9-48.4,11.9c-24.5-19-17.4-34.4-5.1-34
			c12.4,0.4,29.7,27.3,42,4.4C322.7,277.9,318.1,255.4,328.3,270.1z"/>
		<g id="XMLID_11139_" class="st8">
			<path id="XMLID_11141_" class="st9" d="M411.1,170c0,0-30.3-9.7-51.9-0.5c-21.6,9.2-31.8,15.2-41.2,14.1
				c-9.4-1-18.2,17.2-21.2,19.2c-2.9,2,9.3,36.7,38.3,10.1s43.7-33.2,60-29.7C411.5,186.7,421.6,179.5,411.1,170z"/>
			<path id="XMLID_11140_" class="st10" d="M405.4,172.7c0,0-26.3-4.8-33.7-2c-7.4,2.8-39.9,18.5-47.8,18.3s-15.5,7.4-15.9,11.6
				c-0.4,4.3,2.2,23.5,15.9,11.9c13.7-11.5,12.8-20.7,21.5-22.9s18.9-15.6,36.9-13.2C400.2,179,409.8,176.6,405.4,172.7z"/>
		</g>
	</g>
	<g id="XMLID_11109_">
		<g id="XMLID_11114_">
			<path id="XMLID_11137_" class="st0" d="M460.1,607c-7.2,8.4-15.8,15.5-25.4,20.9c-6,3.4-12.8,10.1-17.6,23.1
				c-11,29.3-14.5,40.1-34.6,54.8c-20.1,14.7-3.9,56.1,16.9,67.9c20.8,11.9,53.9,36,73.8,23.7c19.9-12.3,33.6-26,23-59
				s-1.5-64.4,12.1-79.1c13.6-14.7,42.6-47.1,20.3-69.5C510.6,571.7,479.3,584.7,460.1,607z"/>
			<g id="XMLID_11131_">
				<path id="XMLID_228_" class="st0" d="M460.1,607c-7.2,8.4-15.8,15.5-25.4,20.9c-6,3.4-12.8,10.1-17.6,23.1
					c-11,29.3-14.5,40.1-34.6,54.8c-20.1,14.7-3.9,56.1,16.9,67.9c20.8,11.9,53.9,36,73.8,23.7c19.9-12.3,33.6-26,23-59
					s-1.5-64.4,12.1-79.1c13.6-14.7,42.6-47.1,20.3-69.5C510.6,571.7,479.3,584.7,460.1,607z"/>
				<path id="XMLID_225_" class="st1" d="M460.1,607c0,0-0.4,0.4-1.1,1.3c-0.8,0.9-1.9,2.1-3.4,3.7c-3.1,3.1-7.8,7.6-14.7,12.2
					c-1.7,1.2-3.5,2.3-5.5,3.5c-2,1.1-3.9,2.5-5.8,4.1c-3.7,3.3-6.9,7.7-9.5,12.8c-1.3,2.5-2.4,5.3-3.5,8.1
					c-1.1,2.9-2.2,5.8-3.3,8.8c-2.3,6-4.7,12.4-7.8,18.7c-1.6,3.2-3.4,6.3-5.5,9.3c-2.2,3-4.6,5.9-7.4,8.5c-2.8,2.6-5.7,5.2-8.9,7.5
					l-0.6,0.5l-0.3,0.2l-0.3,0.2l-1.1,0.9c-0.4,0.3-0.7,0.7-1,1c-0.3,0.4-0.7,0.7-1,1.1c-1.2,1.5-2.3,3.2-3.1,4.9
					c-1.6,3.6-2.3,7.6-2.3,11.7c0,4.1,0.6,8.2,1.7,12.2c2.2,8.1,6.1,15.9,11.4,22.8c2.6,3.4,5.7,6.6,9.2,9.2
					c1.7,1.3,3.6,2.4,5.6,3.5c2,1.1,3.9,2.3,5.9,3.4c7.8,4.6,15.6,9.4,23.9,13.5c4.1,2.1,8.3,3.9,12.6,5.4c4.3,1.5,8.8,2.7,13.3,3
					c4.5,0.4,9-0.2,13-2.1c1.9-1,3.9-2.3,5.8-3.6l2.8-2l2.8-2.1c3.6-2.8,7-6,9.7-9.6c2.7-3.6,4.7-7.7,5.7-12.1
					c1.1-4.4,1.1-9,0.7-13.5l-0.4-3.4c-0.1-0.6-0.2-1.1-0.3-1.7l-0.3-1.7c-0.2-1.1-0.4-2.2-0.7-3.3l-0.9-3.3
					c-0.6-2.2-1.3-4.5-1.9-6.7l-0.5-1.7l-0.4-1.7l-0.7-3.4c-0.3-1.1-0.4-2.3-0.6-3.4l-0.5-3.4c-0.2-2.3-0.4-4.6-0.5-6.9
					c-0.3-9.2,0.6-18.3,2.8-27c2.4-8.6,5.8-16.8,11-23.8c0.3-0.4,0.6-0.9,1-1.3l1.1-1.2c0.7-0.8,1.4-1.6,2.1-2.4
					c1.4-1.5,2.8-3.1,4.2-4.6c2.8-3.1,5.4-6.2,7.9-9.4c4.9-6.3,9.3-12.9,12.3-19.9c1.5-3.5,2.6-7,3.2-10.6c0.6-3.6,0.5-7.2-0.2-10.6
					c-0.8-3.4-2.2-6.5-4.2-9.3c-0.5-0.7-1-1.4-1.5-2c-0.6-0.6-1.1-1.2-1.7-1.8c-0.6-0.6-1.2-1.1-1.8-1.7c-0.6-0.5-1.2-1-1.9-1.5
					c-5.2-3.8-11.4-5.3-17.1-5.3c-5.7,0-11,1.2-15.7,2.9c-4.7,1.7-8.7,3.8-12.2,6c-7,4.3-11.8,8.7-15,11.8c-0.8,0.8-1.5,1.5-2,2.1
					c-0.6,0.6-1.1,1.1-1.4,1.6C460.5,606.6,460.1,607,460.1,607z M460.1,607c0,0,0.4-0.4,1.1-1.3c0.4-0.4,0.8-1,1.4-1.6
					c0.6-0.6,1.2-1.3,2-2.1c3.1-3.1,7.9-7.5,14.9-11.9c3.5-2.2,7.6-4.3,12.2-6c4.7-1.7,10-3,15.7-3c5.7,0,12,1.5,17.3,5.3
					c0.7,0.5,1.3,1,1.9,1.5c0.6,0.5,1.2,1.1,1.8,1.7c0.6,0.6,1.1,1.2,1.7,1.8c0.6,0.6,1,1.3,1.6,2c2,2.7,3.6,5.9,4.4,9.4
					c0.9,3.5,0.9,7.2,0.4,10.9c-0.5,3.7-1.6,7.3-3.1,10.9c-2.9,7.1-7.2,13.8-12.1,20.3c-2.5,3.2-5.1,6.4-7.8,9.5
					c-1.4,1.6-2.8,3.1-4.2,4.7c-0.7,0.8-1.4,1.6-2,2.4l-1,1.2c-0.3,0.4-0.6,0.8-0.9,1.3c-4.9,6.8-8.2,14.9-10.4,23.3
					c-2,8.5-2.8,17.4-2.4,26.3c0.1,2.2,0.4,4.5,0.6,6.7l0.5,3.3c0.2,1.1,0.3,2.2,0.6,3.3l0.7,3.3l0.4,1.7l0.5,1.7
					c0.6,2.2,1.3,4.4,1.9,6.6l1,3.4c0.3,1.1,0.5,2.3,0.8,3.5l0.4,1.7c0.1,0.6,0.2,1.2,0.3,1.8l0.5,3.5c0.4,4.8,0.4,9.6-0.7,14.4
					c-1.1,4.8-3.2,9.3-6.1,13.2c-2.9,3.9-6.4,7.3-10.2,10.3l-2.9,2.1l-3,2c-1,0.7-2,1.3-3,1.9c-0.9,0.6-2.1,1.3-3.2,1.8
					c-4.6,2.2-9.7,2.8-14.5,2.3c-4.9-0.4-9.5-1.7-14-3.2c-4.5-1.6-8.8-3.5-12.9-5.7c-8.3-4.2-16.2-9.1-23.9-13.8
					c-1.9-1.2-3.9-2.3-5.8-3.5c-1.9-1.1-4-2.3-5.8-3.7c-3.6-2.8-6.8-6.2-9.5-9.8c-5.4-7.2-9.2-15.3-11.4-23.6
					c-1.1-4.2-1.6-8.4-1.6-12.7c0-4.2,0.8-8.4,2.6-12.2c0.9-1.9,2-3.6,3.3-5.2c0.3-0.4,0.7-0.7,1.1-1.1c0.4-0.4,0.7-0.8,1.1-1.1
					l1.2-0.9l0.3-0.2l0.3-0.2l0.6-0.4c3.2-2.3,6.1-4.8,8.9-7.3c2.7-2.6,5.2-5.4,7.4-8.3c2.2-2.9,4-6,5.6-9.1
					c3.2-6.3,5.7-12.6,8-18.6c1.1-3,2.3-5.9,3.3-8.8c1.1-2.8,2.2-5.6,3.5-8.2c2.6-5.1,5.9-9.5,9.6-12.8c1.9-1.7,3.9-3,5.8-4.1
					c2-1.1,3.8-2.3,5.5-3.4c6.8-4.6,11.6-9,14.7-12.1c1.6-1.6,2.7-2.8,3.5-3.7C459.7,607.4,460.1,607,460.1,607z"/>
			</g>
			<g id="XMLID_11115_">
				<defs>
					<path id="XMLID_11116_" d="M460.1,607c-7.2,8.4-15.8,15.5-25.4,20.9c-6,3.4-12.8,10.1-17.6,23.1c-11,29.3-14.5,40.1-34.6,54.8
						c-20.1,14.7-3.9,56.1,16.9,67.9c20.8,11.9,53.9,36,73.8,23.7c19.9-12.3,33.6-26,23-59s-1.5-64.4,12.1-79.1
						c13.6-14.7,42.6-47.1,20.3-69.5C510.6,571.7,479.3,584.7,460.1,607z"/>
				</defs>
				<clipPath id="XMLID_5_">
					<use xlink:href="#XMLID_11116_"  style="overflow:visible;"/>
				</clipPath>
				<g id="XMLID_11117_" class="st13">
					<path id="XMLID_11130_" class="st3" d="M505,628.9c-7.8,1.6-15.6,6.4-23,9.2c-7.7,2.9-13.8,7.6-19.8,13
						c-6.8,6.2-12.5,12.8-18.3,20c-4.1,5.2-9.1,9.7-13.2,14.9c-3.1,3.9-6.7,8.6-10.2,11.5c0.2-0.6,0.3-1,0.4-1.6
						c-9.7,14.3-19.1,27.6-21.9,44.8c-1.7,10.1-10.5,18.7-4.8,28.1c1.4,2.4,0.5-0.2,3.2,2.5c2.3,2.4-0.2-2.7,0.7,1
						c0.1-0.1-2.4-18.5,0,0c0-8.2-0.5,3.1-0.4-5.3c0.1-9.5,2.4-18.1,4.6-27c6.8-28.3,29.8-48.2,47.8-69c4.5-5.2,5.9-11.7,10.3-16.5
						c4.6-5,11.1-9.4,17.7-11.5c6.9-2.2,15-3.3,20.9-7.6c1.9-1.4,3-3.4,4.9-4.8c2.3-1.7,4.9-2,7-3.9c-2-0.7-7.3,1.6-9.5,2.6"/>
					<path id="XMLID_11129_" class="st3" d="M492.4,586.4c-2.6,0.6-5.3,1.3-7.8,2.3c0.3,0.4,0.5,1.2,1,1.8c-1.1,2.1-5.4,3.2-7.4,4.5
						c-3.2,2.2-6.4,6.1-10,7.5c0-0.7-0.8-2.1-0.8-2.6c-10.5,0-19.6,6.5-27.2,12.8c7.4-2.3,15.4-9.2,23.3-9.5
						c0.4,3.5,2.2,1.9,4.4,1.5c4.1-0.7,3.4-1.2,6.3-4.2c2.2-2.3,14.6-6.7,12.4-9.6c0.3-0.6,0.4-1.3,0.6-2c-0.9-1.1-1.7-0.9-2.8-0.5"
						/>
					<path id="XMLID_11128_" class="st3" d="M455.5,626.3c-2.6,2.3-5.5,4.6-8,6.8c0.4,0,1,0,1.4,0c-3.4,6.1-9.9,10.4-14.9,15
						c-4.9,4.6-7.3,11.3-11.9,15.9c-0.1-0.1-0.2-0.3-0.3-0.5c-2.7,1.2-5.2,3.1-7.3,5c-2.5-0.8-3.9-3.3-6.3-1.8
						c-1.4-3.3,1.7-12.1,3.6-15.5c-3.9,7-3.3,14.5-4.8,21.9c2.6-0.5,3.8-3.9,6.7-2.1c3.2-3.7,7.6-5.2,10.8-8.9
						c3.9-4.6,7.9-9.2,11.6-13.6c6.6-7.7,13.9-14.1,19.8-22.5"/>
					<path id="XMLID_11127_" class="st4" d="M385.9,651.6c-0.7,4.9-7.3,14.1,2.5,13.8c0.2,5.1-0.9,10.2-3.5,14.5
						c0.6,0.1,1.4,0.6,2.2,0.6c1.7,4.7-0.2,13.9-0.9,18.5c2.1-5.6,3.4-11.4,6-16.8c-0.6,1.2-1.4,2.7-2.3,3.8
						c-1.7-4.2-3.4-5.8-2.4-9.9c0.6-2.6,2.3-4.9,2.5-7.7c0.2-1.9-0.4-4.1-0.1-5.9c-9,4.4-2.5-12.9-2.3-15.3c0.1,0.8,0.2,1.7,0.2,2.5
						"/>
					<g id="XMLID_11122_">
						<path id="XMLID_11126_" class="st5" d="M526.4,566.2c-1.5-0.6-11.6,8.1-14.4,9.5c-8.8,4.5-17.8,8-26.8,12.1
							c-22.4,10.3-49,20.4-64.4,40c1-0.5,2.5-0.3,3.7-0.6c2.8,8.7-7.9,14.4-11.1,21.4c-3.8,8.1-5.7,17.5-9.7,25.6
							c-2.2,4.4-3.5,4.5-5.2-0.4c-1,6.6-6.5,13.6-8.9,19.9c-3.1,7.9-6.9,15.6-10.1,23.6c-2.5,6.3-5,12.4-5.2,19.3
							c-0.2,6.5-1.6,7.6-0.7,14c0.2-10.1-0.2-13.1,1.9-23c3.5-16.6,10.7-32.2,21.1-45.4c-4.5,11.5-10.6,24-12.5,36.4
							c4.6-7.1,6.1-17.4,10.1-25.2c2.3-4.4,5-8.5,8.4-12.1c5.8-6.3,13.5-12.8,17.7-19.7c-3.1,5.1-8.7,8.6-12.6,13.1
							c-2.2,2.6-4.5,6.1-7.3,8c4.8-6.5,7.2-15.7,11-22.8c3.3-6,6.4-11.5,8.9-18c2.3-5.9,6.4-12.1,10.9-16.6
							c3.8-3.8,10.1-10.2,14.9-12.4c-2.8,0.6-4.9,3.1-8,2.9c3.1-5.9,15.1-10.2,20.9-13.3c8.5-4.5,16.5-9.2,25.5-12.9
							c13.6-5.7,24.4-8.8,37.8-14.4c-3,3.5,1.9,5-3.1,7.6c-12.6,6.8-24.9,14.5-36.3,23.2c6.7-2.3,12.6-6.5,18.7-9.9
							c-9.6,5.9-19.3,12.1-28.9,17.6c3.6-6.7,8.6-10.1,13.5-15.4c-8.3,5.4-17.5,10.7-23.9,18.3c2.8-1.3,5.6-4.1,8-0.6
							c-3.9,7.7-13.8,12.7-19.8,18.7c-9.7,9.7-20.7,18.6-28.2,30.2c0.6-0.9,1.5-1.5,2.3-2.3c0.3,0.2,0.6,0.3,0.9,0.2
							c-4.4,5.9-10.4,10.9-14.2,17c-1.3,2.1-3.4,5.3-3.7,7.8c-0.1,1.6,1.3,3.2,1,4.7c-0.7,4.7-6.5,10.5-8.8,14.8
							c-2.5,4.6-4.9,10.1-5.5,15.4c3.7,0.1,7.4-4.4,7.8-7c0.5-3.6-1-4.5,0.7-8c1.9-4,5.6-6.1,7.9-9.6c-1.7,3.3,1.6,3.8,1.8,6
							c0.3,3.6-4.6,8.1-6.5,10.7c-2.8,4-4.6,6.4-5.5,10.9c-1,5.2-2.8,7.9-5.9,12.2c-5.5,7.5-9.3,10.4-10.8,19.9
							c-0.9,5.8,2.9,3,6.6,7.9c-0.2-7.7,0.1-6,4.2-12.4c0.3,1.4,0.7,2.8,0.7,4.3c2.7-3,1.9-8.2,2.4-12c0.9-6,1.7-11.9,4.4-17.3
							c5.4-10.8,11.8-22.3,18.3-32.5c-1.8,0.3-3.8-0.1-5.7-0.4c0.6-5.1-2.2-8.4,0.5-13.1c4.7-8,12-13.9,17-21.8
							c7.2-11.3,14.4-21.3,25.3-29.5c4.5-3.4,12.5-13,18.2-13.9c2.7-0.4,3.5,1.4,6.1,3.2c-2.3,4.2-6.6,6.6-9.4,10.3
							c3.5,2.5,5.1,3.3,3,6.8c-1.8,3-7.2,5.6-9.9,7.9c-3.6,2.9-6.4,6.3-9.6,9.5c-3.2,3.2-8.8,6.1-10.6,10.3
							c-0.6,1.5,0.1,3.6-0.9,5.4c5.6-5.9,12.2-11.5,18.6-16.9c5.8-4.8,9.6-10.9,17-13.6c8.1-2.9,15.7-6.8,23.4-10.5
							c4.4-2.1,11.6-4.8,14.9-8.1c-5.7-2.2-14.1,4-18.8,6.2c-4.2,1.9-12.3,7.2-17.4,6.4c0.6-6.5-1.6-13.8,0.4-19.5
							c1.4-3.9,6.2-5.8,9.8-7.7c4.8-2.5,9-5.3,12.9-9c4.1-3.9,7.7-6.5,12.4-9.6c2.2-1.5,4.8-3.1,6.4-5.2c3.8-5.2,2.6-11.6,3.1-17"/>
						<path id="XMLID_11125_" class="st5" d="M523.4,631c-4.4,0.4-8.6,4.7-11,7.8c-4.5,5.7-9.5,10.8-14.2,16.3
							c1.1-1.4,1.9-2.9,2.7-4.5c-5.5,4.4-4.6,5.6-10.9,1.5c-2.2,2.1-5.2,4.3-7.9,5.8c-3.5,1.9-7.1,2.1-10.7,4.2
							c-3.3,1.9-9.4,4.9-11.4,8.2c-1.9,3.2-3.2,7.2-5.2,10.8c2.8-0.2,6.8-5.1,8.5-7.4c0.2,0.1,0.4,0.7,0,0.6
							c2.8-2.5,2.1-5.1,5.7-7.6c3.8-2.6,8.1-4.6,12.2-6.9c2.4-1.4,5.8-4.3,8.6-4.2c2.2,0.1,3.5,1.6,5.7,2
							c-4.2,5.2-13.4,10.7-15.1,17.6c-0.6,2.2,0.8,3.5,1,5.5c0.4,3.6,1.7,0.5-1.4,3.9c-5.1,5.6-10.4,9.7-14.4,16.2
							c-3.3,5.4-5.6,10.9-9.7,16c1.3-7.9,9.3-12.7,11.4-19.8c0.8-2.6-0.5-6.2-0.5-9.1c0-4.1,2.1-7.2,3.8-10.7c-2.3,3.3-3.8,7-6,10.2
							c8.3,3.9-9.5,24.4-12.1,28.2c-3.8,5.4-9.2,6.4-13.3,11.1c-2.5,2.9-2.7,4-5.7,4.2c-0.8,0-2.4-1.1-3.6-1.1c-1.7,0-4,2-5.5,2.8
							c-0.6-2.9-3.4-6.1-3.6-9c-0.3-4.1,3.3-8.5,5.4-11.6c5.3-7.9,8.8-17.2,19.5-13.7c-1.6,4-4.6,7.1-7.2,10.5
							c4.3-1.5,7.9-10.6,10-14.5c-0.9-1.2-2.1-2.2-3.4-2.8c-3,4.6-4.5,2.8-8.5,3.2c-5.2,0.5-7.1,4.7-9.8,8.6
							c-4.8,6.8-11.3,13.8-14.9,21.3c-3.1,6.3-3.3,13.3-7.1,19.6c-7.2,11.7-5.9,12-9.4,25.6c3.2,0.9,5,1.3,6.1,4.6
							c0.7-6.4,7,4.9-1-1c-3.4-2.5-1.2-3.8-0.4-8c0.8-4.2,3.1-8.3,4.6-12.3c4.1-10.3,5.9-23.7,13.7-32c-0.8,6.6,0.6,12.7,8.2,12
							c1.5,3.7,7.3,1.8,9.6,5.1c1.7,2.3-0.4,5.5,0.3,8.3c1.2,4.3,7.5,6.6,7.8,10.5c0.3,3.8-6.3,10.4-7.7,13.6
							c-1.4,3.2-1.1,6.3-1.8,9.5c-1.3,6.1-4.9,5.2-8.7,10.2c-3.6-1.7-6.1-3.3-9.4-6c-3.7-3.1,3.2-9.2,4.9-13
							c2.9-6.6,4.2-14.3,7.7-20.7c-6.8,5.6-8.7,16.8-13.1,24.3c-3.4,5.7-3.8,2.3-0.8,8.8c2.9,6.4,10.1,8.7,16.2,12.3
							c1.2-3-0.2,7.2,2.2,4.9c0.7-0.6,0.1-2.2,1-3c1.2-1.1,1.4-2.6,2.1-4c1.4-2.7,5.3-7.6,4.7-10.5c-0.8-3.2-4.2-4.4-3.6-8.9
							c0.8-6.7,6.6-11.4,7.3-18c0.6-5.7-6.3-9.6-7-15.4c-0.3-2.4,1.2-4,1.7-6.5c0.5-2.9-0.8-3.1,1-5.9c3.3-5.3,7.6-4.4,12.2-7.3
							c1.7-1,2.8-2.8,4.3-3.8c0.5-0.3,1.6,0.6,2.2,0.1c0.9-0.8,0.7-1.9,1.4-2.7c4.2-4.9,7.4-11.3,11.2-16.6
							c2.4-3.5,4.9-7.1,7.8-10.2c2.4-2.5,5.7-3.7,7.5-7c-3.3-3.6-3.8-3.8-1.5-7.9c2.8-5.2,5.9-9.6,10.4-13.4
							c6.8-5.7,13.3-13,19-19.8c4.9,8.9,2.8,18.3,3.9,27.9c0.6,4.9-0.8,7.9-4.8,6.8c-3.3-1-4.4-3.9-8.6-3.7c-2.8,0.1-5.9,1.3-8.5,2
							c6.7,5.2,1.3,6.2,3,12.1c0.9,3.3,6,5.7,5.8,9c-0.3,4-7.1,9.2-8.9,12.9c-1.3,2.7-0.8,4.3-4.1,4c-2.2-0.2-4.1-3.8-6.3-3.4
							c-0.7,0.1-2.6,3.2-3.2,3.9c-2.5,2.6-3.8,3.7-7.5,1.9c-2.4-1.2-4.8-6.2-7.2-2.4c1.8-2.6,6.2-10.2,11.4-10.3
							c3-0.1,3.5,2.5,6.6,0.5c4.4-3,2.9-10.6,5.3-14.9c-4.9,2.9-0.8,12.5-7.6,13.5c-2.1,0.3-4.7-2.3-7-1.5c-2.2,0.8-5,5.4-6.6,7.2
							c-3.8,4.3-5,9.3-8.1,13.9c-3.2,4.8-6.9,9.5-10.5,14.1c-2.6,3.3-6.8,7.2-8,11.1c1-0.8,2.4-1.5,3.4-2.2c0.8,1.4,1.3,3.3,2.1,5
							c1.4,2.9,4.1,4.6,5.2,7.3c2.1,4.9-4.7,9.7-5.7,14.7c-1.1,5-0.8,9.5-3.8,13.8c-4.5,6.4-11.9,12.3-14.1,20.2
							c0.3,0.7,1.3,2.2,1.8,2.7c3.1-5,5.1-10.8,9-15.8c3.3-4.3,8.3-8.1,9.7-13.5c1.2-4.5,0.4-8.7,2.5-13.2c1.8-3.9,4.5-5.7,3.6-9.8
							c-1-4.6-6.7-9.3-7.1-14.1c-0.5-5,6.4-11.4,9.2-15.1c5.5-7.1,9.3-13.3,18.6-6.8c2.3-4,6.7-4,9.6-7.1c2.8,6.3,6.3,2,8.7-0.7
							c3.8-4.4,11-8.9,11.4-15.2c0.3-4.2-0.2-1.8-2.7-5.1c-1.9-2.6-1.6-4.6-1.3-7.6c0.1-1-0.1-6.3,0.4-7.1c1.6-2.5,5.6-0.1,8.3,1.1
							c4.4,1.9,6.1,0.6,9.7-3c3.6-3.6,0-3.7-0.4-8.5c-0.4-5.9,3.5-11.8,3.2-17.8c-0.3-5.5-5.2-9.3-2.3-14.8c0.4-0.3,0.7-0.1,0.9,0.7
							"/>
						<path id="XMLID_11124_" class="st3" d="M516.6,686.3c-7.8,1.1-11,14-15.1,20c-7.1,10.1-15.6,17.8-25.1,25.5
							c-9.8,7.9-12.1,21.4-19.1,31.2c-2.9,4.1-4,7.2-5.4,12.2c-1.6,5.4-4.7,9.5-8.3,13.8c-6.2,7.2-8.5,8.1-10.3,17.6
							c2.8,2.1,5,12.3,8.1,13.6c1.8-3.5,3.3-6.9,5.5-10.1c1-1.5,2.4-3,3.1-4.7c1.2-2.8-0.1-3-0.1-5.1c0.1-3.8,2.3-7.2,3.1-11.3
							c0.9-4.6,2-8,4-12.2c5.3-11,13.6-19.3,19.7-29.7c3.8-6.4,9.9-5.7,15.5-9.3c3.9-2.5,5.5-7.1,9.3-9.7c4.1-2.8,7.7-3.8,11.1-7.7
							c3.7-4.2,8-6.6,12.1-10.2c-3-6.1-2.3-9.7-2.3-16.1c0-3.8-1-7-5.9-6.7"/>
						<path id="XMLID_11123_" class="st5" d="M453.1,814.5c2.1-5.1,3.7-13.5,7.7-17.4c1-0.9,2.5,0.4,3.4-0.8c1.2-1.5,1-4.2,1.5-6
							c3.5-12.6,9.8-23,16.9-33.7c-1.1,2.3-2.4,5.2-1.6,7.8c4.6-6.3,11-10.9,15.8-17.1c4-5.2,6.6-9.5,9.2-15
							c3.6-7.7,13.8-9.1,20.9-12.1c-3.5,3.3-9.1,5.9-12.4,9.2c-2.1,2.1-2.8,4.4-5.1,6.4c-4.4,3.7-11,7.5-13.6,12.6
							c3.9-0.5,10.2-1.1,12.8,2.9c3.3,5.1-6.6,7.2-8.8,10.9c0.8-3.7,8.3-12.3,0.7-11.1c-6.1,0.9-13.1,9.7-16.8,14.3
							c-3.3,4.2-1.2,2.8-0.3,7.6c1.2,6.1-4.6,9.5-3.9,15.3c0.7,6,3.2,12.1,0.4,17.9c-1.7,3.5-4.7,6.4-7.1,9.4
							c0.4-4.8,2.8-9.6,3.7-14.5c0.7-4,0.6-7.8,0.9-11.9c0.6-7.6,3.5-13.6,2-21.2c-4.9,5.6-10.1,15-11.8,22.3
							c-0.9,3.8-1,6.7-3.4,10.1c-2,2.8-4,4.4-5.1,7.8c-1.1,3.5-1,6.6-3.7,9.3c-1.1-0.3-1.9-2.8-2.8-2.9"/>
					</g>
					<path id="XMLID_11121_" class="st3" d="M512.3,637.5c-3,1.9-6.3,6.1-8.2,9.1c0.6-0.8,1.5-1.2,2.6-1.3c-1.3,2.9-6,6-8.9,7.2
						c-1,0.4-2.5,1-3.5,0.9c-1.4-0.2-2.9-1.7-4.6-1.6c-3.4,0.3-7.6,3.9-10.4,5.8c-3.6,2.4-7.9,3.5-11.5,5.7c6.4-0.2,11.7-6.8,17.4-9
						c4.3-1.7,8.1,1.2,12.5-0.2c1.9-0.6,2.6-2.5,4.1-3.8c1.4-1.3,3-2.5,4.3-4c1.7-2,4.8-8.3,6.6-9"/>
					<path id="XMLID_11120_" class="st3" d="M408,777.9c0,0.3,0,0.6,0,0.9c1.3-0.6,2.1,1,3.4,0.8c1-0.2,2.2-2.2,2.8-3
						c2.9-3.8,4-8.9,6-13.2c1.8-3.9,4.7-8.4,5.1-12.8c0.3-4.1,0.1-7.1,1.7-10.9c0.7-1.5,1.3-3.2,1.9-4.7c-3.7,5-2.9,12.4-3.2,18.2
						c1.3-0.3,2.1-2,3.1-3c1.7-1.6,4.1-2.2,5.5-4.2c1.7-2.5,2-5.9,3.5-8.6c1-1.8,2.2-3.7,2.9-5.7c0.8-2.5,0.7-5.1,3.2-6.8
						c3.4-2.3,8.1-1.9,11.6-4.5c7-5.3,9-13.7,14.6-20.2c2.9-3.4,5.9-6.5,8.5-10.2c0.8-1.2,5.9-8.7,7.8-8.1c0.1,0,0.1-0.1,0.2-0.1
						c-0.7,3.2-5.2,6.9-7.6,9.3c-2.5,2.4-4.4,5.6-6.4,8.5c-4,5.6-7.9,11.2-11.9,16.9c-3.9,5.5-9.5,6.8-15.3,9.7
						c-3.2,1.6-3.8,3.9-4.8,7.2c-0.8,2.8-2.3,5-3.4,7.6c-2,4.8-2.7,7.7-7,10.7c-4.3,2.9-6.4,6.7-8.4,11.4c-1.8,4.4-3.6,8.3-6.1,12.4
						c-0.7,1.2-2,5.6-3.7,5.7c-0.8,0-1.6-1.4-2-1.6c-1.2-0.6-1.9-0.3-1.9-0.7"/>
					<path id="XMLID_11119_" class="st6" d="M517.1,688.2c-0.7,0.1-2.2-0.2-3.5,0.9c-1.3,1.1-1.2,2.9-1.9,4.3
						c-2.1,4.8-5.6,9.3-8.6,13.6c-2.1,3-3.8,5.9-6.2,8.7c-2.4,2.8-5.8,5.4-7.6,8.6c7.1-2.3,11.5-11,17.9-14.6
						c3-1.7,8.7-0.1,11.2-2.5c2.2-2.2-1.3-8-1.2-11.1c0.1-1.8,1.7-6.1-0.3-7"/>
					<path id="XMLID_11118_" class="st6" d="M515.3,711.5c-1.4,2-5.5,2.8-7.7,4.3c-2.2,1.6-3.6,4.2-5.9,5.8c-2,1.4-4.7,2-6.8,3.2
						c-2,1.2-3.8,2.6-5.8,3.8c-4.1,2.4-7.1,5.6-10.9,8.4c-4.7,3.4-8.7,6.6-12.3,11.2c-4.4,5.6-7.2,13.8-9.8,20.5
						c-2.5,6.4-5.4,12.5-9.1,18.4c-2.7,4.2-5.9,8-7.6,12.7c-1.1,3.2-1.1,8.7,1.4,11.7c1.6-7.7,2.7-16.5,6.6-23.5
						c3.6-6.4,7.4-12.6,10.6-19.2c2.2-4.5,3.9-9.5,6.6-13.8c3.1-5,7-8.5,11-12.7c7.7-8.1,20.2-9.9,27.4-18.4
						c2.3-2.6,5.6-4.3,8.4-6.4c2.7-2,2.4-2.9,3.6-5.6"/>
				</g>
			</g>
		</g>
		<path id="XMLID_11113_" class="st7" d="M478,714.5c0,0,15.7,38.1,12.3,47.1c-3.4,9.1-10.4,37.4-40.2,29.1
			c-29.8-8.4-28.9-25.3-17.4-29.5s37.6,14.1,40.4-11.7S463.1,704.7,478,714.5z"/>
		<g id="XMLID_11110_" class="st8">
			<path id="XMLID_11112_" class="st9" d="M517,591.1c0,0-31.5,2.4-48.1,19c-16.5,16.6-23.7,25.9-32.8,28.5
				c-9,2.5-10.4,22.7-12.3,25.6c-2,2.9,22.3,30.4,39.1-5.1s27.9-47,44.2-49.9C523.5,606.4,530.3,596,517,591.1z"/>
			<path id="XMLID_11111_" class="st10" d="M512.7,595.8c0,0-26.1,5.4-31.8,10.8c-5.7,5.4-29.9,32-37.2,34.7
				c-7.4,2.7-11.5,12.6-10.3,16.7c1.2,4.1,10.8,20.8,19.1,5.1c8.3-15.7,4.1-23.9,11.3-29.1c7.1-5.2,11.6-21.4,29.1-25.9
				S518.2,597.7,512.7,595.8z"/>
		</g>
	</g>
	<g id="XMLID_11080_">
		<g id="XMLID_11085_">
			<path id="XMLID_11108_" class="st0" d="M573,268.3c8,10.5,14,22.2,18,34.8c2.5,7.8,8.6,17.4,22.4,26.3c31.3,20.2,43,26.9,55,54
				c12.1,27.1,64.2,18.6,83.3-2.6c19-21.2,55.4-53.6,46.1-79.9c-9.3-26.3-21.8-45.6-62.9-41.6c-41.1,4.1-75.3-14.4-88.9-33.9
				s-44.1-61.4-75.8-41.1C544.6,200.7,551.9,240.3,573,268.3z"/>
			<g id="XMLID_11102_">
				<path id="XMLID_223_" class="st0" d="M573,268.3c8,10.5,14,22.2,18,34.8c2.5,7.8,8.6,17.4,22.4,26.3c31.3,20.2,43,26.9,55,54
					c12.1,27.1,64.2,18.6,83.3-2.6c19-21.2,55.4-53.6,46.1-79.9c-9.3-26.3-21.8-45.6-62.9-41.6c-41.1,4.1-75.3-14.4-88.9-33.9
					s-44.1-61.4-75.8-41.1C544.6,200.7,551.9,240.3,573,268.3z"/>
				<path id="XMLID_220_" class="st1" d="M573,268.3c0,0,0.4,0.6,1.2,1.6c0.8,1.1,2,2.7,3.4,4.9c2.9,4.4,6.9,11,10.5,20.1
					c0.9,2.3,1.8,4.7,2.6,7.3c0.8,2.6,1.9,5.2,3.3,7.8c2.9,5.1,7.2,10,12.5,14.3c2.6,2.2,5.6,4.1,8.6,6.1c3.1,2,6.2,4,9.4,6
					c6.4,4.2,13.2,8.6,19.8,13.8c3.3,2.7,6.5,5.5,9.4,8.8c2.9,3.3,5.6,6.9,8.1,10.7c2.4,3.9,4.5,8,6.5,12.3l0.4,0.8l0.2,0.4l0.2,0.4
					l0.8,1.6c0.2,0.5,0.6,1,0.9,1.5c0.3,0.5,0.6,1,1,1.4c0.7,0.9,1.5,1.8,2.3,2.6c0.8,0.8,1.8,1.5,2.7,2.3c1.9,1.3,4,2.6,6.2,3.4
					c1.1,0.5,2.2,0.8,3.4,1.2c1.2,0.3,2.3,0.7,3.5,0.9c4.8,1,9.7,1.3,14.7,1.1c10-0.5,20.1-3.1,29.4-7.5c4.7-2.2,9.1-5,13.1-8.4
					c2-1.7,3.7-3.6,5.5-5.6c1.8-2,3.7-4,5.5-6c7.4-7.9,14.9-15.8,21.8-24.4c3.4-4.3,6.7-8.7,9.5-13.4c2.8-4.7,5.3-9.6,6.9-14.8
					c1.6-5.2,2-10.6,0.8-15.8c-0.7-2.5-1.7-5.2-2.7-7.7c-1-2.6-2.1-5.1-3.3-7.6c-2.4-5-5.2-9.7-8.8-13.8c-3.6-4.1-7.9-7.4-12.8-9.7
					c-4.9-2.3-10.2-3.7-15.6-4.3c-5.4-0.6-10.9-0.6-16.3-0.2l-2,0.2l-2.1,0.1l-4.1,0.3l-2.1,0.1l-2.1,0c-1.4,0-2.8,0-4.2,0
					c-1.4,0-2.8-0.1-4.1-0.2c-1.4-0.1-2.7-0.2-4.1-0.3c-1.4-0.1-2.7-0.3-4.1-0.5c-1.4-0.2-2.7-0.3-4.1-0.6
					c-10.8-1.9-21.1-5.3-30.6-10c-1.2-0.6-2.3-1.3-3.5-1.9l-1.7-0.9l-1.7-1c-1.1-0.7-2.2-1.4-3.3-2.1c-1.1-0.8-2.1-1.5-3.2-2.3
					c-4.2-3.1-8.1-6.5-11.4-10.4c-0.4-0.5-0.9-0.9-1.3-1.4l-1.2-1.5c-0.8-1-1.6-2-2.3-3.1c-1.4-2.1-2.8-4.1-4.3-6.1
					c-2.9-4-5.8-7.9-8.9-11.5c-6.1-7.3-12.7-14.1-20.1-19.3c-3.7-2.6-7.5-4.8-11.6-6.3c-4-1.5-8.3-2.4-12.4-2.4
					c-4.2,0-8.2,1-11.9,2.6c-0.9,0.4-1.8,0.8-2.7,1.3c-0.9,0.5-1.7,1-2.5,1.5c-0.8,0.6-1.6,1.1-2.4,1.7c-0.7,0.6-1.5,1.2-2.2,1.8
					c-2.8,2.6-5.1,5.5-6.8,8.7c-1.7,3.2-2.9,6.5-3.6,9.8c-1.5,6.7-1.3,13.1-0.5,19c0.8,5.8,2.2,11.1,3.9,15.7
					c3.3,9.2,7.2,16,10,20.4c0.7,1.1,1.3,2.1,1.9,2.9c0.6,0.8,1,1.5,1.4,2.1C572.6,267.7,573,268.3,573,268.3z M573,268.3
					c0,0-0.4-0.6-1.2-1.7c-0.4-0.5-0.9-1.2-1.5-2.1c-0.6-0.8-1.2-1.8-1.9-2.9c-2.8-4.4-6.8-11.1-10.1-20.3c-1.7-4.6-3.1-9.9-4-15.7
					c-0.8-5.8-1-12.3,0.5-19.1c0.7-3.3,1.9-6.7,3.6-9.9c1.7-3.2,4-6.2,6.9-8.8c0.7-0.7,1.5-1.2,2.2-1.9c0.8-0.6,1.6-1.1,2.4-1.7
					c0.9-0.5,1.7-1,2.6-1.5c0.9-0.5,1.8-0.9,2.7-1.3c3.7-1.7,7.8-2.7,12-2.8c4.3-0.1,8.6,0.7,12.7,2.3c4.1,1.5,8.1,3.7,11.9,6.3
					c7.5,5.2,14.2,11.9,20.5,19.2c3.1,3.7,6.2,7.5,9.1,11.5c1.5,2,2.9,4,4.4,6c0.7,1,1.5,2,2.2,3l1.1,1.5c0.4,0.5,0.8,0.9,1.2,1.4
					c3.3,3.8,7.2,7,11.3,10c1,0.7,2.1,1.5,3.1,2.2c1.1,0.7,2.2,1.3,3.3,2l1.7,1l1.7,0.9c1.1,0.6,2.3,1.2,3.4,1.8
					c9.4,4.5,19.5,7.7,30.1,9.4c1.3,0.2,2.7,0.3,4,0.5c1.3,0.2,2.7,0.4,4,0.5c1.3,0.1,2.7,0.2,4,0.2c1.3,0.1,2.7,0.2,4,0.2l4,0l2,0
					l2.1-0.1l4.1-0.3l1-0.1l1-0.1l2.1-0.2c5.6-0.5,11.2-0.5,16.8,0.1c5.6,0.6,11.3,2,16.5,4.4c5.2,2.5,9.9,6,13.8,10.4
					c3.8,4.3,6.8,9.3,9.3,14.4c1.2,2.6,2.3,5.2,3.4,7.8c1,2.7,2,5.2,2.8,8.1c1.3,5.8,0.8,11.8-0.9,17.3c-1.7,5.5-4.3,10.6-7.2,15.4
					c-3,4.8-6.3,9.3-9.8,13.6c-7,8.6-14.6,16.6-22,24.4c-1.8,2-3.7,3.9-5.5,5.9c-1.8,2-3.7,4-5.8,5.8c-4.2,3.5-8.8,6.3-13.7,8.5
					c-9.7,4.5-20,6.9-30.2,7.3c-5.1,0.2-10.2-0.2-15.1-1.3c-1.2-0.3-2.4-0.6-3.6-1c-1.2-0.4-2.4-0.8-3.5-1.3
					c-2.3-0.9-4.4-2.2-6.4-3.7c-1-0.8-1.9-1.5-2.8-2.4c-0.9-0.8-1.7-1.8-2.4-2.7c-0.4-0.5-0.7-1-1-1.5c-0.3-0.5-0.7-1-0.9-1.6
					l-0.8-1.6l-0.2-0.4l-0.2-0.4l-0.4-0.8c-1.9-4.3-4-8.3-6.3-12.2c-2.4-3.8-5-7.4-7.8-10.7c-2.9-3.3-6-6.1-9.2-8.8
					c-6.5-5.3-13.2-9.8-19.6-14c-3.2-2.1-6.3-4.1-9.4-6.1c-3-2-6-3.9-8.6-6.1c-5.3-4.3-9.6-9.2-12.5-14.4c-1.5-2.6-2.5-5.2-3.3-7.8
					c-0.8-2.6-1.7-5-2.6-7.3c-3.6-9.1-7.6-15.8-10.4-20.2c-1.4-2.2-2.6-3.8-3.4-4.9C573.4,268.8,573,268.3,573,268.3z"/>
			</g>
			<g id="XMLID_11086_">
				<defs>
					<path id="XMLID_11087_" d="M573,268.3c8,10.5,14,22.2,18,34.8c2.5,7.8,8.6,17.4,22.4,26.3c31.3,20.2,43,26.9,55,54
						c12.1,27.1,64.2,18.6,83.3-2.6c19-21.2,55.4-53.6,46.1-79.9c-9.3-26.3-21.8-45.6-62.9-41.6c-41.1,4.1-75.3-14.4-88.9-33.9
						s-44.1-61.4-75.8-41.1C544.6,200.7,551.9,240.3,573,268.3z"/>
				</defs>
				<clipPath id="XMLID_6_">
					<use xlink:href="#XMLID_11087_"  style="overflow:visible;"/>
				</clipPath>
				<g id="XMLID_11088_" class="st14">
					<path id="XMLID_11101_" class="st3" d="M609.8,221.6c-0.1,9.4,3.6,19.7,5,29.1c1.4,9.6,5.4,18,10.2,26.3
						c5.5,9.5,11.7,17.8,18.6,26.3c5,6.1,9,13,14,19.1c3.7,4.6,8.3,9.9,10.8,14.8c-0.7-0.4-1.1-0.6-1.7-0.9
						c14.2,14.8,27.3,29.2,46.6,36.7c11.4,4.5,19.1,16.9,31.5,12.7c3.1-1.1-0.1-0.7,3.7-3.1c3.4-2.1-3.2-0.5,1.4-0.6
						c0-0.2-22.1-1.8,0,0c-9.5-2,3.4,1.4-6.3-0.8c-11.1-2.5-20.5-7.4-30.2-12.1c-31.2-15.1-48.6-46.7-68.3-72.9
						c-4.9-6.5-12.1-9.8-16.6-16.2c-4.6-6.6-8.2-15.3-8.9-23.5c-0.8-8.6,0-18.2-3.7-26.2c-1.2-2.6-3.2-4.4-4.3-7
						c-1.4-3.1-1-6.2-2.8-9.1c-1.3,2.1,0.1,8.9,0.7,11.7"/>
					<path id="XMLID_11100_" class="st3" d="M557.1,225.6c0.1,3.2,0.2,6.5,0.8,9.7c0.6-0.3,1.5-0.3,2.3-0.7c2.2,1.9,2.4,7.1,3.4,9.7
						c1.7,4.3,5.5,8.9,6.2,13.5c-0.8-0.2-2.6,0.4-3.2,0.3c-2.7,12.2,2.6,24.4,8.1,34.9c-0.8-9.2-6.8-20.2-5.2-29.5
						c4.1,0.4,2.7-2.1,2.8-4.8c0.2-5-0.5-4.2-3.3-8.3c-2.2-3.2-4.1-18.7-8.1-16.8c-0.6-0.5-1.4-0.8-2.1-1.2
						c-1.5,0.8-1.5,1.7-1.3,3.2"/>
					<path id="XMLID_11099_" class="st3" d="M594.3,278.5c2,3.6,4,7.6,5.9,11c0.1-0.5,0.3-1.2,0.4-1.7c6.2,5.5,9.6,14.1,13.7,21
						c4.1,6.9,11.4,11.3,15.6,17.8c-0.2,0.1-0.4,0.2-0.6,0.2c0.7,3.4,2.3,6.8,3.9,9.8c-1.5,2.7-4.8,3.7-3.7,6.9
						c-4.2,0.8-13.7-5-17.1-8.1c7.2,6.3,16,7.5,24.3,11c0-3.2-3.6-5.4-0.7-8.4c-3.5-4.6-4.2-10.2-7.7-14.8
						c-4.4-5.7-8.7-11.4-12.9-17c-7.3-9.6-12.9-19.7-21.2-28.6"/>
					<path id="XMLID_11098_" class="st4" d="M606.2,365.9c5.6,2,14.6,12.1,16.7,0.6c6,1,11.7,3.6,16,7.7c0.2-0.7,1.1-1.5,1.3-2.4
						c5.9-0.7,16.2,3.7,21.3,5.7c-6-3.9-12.4-6.8-18.1-11.1c1.2,1,2.8,2.3,3.9,3.6c-5.3,0.9-7.6,2.5-12.1,0.3
						c-2.8-1.4-5.1-3.8-8.3-4.9c-2.2-0.7-4.8-0.6-6.9-1.3c2.9,11.6-15.6-0.3-18.3-1.2c1,0.1,2,0.2,3,0.4"/>
					<g id="XMLID_11093_">
						<path id="XMLID_11097_" class="st5" d="M542.2,180.9c-1.1,1.6,6.5,15.5,7.5,19.2c3,11.4,4.8,22.8,7.4,34.2
							c6.4,28.6,11.5,62.1,30.4,85c-0.3-1.3,0.3-3,0.2-4.4c10.8-1.1,14.8,12.8,22.1,18.3c8.5,6.4,18.9,11,27.3,17.7
							c4.6,3.7,4.4,5.2-1.7,6c7.4,2.8,14.2,10.9,20.9,15.4c8.5,5.6,16.4,11.9,24.9,17.7c6.7,4.5,13.2,8.9,21.2,10.9
							c7.5,1.9,8.4,3.8,16.1,4.3c-11.7-2.8-15.3-3.1-26.3-8c-18.4-8.2-34.8-20.6-47.5-35.9c12.3,8.1,25.3,18.3,39.2,23.6
							c-7.1-7.2-18.7-11.4-26.7-18.1c-4.6-3.8-8.6-8-12-12.8c-5.8-8.3-11.4-18.9-18.5-25.5c5.1,4.9,7.8,12.3,12.1,17.9
							c2.5,3.3,6,6.8,7.5,10.4c-6.4-7.3-16.5-12.3-23.7-18.5c-6.2-5.3-11.8-10.3-18.7-14.8c-6.3-4.2-12.5-10.5-16.6-16.8
							c-3.5-5.3-9.3-14.3-10.7-20.5c0,3.4,2.4,6.5,1.4,10c-6.1-5.1-8.1-20.1-10.2-27.6c-3.2-11-6.6-21.5-8.7-32.9
							c-3.2-17.2-4.1-30.6-7.3-47.7c3.3,4.4,6.3-0.9,8.1,5.5c4.8,16.4,10.6,32.6,17.9,48c-1-8.4-4.3-16.3-6.8-24.3
							c4.4,12.6,9.2,25.4,13.2,38c-6.9-5.8-9.6-12.6-14.5-19.6c4.1,11,8,23,15.3,32.4c-0.8-3.6-3.4-7.6,1.3-9.4
							c8,6.4,11.3,19.3,16.8,27.8c8.9,13.7,16.4,28.7,28,40.4c-0.9-0.9-1.4-2.1-2.1-3.2c0.3-0.3,0.5-0.6,0.5-1
							c5.7,6.6,10.1,14.8,16.3,20.8c2.1,2,5.3,5.3,8.1,6.2c1.8,0.6,4-0.7,5.7-0.1c5.4,2,10.6,10.2,15,13.9c4.8,4,10.6,8.2,16.6,10.3
							c1-4.2-3.2-9.7-6.2-10.8c-4.1-1.4-5.5,0-9.1-2.9c-4.1-3.2-5.7-8.1-9.1-11.6c3.4,2.8,4.8-0.9,7.4-0.5
							c4.2,0.5,8.3,7.4,10.9,10.2c3.9,4.2,6.3,6.9,11.3,9.1c5.8,2.5,8.5,5.3,12.7,9.9c7.4,8.3,9.8,13.5,20.4,17.6
							c6.5,2.5,4.3-2.6,10.8-5.7c-9-1.7-6.9-1.7-13.4-8c1.7,0,3.5-0.2,5.1,0.2c-2.8-3.9-9.1-4.2-13.4-5.8c-6.7-2.5-13.4-5-19-9.5
							c-11.2-9-22.9-19.4-33.2-29.5c-0.1,2.2-1,4.4-1.9,6.5c-5.8-2-10.3,0.5-15.2-3.9c-8.2-7.4-13.2-17.4-21.1-25.2
							c-11.4-11.2-21.1-22.1-28-36.8c-2.9-6.1-12-17.8-11.6-24.7c0.2-3.2,2.5-3.8,5.2-6.3c4.3,3.7,6,9.3,9.7,13.5
							c3.9-3.5,5.1-5.1,8.6-1.8c3.1,2.9,4.7,9.7,6.7,13.5c2.5,4.9,5.7,9,8.6,13.6c2.9,4.5,4.9,11.8,9.4,14.9
							c1.6,1.1,4.2,0.8,6.1,2.4c-5.4-8-10.4-17.1-15-25.8c-4.2-7.9-10.3-13.9-11.5-23.2c-1.4-10.2-3.9-20-6.3-29.9
							c-1.4-5.7-2.6-14.7-5.7-19.4c-4,6.1,1.2,17.4,2.4,23.4c1.1,5.4,5.2,16.2,3,21.8c-7.5-2.3-16.5-1.6-22.6-5.4
							c-4.2-2.6-5.2-8.7-6.5-13.4c-1.7-6.2-4-11.8-7.3-17.2c-3.5-5.7-5.6-10.6-8.1-16.9c-1.2-3-2.4-6.4-4.5-8.7
							c-5.1-5.7-12.8-5.9-19-7.9"/>
						<path id="XMLID_11096_" class="st5" d="M616.8,200.6c-0.6,5.2,3.3,11.2,6.3,14.8c5.4,6.6,10.2,13.8,15.4,20.6
							c-1.3-1.6-2.9-3-4.6-4.2c3.8,7.5,5.4,6.7-1,13.1c1.9,3.1,3.7,7.1,4.8,10.6c1.4,4.6,0.7,8.7,2.2,13.5
							c1.4,4.3,3.3,12.2,6.7,15.4c3.3,3.1,7.6,5.5,11.2,8.8c0.4-3.3-4.2-9.2-6.5-11.8c0.2-0.1,0.9-0.3,0.7,0.2
							c-2.2-3.9-5.4-3.7-7.4-8.6c-2.1-5.1-3.3-10.6-5-15.9c-1-3.1-3.5-7.8-2.7-11.1c0.7-2.6,2.8-3.7,3.8-6.1c5,6.2,9.1,18.3,16.7,22
							c2.4,1.2,4.3-0.1,6.6,0.2c4.3,0.5,1-1.8,4.2,2.6c5.2,7.3,8.7,14.5,15.2,20.8c5.5,5.2,11.3,9.3,16.2,15.3
							c-8.8-3.5-12.4-14-20.1-18.2c-2.9-1.6-7.3-1-10.7-1.7c-4.8-1-7.8-4.2-11.5-7c3.2,3.5,7.1,6.1,10.3,9.5
							c6.7-8.7,26,17.2,29.7,21.2c5.3,5.7,5.1,12.3,9.6,18.3c2.8,3.7,4,4.1,3.4,7.7c-0.2,0.9-1.9,2.6-2.1,3.9
							c-0.4,1.9,1.3,5.2,1.9,7.1c-3.6,0-8,2.4-11.4,1.9c-4.8-0.7-9-6-12.1-9.2c-7.8-8.2-17.8-14.5-11.1-26.1
							c4.3,2.9,7.1,7.1,10.4,11c-0.7-5.4-10.3-11.8-14.3-15.3c-1.6,0.7-3.1,1.9-4.1,3.3c4.6,4.6,2.1,6,1.6,10.7
							c-0.7,6.2,3.7,9.4,7.5,13.5c6.7,7.3,13.2,16.6,21,22.7c6.5,5.1,14.7,7.2,21,13.2c11.8,11.3,12.5,9.9,27.4,17.4
							c1.9-3.5,2.7-5.5,6.9-5.9c-7.3-2.5,7.4-6.9-1.5,0.9c-3.7,3.3-4.8,0.4-9.5-1.5c-4.7-1.9-8.9-5.6-13.2-8.5
							c-11-7.3-26.1-12.8-33.8-24c7.5,2.6,14.9,2.5,16-6.5c4.7-0.8,3.9-8,8.4-9.9c3.1-1.3,6.2,1.9,9.7,1.7c5.3-0.3,9.6-7,14.2-6.4
							c4.4,0.6,10.5,9.9,13.9,12.4c3.4,2.5,7,2.9,10.6,4.5c6.8,3,4.9,7,9.7,12.7c-2.8,3.8-5.4,6.3-9.3,9.4c-4.5,3.5-9.9-6-13.9-8.9
							c-7-5-15.6-8.5-22.1-14.2c4.8,9.3,17.4,14.3,25,21.3c5.8,5.3,1.7,5,10.1,3.1c8.2-1.8,12.7-9.6,18.3-15.8
							c-3.2-2.2,8.3,2,6.3-1.3c-0.5-0.9-2.5-0.7-3.2-1.9c-1-1.7-2.7-2.3-4.2-3.4c-2.8-2.3-7.5-8.1-11-8c-4,0.1-6.1,3.8-11.2,2
							c-7.6-2.7-11.6-10.6-19.1-13c-6.5-2.1-12.8,4.9-19.7,4.3c-2.8-0.3-4.4-2.5-7.1-3.6c-3.2-1.3-3.8,0.1-6.6-2.6
							c-5.4-5.1-3.2-9.9-5.4-16c-0.8-2.2-2.6-4-3.4-6c-0.3-0.6,1.1-1.7,0.7-2.5c-0.6-1.3-2-1.3-2.7-2.3
							c-4.7-6.1-11.2-11.4-16.5-17.1c-3.4-3.7-7-7.4-9.9-11.6c-2.3-3.5-2.8-7.6-6.2-10.4c-5,2.9-5.3,3.5-9.6-0.2
							c-5.3-4.6-9.7-9.3-13-15.5c-4.9-9.3-11.8-18.7-18.2-27.1c11.6-3.4,21.9,1.4,33.4,2.5c5.9,0.6,9,2.9,6.7,7.3
							c-2,3.6-5.6,4.2-6.5,9.1c-0.6,3.3,0,7.1,0.1,10.4c7.8-6.5,7.5,0,14.9-0.4c4-0.2,8.1-5.5,12-4.4c4.6,1.3,8.9,10.6,12.8,13.6
							c2.8,2.2,4.8,2,3.6,5.8c-0.8,2.5-5.5,3.8-5.5,6.5c0,0.8,3.1,3.8,3.7,4.7c2.4,3.5,3.4,5.3,0.4,9.2c-1.9,2.5-8.4,4.1-4.6,7.8
							c-2.5-2.8-10.3-9.8-9.1-15.8c0.7-3.5,3.8-3.5,2.2-7.5c-2.3-5.9-11.6-6.1-16-10c2.1,6.5,14.3,4.1,13.8,12.2
							c-0.2,2.6-3.8,4.9-3.4,7.8c0.4,2.8,5.1,7.2,6.8,9.5c4,5.4,9.6,8.2,14.1,12.9c4.8,4.9,9.3,10.5,13.8,15.7
							c3.2,3.8,6.6,9.7,10.9,12c-0.7-1.3-1.1-3.2-1.8-4.5c1.9-0.6,4.2-0.7,6.4-1.2c3.7-0.9,6.4-3.6,9.9-4.3
							c6.2-1.2,10.1,7.9,15.7,10.4c5.5,2.5,10.9,3.3,15.1,7.9c6.3,6.9,11.3,16.9,19.9,21.4c0.9-0.2,2.9-1,3.6-1.4
							c-5.1-4.9-11.3-8.6-16.2-14.4c-4.1-5-7.3-11.6-13.3-14.7c-4.9-2.5-10-2.7-14.8-6.2c-4.1-3.1-5.5-6.6-10.5-6.6
							c-5.7,0-12.5,5.4-18.2,4.7c-5.9-0.7-11.7-10.3-15.2-14.5c-6.9-8.2-13.1-14.1-3.3-23.4c-4-3.6-3-8.8-5.9-13
							c8.1-1.6,3.9-6.8,1.4-10.2c-4.1-5.5-7.6-15-14.9-17.1c-4.8-1.4-2.1-0.2-6.6,1.8c-3.5,1.6-5.8,0.7-9.1-0.3
							c-1.1-0.4-7.3-1.5-8.1-2.3c-2.6-2.4,1.3-6.5,3.3-9.3c3.3-4.7,2.2-6.9-1.1-12c-3.3-5-4.3-0.9-10-1.7c-6.9-1-12.8-7.1-19.8-8.2
							c-6.4-1.1-12.2,3.7-17.8-1.1c-0.2-0.5,0.1-0.8,1-0.8"/>
						<path id="XMLID_11095_" class="st3" d="M679.5,222.5c-0.6,9.3,13.6,16.3,19.4,22.6c9.9,10.8,16.8,22.6,23.3,35.5
							c6.7,13.3,21.8,19.4,31.5,30.1c4,4.4,7.4,6.4,12.8,9.4c5.8,3.2,9.9,7.8,13.9,13.1c6.9,9,7.3,11.9,17.9,16.4
							c3.2-2.7,15.5-2.7,17.8-6.1c-3.7-3-7.2-5.6-10.3-8.9c-1.5-1.6-2.9-3.6-4.6-4.8c-2.9-2-3.5-0.6-6-1.2c-4.4-1-7.8-4.4-12.4-6.4
							c-5.2-2.3-8.8-4.3-13.2-7.8c-11.5-9-19-20.7-29.6-30.4c-6.5-6-4.1-12.9-6.9-20.4c-1.9-5.1-6.9-8.2-9-13.2
							c-2.2-5.4-2.5-9.9-6.2-14.8c-4-5.4-5.7-11-8.9-16.6c-7.8,1.9-11.9,0.3-19.3-1.3c-4.4-0.9-8.3-0.6-9.3,5.2"/>
						<path id="XMLID_11094_" class="st5" d="M812.6,328.5c-5.3-3.8-14.7-7.7-18.2-13.4c-0.9-1.4,1.1-2.8,0-4.1
							c-1.4-1.8-4.6-2.2-6.6-3.2c-13.7-7.2-24.3-17.2-35-28.1c2.4,1.8,5.4,4.1,8.6,3.8c-6.2-7-9.9-15.5-15.9-22.7
							c-5-5.9-9.4-10.1-15.2-14.4c-8.1-6.1-7.1-18.3-8.8-27.4c3,4.9,4.5,12,7.6,16.8c1.9,2.9,4.4,4.3,6.1,7.6
							c3.2,6,5.9,14.7,11.3,19c0.3-4.7,1.2-12.2,6.6-14.2c6.8-2.5,6.7,9.5,10.5,13c-4.1-1.9-12.2-12.7-12.8-3.6
							c-0.4,7.3,8,17.7,12.4,23.1c4,4.9,3,2.2,8.8,2.3c7.3,0.2,9.9,7.7,16.8,8.4c7.2,0.7,14.9-0.7,20.9,4c3.7,2.9,6.2,7.1,9.1,10.6
							c-5.5-1.7-10.5-5.7-16-7.9c-4.5-1.8-8.9-2.7-13.6-4c-8.7-2.6-14.9-7.4-24.2-7.7c5.3,7.1,14.9,15.5,23,19.3
							c4.2,2,7.6,2.8,11,6.5c2.8,3,4.1,5.7,7.8,7.9c3.7,2.2,7.4,2.8,9.9,6.6c-0.6,1.2-3.7,1.5-4.1,2.6"/>
					</g>
					<path id="XMLID_11092_" class="st3" d="M621.6,215.3c1.4,3.9,5.5,8.9,8.6,11.8c-0.8-0.9-1-2.1-0.8-3.3c3,2.2,5.5,8.5,6.2,12.2
						c0.3,1.3,0.6,3.2,0.2,4.3c-0.5,1.6-2.7,2.9-3,4.9c-0.5,4.1,2.7,9.9,4.1,13.6c1.9,4.8,2.1,10,3.8,14.8
						c1.4-7.5-4.9-15.3-6.1-22.5c-0.9-5.4,3.4-9.2,2.9-14.6c-0.2-2.4-2.2-3.7-3.4-5.7c-1.2-2-2.1-4.1-3.6-6
						c-1.9-2.5-8.5-7.7-8.8-9.9"/>
					<path id="XMLID_11091_" class="st3" d="M758.8,371.8c0.3,0.1,0.7,0.2,1,0.2c-0.4-1.7,1.7-2.1,1.8-3.8c0.1-1.2-2-3.1-2.7-4
						c-3.7-4.3-9.3-6.9-13.8-10.3c-4.1-3.1-8.6-7.6-13.6-9.1c-4.7-1.4-8.3-1.9-12.3-4.7c-1.6-1.2-3.4-2.3-5-3.4
						c4.9,5.6,13.7,6.5,20.4,8.3c0-1.6-1.8-2.9-2.7-4.4c-1.4-2.4-1.6-5.3-3.5-7.4c-2.5-2.7-6.3-3.9-9.1-6.2
						c-1.9-1.6-3.8-3.5-5.9-4.8c-2.7-1.6-5.8-2-7.1-5.4c-1.8-4.5-0.2-9.9-2.4-14.6c-4.4-9.5-13.7-13.9-19.8-22.1
						c-3.2-4.3-6.1-8.5-9.8-12.5c-1.2-1.3-8.6-9-7.4-11.1c0-0.1-0.1-0.2-0.1-0.3c3.5,1.7,6.8,7.8,8.9,11.2c2.2,3.5,5.4,6.5,8.3,9.6
						c5.6,6,11.1,12,16.7,18c5.4,5.9,5.5,12.8,7.4,20.3c1,4.1,3.6,5.4,7.2,7.4c3,1.7,5.2,3.9,8,5.8c5,3.6,8.3,5.1,10.7,10.8
						c2.4,5.7,6.2,9.1,11.2,12.6c4.6,3.2,8.8,6.3,12.9,10.2c1.2,1.1,6,3.8,5.7,5.7c-0.2,0.9-2,1.5-2.4,2c-1,1.2-0.8,2.1-1.3,2"/>
					<path id="XMLID_11090_" class="st6" d="M681.8,222.4c0,0.8-0.7,2.6,0.2,4.3c1,1.8,3,2.1,4.6,3.3c5,3.6,9.4,8.8,13.6,13.4
						c3,3.1,5.9,5.9,8.5,9.4c2.7,3.6,4.8,8.1,8.1,11c-0.9-8.8-9.9-16.1-12.5-24.5c-1.2-3.9,2.1-10.2-0.1-13.7
						c-2-3.1-9.7-0.5-13.3-1.4c-2.1-0.5-6.7-3.5-8.2-1.4"/>
					<path id="XMLID_11089_" class="st6" d="M708.4,230.4c2,2.2,1.8,7.1,3.1,10c1.3,3,4,5.3,5.3,8.3c1.1,2.7,1.1,5.9,2,8.7
						c0.8,2.6,2.1,5.1,2.9,7.8c1.7,5.4,4.7,9.7,7,14.8c2.8,6.3,5.5,11.8,10,17.2c5.4,6.6,14.2,11.9,21.4,16.5
						c6.9,4.5,13.2,9.4,19.2,15.3c4.3,4.2,7.8,8.9,12.9,12c3.5,2.1,9.8,3.5,13.9,1.3c-8.5-3.8-18.5-7.3-25.7-13.6
						c-6.6-5.8-12.8-11.8-19.7-17.2c-4.7-3.7-10.1-6.9-14.4-11.1c-5-4.9-8.2-10.3-12.1-16c-7.5-11-6.5-25.9-14.5-36.5
						c-2.5-3.3-3.6-7.6-5.3-11.4c-1.7-3.7-2.8-3.5-5.6-5.5"/>
				</g>
			</g>
		</g>
		<path id="XMLID_11084_" class="st7" d="M702.6,274.5c0,0,48.3-8.7,57.9-2.5c9.7,6.2,40.9,21.5,23.7,54.1
			c-17.2,32.5-36.6,27.3-38.7,12.8c-2-14.5,25.8-40.2-3.4-49.9C712.9,279.4,687.5,289.3,702.6,274.5z"/>
		<g id="XMLID_11081_" class="st8">
			<path id="XMLID_11083_" class="st9" d="M568.8,198.2c0,0-5.1,37.3,10,60.7c15.2,23.4,24.2,34.1,24.9,45.3
				c0.7,11.2,23.8,17.8,26.7,20.8c2.9,3,41-18.3,3.9-46.8c-37.1-28.5-47.7-44.2-46.9-64C588.3,194.4,577.8,183.9,568.8,198.2z"/>
			<path id="XMLID_11082_" class="st10" d="M573.2,204.3c0,0-0.2,31.7,4.6,39.7s29.7,42.8,31,52c1.3,9.3,11.8,16.6,16.8,16.2
				c5.1-0.4,26.9-7.3,10.7-20.9s-26.8-10.8-31.1-20.4c-4.3-9.6-22-18.9-22.9-40.4S576.8,198.4,573.2,204.3z"/>
		</g>
	</g>
	<g id="XMLID_11051_">
		<g id="XMLID_11056_">
			<path id="XMLID_11079_" class="st0" d="M818.5,707.7c0.2-13.2,2.6-26.2,7.2-38.5c2.9-7.7,3.9-19-1.5-34.5
				c-12.3-35.2-17.3-47.6-10.2-76.4c7.2-28.8-39.2-54.2-67.2-49.2s-76.7,8.2-85.5,34.6c-8.8,26.5-10.9,49.4,24,71.5
				c34.9,22.1,50.5,57.6,49.3,81.4c-1.2,23.8-3,75.6,34.5,79C799.3,778.4,818,742.8,818.5,707.7z"/>
			<g id="XMLID_11073_">
				<path id="XMLID_217_" class="st0" d="M818.5,707.7c0.2-13.2,2.6-26.2,7.2-38.5c2.9-7.7,3.9-19-1.5-34.5
					c-12.3-35.2-17.3-47.6-10.2-76.4c7.2-28.8-39.2-54.2-67.2-49.2s-76.7,8.2-85.5,34.6c-8.8,26.5-10.9,49.4,24,71.5
					c34.9,22.1,50.5,57.6,49.3,81.4c-1.2,23.8-3,75.6,34.5,79C799.3,778.4,818,742.8,818.5,707.7z"/>
				<path id="XMLID_211_" class="st1" d="M818.5,707.7c0,0,0-0.7,0-2.1c0-1.4,0.1-3.4,0.3-6c0.4-5.2,1.4-12.9,4.1-22.3
					c0.7-2.4,1.5-4.8,2.4-7.4c1-2.5,1.7-5.3,2.1-8.2c0.9-5.8,0.5-12.3-1.1-18.9c-0.7-3.3-1.8-6.7-3.1-10.1
					c-1.2-3.4-2.4-6.9-3.7-10.6c-2.5-7.2-5.1-14.9-7.1-23.1c-0.9-4.1-1.7-8.4-2-12.7c-0.3-4.4-0.2-8.9,0.2-13.4
					c0.5-4.5,1.3-9.1,2.4-13.7l0.2-0.9l0.1-0.4l0.1-0.4l0.3-1.7c0.1-0.6,0.1-1.1,0.2-1.7c0-0.6,0.1-1.1,0.1-1.7c0-1.2,0-2.3-0.3-3.5
					c-0.1-1.2-0.4-2.3-0.7-3.4c-0.7-2.2-1.5-4.5-2.8-6.5c-0.5-1.1-1.3-2-1.9-3.1c-0.7-1-1.4-2-2.2-2.9c-3.1-3.7-6.8-7-10.9-9.9
					c-8.2-5.7-17.7-9.9-27.8-12.2c-5-1.1-10.3-1.7-15.5-1.4c-2.6,0.1-5.1,0.6-7.8,1.1c-2.7,0.4-5.3,0.9-8,1.3
					c-10.7,1.7-21.5,3.3-32.1,5.8c-5.3,1.3-10.6,2.8-15.7,4.7c-5.1,1.9-10.1,4.3-14.5,7.4c-4.4,3.1-8.1,7.1-10.3,11.9
					c-1,2.4-1.8,5.2-2.6,7.8c-0.8,2.7-1.5,5.3-2.1,8c-1.2,5.4-1.9,10.8-1.5,16.3c0.3,5.4,1.7,10.7,4.1,15.5c2.4,4.8,5.8,9.2,9.7,13
					c3.9,3.8,8.2,7.2,12.7,10.2l1.7,1.1l1.7,1.2l3.4,2.3l1.7,1.2l1.6,1.3l3.3,2.6c1.1,0.8,2.1,1.8,3.1,2.7l3.1,2.7
					c1,0.9,1.9,1.9,2.9,2.9c0.9,1,2,1.9,2.8,3c7.3,8.1,13.4,17.2,18,26.7c0.5,1.2,1.1,2.4,1.6,3.6l0.8,1.8l0.7,1.9
					c0.4,1.2,0.9,2.5,1.3,3.7c0.4,1.3,0.7,2.5,1.1,3.8c1.4,5,2.4,10.1,2.6,15.3c0,0.6,0.1,1.3,0.1,1.9l0,1.9c0,1.3,0,2.6-0.1,3.8
					c-0.1,2.5-0.3,5-0.3,7.4c-0.2,4.9-0.2,9.8-0.1,14.6c0.3,9.6,1.4,18.9,4,27.5c1.3,4.3,3,8.4,5.2,12.1c2.2,3.7,5,7,8.3,9.5
					c3.3,2.5,7.1,4.3,10.9,5.3c1,0.2,1.9,0.5,2.9,0.6c1,0.1,1.9,0.3,2.9,0.4c1,0,2,0.1,2.9,0.1c1,0,1.9,0,2.9-0.1
					c3.8-0.3,7.4-1.2,10.7-2.7c3.3-1.4,6.3-3.4,8.9-5.5c5.3-4.3,9.1-9.5,12.1-14.6c3-5.1,5.1-10.1,6.6-14.8c3.1-9.3,4.2-17,4.7-22.2
					c0.1-1.3,0.2-2.5,0.3-3.5c0.1-1,0.1-1.8,0.1-2.5C818.5,708.4,818.5,707.7,818.5,707.7z M818.5,707.7c0,0,0,0.7-0.1,2.1
					c0,0.7,0,1.5-0.1,2.5c-0.1,1-0.1,2.2-0.3,3.5c-0.5,5.2-1.5,12.9-4.6,22.2c-1.5,4.7-3.6,9.7-6.6,14.8c-3,5.1-6.8,10.4-12.1,14.7
					c-2.6,2.2-5.6,4.1-9,5.6c-3.3,1.5-7,2.4-10.8,2.8c-1,0.1-1.9,0.1-2.9,0.1c-1,0-1.9-0.1-2.9-0.1c-1-0.1-2-0.3-3-0.4
					c-1-0.1-2-0.4-3-0.6c-3.9-1-7.8-2.7-11.2-5.2c-3.4-2.5-6.3-5.9-8.6-9.6c-2.3-3.8-4.1-7.9-5.5-12.3c-2.7-8.7-3.9-18.1-4.4-27.8
					c-0.2-4.8-0.2-9.7-0.1-14.7c0.1-2.5,0.1-5,0.3-7.5c0.1-1.3,0.1-2.5,0.1-3.7l0-1.9c0-0.6-0.1-1.2-0.1-1.9
					c-0.3-5-1.3-9.9-2.7-14.8c-0.4-1.2-0.7-2.4-1.1-3.7c-0.5-1.2-0.9-2.4-1.4-3.6l-0.7-1.8l-0.8-1.8c-0.5-1.2-1.1-2.4-1.6-3.5
					c-4.6-9.3-10.7-18.1-17.9-25.9c-0.9-1-1.9-1.9-2.8-2.9c-1-0.9-1.9-1.9-2.9-2.8l-3-2.7c-1-0.9-2-1.8-3.1-2.6l-3.2-2.5l-1.6-1.2
					l-1.7-1.2l-3.4-2.3l-0.9-0.6l-0.8-0.5l-1.8-1.1c-4.7-3.1-9.1-6.5-13.2-10.5c-4.1-3.9-7.6-8.5-10.3-13.6
					c-2.6-5.1-4.1-10.9-4.5-16.6c-0.4-5.8,0.3-11.5,1.5-17.1c0.6-2.8,1.3-5.5,2.2-8.2c0.8-2.7,1.6-5.3,2.8-8.1
					c2.5-5.4,6.6-9.8,11.4-13.1c4.7-3.3,9.9-5.7,15.2-7.7c5.3-1.9,10.7-3.4,16.1-4.7c10.8-2.5,21.7-4.1,32.4-5.7
					c2.7-0.4,5.3-0.8,8-1.2c2.6-0.4,5.4-0.9,8.1-1c5.5-0.2,10.9,0.4,16,1.7c10.4,2.4,20,6.9,28.3,12.8c4.2,3,7.9,6.4,11.1,10.3
					c0.8,1,1.5,2,2.2,3c0.7,1.1,1.4,2.1,1.9,3.2c1.2,2.2,2.1,4.5,2.8,6.9c0.3,1.2,0.6,2.4,0.7,3.6c0.2,1.2,0.2,2.4,0.2,3.7
					c0,0.6-0.1,1.2-0.1,1.8c-0.1,0.6-0.1,1.2-0.2,1.8l-0.3,1.7l-0.1,0.4l-0.1,0.5l-0.2,0.9c-1.1,4.5-2,9-2.6,13.5
					c-0.5,4.5-0.7,8.9-0.4,13.2c0.2,4.3,1,8.6,1.9,12.6c1.9,8.2,4.4,15.8,6.9,23.1c1.2,3.6,2.5,7.1,3.6,10.6c1.2,3.4,2.3,6.8,3,10.1
					c1.5,6.7,1.9,13.2,1,19c-0.4,2.9-1.2,5.7-2.2,8.2c-0.9,2.5-1.7,5-2.4,7.3c-2.7,9.4-3.7,17.1-4.2,22.3c-0.2,2.6-0.3,4.6-0.4,6
					C818.5,707,818.5,707.7,818.5,707.7z"/>
			</g>
			<g id="XMLID_11057_">
				<defs>
					<path id="XMLID_11058_" d="M818.5,707.7c0.2-13.2,2.6-26.2,7.2-38.5c2.9-7.7,3.9-19-1.5-34.5c-12.3-35.2-17.3-47.6-10.2-76.4
						c7.2-28.8-39.2-54.2-67.2-49.2s-76.7,8.2-85.5,34.6c-8.8,26.5-10.9,49.4,24,71.5c34.9,22.1,50.5,57.6,49.3,81.4
						c-1.2,23.8-3,75.6,34.5,79C799.3,778.4,818,742.8,818.5,707.7z"/>
				</defs>
				<clipPath id="XMLID_7_">
					<use xlink:href="#XMLID_11058_"  style="overflow:visible;"/>
				</clipPath>
				<g id="XMLID_11059_" class="st15">
					<path id="XMLID_11072_" class="st3" d="M760.8,721.9c5.9-7.4,9.3-17.7,14-26c4.8-8.5,6.8-17.5,8.1-27
						c1.5-10.8,1.7-21.3,1.5-32.2c-0.2-7.9,0.9-15.8,0.7-23.7c-0.1-5.9-0.4-12.9,0.5-18.3c0.3,0.7,0.5,1.1,0.8,1.7
						c-2.1-20.4-3.6-39.8-14.1-57.6c-6.2-10.5-4.7-25-17.1-29.4c-3.1-1.1-0.3,0.6-4.8,0.1c-3.9-0.4,2.2,2.3-1.4-0.4
						c-0.1,0.2,16.3,15,0,0c6.3,7.5-1.9-3.2,4.4,4.5c7.2,8.8,11.6,18.4,16.4,28.1c15.3,31,9.6,66.7,9,99.5
						c-0.1,8.1,3.5,15.2,3.1,22.9c-0.4,8.1-2.9,17.1-7.4,24c-4.6,7.3-11.2,14.4-13.2,22.9c-0.7,2.8-0.2,5.4-0.9,8.1
						c-0.9,3.3-3,5.5-3.4,8.9c2.3-0.9,5.4-7.1,6.7-9.6"/>
					<path id="XMLID_11071_" class="st3" d="M804.8,751.2c1.9-2.6,3.9-5.3,5.4-8.1c-0.6-0.1-1.4-0.7-2.3-0.8c-0.6-2.8,2.5-7,3.3-9.8
						c1.3-4.4,1.1-10.4,3.4-14.5c0.5,0.7,2.3,1.3,2.7,1.7c9.6-8,13-20.9,15.1-32.5c-5.1,7.7-7.1,20.1-14,26.4c-3-2.8-3.4,0-5.2,2
						c-3.2,3.8-2.2,3.6-2.5,8.6c-0.2,3.8-8.3,17.2-4,18.3c0.2,0.8,0.6,1.5,0.9,2.3c1.6,0.3,2.2-0.4,3-1.7"/>
					<path id="XMLID_11070_" class="st3" d="M808,686.5c0.6-4.1,1.5-8.4,2.1-12.3c-0.4,0.3-0.9,0.8-1.3,1.1
						c-1.5-8.1,1.1-17.1,2.1-25c1-8-2-15.9-1.3-23.6c0.2,0,0.4,0.1,0.6,0.2c1.5-3.1,2.4-6.7,2.9-10.1c2.9-1.2,6.1,0,7.2-3.2
						c3.8,2,7.7,12.4,8.5,16.9c-1.8-9.4-8-15.7-12.4-23.7c-2,2.5-0.5,6.4-4.6,7c-0.1,5.8-3,10.6-3,16.4c-0.1,7.2-0.2,14.4-0.3,21.3
						c-0.1,12-1.9,23.5-0.9,35.6"/>
					<path id="XMLID_11069_" class="st4" d="M852.3,610.4c-3.1-5-4.1-18.5-12.8-10.7c-4.1-4.5-7-10-7.9-15.9
						c-0.6,0.4-1.7,0.5-2.5,1.2c-5.1-3.1-10.5-12.9-13.3-17.6c2.4,6.8,5.6,13,7.4,19.9c-0.4-1.5-0.8-3.5-0.8-5.2
						c4.7,2.5,7.5,2.7,9.7,7.2c1.4,2.8,1.7,6.2,3.6,9c1.3,1.9,3.5,3.4,4.6,5.3c4.9-10.9,12.1,9.8,13.7,12.2
						c-0.7-0.7-1.4-1.4-2.1-2.2"/>
					<g id="XMLID_11064_">
						<path id="XMLID_11068_" class="st5" d="M789,795.6c1.8-0.6,4.4-16.2,5.9-19.7c4.7-10.8,10.2-20.9,15.2-31.5
							c12.6-26.5,29.2-56,28.3-85.7c-0.5,1.2-2.1,2.2-2.9,3.4c-9.2-5.8-3.8-19.2-6.2-28c-2.7-10.3-8.1-20.3-10.6-30.8
							c-1.3-5.7-0.3-6.8,5.1-3.7c-4.1-6.8-4.5-17.3-7-24.9c-3.2-9.6-5.5-19.5-8.7-29.2c-2.5-7.7-4.9-15.1-10-21.6
							c-4.8-6.1-4.3-8.1-10-13.3c7.6,9.4,10.1,11.8,15.8,22.5c9.5,17.8,14.7,37.6,15.4,57.5c-4.7-14-8.7-30-16.4-42.8
							c1.2,10,7.7,20.5,9.9,30.7c1.3,5.8,1.9,11.6,1.6,17.4c-0.5,10.1-2.6,21.9-1.1,31.5c-1-7,1.4-14.5,1.4-21.6
							c0-4.1-0.6-9,0.6-12.8c0.6,9.6,5.4,19.8,7.3,29.2c1.6,8,3,15.4,5.6,23.2c2.4,7.2,3.4,15.9,2.8,23.5c-0.6,6.3-1.5,17-4.2,22.7
							c2.1-2.7,2.1-6.6,5.1-8.8c1.7,7.8-6,20.8-8.9,28.1c-4.3,10.6-8,21-13.4,31.2c-8.1,15.5-15.5,26.6-23.6,42.1
							c0.1-5.5-5.5-3.1-3-9.3c6.3-15.9,11.7-32.2,15.5-48.8c-4.4,7.3-6.6,15.5-9.5,23.3c4.3-12.7,8.4-25.7,13-38.1
							c1.8,8.8-0.1,15.9-0.6,24.4c3.5-11.3,7.8-23.1,7.8-35c-1.6,3.3-2,8.1-6.8,6.6c-2.3-10,2.9-22.2,3.8-32.2
							c1.4-16.2,4.7-32.8,2.8-49.1c0.1,1.3-0.2,2.5-0.3,3.8c-0.4,0.1-0.8,0.2-1,0.5c-0.5-8.7,1.2-17.9,0-26.4
							c-0.4-2.9-0.9-7.5-2.6-9.9c-1.1-1.5-3.6-1.9-4.5-3.4c-3-4.8-2.1-14.5-3.3-20.2c-1.3-6.1-3.3-13-6.7-18.3
							c-3.4,2.7-3.4,9.7-1.7,12.4c2.3,3.6,4.3,3.4,5.4,7.9c1.3,5.1-0.5,9.8,0,14.8c-0.9-4.3-4.3-2.3-6.2-4.1c-3-3-2-10.9-2.3-14.8
							c-0.5-5.7-0.7-9.3-3.3-14.2c-3-5.6-3.5-9.4-3.9-15.6c-0.7-11.1,0.6-16.6-5.3-26.4c-3.6-6-5-0.6-12-2.2c6,6.9,4.5,5.6,5.6,14.5
							c-1.4-1-2.8-2-3.9-3.3c-0.2,4.8,4.6,9,6.9,12.8c3.8,6.1,7.5,12.2,9.2,19.2c3.3,14,6.2,29.4,8.1,43.6c1.5-1.6,3.5-2.8,5.5-3.9
							c3.3,5.2,8.4,5.9,9.5,12.4c1.9,10.9-0.3,21.9,1.1,32.9c2.1,15.9,3,30.4-0.6,46.3c-1.5,6.6-1.5,21.4-6,26.6
							c-2.1,2.4-4.3,1.5-8,1.7c-1.1-5.6,1-11,0.7-16.6c-5.2,0.4-7.2,0.9-7.9-3.9c-0.6-4.2,2.3-10.6,3-14.8c1-5.4,1.1-10.6,1.6-16
							c0.5-5.3,3.4-12.3,1.8-17.5c-0.6-1.9-2.8-3.2-3.3-5.7c-0.7,9.6-2.3,19.8-4.1,29.6c-1.6,8.8-0.4,17.3-5.2,25.4
							c-5.2,8.9-9.2,18.2-13.4,27.4c-2.4,5.3-7,13.2-7.5,18.8c6.9-2.3,9.8-14.4,12.5-20c2.4-4.9,5.8-16,11-19.1
							c4.5,6.4,12,11.4,14.5,18.1c1.7,4.6-1.2,10.1-3.1,14.5c-2.5,5.9-4.1,11.7-4.9,18c-0.8,6.6-2.1,11.9-4,18.3
							c-0.9,3.1-2.1,6.5-1.8,9.7c0.5,7.6,6.5,12.5,10.1,17.9"/>
						<path id="XMLID_11067_" class="st5" d="M742.4,734.1c3.7-3.7,4.2-10.9,4.1-15.6c-0.2-8.6,0.5-17.1,0.5-25.7
							c0.1,2.1,0.5,4.1,1,6.2c1.6-8.2-0.1-8.6,8.8-9.7c0.4-3.6,1.5-7.9,2.8-11.3c1.7-4.4,4.9-7.3,6.6-12.1
							c1.5-4.3,4.9-11.7,4.2-16.2c-0.7-4.4-2.6-9-3.4-13.8c-2.4,2.3-2.4,9.8-2.2,13.3c-0.2,0-0.9-0.3-0.5-0.6
							c-0.6,4.4,2,6.2,0.5,11.3c-1.5,5.3-3.9,10.4-5.8,15.6c-1.1,3-2,8.4-4.6,10.4c-2.1,1.6-4.4,1.2-6.7,2.5c-0.2-8,4-20,0.3-27.6
							c-1.2-2.4-3.4-2.6-5.1-4.2c-3.1-3-2,0.8-1.7-4.7c0.4-9,2.1-16.8,0.8-25.8c-1.1-7.5-3.2-14.3-3.3-22c4.8,8.2,1.2,18.6,4.7,26.7
							c1.3,3,5.1,5.2,7.4,7.9c3.1,3.8,3.6,8.1,4.7,12.6c-0.4-4.8-1.9-9.2-2.3-13.8c-10.6,2.8-9.9-29.5-10.4-35
							c-0.6-7.8,3.6-12.8,3.7-20.4c0.1-4.6-0.7-5.7,2-8.2c0.7-0.6,3.1-0.9,4.1-1.8c1.5-1.3,2.2-4.9,2.9-6.7c2.8,2.2,7.8,3,10.1,5.5
							c3.4,3.5,3.5,10.3,3.9,14.7c1.1,11.3,5.1,22.4-7.4,27.4c-1.6-4.9-1.3-10-1.4-15.1c-2.8,4.7,0.9,15.7,1.9,20.9
							c1.7,0.4,3.6,0.4,5.2-0.1c-0.8-6.5,2-6,5.4-9.4c4.4-4.4,2.8-9.7,2.4-15.3c-0.8-9.8-0.2-21.2-2.6-30.8
							c-2-8.1-7.2-14.7-8.4-23.3c-2.4-16.2-3.8-15.5-10.9-30.5c-3.7,1.6-5.6,2.7-9.1,0.4c4.2,6.4-10.1,0.9,1.7,0.2
							c5-0.3,4,2.6,6.5,7c2.5,4.4,3.5,9.9,5.2,14.8c4.2,12.6,12.7,26.2,11.9,39.7c-4.3-6.6-10.2-11.1-16.6-4.7
							c-4.2-2.2-8,3.9-12.7,2.7c-3.3-0.9-3.8-5.3-6.6-7.3c-4.3-3-11.9-0.3-15.1-3.7c-3.1-3.2-2.2-14.3-3.4-18.3
							c-1.1-4-3.8-6.6-5.6-10c-3.5-6.6,0.5-8.5,0.1-16c4.5-1.2,8.1-1.7,13.1-1.7c5.7,0,4.1,10.8,5.4,15.6c2.4,8.3,7,16.3,8.7,24.8
							c2-10.3-4.9-22-6.6-32.2c-1.3-7.8,1.7-5-6-8.7c-7.6-3.6-15.9-0.2-24.2,1.2c1.2,3.7-5.3-6.7-5.8-2.8c-0.1,1.1,1.6,2.1,1.4,3.5
							c-0.3,2,0.8,3.5,1.2,5.3c0.8,3.5,0.9,11,3.7,13.1c3.2,2.4,7.2,0.8,10.1,5.3c4.4,6.8,2.7,15.5,7.1,22c3.9,5.6,13.1,4,18.1,8.8
							c2.1,1.9,1.9,4.6,3.4,7.2c1.7,3,3.1,2.3,3.6,6.1c1.1,7.4-3.5,9.8-5.6,15.9c-0.7,2.2-0.4,4.8-1,6.8c-0.2,0.7-1.9,0.7-2.1,1.5
							c-0.3,1.4,0.8,2.3,0.8,3.5c-0.1,7.7,1.8,15.9,2.5,23.7c0.4,5,1,10.2,0.6,15.2c-0.3,4.2-2.4,7.8-1.5,12.1
							c5.7,0.8,6.3,0.6,7.5,6.1c1.4,6.9,1.9,13.3,0.7,20.2c-1.8,10.4-2.2,22-2.3,32.6c-11.3-4.4-16.5-14.6-24.8-22.6
							c-4.3-4.1-5.3-7.9-0.8-9.8c3.8-1.7,7,0.2,10.7-3.2c2.5-2.3,4.4-5.6,6.3-8.3c-10.1,0.3-5.9-4.6-12-8.8
							c-3.3-2.3-9.8-0.6-12.2-3.9c-2.8-3.8-0.5-13.8-1.7-18.6c-0.9-3.5-2.6-4.6,0.7-6.7c2.2-1.4,6.7,0.4,8.4-1.7
							c0.5-0.6-0.1-4.9,0-6c0.3-4.3,0.6-6.3,5.4-7.5c3.1-0.8,9.1,2,8.4-3.3c0.3,3.8,2.1,14.1-2.5,18.1c-2.7,2.3-5.2,0.4-6.4,4.6
							c-1.8,6.1,5.4,12,6.5,17.7c2.3-6.4-8.8-12-3.4-18.1c1.7-1.9,6-1.5,7.5-4c1.4-2.4,0.4-8.8,0.5-11.6c0.2-6.8-2.5-12.3-3.2-18.8
							c-0.7-6.8-0.9-14-1.2-20.9c-0.2-5,0.8-11.8-1.2-16.2c-0.3,1.5-1.1,3.2-1.4,4.6c-1.8-0.7-3.7-2.1-5.7-3
							c-3.5-1.6-7.2-1.1-10.4-2.7c-5.6-2.8-3.1-12.4-6-17.8c-2.8-5.3-6.6-9.3-7.1-15.5c-0.8-9.3,1.5-20.3-2.5-29.1
							c-0.8-0.4-2.9-1-3.7-1.1c1,7,3.6,13.8,3.9,21.3c0.2,6.4-1.4,13.7,1.5,19.8c2.4,5,6.2,8.2,7.8,14c1.4,4.9,0.2,8.6,4.2,11.6
							c4.5,3.5,13.2,3.4,17.2,7.4c4.3,4.2,2.9,15.3,3.1,20.8c0.4,10.7,1.7,19.2-11.8,20.4c0.9,5.4-3,8.8-3.4,13.8
							c-7.4-3.7-7.3,3-7.4,7.2c-0.2,6.9-3.3,16.5,1.2,22.6c2.9,4,1.5,1.5,6.3,2.6c3.8,0.9,5,3,7,5.9c0.7,1,4.8,5.7,5,6.8
							c0.5,3.5-5,4.3-8.4,5.3c-5.5,1.7-6,4.1-6.5,10.2c-0.5,6,2.8,3.3,6.8,7.5c4.9,5.1,5.8,13.4,10.6,18.7
							c4.4,4.8,11.9,4.6,13.4,11.8c-0.1,0.6-0.6,0.6-1.3,0"/>
						<path id="XMLID_11066_" class="st3" d="M706.4,678.3c6.2-7-0.7-21.2-1.4-29.8c-1.2-14.6,0.6-28.2,3.5-42.4
							c2.9-14.6-5.3-28.8-6.3-43.1c-0.4-6-1.9-9.6-4.3-15.3c-2.7-6.1-3-12.3-2.9-18.9c0.1-11.3,1.5-13.9-4-24
							c-4.2,0.2-13.9-7.4-17.8-6.2c1.1,4.6,2.2,8.8,2.6,13.4c0.2,2.1,0.1,4.6,0.7,6.6c1.1,3.4,2.4,2.7,4,4.6
							c2.9,3.5,3.4,8.3,5.8,12.7c2.7,5,4.3,8.8,5.6,14.3c3.5,14.2,2.3,28,4.6,42.2c1.5,8.7-4.7,12.7-7.1,20.4
							c-1.6,5.2,0.4,10.7-1.1,15.9c-1.6,5.7-4.1,9.4-4.3,15.4c-0.1,6.7-2.3,12.2-3.3,18.6c7.3,3.3,9.5,7.1,14.4,12.9
							c2.9,3.4,6.2,5.6,10.5,1.6"/>
						<path id="XMLID_11065_" class="st5" d="M666.7,512.9c1.9,6.3,6.9,15.2,6.2,21.8c-0.2,1.6-2.5,1.5-2.5,3.3
							c0,2.3,2.3,4.6,3.2,6.6c6.4,14.1,8.5,28.5,10.3,43.7c-0.8-2.9-1.7-6.6-4.4-8.3c0.6,9.3-1.8,18.3-1.4,27.6
							c0.3,7.7,1.3,13.7,3.1,20.7c2.6,9.8-5.7,18.8-9.9,27c0.7-5.7,3.8-12.3,4.3-17.9c0.3-3.5-0.8-6.1-0.2-9.7
							c1.2-6.7,4.4-15.3,2.8-22c-3.2,3.5-8.5,8.8-13.9,7.1c-6.9-2.2,0.6-11.6-0.3-16.7c2.1,4,1.8,17.5,7.9,10.7
							c4.9-5.5,4.5-18.9,4.4-25.9c-0.1-6.4-1-3.5-5.5-7.2c-5.7-4.6-3.1-12.2-8-17c-5.2-5-12.2-8.6-14.1-16c-1.2-4.5-0.5-9.4-0.6-14
							c3.2,4.7,4.8,10.9,7.7,16.1c2.4,4.2,5.4,7.6,8.3,11.6c5.3,7.4,7.2,15,14.3,20.9c0.2-8.9-2.2-21.4-6.2-29.4
							c-2.1-4.2-4.3-6.9-4.7-11.8c-0.3-4.1,0.3-7.1-1.3-11c-1.6-4-4.1-6.8-3.7-11.3c1.2-0.6,3.9,1.1,4.8,0.5"/>
					</g>
					<path id="XMLID_11063_" class="st3" d="M747.6,719.6c1.3-4,1.1-10.4,0.5-14.6c0.1,1.2-0.5,2.3-1.4,3.1
						c-1-3.6,0.9-10.1,2.6-13.4c0.6-1.2,1.5-2.8,2.5-3.5c1.4-0.9,3.9-0.6,5.4-2.1c2.9-2.9,4-9.4,5.1-13.2c1.5-5,4.5-9.2,6.1-14
						c-5.7,5.1-5.5,15.1-9,21.5c-2.6,4.8-8.3,5.1-11.2,9.7c-1.3,2.1-0.5,4.3-0.8,6.6c-0.3,2.3-0.8,4.6-0.9,6.9
						c-0.1,3.1,2,11.3,0.8,13.2"/>
					<path id="XMLID_11062_" class="st3" d="M735.7,511.8c-0.2-0.3-0.5-0.6-0.7-0.8c-0.7,1.6-2.6,0.6-3.7,1.9
						c-0.8,0.9-0.3,3.7-0.3,4.8c0.2,5.7,3.1,11.2,4.6,16.6c1.4,5,2.1,11.3,5.1,15.5c2.8,4,5.4,6.6,6.8,11.3c0.6,1.9,1.3,3.9,1.8,5.7
						c-0.5-7.4-6.8-13.6-11-19.1c-0.9,1.2-0.3,3.4-0.6,5.2c-0.4,2.7-2,5.2-1.8,8c0.3,3.6,2.6,6.9,3.3,10.5c0.5,2.4,0.8,5.1,1.7,7.4
						c1.2,2.9,3.3,5.2,2.3,8.6c-1.3,4.7-5.9,7.9-7.1,13c-2.4,10.2,2.2,19.4,2,29.6c-0.1,5.3-0.5,10.5,0,15.9
						c0.1,1.7,1.2,12.4-1,13.3c0,0.1,0,0.2-0.1,0.3c-1.7-3.5-0.6-10.3-0.1-14.3c0.4-4.1-0.3-8.5-0.6-12.6c-0.7-8.2-1.4-16.2-2-24.5
						c-0.7-8,3.5-13.5,6.6-20.5c1.7-3.9,0.5-6.5-1.1-10.3c-1.3-3.2-1.7-6.3-2.7-9.5c-1.8-5.9-3.5-9.1-1.8-15.1
						c1.7-6,0.7-11-1.1-16.8c-1.7-5.4-3-10.4-3.9-16c-0.2-1.6-2.4-6.7-0.9-8c0.7-0.6,2.5,0.1,3.1-0.1c1.6-0.3,1.9-1.1,2.3-0.8"/>
					<path id="XMLID_11061_" class="st6" d="M704.5,677c0.5-0.6,2.2-1.6,2.5-3.5c0.3-2.1-1.1-3.6-1.6-5.4c-1.7-6-2-12.7-2.5-18.9
						c-0.4-4.3-1-8.3-1-12.6c0.1-4.4,1.2-9.3,0.4-13.7c-4.7,7.5-2.1,18.8-5.2,27c-1.5,3.8-7.9,6.8-8.3,10.8
						c-0.4,3.7,7.4,6.3,9.6,9.2c1.3,1.7,3.1,6.9,5.6,6.1"/>
					<path id="XMLID_11060_" class="st6" d="M688.4,654.3c-0.2-2.9,2.9-6.7,3.7-9.8c0.8-3.2,0.1-6.6,0.9-9.8
						c0.7-2.8,2.8-5.4,3.8-8.1c0.9-2.6,1.5-5.3,2.4-7.9c1.9-5.3,2.2-10.5,3.6-16c1.7-6.7,2.9-12.7,2.7-19.7
						c-0.2-8.5-3.9-18.1-6.7-26.2c-2.7-7.8-4.6-15.6-5.7-23.8c-0.8-5.9-0.7-11.8-2.8-17.4c-1.4-3.8-5.6-8.8-10.2-9.6
						c4.4,8.3,10.1,17.2,11.9,26.5c1.6,8.6,2.9,17.2,4.9,25.7c1.4,5.9,3.7,11.6,4.5,17.6c1,6.9,0.1,13.1-0.3,20
						c-0.9,13.3-10.8,24.5-11,37.7c-0.1,4.1-1.8,8.2-2.8,12.3c-0.9,3.9,0.1,4.5,1,7.8"/>
				</g>
			</g>
		</g>
		<path id="XMLID_11055_" class="st7" d="M720.2,623.1c0,0-43.4-22.8-47.2-33.7s-19-42.2,14.6-57.2c33.6-15.1,45.7,1,38.4,13.7
			c-7.3,12.7-45.1,15.8-28,41.4C715.1,612.9,741.2,620.7,720.2,623.1z"/>
		<g id="XMLID_11052_" class="st8">
			<path id="XMLID_11054_" class="st9" d="M778.7,765.6c0,0,27-26.3,29.4-54c2.4-27.8,1.9-41.8,8.2-51c6.3-9.2-7.9-28.7-8.3-32.8
				c-0.4-4.2-43.6-10.8-31.9,34.5c11.7,45.2,10.4,64.2-2.4,79.3C761,756.6,762.8,771.2,778.7,765.6z"/>
			<path id="XMLID_11053_" class="st10" d="M779,758c0,0,19.7-24.9,20.8-34.1c1.2-9.3,2.9-52,7.5-60.1c4.6-8.1,0.9-20.3-3.3-23.1
				c-4.2-2.8-25.8-10.8-21.3,9.9c4.4,20.7,14.5,25,11.9,35.2c-2.5,10.2,5.8,28.4-6.8,45.9C775.4,749.1,772.5,760.5,779,758z"/>
		</g>
	</g>
</g>
</svg>
