<?xml version="1.0" encoding="utf-8"?>
<!-- Generator: Adobe Illustrator 19.0.0, SVG Export Plug-In . SVG Version: 6.00 Build 0)  -->
<svg version="1.1" id="Layer_1" xmlns="http://www.w3.org/2000/svg" xmlns:xlink="http://www.w3.org/1999/xlink" x="0px" y="0px"
	 viewBox="0 0 1000 990.3" style="enable-background:new 0 0 1000 990.3;" xml:space="preserve">
<style type="text/css">
	.st0{fill:#D85319;}
</style>
<path id="XMLID_10265_" class="st0" d="M285.1,153.2c109.2-63,142.9-36.5,236.9-43.5c59-4.4,102.1,15.6,150.5,42
	c38.1,20.8,75.2,44.3,109.8,67.3c80.1,53.5,101.8,136,108.9,195.6c19.8,164.8,13.3,233.8-87.2,329.9
	C658.3,884,526.3,887.4,417,873.1c-129.1-17-114-31.6-234.9-132.1c-56.6-47-70.1-160.3-78-221.9c-10.4-80.7,5.5-158.6,33.4-203.3
	C192.2,228.4,213,194.7,285.1,153.2z"/>
</svg>
