<?xml version="1.0" encoding="utf-8"?>
<!-- Generator: Adobe Illustrator 19.0.0, SVG Export Plug-In . SVG Version: 6.00 Build 0)  -->
<svg version="1.1" id="Layer_1" xmlns="http://www.w3.org/2000/svg" xmlns:xlink="http://www.w3.org/1999/xlink" x="0px" y="0px"
	 viewBox="0 0 255.6 193.7" style="enable-background:new 0 0 255.6 193.7;" xml:space="preserve">
<style type="text/css">
	.st0{fill:#A14A22;}
	.st1{fill:#DFC1B0;}
	.st2{fill:#C06748;}
	.st3{fill:#E7C9B9;}
	.st4{opacity:0.4;fill:#FFEBC6;}
</style>
<g id="XMLID_15990_">
	<path id="XMLID_16001_" class="st0" d="M207.5,105.4c-20.6,4-43.2,3.7-60.1,16.2c-11.4,8.5-18.2,21.5-27,32.7
		c-21.7,27.6-62.2,41.6-97.2,39.1c-1.5-4-3.1-8-4.7-12.1C13,167.1,6.6,152.5,0,139.2c28.2,1.3,56.6-12.9,72.4-36.3
		c9.9-14.7,15.3-32.8,28.8-44.3c16-13.6,38.9-14.4,59.5-18.4c20.7-4,43.7-15.9,45.8-36.9c14.9,16.5,32.4,35.1,44.4,54.6
		c1.6,2.6,3.1,5.3,4.5,7.9C257.6,65.1,228.1,101.4,207.5,105.4z"/>
	<path id="XMLID_16000_" class="st1" d="M250.9,57.9c-9.8,11.1-29,29.8-43.8,32.6c-21.5,4.1-45.1,3.7-62.6,16.6
		c-11.9,8.7-18.9,22.2-28.1,33.7c-21.9,27.5-62.1,41.9-97.7,40.4c-0.6-1.6-1.2-3.1-1.9-4.7C11.6,163.9,5.9,151,0,139.2
		c28.2,1.3,56.6-12.9,72.4-36.3c9.9-14.7,15.3-32.8,28.8-44.3c16-13.6,38.9-14.4,59.5-18.4c20.7-4,43.7-15.9,45.8-36.9
		c13.3,14.7,28.7,31.2,40.4,48.5C248.3,53.9,249.7,55.9,250.9,57.9z"/>
	<path id="XMLID_15997_" class="st2" d="M240.7,47.3c-10.9,11.5-28.8,25.1-41.9,27.6c-22.3,4.4-39,9.6-57.2,23.2
		c-12.3,9.2-29.1,16.7-38.6,28.8c-21.5,27.5-50.7,49.3-86.2,49.6c-1.4-3.3-2.7-6.7-4.2-10c-0.8-2-1.7-4.1-2.6-6.1
		C6.7,153.2,3.4,146,0,139.2c28.2,1.3,51.9-16.3,67.7-39.6C77.6,84.8,83,66.7,96.5,55.2c16-13.6,38.9-14.4,59.5-18.4
		c20.7-4,43.7-15.9,45.8-36.9c5.5,6.1,16,15.8,21.8,22.5c1.5,1.7,3.1,3.5,4.6,5.3c3.8,4.5,7.6,9,11.1,13.7c1.3,1.7,2.7,3.5,3.9,5.3
		C244.6,48.5,239.5,45.6,240.7,47.3z"/>
	<path id="XMLID_15996_" class="st1" d="M80.2,139.7c-18.9,15.2-43,25.9-67.7,26.8c-0.8-2-6.2-14.4-7.1-16.4
		c23.7-4.1,41-8.6,62.2-21.9C71.7,125.8,93.7,128.9,80.2,139.7z"/>
	<path id="XMLID_15995_" class="st1" d="M157.7,44.9c-18.5,0.2-41.9,8.4-55.5,21C86.8,80,83.5,103.1,69.8,118.7
		c-0.5,0.6,3.4,3.8,4.1,3.5c15.4-7.3,20.9-26.8,31.2-39.1c13.7-16.3,32.8-24.3,53.7-25.8C162.7,56.9,161.7,44.8,157.7,44.9z"/>
	<path id="XMLID_15994_" class="st1" d="M154.7,76.4c-9.5-0.6-18.9,4.4-26.4,9.7c-7.8,5.4-16.2,11.7-19.6,20.9
		c-0.6,1.6,1.8,3,2.7,1.5c8.8-15.2,27.4-23.1,43.5-27.3C157.3,80.5,157.6,76.6,154.7,76.4z"/>
	<path id="XMLID_15993_" class="st1" d="M243.4,46.8c-6.5,4.6-13.7,8.2-20.2,11.2c-13.7,6.2-33.2,13.9-48.3,11.4
		c-0.7-0.1-0.9-1.1-0.2-1.4c12.9-6.9,16.7-17.2,30.3-23.1c7.7-3.3,17.3-10.4,24.1-15.4c1.5-1.3,11.8,10.9,10.4,12
		C240.8,43.2,242.1,45,243.4,46.8z"/>
	<path id="XMLID_15992_" class="st3" d="M228.3,27.8c-2.3,1.7-4.5,3.4-6.6,4.9c-7.7,5.5-16.7,11.5-26.3,12.6c-1,0.1-1.6-1.1-0.8-1.8
		c6.9-6.2,15.7-10.1,23.1-15.7c2.1-1.6,4.1-3.4,6-5.2C225.2,24.2,226.8,26,228.3,27.8z"/>
	<path id="XMLID_15991_" class="st4" d="M177.7,46.6c-11.2,2.5-22.9,2.4-34.3,4c-6.3,0.9-12.7,2.4-17.7,6.4
		c-1.7,1.3-3.2,3.2-3.1,5.3c0.1,1.7,1.2,3.3,2.4,4.5c8.8,8.9,22.6,10.6,35.1,9.4c19.7-1.8,38.9-9.2,54.7-21.2
		c5.4-4.1,10.8-9.9,9.9-16.6c-1.3-9-11.9-13.1-18.9-8.3C196,36.8,190.2,43.9,177.7,46.6z"/>
</g>
</svg>
