<?xml version="1.0" encoding="utf-8"?>
<!-- Generator: Adobe Illustrator 19.0.0, SVG Export Plug-In . SVG Version: 6.00 Build 0)  -->
<svg version="1.1" id="Layer_1" xmlns="http://www.w3.org/2000/svg" xmlns:xlink="http://www.w3.org/1999/xlink" x="0px" y="0px"
	 viewBox="0 0 102.2 98.3" style="enable-background:new 0 0 102.2 98.3;" xml:space="preserve">
<style type="text/css">
	.st0{fill:#4EA204;}
	.st1{fill:#3A7F04;}
	.st2{fill:#7CC010;}
	.st3{opacity:0.8;fill:#8ADA72;}
	.st4{opacity:0.77;fill:#7AC658;}
	.st5{fill:#8ADA72;}
</style>
<g id="XMLID_17183_">
	<path id="XMLID_17204_" class="st0" d="M19.9,98.4c0,0-2.6-9.8-2.7-23.3c0-2.9,0.1-5.9,0.3-9c0.3-3.2,0.7-6.4,1.3-9.8
		c0.5-2.5,0.5-5.1,1.3-7.6c1.1-3.6,10.6-21,15-25.6c2.6-2.8,14.6-11.6,17.9-13.3c2.9-1.5,5.9-2.8,9.2-4c2.8-1,5.8-1.9,9-2.7
		C75.6,1.9,80.1,1,85,0.4c0,0,17,45.2-7.4,69.6C53.6,94.1,31.8,96.1,19.9,98.4z"/>
	<g id="XMLID_17188_">
		<path id="XMLID_17201_" class="st1" d="M85,0.4c-6.8,0.9-11,1.3-16.5,3c-3.2,1-17.7,3-37.3,22.7c-25,25-11.3,72.3-11.3,72.3
			c0.5-0.1,0.9-0.2,1.3-0.3c17-26.2,51.7-78.6,64-97.3C85.1,0.5,85,0.4,85,0.4z"/>
		<g id="XMLID_17189_">
			<path id="XMLID_17200_" class="st2" d="M24.4,93.4l59-88C83.4,5.4,50.4,42.4,24.4,93.4z"/>
			<polygon id="XMLID_17199_" class="st2" points="61.3,11 61.4,36.8 59.4,39.3 			"/>
			<polygon id="XMLID_17198_" class="st2" points="86.9,27.9 61.4,36.8 59.4,39.3 			"/>
			<polygon id="XMLID_17197_" class="st2" points="47.9,53 45.4,24.7 49.5,50.6 			"/>
			<polygon id="XMLID_17196_" class="st2" points="53.1,50.7 81.5,46.2 50.6,54.3 			"/>
			<polygon id="XMLID_17193_" class="st2" points="40.2,67.3 32.1,45.6 37,70.6 			"/>
			<polygon id="XMLID_17190_" class="st2" points="39.2,66.9 63.1,60.1 38.2,71.2 			"/>
		</g>
	</g>
	<path id="XMLID_17187_" class="st3" d="M30.2,84.9c-1.2-4.1-5.1-8.9-3.9-17.2S13,70.5,24.4,93.4C24.4,93.4,32.8,94,30.2,84.9z"/>
	<path id="XMLID_17186_" class="st4" d="M84.2,9.8c0,0,14.7,29-6.9,46s-9.3,20.4-15.4,18.7c-6.1-1.7-2.2-15.6,6.1-27.4
		c7.7-11.1,9.5-16.6,8.4-21.8C75.3,20.1,84.2,9.8,84.2,9.8z"/>
	<path id="XMLID_17184_" class="st5" d="M83.9,20.4c0,0-4.5,0.7-4.8,2.6c-0.3,1.9-3.5,18.1,1,18C86.6,40.8,87.3,27.3,83.9,20.4z"/>
</g>
</svg>
