<?xml version="1.0" encoding="utf-8"?>
<!-- Generator: Adobe Illustrator 19.0.0, SVG Export Plug-In . SVG Version: 6.00 Build 0)  -->
<svg version="1.1" id="Layer_1" xmlns="http://www.w3.org/2000/svg" xmlns:xlink="http://www.w3.org/1999/xlink" x="0px" y="0px"
	 viewBox="-305 404.3 189.6 193.7" style="enable-background:new -305 404.3 189.6 193.7;" xml:space="preserve">
<style type="text/css">
	.st0{fill:#EB1716;}
	.st1{fill:#C60A0A;}
	.st2{fill:#F46B47;}
	.st3{fill:#F7845C;}
	.st4{fill:#F2A579;}
	.st5{fill:#C80200;}
	.st6{fill:#E30200;}
	.st7{fill:#EDBF91;}
	.st8{fill:#EFB173;}
	.st9{fill:#FFFFFF;}
</style>
<g id="XMLID_10313_">
	<g id="XMLID_14757_">
		<path id="XMLID_14761_" class="st0" d="M-193.7,586.5c23.5-5.2,42-22.8,52.5-36.7c10.6-13.9,19.6-37.7,11.8-72.5
			c-7.8-34.8-31.9-50.9-64.7-59.1c-32.7-8.2-58.2,7.2-80.9,29.5c-22.8,22.3-28,68,0.2,107C-246.5,593.8-193.7,586.5-193.7,586.5z"/>
		<path id="XMLID_14758_" class="st1" d="M-283.7,561.2c13.2,18.3,33.3,30.4,58.1,34.9c18.3,3.3,32.8,1.4,33.4,1.3l0.4-0.1l0.4-0.1
			c29.1-6.4,49.4-28.3,58.9-40.8c5.8-7.6,10.2-16.3,13.1-26c5-16.7,5.3-35.4,0.8-55.6c-4.2-18.8-13.2-34.1-26.6-45.5
			c-11.6-9.9-26.7-17-46.1-21.9c-17.5-4.4-34.7-3.1-51.2,3.9c-13.3,5.6-26.1,14.6-40.2,28.5c-8.4,8.3-14.9,19.2-18.6,31.7l10.5,3.1
			l-10.5-3.1c-4.1,13.7-4.9,28.8-2.2,43.8C-300.5,531.6-293.9,547-283.7,561.2z M-290.7,474.7c3.2-10.7,8.6-20,15.8-27
			c22.8-22.3,48.2-37.7,80.9-29.5c32.7,8.2,56.8,24.3,64.7,59.1c4.6,20.4,3.4,37-0.5,50c-2.8,9.2-6.9,16.7-11.3,22.5
			c-10.6,13.9-29,31.5-52.5,36.7c0,0-52.9,7.3-81.1-31.7C-294.1,527.9-297.7,498-290.7,474.7z"/>
	</g>
	<path id="XMLID_14756_" class="st2" d="M-277.6,541.5c4.8,10.4,24.3,32.9,49.5,40.1c25.2,7.2,56.7-9.3,56.7-9.3
		c19-13.3,28.2-28.1,26.3-31.8c-1.8-3.7-5.3-7-1.5-7.4c3.8-0.4,13.3-2.2,14-25.3c0.7-23.1-14.5-51.2-20-60.4
		c-5.6-9.1-15.5-11.2-18.7-8.8c-3.2,2.4-5.7,2.4-6.3-0.6c-0.5-3.1-2.2-10.8-12.1-15.6c-10-4.8-51.4-2.8-79.7,23.6
		c-28.3,26.5-17.5,65.6-16,69.8c1.4,4.2,11.1,4.2,12.6,6.7C-271.4,524.9-282.5,531.1-277.6,541.5z"/>
	<path id="XMLID_14755_" class="st3" d="M-269.9,521.9c0.6,2.2-0.8,4.1-2.3,6.1c-2.1,2.8-4.7,6.2-3.3,10.7c0.1,0.5,0.3,1.1,0.6,1.6
		c2,4.3,7.5,12.2,16.5,20.3c6.8,6.2,17.8,14.4,31.2,18.2c12.3,3.5,26.4,0.9,36.1-1.9c9.8-2.9,17.2-6.5,18.4-7.1
		c7.8-5.5,14.7-11.8,19.5-17.9c4.4-5.6,5.7-9.3,5.7-10.2c-0.4-0.8-0.9-1.6-1.4-2.4c-0.8-1.2-1.5-2.4-1.8-3.5c-0.5-1.7,0-2.9,0.4-3.6
		c0.7-1.1,2-1.8,3.7-1.9c2.7-0.3,10.8-1.2,11.4-22.5c0.2-6.7-1-14.4-3.5-23c-5.2-17.5-14.3-32.9-16.1-35.8
		c-3.8-6.3-9.3-7.8-10.9-8.1c-2-0.4-3.2-0.1-3.6,0.2c-2.8,2.1-5.3,2.7-7.4,2c-1.6-0.5-2.8-1.8-3.3-3.6c-0.1-0.3-0.1-0.6-0.2-0.9
		c-0.1-0.7-0.3-1.5-0.6-2.5c-1.4-4.8-4.8-8.5-9.9-11c-4.4-2.1-16.8-2.7-31.1,0.3c-8.1,1.7-15.8,4.3-23.1,7.8
		c-8.4,4-15.9,9.1-22.3,15c-26.7,24.9-16.7,61.8-15.5,65.9c0.1,0.4,0.2,0.7,0.3,0.8c0.1,0.2,0.5,0.6,1.4,1.1c1.2,0.6,2.7,1,4.2,1.5
		c2.9,0.9,5.5,1.6,6.7,3.6C-270.1,521.3-270,521.6-269.9,521.9z"/>
	<path id="XMLID_14754_" class="st4" d="M-240.5,509.2c3.9,7.6-9.4,13.4-15.8,16.1c-6.4,2.7-12.6,10.1-10.1,15.9
		c2.2,4.9,8.7,11.3,14.4,17.1c10,10.2,31,14.1,38.5,14.7c20.6,1.7,35-7,46.5-13.8c11.4-6.8,13.5-17.9,12.2-21.9
		c-1.3-4.1-8.6-9.1-14.3-9.9c-5.7-0.8-10.6-1.9-12.4-5.3c-1.8-3.4,1.7-7.4,7.5-5.1c5.7,2.2,29,7.9,31.6,3c2.6-4.9,2.5-14.1,2.7-19.4
		c0.3-8.3-2.5-14.1-6.1-22.7c-4.7-11.5-4.1-7-8.3-15.6c-4.2-8.6-9-15.5-16.6-13.8c-3.2,0.8-11.1,4.6-16.9,13.6
		c-5.7,8.9-7.9,9.6-9.5,5.8c-1.5-3.8,7.2-15.8,7.5-21.8c0.4-6.1-2.1-10.2-11.4-15.6c-6.3-3.6-27.2-0.4-37.2,3.7
		c-10,4-30.2,21.8-34.5,28.3c-4.4,6.5-6,18.6-5.9,26.1c0.1,7.5-1.7,16.1,5,21.5c6.6,5.4,20.3-1.5,26.2-2.6
		C-241.1,506.3-240.5,509.2-240.5,509.2z"/>
	<g id="XMLID_14752_">
		<path id="XMLID_14753_" class="st5" d="M-243.4,533.5c7.4-4,22.5-8.8,17.9-15.7c-2.1-3.2-6.6-1.6-16.6,3.1
			c-10,4.8-26.5,13.2-20.4,21.8c6.1,8.6,9.5,12.6,18,18.3c8.5,5.7,43.4,11.1,51.8,7.9c8.4-3.2,37-15.3,35-28.3
			c-2.1-13-16.2-8.8-19.8-12.4c-3.6-3.6-18.7-13.4-21-9.2c-2.3,4.3,14.1,10.1,15.9,15c1.8,4.9-4.1,16.3-11.8,17.1
			c-7.6,0.8-35.3-0.6-40.8-3.3C-240.7,545.2-250.8,537.5-243.4,533.5z"/>
	</g>
	<g id="XMLID_14750_">
		<path id="XMLID_14751_" class="st6" d="M-247.5,538.7c-0.5-1.6-0.7-4.6,3.3-6.8c1.5-0.8,3.3-1.6,5.1-2.5
			c5.8-2.7,13.7-6.4,12.6-9.8c-0.1-0.3-0.2-0.6-0.4-0.9c-0.4-0.7-1.1-1.3-3.5-0.7c-2.5,0.6-6,2.1-10.9,4.4
			c-4.9,2.3-10.5,5.1-14.8,8.3c-4.6,3.5-6.6,6.6-5.8,9.3c0.2,0.5,0.4,1.1,0.8,1.6c6,8.4,9.2,12.3,17.5,17.9c3.7,2.5,13.6,5.2,25.3,7
			c11.4,1.8,21.5,2.1,25,0.7c16.5-6.3,35.4-17,33.9-26.4c-0.1-0.6-0.2-1.2-0.4-1.8c-1.7-5.8-6.9-6.6-11.8-7.3
			c-3-0.4-5.6-0.8-7.2-2.4c-1.3-1.3-4.9-4-8.8-6.2c-4.2-2.4-7.6-3.7-9.2-3.5c-0.1,0-0.3,0.1-0.4,0.1c0,0,0,0,0,0.1
			c0.4,1.4,4.3,3.9,7.1,5.7c4.1,2.6,7.9,5,8.9,7.7c0,0.1,0.1,0.3,0.1,0.4v0c0.9,3.1-0.3,7.7-3,11.8c-2.8,4.2-6.6,6.8-10.3,7.2
			c-7.8,0.9-35.7-0.6-41.7-3.5C-239.4,547.8-246.1,543.4-247.5,538.7z"/>
	</g>
	<path id="XMLID_14749_" class="st5" d="M-206.1,451.5c0.4,8.5-10,14.8-8.4,21.1c1.5,6.3,6.2,6.8,13-6.7c6.8-13.5,12-28.7-2.8-31.4
		c-14.8-2.8-27.4-3-42.6,8.7c-15.2,11.7-27.2,19.5-28.4,37.1c-1.2,17.6-3.9,23,3.5,27.6c7.5,4.6,19.5-3.3,25.9-4.4
		c6.5-1.2,11.6-2,12.3-6.9c0.8-5.5-12.2-3.9-19.5-2.8c-7.2,1.1-7.2-5-4-13.5c3.2-8.5,15.6-18.6,29.2-24.8
		C-214.3,449.3-206.5,443-206.1,451.5z"/>
	<path id="XMLID_14748_" class="st6" d="M-204.8,449L-204.8,449c0.2,0.7,0.3,1.5,0.4,2.4c0.2,4.9-2.6,9-5,12.5
		c-2.1,3.1-4,5.9-3.4,8.3c0,0.2,0.1,0.4,0.2,0.6c0.4,1.4,1,2.4,1.6,2.4c0.3,0,3,0,8-10c3.5-7,8-16.9,6.1-23.1
		c-0.9-3.1-3.4-5-7.7-5.8c-6.1-1.1-13.4-2.2-20.6-1c-7.1,1.1-13.7,4.1-20.6,9.4c-1.1,0.8-2.2,1.7-3.2,2.4
		c-13.6,10.4-23.4,17.9-24.5,33.4c-0.3,3.7-0.6,6.9-0.9,9.7c-0.6,5.6-0.9,9.3-0.2,11.9c0.5,1.8,1.7,3.1,3.8,4.4
		c4.5,2.8,11.7,0,17.4-2.3c2.7-1,5.2-2,7.2-2.4l0.6-0.1c6.5-1.2,9.9-2,10.4-5.3c0-0.2,0-0.3,0-0.5c-0.1-0.1-0.6-1.4-6.1-1.5
		c-3.7,0-8.1,0.6-11.5,1.1c-5.4,0.8-7.1-2.1-7.7-3.9c-0.8-2.7-0.2-6.6,1.8-11.9c1.7-4.4,5.5-9.2,11.2-14c5.3-4.5,12.1-8.7,18.9-11.8
		c2.9-1.3,5.5-2.6,7.8-3.8c6.4-3.2,10.6-5.3,13.6-4.1C-206,446.6-205.2,447.5-204.8,449z"/>
	<path id="XMLID_14747_" class="st5" d="M-190.1,504.2c0.2,6.6,11.3,6.9,16.4,10c5.1,3.1,13.1,2.5,17.5,3.8
		c4.3,1.2,13.5-1.5,13.1-7.8c-0.4-6.3,3-14.1-0.5-19.7c-3.5-5.6-2.8-2.2-8-16.1c-5.2-13.9-10.2-23.5-17.6-22
		c-7.4,1.5-19.8,17.7-24.1,25.1c-4.3,7.4-4.3,13.4,0.4,11c4.7-2.4,12.3-17.9,17.6-18.1c5.3-0.1,12.8,5.9,11.5,12.3
		c-1.3,6.5,10.3,26.2-7.9,23.9C-173,506.4-190.3,497.7-190.1,504.2z"/>
	<path id="XMLID_14746_" class="st6" d="M-182.5,504.4c-4.4-1.3-5.6-0.7-5.8-0.6c0,0-0.1,0.1-0.1,0.5c0,0.3,0.1,0.6,0.1,0.9
		c0.8,2.5,4.8,3.8,8.6,5c2.5,0.8,4.9,1.5,6.8,2.7c3,1.8,7.3,2.2,11,2.6c2.2,0.2,4.3,0.5,6,0.9c2.2,0.6,6.5-0.1,9-2.1
		c1.4-1.1,2-2.4,1.9-3.9c-0.2-2.4,0.2-5,0.5-7.5c0.5-3.3,0.9-6.7,0.1-9.5c-0.2-0.7-0.5-1.4-0.8-1.9c-0.9-1.4-1.5-2.3-2-3
		c-1.6-2.1-2.3-3-6.2-13.4c-2-5.4-4.7-12.1-7.7-16.4c-3.5-4.8-6.2-4.9-7.9-4.6c-6.5,1.3-18.6,16.7-22.9,24.3
		c-2.6,4.6-3.1,7.8-2.8,8.9c0,0,0,0,0,0c0.2,0,0.5-0.1,0.9-0.4c1.6-0.9,4.2-4.4,6.6-7.5c4-5.5,7.9-10.7,11.8-10.8
		c5.4-0.2,11.4,4.4,13,9.8c0.5,1.5,0.5,3.1,0.2,4.6c-0.3,1.5,0.4,4.4,1,7.2c1.3,5.6,2.7,11.9-0.6,15.6c-2,2.3-5.4,3.1-10.3,2.4
		c-0.4,0-0.8-0.2-2.4-0.9C-176.5,506.5-179.6,505.2-182.5,504.4z"/>
	<path id="XMLID_14745_" class="st7" d="M-221.6,516.8c0.6,1.8-1.1,4.5-6,14.1c-4.7,9.2,14.5,7.3,25.5,6.7c11-0.6,12.6-6.8,5.9-10
		c0,0-8.9-7.5-5-11.9c2.8-3.3,25.1,7.2,34.7,12.3c9.5,5.1,10.6-0.1,10.8-4.1c0.2-4.4-25.9-7.9-32.2-12.1c-3.9-2.6-9.4-6.5-7.1-9.3
		c3.6-4.6,11.6-2.7,16.9-3.4c5.3-0.7,4.8-5.6,2.9-12c-2.8-9.5-12,0.1-15.6,4.6c-3.6,4.5-8.6,0.2-10.6-4.2
		c-2-4.4,18.3-27.6,21.3-33.5c3.1-5.9-4.2-8.9-7.3-8c-4.5,1.3-10.9,24.2-19.3,33.7c-4.3,4.9-13.9,4.9-14.7-1.5
		c-0.7-6.4,3.4-12.1-3-12.9c-7.2-0.8-21.4,14.4-20.1,18.4c1.4,3.9,10.9,5.1,15.6,7.7c5.4,3,3.7,7.1,0.8,11.3
		c-1.9,2.7-30.6,9.6-34.2,11.6c-3.6,2-4,3.5-0.4,8.2c3.6,4.8,28-7,33.9-10.1C-223.1,509.5-221.6,516.8-221.6,516.8z"/>
	<path id="XMLID_14744_" class="st3" d="M-219.9,441c-0.5-4-3-3.3-4.7-2.9c-1.8,0.4-2.8,1.8-1.6,5.4c0.6,1.9,1.9,3.2,2.9,4.1
		c1,0.8,2.4,0.4,2.8-1C-220.1,445.1-219.7,443-219.9,441z"/>
	<path id="XMLID_14743_" class="st3" d="M-205.9,441.1c1.2-2.9-0.7-3.4-2.1-3.9c-1.4-0.4-2.7,0.1-3.3,3c-0.3,1.5,0,2.9,0.4,4
		c0.4,1,1.5,1.2,2.3,0.5C-207.7,443.8-206.6,442.6-205.9,441.1z"/>
	<path id="XMLID_14742_" class="st3" d="M-198.9,446c1.9-1.5,0.8-2.6,0-3.4c-0.8-0.8-1.8-0.9-3.3,0.8c-0.8,0.9-1.1,2-1.2,2.8
		c-0.1,0.8,0.5,1.3,1.4,1.2C-201.1,447.1-199.9,446.7-198.9,446z"/>
	<path id="XMLID_14741_" class="st8" d="M-199.4,445.7c1.5-1.1,0.6-2,0-2.6c-0.6-0.6-1.4-0.7-2.6,0.6c-0.6,0.7-0.9,1.5-0.9,2.2
		c-0.1,0.6,0.4,1,1.1,0.9C-201.1,446.7-200.1,446.3-199.4,445.7z"/>
	<path id="XMLID_14740_" class="st3" d="M-233.7,452.9c-0.1-1.6-0.4-3.7-1.4-5.6c-1.8-3.5-3.9-2.1-5.4-1.1c-1.5,1-2,2.6,0.4,5.6
		c1.2,1.6,2.9,2.4,4.2,2.9C-234.8,455.2-233.7,454.3-233.7,452.9z"/>
	<path id="XMLID_14739_" class="st8" d="M-234.6,451.4c-0.1-1.2-0.3-2.8-1-4.2c-1.4-2.7-3-1.6-4.1-0.9c-1.2,0.8-1.5,2,0.3,4.3
		c0.9,1.1,2.2,1.8,3.2,2.2C-235.4,453.2-234.5,452.5-234.6,451.4z"/>
	<path id="XMLID_14738_" class="st3" d="M-247.3,461.8c-0.4-1.5-1.1-3.5-2.3-5.2c-2.5-3.1-4.3-1.4-5.6-0.1c-1.3,1.3-1.5,2.9,1.4,5.5
		c1.5,1.3,3.3,1.8,4.6,2.1C-247.9,464.2-247,463.1-247.3,461.8z"/>
	<path id="XMLID_14737_" class="st8" d="M-248.3,461.3c-0.3-1.2-0.8-2.7-1.8-4c-1.9-2.4-3.2-1-4.2-0.1c-1,1-1.1,2.2,1.1,4.2
		c1.1,1,2.5,1.4,3.5,1.6C-248.7,463.2-248,462.3-248.3,461.3z"/>
	<path id="XMLID_14736_" class="st3" d="M-257.7,472.2c-0.6-1.4-1.6-3.3-3.2-4.7c-3-2.7-4.4-0.7-5.5,0.8c-1.1,1.5-1,3.2,2.3,5.2
		c1.7,1,3.5,1.3,4.9,1.3C-257.9,474.7-257.2,473.5-257.7,472.2z"/>
	<path id="XMLID_14735_" class="st8" d="M-258.6,472c-0.5-1.2-1.3-2.6-2.6-3.8c-2.3-2.1-3.5-0.5-4.3,0.7c-0.9,1.2-0.8,2.5,1.8,4.1
		c1.3,0.8,2.8,1,3.9,1C-258.8,473.9-258.2,472.9-258.6,472z"/>
	<path id="XMLID_14734_" class="st3" d="M-264,484.8c-1-0.8-2.5-1.7-4.2-2c-3.2-0.7-3.4,1.4-3.6,2.8c-0.1,1.5,0.6,2.7,3.8,2.7
		c1.6,0.1,3-0.5,4-1.1C-263.1,486.6-263,485.5-264,484.8z"/>
	<path id="XMLID_14733_" class="st3" d="M-264.1,497.7c-1.2-0.2-2.7-0.2-4.2,0.2c-2.8,0.8-2.1,2.5-1.6,3.7c0.5,1.2,1.6,1.8,4.1,0.5
		c1.3-0.7,2.1-1.7,2.7-2.6C-262.7,498.7-263.1,497.8-264.1,497.7z"/>
	<path id="XMLID_14732_" class="st3" d="M-243.9,553.3c-1.8,3.5,0.5,4.3,2.2,5c1.7,0.6,3.3,0.1,4.3-3.5c0.5-1.8,0.3-3.6-0.1-5
		c-0.4-1.2-1.7-1.6-2.8-0.7C-241.5,550-243,551.5-243.9,553.3z"/>
	<path id="XMLID_14731_" class="st3" d="M-255.5,545.6c0.7,1.3,1.9,1.8,4.4,0.2c1.3-0.8,2-2,2.5-3c0.4-0.9-0.2-1.9-1.3-1.9
		c-1.2-0.1-2.9,0-4.4,0.6C-257.1,542.6-256.1,544.4-255.5,545.6z"/>
	<path id="XMLID_14730_" class="st8" d="M-254.9,545.2c0.5,1,1.4,1.3,3.2,0.1c0.9-0.6,1.5-1.5,1.8-2.2c0.3-0.7-0.2-1.4-0.9-1.4
		c-0.9-0.1-2.1,0-3.2,0.4C-256.1,543-255.4,544.3-254.9,545.2z"/>
	<path id="XMLID_14727_" class="st9" d="M-254.7,544.3c0.2,0.4,0.7,0.6,1.5,0.1c0.4-0.3,0.7-0.7,0.9-1.1c0.1-0.3-0.1-0.7-0.4-0.7
		c-0.4,0-1,0-1.5,0.2C-255.3,543.2-255,543.9-254.7,544.3z"/>
	<path id="XMLID_14726_" class="st3" d="M-251.9,534.3c0.9,0.4,1.8,0.5,2.5,0.4c0.6-0.1,1-0.7,0.7-1.3c-0.3-0.7-0.9-1.6-1.7-2.2
		c-1.5-1.2-2.2-0.1-2.7,0.7C-253.7,532.7-253.5,533.5-251.9,534.3z"/>
	<path id="XMLID_14725_" class="st8" d="M-251.6,534c0.6,0.3,1.3,0.3,1.8,0.3c0.5-0.1,0.7-0.5,0.5-1c-0.3-0.5-0.7-1.2-1.3-1.6
		c-1.1-0.9-1.6-0.1-2,0.5C-252.9,532.8-252.9,533.4-251.6,534z"/>
	<path id="XMLID_14722_" class="st9" d="M-251.5,533c0.3,0.2,0.7,0.2,0.9,0.2c0.2,0,0.3-0.2,0.2-0.5c-0.1-0.3-0.3-0.6-0.6-0.8
		c-0.6-0.5-0.8-0.1-1,0.2C-252.2,532.4-252.1,532.7-251.5,533z"/>
	<path id="XMLID_14721_" class="st3" d="M-228.8,558.2c-1.8,3.5,0.5,4.3,2.2,5c1.7,0.7,3.3,0.1,4.3-3.5c0.6-1.9,0.3-3.7-0.1-5
		c-0.3-1.2-1.7-1.6-2.8-0.7C-226.4,554.8-227.9,556.3-228.8,558.2z"/>
	<path id="XMLID_14720_" class="st8" d="M-228,558.2c-1.4,2.7,0.4,3.4,1.7,3.9c1.3,0.5,2.6,0.1,3.4-2.8c0.4-1.4,0.2-2.9-0.1-3.9
		c-0.3-1-1.4-1.3-2.2-0.6C-226.1,555.6-227.3,556.7-228,558.2z"/>
	<path id="XMLID_14717_" class="st9" d="M-226.9,560.7c0.5,0.2,0.9,0,1.2-1c0.1-0.5,0.1-1,0-1.4c-0.1-0.4-0.5-0.4-0.8-0.2
		c-0.3,0.3-0.8,0.7-1,1.2C-228.1,560.2-227.4,560.5-226.9,560.7z"/>
	<path id="XMLID_14716_" class="st3" d="M-212.2,562.5c-0.5,3.9,2,3.9,3.8,3.9c1.8,0,3.1-1,2.8-4.8c-0.1-1.9-1-3.5-1.8-4.7
		c-0.7-1-2.2-0.9-2.9,0.3C-211,558.5-211.9,560.4-212.2,562.5z"/>
	<path id="XMLID_14715_" class="st8" d="M-211.4,562.4c-0.3,2.9,1.5,2.9,2.8,2.9c1.3,0,2.3-0.7,2.1-3.6c-0.1-1.4-0.7-2.6-1.3-3.4
		c-0.6-0.8-1.6-0.7-2.1,0.2C-210.5,559.4-211.2,560.8-211.4,562.4z"/>
	<path id="XMLID_14689_" class="st9" d="M-211.2,563.6c-0.1,1,0.5,1,1,1c0.5,0,0.8-0.3,0.8-1.3c-0.1-0.5-0.3-0.9-0.5-1.2
		c-0.2-0.3-0.6-0.3-0.7,0C-210.9,562.5-211.1,563-211.2,563.6z"/>
	<path id="XMLID_14688_" class="st3" d="M-196.7,562.8c0.3,3.9,2.7,3.4,4.5,3.1c1.8-0.3,2.8-1.6,1.8-5.3c-0.5-1.8-1.7-3.3-2.7-4.2
		c-0.9-0.9-2.3-0.5-2.7,0.8C-196.3,558.7-196.9,560.8-196.7,562.8z"/>
	<path id="XMLID_14687_" class="st8" d="M-196.3,562.8c0.2,3.1,2.2,2.8,3.6,2.5c1.4-0.3,2.3-1.3,1.4-4.2c-0.4-1.5-1.3-2.6-2.2-3.4
		c-0.8-0.7-1.8-0.4-2.2,0.7C-196,559.5-196.4,561.2-196.3,562.8z"/>
	<path id="XMLID_14684_" class="st9" d="M-195.4,563.5c0.1,1.2,0.8,1,1.3,0.9c0.5-0.1,0.8-0.5,0.5-1.5c-0.1-0.6-0.5-1-0.8-1.3
		c-0.3-0.2-0.7-0.1-0.8,0.2C-195.3,562.2-195.5,562.9-195.4,563.5z"/>
	<path id="XMLID_14683_" class="st3" d="M-147.5,503.8c0.1-1.5-0.8-2.7-4-2.6c-1.6,0-3,0.7-4,1.4c-0.9,0.6-0.8,1.8,0.1,2.4
		c1.1,0.7,2.7,1.6,4.4,1.8C-147.7,507.3-147.6,505.3-147.5,503.8z"/>
	<path id="XMLID_14682_" class="st3" d="M-147.6,490.8c-0.5-1.7-1.9-2.7-5.4-1.4c-1.8,0.7-3.1,1.9-4,3c-0.8,1-0.3,2.3,1,2.7
		c1.5,0.4,3.6,0.8,5.6,0.4C-146.4,494.9-147.1,492.5-147.6,490.8z"/>
	<path id="XMLID_14681_" class="st3" d="M-152.9,479.6c-0.5-1.6-1.7-2.4-4.5-1c-1.4,0.7-2.4,1.9-3,3c-0.5,1,0,2.1,1.1,2.4
		c1.3,0.3,3,0.5,4.6,0.1C-151.6,483.4-152.3,481.2-152.9,479.6z"/>
	<path id="XMLID_14680_" class="st8" d="M-153.7,480.1c-0.4-1.2-1.3-1.8-3.5-0.8c-1.1,0.5-1.8,1.5-2.3,2.3c-0.4,0.7,0,1.7,0.8,1.9
		c1,0.2,2.3,0.4,3.5,0.1C-152.7,482.9-153.3,481.3-153.7,480.1z"/>
	<path id="XMLID_14676_" class="st9" d="M-154,481.9c-0.1-0.4-0.5-0.6-1.2-0.3c-0.4,0.2-0.7,0.5-0.8,0.8c-0.2,0.2,0,0.6,0.3,0.6
		c0.3,0.1,0.8,0.1,1.2,0C-153.6,483-153.8,482.3-154,481.9z"/>
	<path id="XMLID_14675_" class="st3" d="M-159.7,469.7c2.8-2.1,1.3-3.6,0.2-4.8c-1.1-1.2-2.5-1.3-4.8,1.1c-1.2,1.3-1.7,2.8-1.9,4
		c-0.2,1.1,0.7,1.9,1.9,1.7C-162.9,471.3-161.1,470.8-159.7,469.7z"/>
	<path id="XMLID_14674_" class="st8" d="M-160.3,469.4c2.2-1.6,1-2.9,0.2-3.8c-0.9-0.9-2-1.1-3.8,0.9c-0.9,1-1.3,2.2-1.5,3.1
		c-0.1,0.9,0.6,1.5,1.5,1.3C-162.8,470.7-161.4,470.2-160.3,469.4z"/>
	<path id="XMLID_14673_" class="st3" d="M-167.8,462.3c1.6-2.8-0.3-3.6-1.6-4.2c-1.4-0.6-2.7-0.2-3.6,2.7c-0.5,1.5-0.4,3-0.1,4.1
		c0.2,1,1.3,1.4,2.2,0.7C-170,465-168.7,463.8-167.8,462.3z"/>
	<path id="XMLID_14672_" class="st3" d="M-153,512.6c0.4-1.3-0.2-2.4-3-3c-1.4-0.3-2.7,0.1-3.7,0.4c-0.9,0.4-1,1.4-0.4,2.1
		c0.8,0.8,2,1.9,3.5,2.4C-153.8,515.6-153.4,513.9-153,512.6z"/>
	<path id="XMLID_14671_" class="st3" d="M-181.6,557.1c2.1,3.3,4,1.7,5.4,0.6c1.4-1.1,1.7-2.7-0.9-5.5c-1.3-1.4-3-2.1-4.3-2.4
		c-1.2-0.3-2.2,0.7-2.1,2C-183.1,553.4-182.7,555.4-181.6,557.1z"/>
	<path id="XMLID_14670_" class="st8" d="M-182,553.1c0.2,1.1,0.5,2.5,1.3,3.7c1.5,2.3,2.8,1.2,3.8,0.4c1-0.8,1.2-1.9-0.6-3.8
		c-0.9-1-2.1-1.5-3-1.7C-181.5,551.5-182.2,552.2-182,553.1z"/>
	<path id="XMLID_14667_" class="st9" d="M-180.4,555.9c0.1,0.4,0.2,1,0.6,1.6c0.6,1,1.2,0.5,1.6,0.2c0.4-0.3,0.5-0.8-0.3-1.6
		c-0.4-0.4-0.9-0.6-1.3-0.7C-180.1,555.2-180.4,555.5-180.4,555.9z"/>
	<path id="XMLID_14665_" class="st3" d="M-168.9,539c-1.9-0.6-3.7-0.4-5.1,0c-1.2,0.3-1.7,1.7-0.8,2.8c1,1.3,2.4,2.8,4.2,3.8
		c3.5,1.9,4.4-0.4,5.1-2.1C-164.8,541.7-165.2,540.1-168.9,539z"/>
	<path id="XMLID_11732_" class="st8" d="M-166.4,542.9L-166.4,542.9L-166.4,542.9c0.2-0.5,0.1-1-0.3-1.3c-0.5-0.4-1.5-0.9-3.3-1.5
		c-1.1-0.3-2.3-0.5-3.3-0.4c-0.9,0-1.4,1.1-0.7,1.8c1.1,1.2,2.5,2.4,4.1,3.2c0.6,0.4,1.1,0.6,1.5,0.7c0.5,0.2,1-0.1,1.2-0.5
		C-166.9,544.2-166.6,543.4-166.4,542.9z"/>
	<path id="XMLID_11729_" class="st9" d="M-167.4,543.8L-167.4,543.8L-167.4,543.8c0.1-0.2,0-0.4-0.1-0.5c-0.2-0.1-0.5-0.3-1.2-0.5
		c-0.4-0.1-0.8-0.2-1.2-0.2c-0.3,0-0.5,0.4-0.3,0.7c0.4,0.4,0.9,0.8,1.5,1.2c0.2,0.1,0.4,0.2,0.5,0.2c0.2,0.1,0.4,0,0.5-0.2
		C-167.6,544.2-167.5,543.9-167.4,543.8z"/>
	<path id="XMLID_11728_" class="st8" d="M-243.5,553.5c-1.5,2.9,0.4,3.5,1.8,4.1c1.4,0.5,2.6,0.1,3.5-2.9c0.4-1.5,0.2-3-0.1-4.1
		c-0.3-1-1.4-1.3-2.3-0.6C-241.5,550.8-242.7,552-243.5,553.5z"/>
	<path id="XMLID_11725_" class="st9" d="M-242.3,555.9c0.5,0.2,0.9,0,1.3-1c0.1-0.6,0.1-1.1,0-1.5c-0.1-0.4-0.5-0.5-0.8-0.2
		c-0.4,0.3-0.8,0.7-1.1,1.2C-243.5,555.5-242.8,555.8-242.3,555.9z"/>
	<path id="XMLID_11724_" class="st8" d="M-265.1,498.2c-0.8-0.1-1.9-0.2-3,0.1c-2,0.6-1.5,1.8-1.1,2.7c0.4,0.9,1.1,1.3,3,0.3
		c0.9-0.5,1.5-1.2,1.9-1.9C-264,499-264.4,498.3-265.1,498.2z"/>
	<path id="XMLID_11721_" class="st9" d="M-267.1,498.7c-0.4-0.1-0.9-0.1-1.5,0.1c-1,0.3-0.7,0.9-0.5,1.3c0.2,0.4,0.6,0.6,1.4,0.2
		c0.4-0.2,0.7-0.6,0.9-0.9C-266.6,499-266.7,498.7-267.1,498.7z"/>
	<path id="XMLID_11720_" class="st8" d="M-264.9,485c-0.8-0.6-1.9-1.3-3.2-1.5c-2.4-0.5-2.6,1-2.7,2.2c-0.1,1.1,0.5,2,2.9,2.1
		c1.2,0,2.3-0.4,3-0.9C-264.2,486.5-264.2,485.5-264.9,485z"/>
	<path id="XMLID_11719_" class="st8" d="M-220.2,440.7c-0.4-3-2.2-2.6-3.6-2.2c-1.4,0.3-2.1,1.4-1.2,4.2c0.5,1.4,1.4,2.5,2.2,3.2
		c0.8,0.6,1.8,0.3,2.1-0.7C-220.4,443.9-220,442.3-220.2,440.7z"/>
	<path id="XMLID_11718_" class="st8" d="M-206.7,440.9c0.9-2.1-0.5-2.5-1.6-2.9c-1-0.3-2,0-2.4,2.2c-0.2,1.1,0,2.2,0.3,2.9
		c0.3,0.7,1.1,0.9,1.7,0.3C-208.1,442.9-207.3,442-206.7,440.9z"/>
	<path id="XMLID_11717_" class="st8" d="M-148.7,503.8c0.1-1.1-0.6-1.9-2.9-1.8c-1.2,0-2.2,0.5-2.9,1c-0.6,0.4-0.6,1.3,0.1,1.8
		c0.8,0.5,1.9,1.1,3.2,1.3C-148.8,506.4-148.8,504.9-148.7,503.8z"/>
	<path id="XMLID_11716_" class="st8" d="M-148.5,491.1c-0.4-1.4-1.5-2.2-4.3-1.1c-1.5,0.5-2.5,1.5-3.2,2.4c-0.6,0.8-0.2,1.9,0.8,2.2
		c1.2,0.3,2.9,0.6,4.6,0.3C-147.5,494.4-148.1,492.5-148.5,491.1z"/>
	<path id="XMLID_11713_" class="st9" d="M-149,492.5c-0.2-0.6-0.6-0.9-1.8-0.5c-0.6,0.2-1,0.6-1.3,1c-0.3,0.3-0.1,0.8,0.3,0.9
		c0.5,0.1,1.1,0.3,1.8,0.2C-148.6,493.8-148.8,493.1-149,492.5z"/>
	<path id="XMLID_11712_" class="st8" d="M-154,512.4c0.2-1-0.1-1.8-2.2-2.2c-1-0.2-2,0.1-2.7,0.3c-0.6,0.2-0.8,1-0.3,1.6
		c0.6,0.6,1.5,1.4,2.6,1.8C-154.6,514.6-154.2,513.3-154,512.4z"/>
	<path id="XMLID_11711_" class="st8" d="M-168.2,462.1c1.2-2-0.2-2.6-1.2-3c-1-0.4-2-0.1-2.7,2c-0.4,1.1-0.3,2.2-0.1,3
		c0.2,0.7,1,1,1.7,0.5C-169.8,464.1-168.8,463.2-168.2,462.1z"/>
	<path id="XMLID_11708_" class="st9" d="M-169,460.2c-0.5-0.2-0.9-0.1-1.2,0.9c-0.2,0.5-0.1,1,0,1.4c0.1,0.3,0.5,0.5,0.7,0.2
		c0.4-0.3,0.8-0.6,1.1-1.1C-167.9,460.6-168.5,460.4-169,460.2z"/>
	<path id="XMLID_11705_" class="st9" d="M-159.8,466.5c-0.3-0.4-0.8-0.5-1.5,0.2c-0.4,0.4-0.6,0.8-0.7,1.2c-0.1,0.4,0.2,0.6,0.6,0.6
		c0.5-0.1,1-0.2,1.5-0.5C-159.1,467.4-159.5,466.9-159.8,466.5z"/>
	<path id="XMLID_10343_" class="st9" d="M-155.1,512.8c0.1-0.4-0.1-0.7-0.9-0.9c-0.4-0.1-0.8,0-1.1,0.1c-0.3,0.1-0.3,0.4-0.1,0.6
		c0.2,0.2,0.6,0.5,1,0.7C-155.3,513.7-155.2,513.2-155.1,512.8z"/>
	<path id="XMLID_10340_" class="st9" d="M-149.6,505.1c0-0.5-0.2-0.8-1.2-0.8c-0.5,0-0.9,0.2-1.2,0.4c-0.3,0.2-0.3,0.5,0,0.7
		c0.3,0.2,0.8,0.5,1.3,0.6C-149.7,506.2-149.7,505.6-149.6,505.1z"/>
	<path id="XMLID_10332_" class="st9" d="M-267.9,484.5c-0.2-0.2-0.6-0.4-1-0.5c-0.8-0.2-0.8,0.3-0.9,0.7c0,0.4,0.1,0.6,0.9,0.7
		c0.4,0,0.7-0.1,1-0.3C-267.7,484.9-267.7,484.6-267.9,484.5z"/>
	<path id="XMLID_10329_" class="st9" d="M-262.3,468.5c-0.2-0.3-0.4-0.6-0.8-0.8c-0.7-0.4-0.9,0-1,0.4c-0.2,0.3-0.1,0.7,0.6,0.9
		c0.4,0.1,0.7,0.1,1,0.1C-262.2,469-262.1,468.7-262.3,468.5z"/>
	<path id="XMLID_10326_" class="st9" d="M-251.1,457.7c-0.1-0.3-0.3-0.7-0.6-1c-0.5-0.6-0.8-0.2-1.1,0.1c-0.2,0.3-0.2,0.6,0.4,1
		c0.3,0.2,0.7,0.3,0.9,0.3C-251.2,458.2-251,458-251.1,457.7z"/>
	<path id="XMLID_10323_" class="st9" d="M-236.3,448.6c0-0.4-0.1-0.9-0.3-1.4c-0.5-0.9-1-0.6-1.3-0.3c-0.4,0.2-0.5,0.7,0.1,1.4
		c0.3,0.4,0.7,0.6,1,0.7C-236.5,449.2-236.2,449-236.3,448.6z"/>
	<path id="XMLID_10320_" class="st9" d="M-221.3,440.3c-0.2-1-0.8-0.8-1.2-0.7c-0.4,0.1-0.7,0.5-0.3,1.4c0.2,0.5,0.5,0.8,0.8,1
		c0.3,0.2,0.6,0.1,0.7-0.3C-221.2,441.4-221.1,440.9-221.3,440.3z"/>
	<path id="XMLID_10317_" class="st9" d="M-207.1,440c0.3-1-0.3-1.1-0.8-1.2c-0.4-0.1-0.8,0.1-1,1c-0.1,0.5,0.1,0.9,0.2,1.3
		c0.2,0.3,0.5,0.3,0.7,0.1C-207.6,440.9-207.3,440.5-207.1,440z"/>
	<path id="XMLID_10314_" class="st9" d="M-199.2,445c0.5-0.6,0.1-0.8-0.2-1c-0.2-0.2-0.6-0.2-0.9,0.4c-0.2,0.3-0.2,0.6-0.2,0.9
		c0,0.2,0.2,0.4,0.5,0.3C-199.8,445.5-199.5,445.3-199.2,445z"/>
</g>
</svg>
