<?xml version="1.0" encoding="utf-8"?>
<!-- Generator: Adobe Illustrator 19.0.0, SVG Export Plug-In . SVG Version: 6.00 Build 0)  -->
<svg version="1.1" id="Layer_1" xmlns="http://www.w3.org/2000/svg" xmlns:xlink="http://www.w3.org/1999/xlink" x="0px" y="0px"
	 viewBox="0 0 255.6 193.7" style="enable-background:new 0 0 255.6 193.7;" xml:space="preserve">
<style type="text/css">
	.st0{fill:#E02130;}
	.st1{opacity:0.46;fill:#A50520;}
	.st2{fill:#D20B1F;}
	.st3{opacity:0.66;fill:#EE8190;}
	.st4{opacity:0.33;fill:#F7E1E4;}
	.st5{fill:#F7E1E4;}
	.st6{fill:#CF2430;}
	.st7{fill:#F8DDE1;}
	.st8{fill:#DB7080;}
	.st9{fill:#ED5265;}
	.st10{fill:#A1C464;}
	.st11{fill:#86AE57;}
	.st12{fill:#6D8F44;}
	.st13{opacity:0.75;fill:#45662F;}
	.st14{fill:#45662F;}
	.st15{fill:#C63647;}
</style>
<g id="XMLID_145_">
	<path id="XMLID_11695_" class="st0" d="M167.4,165.7c34.7-30,46-60.8,48.9-68.2c2.9-7.4,3.8-22.3-13.1-28.6c0,0-13.4-5.9-17.6-7.7
		c-4.2-1.8-12.2,1.1-15.5,5.7c-4.7,6.5-18.1,33-22.1,38.8c-6.3,9.2-27.5,33.2-38.5,38.7c-16.9,8.4-40.5,10.8-48.7,11.7
		c-14,1.6-23.7,6.1-29.4,11.2c-3.5,3.2-6.5,10.7-4,14.6c2.4,4,3.7,2.4,8.7,1.9c5-0.6,26.4,4.7,43.7,7.3
		C97,193.8,132.7,195.7,167.4,165.7z"/>
	<path id="XMLID_11694_" class="st1" d="M97.6,192.8c16-0.8,29.7-3,46.6-11.2c21.6-10.4,41.6-31.9,52.6-47.6
		c11-15.7,20.7-36.1,21.4-39.6c0.7-3.5,0.3-7.4-2-12.8c-2.3-5.4-10.2-10.2-10.2-10.2s-4.2-2.4-4.8,0.2c-0.6,2.6,5.9,6.7,7.9,9.4
		c2,2.6,4.6,10.3-6.2,28.2c-10.8,17.9-32.5,42.3-47.9,54.4c-20.9,16.5-58.1,21-67.9,19.8c-9.8-1.2-43.8-5.4-48.6-5.6
		c-4.6-0.3-7.1,2.2-5.8,6.3c0,0,3.8-0.8,10.2,0C50.1,185.1,82.1,193.6,97.6,192.8z"/>
	<path id="XMLID_11692_" class="st2" d="M100.5,181.7c16.8-2.4,34.3-5.8,53.9-20.8c19.6-15,52.8-58.1,54-70.7
		c0.8-8.5-0.1-11.3-6.7-16.6c0,0-6.6-2.1-13.9,0.1c-7.4,2.3-13.9,10.3-25.8,30.4c-6.5,10.9-14.3,26.8-27.9,40
		c-9.2,9-33.4,18.2-49,19.1c-15.5,0.9-46.5,2.6-49.2,7.2c-2.6,4.5,7.7,5.1,14.3,5.8C56.8,177,83.8,184.2,100.5,181.7z"/>
	<path id="XMLID_11688_" class="st3" d="M165.2,89.9c6.6-9.5,9.8-14.1,18.5-17.4c2.7-1,7.7-1,9-2.6c0.7-0.8-0.2-3-1.7-4.1
		c-4.4-3-11.9-3.2-15.7-0.3c-8.4,6.3-20.9,33.1-18.7,34.9C157.9,101.5,158.6,99.5,165.2,89.9z"/>
	<path id="XMLID_10283_" class="st3" d="M98.4,160.4c8.2-2,19.9-7,28.6-13.7c5.3-4.1,10-6.8,15.4-14.8c5.4-8,7.7-12.2,5.9-13.7
		c-1.9-1.5-7,6.2-7,6.2s-16.5,16.2-24.2,20c-8.3,4.1-24.6,11.3-33.8,12.6c-9.2,1.3-41,4.3-41.5,7.5c-0.5,3.2,14.6,0.9,14.6,0.9
		S89.2,162.7,98.4,160.4z"/>
	<path id="XMLID_5632_" class="st4" d="M103.7,159.2c6.4-1.6,15.7-5.6,22.5-10.8c4.2-3.2,7.9-5.4,12.1-11.7
		c4.2-6.3,6.1-9.6,4.6-10.8c-1.5-1.2-5.5,4.9-5.5,4.9s-13,12.8-19.1,15.8c-6.5,3.2-19.4,8.9-26.7,9.9c-7.3,1-32.3,3.4-32.7,5.9
		c-0.4,2.5,11.5,0.7,11.5,0.7S96.4,161,103.7,159.2z"/>
	<path id="XMLID_5630_" class="st5" d="M128.6,143.4c2.5-1.8,6.8-4.5,4.2-5.6c-1.9-0.8-4.2,3.5-12,8.6c-9.5,6.2-23.1,8.4-19.6,10.1
		c3,1.4,10.9-2.8,16.8-6.3C123.9,146.8,128.6,143.4,128.6,143.4z"/>
	<path id="XMLID_5626_" class="st5" d="M137.4,134.6c1.4-2.4,1.3-5-0.1-2.4c-1.1,2-4.5,3.6-3.6,4.8
		C134.7,138.3,137.4,134.6,137.4,134.6z"/>
	<path id="XMLID_5625_" class="st6" d="M155.8,156c15.6-13.1,48.5-58.8,49.2-65.4c0.7-6.6,0.6-12.3-8.9-13.8
		c-9.5-1.5-20.4,10.8-23.1,16.8c-2.7,6-25,41.4-35.8,50.6c-14.3,12.1-33.1,19-58.2,22.4c-25.2,3.4-25.5,5.1-20.7,7.4
		c4.8,2.3,30.5,6,45,3.8C117.7,175.6,140.3,169.1,155.8,156z"/>
	<path id="XMLID_176_" class="st5" d="M50.8,163.7c-0.8-3-9.1-0.5-9,0.7C42,167.7,51.1,164.7,50.8,163.7z"/>
	<path id="XMLID_174_" class="st7" d="M189.3,67.7c-1.5-2.5-5.7-3.6-7.7-0.9c-1.9,2.6-0.7,3.5,1.8,3.5C186,70.3,190.3,71,189.3,67.7
		z"/>
	<path id="XMLID_173_" class="st0" d="M212,111.7c3.8-6.1,16.1-21.6,0.1-35.6c0,0-5.8-4.7-9.3-5.4c-2.2-0.5,4.7,3.9,7.7,7.9
		c8,11,4.5,15.6-0.2,27.1c-4.7,11.6-18.2,31.4-29.5,42.7c-11.3,11.3-23.3,23.9-49.1,38.5c0,0,15.8-5.4,27.4-14.1
		C170.6,164,189.3,148.3,212,111.7z"/>
	<path id="XMLID_172_" class="st8" d="M206.1,121.5c1.8-2.3,10.4-15.8,12.4-20.7c2-4.9,4.3-15.9-5.8-23.9c0,0-4.4-5.9-5.4-4.1
		c-1.1,1.8,4.5,3.8,7.9,7.7c3.4,3.9,3.9,14.2,1.4,19.9C212.6,109,204.7,123.3,206.1,121.5z"/>
	<path id="XMLID_171_" class="st8" d="M126.2,132c13.4-12.3,27.6-35.2,31.4-41.8c3.8-6.7,9.4-19.8,13.2-24.2
		c5.4-6.1,14.3-5.1,14.3-5.1c-5.3-1.7-13.1,0.5-18.8,10.8c-3.8,7-19.7,32.3-30.7,48c-11,15.7-22.5,19.8-30.3,23.8
		c-7.8,4-23.8,7.8-30.8,9.1c-10.8,2.1-22.8,5-22.8,5c14-2.1,18.3-1.1,33.3-4.8C99.7,149.2,109.2,147.6,126.2,132z"/>
	<path id="XMLID_166_" class="st9" d="M30.4,179.6c-2-2.8-0.1-9.1-0.1-9.1s-0.3-1.9-3.3,1.9c-3,3.7,0,10.2,2.5,12.2
		C32.1,186.5,32,181.9,30.4,179.6z"/>
	<path id="XMLID_159_" class="st8" d="M35.8,164c0,0-8.7,4.7-9.6,9c-0.9,4.4-0.5,6.9,1.1,9C28.9,184,23.5,175.6,35.8,164z"/>
	<path id="XMLID_158_" class="st1" d="M183,60.3c0,0-0.1,1.4,1.2,1.9c1.3,0.5,8.5,3.9,11.8,5.4c3.3,1.5,10.5,6.7,13,8.9
		c2.5,2.2,6.1,5.1,6.9,5.3c0.8,0.2,2,0.4,2,0.4s-9.1-11.5-17.3-15.1C192.4,63.4,183.7,59.7,183,60.3z"/>
	<path id="XMLID_157_" class="st10" d="M216.3,77.1c-2.9-3.4-7.9-4.8-7.4-10c0.6-5.2,7.8-32.1,8.6-39.6c0.9-7.5,5.2-17-5.7-26
		l-4.2,5.9c0,0,7.7,4.4,6.4,11.8c-1.5,8.3-8.8,30.2-10.7,33.8c-1.9,3.6-4,6.9-9.3,8.4c-5,1.4-6.8-2-9.3-1.8c-3.8,0.3-1,1.5,3.8,3.5
		c4.2,1.8,9.1,3.9,13.7,7.1c8.8,5.9,15.1,12.6,15.5,12C218.7,81.3,219.2,80.5,216.3,77.1z"/>
	<path id="XMLID_156_" class="st11" d="M209.9,62.8c2.5-7.6,7.7-32.9,8.3-37.3c0.7-4.3,4.6-16-6.4-24l-1.6,2.6c0,0,4,2.2,5.8,7.7
		c2.8,8.8-1.7,19.7-3.5,29.6c-2.2,12.3-7.8,21.9-6.9,24.9c0.9,3,2.4,4.8,6.9,7.5C212.6,73.9,207.4,70.3,209.9,62.8z"/>
	<path id="XMLID_155_" class="st12" d="M201.3,59.1c1.3-1.9,6.1-9.9,8.8-19.3c2.6-9.4,6-17.1,4.9-25c-0.6-4-6.4-8.7-6.4-8.7
		l-0.8,1.4c0,0,0.3,0.2,3.7,3.8c4.4,4.7,1.4,12.2,1.4,12.2s-6.6,23.9-10.1,29.3c-3.4,5.2-6.1,7.6-8.5,8.1c-3.8,0.7-8.3-2.5-9.3-2.4
		c-1.6,0.2,0.3,1.2,0.3,1.2s-1.3,0.5,4.6,1.6C198.4,63.1,199.3,62,201.3,59.1z"/>
	<path id="XMLID_154_" class="st13" d="M205.1,61.3c2.4-3.5,6-19.4,7.3-23.9c1.3-4.4,3.1-16,2.9-18.1c0,0-0.1-0.4-0.8,2.8
		c-0.7,3.3-2.5,9.4-4.2,14.8c-3.2,10.5-7.4,19.6-9.1,22.1C199.6,61.5,202.8,64.8,205.1,61.3z"/>
	<path id="XMLID_153_" class="st14" d="M211.8,1.6c-2.7-2.1-1.3,1.8-3.5,2.5c-3.1,1.1-0.6,5.7,1.2,4C211.1,6.4,211.8,1.6,211.8,1.6z
		"/>
	<path id="XMLID_152_" class="st15" d="M147.6,179.3c0,0-6-4.6-23.6,2.6c-28.5,11.7-63.9-0.5-73.7-0.7c-9.8-0.2-8.7,2.2-1.2,4.4
		c0,0,37.9,8.1,57,7.3C125.2,192,138.3,183.3,147.6,179.3z"/>
	<path id="XMLID_151_" class="st8" d="M91.1,191.3c-6.7,0.8-22.2-3.5-35.1-6.6c-6.7-1.6-13.1-0.5-13.1-0.5s14.1,2.8,27.3,5.7
		c19.5,4.4,36,2.9,36,2.9S97.8,190.5,91.1,191.3z"/>
	<path id="XMLID_150_" class="st4" d="M173.4,76.8c5.2-4.9,6.9-5.1,12.5-6c1.7-0.3,4.8,0.4,5.7-0.5c0.5-0.4,0.2-1.9-0.5-2.7
		c-2.3-2.3-7.4-3.1-10.2-2.2c-8.2,2.6-15.6,16.7-14.4,18.1C167.1,84.3,168.2,81.7,173.4,76.8z"/>
	<path id="XMLID_149_" class="st5" d="M179.7,69.9c0-1.6-3.4-0.2-3,1.2C177.1,72.4,179.7,71.4,179.7,69.9z"/>
	<path id="XMLID_147_" class="st14" d="M218.5,80.4c-0.7-0.9-0.2,1.2-1.7,0.5c-1.5-0.7-6.3-4.3-6.3-4.3l7,6.1
		C217.5,82.7,219.5,81.8,218.5,80.4z"/>
	<path id="XMLID_146_" class="st14" d="M183.9,58.9c0,0-0.8,0.6-0.9,1.4c-0.2,1.1,1,0.7,1.9,1.2c0.9,0.5,3.7,1.5,3.7,1.5
		s-4.4-1.8-4.7-2.4C183.5,60.1,183.9,58.9,183.9,58.9z"/>
</g>
</svg>
