<?xml version="1.0" encoding="utf-8"?>
<!-- Generator: Adobe Illustrator 19.0.0, SVG Export Plug-In . SVG Version: 6.00 Build 0)  -->
<svg version="1.1" id="Layer_1" xmlns="http://www.w3.org/2000/svg" xmlns:xlink="http://www.w3.org/1999/xlink" x="0px" y="0px"
	 viewBox="0 0 134.6 148.4" style="enable-background:new 0 0 134.6 148.4;" xml:space="preserve">
<style type="text/css">
	.st0{fill:#FFCE00;}
	.st1{fill:#FFE164;}
	.st2{opacity:0.59;fill:#FCE895;}
</style>
<g id="XMLID_15109_">
	<path id="XMLID_15112_" class="st0" d="M6.2,31.7c1.1-5.9,3.7-11.5,7.7-16C28.1-0.2,51.9-4.9,71.5,5.6l38.3,20.6
		c20.1,10.8,29.2,34.1,22.8,55.2c-1.6,5.1-4.5,9.7-8.3,13.5c-15.3,15.2-64,61.2-83.3,50.8l-29.7-16C-7.9,119.5,2.3,53.3,6.2,31.7z"
		/>
	<path id="XMLID_15111_" class="st1" d="M24.2,120.9l17.1-48.2c3.1-5.8,14.6-5.6,20.4-2.5l0,0c5.8,3.1,12.2,12.6,9.1,18.4
		l-31.7,40.3C36,134.7,21.1,126.7,24.2,120.9z"/>
	<path id="XMLID_15110_" class="st2" d="M102.3,52.2c6.5-4.1,6.6-13.7,0.3-18.1C92.2,26.7,75.1,15.7,62,12.8
		c-20.2-4.5-32.6-1.1-34.8,5.3c-0.1,0.2-0.9,1.9-1,2.2c-2.5,9.1,3.2,15.5,11.6,11.1c2.7-1.4,5.4-2,8.3-1.6
		c13.6,2.2,30.1,3.5,42,18.8C93.2,55.1,98.2,54.7,102.3,52.2z"/>
</g>
</svg>
