<?xml version="1.0" encoding="utf-8"?>
<!-- Generator: Adobe Illustrator 19.0.0, SVG Export Plug-In . SVG Version: 6.00 Build 0)  -->
<svg version="1.1" id="Layer_1" xmlns="http://www.w3.org/2000/svg" xmlns:xlink="http://www.w3.org/1999/xlink" x="0px" y="0px"
	 viewBox="0 0 186.4 193.7" style="enable-background:new 0 0 186.4 193.7;" xml:space="preserve">
<style type="text/css">
	.st0{fill:#D8D8D8;}
	.st1{fill:#F4F4F4;}
	.st2{fill:#FAFAFA;}
	.st3{fill:#D1D1D1;}
</style>
<g id="XMLID_16866_">
	<g id="XMLID_16879_">
		<path id="XMLID_16883_" class="st0" d="M157.1,161.3c4.6-4.6,8.7-9.4,12.4-14.4c27.7-37.5,18.9-95.4-7.8-121.9
			C135-1.5,99.3,12.1,61.9,40c-5,3.7-9.8,7.9-14.4,12.5C8.7,91.6-16.9,136.7,13.3,166.8C51.7,204.9,118.2,200.5,157.1,161.3z"/>
		<path id="XMLID_16882_" class="st1" d="M13.3,156.7C-17,126.6,8.6,81.5,47.5,42.3c4.6-4.6,9.4-8.8,14.4-12.5
			c19.4-14.5,38.4-25.2,55.9-28.3c2.1-0.4,4.2-0.7,6.3-0.8c6.5-0.5,12.8,0.2,18.8,2.2l0,0c2.2,0.7,4.4,1.6,6.5,2.8
			c4.3,2.2,8.4,5.2,12.3,9.1c26.7,26.5,35.5,84.4,7.8,121.9c-3.7,5-7.8,9.8-12.4,14.4C118.2,190.3,51.6,194.8,13.3,156.7z"/>
		<path id="XMLID_16881_" class="st2" d="M117.8,1.6c0,0-8,39.6-18.5,58.9s-18.9,24.7-18.2,37c0.7,12.3,3.8,23.3,3.8,23.3
			s-4.1-16,2-29.1c6-13.1,7.5-14.9,17.5-33.5s9.2-22,12.5-32s7.2-25.4,7.2-25.4L117.8,1.6z"/>
		<path id="XMLID_16880_" class="st2" d="M81.7,154.1c-0.4-2.4,0.9-31,13.3-57.3c6.3-13.5,10-17.7,23.5-36.1
			c10.9-14.9,21-46.3,24.4-57.7c2.2,0.7,4.4,1.6,6.5,2.8c-2.1,5.7-5.5,15-8.4,21.8c-4.5,10.4-3.9,14.8-16.6,32.6
			C111.6,78,109.8,79.4,102,92.4C94.7,104.3,81.3,151.2,81.7,154.1z"/>
	</g>
	<g id="XMLID_16867_">
		<circle id="XMLID_16878_" class="st3" cx="131.3" cy="70.1" r="2"/>
		<circle id="XMLID_16877_" class="st3" cx="76.3" cy="142.8" r="2"/>
		<circle id="XMLID_16876_" class="st3" cx="105.1" cy="137.9" r="2"/>
		<circle id="XMLID_16875_" class="st3" cx="143.8" cy="105.1" r="2"/>
		<circle id="XMLID_16874_" class="st3" cx="120.6" cy="151.3" r="0.9"/>
		<circle id="XMLID_16873_" class="st3" cx="100.8" cy="73.2" r="0.9"/>
		<path id="XMLID_16872_" class="st3" d="M148.4,51.6c0.3-0.9,0.5-1.7,0.4-2.2c-0.2-1-2.1-1.5-2.3-1.6c0,0,0,0,0,0s-1.8,1.3-1.6,2.4
			c0.2,1.1,2.8,3.6,2.8,3.6S148,52.7,148.4,51.6z"/>
		<path id="XMLID_16871_" class="st3" d="M90.3,98.1c0.3-0.9,0.5-1.7,0.4-2.2c-0.2-1-2.1-1.5-2.3-1.6c0,0,0,0,0,0s-1.8,1.3-1.6,2.4
			c0.2,1.1,2.8,3.6,2.8,3.6S90,99.2,90.3,98.1z"/>
		<path id="XMLID_16870_" class="st3" d="M35.9,113.1c0.5,1.1,2.7,1.2,3,1.2c0,0,0.1,0,0.1,0s1.7-1.9,1.2-3
			c-0.5-1.2-3.9-3.3-3.9-3.3s-0.2,1.3-0.4,2.6C35.7,111.6,35.7,112.6,35.9,113.1z"/>
		<path id="XMLID_16869_" class="st3" d="M66,160.7c0,0-0.9-0.7-1.9-1.3c-0.8-0.5-1.6-0.9-2.1-0.9c-1.1-0.1-2,1.7-2.1,1.9
			c0,0,0,0,0,0s0.8,2.1,1.9,2.1C63,162.6,66,160.7,66,160.7z"/>
		<path id="XMLID_16868_" class="st3" d="M86.1,51.4L86.1,51.4C86.2,51.4,86.2,51.4,86.1,51.4L86.1,51.4c0.2,0,1.4-0.4,1.5-1
			c0.1-0.7-0.8-2.8-0.8-2.8s-0.5,0.5-1,1.1c-0.4,0.4-0.7,0.9-0.7,1.2C85,50.6,86,51.3,86.1,51.4z"/>
	</g>
</g>
</svg>
