<?xml version="1.0" encoding="utf-8"?>
<!-- Generator: Adobe Illustrator 19.0.0, SVG Export Plug-In . SVG Version: 6.00 Build 0)  -->
<svg version="1.1" id="Layer_1" xmlns="http://www.w3.org/2000/svg" xmlns:xlink="http://www.w3.org/1999/xlink" x="0px" y="0px"
	 viewBox="0 0 174.4 145.5" style="enable-background:new 0 0 174.4 145.5;" xml:space="preserve">
<style type="text/css">
	.st0{fill:#DFC19B;}
	.st1{fill:#C9A681;}
	.st2{fill:#F7E8D7;}
	.st3{fill:#020100;}
	.st4{fill:#623619;}
	.st5{fill:#F2E1CE;}
	.st6{fill:#090401;}
	.st7{fill:#5F472B;}
	.st8{fill:none;}
	.st9{fill:#947349;}
	.st10{fill:#BC7F48;}
</style>
<g id="XMLID_16679_">
	<path id="XMLID_16711_" class="st0" d="M91,7.2c-15.7-3.9-41.7-8.8-66.2,8.3C0.2,32.7,1.3,57.5,0.1,67.2
		C-1.1,76.9,6.4,86.6,21.3,92c14.9,5.4,39.9,7.1,39.4,9.9c-0.3,1.9,0.6,12.4-1.8,20.2c-1,3.3-1.5,7.1,1.4,8.2c4,1.4,1.4,3.9,5.4,4.2
		c7,0.6,13.9,3.4,22.1,7c8.2,3.6,6.1,1.3,8.2-2.8c1.1-2.2-3.3-34.8,23-21.3c9.3,4.8,16.9,19.2,37,4.2c12.8-9.5,24.9-40.5,9.7-71.9
		C150.6,18.2,106.7,11.1,91,7.2z"/>
	<path id="XMLID_16710_" class="st1" d="M92.1,10.6C76.7,6.8,52.4,0.5,28.4,17.5c-24,17-23.8,36.5-24.7,46
		C1.8,82.9,12.8,95,33.4,96.3c18.5,1.2,22.1,7.1,23.8,9c1.2,1.4-4.1,12-6.4,19.7c-1,3.2,0.5,6.6,3.4,7.6c3.9,1.4,9.1,3,13,3.4
		c6.8,0.6,9.3,2.2,17.3,5.7c8,3.5,11.9,1.6,12.7-0.8c1.8-5.6,4.1-16.5,6.1-24.7c0-0.1,0.2-0.2,0.2-0.2c0.6-0.3,6.2-5,12.7,0.5
		c14.8,12.6,25,15.6,37.6,6.3c14.7-10.9,25.9-42.7,8.4-74.5C145.4,18.5,107.4,14.4,92.1,10.6z"/>
	<path id="XMLID_16709_" class="st2" d="M139.7,29c-7-4.6-15.4-8.3-25.6-11.3c-6.1-1.8-11.8-3.1-16.4-4.1c-2.3-0.5-4.2-0.9-6-1.4
		C84,10.4,75.1,8.4,64.9,9c-11.7,0.7-22.4,4.6-32.9,12c-10.2,7.2-17.5,15.3-21.8,24.1c-3.4,7-4.4,13.1-4.9,18.6
		c-1.5,15,5.1,25.4,18.6,29.3c2.9,0.9,6.1,1.4,9.6,1.6c5,0.3,9.4,1,13.1,2.1c7.5,2.2,10.2,5.5,11.5,7.1c0.1,0.1,0.2,0.3,0.3,0.4
		c1.3,1.5,0.3,4.2-2.6,11.8c-1.2,3.1-2.6,6.5-3.5,9.5c-0.7,2.4,0.9,6.9,3,7.6c1.8,0.6,3.6,1.2,5.2,1.7c3,0.9,5.4,1.1,7.3,1.3
		c2.5,0.2,3.9,0.6,5.9,1.2c2.4,0.7,5,1.6,8,3.1c14.4,6.8,13.4,1.2,13.7,0.1c1.4-4.3,3.1-12.1,4.7-18.9c0.4-2,0.9-3.9,1.3-5.6
		c0.1-0.6,0.5-1,1.1-1.3c0,0,0.1,0,0.1-0.1c3.2-2.2,6.5-2.8,9.7-1.8c1.6,0.5,3.2,1.4,4.7,2.7c7.1,6.1,12.7,9.6,17.7,11
		c6.3,1.9,12,0.4,17.7-4.7c6.1-5.4,11.1-15.9,13.2-27.6c1.8-10.1,2.2-25.8-6-42.9C155.4,42.3,148.7,34.9,139.7,29z"/>
	<path id="XMLID_16708_" class="st2" d="M139.7,29c-7-4.6-15.4-8.3-25.6-11.3c-6.1-1.8-11.8-3.1-16.4-4.1c-2.3-0.5-4.2-0.9-6-1.4
		C84,10.4,75.1,8.4,64.9,9c-11.7,0.7-22.4,4.6-32.9,12c-10.2,7.2-17.5,15.3-21.8,24.1c-3.4,7-4.4,13.1-4.9,18.6
		c-1.5,15,5.1,25.4,18.6,29.3c2.9,0.9,6.1,1.4,9.6,1.6c5,0.3,9.4,1,13.1,2.1c7.5,2.2,10.2,5.5,11.5,7.1c0.1,0.1,0.2,0.3,0.3,0.4
		c1.3,1.5,0.3,4.2-2.6,11.8c-1.2,3.1-2.6,6.5-3.5,9.5c-0.7,2.4,0.9,6.9,3,7.6c1.8,0.6,3.6,1.2,5.2,1.7c3,0.9,5.4,1.1,7.3,1.3
		c2.5,0.2,3.9,0.6,5.9,1.2c2.4,0.7,5,1.6,8,3.1c14.4,6.8,13.4,1.2,13.7,0.1c1.4-4.3,3.1-12.1,4.7-18.9c0.4-2,0.9-3.9,1.3-5.6
		c0.1-0.6,0.5-1,1.1-1.3c0,0,0.1,0,0.1-0.1c3.2-2.2,6.5-2.8,9.7-1.8c1.6,0.5,3.2,1.4,4.7,2.7c7.1,6.1,12.7,9.6,17.7,11
		c6.3,1.9,12,0.4,17.7-4.7c6.1-5.4,11.1-15.9,13.2-27.6c1.8-10.1,2.2-25.8-6-42.9C155.4,42.3,148.7,34.9,139.7,29z"/>
	<path id="XMLID_16707_" class="st0" d="M60.1,58.9c6,4.4,5,11.8,3.7,17.1c-1.3,5.2-12.2,41.1-13.1,49.2c-0.9,8.1,7.2,8.7,7.2,8.7
		c-4.4-1.3-4.2-5-3.6-7.7c0.6-2.7,7.7-24.3,11.4-39.9c2.6-10.9,3.6-17,2.7-21.1C66.9,58.4,60.1,58.9,60.1,58.9z"/>
	<path id="XMLID_16706_" class="st0" d="M31.2,56.5c-10.2,5.2-12.5,15.8-11.3,21.6c1.1,5.6,4.1,9.9,9.8,8.7c0,0-7.8-8,1.7-14.2
		c9.5-6.1,34.1-9.6,34.1-9.6l0.5-2.1C66,60.9,47.3,48.4,31.2,56.5z"/>
	<path id="XMLID_16705_" class="st3" d="M62.2,60.6c-5.6-2.7-18.4-5.4-24.2-3.2s-13.2,5.3-14.6,13.4c-1.4,8.1,0.6,15.4,6.2,16
		c1,0.1,2.1,0,3.1-0.3c0.6-0.2,1.2-0.4,1.9-0.6c3.7-1.4,7.2-4.1,10.1-3.2c4.1,1.2,2.2,10.2,5,12.5c2.9,2.3,7.1,3.2,9.2-2.9
		c2.1-6.1,5.2-17.6,5.2-17.6S67.8,63.3,62.2,60.6z"/>
	<path id="XMLID_16704_" class="st4" d="M50.5,56.8c-7.4-0.9-14.2-0.7-22.4,5.2c-8.1,5.9-5.7,20.9-2.6,22.6c3.2,1.7,4.7-0.1,5.7-2.3
		c1-2.2-1.6-6.5,3.1-10.6c4.8-4.1,10.3-4.2,15.2-3.5c4.9,0.7,10.8-0.6,10.8-0.6c4.7-2.7,4.4-3.9,3.2-6
		C62.5,59.6,57.9,57.7,50.5,56.8z"/>
	<path id="XMLID_16703_" class="st4" d="M131,83.6c-7.2-3.3-12.3-4.3-14.5-3.3c-2.2,1-3.1,1.8-0.4,6.5c0,0,4.6,4.2,9.4,6.3
		c4.9,2.1,9.7,5.2,11.8,11c2,5.9-2.7,7.9-3,10.1c-0.3,2.3,0.1,4.6,3.9,5c3.8,0.3,14.1-10.2,10-19.3C144.2,90.8,138.2,87,131,83.6z"
		/>
	<path id="XMLID_16702_" class="st0" d="M126.1,76c-4.4-1.8-12-1.9-15,3.6c-3,5.5-6.3,10.6-9,20c-1.5,5.2-5.8,16.3-7.9,26.9
		c-3.3,16.2-4.9,16.7-2.8,17.3c3.6,1.1,5.2-0.4,5.7-1.1c4-7,6.8-31.5,8-35.1c4.6-14.1,3-8.3,5.6-11.7c4.5-5.9,5.1-12.3,7.9-14.1
		c2.8-1.9,24.8,9.9,24.8,9.9S139.2,81.2,126.1,76z"/>
	<path id="XMLID_16701_" class="st5" d="M145,112.1c-3.1,3.3-2.4,7.4-14.4,5.5c0,0,3.4,4.7,9.8,3.6c4.9-0.8,8.3-4,9.8-9.3
		c1.5-5.3,0.2-11.7-4.1-16.4C146.2,95.6,148.1,108.8,145,112.1z"/>
	<path id="XMLID_16700_" class="st6" d="M124.4,80c-1.3-0.3-3.8-0.3-4.8,0.1c-4,1.6-7.3,8.5-7.3,8.5c-2.8,4.3-8.7,19.9-6.8,20.9
		c1.9,1,4.4-1.4,7.3-3.8c2.9-2.3,11.4-2,12.8,1.6c1.4,3.6,0.3,9.4,9.1,12c8.8,2.6,13.8-7.1,14.4-12.2c0.6-5.1-3.8-14.1-8.7-17.4
		C135.4,86.4,130.5,81.3,124.4,80z"/>
	<path id="XMLID_16699_" class="st7" d="M112.9,101c-3.8-0.6-5-3.2-5-3.2c-2.9,7.7-3.8,10.8-2.3,11.8c1.6,1,2.3-1.3,6.5-4.6
		c4.2-3.3,10.5-1.1,10.5-1.1C120.4,101,116.7,101.6,112.9,101z"/>
	<path id="XMLID_16698_" class="st1" d="M121,103.4c-5.1-1.1-9.3,1.2-11.3,2.1c-2.6,1.1-4.3-0.2-4.3-0.2c-1.1,2.7-1,4.3,0.8,4.7
		c1.8,0.4,4.9-2.5,7-3.5c3.2-1.5,5.1-1.7,7.2-1.6c1.7,0.1,2.9,0.8,3.7,1.4c0.6,0.5,1.7,2,1.7,2S125,104.2,121,103.4z"/>
	<path id="XMLID_16695_" class="st8" d="M142.3,104.6c-2.2-1.3-4.6-0.4-4.6-0.4c2.7,4.1-1.7,7.1-3.6,10.8c-1.8,3.5,1.1,4.7,1.1,4.7
		c9.8,2.2,13.9-11.7,13.9-11.7C146.6,108.6,144.5,105.9,142.3,104.6z"/>
	<path id="XMLID_16694_" class="st8" d="M141.4,101.5c-3.1-0.7-4.7,1.3-4.7,1.3l0.9,1.4c0,0,1.8-0.3,3.4,0c1.6,0.3,4.7,2.9,6.1,3.6
		c1.4,0.8,1.9,0.2,1.9,0.2l-0.2-2.9C147.3,102.6,144.5,102.2,141.4,101.5z"/>
	<path id="XMLID_16693_" class="st8" d="M117.7,87.2c0,0,2.6-0.4,3.4-1.7c0.8-1.3,2.8-3.5,4.5-3.1c0,0-3.8-1.5-5.4-1.1
		C118.6,81.7,116.7,85,117.7,87.2z"/>
	<path id="XMLID_16692_" class="st7" d="M49,82.4c-4-2.8-11.7,1.5-11.7,1.5c-1.5,1-4.5,2.6-4.5,2.6c3.1-0.2,8.6-3.6,10.9-4
		c2.2-0.4,3.3,2.5,3.5,6.2c0.2,3.7,3.5,8.1,7.4,8.5c4.6,0.5,7.3-14.4,7.3-14.4C60.1,85.1,55.5,86.9,49,82.4z"/>
	<path id="XMLID_16691_" class="st1" d="M52.1,88.3c-0.8-4.5-3.8-6.6-6.5-7.2c-5-1.1-12.8,5.4-12.8,5.4c2.3-0.3,3.2-0.6,4.6-1.2
		c6.9-2.9,9.3-1,9.8,3.4c0.5,4.8,2.1,8,5.4,8.9c5.5,1.4,6.1-4.1,6.1-4.1C55.6,94.8,52.7,92,52.1,88.3z"/>
	<path id="XMLID_16690_" class="st9" d="M60.1,59.7c1.8,1.9,0.6,3,0.1,4.1c-1.4,3.4-16-1.1-24.9,0.2c-7.1,1-12.5,8.7-12.5,8.7
		c-0.9,8.8,2.2,14.1,5.9,13c3.7-1.1,2.8-6.7,3.1-10.2c0.3-3.4,2.5-5.4,5.8-7.2c3.3-1.8,9.6-0.4,13,0c3.3,0.4,7.3,0.9,9.5,0
		c2.2-0.9,5.1-3,4.5-5.2C64,61,60.1,59.7,60.1,59.7z"/>
	<path id="XMLID_16689_" class="st10" d="M60.3,59.2c0,0,4.3,4,1.4,6.1c-2.8,2.1-17.6-0.2-22.2,0c-7.3,0.4-10.7,6.4-11.3,10.4
		c-0.6,4.1-4.8,6.2-4.8,6.2s2.7,7.2,6.7,3.9c2.7-2.2,0.5-7.3,3.2-12.5c1.9-3.8,6.9-5.4,12.3-5.5c5.4-0.1,15.4,2.5,18.2-1.2
		C67.5,61.9,60.3,59.2,60.3,59.2z"/>
	<path id="XMLID_16688_" class="st9" d="M124.8,84.9c-0.4-1.1-2.8-2.6-0.3-3.1c0,0-4.8-1.8-7,0.5c-1.5,1.6-0.3,4.6,1.1,6.4
		c1.4,1.8,5,3.5,8,5c3,1.5,9.1,3.7,11,6.8c1.8,3.1,2.6,5.8,1.1,8.7c-1.5,2.9-5.3,6.8-2.7,9.6c2.5,2.8,8.2,0.5,12.5-8.3
		c0,0-1-11.2-6.5-15.7C135.2,89.1,126.1,88.6,124.8,84.9z"/>
	<path id="XMLID_16687_" class="st10" d="M118.2,85.1c-1.3-3.7,3.5-5.4,3.5-5.4s-6.5,0.1-5.4,5.7c1,5.5,10.1,7.6,14.7,10.5
		c4.6,2.9,7.9,6.8,7.5,10.8c-0.5,5.5-4.3,7.2-3.5,10.4c1.1,4.6,6,2.3,6,2.3s-2.2-4.3-0.6-7.8c1.7-3.5,2.5-10-3.4-14.1
		C133.1,94.9,119.4,88.7,118.2,85.1z"/>
	<path id="XMLID_16686_" class="st4" d="M147.2,111.3c0,0.1,0,0.1,0,0.1C147.2,111.3,147.2,111.3,147.2,111.3z"/>
	<path id="XMLID_16685_" class="st4" d="M147.1,111.4c0,0.2,0,0.4,0,0.6C147.1,111.9,147.1,111.7,147.1,111.4z"/>
	<path id="XMLID_16684_" class="st4" d="M147.1,112C147.1,112.5,147.1,112.3,147.1,112L147.1,112z"/>
	<path id="XMLID_16683_" class="st4" d="M121,79.9c-3.8,1.7,1.4,5.5,8.1,8.2c8.1,3.3,10.3,5.1,14.3,9.5c4.7,5.3,4,11.3,3.9,13.7
		c0,0,4.7-5.9-2-17.1C139.6,84.9,124.8,78.2,121,79.9z"/>
	<path id="XMLID_16682_" class="st0" d="M72.7,65.6c0,0,5.1,5.7-1.1,23.2c-6.2,17.5-15,41.6-11.2,41.4c3.8-0.2,4.7,3.7,8.4-8.8
		c3.7-12.5,10.5-34,11.7-43.1C81.6,69.2,77.6,67,72.7,65.6z"/>
	<path id="XMLID_16681_" class="st0" d="M90.8,101.8c-3.8,13-11.9,31.5-7.4,33.9c4.5,2.4,7.9-19.6,10.6-28.8
		c2.7-9.1,9.2-24,5.6-26.1C99.6,80.8,94.7,88.8,90.8,101.8z"/>
	<path id="XMLID_16680_" class="st0" d="M84.8,84.8c0,0-15.8,46.6-10.9,45.9c4.9-0.7,14.3-43.4,14.6-45.9
		C88.7,82.3,84.8,84.8,84.8,84.8z"/>
</g>
</svg>
