<?xml version="1.0" encoding="utf-8"?>
<!-- Generator: Adobe Illustrator 19.0.0, SVG Export Plug-In . SVG Version: 6.00 Build 0)  -->
<svg version="1.1" id="Layer_1" xmlns="http://www.w3.org/2000/svg" xmlns:xlink="http://www.w3.org/1999/xlink" x="0px" y="0px"
	 viewBox="0 0 151.4 145.5" style="enable-background:new 0 0 151.4 145.5;" xml:space="preserve">
<style type="text/css">
	.st0{fill:#0C0D11;}
	.st1{fill:#272A31;}
	.st2{fill:#45464B;}
	.st3{fill:#72757A;}
	.st4{fill:#B8B8BA;}
	.st5{fill:#FFFFFF;}
	.st6{fill:#191A1C;}
	.st7{fill:#313234;}
	.st8{fill:#57585A;}
	.st9{fill:#C5C5C5;}
</style>
<g id="XMLID_15114_">
	<path id="XMLID_15133_" class="st0" d="M119.1,121c-33.7,30.8-80.2,35-103.9,9.2C-8.5,104.4-0.4,58.4,33.3,27.5
		C67-3.4,113.5-7.6,137.3,18.3C160.9,44.1,152.8,90.1,119.1,121z"/>
	<path id="XMLID_15130_" d="M129.5,46.8C120.9,56,105,55.8,94,46.3c-11-9.5-12.9-24.8-4.3-34.1c8.6-9.3,24.5-9.1,35.4,0.4
		C136.2,22.2,138.1,37.5,129.5,46.8z"/>
	<path id="XMLID_15129_" class="st1" d="M119.9,104.7c-7.5,9.3-20.8,19.4-24,20c-5.6,1.2-9.9-12.2,2.5-25.4
		c7.2-7.7,16.9-12.4,23.4-13.5C128.3,84.7,126.9,96.1,119.9,104.7z"/>
	<path id="XMLID_15128_" class="st2" d="M121,95.3c-26,5.6-44-24.2-44-24.2c-2-5.4-3.3-9.8,1.5-15.8c4.9-6,29.6-4.8,35-4.2
		c5.3,0.7,13.2-7.3,20.8-13.5c7.6-6.2,10.7,8.6,11.2,21.6C146,70.3,136.8,91.9,121,95.3z"/>
	<path id="XMLID_15127_" class="st3" d="M128.9,90.5c-13.5,10-26.2-5.7-30.8-10.9c-2.5-2.9-7.7-12-2.6-15.8
		c8.3-6.4,20.7,0.4,30.4-6.4c11.3-7.9,15.3-6.5,16.8,0.1C144.1,64.2,142.4,80.5,128.9,90.5z"/>
	<path id="XMLID_15126_" class="st4" d="M128.2,85.6c-9.5,7.1-28.4-5.4-25.6-13.5c1.6-4.5,11.9-2.5,19.3-6.8
		c7.4-4.4,16.5-9.6,16.9-2C139.1,70.8,137.7,78.4,128.2,85.6z"/>
	<path id="XMLID_15123_" class="st5" d="M128.3,80.7c-5.9,3.8-13.9,0.1-11.2-4.1c0,0,4.8-6,12.6-6.8
		C137.5,69.1,134.3,76.8,128.3,80.7z"/>
	<path id="XMLID_15122_" class="st6" d="M90.7,32.7c0,0-3.5-1.1-25.3,9.4c-21.9,10.4-49.3,50.5-29.2,82.1
		c11.5,17.9,11.7,22.2,11.7,22.2s-31.6-8.3-42.8-28.8C-6.3,97.2,2.6,61.5,19.6,41.6c17-19.8,56-49.2,90.8-37.1
		C110.4,4.5,83.8,21,90.7,32.7z"/>
	<path id="XMLID_15121_" class="st7" d="M37.9,55.5c-2.5,6.3-11.1,14.7-14.9,42c-1.3,9-6.2,13-8.4,12.5c-4.8-1.2-6.6-8.3-6.3-21.3
		c0.3-13.1,11.1-37.3,18-45.3C33.2,35.6,43.4,41.4,37.9,55.5z"/>
	<path id="XMLID_15120_" class="st7" d="M91.6,10.7C84.9,19.9,80.7,39,94,46.3c13.3,7.3-0.2,14.6-10.4,9.6
		c-10.3-5-27.1-21.8-23.1-35C64.4,7.7,75.3,7.3,82.3,5.7C89.3,4,109,1.9,110.4,4.5C112,7.2,98.2,1.5,91.6,10.7z"/>
	<path id="XMLID_15119_" class="st8" d="M89.8,12.3C85,19,84.4,28.5,91,36.7c6.7,8.3,5.6,14.8-2.5,10.7c0,0-14-9.1-13.1-23.5
		c0.7-12.5,16-23.8,28.1-18.9C103.5,5,94.4,5.5,89.8,12.3z"/>
	<path id="XMLID_15118_" class="st9" d="M128.7,49.3c-8.7,9.4-25.1,8.8-36.7-1.2c-11.6-10-14-25.8-5.3-35.2
		c8.7-9.3,25.2-8.8,36.7,1.2C135.1,24.1,137.5,39.9,128.7,49.3z"/>
	<path id="XMLID_15115_" d="M129.5,46.8C120.9,56,105,55.8,94,46.3c-11-9.5-12.9-24.8-4.3-34.1c8.6-9.2,24.5-9.1,35.4,0.5
		C136.1,22.2,138,37.5,129.5,46.8z"/>
</g>
</svg>
