<?xml version="1.0" encoding="utf-8"?>
<!-- Generator: Adobe Illustrator 19.0.0, SVG Export Plug-In . SVG Version: 6.00 Build 0)  -->
<svg version="1.1" id="Layer_1" xmlns="http://www.w3.org/2000/svg" xmlns:xlink="http://www.w3.org/1999/xlink" x="0px" y="0px"
	 viewBox="0 0 158.4 145.5" style="enable-background:new 0 0 158.4 145.5;" xml:space="preserve">
<style type="text/css">
	.st0{fill:#CF88B4;}
	.st1{fill:#9E648B;}
	.st2{fill:#EBE9EC;}
	.st3{fill:#C689B5;}
</style>
<g id="XMLID_15024_">
	<g id="XMLID_15038_">
		<path id="XMLID_15045_" class="st0" d="M29.3,126.5C47.2,140.9,77,143.1,77,143.1s25.4,0.3,48.8-16.8
			c32.2-23.4,31.6-48.7,31.4-62.5c-0.2-13.8-8.2-29-18.3-39.7c-10-10.6-24.2-20.3-58-22.2C47.3,0,7.7,26.5,2.8,56.2
			C-2.1,85.9,11.4,112.1,29.3,126.5z M80.8,12.5c28.6,1.6,40.6,9.8,49.1,18.8c8.5,9,15.3,22,15.4,33.6c0.2,11.7,0.7,33-26.6,52.9
			C98.9,132.3,77.3,132,77.3,132s-25.3-1.9-40.4-14.1c-15.2-12.2-26.6-34.3-22.4-59.5C18.7,33.3,52.1,10.9,80.8,12.5z"/>
		<path id="XMLID_15042_" class="st1" d="M1,55.9c-2.3,14.2-0.7,28.7,4.8,41.9c4.9,11.9,12.7,22.3,22.3,30.1c0.3,0.3,0.7,0.5,1,0.8
			c18.2,13.9,46.6,16.2,47.8,16.2l0,0l0.1,0c1.1,0,26.3,0.1,49.9-17.2c32.8-23.9,32.4-49.8,32.2-63.8l0-0.2
			c-0.2-13.3-7.4-28.9-18.7-40.9c-2.8-2.9-5.4-5.3-8.2-7.5c-12-9.2-28.2-14-51-15.3C64.5-0.8,45.9,4.9,30.1,15.7
			C14,26.7,3.4,41.4,1,55.9z M81.1,1.9c25.8,1.5,40.2,7.5,50,15c3,2.3,5.6,4.7,8,7.2c10.1,10.7,18,25.9,18.3,39.7
			c0.2,13.8,0.8,39.1-31.4,62.5C102.4,143.4,77,143.1,77,143.1s-28.8-2.1-46.8-15.9c-0.3-0.3-0.6-0.5-1-0.7
			C11.4,112.1-2.1,85.9,2.8,56.2C7.7,26.5,47.3,0,81.1,1.9z"/>
		<path id="XMLID_15039_" class="st1" d="M14.5,58.5c-4.2,25.2,7.2,47.3,22.4,59.5c0.3,0.2,0.5,0.4,0.8,0.6
			C52.9,130.2,77.3,132,77.3,132s21.5,0.2,41.3-14.2c27.3-19.9,26.8-41.2,26.6-52.9c-0.2-11.7-6.9-24.6-15.4-33.6
			c-2-2.1-4.2-4.2-6.8-6.2c-8.3-6.4-20.4-11.4-42.3-12.7C52.1,10.9,18.7,33.3,14.5,58.5z M80.6,14.3c18.6,1.1,31.7,5,41.3,12.3
			c2.2,1.7,4.3,3.6,6.5,6c8.9,9.4,14.8,22.1,15,32.4l0,0.2c0.1,11.2,0.5,32-25.9,51.3c-18.6,13.5-39,13.9-40.2,13.9
			c-1.3-0.1-24.4-2.2-38.6-13.1c-0.3-0.2-0.5-0.4-0.8-0.6C24.7,105.8,12,85,16.3,58.8c1.9-11.4,10.4-23,23.2-31.8
			C52.3,18.2,67.3,13.5,80.6,14.3z"/>
	</g>
	<path id="XMLID_15035_" class="st2" d="M32.1,130.6c34.6,20.8,67.2,11.7,83.7,1.3c18.8-11.8,33.6-27.1,37.1-49.9
		c5.7-36.2-11.6-66.5-60.5-75.4c-48.9-8.9-81.8,23-89.3,46.8C-4.3,77.2,10,117.3,32.1,130.6z M90.7,17.3c40.1,7,54.1,31.9,49.2,61.8
		c-3.1,18.8-15.3,31.5-30.8,41.4c-13.6,8.7-40.4,16.4-68.8-0.5c-18.1-10.8-29.5-43.8-23.2-63.5C23.3,36.8,50.6,10.3,90.7,17.3z"/>
	<g id="XMLID_15025_">
		<path id="XMLID_15032_" class="st2" d="M32.1,130.6c34.6,20.8,67.2,11.7,83.7,1.3c18.8-11.8,33.6-27.1,37.1-49.9
			c5.7-36.2-11.6-66.5-60.5-75.4c-48.9-8.9-81.8,23-89.3,46.8C-4.3,77.2,10,117.3,32.1,130.6z M90.7,17.3
			c40.1,7,54.1,31.9,49.2,61.8c-3.1,18.8-15.3,31.5-30.8,41.4c-13.6,8.7-40.4,16.4-68.8-0.5c-18.1-10.8-29.5-43.8-23.2-63.5
			C23.3,36.8,50.6,10.3,90.7,17.3z"/>
		<path id="XMLID_15029_" class="st3" d="M28.4,128.1c1.2,0.9,2.4,1.8,3.7,2.5c34.6,20.8,67.2,11.7,83.7,1.3
			c18.8-11.8,33.6-27.1,37.1-49.9c3.8-23.9-2.5-45.2-21.2-59.5C122,15.2,109.1,9.7,92.4,6.7c-48.9-8.9-81.8,23-89.3,46.8
			C-3.9,75.9,8.4,112.8,28.4,128.1z M32.7,18.6c12.1-7.8,32.2-16,59.5-11c15.9,2.9,29,8.2,38.9,15.7C148.7,36.7,155.9,57,152,81.9
			c-3.1,19.9-14.8,35.5-36.7,49.2c-5.7,3.6-17.8,9.7-34.6,10.9c-16.6,1.1-32.8-3-48.1-12.3c-1.2-0.7-2.4-1.5-3.6-2.4
			C9.4,112.5-2.9,76,4,53.7C8.1,40.6,18.8,27.5,32.7,18.6z"/>
		<path id="XMLID_15026_" class="st3" d="M16.2,56.2C13.3,65.3,14,77.5,18,89.8c4.1,12.3,10.9,22.8,18.8,28.8l0,0
			c1,0.8,2,1.5,3.1,2.1c26.7,16,53.5,10.8,69.7,0.5c18.5-11.8,28.5-25.1,31.2-42c3.5-21.3-2.5-38.5-17.3-49.9
			c-8.3-6.3-19.2-10.7-32.6-13c-23-4-40,3.1-50.2,9.8C28.9,33.8,19.8,45,16.2,56.2z M90.7,17.3c13.7,2.4,24.3,6.8,32.2,12.9
			c15.3,11.7,20.2,29.2,17,49c-3.1,18.8-15.3,31.5-30.8,41.4c-13.6,8.7-40.4,16.4-68.8-0.5c-1-0.6-2-1.3-3-2
			C21,105.5,11.2,75.1,17.1,56.5C23.3,36.8,50.6,10.3,90.7,17.3z"/>
	</g>
</g>
</svg>
