<?xml version="1.0" encoding="utf-8"?>
<!-- Generator: Adobe Illustrator 19.0.0, SVG Export Plug-In . SVG Version: 6.00 Build 0)  -->
<svg version="1.1" id="Layer_1" xmlns="http://www.w3.org/2000/svg" xmlns:xlink="http://www.w3.org/1999/xlink" x="0px" y="0px"
	 viewBox="0 0 102.2 101.3" style="enable-background:new 0 0 102.2 101.3;" xml:space="preserve">
<style type="text/css">
	.st0{fill:#7C1C1C;}
	.st1{fill:#A02E2B;}
	.st2{fill:#BC453F;}
	.st3{fill:#C65654;}
	.st4{fill:#D86161;}
	.st5{fill:#F4CBC9;}
	.st6{fill:#E1AEAD;}
	.st7{fill:#F49788;}
	.st8{fill:#E7CAC6;}
	.st9{fill:#EABCBC;}
	.st10{fill:#F8B2A8;}
	.st11{fill:#FFE7E8;}
	.st12{fill:#EECBC7;}
	.st13{fill:#D9ADAC;}
	.st14{fill:#D68A8A;}
	.st15{fill:#D7AAA4;}
	.st16{fill:#F0C9C2;}
	.st17{fill:#E5A9A1;}
	.st18{fill:#EBC3BB;}
	.st19{fill:#E29F97;}
	.st20{fill:#DDA09F;}
	.st21{fill:#EC9991;}
	.st22{fill:#F3AFAE;}
	.st23{fill:#E6ABA7;}
	.st24{fill:#D6A6A6;}
	.st25{fill:#EBACA5;}
	.st26{fill:#DF908B;}
	.st27{fill:#E1B0A9;}
	.st28{fill:#F19B8A;}
	.st29{fill:#EB8183;}
	.st30{fill:#E6B4B5;}
	.st31{fill:#FAD8CE;}
	.st32{fill:#F08E8F;}
	.st33{fill:#F2B6B5;}
</style>
<g id="XMLID_15619_">
	<path id="XMLID_15726_" class="st0" d="M17.1,14.9c-0.9,1-5.7,3.9-8.7,5.3c-3,1.4-2.5,4.9-3.2,8.1c-0.8,3.2-5.7,17.8-4.3,24
		c1.3,6.2,6.5,23.5,8.9,27.6c2.4,4.2,24.2,18.2,24.2,18.2c3.1,3,13.8,2.3,19,3.1c5.1,0.9,17-3.6,23.8-6.1
		c6.8-2.5,23.8-19.5,25.7-37.7c1.9-18.2-5.7-32.5-10.5-39.4C87.3,11.1,81.3,7.3,77.7,5.2C74.2,3.1,61.5,0,58.9,0
		c-2.7,0.1-21.3,3.2-27.3,5.9C25.5,8.7,18,13.8,17.1,14.9z"/>
	<path id="XMLID_15725_" class="st1" d="M18.6,16.4c-0.9,1-5.5,3.7-8.3,5c-2.9,1.3-2.4,4.7-3.1,7.7c-0.7,3-5.5,17.1-4.2,23
		c1.3,5.9,6.2,22.5,8.5,26.5c2.4,4,23.2,17.5,23.2,17.5c3,2.9,13.3,2.1,18.2,3c4.9,0.9,16.3-3.4,22.8-5.8
		c6.6-2.4,22.8-18.7,24.6-36.1c1.9-17.4-5.5-31.1-10-37.7C85.9,12.8,80.1,9.1,76.7,7.1c-3.4-2-15.5-5-18.1-4.9
		c-2.6,0-20.4,3-26.2,5.6C26.7,10.5,19.5,15.4,18.6,16.4z"/>
	<path id="XMLID_15724_" class="st2" d="M20.4,18.2c-0.8,0.9-5.2,3.5-7.9,4.8c-2.7,1.3-2.2,4.4-2.9,7.3c-0.7,2.9-5.2,16.2-3.9,21.8
		c1.2,5.6,5.9,21.3,8.1,25.1c2.2,3.8,22,16.5,22,16.5c2.8,2.7,12.6,2,17.3,2.9c4.7,0.8,15.4-3.2,21.6-5.5
		c6.2-2.3,21.6-17.7,23.3-34.2c1.8-16.5-5.2-29.5-9.5-35.8c-4.3-6.3-9.8-9.7-13-11.6c-3.2-1.9-14.7-4.7-17.1-4.7
		C55.9,4.8,39,7.6,33.5,10.1C28,12.6,21.2,17.3,20.4,18.2z"/>
	<path id="XMLID_15723_" class="st3" d="M24.5,22.4c-0.7,0.8-4.5,3.1-6.9,4.2c-2.4,1.1-2,3.9-2.6,6.4c-0.6,2.5-4.5,14.1-3.4,19
		c1,4.9,5.1,18.6,7,21.9c2,3.3,19.2,14.4,19.2,14.4c2.4,2.4,11,1.8,15,2.5c4.1,0.7,13.5-2.8,18.9-4.8c5.4-2,18.8-15.4,20.4-29.8
		c1.5-14.4-4.5-25.7-8.3-31.2c-3.8-5.5-8.5-8.5-11.3-10.2c-2.8-1.7-12.8-4.1-14.9-4.1c-2.1,0-16.8,2.5-21.6,4.7
		C31.2,17.5,25.2,21.6,24.5,22.4z"/>
	<path id="XMLID_15722_" class="st4" d="M32.6,30.7c-0.5,0.6-3.2,2.2-4.9,3c-1.7,0.8-1.4,2.8-1.8,4.5c-0.4,1.8-3.2,10-2.5,13.5
		c0.7,3.5,3.6,13.2,5,15.6c1.4,2.3,13.6,10.3,13.6,10.3c1.7,1.7,7.8,1.3,10.7,1.8c2.9,0.5,9.6-2,13.4-3.4c3.9-1.4,13.4-11,14.5-21.2
		c1.1-10.2-3.2-18.3-5.9-22.2c-2.6-3.9-6.1-6.1-8-7.3c-2-1.2-9.1-2.9-10.6-2.9c-1.5,0-12,1.8-15.4,3.3
		C37.3,27.2,33.1,30.1,32.6,30.7z"/>
	<path id="XMLID_15721_" class="st5" d="M27.2,81.6c0.8,3.5,3.9,4.2,3.9,4.2c3.4-1.9,0.6-9.1,0.7-12c0-2.9-3.9-2.6-5.5-1.9
		C24.8,72.6,26.4,78.1,27.2,81.6z"/>
	<path id="XMLID_15720_" class="st5" d="M30.2,70.1c1,1,2.5,3.9,4.4,2.2c1.5-1.3-0.8-0.6-1.3-3.8c-0.5-3.2-2.9-4.7-3.7-2.9
		C28.7,67.4,29.2,69,30.2,70.1z"/>
	<path id="XMLID_15719_" class="st5" d="M34.8,64.7c-0.2,1.4,0.4,5.9,1.5,5.8c1.1-0.1,2.9-1.3,1.7-5.4
		C37.5,63.2,35.1,63.3,34.8,64.7z"/>
	<path id="XMLID_15718_" class="st5" d="M38,88.8c0.1,2,2.9,2.3,4.3,3.2c1.4,0.9,3.1,0,3.2-1.8c0,0,0.6-2.4-2.7-3
		C39.5,86.6,37.9,86.9,38,88.8z"/>
	<path id="XMLID_15717_" class="st5" d="M40.1,81.1c0.5,1.8,2.6,2.1,2.6,2.1c1.2-0.4,3.4-1.9,3.2-3.6c-0.3-1.7-2.7-2.3-3.9-1.9
		C40.8,78,39.6,79.3,40.1,81.1z"/>
	<path id="XMLID_15716_" class="st5" d="M46.4,86.5c0.5,1.8,2.6,2.1,2.6,2.1c1.2-0.3,3.4-1.9,3.1-3.6c-0.3-1.7-2.7-2.3-3.9-2
		C47,83.5,45.9,84.7,46.4,86.5z"/>
	<path id="XMLID_15715_" class="st5" d="M75.9,71.8c0.5,1.8,2.6,2.1,2.6,2.1c1.2-0.4,3.4-1.9,3.1-3.6c-0.3-1.7-2.7-2.3-3.9-2
		C76.6,68.7,75.4,70,75.9,71.8z"/>
	<path id="XMLID_15714_" class="st5" d="M44.7,29.2c0.5,1.8,2.6,2.1,2.6,2.1c1.2-0.4,3.4-1.9,3.2-3.6c-0.3-1.7-2.7-2.3-3.9-1.9
		C45.3,26.1,44.1,27.4,44.7,29.2z"/>
	<path id="XMLID_15713_" class="st5" d="M46.2,76.8c4.8,1.9,4.1-2.6,3.1-4.5c-1-1.9-3.2-0.4-3.9,1C44.6,74.6,45.4,76.5,46.2,76.8z"
		/>
	<path id="XMLID_15712_" class="st5" d="M41.4,57.7c0.1,1.7,3.4,2.5,4.8-0.3c0,0,2.7-1.9,0.7-3.7C44.8,51.8,41.3,55.9,41.4,57.7z"/>
	<path id="XMLID_15711_" class="st5" d="M33.9,41.3c2.2,2.7,3.4,1.7,3.4,1.7c4.7-2.1,4.4-6.8,3.2-8.7c-1.2-1.9-5-0.3-6.5,0.4
		C32.3,35.3,31.7,38.6,33.9,41.3z"/>
	<path id="XMLID_15710_" class="st5" d="M29.8,44.7c0.3,2.4,2.3,5.3,3.9,3.5c0,0,0.1-2.5-1.4-5.6c-1.6-3.1-3.3-5.9-4-3.7
		C27.6,41.1,29.5,42.3,29.8,44.7z"/>
	<path id="XMLID_15709_" class="st5" d="M23.3,46.2c-0.4,1.7-1.3,4.1,0,4.6c1.8,0.8,2.2-0.7,3.4-1.9c1.2-1.2,0.9-3.1-0.7-6.2
		C24.5,39.6,23.7,44.5,23.3,46.2z"/>
	<path id="XMLID_15708_" class="st5" d="M11,63.8c0.3,1.9,0.1,3.5,2.1,4.7c1.9,1.2,8.1,1.1,7.1-3.7c-0.5-2.5-2.6-4.3-4.5-4
		C13.8,61.2,10.7,61.9,11,63.8z"/>
	<path id="XMLID_15707_" class="st5" d="M18.1,75c4.4,2,4.6-5.4,3.7-7.1c-0.9-1.7-4.1,1.2-5.9,3.3C14.1,73.3,16.6,74.3,18.1,75z"/>
	<path id="XMLID_15706_" class="st5" d="M12.3,60.5c0,0,2.4-0.9,1.9-3.2c-0.5-2.3-1.1-5.2-2.8-3.4C9.8,55.7,10.3,59.8,12.3,60.5z"/>
	<path id="XMLID_15705_" class="st5" d="M6.5,46.9c0.1,2.6,2.1,4.2,2.1,4.2c0.9,0.9,2.5-0.5,2.8-1.7c0.3-1.2-1.5-5.1-2.5-6.3
		C7.9,41.9,6.4,44.3,6.5,46.9z"/>
	<path id="XMLID_15704_" class="st5" d="M12.8,30.7c1.4,2.5,3.2,0.7,4.6,0.6c2-0.1,4.9-2.1,4.8-4.1c-0.1-2-1.2-3.4-3.2-4
		c-1.9-0.5-3.9,1-5.7,1.7C11.5,25.7,11.4,28.2,12.8,30.7z"/>
	<path id="XMLID_15703_" class="st6" d="M28.3,29.4c-0.3,2.1,2.2,3.1,2.2,3.1c2,0.7,2-1.5,2.6-3.2c0.6-1.7-1-2.6-2-3
		C30.2,26,28.6,27.3,28.3,29.4z"/>
	<path id="XMLID_15702_" class="st7" d="M38.2,17.8c0-2.9-2-3.6-3.9-2.6c-1.9,1-2.9,0.7-5.5,0.1c-2.6-0.6-2.2,0.9-4.7,3.6
		c-2.5,2.7-2.2,4-0.7,5.9c1.5,2,3.4-0.6,4.6-2.3c1.3-1.7,3.2-2.6,4.7-2.1C34.8,21.3,38.2,20.7,38.2,17.8z"/>
	<path id="XMLID_15701_" class="st8" d="M40.8,19.9c1.1,2.1-2.2,1.8-1.5,4c0.7,2.2,5.6,0.3,5.6,0.3c4.4-1.5,2.7-5.9,1.9-7.9
		c-0.8-2-3.6-1.6-5.1-0.9C40.2,16.1,39.8,17.8,40.8,19.9z"/>
	<path id="XMLID_15700_" class="st8" d="M48.8,19.8c0.8,1.8,4.4,0.5,4.4,0.5c1.9,0.5,3.4-3.4,3.9-4c0.5-0.6-1.8-1-3.4-0.1
		c-1.5,0.9-2.6,1-4.4,0.2C47.5,15.5,48,18,48.8,19.8z"/>
	<path id="XMLID_15699_" class="st9" d="M54.1,31.9c1.6,1.5,0.1,3.3,2.2,4.4c2.1,1.1,4.3-0.4,5.1-2.2c0.8-1.8,1.3-2.2,1.3-4.6
		c0-1.3-4.4-1.5-6.5-0.9C54.2,29.3,52.6,30.4,54.1,31.9z"/>
	<path id="XMLID_15698_" class="st10" d="M62.4,45.6c1,3.3,2.1,3,4.1,2.8c1.1-0.1,4.4-1.5,6-3.1c1.5-1.6-1.4-5.4-2.5-7.7
		c-1.1-2.3-4.3-0.9-7.4,1.1C59.4,40.8,61.5,42.4,62.4,45.6z"/>
	<path id="XMLID_15697_" class="st11" d="M48.5,63.7c0.7,1.6,2.6,2.8,4.9,3.2c2.3,0.4,5.2-1.3,5.3-2.9c0.2-2.1,0.1-2.5-3.7-2
		C51.2,62.5,47.8,62.2,48.5,63.7z"/>
	<path id="XMLID_15696_" class="st11" d="M42.8,36.5c0.7,1.6,2.6,2.8,4.9,3.2c2.3,0.4,5.1-1.3,5.3-2.9c0.2-2.1,0.2-2.5-3.7-2
		C45.5,35.3,42.1,35,42.8,36.5z"/>
	<path id="XMLID_15695_" class="st11" d="M31.1,52.3c0.7,1.6,2.6,2.8,4.9,3.2c2.3,0.4,5.2-1.3,5.3-2.9c0.3-2.1,0.2-2.5-3.7-2
		C33.9,51,30.5,50.7,31.1,52.3z"/>
	<path id="XMLID_15694_" class="st12" d="M58.8,68.7c0.5,1.8,4.1-0.6,5.1-0.6c0.9,0,3.5-1.5,3.3-3.9c-0.3-2.3-3.4-0.3-5.9,0.4
		C59,65.3,58.3,66.8,58.8,68.7z"/>
	<path id="XMLID_15693_" class="st12" d="M67.1,69.1c-1.1,1.4-1.8,2.1-1.4,4.4c0.5,2.3,2,0.1,3-0.4c0,0,5.2-4.2,5.7-5.5
		c0.5-1.3-0.9-0.6-2.2-0.9C70.8,66.4,68.3,67.6,67.1,69.1z"/>
	<path id="XMLID_15692_" class="st12" d="M64.2,80.6c0.2,2.2,1.9,1.9,1.9,1.9c2.5-0.5,4.2-5.2,4.9-6.8c0.7-1.5-2.9-0.7-4.5-0.2
		C64.8,76,63.9,78.4,64.2,80.6z"/>
	<path id="XMLID_15691_" class="st13" d="M69.6,83.9c0.7,1.6,3.4,0.1,3.4,0.1c1.2-1,5.1-5.3,4.3-7.9c-0.8-2.7-3.7,0.9-5.1,2.2
		C70.7,79.5,68.9,82.3,69.6,83.9z"/>
	<path id="XMLID_15690_" class="st14" d="M77.2,84.3c1.2-1,3.8-2.9,3.3-5.2c-0.2-1.1-2.4,0.1-3.8,2C75.3,83.1,75.9,85.3,77.2,84.3z"
		/>
	<path id="XMLID_15689_" class="st15" d="M89.3,73.6c-0.3-1.7-3.7,0.4-4.6,0.9c-1,0.5-2.1,1.9-1.8,3.6c0.3,1.7,3.4-2.1,3.4-2.1
		C88.8,77.7,89.6,75.3,89.3,73.6z"/>
	<path id="XMLID_15688_" class="st16" d="M84.9,68.5c0.9-0.5,3.7-1.1,3-3.1c0,0-0.5-1.8-3.5-0.1C81.4,67.1,84,69,84.9,68.5z"/>
	<path id="XMLID_15687_" class="st16" d="M92.1,60.6c-0.1-1.9,1.8-6.5,1.5-7.7c-0.4-1.2,0.9-5.1,0.8-7.1c-0.1-1.9-2.3-2.6-3.5-2.1
		c-1.2,0.6-1.2,8.6-1,10.1c0.2,1.5-3.3,3-4.7,4.5c-1.3,1.5-3.7,4.6-2.6,6.3c1.2,1.6,4.3-1.9,4.3-1.9C89.6,66.2,92.2,62.5,92.1,60.6z
		"/>
	<path id="XMLID_15686_" class="st17" d="M77.1,49.7c1.6,3.1,3.8,2.4,3.8,2.4c1.7-0.3,2.6,0.6,4.2-3c1.6-3.6-0.2-5.9-1.7-7.3
		C82,40.5,80,46.7,80,46.7s0,0-1.4-1.8C77.2,43.1,75.6,46.6,77.1,49.7z"/>
	<path id="XMLID_15685_" class="st18" d="M69.8,57c0,0-4.4,2.4-2.4,4.5c2,2.1,4.5,0.9,5.6,0.3c1.2-0.6,3.5-3.9,2.4-6.2
		C74.2,53.2,69.4,52.7,69.8,57z"/>
	<path id="XMLID_15684_" class="st19" d="M31.6,59.9c0.8,2,2.3,1.8,3.2,2.4c0.9,0.6,2.7,1.4,4.1,0.5c0.9-0.5-1.6-2.4-3.3-3
		C33.9,59.2,30.8,57.9,31.6,59.9z"/>
	<path id="XMLID_15683_" class="st19" d="M56.7,53.5c0.8,2,2.3,1.8,3.2,2.4c0.8,0.6,2.6,1.4,4.2,0.5c0.9-0.6-1.6-2.4-3.3-3
		C58.9,52.8,55.8,51.5,56.7,53.5z"/>
	<path id="XMLID_15682_" class="st20" d="M40.8,71.3c1.2,1,4.6,1.3,4.3-1.1c0,0-0.7-2.4-2.8-1.8C40.3,69,39.6,70.4,40.8,71.3z"/>
	<path id="XMLID_15681_" class="st2" d="M22.5,65.8c1.2,1,4.6,1.3,4.3-1.1c0,0-0.7-2.4-2.8-1.8C22.1,63.5,21.3,64.8,22.5,65.8z"/>
	<path id="XMLID_15680_" class="st2" d="M37.3,79.7c1.2,1,4.6,1.3,4.3-1.1c0,0-0.7-2.4-2.7-1.9C36.8,77.4,36.1,78.7,37.3,79.7z"/>
	<path id="XMLID_15679_" class="st1" d="M84.5,53.8c1.2,1,4.6,1.3,4.3-1.1c0,0-0.7-2.4-2.7-1.8C84,51.5,83.3,52.8,84.5,53.8z"/>
	<path id="XMLID_15678_" class="st1" d="M89.8,69c1.2,1,4.6,1.3,4.3-1.1c0,0-0.7-2.4-2.8-1.8C89.3,66.7,88.6,68,89.8,69z"/>
	<path id="XMLID_15677_" class="st1" d="M89.4,37.7c1.1,1,4.6,1.3,4.3-1.1c0,0-0.7-2.4-2.8-1.8C88.9,35.4,88.2,36.7,89.4,37.7z"/>
	<path id="XMLID_15676_" class="st1" d="M32.6,13.7c1.2,1,4.6,1.3,4.3-1.1c0,0-0.7-2.4-2.8-1.8C32.1,11.4,31.4,12.7,32.6,13.7z"/>
	<path id="XMLID_15675_" class="st1" d="M4.2,57.1c1.2,1,4.6,1.3,4.3-1.1c0,0-0.7-2.4-2.8-1.8C3.8,54.8,3.1,56.2,4.2,57.1z"/>
	<path id="XMLID_15674_" class="st1" d="M11,79.3c1.2,1,4.6,1.3,4.3-1.1c0,0-0.7-2.5-2.8-1.8C10.6,77,9.9,78.3,11,79.3z"/>
	<path id="XMLID_15673_" class="st1" d="M9.9,66.3c1.2,1,4.6,1.3,4.3-1.1c0,0-0.7-2.5-2.8-1.8C9.4,64,8.7,65.4,9.9,66.3z"/>
	<path id="XMLID_15672_" class="st1" d="M65.3,96.4c1.2,1,4.6,1.3,4.3-1.1c0,0-0.7-2.4-2.8-1.8C64.9,94.1,64.2,95.5,65.3,96.4z"/>
	<path id="XMLID_15671_" class="st2" d="M67,22c1.2,1,4.6,1.3,4.3-1.1c0,0-0.7-2.4-2.8-1.8C66.6,19.7,65.9,21,67,22z"/>
	<path id="XMLID_15670_" class="st1" d="M39.1,10.7c1.2,1,4.6,1.3,4.3-1.1c0,0-0.7-2.4-2.8-1.8C38.6,8.4,37.9,9.7,39.1,10.7z"/>
	<path id="XMLID_15669_" class="st1" d="M19,20.3c1.2,1,4.6,1.3,4.3-1.1c0,0-0.7-2.4-2.8-1.8C18.5,18,17.8,19.3,19,20.3z"/>
	<path id="XMLID_15668_" class="st1" d="M13.5,40.9c1.2,1,4.6,1.3,4.3-1.1c0,0-0.7-2.4-2.8-1.8C13,38.6,12.3,39.9,13.5,40.9z"/>
	<path id="XMLID_15667_" class="st1" d="M44.4,95.9c1.2,1,4.6,1.3,4.3-1.1c0,0-0.7-2.5-2.8-1.8C43.9,93.6,43.2,94.9,44.4,95.9z"/>
	<path id="XMLID_15666_" class="st1" d="M27.3,89.7c1.2,1,4.6,1.3,4.3-1.1c0,0-0.7-2.4-2.8-1.8C26.8,87.4,26.1,88.7,27.3,89.7z"/>
	<path id="XMLID_15665_" class="st1" d="M74,90.1c1.2,1,4.6,1.3,4.3-1.1c0,0-0.7-2.4-2.8-1.8C73.5,87.8,72.8,89.1,74,90.1z"/>
	<path id="XMLID_15664_" class="st3" d="M52.1,58c1.2,1,4.6,1.3,4.3-1.1c0,0-0.7-2.4-2.8-1.8C51.7,55.7,50.9,57,52.1,58z"/>
	<path id="XMLID_15663_" class="st3" d="M48.8,76c1.2,1,4.6,1.3,4.4-1.1c0,0-0.7-2.5-2.8-1.8C48.3,73.6,47.6,75,48.8,76z"/>
	<path id="XMLID_15662_" class="st3" d="M79.6,60.1c1.8,1.5,6.9,1.9,6.5-1.6c0,0-1.1-3.7-4.2-2.8C78.9,56.6,77.8,58.6,79.6,60.1z"/>
	<path id="XMLID_15661_" class="st3" d="M42.9,41.7c1.8,1.5,6.9,1.9,6.5-1.6c0,0-1.1-3.6-4.1-2.8C42.2,38.2,41.1,40.2,42.9,41.7z"/>
	<path id="XMLID_15660_" class="st3" d="M20.7,36.6c1.8,1.5,6.9,1.9,6.5-1.6c0,0-1.1-3.7-4.1-2.8C20.1,33.2,19,35.1,20.7,36.6z"/>
	<path id="XMLID_15659_" class="st3" d="M20.2,75c1.8,1.5,6.9,2,6.5-1.6c0,0-1.1-3.7-4.1-2.8C19.5,71.6,18.4,73.5,20.2,75z"/>
	<path id="XMLID_15658_" class="st3" d="M56,82.7c1.7,1.5,6.9,2,6.5-1.6c0,0-1.1-3.7-4.1-2.8C55.3,79.2,54.3,81.2,56,82.7z"/>
	<path id="XMLID_15657_" class="st2" d="M78.9,76.7c1.2,1,4.6,1.3,4.4-1.1c0,0-0.7-2.4-2.8-1.8C78.5,74.4,77.8,75.7,78.9,76.7z"/>
	<path id="XMLID_15656_" class="st3" d="M75.6,64.4c1.2,1,4.6,1.3,4.3-1.1c0,0-0.7-2.4-2.8-1.8C75.2,62,74.4,63.4,75.6,64.4z"/>
	<path id="XMLID_15655_" class="st20" d="M9.7,39.3c1.2,1,4.6,1.3,4.3-1.1c0,0-0.7-2.5-2.7-1.8C9.2,37,8.5,38.4,9.7,39.3z"/>
	<path id="XMLID_15654_" class="st20" d="M36.7,29.7c1.2,1,4.6,1.3,4.3-1.1c0,0-0.7-2.4-2.8-1.8C36.3,27.4,35.6,28.7,36.7,29.7z"/>
	<path id="XMLID_15653_" class="st20" d="M65,16.3c1.2,1,4.6,1.3,4.4-1.1c0,0-0.7-2.4-2.8-1.8C64.6,14,63.8,15.3,65,16.3z"/>
	<path id="XMLID_15652_" class="st21" d="M16.5,47.7c-0.4,1.9-2.3,5.6-0.5,6.6c1.8,1,4.8,1.2,4.6-1.8c-0.1-1.7-1.7-1.3-2-3.2
		C18.2,47.5,16.8,45.9,16.5,47.7z"/>
	<path id="XMLID_15651_" class="st22" d="M19,33c-1.4,1.3-2.9,4.6-0.7,5.1c2.1,0.5,3.5-1.7,4.5-3.3c1.1-1.6,3.2-4.9,3.5-5.5
		c0,0-1-2.8-2.4-1.3C22.6,29.5,20.4,31.7,19,33z"/>
	<path id="XMLID_15650_" class="st22" d="M45.9,11.9c1.5,1.6,3.8,0.5,5.7-0.3c1.8-0.8,5.4-2.3,5.9-2.6c0,0,0.7-2.9-1.3-2.4
		c-1.9,0.5-5,1.1-6.9,1.5C47.5,8.3,44.4,10.3,45.9,11.9z"/>
	<path id="XMLID_15649_" class="st17" d="M64.5,30.9c-0.1,2.7,2,3.6,5.3,0c0,0,1-2.7-0.4-3.6C68,26.3,64.6,28.2,64.5,30.9z"/>
	<path id="XMLID_15648_" class="st23" d="M59.7,22.3c1.5-0.7,3.2-1.2,2.6-2.5c0,0-3.7-4.2-4.8-2.1C56.3,19.8,58.1,23,59.7,22.3z"/>
	<path id="XMLID_15647_" class="st24" d="M72.2,18.8c0.5,2.3,2.7,3,4.4,2.9c0,0,0.7-2.7-0.5-4C74.8,16.3,71.7,16.5,72.2,18.8z"/>
	<path id="XMLID_15646_" class="st25" d="M79.5,23.3c0.4,1.4,2,3.8,4,3c0,0,3.6-4.4,1.9-5.6C83.7,19.4,79.1,21.9,79.5,23.3z"/>
	<path id="XMLID_15645_" class="st26" d="M84.9,28.1c1.2,1.6,4.1,5,5.4,3.1c0.7-1.1-2.2-2.2-2.8-3.6C86.8,26.2,83.8,26.5,84.9,28.1z
		"/>
	<path id="XMLID_15644_" class="st27" d="M85.2,33.6c0,0-1.9-2.8-3.7-2.7c-1.7,0.1-4.4,2.4-2.6,3.2c1.8,0.8,3.8,0.6,4.9,1.4
		C84.9,36.3,86.2,35.5,85.2,33.6z"/>
	<path id="XMLID_15643_" class="st26" d="M87.7,38.2c-0.7,2.2,2.6,2.6,2.6,2.6c1.8-0.8-0.6-5-1.1-6.8c-0.5-1.8-2-1.4-2.6-0.6
		C85.9,34.3,88.4,36,87.7,38.2z"/>
	<path id="XMLID_15642_" class="st28" d="M68,52.6c1.7,1.3,4.4,0,6.4-1c1.9-1,1.1-2.3-0.5-4c-1.6-1.7-2.3,0.5-3,1.8
		C70.1,50.7,67.2,52,68,52.6z"/>
	<path id="XMLID_15641_" class="st17" d="M78,39.2c0.3,1-0.5,1.9,0.2,3.1c0,0,3.5,0.5,3.4-2.1c-0.1-2.6-1-7.2-2.7-6.1
		C77.3,35.3,77.7,38.2,78,39.2z"/>
	<path id="XMLID_15640_" class="st29" d="M73.1,30.7c0.9,3.1,3.4,5.4,3.4,2.5c0,0,0-2.9-2.1-4.2C72.2,27.7,72.2,27.7,73.1,30.7z"/>
	<path id="XMLID_15639_" class="st30" d="M56.4,90.2c2.1,0.5,4.6,0.6,4.3-1.9c-0.3-2.7-3.8-3.8-5.1-1.4
		C54.3,89.3,54.2,89.8,56.4,90.2z"/>
	<path id="XMLID_15638_" class="st30" d="M54.5,94.3c1.6,0.9,5.8,2.3,6.5-0.4c0,0-3.4-4.1-6.3-2.6C51.8,92.9,52.9,93.5,54.5,94.3z"
		/>
	<path id="XMLID_15637_" class="st31" d="M62.5,10.1c2.1,2.7,2.9,2.9,4.5,2.5c1.6-0.5,5-1.1,2.3-3.4c-2.7-2.3-5.3-3.7-8.5-2.4
		C60.3,7.2,60.4,7.4,62.5,10.1z"/>
	<path id="XMLID_15636_" class="st32" d="M21.2,44.8c1.1-1.4,0.9-2.1-0.2-2.2C19.6,42.5,20,46.3,21.2,44.8z"/>
	<path id="XMLID_15635_" class="st32" d="M38.6,87.9c1.1-1.5,0.9-2.1-0.2-2.2C37,85.6,37.5,89.3,38.6,87.9z"/>
	<path id="XMLID_15634_" class="st32" d="M14.4,72.4c1.1-1.4,0.9-2.1-0.2-2.2C12.8,70.1,13.3,73.9,14.4,72.4z"/>
	<path id="XMLID_15633_" class="st32" d="M18.3,78.2c1.1-1.4,0.9-2-0.2-2.2C16.6,75.9,17.1,79.6,18.3,78.2z"/>
	<path id="XMLID_15632_" class="st32" d="M69.3,90.5c1.1-1.4,1-2-0.2-2.2C67.7,88.2,68.2,91.9,69.3,90.5z"/>
	<path id="XMLID_15631_" class="st32" d="M20.5,60.4c1.1-1.4,0.9-2-0.2-2.2C18.9,58.1,19.4,61.9,20.5,60.4z"/>
	<path id="XMLID_15630_" class="st32" d="M14.8,46.8c1.1-1.4,0.9-2.1-0.2-2.1C13.2,44.5,13.7,48.3,14.8,46.8z"/>
	<path id="XMLID_15629_" class="st3" d="M61.8,44.9c1.1-1.4,1-2-0.2-2.2C60.2,42.6,60.7,46.3,61.8,44.9z"/>
	<path id="XMLID_15628_" class="st32" d="M32.9,26.6c1.1-1.4,0.9-2-0.2-2.2C31.3,24.3,31.8,28,32.9,26.6z"/>
	<path id="XMLID_15627_" class="st32" d="M64.7,88.2c1.1-1.4,0.9-2.1-0.2-2.2C63.1,85.9,63.6,89.7,64.7,88.2z"/>
	<path id="XMLID_15626_" class="st32" d="M73.6,87.7c1.1-1.4,0.9-2-0.2-2.2C72,85.4,72.5,89.1,73.6,87.7z"/>
	<path id="XMLID_15625_" class="st32" d="M59.7,48.6c1.1-1.4,1-2.1-0.2-2.2C58.1,46.3,58.6,50,59.7,48.6z"/>
	<path id="XMLID_15624_" class="st32" d="M41,47.7c1.1-1.5,0.9-2.1-0.2-2.2C39.4,45.4,39.9,49.1,41,47.7z"/>
	<path id="XMLID_15623_" class="st32" d="M28.5,56c1.1-1.4,0.9-2.1-0.2-2.2C26.9,53.8,27.4,57.5,28.5,56z"/>
	<path id="XMLID_15622_" class="st12" d="M56.3,74.8c-0.8,2.7-2.9,3.1-0.9,6c2,3,5.1-0.8,5.1-0.8c2.4-8.5,0.3-10.1-1.5-10.4
		C57.1,69.3,57.1,72.2,56.3,74.8z"/>
	<path id="XMLID_15621_" class="st12" d="M51.5,44c-0.7,2.7-2.9,3.1-0.9,6c2,3,5.1-0.8,5.1-0.8c2.4-8.5,0.3-10.1-1.5-10.4
		C52.3,38.5,52.3,41.3,51.5,44z"/>
	<path id="XMLID_15620_" class="st33" d="M20.2,75.9c0.3,1.7,2.3,6.2,4.3,4.1c0,0,0.1-2-0.9-3.7C22.7,74.5,19.9,74.2,20.2,75.9z"/>
</g>
</svg>
