<?xml version="1.0" encoding="utf-8"?>
<!-- Generator: Adobe Illustrator 19.0.0, SVG Export Plug-In . SVG Version: 6.00 Build 0)  -->
<svg version="1.1" id="Layer_1" xmlns="http://www.w3.org/2000/svg" xmlns:xlink="http://www.w3.org/1999/xlink" x="0px" y="0px"
	 viewBox="0 0 97.8 152.4" style="enable-background:new 0 0 97.8 152.4;" xml:space="preserve">
<style type="text/css">
	.st0{fill:#BB3C35;}
	.st1{fill:#91362A;}
	.st2{clip-path:url(#XMLID_254_);}
	.st3{fill:#D3BBB7;}
	.st4{fill:#B89E9B;}
	.st5{fill:#9A3735;}
	.st6{fill:#E0D3D1;}
	.st7{opacity:0.22;fill:#DB8F8D;}
	.st8{opacity:0.65;}
	.st9{opacity:0.37;fill:#DB8F8D;}
	.st10{opacity:0.57;fill:#F7E1E4;}
</style>
<g id="XMLID_16405_">
	<g id="XMLID_16410_">
		<path id="XMLID_16433_" class="st0" d="M46,22.9c-3.8,6.4-8.6,12.1-14.3,16.8c-3.6,3-7.2,8.2-8.9,17.3C19,77.7,18,85.2,6.5,97.2
			s4.1,37.4,19.2,42.8s39.8,17.4,51.5,6.9s19.1-21.1,8.2-41.6S76.7,63,83.9,51.7s22.6-36.1,5.2-48.3C75.1-6.3,56,5.9,46,22.9z"/>
		<g id="XMLID_16427_">
			<path id="XMLID_221_" class="st0" d="M46,22.9c-3.8,6.4-8.6,12.1-14.3,16.8c-3.6,3-7.2,8.2-8.9,17.3C19,77.7,18,85.2,6.5,97.2
				s4.1,37.4,19.2,42.8s39.8,17.4,51.5,6.9s19.1-21.1,8.2-41.6S76.7,63,83.9,51.7s22.6-36.1,5.2-48.3C75.1-6.3,56,5.9,46,22.9z"/>
			<path id="XMLID_218_" class="st1" d="M46,22.9c0,0-0.2,0.3-0.6,1c-0.4,0.7-1,1.6-1.8,2.8c-1.7,2.4-4.3,5.9-8.2,9.8
				c-1,1-2.1,1.9-3.2,2.9c-1.2,1-2.3,2.1-3.3,3.4c-2.1,2.6-3.6,5.9-4.7,9.6c-0.6,1.8-0.9,3.8-1.3,5.8c-0.4,2-0.7,4.1-1.1,6.2
				c-0.8,4.2-1.6,8.7-2.9,13.3c-0.7,2.3-1.5,4.6-2.5,6.8c-1.1,2.2-2.4,4.4-3.8,6.5c-1.5,2.1-3.2,4.1-5,6L7,97.5l-0.1,0.2l-0.2,0.2
				l-0.6,0.8c-0.4,0.5-0.7,1-1,1.6c-0.6,1.1-1.1,2.3-1.4,3.6c-0.6,2.5-0.6,5.2-0.1,7.9c0.5,2.7,1.4,5.3,2.6,7.8
				c2.4,5,5.9,9.7,10.2,13.5c2.1,1.9,4.5,3.6,7.1,4.9c1.3,0.6,2.6,1.1,4.1,1.6c1.4,0.5,2.9,1,4.3,1.6c5.7,2.1,11.4,4.3,17.3,6
				c2.9,0.9,5.9,1.6,8.9,2.1c3,0.5,6,0.7,9,0.4c2.9-0.3,5.8-1.2,8.1-2.8c1.1-0.8,2.3-2,3.4-3l1.6-1.6l1.6-1.7c2-2.3,3.9-4.7,5.2-7.4
				c1.3-2.7,2.1-5.5,2.3-8.5c0.2-2.9-0.3-5.9-1.1-8.8l-0.7-2.2c-0.2-0.7-0.5-1.4-0.8-2.1c-0.3-0.7-0.5-1.4-0.9-2.1l-1-2.1
				c-0.7-1.4-1.3-2.8-2-4.2l-0.5-1l-0.4-1.1l-0.9-2.2c-0.6-1.5-1-3-1.5-4.4c-0.4-1.5-0.8-3-1.2-4.5c-1.3-6.1-1.7-12.2-1.3-18.2
				c0.6-6,1.9-11.9,4.6-17.1c0.3-0.7,0.7-1.3,1-1.9c0.4-0.6,0.7-1.3,1.1-1.8c0.8-1.2,1.5-2.3,2.3-3.5c1.5-2.3,2.9-4.7,4.1-7.1
				c2.5-4.7,4.6-9.6,5.8-14.5c1.1-4.9,1.3-9.9-0.5-14.2c-0.9-2.1-2.2-4-3.8-5.6C91,5.4,90.6,5,90.2,4.6c-0.4-0.3-0.9-0.7-1.3-1
				C88.4,3.3,88,3,87.5,2.7c-0.5-0.2-0.9-0.5-1.4-0.8C82.3,0.1,78-0.2,74.3,0.5c-3.8,0.6-7.1,2.1-10,3.7c-2.9,1.7-5.3,3.5-7.4,5.4
				c-4.1,3.7-6.8,7.1-8.5,9.6c-0.9,1.2-1.5,2.2-1.9,2.8C46.2,22.6,46,22.9,46,22.9z M46,22.9c0,0,0.2-0.3,0.6-1
				c0.4-0.7,1-1.6,1.9-2.8c1.7-2.4,4.3-5.9,8.4-9.6c2-1.8,4.5-3.7,7.3-5.4c2.9-1.7,6.2-3.2,10-3.9c3.8-0.7,8.1-0.5,12.1,1.4
				c3.9,1.8,7.6,5,9.6,9.5c2,4.4,1.9,9.7,0.9,14.7c-1.1,5.1-3.1,10-5.6,14.9c-1.2,2.4-2.6,4.8-4,7.2c-0.7,1.2-1.4,2.4-2.2,3.6
				c-0.4,0.6-0.7,1.2-1,1.8c-0.3,0.6-0.7,1.2-1,1.8c-2.4,5-3.6,10.7-4,16.5c-0.3,5.8,0.2,11.7,1.6,17.5c0.4,1.4,0.8,2.9,1.2,4.3
				c0.5,1.4,0.9,2.9,1.5,4.2l0.9,2.1l0.4,1l0.5,1c0.7,1.4,1.4,2.8,2.1,4.1l1.1,2.1c0.3,0.7,0.6,1.5,0.9,2.2c0.7,1.5,1.1,3,1.6,4.6
				c0.8,3.1,1.4,6.4,1.2,9.7c-0.2,3.3-1.1,6.6-2.5,9.6c-1.5,3-3.4,5.7-5.6,8.1l-1.7,1.8l-1.7,1.7c-1.2,1.1-2.2,2.1-3.7,3.2
				c-2.8,2-6.2,3.1-9.5,3.3c-6.6,0.6-13-1-19-2.7c-6-1.8-11.8-4.1-17.4-6.3c-1.4-0.5-2.8-1.1-4.2-1.6c-1.4-0.5-2.9-1.1-4.3-1.8
				c-2.8-1.5-5.3-3.3-7.5-5.4c-4.4-4.2-7.9-9.1-10.3-14.4c-1.2-2.6-2.1-5.4-2.5-8.2c-0.5-2.8-0.4-5.7,0.3-8.5
				c0.4-1.4,0.9-2.7,1.6-3.9c0.4-0.6,0.8-1.2,1.2-1.7l0.7-0.7L6,96.9l0.2-0.2l0.3-0.4c1.8-1.9,3.5-3.8,5-5.8c1.5-2,2.8-4.1,3.9-6.3
				c1.1-2.2,1.9-4.4,2.6-6.7c1.4-4.5,2.3-8.9,3.1-13.2c0.4-2.1,0.8-4.2,1.2-6.2c0.4-2,0.8-4,1.4-5.8c1.1-3.7,2.8-7,4.9-9.6
				c1-1.3,2.2-2.4,3.4-3.4c1.2-1,2.2-2,3.2-2.9c4-3.8,6.6-7.3,8.3-9.7c0.8-1.2,1.4-2.2,1.8-2.8C45.8,23.3,46,22.9,46,22.9z"/>
		</g>
		<g id="XMLID_16411_">
			<defs>
				<path id="XMLID_16412_" d="M46,22.9c-3.8,6.4-8.6,12.1-14.3,16.8c-3.6,3-7.2,8.2-8.9,17.3C19,77.7,18,85.2,6.5,97.2
					s4.1,37.4,19.2,42.8s39.8,17.4,51.5,6.9s19.1-21.1,8.2-41.6S76.7,63,83.9,51.7s22.6-36.1,5.2-48.3C75.1-6.3,56,5.9,46,22.9z"/>
			</defs>
			<clipPath id="XMLID_254_">
				<use xlink:href="#XMLID_16412_"  style="overflow:visible;"/>
			</clipPath>
			<g id="XMLID_16413_" class="st2">
				<path id="XMLID_16426_" class="st3" d="M78.2,32.1c-4.9,2-9.5,6.1-14.1,8.8c-4.7,2.8-8.2,6.6-11.5,10.9
					c-3.8,4.9-6.8,9.9-9.7,15.3c-2.1,3.9-4.8,7.5-7,11.4c-1.6,2.9-3.4,6.4-5.4,8.8c0.1-0.4,0.1-0.7,0.1-1.1
					c-4.7,10.6-9.3,20.4-9.2,32.1c0.1,6.9-4.7,13.5,0.1,19.1c1.2,1.4,0.3-0.2,2.4,1.3c1.8,1.3-0.4-1.7,0.6,0.6c0.1-0.1-3.8-11.9,0,0
					c-1-5.4,0,2.1-0.9-3.4c-1.1-6.3-0.5-12.2-0.2-18.3c1.2-19.5,13.9-35.3,23.4-51.2c2.3-3.9,2.5-8.4,4.9-12.1
					c2.4-3.8,6.2-7.5,10.3-9.7c4.3-2.2,9.5-3.9,12.9-7.5c1.1-1.2,1.6-2.6,2.7-3.7c1.3-1.4,3-1.9,4.1-3.4c-1.4-0.2-4.6,1.9-5.9,2.8"
					/>
				<path id="XMLID_16425_" class="st3" d="M64.8,5.5C63.1,6.3,61.5,7,59.9,8c0.3,0.2,0.5,0.7,0.9,1c-0.5,1.5-3.2,2.7-4.3,3.9
					c-1.9,1.8-3.5,4.8-5.7,6.1c-0.1-0.5-0.8-1.3-0.8-1.6C43,18.7,37.7,24,33.5,29.1c4.6-2.4,9.1-7.9,14.2-9c0.7,2.2,1.7,1,3.1,0.5
					c2.6-0.9,2.1-1.2,3.6-3.5c1.2-1.8,8.9-6.1,7-7.8c0.1-0.4,0.1-0.9,0.2-1.4c-0.7-0.6-1.2-0.4-1.9,0"/>
				<path id="XMLID_16424_" class="st3" d="M45.2,36.2c-1.4,1.8-3.1,3.7-4.5,5.4c0.3-0.1,0.7-0.1,0.9-0.1c-1.5,4.4-5.3,8-8,11.6
					c-2.7,3.6-3.5,8.3-5.9,11.9c-0.1-0.1-0.2-0.2-0.2-0.3c-1.6,1.1-3,2.6-4.2,4.1c-1.7-0.2-3-1.7-4.4-0.5c-1.3-2-0.3-8.2,0.6-10.6
					c-1.7,5.1-0.5,9.9-0.6,15c1.7-0.7,2-3,4.2-2.2c1.7-2.8,4.4-4.4,6.1-7.2c2-3.5,4.1-7,6.1-10.3c3.4-5.8,7.5-11,10.4-17.1"/>
				<path id="XMLID_16423_" class="st4" d="M2.3,61.1c0.1,3.3-3.2,10.2,3.3,8.8c0.8,3.3,0.6,6.8-0.6,10c0.4,0,1,0.2,1.5,0.1
					c1.7,2.9,1.5,9.2,1.6,12.3c0.7-4,0.9-7.9,1.9-11.8c-0.3,0.9-0.6,1.9-1.1,2.8c-1.6-2.6-2.9-3.4-2.8-6.2c0.1-1.8,0.9-3.5,0.8-5.4
					c-0.1-1.3-0.7-2.6-0.8-3.9c-5.4,4-3.2-8.2-3.3-9.8c0.2,0.5,0.3,1.1,0.4,1.6"/>
				<g id="XMLID_16418_">
					<path id="XMLID_16422_" class="st5" d="M84.9-11.8c-1.1-0.2-6.7,6.7-8.4,8c-5.3,4-10.8,7.4-16.2,11.2
						c-13.5,9.5-29.9,19.3-37.7,34c0.6-0.5,1.6-0.5,2.3-0.8c2.9,5.4-3.5,10.5-4.8,15.4c-1.5,5.8-1.7,12.2-3.4,18
						c-0.9,3.2-1.7,3.4-3.5,0.4c0.1,4.5-2.7,9.7-3.5,14.2c-1.1,5.6-2.7,11.1-3.9,16.7c-0.9,4.4-1.8,8.8-1.1,13.4
						c0.6,4.3-0.2,5.2,1.2,9.3c-1.1-6.7-1.6-8.6-1.5-15.4C4.7,101.1,7.6,90,12.9,80c-1.6,8.1-4.1,17.1-3.9,25.5
						c2.2-5.2,2-12.2,3.7-17.8c1-3.2,2.3-6.2,4.1-9c3.1-4.8,7.4-10,9.3-15.1c-1.5,3.7-4.7,6.7-6.7,10.2c-1.2,2-2.2,4.6-3.8,6.1
						c2.4-4.9,2.9-11.2,4.6-16.3c1.4-4.4,2.8-8.3,3.7-12.9c0.8-4.2,2.8-8.8,5.2-12.3c2-2.9,5.5-7.9,8.4-9.9
						c-1.8,0.7-2.9,2.6-4.9,2.9c1.3-4.3,8.7-8.5,12.2-11.2c5-4,9.8-8,15.3-11.5c8.3-5.3,15-8.7,23.3-14c-1.6,2.7,1.8,3.1-1.1,5.4
						c-7.5,6-14.7,12.5-21.2,19.6c4.2-2.3,7.6-5.7,11.2-8.7c-5.6,5-11.3,10.2-17,15c1.6-4.8,4.5-7.7,7.1-11.8
						c-4.9,4.5-10.3,9.1-13.6,14.9c1.7-1.2,3.2-3.4,5.2-1.3c-1.6,5.5-7.6,10-10.9,14.7c-5.2,7.5-11.4,14.7-15.1,23.2
						c0.3-0.7,0.8-1.2,1.2-1.8c0.2,0.1,0.4,0.1,0.6,0c-2.2,4.4-5.6,8.4-7.4,12.9c-0.6,1.5-1.6,3.9-1.5,5.6c0.1,1,1.2,1.9,1.2,2.9
						c0.1,3.2-3,7.7-4,10.8c-1.1,3.3-2,7.3-1.8,10.8c2.4-0.4,4.4-3.8,4.3-5.6c-0.1-2.4-1.2-2.9-0.5-5.4c0.8-2.8,3-4.7,4.1-7.2
						c-0.7,2.4,1.5,2.3,1.9,3.8c0.6,2.3-2.1,5.9-3,7.8c-1.4,2.9-2.3,4.7-2.3,7.9c-0.1,3.6-0.9,5.6-2.5,8.7c-2.7,5.6-4.9,8-4.8,14.4
						c0.1,3.9,2.3,1.7,5.3,4.4c-1-5-0.6-4,1.3-8.7c0.4,0.9,0.8,1.8,1,2.7c1.4-2.3,0.3-5.7,0.2-8.2c-0.1-4-0.3-8.1,0.9-11.9
						c2.3-7.8,5.2-16.1,8.2-23.6c-1.2,0.4-2.5,0.4-3.8,0.4c-0.2-3.5-2.5-5.2-1.2-8.7c2.1-5.9,6.2-10.6,8.6-16.4
						c3.4-8.3,7-15.7,13.2-22.5c2.6-2.8,6.7-10,10.4-11.3c1.7-0.6,2.5,0.5,4.4,1.4c-1,3-3.5,5.1-5,7.9c2.6,1.3,3.8,1.6,2.8,4.1
						c-0.9,2.2-4.1,4.5-5.6,6.4c-2,2.4-3.5,4.9-5.2,7.4c-1.7,2.5-5.1,5.1-5.8,8.1c-0.2,1.1,0.5,2.3,0,3.7c3-4.5,6.7-9,10.2-13.3
						c3.2-3.9,5-8.3,9.6-11c5-2.9,9.6-6.3,14.2-9.7c2.7-1.9,7.1-4.5,8.9-7.1c-4-0.8-8.8,4.3-11.7,6.3c-2.6,1.7-7.3,6.2-10.7,6.2
						c-0.4-4.4-2.7-8.9-2-12.9c0.5-2.7,3.4-4.6,5.6-6.2c2.9-2.2,5.3-4.6,7.4-7.5c2.2-3,4.3-5.2,7.1-7.8c1.3-1.2,2.8-2.6,3.6-4.2
						c1.9-3.9,0.3-7.9,0.1-11.6"/>
					<path id="XMLID_16421_" class="st5" d="M90.6,31.3c-2.8,0.8-5.1,4.1-6.4,6.5c-2.3,4.3-5,8.2-7.4,12.4c0.5-1,0.9-2.2,1.2-3.3
						c-3.1,3.6-2.4,4.2-7,2.3c-1.2,1.6-2.9,3.5-4.5,4.8c-2.1,1.7-4.4,2.2-6.6,4.1c-1.9,1.7-5.6,4.3-6.6,6.8
						c-0.9,2.4-1.2,5.1-2.2,7.7c1.8-0.5,3.9-4.1,4.8-5.9c0.1,0.1,0.3,0.4,0.1,0.4c1.5-2,0.8-3.6,2.9-5.7c2.2-2.2,4.8-4,7.2-6
						c1.4-1.2,3.3-3.5,5.2-3.8c1.5-0.2,2.5,0.6,4,0.6c-2.1,3.9-7.5,8.7-7.9,13.4c-0.1,1.5,1,2.2,1.3,3.5c0.7,2.3,1.2,0.2-0.5,2.8
						c-2.7,4.3-5.7,7.6-7.6,12.4c-1.6,4-2.4,7.9-4.5,11.7c0-5.4,4.6-9.4,5.2-14.4c0.2-1.8-1.1-4-1.4-6c-0.5-2.7,0.5-5,1.2-7.5
						c-1.1,2.4-1.7,5-2.7,7.4c6,1.6-3.4,17.2-4.7,20c-1.9,4-5.3,5.3-7.5,8.9c-1.3,2.2-1.3,3-3.3,3.4c-0.5,0.1-1.7-0.4-2.5-0.3
						c-1.1,0.2-2.4,1.8-3.3,2.5c-0.8-1.9-2.9-3.6-3.4-5.5c-0.7-2.7,1.2-6,2.2-8.3c2.6-5.8,3.8-12.4,11.2-11.3
						c-0.6,2.8-2.2,5.2-3.5,7.8c2.7-1.5,4-7.9,4.9-10.7c-0.7-0.7-1.6-1.2-2.6-1.4c-1.4,3.4-2.6,2.4-5.2,3.1c-3.4,0.9-4.1,4-5.4,6.8
						c-2.3,5-5.8,10.4-7.3,15.8c-1.3,4.5-0.6,9.2-2.4,13.7c-3.3,8.6-2.5,8.6-3.2,18c2.2,0.2,3.5,0.2,4.6,2.3
						c-0.3-4.3,5.2,2.4-0.8-0.6c-2.5-1.2-1.2-2.4-1.2-5.2c0-2.8,1-5.8,1.6-8.7c1.5-7.3,1.1-16.3,5.3-22.7c0.2,4.4,1.9,8.3,6.8,6.9
						c1.5,2.3,5,0.3,7,2.2c1.4,1.3,0.4,3.6,1.2,5.4c1.3,2.7,5.7,3.5,6.4,6c0.6,2.4-2.9,7.6-3.5,9.9c-0.6,2.3,0,4.3-0.1,6.5
						c-0.1,4.2-2.6,4-4.5,7.8c-2.6-0.7-4.4-1.4-6.9-2.8c-2.8-1.6,1-6.4,1.7-9.1c1.1-4.7,1.1-9.9,2.7-14.5
						c-3.8,4.5-3.8,12.1-5.8,17.6c-1.5,4.2-2.2,2,0.5,5.9c2.7,3.9,7.7,4.5,12.1,6.2c0.4-2.1,0.7,4.7,2,3c0.4-0.5-0.2-1.5,0.3-2.1
						c0.7-0.9,0.6-1.9,0.9-2.9c0.6-2,2.6-5.6,1.8-7.5c-0.9-2-3.3-2.4-3.4-5.4c-0.2-4.5,3-8.3,2.7-12.7c-0.3-3.8-5.3-5.6-6.4-9.3
						c-0.5-1.5,0.3-2.8,0.3-4.5c0-1.9-0.9-2-0.1-4c1.5-3.9,4.5-3.8,7.2-6.2c1-0.9,1.5-2.2,2.4-3c0.3-0.3,1.1,0.2,1.4-0.2
						c0.5-0.6,0.3-1.3,0.6-1.9c2.2-3.8,3.5-8.3,5.4-12.3c1.2-2.6,2.4-5.3,3.9-7.6c1.3-2,3.4-3.1,4.1-5.5c-2.6-2-2.9-2-2-5
						c1.2-3.8,2.8-7.1,5.3-10.1c3.8-4.6,7.2-10.1,10.2-15.3c4.3,5.3,4,11.7,5.8,18c0.9,3.2,0.4,5.3-2.4,5c-2.3-0.3-3.4-2-6.1-1.4
						c-1.9,0.4-3.7,1.5-5.4,2.3c5,2.7,1.6,3.9,3.4,7.6c1,2,4.6,3,4.9,5.3c0.3,2.7-3.6,6.9-4.4,9.6c-0.5,1.9,0,2.9-2.2,3.1
						c-1.5,0.1-3.2-2-4.6-1.5c-0.4,0.2-1.3,2.4-1.7,3c-1.3,2-2.1,2.9-4.7,2.2c-1.7-0.5-3.9-3.5-5-0.7c0.9-1.9,2.9-7.5,6.3-8.1
						c1.9-0.4,2.6,1.2,4.4-0.5c2.6-2.5,0.7-7.4,1.8-10.5c-2.9,2.5,0.9,8.3-3.4,9.8c-1.4,0.5-3.4-1-4.8-0.1c-1.4,0.8-2.6,4.2-3.5,5.5
						c-2,3.3-2.2,6.7-3.7,10.1c-1.5,3.5-3.4,7.1-5.2,10.5c-1.3,2.5-3.7,5.5-3.9,8.3c0.5-0.7,1.4-1.3,2-1.9c0.7,0.9,1.2,2,2,3.1
						c1.3,1.8,3.2,2.6,4.3,4.2c2,3-1.9,6.9-2.1,10.4c-0.1,3.4,0.6,6.4-0.9,9.6c-2.2,4.8-6.4,9.5-6.9,15c0.3,0.4,1.1,1.3,1.5,1.6
						c1.5-3.7,2.1-7.7,4-11.5c1.7-3.2,4.5-6.3,4.8-10.1c0.2-3.1-0.7-5.8,0.1-9c0.7-2.8,2.3-4.3,1.2-6.9c-1.2-2.9-5.5-5.4-6.3-8.4
						c-0.9-3.2,2.9-8.3,4.3-11c2.8-5.3,4.5-9.9,11.5-6.7c1-2.9,3.9-3.4,5.5-5.8c2.6,3.9,4.4,0.6,5.6-1.5c2-3.3,6.2-7.2,5.7-11.4
						c-0.3-2.8-0.3-1.1-2.3-3c-1.6-1.5-1.6-2.9-1.8-4.8c-0.1-0.7-0.8-4.1-0.6-4.7c0.7-1.9,3.7-0.7,5.6-0.3c3.2,0.7,4.1-0.3,6-3.2
						c1.9-2.8-0.5-2.4-1.3-5.6c-1-3.8,0.9-8.2,0-12.1c-0.8-3.6-4.5-5.5-3.3-9.5c0.2-0.2,0.4-0.1,0.7,0.4"/>
					<path id="XMLID_16420_" class="st3" d="M92.6,68.6c-5,1.7-5.6,10.6-7.6,15c-3.5,7.5-8.2,13.6-13.5,19.8
						c-5.5,6.3-5.5,15.5-8.9,22.8c-1.5,3.1-1.8,5.2-2.1,8.7c-0.4,3.7-2,6.8-3.8,10.1c-3.2,5.5-4.6,6.4-4.7,12.8c2.1,1.1,4.7,7.5,7,8
						c0.8-2.5,1.4-4.9,2.5-7.3c0.5-1.1,1.2-2.3,1.5-3.4c0.4-2-0.4-2-0.7-3.4c-0.4-2.5,0.6-5,0.7-7.8c0.1-3.2,0.4-5.5,1.2-8.5
						c2.2-7.9,6.7-14.3,9.5-21.9c1.7-4.7,5.9-4.9,9.2-8c2.3-2.1,2.8-5.3,5-7.5c2.3-2.3,4.6-3.4,6.4-6.4c1.9-3.2,4.5-5.3,6.8-8.2
						c-2.7-3.7-2.7-6.1-3.4-10.4c-0.4-2.5-1.5-4.5-4.7-3.7"/>
					<path id="XMLID_16419_" class="st5" d="M65.9,160.6c0.8-3.6,0.9-9.3,3.1-12.4c0.5-0.7,1.7,0,2.1-0.9c0.6-1.1,0.2-2.9,0.3-4.1
						c0.8-8.7,3.8-16.3,7.2-24.2c-0.4,1.6-1,3.7-0.1,5.3c2.3-4.7,6-8.5,8.4-13.1c2-3.9,3.2-7.1,4.3-11c1.5-5.5,8-7.6,12.4-10.5
						c-1.9,2.6-5.3,4.9-7.1,7.6c-1.1,1.6-1.3,3.2-2.6,4.8c-2.4,2.9-6.4,6.2-7.5,9.9c2.5-0.8,6.6-2,8.8,0.4c2.8,3-3.5,5.5-4.5,8.2
						c0.1-2.5,4-9.1-0.9-7.4c-3.9,1.3-7.5,8-9.4,11.4c-1.7,3.1-0.5,2,0.7,5.1c1.5,3.9-1.9,6.8-0.8,10.5c1.2,3.9,3.5,7.6,2.4,11.7
						c-0.7,2.5-2.4,4.8-3.6,7c-0.3-3.2,0.7-6.7,0.7-10c0-2.7-0.5-5.2-0.8-8c-0.5-5.1,0.7-9.3-1.2-14.2c-2.6,4.3-4.9,11.1-5.2,16.1
						c-0.1,2.6,0.2,4.6-1,7.1c-1,2.1-2.1,3.4-2.4,5.7c-0.3,2.4,0.1,4.5-1.3,6.6c-0.8-0.1-1.6-1.6-2.2-1.6"/>
				</g>
				<path id="XMLID_16417_" class="st3" d="M84,36.9c-1.7,1.6-3.4,4.8-4.3,7c0.3-0.6,0.9-1,1.6-1.1c-0.5,2.1-3.3,4.7-5,5.8
					c-0.6,0.4-1.5,1-2.2,1c-0.9,0.1-2.1-0.8-3.2-0.5c-2.2,0.6-4.6,3.5-6.2,5.1c-2.1,2-4.8,3.2-6.9,5.1c4.2-0.9,6.9-5.8,10.4-8
					c2.6-1.6,5.5-0.2,8.2-1.6c1.2-0.6,1.5-1.9,2.2-3c0.8-1,1.7-2,2.4-3.1c0.9-1.5,2.2-6.1,3.3-6.7"/>
				<path id="XMLID_16416_" class="st3" d="M31.8,141.8c0,0.2,0.1,0.4,0.1,0.6c0.8-0.6,1.5,0.4,2.4,0.1c0.6-0.2,1.2-1.7,1.5-2.3
					c1.5-2.8,1.6-6.3,2.4-9.4c0.7-2.8,2.1-6.1,1.8-9c-0.3-2.7-0.8-4.7-0.2-7.4c0.3-1.1,0.5-2.2,0.7-3.3c-1.8,3.8-0.5,8.5,0,12.4
					c0.8-0.4,1.1-1.6,1.7-2.4c1-1.2,2.4-2,3.1-3.4c0.9-1.8,0.7-4.1,1.3-6.1c0.4-1.3,1-2.7,1.2-4.1c0.2-1.8-0.2-3.4,1.3-4.9
					c2-1.9,5.1-2.2,7.1-4.4c4-4.3,4.3-10.1,7.3-15c1.5-2.6,3.1-5,4.4-7.8c0.4-0.9,2.9-6.4,4.2-6.2c0,0,0.1-0.1,0.1-0.1
					c-0.1,2.2-2.6,5.2-3.9,7c-1.4,1.9-2.2,4.2-3.2,6.3c-1.9,4.2-3.9,8.3-5.8,12.5c-1.9,4.1-5.5,5.6-9,8.2c-1.9,1.4-2,3-2.3,5.3
					c-0.2,1.9-0.9,3.6-1.3,5.4c-0.8,3.4-0.8,5.4-3.3,7.9c-2.5,2.4-3.4,5.2-4.2,8.5c-0.7,3.1-1.4,5.9-2.6,8.9
					c-0.3,0.9-0.7,3.9-1.8,4.2c-0.5,0.1-1.2-0.7-1.5-0.8c-0.8-0.3-1.3,0-1.3-0.3"/>
				<path id="XMLID_16415_" class="st6" d="M93.1,69.7c-0.4,0.2-1.5,0.2-2.2,1c-0.7,0.9-0.5,2-0.7,3.1c-0.8,3.4-2.6,6.8-4.1,10
					c-1,2.2-1.8,4.4-3.1,6.5c-1.3,2.1-3.2,4.2-4,6.6c4.4-2.3,6.3-8.6,10.1-11.8c1.8-1.5,5.7-1.1,7.1-3c1.2-1.7-1.8-5.1-2.1-7.2
					c-0.2-1.2,0.4-4.3-1-4.6"/>
				<path id="XMLID_16414_" class="st6" d="M94.7,85.3c-0.7,1.5-3.3,2.5-4.5,3.8c-1.3,1.3-1.9,3.2-3.2,4.5c-1.1,1.2-2.9,1.8-4.1,2.9
					c-1.2,1-2.2,2.2-3.4,3.2c-2.4,2.1-4,4.5-6.2,6.8c-2.7,2.8-5,5.4-6.8,8.9c-2.3,4.2-3.1,10-4,14.7c-0.9,4.5-2.1,8.9-3.8,13.2
					c-1.3,3.1-3,6-3.5,9.3c-0.4,2.3,0.3,5.8,2.3,7.5c0.2-5.3-0.2-11.2,1.6-16.3c1.6-4.7,3.4-9.2,4.7-13.9c0.9-3.3,1.5-6.7,2.7-9.9
					c1.5-3.6,3.6-6.5,5.7-9.7C76.3,104,84.3,101.4,88,95c1.2-2,3.2-3.5,4.8-5.2c1.6-1.7,1.2-2.2,1.7-4.1"/>
			</g>
		</g>
	</g>
	<path id="XMLID_16409_" class="st7" d="M70.4,91.7c0,0,14.9,23.3,13.7,29.6c-1.2,6.4-2.5,25.9-23.1,23.9S39,132,46.1,127.9
		s26.5,4.8,25.2-12.5S59.5,87,70.4,91.7z"/>
	<g id="XMLID_16406_" class="st8">
		<path id="XMLID_16408_" class="st9" d="M81.6,5.7c0,0-20.5,5.3-29.5,18.2S39.5,43.8,33.9,46.6c-5.7,2.7-4.2,16.2-5.1,18.4
			c-1,2.1,18.3,17.4,25.2-8s12.8-34.3,23.3-38.1S90.9,7.4,81.6,5.7z"/>
		<path id="XMLID_16407_" class="st10" d="M79.3,9.3c0,0-16.6,6.7-19.7,10.9c-3.2,4.2-15.9,24.6-20.5,27.3
			c-4.5,2.7-6.1,9.7-4.8,12.2c1.3,2.6,9.6,12.5,13.2,1.1s-0.1-16.2,4-20.5s5.1-15.5,16.1-20.5S83.2,10,79.3,9.3z"/>
	</g>
</g>
</svg>
